<svg xmlns="http://www.w3.org/2000/svg" xmlns:xlink="http://www.w3.org/1999/xlink" viewBox="0 0 580 580"><defs><style>.cls-1{fill:none;}.cls-2{isolation:isolate;}.cls-3{clip-path:url(#clip-path);}.cls-4{fill:#fdea8b;}.cls-5{fill:#fff;}.cls-6{fill:#014e7f;}.cls-7{fill:#f7931e;}.cls-8{fill:#ffec8d;}.cls-9{fill:#262261;}.cls-10{mix-blend-mode:multiply;}.cls-11{fill:#ffd459;}.cls-12{clip-path:url(#clip-path-2);}</style><clipPath id="clip-path"><rect class="cls-1" x="3.79" width="580" height="580"/></clipPath><clipPath id="clip-path-2"><rect class="cls-1" x="-0.73" y="3535.7" width="580" height="580"/></clipPath></defs><title>iiLAB -U1-concepts-06-WEBSITE UNDER ATTACK</title><g class="cls-2"><g id="Layer_2" data-name="Layer 2"><g class="cls-3"><rect class="cls-4" x="-33.23" y="-23.57" width="645" height="645"/><path class="cls-5" d="M228.22,50.7H492.09s54.1,49.36,29.17,216.68-18.93,185-42.93,232.17-31.78,60.93-31.78,60.93l-233.4-42.34s79.4-131.17,70.29-250.3S228.22,50.7,228.22,50.7Z"/><path class="cls-6" d="M537.25,36.7a1847.28,1847.28,0,0,0-213-2q-30.2,1.47-60.35,3.93a2.52,2.52,0,0,0-1.76,4.24,116,116,0,0,1,27,47.84l2.39-3.14a217.69,217.69,0,0,1-42.65-1.2l2.39,3.14a264.77,264.77,0,0,1,17.3-37.61c1.56-2.79-2.73-5.3-4.29-2.51a273.1,273.1,0,0,0-17.8,38.79c-0.62,1.68.95,3,2.39,3.14a217.69,217.69,0,0,0,42.65,1.2,2.52,2.52,0,0,0,2.39-3.14,121.42,121.42,0,0,0-28.24-50l-1.76,4.24a1847.28,1847.28,0,0,1,213-5q30.22,1,60.4,3.08c3.19,0.21,3.18-4.75,0-5h0Z"/><path class="cls-6" d="M246.46,88.25c16.51,52.89,20.59,108.43,20.31,163.56-0.14,27.4-1.29,54.79-2.55,82.15-1.22,26.46-2.76,53-6.67,79.2-4.39,29.45-11.86,58.52-24.93,85.37-0.62,1.28-.22,3.38,1.48,3.65l165.45,25.58,41.36,6.4,19.7,3c5.44,0.84,11.85,2.89,17.37,1.83,4.27-.82,6.82-3.82,8.66-7.56,2.64-5.38,4.82-11,7.09-16.58q7-17.17,12.95-34.76c31.46-93.26,39.57-193,34-290.81C537.54,133.8,530,78.58,519.61,24a2.53,2.53,0,0,0-3.06-1.73l-7.67,1.47c-3.14.6-1.81,5.39,1.32,4.79L517.87,27l-3.06-1.73c18,94.29,27.43,190.89,20,286.82-3.68,47.83-11.68,95.4-25.05,141.5a591.8,591.8,0,0,1-24,67.55c-2.42,5.66-4.06,13.34-11.54,13.08-6.66-.23-13.59-2-20.18-3l-39.39-6.09L235.44,497.4l1.48,3.65c23.4-48.1,28.91-101.91,31.66-154.64,2.9-55.71,5.5-111.91.36-167.56-2.88-31.14-8.36-62-17.69-91.91-0.95-3-5.75-1.74-4.79,1.32h0Z"/><path class="cls-6" d="M346.68,100.61a109.29,109.29,0,0,0-29.24.2c-6.87,1-14.32,2-17.14,9.28-2.57,6.62-2.93,16.29-2,23.23,1,7.36,6.67,9.32,13.18,10.84a126.72,126.72,0,0,0,28.26,3.66c7.55,0,10.29-4,11.38-11.15,1.19-7.75,2.46-18-.34-25.59-1.81-4.88-7-7.31-11.25-3.84-2.27,1.84,1,5,3.21,3.21l3.32,1.14a8.73,8.73,0,0,1,.9,3.11,34.43,34.43,0,0,1,.4,3.85,81.11,81.11,0,0,1,.14,8.32,68.5,68.5,0,0,1-1.06,10.42c-0.69,3.6-1.45,5.54-6,6-5.83.59-12.6-.74-18.34-1.65-5-.79-12.47-1.2-16.73-4.18s-2.84-11.55-2.47-16.14c0.46-5.81.7-12.5,7.22-14.5,11.43-3.51,24.75-3.13,36.48-1.67,2.89,0.36,2.87-4.18,0-4.54h0Z"/><path class="cls-6" d="M374.91,125.71q46.78-2.52,93.63-3.13l-1.15-4.23-4.58,3.09c-2.41,1.63-.14,5.56,2.29,3.92l4.58-3.09c1.79-1.21,1.22-4.26-1.15-4.23q-46.84.61-93.63,3.13c-2.91.16-2.93,4.7,0,4.54h0Z"/><path class="cls-6" d="M343.74,174.63c-9.27-.07-18.59-0.47-27.86-0.21-6.48.18-8.58,3.42-9.94,9.43a133.66,133.66,0,0,0-3.15,24.3c-0.2,5.17-1.64,13.65,3.29,17.16,2.43,1.73,5.78,2,8.64,2.44,4,0.64,8,1.14,12,1.45,5.64,0.44,11.52.53,15.45-4.19s4.72-12.26,5.48-18.17a93.49,93.49,0,0,0-.25-24.67c-0.39-2.88-4.77-1.66-4.38,1.21,1.51,11.12,1.29,23.24-2.09,34-2.1,6.71-6.82,7.78-13.24,7.33-5.38-.38-14.46-0.07-18.61-3.76-3.55-3.15-1.87-12-1.57-16.5a128.19,128.19,0,0,1,2.41-17.62c0.9-4.34,1.16-7.14,6.95-7.89,2.55-.33,5.39,0,8,0.06l18.9,0.15c2.92,0,2.93-4.52,0-4.54h0Z"/><path class="cls-6" d="M371.94,204.29q46.79,0.1,93.49,3.09c2.92,0.19,2.91-4.35,0-4.54q-46.69-3-93.49-3.09c-2.92,0-2.93,4.53,0,4.54h0Z"/><path class="cls-6" d="M344.47,264.33a79.65,79.65,0,0,0-25.93-1.69c-6,.67-12,2.58-15.23,8.05-3.73,6.31-3.52,14.95-4.29,22-0.48,4.37-1,8.74-1.45,13.11-0.31,3-.78,6,1.48,8.41s6.4,3.07,9.46,3.84a77.52,77.52,0,0,0,11.86,2c7.28,0.67,13.69-.2,18.18-6.47,9.48-13.21,12.53-31.89,11.5-47.76-0.19-2.9-4.73-2.92-4.54,0a78.53,78.53,0,0,1-6.59,37.61c-3,6.53-6.07,12.15-14.07,12.32a54,54,0,0,1-11.41-1.26c-2.79-.55-6.78-0.95-9.2-2.46-3.57-2.22-2.08-6.56-1.7-10l1-9.37c0.63-5.7.57-12.18,2.67-17.59,2.69-6.94,9.93-7.91,16.49-8.22a78,78,0,0,1,20.54,1.84c2.85,0.63,4.06-3.75,1.21-4.38h0Z"/><path class="cls-6" d="M370.49,295.94q46.2,3.46,92.56,3.34L461.9,295l-9.39,6.13c-2.44,1.59-.16,5.53,2.29,3.92l9.39-6.13a2.29,2.29,0,0,0-1.15-4.23q-46.33.13-92.56-3.34c-2.92-.22-2.9,4.32,0,4.54h0Z"/><path class="cls-6" d="M322.32,348.19c-6.84,1.28-14.09-1.83-20.76.61s-8.37,9.73-10.07,15.88q-1.7,6.15-2.83,12.45c-0.5,2.8-1.77,6.76-.66,9.56,0.93,2.35,2.8,3.08,5.17,3.56a102.26,102.26,0,0,0,13.3,1.4c8.7,0.59,17.85,1,26.53-.21,6.65-.9,9.14-5.38,10-11.63,1.52-10.57-2.09-23.72-13.6-26.71-2.83-.74-4,3.64-1.21,4.38,9.41,2.45,11.68,14,10.23,22.37-0.56,3.27-1.65,6.14-5.29,7-3.11.75-6.83,0.52-10,.6a179.56,179.56,0,0,1-18.65-.5c-2.93-.23-5.88-0.5-8.79-0.91-4.78-.67-3.35-3.91-2.67-7.71a135.31,135.31,0,0,1,4.12-16.82c2.21-7,5.76-9.4,12.94-9,4.56,0.27,8.89.89,13.43,0,2.87-.54,1.65-4.91-1.21-4.38h0Z"/><path class="cls-6" d="M374.91,372.14a770.15,770.15,0,0,1,86.15,3.6c2.91,0.29,2.89-4.26,0-4.54a770.15,770.15,0,0,0-86.15-3.6c-2.92,0-2.93,4.58,0,4.54h0Z"/><path class="cls-6" d="M321.45,408.91c-11.89.75-27.94-4.79-36.76,6.36-4.17,5.28-4.93,12.73-5.83,19.17-0.85,6.1-2.91,14.66.15,20.42,5.52,10.39,20.48,8.38,28.43,2.46,10.5-7.83,12.58-21.79,11.11-34-0.34-2.87-4.89-2.9-4.54,0,1.16,9.65.41,20.68-6.68,28.07-6.92,7.22-25.22,10.5-25.11-3.93a103.49,103.49,0,0,1,1.94-17.57c0.94-5.18,2-11.1,6.73-14.26,8.78-5.87,20.83-1.57,30.56-2.19,2.9-.18,2.92-4.73,0-4.54h0Z"/><path class="cls-6" d="M343.75,444.62q49.68,2.61,99.43,3.24c2.92,0,2.92-4.5,0-4.54q-49.74-.63-99.43-3.24c-2.92-.15-2.91,4.39,0,4.54h0Z"/><path class="cls-7" d="M88.52,532.8l81.94-58.65c1-.72,2.19-1.47,3.38-1.16a4.25,4.25,0,0,1,2.09,1.74q9.47,12.3,18.3,25.08Q150,527.69,107,557.6l-5-4.76c-3.78-3.57-7.73-7.41-9.06-12.44s1.2-11.45,6.33-12.33"/><path class="cls-6" d="M100.89,535l53.82-38.53,12.85-9.2c4.35-3.11,8.85-7.49,13.66-9.78,1.79-.85,2.8-1.49,4.83.07a16.72,16.72,0,0,1,2.35,3.09q2.34,3.1,4.64,6.23,5.17,7,10.14,14.22l0.9-3.42q-44.24,27.9-87.18,57.8l3,0.39c-3.91-3.69-8.5-7.29-11.46-11.82-2.76-4.22-3.7-11.89,2.58-13.53,3.11-.81,1.79-5.64-1.33-4.82-6.08,1.59-9.23,7.87-8.36,13.89,1.21,8.42,9.28,14.38,15,19.82a2.54,2.54,0,0,0,3,.39q42.93-29.89,87.18-57.8a2.53,2.53,0,0,0,.9-3.42q-5.53-8-11.29-15.78c-2.6-3.51-5.52-9.4-9.42-11.59-3.62-2-6.86,1.09-9.7,3.12L161,485.79,98.36,530.64c-2.59,1.86-.1,6.2,2.52,4.32h0Z"/><path class="cls-8" d="M186.32,472q32-10.75,63.54-23c-9.57,15.52-19.26,31.18-32.07,44.15-1.6,1.62-3.43,3.29-5.7,3.54s-4.49-1-6.38-2.36a59.53,59.53,0,0,1-17.17-18.82"/><path class="cls-6" d="M187,474.41q32-10.77,63.54-23l-2.82-3.67c-7.75,12.57-15.53,25.24-25.14,36.5a85.92,85.92,0,0,1-7,7.63c-4.05,3.72-7.37,1.32-10.86-1.45a58.86,58.86,0,0,1-14-16.18c-1.64-2.76-6-.25-4.32,2.52a63.57,63.57,0,0,0,15.49,17.8c5.93,4.62,11.26,6.46,17.18.84,13.48-12.78,23.29-29.46,33-45.14,1.07-1.73-.74-4.48-2.82-3.67q-31.5,12.26-63.54,23c-3,1-1.73,5.85,1.33,4.82h0Z"/><path class="cls-9" d="M220.51,462.09l11.4,9.82A80.44,80.44,0,0,0,245,449a116,116,0,0,0-26.49,14.83"/><path class="cls-6" d="M314.45,107.86a28.49,28.49,0,0,0,7,18.8,2.51,2.51,0,0,0,3.54,0,577.4,577.4,0,0,1,68.88-64.82c2.52-2-1-5.52-3.54-3.54a577.4,577.4,0,0,0-68.88,64.82H325a23.22,23.22,0,0,1-5.52-15.27c0-3.22-5-3.22-5,0h0Z"/><path class="cls-6" d="M320,199.26c-2.49,4.2-.42,9,3.7,11.27,5.14,2.86,10.62-.11,14.54-3.63,5.9-5.29,11.08-11.3,17.14-16.46a183,183,0,0,1,20.46-15.05c2.71-1.73.2-6.05-2.52-4.32a190.51,190.51,0,0,0-24.09,18.12q-5.52,4.9-10.63,10.25a38.2,38.2,0,0,1-5.77,5.48,6.75,6.75,0,0,1-5,1.48c-1.76-.24-5.3-1.55-3.49-4.6,1.65-2.77-2.68-5.29-4.32-2.52h0Z"/><path class="cls-6" d="M315.88,282.13L319.75,293a2.54,2.54,0,0,0,3.67,1.49q23.71-12.71,46.28-27.39c2.69-1.75.18-6.08-2.52-4.32q-22.56,14.67-46.28,27.39l3.67,1.49L320.7,280.8c-1.07-3-5.9-1.71-4.82,1.33h0Z"/><g class="cls-10"><path class="cls-11" d="M243.74,306c0.09-6.69-3.75-13.48-9.88-16.16s-14.19-.58-17.64,5.16c3.95-5.82-10.09-12.51-13.33-18.75,7.35-5,15-13.19,12-21.57-3.27-9.2-16-9.83-25.57-7.8-17.07,3.62-35.75,12.88-39.24,30,1.2-4.17-1.75-8.66-5.64-10.6s-8.44-1.91-12.77-1.65c-11.74.71-23.69,3-33.67,9.2-9.78,6.11-17.35,16.59-17.72,28.08,0-6.82-9-10.23-16.07-10.23-17.18,0-42,7.21-48.1,25.16-2.22,6.49-1.46,14-3.78,20.84-3.14,9.29-10,16.18,3.35,21.25a54.21,54.21,0,0,0,23.37,3.32c-2.32,6.48-11.39,9.15-12.53,15.93-1,6.07,5.06,10.92,10.81,13.12A48.35,48.35,0,0,0,64,393.48c-4.08,3.9-10.68,5.51-12.75,10.76-2.15,5.47,2.47,11.71,8.07,13.49s11.66,0.41,17.38-1l14.14-3.42a101.49,101.49,0,0,1-5.93-23.77c-1.46-11.23-2.16-29.68-.5-40.88,11.57,5.76,26.21,3.1,39.19.14,6.78-1.55,15.33-5.53,14.17-12.39a42.27,42.27,0,0,0,33.76,11.08,41.34,41.34,0,0,0,13.65-4.22l-1-1.54c15.41,22.86,20.3,34.25,19.91,58.88l7.62-.84c23.92-12.93,29.51-40.47,18.77-55.3a11.37,11.37,0,0,0,12.93-18,6.55,6.55,0,0,0-4.67,4.22,6,6,0,0,0-3.7-7.93C240.11,318.75,243.65,312.51,243.74,306Z"/></g><path class="cls-6" d="M110.16,345.36a38,38,0,0,0-21.15,18c-1.37,2.56,2.53,4.85,3.9,2.28a33.3,33.3,0,0,1,18.45-15.91c2.73-1,1.55-5.33-1.2-4.36h0Z"/><path class="cls-6" d="M108,375.82c2.93-1.86,7.2,2.08,3.51,4.17-3.48,2-3.58-3.56-1.08-3.55,2.91,0,2.91-4.51,0-4.52-3.89,0-6.57,3.77-6.25,7.47,0.38,4.45,4.9,6.6,8.83,4.89s5.85-6.26,3.45-9.93a8,8,0,0,0-10.75-2.43c-2.45,1.56-.18,5.47,2.28,3.9h0Z"/><path class="cls-6" d="M157.25,366.42a14.43,14.43,0,0,1,5.26-2.51c1.09-.17,4,0.33,3.73,2.15-0.23,1.41-2.31,1.17-3.24.8-1.59-.64-2.83-2.26-3.91-3.51-1.92-2.19-5.11,1-3.2,3.2,2.2,2.51,4.86,5.11,8.43,5.13,3,0,6-1.87,6.37-5s-2-6.08-5-7c-3.84-1.23-7.62.86-10.77,2.86-2.45,1.56-.18,5.47,2.28,3.9h0Z"/><path class="cls-6" d="M171.35,349.21c-11.53-13.2-33.21-9.34-38.94,7.4-2.89,8.46-.19,16.78,5.06,23.66,7.38,9.67,17,18,25.53,26.59l0.46-3.55a68.72,68.72,0,0,1-31.67,9.09c-2.9.11-2.91,4.64,0,4.52a73.81,73.81,0,0,0,34-9.71,2.29,2.29,0,0,0,.46-3.55c-6.36-6.44-12.76-12.83-19.07-19.31-5.45-5.6-11.49-12.15-11.44-20.48,0.1-17.36,21.49-24,32.47-11.47,1.92,2.2,5.1-1,3.2-3.2h0Z"/><path class="cls-6" d="M191.38,359.87c0.75-5,6.3-10.2,10-4.26,1.87,3,4,10.78,1.9,13.68-1.19,1.68-3.45,3-5.11,4.19-1,.71-3.25,2.55-4.29,2.49-2.91-.17-2.9,4.36,0,4.52,2.31,0.13,4.8-1.88,6.57-3.11,2.38-1.66,5.12-3.51,6.88-5.86,2-2.66,1-6.71.61-9.79a21.71,21.71,0,0,0-3-8.91c-5.76-8.74-16.59-3-17.91,5.85-0.43,2.85,3.93,4.07,4.36,1.2h0Z"/><path class="cls-6" d="M82.17,393.81A44.57,44.57,0,0,0,57.5,406.34c-6,6.09-11.43,15-8.47,23.78,2.44,7.26,9.91,11.93,17.21,13,10.35,1.59,20.31-3.5,29.08-8.34,2.55-1.41.27-5.31-2.28-3.9-7.18,4-15.1,8.27-23.55,8-6.81-.21-14.72-4.11-16.46-11.24-1.95-8,4.77-16,10.44-20.69a40.73,40.73,0,0,1,19.92-8.83c2.87-.46,1.65-4.82-1.2-4.36h0Z"/><path class="cls-6" d="M173.58,431.2a89.51,89.51,0,0,1-41.73,13.35c-2.89.18-2.91,4.7,0,4.52a94.39,94.39,0,0,0,44-14c2.47-1.53.2-5.44-2.28-3.9h0Z"/><path class="cls-6" d="M231,320.23c9.4-7.74,13.35-21.51,5.25-31.69a16.9,16.9,0,0,0-27.24.8l3.9,2.28c2.83-5,0-11.88-1.88-16.7a188.23,188.23,0,0,0-8.63-18.08c-0.84-1.62-3-1.3-3.9,0l0,0.07a2.25,2.25,0,0,0,0,2.28c1.05,1.91,4.36,2.93,6.12,4,1.5,0.91,3.56,2,4.61,3.39,1.49,2.07.48,2.57-1.77,3.64-2.62,1.26-.33,5.16,2.28,3.9,4.43-2.12,6.63-6.06,3.15-10.23a22.61,22.61,0,0,0-5.64-4.41c-1.05-.65-2.14-1.23-3.21-1.84-0.66-.37-2.05-1.52-1.62-0.74v2.28l0-.07h-3.9c2.43,4.66,4.89,9.32,7,14.14,1.67,3.83,5.89,11.88,3.52,16.07-1.45,2.56,2.28,4.66,3.9,2.28,5.53-8.09,17-6,21.35,2.05,4.58,8.48.42,17.7-6.46,23.36-2.25,1.85,1,5,3.2,3.2h0Z"/><path class="cls-6" d="M207.56,397.29c19.37-10.84,33.83-37.84,19.58-58.39l-2.55,3.32c13,4.38,23.85-10.26,15.48-21.29a2.34,2.34,0,0,0-2.55-1,9.42,9.42,0,0,0-6,5.26l4.13,1.74c1.52-4.77-.89-9.08-5.48-10.77-2.73-1-3.91,3.36-1.2,4.36q3.65,1.77,2.32,5.21c-0.77,2.4,3,4.09,4.13,1.74a4.71,4.71,0,0,1,3.32-3.19l-2.55-1c5.9,7.77-1,17.83-10.37,14.65-1.81-.61-3.67,1.71-2.55,3.32,12.85,18.54-.62,42.5-18,52.2-2.54,1.42-.26,5.33,2.28,3.9h0Z"/><path class="cls-6" d="M87.22,406.16L71.74,409.9c-5.64,1.36-12.5,3.38-18.07.74-5.33-2.53-8.15-8.8-3.11-13.26,3-2.62,6.76-4.15,9.76-6.77,1.85-1.62-.18-4.14-2.2-3.78a47.23,47.23,0,0,1-18.51-.18c-5.12-1.11-11.79-3-14.82-7.76-5.21-8.09,8.17-13.5,11-20,0.62-1.44-.06-3.52-2-3.4a52.57,52.57,0,0,1-22.77-3.24c-2.56-1-6-2.49-6.28-5.62-0.21-2,1-4.25,1.7-6,2-4.78,3.72-9.23,4.41-14.44,0.89-6.77,1.2-13.4,5.24-19.17,6.25-8.93,17.38-13.52,27.66-15.83,7-1.58,29.15-5.26,29,6.91,0,2.92,4.42,2.9,4.52,0,0.49-14.24,11.2-25.24,23.81-30.47,7.14-3,44.58-12.5,41.58,4.16-0.51,2.82,3.7,4.07,4.36,1.2,3.77-16.36,20.66-24.38,35.64-27.94,6.62-1.57,15.7-2.8,21.56,1.59,9.75,7.29-1.09,18.52-7.73,23.19-2.36,1.66-.11,5.58,2.28,3.9,7.73-5.44,17.21-14.87,12.61-25.23-3.65-8.2-13.65-9.81-21.66-9.17-19,1.5-42.41,12.32-47.05,32.45l4.36,1.2c3.85-21.42-31.1-14.89-41.91-11.6-16.74,5.1-31.73,18.21-32.36,36.71h4.52c0.15-10.21-11.74-13.33-20-13.14a70.65,70.65,0,0,0-30.54,7.53C17.65,297.15,10,304.74,7.82,315c-1.53,7.19-1.42,14.37-4.36,21.26C2,339.65,0,343.22.29,347c0.33,4.58,4.16,7.28,8.05,9a55.93,55.93,0,0,0,25.48,4l-2-3.4c-2.35,5.44-8.28,7.71-11.27,12.68-2.58,4.29-1.93,9.18,1.13,13,8.25,10.36,25.73,11.06,37.59,8.92l-2.2-3.78C52.85,391.16,46.4,393,44,398.63c-1.94,4.58-.17,9.59,3.21,13,4.58,4.6,11.07,5.23,17.22,4.4,8.07-1.09,16.07-3.58,24-5.49,2.83-.68,1.63-5-1.2-4.36h0Z"/><path class="cls-6" d="M192.35,317.7a39.93,39.93,0,0,1-60.23,7.46c-1.32-1.2-4-.48-3.86,1.6,0.87,9.71-17,11.39-23.62,12.44a63,63,0,0,1-15.39.78c-1.82-.16-18.47-4.43-16-7.45l-2.2.58c5.5,1.65,5.89,9,3.18,13.23-3.36,5.18-10.11,7.32-15.65,9.15-2.75.91-1.57,5.28,1.2,4.36,7.73-2.55,17.47-6.15,20-14.84,1.91-6.54-.65-14.2-7.53-16.27a2.21,2.21,0,0,0-2.2.58c-4.32,5.3,2.44,10,6.92,12.07,7.32,3.35,15.53,3.72,23.43,2.89,9.62-1,33.67-3.16,32.38-17.53l-3.86,1.6A44.54,44.54,0,0,0,196.25,320c1.61-2.43-2.3-4.7-3.9-2.28h0Z"/><path class="cls-6" d="M173.16,338.69a95.55,95.55,0,0,1,22.47,72.86c-3,25.13-16.62,48.24-36.53,63.69l2.2-.58c-22-9.19-45.39-19.15-61.12-37.81-18.79-22.28-20.92-54.48-15-81.92a2.29,2.29,0,0,0-2.78-2.78c-12.49,2.2-17.85,18.17-10.31,27.89,1.78,2.3,5-.92,3.2-3.2-5.67-7.31-.41-18.8,8.32-20.33l-2.78-2.78c-6.06,28.12-4,60.58,14.28,84,16.19,20.72,41.41,31.44,65,41.3a2.28,2.28,0,0,0,2.2-.58,100,100,0,0,0,37.86-66.89c3.19-27.38-5.91-55.25-23.8-76.06-1.9-2.21-5.09,1-3.2,3.2h0Z"/></g></g></g></svg>