<svg xmlns="http://www.w3.org/2000/svg" xmlns:xlink="http://www.w3.org/1999/xlink" viewBox="0 0 580 580"><defs><style>.cls-1{fill:none;}.cls-2{isolation:isolate;}.cls-3{clip-path:url(#clip-path);}.cls-4{fill:#fdea8b;}.cls-5{opacity:0.59;mix-blend-mode:multiply;fill:url(#linear-gradient);}.cls-6{fill:#014e7f;}.cls-7{fill:url(#linear-gradient-2);}.cls-8{fill:url(#linear-gradient-3);}.cls-9{fill:url(#linear-gradient-4);}.cls-10{fill:url(#linear-gradient-5);}.cls-11{fill:url(#linear-gradient-6);}.cls-12{fill:url(#linear-gradient-7);}.cls-13{fill:#99b8cc;}.cls-14{fill:url(#linear-gradient-8);}.cls-15{fill:url(#linear-gradient-9);}.cls-16{fill:url(#linear-gradient-10);}.cls-17{fill:url(#linear-gradient-11);}.cls-18{fill:#6795b2;}.cls-19{fill:url(#linear-gradient-12);}.cls-20{fill:url(#linear-gradient-13);}.cls-21{fill:url(#linear-gradient-14);}.cls-22{fill:url(#linear-gradient-15);}.cls-23{fill:#ffec8d;}.cls-24{fill:#29abe2;}.cls-25{fill:#9acd72;}.cls-26{fill:#fff;}.cls-27{clip-path:url(#clip-path-2);}</style><clipPath id="clip-path"><rect class="cls-1" x="-1.55" y="0.95" width="580" height="580"/></clipPath><linearGradient id="linear-gradient" x1="267.44" y1="4553.07" x2="645.04" y2="4553.07" gradientTransform="translate(24.45 -4472.43)" gradientUnits="userSpaceOnUse"><stop offset="0" stop-color="#fff"/><stop offset="0.6" stop-color="#9acd72"/></linearGradient><linearGradient id="linear-gradient-2" x1="189.28" y1="161.96" x2="391.77" y2="386.95" gradientUnits="userSpaceOnUse"><stop offset="0" stop-color="#f68d3d"/><stop offset="1" stop-color="#da1f47"/></linearGradient><linearGradient id="linear-gradient-3" x1="173.38" y1="176.27" x2="375.87" y2="401.26" xlink:href="#linear-gradient-2"/><linearGradient id="linear-gradient-4" x1="175.07" y1="174.76" x2="377.56" y2="399.75" xlink:href="#linear-gradient-2"/><linearGradient id="linear-gradient-5" x1="165.7" y1="183.19" x2="368.19" y2="408.18" xlink:href="#linear-gradient-2"/><linearGradient id="linear-gradient-6" x1="293.71" y1="383.12" x2="376.2" y2="506.11" gradientUnits="userSpaceOnUse"><stop offset="0" stop-color="#aa91ab"/><stop offset="1" stop-color="#2c285d"/></linearGradient><linearGradient id="linear-gradient-7" x1="149.17" y1="480.07" x2="231.66" y2="603.06" xlink:href="#linear-gradient-6"/><linearGradient id="linear-gradient-8" x1="116.98" y1="227.04" x2="319.47" y2="452.03" xlink:href="#linear-gradient-2"/><linearGradient id="linear-gradient-9" x1="109" y1="234.22" x2="311.49" y2="459.21" xlink:href="#linear-gradient-2"/><linearGradient id="linear-gradient-10" x1="154.82" y1="192.99" x2="357.31" y2="417.97" xlink:href="#linear-gradient-2"/><linearGradient id="linear-gradient-11" x1="142.48" y1="204.09" x2="344.97" y2="429.08" xlink:href="#linear-gradient-2"/><linearGradient id="linear-gradient-12" x1="18.65" y1="315.53" x2="221.14" y2="540.52" xlink:href="#linear-gradient-2"/><linearGradient id="linear-gradient-13" x1="17.02" y1="317" x2="219.51" y2="541.99" xlink:href="#linear-gradient-2"/><linearGradient id="linear-gradient-14" x1="-22.43" y1="352.51" x2="180.06" y2="577.5" xlink:href="#linear-gradient-2"/><linearGradient id="linear-gradient-15" x1="-24.06" y1="353.97" x2="178.43" y2="578.96" xlink:href="#linear-gradient-2"/><clipPath id="clip-path-2"><rect class="cls-1" x="-9.01" y="892.7" width="580" height="580"/></clipPath></defs><title>iiLAB -U1-concepts-06-WEBSITE UNDER ATTACK</title><g class="cls-2"><g id="Layer_2" data-name="Layer 2"><g class="cls-3"><rect class="cls-4" x="-41.51" y="-21.66" width="645" height="645"/><circle class="cls-5" cx="480.68" cy="80.65" r="188.8" transform="translate(208.57 485.02) rotate(-65.59)"/><path class="cls-6" d="M35.47,424.65c44.81-12.51,89.64-23.73,135.82-29.82,55.58-7.33,111.56-11.39,167.54-6.34A490.19,490.19,0,0,1,436,407c3.09,0.93,4.41-3.9,1.33-4.82-55.67-16.75-114.08-22.56-172.06-20.78-28.82.88-57.51,3.81-86.11,7.37-21.59,2.69-43.09,6-64.38,10.48C87.63,405,60.85,412.37,34.14,419.83c-3.09.86-1.78,5.69,1.33,4.82h0Z"/><path class="cls-7" d="M322.42,241.71a164.45,164.45,0,0,1,18.62,29l-11.62,12.62c-3.46,3.76-7.16,8.16-6.76,13.25,0.61,8,10,11.42,17.35,14.51,17.06,7.18,30.65,21.9,37,39.27a75.31,75.31,0,0,1-1.46,54.23c-0.8,1.94-1.83,4-3.74,4.87a8.45,8.45,0,0,1-5.06.17c-31.46-5.85-55.19-34-64.46-64.61-1.27-4.19-2.33-8.56-1.8-12.91s2.54-8.21,3.59-12.38,0.91-9.13-2.19-12.12c-6.64-6.39-18.2,2.09-26.72-1.43-3.35-1.38-5.67-4.43-7.75-7.4a237.93,237.93,0,0,1-14.32-23,148.79,148.79,0,0,1,48.06-7,71.38,71.38,0,0,1,20.29-32.5"/><path class="cls-6" d="M320.91,243.23a170.36,170.36,0,0,1,18.29,28.58l0.33-2.6c-4.9,5.33-10.22,10.47-14.68,16.18-2.88,3.69-5.14,8.19-4.09,13,2.13,9.71,13.94,12.37,21.57,16.13,24.25,12,38.25,38.11,36.81,64.81a74.94,74.94,0,0,1-3.81,19.83c-1.71,5.08-2.69,8.89-9.41,8.14A40,40,0,0,1,357.6,405c-11.43-4-21.56-11.14-29.87-19.87a101,101,0,0,1-19-28.82c-2.61-5.92-5.18-12.42-6-18.87-0.93-7.46,3.37-13.35,4-20.55,0.42-4.88-1.12-10-5.68-12.49-4.23-2.27-9.24-1.18-13.69-.36-3.35.61-7.07,1.54-10.44,0.53-4-1.21-6.44-5.06-8.69-8.3A243.56,243.56,0,0,1,255,274.68l-1.28,3.15a152,152,0,0,1,47.49-6.92,2.19,2.19,0,0,0,2.07-1.57A71.31,71.31,0,0,1,323,237.78c2-1.88-1-4.91-3-3a75.7,75.7,0,0,0-20.84,33.44l2.07-1.57a155.83,155.83,0,0,0-48.63,7.08,2.17,2.17,0,0,0-1.28,3.15c3.49,6.35,7.22,12.55,11.25,18.57,3.17,4.73,6.51,10.68,12.11,12.86,4.48,1.74,9.33.72,13.89-.12,2.77-.51,6-1.36,8.76-0.63,5.4,1.4,5.78,7.09,4.76,11.66-1.45,6.46-4.4,11.69-3.58,18.54,0.77,6.48,3.26,12.91,5.79,18.89A106.19,106.19,0,0,0,322.74,386a83.37,83.37,0,0,0,27.9,20.8,66.43,66.43,0,0,0,15.57,4.9c5.58,1,8.94-.89,11.21-6,10.66-24.1,7.31-53.8-8.67-74.71-8.29-10.84-18.87-17.89-31.25-23.23-6.07-2.62-15-6.76-12.14-15,1.47-4.2,5.23-7.52,8.16-10.71l9-9.82a2.22,2.22,0,0,0,.33-2.6,175.68,175.68,0,0,0-19-29.44c-1.71-2.16-4.72.89-3,3h0Z"/><path class="cls-8" d="M379,364c-15,10-34.1,13.88-47.18,26.38-0.77.74-.92,2.62,0.09,2.28"/><path class="cls-6" d="M377.91,362.13c-9.4,6.13-19.94,10-30,14.93a79.51,79.51,0,0,0-13.74,8.41c-2.46,1.93-5.87,4.06-4.93,7.62a2.11,2.11,0,0,0,1.5,1.5l0.55,0.11c2.69,0.53,3.85-3.6,1.14-4.13l-0.55-.11,1.5,1.5c-0.48-1.84,9.74-7.45,11.25-8.31,3.82-2.18,7.79-4.06,11.79-5.87,8.05-3.66,16.18-7.11,23.62-11.95,2.3-1.5.16-5.21-2.16-3.7h0Z"/><path class="cls-9" d="M256.16,205.55A164.45,164.45,0,0,1,278,232.21L267.93,246.1c-3,4.14-6.17,8.93-5.19,13.95,1.53,7.83,11.25,10.19,18.91,12.41,17.77,5.15,33,18.21,41.32,34.73a75.31,75.31,0,0,1,4.82,54c-0.57,2-1.36,4.18-3.15,5.27a8.45,8.45,0,0,1-5,.75c-31.93-2.17-58.75-27.37-71.5-56.72-1.74-4-3.3-8.24-3.28-12.61s1.57-8.45,2.13-12.71-0.15-9.18-3.58-11.78c-7.34-5.58-17.83,4.19-26.71,1.67-3.49-1-6.14-3.75-8.56-6.45a237.93,237.93,0,0,1-16.89-21.23,148.79,148.79,0,0,1,46.93-12.51,71.38,71.38,0,0,1,16.4-34.63"/><path class="cls-6" d="M254.64,207.07a170.21,170.21,0,0,1,21.52,26.23v-2.16c-4.33,6-9.35,11.81-13,18.22-2.44,4.31-3.85,9.36-1.55,14.07,4.29,8.77,16.38,9.68,24.42,12.77,25.32,9.75,41.66,34.92,42.46,61.72a74.74,74.74,0,0,1-1.94,19.47c-1,4.4-1.61,7.61-6.94,7.71a41.14,41.14,0,0,1-9.41-1.37,76.48,76.48,0,0,1-32-16.17A101,101,0,0,1,256,321.16a80.23,80.23,0,0,1-7.82-16.6c-2.44-7.88,1.34-14.49,1.16-22.28-0.11-4.9-2.1-9.87-6.88-11.89-4.44-1.88-9.27-.31-13.63,1-3,.93-6.39,2.23-9.63,1.92-4.13-.4-6.88-3.34-9.5-6.22a223,223,0,0,1-16.56-20.8l-0.77,2.93A150.42,150.42,0,0,1,238.19,237a2.2,2.2,0,0,0,2.07-1.57,71.52,71.52,0,0,1,15.85-33.68c1.77-2.09-1.24-5.14-3-3a75.7,75.7,0,0,0-16.95,35.57l2.07-1.57a157,157,0,0,0-48,12.8,2.15,2.15,0,0,0-.77,2.93c4.13,5.8,8.47,11.45,13.07,16.89,3.72,4.4,7.8,10.15,13.66,11.78,4.85,1.36,9.81-.38,14.43-1.79,2.78-.85,6.19-2.16,9.11-1.38,4.93,1.32,5.67,6.8,5.13,11.12-0.87,6.93-3,12.82-1,19.82,1.62,5.75,4.49,11.32,7.4,16.5a105.6,105.6,0,0,0,22.35,27.75,84.21,84.21,0,0,0,29.37,17c8,2.57,22.8,7.48,26.59-3.17,8.56-24,1.62-53.43-15.13-72.16a72.08,72.08,0,0,0-34-21C274,268,263.95,265.5,264.88,257c0.5-4.59,4-8.55,6.58-12.17l8.4-11.57a2.08,2.08,0,0,0,0-2.16A175.83,175.83,0,0,0,257.67,204c-2-2-5,1.08-3,3h0Z"/><path class="cls-10" d="M326.49,320.46c-13.78,11.72-32.27,17.73-43.82,31.66-0.68.82-.61,2.71,0.35,2.25"/><path class="cls-6" d="M325,318.94c-8.68,7.22-18.85,12.2-28.24,18.38a81,81,0,0,0-11.36,8.79c-2.21,2.1-6.36,5.23-5,8.78a2.26,2.26,0,0,0,2.07,1.57l0.56,0c2.75,0.21,2.74-4.07,0-4.28l-0.56,0,2.07,1.57c-0.79-2,8.52-8.61,9.93-9.65,3.73-2.77,7.72-5.21,11.7-7.6C313.68,332,321.23,327.59,328,322c2.12-1.76-.92-4.78-3-3h0Z"/><path class="cls-11" d="M410.16,425.94a304.43,304.43,0,0,0-139.3-15c-9.43,1.19-20,3.61-24.85,11.78-3.64,6.14-2.89,14.18.45,20.48s8.91,11.14,14.78,15.21c32,22.2,73.63,24.8,112.44,21.46,11.92-1,25.57-3.66,31.38-14.13,3.12-5.62,3.22-12.38,3.05-18.8-0.23-8.71-2.39-19.5-10.81-21.75"/><path class="cls-6" d="M410.82,423.53a309.12,309.12,0,0,0-97.28-17.44c-16-.26-32.39.31-48.13,3.15-11.21,2-22.8,7.67-24.17,20.28-1.5,13.82,8.9,24.33,19.4,31.51a122.61,122.61,0,0,0,39.13,17.16,189.73,189.73,0,0,0,43.2,5.33c14,0.24,28.83.15,42.57-2.83s23.67-11.07,24.92-25.66c1-11.13.18-28.11-12.52-32.27-3.07-1-4.38,3.82-1.33,4.82,10.71,3.51,10.23,22.84,8.23,31.54-2.9,12.57-15.66,16.39-27,17.81-24.39,3-50.39,2.66-74.37-3a123.27,123.27,0,0,1-34.09-13.3c-11-6.44-25.62-16.91-23.07-31.63,2.23-12.85,17.69-14.84,28.22-16A302.41,302.41,0,0,1,409.5,428.35c3,1.07,4.35-3.76,1.33-4.82h0Z"/><path class="cls-6" d="M258.23,448.29a207.49,207.49,0,0,1,139.11,7.81c3,1.25,4.25-3.59,1.33-4.82a211.86,211.86,0,0,0-141.77-7.81c-3.08.91-1.77,5.74,1.33,4.82h0Z"/><path class="cls-12" d="M216.87,458.11c-20.44-8.1-43.06-8.46-65-7.39-15.45.75-31.22,2.25-45.31,8.64s-26.41,18.51-29.25,33.72c-2.66,14.23,3.46,29.19,13.68,39.44S115,548.77,129.13,552c37.57,8.58,80.86-3.46,103.52-34.64,6.92-9.52,11.91-21.18,10.39-32.85-2.29-17.57-21.29-31-38.63-27.37"/><path class="cls-6" d="M217.53,455.7c-17-6.52-35.14-8.13-53.17-7.89-17.82.24-36.65,0.91-53.55,7.11-13.5,5-26.17,14.17-32.54,27.38-6.5,13.49-4.7,29,2.89,41.66,15.78,26.33,51.3,35,80,32.93,27.95-2,55.69-14.38,72.76-37.14,10.14-13.53,16.59-32.22,7.21-47.87-7.64-12.74-22.81-19.88-37.42-17.17-3.16.59-1.82,5.41,1.33,4.82,12.82-2.38,26.28,4.66,32.44,16,7.39,13.64,1.1,29.59-7.45,41.09-15.42,20.74-40.66,32.53-66,35-25.75,2.51-57.2-3.47-74.48-24.36-9.21-11.13-13.42-26.7-7.9-40.45,5.14-12.83,17-21.93,29.62-26.79,16.4-6.34,34.77-6.95,52.16-7.24,17.93-.3,35.88,1.21,52.74,7.69,3,1.16,4.31-3.68,1.33-4.82h0Z"/><path class="cls-6" d="M83.3,508.42c8.6-9,21.19-11.76,33-13.53a147.34,147.34,0,0,1,36.38-.77A150.13,150.13,0,0,1,221.42,519a2.55,2.55,0,0,0,3.42-.9l3-4.16c1.87-2.63-2.47-5.13-4.32-2.52l-3,4.16,3.42-.9A155.35,155.35,0,0,0,151.08,489a151.77,151.77,0,0,0-38.51,1.5c-12,2-24.16,5.42-32.81,14.43-2.23,2.32,1.3,5.86,3.54,3.54h0Z"/><path class="cls-13" d="M377,336.95c5.44-10.46,21.14-8.42,22.5,3.81,0.2,1.78,2,3.25,3.76,2.16a12.06,12.06,0,0,1,14.3,1.36c4.45,4,2.88,10,5.56,14.79,2.48,4.46,7.88,6.79,9.46,11.76a12.09,12.09,0,0,1-6.1,14.22c-2.87,1.47-.34,5.78,2.52,4.32a17,17,0,0,0,9.08-15,15.76,15.76,0,0,0-2.49-8.73c-2.3-3.54-6.49-5.64-8.29-9.49-1.67-3.55-1.12-7.7-3-11.25a16.12,16.12,0,0,0-6.09-6.25,16.85,16.85,0,0,0-17.49,0l3.76,2.16c-1.86-16.72-23.83-21.68-31.81-6.33-1.48,2.85,2.83,5.38,4.32,2.52h0Z"/><path class="cls-14" d="M240.94,309.21a157.6,157.6,0,0,1,21.39,25.18l-9.43,13.47c-2.81,4-5.76,8.66-4.74,13.45,1.6,7.48,11,9.57,18.33,11.57,17.12,4.64,31.9,16.89,40.18,32.58a72.18,72.18,0,0,1,5.52,51.69c-0.52,1.94-1.23,4-2.93,5.1a8.09,8.09,0,0,1-4.78.81c-30.63-1.54-56.75-25.24-69.47-53.15-1.74-3.82-3.3-7.84-3.35-12s1.36-8.12,1.83-12.22-0.3-8.79-3.63-11.23c-7.13-5.23-17,4.31-25.56,2.05-3.36-.89-5.95-3.49-8.31-6a228,228,0,0,1-16.54-20.06,142.59,142.59,0,0,1,44.76-12.78,68.4,68.4,0,0,1,15.13-33.46"/><path class="cls-6" d="M239.43,310.72a163,163,0,0,1,21.05,24.75v-2.16c-3.76,5.37-7.86,10.64-11.27,16.24-2.61,4.28-4.44,9.13-2.55,14,3.31,8.61,14.62,9.77,22.18,12.23,24.87,8.08,41.7,31.79,43.49,57.51a71.22,71.22,0,0,1-1.39,19.92c-0.79,3.66-1.09,7.25-5.62,7.69-3.31.32-7.08-.57-10.29-1.24a73.29,73.29,0,0,1-29.91-14.37,96.22,96.22,0,0,1-22.78-26.09c-3-4.94-5.89-10.23-7.56-15.76-2.16-7.19,1.21-13.48,1-20.59-0.16-4.76-2.22-9.58-6.91-11.41-4.1-1.6-8.43-.27-12.43,1-3,1-6.37,2.42-9.64,2.2-4-.27-6.69-3-9.27-5.76a213.64,213.64,0,0,1-16.21-19.63l-0.77,2.93a144.2,144.2,0,0,1,43.68-12.48,2.2,2.2,0,0,0,2.07-1.57,68.6,68.6,0,0,1,14.58-32.51c1.73-2.12-1.28-5.17-3-3A72.69,72.69,0,0,0,222.15,337l2.07-1.57a150.78,150.78,0,0,0-45.84,13.07,2.15,2.15,0,0,0-.77,2.93c4.16,5.63,8.51,11.1,13.14,16.36,3.59,4.08,7.47,9.24,13,10.73,4.67,1.26,9.41-.51,13.82-1.93,2.48-.8,5.31-1.94,8-1.61,4.68,0.58,6.08,5.2,5.94,9.27-0.24,6.83-2.89,12.56-1.07,19.47,1.5,5.71,4.54,11.3,7.5,16.37a101.31,101.31,0,0,0,21.94,26.38,80.87,80.87,0,0,0,28.5,15.89c7.85,2.38,22,6.81,25.59-3.5,8.14-23.38.38-52.14-16.38-69.71-9.1-9.54-20.38-15.58-33-19.05-6.27-1.73-16.1-4.38-14.16-13,0.94-4.15,4.08-7.81,6.46-11.21l7.33-10.48a2.08,2.08,0,0,0,0-2.16,168.61,168.61,0,0,0-21.72-25.61c-2-1.91-5,1.11-3,3h0Z"/><path class="cls-15" d="M310.26,418.13c-13,11.46-30.62,17.53-41.45,31.07-0.64.8-.54,2.61,0.38,2.15"/><path class="cls-6" d="M308.75,416.62c-8.25,7.1-18,12.06-26.89,18.2a76.53,76.53,0,0,0-11,8.92c-2,2-5.6,4.91-4.26,8.16a2.26,2.26,0,0,0,2.07,1.57l0.54,0c2.75,0.16,2.74-4.12,0-4.28l-0.54,0,2.07,1.57c-0.8-1.94,7.93-8.29,9.22-9.28,3.56-2.75,7.36-5.17,11.17-7.55,7.12-4.45,14.29-8.78,20.67-14.28,2.09-1.8-.95-4.82-3-3h0Z"/><path class="cls-16" d="M372.52,373.61a157.6,157.6,0,0,1,19.35,26.77l-10.45,12.7c-3.11,3.78-6.42,8.18-5.77,13,1,7.58,10.17,10.4,17.37,13,16.7,6,30.48,19.34,37.51,35.62a72.18,72.18,0,0,1,1.47,52c-0.67,1.9-1.54,3.92-3.32,4.86a8.09,8.09,0,0,1-4.83.43c-30.42-3.93-54.61-29.6-65.1-58.42-1.44-3.94-2.68-8.07-2.4-12.26s2-8,2.78-12,0.39-8.79-2.74-11.48c-6.7-5.77-17.3,3-25.64,0-3.28-1.15-5.66-3.94-7.81-6.67A228,228,0,0,1,308,409.86a142.59,142.59,0,0,1,45.62-9.24,68.4,68.4,0,0,1,17.7-32.17"/><path class="cls-6" d="M371,375.12a163,163,0,0,1,19,26.34l0.33-2.6c-3.95,4.79-8,9.51-11.82,14.41-3.23,4.16-6.18,9.16-4.71,14.63,2.32,8.65,12.83,11,20,13.77,24.33,9.45,39.72,34,40.1,59.7a71.2,71.2,0,0,1-2.51,19.81c-1.15,4.19-1.86,8.6-7.23,8.65-3.16,0-6.71-1.14-9.72-2a73,73,0,0,1-28.64-16.74,96.68,96.68,0,0,1-20.63-27.82c-2.57-5.15-5.08-10.66-6.26-16.32-1.53-7.33,2.36-13.34,2.62-20.46,0.17-4.78-1.6-9.67-6.14-11.83-3.95-1.88-8.45-.79-12.49.17-3.34.8-7,2-10.45,1.27s-5.91-3.76-8.07-6.46a215.43,215.43,0,0,1-14.59-20.86l-1.28,3.15a145.8,145.8,0,0,1,45.05-9.16,2.19,2.19,0,0,0,2.07-1.57A68.34,68.34,0,0,1,372.84,370c1.91-2-1.12-5-3-3A72.74,72.74,0,0,0,351.56,400l2.07-1.57a149.59,149.59,0,0,0-46.19,9.32,2.17,2.17,0,0,0-1.28,3.15c3.94,6.31,8.13,12.44,12.64,18.36,3.08,4,6.3,8.9,11.37,10.59,4.59,1.53,9.41.15,13.93-.93,2.21-.53,4.62-1.28,6.92-1,5.67,0.57,6.84,6,6,10.78-1.09,6.48-3.68,11.79-2.4,18.52,1.11,5.83,3.67,11.56,6.24,16.89a101.31,101.31,0,0,0,19.84,28,80.63,80.63,0,0,0,27.22,18c7.41,2.89,21.07,8.35,25.46-1.18,5-10.94,5.76-24.87,4.15-36.64a69.38,69.38,0,0,0-14-33.42,68.62,68.62,0,0,0-31.16-22.25c-5.46-2-14.93-4.67-14.65-12.07,0.19-4.92,4.62-9.2,7.54-12.74l8.13-9.87a2.23,2.23,0,0,0,.33-2.6A168.62,168.62,0,0,0,374,372.09c-1.83-2.07-4.85,1-3,3h0Z"/><path class="cls-17" d="M433.12,487.61c-13.86,10.41-31.9,15.09-43.75,27.74-0.7.75-.74,2.56,0.21,2.18"/><path class="cls-6" d="M432,485.76c-8.72,6.39-18.66,10.64-28,16a79.6,79.6,0,0,0-11.74,8c-2.39,2-6.47,4.71-5.3,8.34a2.11,2.11,0,0,0,1.5,1.5l0.53,0.07c2.7,0.37,3.86-3.75,1.14-4.13l-0.53-.07,1.5,1.5c-0.58-1.78,8.51-7.42,9.86-8.31,3.63-2.37,7.45-4.44,11.28-6.44,7.51-3.92,15.09-7.65,21.95-12.67,2.2-1.61.07-5.33-2.16-3.7h0Z"/><path class="cls-18" d="M361,205.55c6.13-3.84,10.88-2.29,17.18-.1,5,1.75,9.88-.86,15-1,6.73-.18,13.27,2.34,19.33,5,5.2,2.27,10.6,4.51,14.68,8.56,1.92,1.91,4.9-1.07,3-3-4.38-4.33-10-6.77-15.53-9.22-6.25-2.75-12.75-5.25-19.65-5.55a37.11,37.11,0,0,0-9.35,1.11c-4.62.95-7.47-1-11.64-2.07a19.34,19.34,0,0,0-15.09,2.62c-2.29,1.43-.18,5.07,2.12,3.63h0Z"/><path class="cls-18" d="M315.42,209.12c6.6-4.2,12.59-3.29,19.47-.53,6.25,2.51,11.55-.43,17.9-0.76,7.89-.42,15.62,2.37,22.76,5.44,6.51,2.8,13.44,5.56,18.53,10.64,2.28,2.28,5.82-1.26,3.54-3.54C392.18,214.95,385,212,378.08,209c-7.44-3.22-15.26-6.1-23.47-6.16-3.85,0-7.32.91-11.07,1.62-4.84.92-7.9-1.43-12.3-2.63a22.83,22.83,0,0,0-18.34,3c-2.71,1.72-.2,6.05,2.52,4.32h0Z"/><path class="cls-18" d="M300.71,176.48c6.6-4.2,12.59-3.29,19.47-.53,6.25,2.51,11.55-.43,17.9-0.76,7.89-.42,15.62,2.37,22.76,5.44,6.51,2.8,13.44,5.56,18.53,10.64,2.28,2.28,5.82-1.26,3.54-3.54-5.44-5.43-12.59-8.41-19.54-11.43-7.44-3.22-15.26-6.1-23.47-6.16-3.85,0-7.32.91-11.07,1.62-4.84.92-7.9-1.43-12.3-2.63a22.83,22.83,0,0,0-18.34,3c-2.71,1.72-.2,6.05,2.52,4.32h0Z"/><path class="cls-18" d="M137.72,173.68c-20.82-2.32-34.44,21.25-22.17,38.19l2.16-3.76c-20.93,2-32.4,25.35-20.07,42.83,1.84,2.61,6.18.11,4.32-2.52-9.92-14.07-1.75-33.64,15.75-35.3,1.68-.16,3.38-2.07,2.16-3.76a19.2,19.2,0,0,1,17.85-30.67c3.19,0.36,3.17-4.65,0-5h0Z"/><path class="cls-18" d="M346.11,143.79c2.15-20.82-21.49-34.31-38.35-21.9l3.76,2.16c-2.15-20.9-25.57-32.24-43-19.77-2.59,1.86-.1,6.2,2.52,4.32,14-10,33.64-2.05,35.44,15.45,0.17,1.66,2.07,3.4,3.76,2.16,13.93-10.25,32.61.37,30.82,17.58-0.33,3.2,4.67,3.17,5,0h0Z"/><path class="cls-18" d="M139.76,283.46c-10.78-2.29-25-4.89-33.39,4.34-5.62,6.17-7.37,16.76-.32,22.54l1.77-4.27C100,305.59,92.24,310.35,89.9,318s1.41,15.89,8.11,20a2.48,2.48,0,0,0,2.52,0l6.26-4c2.69-1.74.19-6.07-2.52-4.32l-6.26,4h2.52c-11.32-6.89-5.7-23.38,7.29-22.57,2.06,0.13,3.44-2.9,1.77-4.27-5.7-4.67-3-13.35,2.29-17.27,7.39-5.52,18.35-3,26.55-1.24,3.14,0.67,4.48-4.15,1.33-4.82h0Z"/><path class="cls-18" d="M186,100.13a69.36,69.36,0,0,0-20.21,3c-4.78,1.49-10.82,3.35-14,7.51-6.9,9.05,5.39,16,7,24.3l1.75-3.08a60.39,60.39,0,0,0-23.6,12.46c-4.07,3.58-8.27,10.87-2.9,15.19,2.48,2,6-1.52,3.54-3.54-4.75-3.82,6.65-11.12,9-12.63a57.56,57.56,0,0,1,15.25-6.67,2.56,2.56,0,0,0,1.75-3.08c-0.63-3.31-2.35-6-4.31-8.73s-6-6.87-3.94-10.63c2.22-4,9.48-5.68,13.51-6.81A64.65,64.65,0,0,1,186,105.13c3.22,0,3.22-5,0-5h0Z"/><path class="cls-19" d="M115.09,368.81a157.6,157.6,0,0,1,23.23,23.49l-8.38,14.15c-2.5,4.21-5.08,9.07-3.7,13.77,2.16,7.33,11.65,8.71,19.15,10.15,17.42,3.33,33.09,14.43,42.53,29.44a72.18,72.18,0,0,1,9.43,51.12c-0.37,2-.92,4.11-2.53,5.31a8.09,8.09,0,0,1-4.71,1.17c-30.66.79-58.5-20.86-73.3-47.73-2-3.67-3.89-7.56-4.26-11.74s0.74-8.2.9-12.32-1-8.74-4.47-10.92c-7.5-4.67-16.64,5.59-25.33,4-3.41-.63-6.2-3-8.74-5.39a228,228,0,0,1-18-18.75,142.59,142.59,0,0,1,43.66-16.13,68.4,68.4,0,0,1,12.55-34.51"/><path class="cls-6" d="M113.58,370.32a165.81,165.81,0,0,1,23.23,23.49l-0.33-2.6c-3.34,5.64-7,11.2-10,17-2.25,4.4-3.87,9.45-1.64,14.2,4,8.64,15.79,8.76,23.71,10.8,25,6.44,43.15,28.2,47.08,53.4a71.63,71.63,0,0,1,.43,18.5c-0.34,3.27-.27,8.45-4,9.94-2.33.93-6.77,0.14-9.26-.08-11.81-1.08-23.09-5.63-32.93-12.14A95.46,95.46,0,0,1,125,478.7c-3.51-4.92-7.18-10.37-9.2-16.11-2.43-6.89.53-13.4-.39-20.33-0.63-4.73-3.17-9.26-8.05-10.58-4.49-1.22-9,.9-13,2.57-2.77,1.14-5.76,2.52-8.82,2.44-4.34-.11-7.49-3.4-10.45-6.19A234.11,234.11,0,0,1,58.42,413L58,416.38a145.64,145.64,0,0,1,43.15-15.92,2.18,2.18,0,0,0,1.57-2.07A68.52,68.52,0,0,1,115,365c1.58-2.27-2.13-4.41-3.7-2.16A72.78,72.78,0,0,0,98.43,398.4l1.57-2.07a149.34,149.34,0,0,0-44.17,16.35,2.17,2.17,0,0,0-.43,3.36c4.86,5.63,9.95,11,15.31,16.2,3.69,3.54,7.65,7.76,13,8.57,5.08,0.78,9.72-1.66,14.3-3.47,2.49-1,5.56-2.33,8.28-1.54,4.27,1.23,5.13,6,5.08,9.81-0.09,7.14-1.81,12.86,1,19.79a78.54,78.54,0,0,0,9,15.46,102.16,102.16,0,0,0,23.89,24,78.57,78.57,0,0,0,31.18,13.54c8.56,1.55,20.72,4,23-7,5.05-24-3.49-50.7-21.71-67.11-9.81-8.84-21.43-14.06-34.31-16.57-6-1.17-15.62-2.79-15.4-10.75,0.13-4.56,3.41-8.91,5.65-12.69l6.52-11a2.22,2.22,0,0,0-.33-2.6,165.81,165.81,0,0,0-23.23-23.49c-2.11-1.74-5.16,1.27-3,3h0Z"/><path class="cls-20" d="M192.47,472.16c-12.1,12.42-29.2,19.81-39,34.13-0.58.85-.34,2.64,0.54,2.12"/><path class="cls-6" d="M191,470.64c-7.64,7.65-16.81,13.37-25.24,20.07a73.71,73.71,0,0,0-11,10.42c-2,2.43-4.73,5.08-3.08,8.36a2.11,2.11,0,0,0,1.85,1.06H154c2.75,0,2.76-4.33,0-4.28H153.5l1.85,1.06c-0.66-1.32,7.57-8.62,8.74-9.67a139.44,139.44,0,0,1,11-8.67c6.56-4.81,13.17-9.54,18.93-15.32,1.95-2-1.08-5-3-3h0Z"/><path class="cls-21" d="M110,445.73a157.6,157.6,0,0,1,23.23,23.49l-8.38,14.15c-2.5,4.21-5.08,9.07-3.7,13.77,2.16,7.33,11.65,8.71,19.15,10.15,17.42,3.33,33.09,14.43,42.53,29.44a72.18,72.18,0,0,1,9.43,51.12c-0.37,2-.92,4.11-2.53,5.31a8.09,8.09,0,0,1-4.71,1.17c-30.66.79-58.5-20.86-73.3-47.73-2-3.67-3.89-7.56-4.26-11.74s0.74-8.2.9-12.32-1-8.74-4.47-10.92c-7.5-4.67-16.64,5.59-25.33,4-3.41-.63-6.2-3-8.74-5.39a228,228,0,0,1-18-18.75,142.59,142.59,0,0,1,43.66-16.13A68.4,68.4,0,0,1,108,440.81"/><path class="cls-6" d="M108.44,447.24a165.81,165.81,0,0,1,23.23,23.49l-0.33-2.6c-3.34,5.64-7,11.2-10,17-2.25,4.4-3.87,9.45-1.64,14.2,4,8.64,15.79,8.76,23.71,10.8,25,6.44,43.15,28.2,47.08,53.4a71.63,71.63,0,0,1,.43,18.5c-0.34,3.27-.27,8.45-4,9.94-2.33.93-6.77,0.14-9.26-.08-11.81-1.08-23.09-5.63-32.93-12.14a95.46,95.46,0,0,1-24.8-24.19c-3.51-4.92-7.18-10.37-9.2-16.11-2.43-6.89.53-13.4-.39-20.33-0.63-4.73-3.17-9.26-8.05-10.58-4.49-1.22-9,.9-13,2.57-2.77,1.14-5.76,2.52-8.82,2.44-4.34-.11-7.49-3.4-10.45-6.19a234.11,234.11,0,0,1-16.66-17.48l-0.43,3.36A145.64,145.64,0,0,1,96,477.38a2.18,2.18,0,0,0,1.57-2.07,68.52,68.52,0,0,1,12.26-33.43c1.58-2.27-2.13-4.41-3.7-2.16a72.78,72.78,0,0,0-12.84,35.59l1.57-2.07A149.34,149.34,0,0,0,50.69,489.6a2.17,2.17,0,0,0-.43,3.36c4.86,5.63,9.95,11,15.31,16.2,3.69,3.54,7.65,7.76,13,8.57,5.08,0.78,9.72-1.66,14.3-3.47,2.49-1,5.56-2.33,8.28-1.54,4.27,1.23,5.13,6,5.08,9.81-0.09,7.14-1.81,12.86,1,19.79a78.54,78.54,0,0,0,9,15.46,102.16,102.16,0,0,0,23.89,24,78.57,78.57,0,0,0,31.18,13.54c8.56,1.55,20.72,4,23-7,5.05-24-3.49-50.7-21.71-67.11-9.81-8.84-21.43-14.06-34.31-16.57-6-1.17-15.62-2.79-15.4-10.75,0.13-4.56,3.41-8.91,5.65-12.69l6.52-11a2.22,2.22,0,0,0-.33-2.6,165.81,165.81,0,0,0-23.23-23.49c-2.11-1.74-5.16,1.27-3,3h0Z"/><path class="cls-22" d="M187.34,549.08c-12.1,12.42-29.2,19.81-39,34.13-0.58.85-.34,2.64,0.54,2.12"/><path class="cls-6" d="M185.82,547.56c-7.64,7.65-16.81,13.37-25.24,20.07a73.71,73.71,0,0,0-11,10.42c-2,2.43-4.73,5.08-3.08,8.36a2.11,2.11,0,0,0,1.85,1.06h0.54c2.75,0,2.76-4.33,0-4.28h-0.54l1.85,1.06c-0.66-1.32,7.57-8.62,8.74-9.67a139.44,139.44,0,0,1,11-8.67c6.56-4.81,13.17-9.54,18.93-15.32,1.95-2-1.08-5-3-3h0Z"/><path class="cls-6" d="M356.47,228.67c5.71-16.63,27.63-22.3,42.89-26,16.17-3.89,35.07-5.49,49.81,3.72,7.78,4.86,13,12.35,16.93,20.45,3.85,7.87,6.2,16.82,10.75,24.32,4.42,7.3,12.44,3.61,19.45,3.24a73.85,73.85,0,0,1,24.91,3,75.62,75.62,0,0,1,44,34.4c1.15,2,4.25.2,3.1-1.81A78.62,78.62,0,0,0,530.46,257a80.13,80.13,0,0,0-24.19-6,72.2,72.2,0,0,0-12.83,0c-1.59.15-3.16,0.37-4.73,0.59-3,.42-3.85.88-6.52-0.82-2.41-1.54-2.78-2.39-3.92-4.86-7.63-16.55-12.86-35.41-30.32-44.36-15.22-7.8-33.46-6.22-49.56-2.36-16.69,4-39.17,10.39-45.39,28.48-0.75,2.19,2.71,3.13,3.46,1h0Z"/><path class="cls-6" d="M436.74,407q43.31,10,86.53,20.34c13,3.11,26,6.28,38.75,10.19,3.75,1.15,40.51,13.85,39.64,15.92l2.41-1.84-0.6-.06c-3.2-.3-3.18,4.7,0,5l0.6,0.06a2.55,2.55,0,0,0,2.41-1.84c2.09-5-5.53-7.46-8.64-8.94-6.19-3-12.55-5.58-19-7.95-14.52-5.34-29.5-9.33-44.52-13-32-7.86-64.15-15.28-96.27-22.7-3.13-.72-4.47,4.1-1.33,4.82h0Z"/><path class="cls-23" d="M225.64,525.74c-12.43,8.17-22.54,18.22-34.38,23.34-40.95,17.7-66,3.38-109.72-10.82-2.28,21.29,20.6,63.32,39.74,72.91s41.3,10.74,62.71,10.68a678,678,0,0,0,83.12-5.34c24.39-3.08,50.4-8.4,67.33-26.23,7.38-7.77,12.71-18.81,9.79-29.13-2.78-9.82-12-16.2-20.74-21.51-29.31-17.85-44.16-36.58-76-49.32C247.46,490.33,238.07,517.57,225.64,525.74Z"/><path class="cls-6" d="M89.19,534.28c25,24.38,66.64,27.89,98.64,17.49,15.39-5,29.76-13.56,40.75-25.52,11.47-12.49,21.63-31,15.43-48.31-5.81-16.21-23.38-26.36-40.26-23.22-3.16.59-1.82,5.41,1.33,4.82,14.54-2.7,30.19,6.83,34.54,21,5,16.41-5.84,33.56-17,44.72-20.68,20.67-51.39,29.2-80.06,26.4-18.09-1.77-36.62-8-49.82-20.91-2.31-2.25-5.84,1.28-3.54,3.54h0Z"/><path class="cls-23" d="M385.91,416.51c18.31,4.14,22.36,11.9,24.25,20.73,2.69,12.61.82,11.49,0.67,18.51-0.28,12.89-17.1,17.7-29.44,21.45-35.1,10.67-70.24,3.59-113-5-2.28,21.29,12.29,52.65,31.43,62.24s41.3,10.74,62.71,10.68a678,678,0,0,0,83.12-5.34c24.39-3.08,50.4-8.4,67.33-26.23,7.38-7.77,12.71-18.81,9.79-29.13-2.78-9.82-12-16.2-20.74-21.51-29.31-17.85-64.94-32-96.81-44.75"/><path class="cls-6" d="M259.72,458.88c24.7,17,54.77,22.64,84.31,23,14.19,0.15,29.51.22,43.35-3.32,12.52-3.2,21.39-11.1,22.76-24.38,1.16-11.25.48-28.84-12.43-33.07-3.07-1-4.38,3.82-1.33,4.82,7.25,2.37,8.59,11.49,8.93,18.09,0.4,7.81.28,16.6-5.48,22.59-10.28,10.7-30.47,9.7-44,10.13-32.51,1-66.18-3.3-93.55-22.15-2.66-1.83-5.16,2.5-2.52,4.32h0Z"/><path class="cls-6" d="M426.82,448.09a431.83,431.83,0,0,1,49.39-32.52c2.8-1.58.29-5.9-2.52-4.32a431.83,431.83,0,0,0-49.39,32.52c-2.53,1.92,0,6.27,2.52,4.32h0Z"/><path class="cls-6" d="M420.92,418.28l48.41-57.22c2.07-2.44-1.45-6-3.54-3.54l-48.41,57.22c-2.07,2.44,1.45,6,3.54,3.54h0Z"/><path class="cls-6" d="M404.3,76.75a1.79,1.79,0,0,0,0-3.59,1.79,1.79,0,0,0,0,3.59h0Z"/><path class="cls-6" d="M372.53,33.17L390.62,58.1c1.87,2.58,6.21.09,4.32-2.52L376.84,30.65c-1.87-2.58-6.21-.09-4.32,2.52h0Z"/><path class="cls-6" d="M424.1,3.27a235.2,235.2,0,0,0,3.67,38.26c0.56,3.16,5.38,1.82,4.82-1.33A226.93,226.93,0,0,1,429.1,3.27c0-3.21-5-3.22-5,0h0Z"/><path class="cls-6" d="M485.66,2.17L467.86,41.6c-1.31,2.91,3,5.45,4.32,2.52L490,4.69c1.31-2.91-3-5.45-4.32-2.52h0Z"/><path class="cls-6" d="M535.87,14.08L503.37,46c-2.3,2.26,1.24,5.79,3.54,3.54l32.51-31.94c2.3-2.26-1.24-5.79-3.54-3.54h0Z"/><rect class="cls-24" x="399.58" y="76.17" width="123.25" height="100.04"/><path class="cls-6" d="M519.23,173.33a35.25,35.25,0,0,1-4.76,0c-3.68,0-7.37-.05-11-0.09q-12.19-.13-24.38-0.3c-10.08-.13-20.15.05-30.23,0.16-16.28.18-33,1.36-49.21,0.17l1.16,1.53c0.65-3.33.24-7.15,0.29-10.52,0.07-4.49.21-9,.09-13.47-0.55-22.1.28-44.21-.39-66.3l-1.53,1.16c1.66,0.63,4.16.2,5.9,0.2,2.89,0,5.77,0,8.66,0,5.11,0,10.22,0,15.33-.06,5.88-.1,11.83-1.38,17.68-1.2,5.44,0.17,10.61,1.26,16.13,1.1,6-.18,12-0.19,18-0.24q19.3-.14,38.6-0.2L518.34,84c0,12.58-1.22,25.07-.94,37.67,0.4,17.61.94,35.17,0.94,52.79a1.21,1.21,0,0,0,2.41,0c0-17.62-.54-35.18-0.94-52.79-0.28-12.6.92-25.09,0.94-37.67a1.22,1.22,0,0,0-1.21-1.21q-18.38.07-36.76,0.19c-6,0-12.09,0-18.12.19-5.57.17-10.68-.49-16.19-1s-11,.88-16.4,1.06c-5.94.19-11.88,0.1-17.82,0.12l-7.08,0c-2,0-5.37.62-7.3-.11a1.21,1.21,0,0,0-1.53,1.16c0.66,21.43-.35,42.87.33,64.31,0.14,4.47.07,8.94,0,13.41-0.06,3.7.42,8.58-.24,11.93a1.23,1.23,0,0,0,1.16,1.53c16.24,1.19,32.93,0,49.21-.17,10.33-.11,20.65-0.28,31-0.15q12.54,0.16,25.08.31c3.52,0,7,.08,10.55.08,1.22,0,3.26.38,4.44-.11C521.28,175.07,520.66,172.74,519.23,173.33Z"/><path class="cls-6" d="M408.09,102.8c-1.57-7.68,7.22-7,12.31-7.13,2.05,0,5.08-.82,6.53,1.07,1,1.34,1.17,4.51,1.47,6.14s2.6,0.88,2.33-.64c-0.45-2.44-.69-7.19-3.22-8.64-1.09-.62-2.6-0.4-3.77-0.39-2.78,0-5.55.1-8.33,0.21-2.94.12-7-.28-9,2.38-1.65,2.18-1.15,5.17-.64,7.64,0.31,1.52,2.64.88,2.33-.64h0Z"/><path class="cls-6" d="M423.51,98.44l1.63,1.11,0.76,0.52,0.44,0.3q0.38,0.23.13,0.11l-0.16-.61V100l0.35-.85-0.06.07,0.53-.31h0.55l0.11,0,0.55,0.72,0-.07L428,100.81l0.05-.06A1.24,1.24,0,0,0,428,99a1.22,1.22,0,0,0-1.71,0l-0.05.06a1.21,1.21,0,0,0-.31,1.17,1.46,1.46,0,0,0,1.74,1,1.41,1.41,0,0,0,.84-2,4.5,4.5,0,0,0-1.65-1.42l-2.18-1.48c-1.29-.88-2.5,1.21-1.22,2.08h0Z"/><path class="cls-6" d="M506.64,87.85a19.66,19.66,0,0,1,3.57,3.72,1.24,1.24,0,0,0,1.65.43,1.21,1.21,0,0,0,.43-1.65,21.9,21.9,0,0,0-3.95-4.21,1.24,1.24,0,0,0-1.71,0,1.21,1.21,0,0,0,0,1.71h0Z"/><path class="cls-6" d="M508.16,91.69a23.12,23.12,0,0,1,2.72-4.7c0.93-1.24-1.16-2.45-2.08-1.22a23.12,23.12,0,0,0-2.72,4.7,1.25,1.25,0,0,0,.43,1.65,1.21,1.21,0,0,0,1.65-.43h0Z"/><path class="cls-6" d="M485.7,93l6.07-.3c1.55-.08,1.55-2.49,0-2.41l-6.07.3c-1.55.08-1.55,2.49,0,2.41h0Z"/><path class="cls-6" d="M501.25,85.72l-3.5.7a12.89,12.89,0,0,0-2.92.64c-1.91.91-.57,3.36-0.12,4.79a1.22,1.22,0,0,0,1.16.89l3.64-.39a5.69,5.69,0,0,0,2.76-.57,1.89,1.89,0,0,0,.62-1.94c-0.13-1.17-.31-2.33-0.47-3.5a1.21,1.21,0,0,0-1.48-.84,2.09,2.09,0,0,0-1.39,1.17c-0.63,1.4,1.45,2.63,2.08,1.22l0-.06L500.09,87c0.12,0.86.67,2.6,0.4,3.43l0.55-.72a7.17,7.17,0,0,1-2.58.35l-2.6.28L497,91.21l-0.48-1.52a4.19,4.19,0,0,1-.32-1l-0.55.72c0.66-.5,2.18-0.52,3-0.68l3.25-.65c1.52-.31.88-2.63-0.64-2.33h0Z"/><path class="cls-6" d="M479.52,85.62c1.07,3.45.72,7.81,3.72,10.32,3.62,3,10.9,2.47,15.22,2.54,3.71,0.06,11.08,1.05,14.26-1.45s2.85-9.57,2.72-13c-0.06-1.55-2.47-1.56-2.41,0,0.17,4.78.64,10.26-4.85,11.69-3.2.84-7.44,0.44-10.69,0.35-3-.08-8.39.41-11-1.1-3.84-2.2-3.5-6.34-4.62-10-0.46-1.48-2.79-.85-2.33.64h0Z"/><path class="cls-6" d="M423.32,101.17a5.52,5.52,0,0,1,.7-0.67l0.34-.23,0.21-.12q0.35-.17-0.15,0L423.8,100l0.09,0-0.43-.43,0,0.07-0.12-.93,0,0.08,0.31-.53-0.05.06,0.53-.31-0.06,0,1.17,0.31,0,0,0.31,1.17c0.68-2.07-2.14-4-3.76-2.46a2.41,2.41,0,0,0,1.56,4,1.21,1.21,0,0,0,0-2.41,0.37,0.37,0,0,1,.22.07q-0.17-.11,0,0-0.14-.15,0,0-0.1-.18,0,0a1.43,1.43,0,0,1-.05-0.2q0,0.23,0,0,0,0.23,0,0a0.35,0.35,0,0,1-.12.19,0.3,0.3,0,0,1-.17.08q0.21-.06,0,0t0,0q-0.17-.07,0,0c-0.1-.06,0,0,0,0.08a0.26,0.26,0,0,1-.06-0.18q0-.2,0,0a1.19,1.19,0,0,0,.31,1.17,1.32,1.32,0,0,0,2.06-.28,1.35,1.35,0,0,0-.82-2c-1.13-.31-2.43.92-3.12,1.68a1.23,1.23,0,0,0,0,1.71,1.22,1.22,0,0,0,1.71,0h0Z"/><path class="cls-25" d="M507.64,163.26h-5.74c-3.88,0-7.32,1.54-11.09.89-4.73-.81-10-0.28-14.82-0.38l-15.15-.31a85.93,85.93,0,0,0-9.6.16c-3.19.29-6.34-.82-9.52-0.42-2.62.33-34.47,0.2-34.47,0.05V103.7c14.91,0,29.92-.68,44.81.28,6.12,0.4,10.44-.8,16.58-0.86a169.31,169.31,0,0,1,17.39.5c1.19,0.13,21.5.07,21.6,0.08s0.39,15.45.21,16.49c-0.48,2.75-.1,5.55,0,8.34,0.21,4,1.08,6.81.59,10.9a81.42,81.42,0,0,0-.84,9.3Q507.64,156,507.64,163.26Z"/><path class="cls-6" d="M507.64,162.05c-4.67,0-9.05.75-13.66,1-4.81.26-9.86-.54-14.73-0.49s-9.75-.13-14.62-0.23c-5.48-.11-11.12.42-16.56,0-10.11-.75-20.43-0.12-30.6-0.17l-6.62,0a9.54,9.54,0,0,0-2.22,0c-2.66.72,1.3-1.08-.17,1.13,0.72-1.08,0-5,0-6.23V103.7l-1.21,1.21c12,0,24-.44,36.06-0.11,5.71,0.16,11.33.65,17,.13a147.16,147.16,0,0,1,15.38-.6c10.64,0.14,21.27.46,31.92,0.58l-1.21-1.21c-0.18,5.77.46,11.55,0.11,17.32-0.39,6.48,1.31,12.87.62,19.32a213.87,213.87,0,0,0-.73,22.92,1.21,1.21,0,0,0,2.41,0c0-7.36-.17-14.68.62-22,0.73-6.79-.89-13.44-0.5-20.24,0.33-5.77-.29-11.55-0.11-17.32a1.22,1.22,0,0,0-1.21-1.21c-10.65-.12-21.28-0.44-31.92-0.58a132,132,0,0,0-14.59.52c-5.66.55-11.18,0.15-16.85,0-12.34-.38-24.69.06-37,0.08a1.22,1.22,0,0,0-1.21,1.21v59.56a1.22,1.22,0,0,0,.89,1.16c4.18,0.9,9.24.17,13.49,0.19,6.44,0,12.89.11,19.33-.1,10.12-.34,20.39.15,30.55,0.36,6.74,0.14,13.47-.12,20.19.46,5.66,0.48,11.42-.85,17.14-0.85A1.21,1.21,0,0,0,507.64,162.05Z"/><path class="cls-6" d="M456.91,111.71l-46.42,1.4,1.21,1.21L411.5,108l-1.21,1.21,46.42-1.4-1.21-1.21,0.19,6.27a1.21,1.21,0,0,0,2.41,0l-0.19-6.27a1.22,1.22,0,0,0-1.21-1.21l-46.42,1.4a1.22,1.22,0,0,0-1.21,1.21l0.19,6.27a1.22,1.22,0,0,0,1.21,1.21l46.42-1.4A1.21,1.21,0,0,0,456.91,111.71Z"/><path class="cls-6" d="M399.58,81.52c40,0,80-.48,120-0.72a1.21,1.21,0,0,0,0-2.41c-40,.24-80,0.72-120,0.72a1.21,1.21,0,0,0,0,2.41h0Z"/><path class="cls-6" d="M400.44,181.08c40,0,80-.48,120-0.72a1.21,1.21,0,0,0,0-2.41c-40,.24-80,0.72-120,0.72a1.21,1.21,0,0,0,0,2.41h0Z"/><path class="cls-6" d="M451.15,175.64l25.08-.63a1.21,1.21,0,0,0,0-2.41l-25.08.63a1.21,1.21,0,0,0,0,2.41h0Z"/><path class="cls-6" d="M403,85.76c5.83,0.09,11.63-.75,17.46-0.27,1.55,0.13,1.54-2.29,0-2.41-5.83-.48-11.63.35-17.46,0.27a1.21,1.21,0,0,0,0,2.41h0Z"/><path class="cls-6" d="M411.38,81.48a82.8,82.8,0,0,0,9.81.33,1.21,1.21,0,0,0,0-2.41,82.8,82.8,0,0,1-9.81-.33c-1.55-.14-1.54,2.27,0,2.41h0Z"/><ellipse class="cls-26" cx="457.94" cy="133.7" rx="24.59" ry="23.66"/><path class="cls-6" d="M484,133.7c-0.68-23.49-31.08-33.78-46.27-15.92-15.5,18.23,2.26,44.48,24.7,40.7A25.79,25.79,0,0,0,484,133.7c0.06-1.93-2.94-1.93-3,0a22.92,22.92,0,0,1-23.09,22.16c-12.24,0-23-9.7-23.09-22.16s11-22.16,23.09-22.16A22.92,22.92,0,0,1,481,133.7C481.09,135.63,484.09,135.64,484,133.7Z"/><path class="cls-6" d="M463.09,120.65a5.76,5.76,0,0,0-1.22,6.5,4.89,4.89,0,0,0,5.65,2.52,4.31,4.31,0,0,0,3.34-5,4.51,4.51,0,0,0-5.36-3.54c-1.87.46-1.08,3.35,0.8,2.89a1.42,1.42,0,1,1,0,2.8c-2.3.11-2.42-2.78-1.12-4.06a1.5,1.5,0,0,0-2.12-2.12h0Z"/><path class="cls-6" d="M445.08,120.65a5.76,5.76,0,0,0-1.22,6.5,4.89,4.89,0,0,0,5.65,2.52,4.31,4.31,0,0,0,3.34-5,4.51,4.51,0,0,0-5.36-3.54c-1.87.46-1.08,3.35,0.8,2.89a1.42,1.42,0,1,1,0,2.8c-2.3.11-2.42-2.78-1.12-4.06a1.5,1.5,0,0,0-2.12-2.12h0Z"/><path class="cls-6" d="M443.57,143.51c6.21,2.6,31.35,9.06,29.71-4.83-0.22-1.89-3.23-1.92-3,0,1.21,10.28-21.3,3.86-25.91,1.94-1.78-.74-2.56,2.16-0.8,2.89h0Z"/></g></g></g></svg>