<svg id="Layer_2" data-name="Layer 2" xmlns="http://www.w3.org/2000/svg" xmlns:xlink="http://www.w3.org/1999/xlink" viewBox="0 0 580 580"><defs><style>.cls-1,.cls-8{fill:none;}.cls-2{clip-path:url(#clip-path);}.cls-3{fill:#fdea8b;}.cls-4{fill:#29abe2;}.cls-5{fill:#014e7f;}.cls-6{fill:#9acd72;}.cls-7{fill:#da1f47;}.cls-8{stroke:#014e7f;stroke-linecap:round;stroke-linejoin:round;stroke-width:9.3px;}.cls-9{fill:#262261;}</style><clipPath id="clip-path"><rect class="cls-1" width="580" height="580"/></clipPath></defs><title>iiLAB -U1-concepts-06-WEBSITE UNDER ATTACK</title><g class="cls-2"><rect class="cls-3" x="-33.23" y="-30.66" width="645" height="645"/><rect class="cls-4" x="47.33" y="55.07" width="510.77" height="414.58"/><path class="cls-5" d="M542.35,461.28c1-1.77,2.45-.84,1-1.09a16,16,0,0,0-2.8.08c-3,.06-6,0.06-9.06.06-10.12,0-20.24-.07-30.36-0.16q-41-.36-81.95-0.94c-63.87-.82-127.66-0.27-191.54.38-30.12.3-60.27,0-90.39,0.6-29.93.57-59.9,2.29-89.79-.16l1.77,4.27c1.73-2.17,1-6.94,1.07-9.49,0.2-7.17.34-14.33,0.47-21.5q0.48-25.87.75-51.74c0.2-22.28-1-44.55-1.32-66.83q-0.7-53-.13-106.11c0.38-39.65,1-79.32-.31-119L45.06,91c1.05,1.64,3.24,1.49,5,1.59,3.53,0.2,7.08.21,10.61,0.24,10.18,0.1,20.37.05,30.55,0,28-.17,56,0.14,84-0.47,19-.41,37.45-3.15,56.32-4.51,9.35-.67,18.65-0.6,27.85,1.33a152.43,152.43,0,0,0,26.84,3.13c19.54,0.57,39.17-.81,58.72-0.95q30.37-.22,60.74-0.45c46.27-.39,92.54-0.49,138.81-0.67l-2.5-2.5c-0.3,11.34.25,22.71,0.06,34.06-0.19,11.08-2,22.25-2.66,33.33-0.91,14.53-1.41,29.08-1.59,43.64-0.69,55,3.26,109.9,4.05,164.87,0.48,33,.14,66,0.14,99,0,3.22,5,3.22,5,0,0-57.4-.22-114.66-2.39-172-1-27.49-2-55-1.88-82.49,0.05-13.82.37-27.65,1-41.46,0.69-14.34,2.36-28.58,3.25-42.89,0.74-12-.33-24,0-36a2.53,2.53,0,0,0-2.5-2.5c-79.59.32-159.31-.43-238.87,2a261.58,261.58,0,0,1-27.64-.3c-8.91-.68-17.46-3.07-26.31-4-18-1.86-36,2-53.88,3.53-31.68,2.69-63.84,1.06-95.61,1.32-10.55.09-21.11,0.16-31.66,0.14-5,0-10.08,0-15.12-.12-1.73,0-3.46-.06-5.18-0.16a5.91,5.91,0,0,0-1.63-.1c-1,.29-0.53-1,0.77,1-1.28-2-4.74-1.33-4.66,1.26C47,159,44.43,228.47,45,297.82c0.21,25.7,1.66,51.42,1.54,77.11-0.07,15.79-.34,31.57-0.6,47.35q-0.23,13.56-.53,27.12c-0.07,3-.14,6.08-0.25,9.11a20.19,20.19,0,0,0-.1,2.58c0.15,1.52-.61,1.2.61-0.33A2.54,2.54,0,0,0,47.42,465c26.71,2.19,53.51,1.06,80.25.38,27.36-.7,54.74-0.42,82.1-0.65,47.8-.41,95.64-1.66,143.45-1.35,48.1,0.31,96.2,1.28,144.3,1.72,11.49,0.1,23,.21,34.48.19,2.69,0,12.91,1.56,14.67-1.52C548.26,461,543.95,458.49,542.35,461.28Z"/><path class="cls-5" d="M80.19,166.07c-1.84-8.31-4.18-20,2.73-26.75,4.22-4.09,10.69-4.4,16.21-4.7,6.24-.34,12.48-0.59,18.73-0.81,12.35-.44,24.84-1.1,37.2-0.74,3.94,0.12,6.19,1.5,7.59,5.18,1,2.76,1.79,5.69,2.56,8.54,1.64,6,2.93,12.12,4,18.27,0.53,3.17,5.35,1.82,4.82-1.33a185.28,185.28,0,0,0-5.52-23.66c-1.39-4.5-3-9.54-7.9-11.26-2.89-1-6.19-.75-9.18-0.72q-6.41,0-12.82.16-12.33.23-24.65,0.7c-11.25.43-27.7-1.46-35.81,8.25-6.91,8.29-4.87,20.53-2.73,30.18,0.69,3.14,5.52,1.81,4.82-1.33h0Z"/><path class="cls-5" d="M146.5,147.34l6.76,4.6,3.16,2.15,1.8,1.23q1.57,0.95.53,0.45l-0.68-2.52,0,0.67,1.46-3.54-0.26.31,2.21-1.29-0.4.06h2.66l0.46,0.14,2.3,3-0.11-.28-1.29,4.86,0.22-.26a5.13,5.13,0,0,0,0-7.07c-1.8-1.8-5.31-2.06-7.07,0l-0.22.26c-1.1,1.29-1.93,3.14-1.29,4.86,1.11,3,3.94,4.95,7.19,4.11a5.84,5.84,0,0,0,3.47-8.35c-1.39-2.7-4.39-4.22-6.82-5.88l-9-6.13c-5.34-3.63-10.34,5-5,8.63h0Z"/><path class="cls-5" d="M492.77,101.71a83.75,83.75,0,0,1,15.18,15.93c1.87,2.58,6.21.09,4.32-2.52a88.42,88.42,0,0,0-16-16.95c-2.48-2-6,1.51-3.54,3.54h0Z"/><path class="cls-5" d="M495.16,118.11a95.8,95.8,0,0,1,11.29-19.46c1.93-2.58-2.41-5.07-4.32-2.52a95.8,95.8,0,0,0-11.29,19.46c-1.27,2.92,3,5.47,4.32,2.52h0Z"/><path class="cls-5" d="M404.24,122.14l25.17-1.25c3.2-.16,3.22-5.16,0-5l-25.17,1.25c-3.2.16-3.22,5.16,0,5h0Z"/><path class="cls-5" d="M469.32,97l-13.37,2.69c-4,.8-9.32.94-12.94,2.76-6,3-.42,12.58,1,16.9a2.54,2.54,0,0,0,2.41,1.84L462,119.53c2.87-.31,7.28.08,9.57-2,1.65-1.47,1.61-3.17,1.44-5.23-0.41-4.83-1.3-9.68-2-14.49A2.51,2.51,0,0,0,468,96.11a6.2,6.2,0,0,0-4.28,3.68c-1.31,2.91,3,5.46,4.32,2.52l1.3-1.38-3.08-1.75,1.1,8.15c0.52,3.86,1,5.9-3.38,7-5.56,1.37-11.93,1.28-17.62,1.9l2.41,1.84c-0.89-2.82-2.25-5.82-2.77-8.72-0.35-2-.84-1.61.75-2.67,0.94-.62,3.77-0.76,4.78-1l19.1-3.84c3.15-.63,1.82-5.45-1.33-4.82h0Z"/><path class="cls-5" d="M381,93.57c4.08,11.22,2.88,24.17,8.85,34.72,6.88,12.16,21.24,13.37,33.75,14.7a371.46,371.46,0,0,0,51,1.89q13-.41,26-1.74c5.67-.58,12.08-0.63,15.91-5.49,4.61-5.83,5.81-15.37,7-22.43A122.06,122.06,0,0,0,525,87.49c-0.19-3.2-5.19-3.22-5,0a116.11,116.11,0,0,1-1.78,29.16,99.62,99.62,0,0,1-3.23,12.7c-1.7,5.07-4,7.51-9.58,8.27-18.09,2.43-36.65,2.85-54.87,2.25q-14-.46-27.89-2c-8.12-.89-17.82-1.37-24.33-7-10.5-9-8.12-26.66-12.5-38.69-1.09-3-5.92-1.7-4.82,1.33h0Z"/><path class="cls-5" d="M143.93,156.88a24.56,24.56,0,0,1,3.14-3c0.53-.41,1.08-0.78,1.65-1.14q0.42-.27.85-0.52,1.65-.61-1-1.05l-0.25-1.93,1.17-1.11,2.43,0.64-0.2-.18,0.64,2.43c2.08-6.3-6.56-12.47-11.55-7.64-4.34,4.2-.93,12,4.82,12.38,3.21,0.19,3.2-4.81,0-5-1.41-.08-2.29-2.56-1.47-3.64,1.29-1.7,3.92.94,3.38,2.57a2.46,2.46,0,0,0,.64,2.43c3.72,3.37,7.44-3.85,2.71-5.13-1.88-.51-3.76.79-5.24,1.77a28.51,28.51,0,0,0-5.24,4.53c-2.16,2.38,1.37,5.92,3.54,3.54h0Z"/><path class="cls-6" d="M495.17,416H471.39c-16.06,0-30.35,6.37-45.94,3.71-19.59-3.35-41.56-1.18-61.43-1.58l-62.79-1.28c-13.26-.27-26.56-0.54-39.77.67s-26.27-3.39-39.45-1.74c-10.86,1.36-142.85.81-142.85,0.23V169.14c61.8,0,124-2.83,185.69,1.17,25.37,1.64,43.27-3.33,68.73-3.58,21.47-.21,51.18-0.16,72.08,2.08,4.91,0.53,89.09.29,89.53,0.33-0.16,0,1.62,64,.87,68.33-2,11.39-.42,23,0.19,34.55,0.87,16.5,4.46,28.24,2.43,45.18-1.48,12.42-3.48,26.07-3.48,38.56Q495.17,385.87,495.17,416Z"/><path class="cls-5" d="M495.17,413.48c-11.19,0-22.64-.71-33.76.71-10.17,1.3-20.28,4.12-30.61,3.58s-20.16-2.39-30.45-2.48c-10.94-.1-21.87.43-32.81,0.36-22.42-.16-44.85-0.9-67.27-1.35-11-.22-22.12-0.42-33.15.26-10.55.65-20.29-.2-30.78-1.21-8.3-.8-16.58.17-24.9,0.36-9,.2-18,0.26-27,0.32q-34.86.2-69.73,0c-8.75-.05-17.51-0.11-26.26-0.24-2.37,0-4.74-.05-7.11-0.14-4.31-.16,1.51.82,0.34,2.18,0.88-1,0-6.74,0-8V182.36c0-3.74.57-8,0-11.71a10.36,10.36,0,0,1,0-1.51l-2.5,2.5c39.2,0,78.4-1.13,117.6-1,19.42,0.09,38.84.5,58.24,1.54,9.4,0.5,18.73,1.15,28.14.73,8.44-.37,16.84-1.33,25.24-2.16,32.28-3.19,65-1.83,97.33.51,14.15,1,28.6.33,42.78,0.34,15.52,0,31.17-.59,46.68,0l-2.41-3.16c-0.43,2,0,4.43,0,6.48q0.16,7.63.33,15.26c0.26,12.18.54,24.37,0.62,36.56,0,3.32.16,6.69-.1,10-0.22,2.77-1,8.26-1,12.15-0.07,6.1.45,12.2,0.86,18.28,0.72,10.77,2.27,21.43,3,32.19,0.84,11.56-1,22.81-2.31,34.26-3,27.19-1.49,55-1.49,82.33,0,3.22,5,3.22,5,0,0-23.9-1.32-48.24.5-72.09,0.87-11.4,3.18-22.75,3.55-34.18,0.34-10.8-1.65-21.43-2.6-32.16-1.05-11.87-2.48-24.4-1.12-36.28a89.72,89.72,0,0,0,.72-10.25c0-11.64-.27-23.28-0.51-34.92q-0.19-9.09-.39-18.18c0-2-.09-4.06-0.12-6.09,0-.58.16-3.29-0.11-2a2.54,2.54,0,0,0-2.41-3.16c-29.19-1.08-58.5,1-87.7-.24-12.28-.52-24.5-1.76-36.81-2-16.37-.36-32.92-0.72-49.27.33-17,1.09-33.79,3.87-50.83,3.38-19.67-.56-39.29-2-59-2.25-44.14-.62-88.28.79-132.42,0.81a2.54,2.54,0,0,0-2.5,2.5v211c0,11.36-.17,22.74,0,34.1,0,2.72.7,4.09,3.68,4.38,5.6,0.55,11.41.23,17,.28q33.66,0.33,67.33.24c18.12,0,36.34.32,54.44-.63a114.21,114.21,0,0,1,14.54-.34c10.71,0.79,20.8,2.33,31.57,1.56,22.36-1.59,45-.18,67.39.28s44.53,0.2,66.81.33c5.15,0,10.31.18,15.45,0.6,5.33,0.43,10.58,1.61,15.92,1.89,10.15,0.53,20.08-2.14,30.06-3.5,11.3-1.53,22.94-.8,34.32-0.8C498.38,418.48,498.39,413.48,495.17,413.48Z"/><path class="cls-5" d="M284.91,204.83l-65.24,2L116.31,209.9l-23.78.72,2.5,2.5-0.78-26-2.5,2.5,65.24-2,103.37-3.11,23.78-.72-2.5-2.5,0.78,26c0.1,3.21,5.1,3.22,5,0l-0.78-26a2.53,2.53,0,0,0-2.5-2.5l-65.24,2-103.37,3.11-23.78.72a2.53,2.53,0,0,0-2.5,2.5l0.78,26a2.53,2.53,0,0,0,2.5,2.5l65.24-2,103.37-3.11,23.78-.72C288.12,209.73,288.14,204.73,284.91,204.83Z"/><path class="cls-5" d="M47.33,74.72c32.36-.15,64.59,1.56,96.91-0.71,7.53-.53,15.07-1,22.62-1.12,8.21-.08,16.27.83,24.45,1.37,15.62,1,31.28.34,46.9-.24,32.74-1.22,65.55-.85,98.31-1,16.06-.1,32.07-1,48.12-1.69,16.3-.65,32.56-0.28,48.86.07,37,0.78,74,.59,111,0.36,3.22,0,3.22-5,0-5-33,.2-66.07.54-99.11-0.12-16.4-.32-32.83-1-49.24-0.68-16,.32-31.92,1.52-47.9,1.9-32.93.8-65.9-.12-98.83,0.81-15.66.44-31.31,1.41-47,1.09s-31.13-2.3-46.9-1.46c-18,1-35.73,2.25-53.73,2.13-18.17-.13-36.33-0.76-54.5-0.68-3.22,0-3.22,5,0,5h0Z"/><path class="cls-5" d="M50.88,487.32c32.36-.15,64.59,1.56,96.91-0.71,7.53-.53,15.07-1,22.62-1.12,8.21-.08,16.27.83,24.45,1.37,15.62,1,31.28.34,46.9-.24,32.74-1.22,65.55-.85,98.31-1,16.06-.1,32.07-1,48.12-1.69,16.3-.65,32.56-0.28,48.86.07,37,0.78,74,.59,111,0.36,3.22,0,3.22-5,0-5-33,.2-66.07.54-99.11-0.12-16.4-.32-32.83-1-49.24-0.68-16,.32-31.92,1.52-47.9,1.9-32.93.8-65.9-.12-98.83,0.81-15.66.44-31.31,1.41-47,1.09s-31.13-2.3-46.9-1.46c-18,1-35.73,2.25-53.73,2.13-18.17-.13-36.33-0.76-54.5-0.68-3.22,0-3.22,5,0,5h0Z"/><path class="cls-7" d="M304,242.59c-2.39-4.88-7.28-5.53-10.86-1.44l-92.89,106c-3.58,4.09-2.14,8.22,3.21,9.18l161.75,29.12c5.35,1,7.77-2.24,5.37-7.12Z"/><path class="cls-8" d="M298,236.59c-2.39-4.88-7.28-5.53-10.86-1.44l-92.89,106c-3.58,4.09-2.14,8.22,3.21,9.18l161.75,29.12c5.35,1,7.77-2.24,5.37-7.12Z"/><line class="cls-8" x1="285.48" y1="272.02" x2="279.27" y2="314.99"/><circle class="cls-9" cx="275.67" cy="339.92" r="4.45" transform="translate(-100.15 564.2) rotate(-81.78)"/><path class="cls-5" d="M261,467.26l104-2.61c6.42-.16,6.45-10.16,0-10l-104,2.61c-6.42.16-6.45,10.16,0,10h0Z"/><path class="cls-5" d="M61.46,94.79c24.15,0.6,48.23-3.43,72.36-1.1,6.4,0.62,6.36-9.39,0-10-24.12-2.33-48.21,1.7-72.36,1.1-6.44-.16-6.43,9.84,0,10h0Z"/><path class="cls-5" d="M96.23,77.08a332.82,332.82,0,0,0,40.66,1.39c6.42-.17,6.45-10.17,0-10a332.82,332.82,0,0,1-40.66-1.39c-6.4-.61-6.36,9.39,0,10h0Z"/></g></svg>