<svg xmlns="http://www.w3.org/2000/svg" xmlns:xlink="http://www.w3.org/1999/xlink" viewBox="0 0 580 580"><defs><style>.cls-1{fill:none;}.cls-2{isolation:isolate;}.cls-3{clip-path:url(#clip-path);}.cls-4{fill:#fdea8b;}.cls-5{opacity:0.59;fill:url(#linear-gradient);}.cls-11,.cls-12,.cls-5{mix-blend-mode:multiply;}.cls-6{fill:#231f20;}.cls-7{fill:#929497;}.cls-8{fill:#014e7f;}.cls-9{fill:#fff;}.cls-10{fill:#21648f;}.cls-11{fill:#e6e7e8;}.cls-13{fill:#a6a8ab;}.cls-14{fill:#d91e47;}.cls-15{fill:#ffec8d;}</style><clipPath id="clip-path"><rect class="cls-1" y="4.37" width="580" height="580"/></clipPath><linearGradient id="linear-gradient" x1="534.26" y1="2404.51" x2="1347.81" y2="2404.51" gradientTransform="translate(-651.05 -2097.98)" gradientUnits="userSpaceOnUse"><stop offset="0" stop-color="#fff"/><stop offset="0.6" stop-color="#9acd72"/></linearGradient></defs><title>iiLAB -U1-concepts-06-WEBSITE UNDER ATTACK</title><g class="cls-2"><g id="Layer_2" data-name="Layer 2"><g class="cls-3"><rect class="cls-4" x="-32.5" y="-28.08" width="645" height="645"/><circle class="cls-5" cx="289.99" cy="306.53" r="406.77" transform="translate(-131.96 302.75) rotate(-46.08)"/><path class="cls-6" d="M541.83,155.3c3.22,0,3.22-5,0-5s-3.22,5,0,5h0Z"/><path class="cls-7" d="M391.48,220.52c10.46-11,23.29-20.88,38.58-23.59,13.8-2.45,28.64,1.65,37.53,12.82,1.25,1.57,3.65.5,4.18-1.1,4.32-13.27,10.42-31.05,22.71-39.17,14.09-9.31,26.94,4.33,35.29,14.65a2.51,2.51,0,0,0,3.93-.51c5.68-11.85,14.68-28.86,30.66-25.08,3.13,0.74,4.46-4.08,1.33-4.82-18.53-4.38-29.49,13.18-36.31,27.38l3.93-.51c-9.36-11.57-23.05-24.74-39-16.81-15.26,7.61-22.5,28.5-27.39,43.54l4.18-1.1c-9.34-11.73-25-16.43-39.55-14.54-17.27,2.24-31.91,13-43.63,25.31-2.22,2.33,1.31,5.87,3.54,3.54h0Z"/><path class="cls-7" d="M310.86,195.3c10.46-11,23.29-20.88,38.58-23.59,13.8-2.45,28.64,1.65,37.53,12.82,1.25,1.57,3.65.5,4.18-1.1,4.32-13.27,10.42-31.05,22.71-39.17,14.09-9.31,26.94,4.33,35.29,14.65a2.51,2.51,0,0,0,3.93-.51c5.68-11.85,14.68-28.86,30.66-25.08,3.13,0.74,4.46-4.08,1.33-4.82-18.53-4.38-29.49,13.18-36.31,27.38l3.93-.51c-9.36-11.57-23.05-24.74-39-16.81-15.26,7.61-22.5,28.5-27.39,43.54l4.18-1.1c-9.34-11.73-25-16.43-39.55-14.54-17.27,2.24-31.91,13-43.63,25.31-2.22,2.33,1.31,5.87,3.54,3.54h0Z"/><path class="cls-7" d="M195.65,201.23c10.46-11,23.29-20.88,38.58-23.59,13.8-2.45,28.64,1.65,37.53,12.82,1.25,1.57,3.65.5,4.18-1.1,4.32-13.27,10.42-31.05,22.71-39.17,14.09-9.31,26.94,4.33,35.29,14.65a2.51,2.51,0,0,0,3.93-.51c5.68-11.85,14.68-28.86,30.66-25.08,3.13,0.74,4.46-4.08,1.33-4.82-18.53-4.38-29.49,13.18-36.31,27.38l3.93-.51c-9.36-11.57-23.05-24.74-39-16.81C283.25,152.1,276,173,271.12,188l4.18-1.1c-9.34-11.73-25-16.43-39.55-14.54-17.27,2.24-31.91,13-43.63,25.31-2.22,2.33,1.31,5.87,3.54,3.54h0Z"/><path class="cls-8" d="M179.8,369.05c-6-9.63-11.06-21.13-11.66-32.63-0.29-5.61.95-11.6,5.43-15.37,4.31-3.62,11.85-3.45,14.09,2.53l4.18-2.43c-5.85-6.66-4.28-18.72,3.76-23,8.62-4.64,19.59,1.81,21.45,10.88l4.82-1.33c-4.23-13.3,4.85-26.5,18.92-26.91,3.21-.09,3.22-5.1,0-5A25.36,25.36,0,0,0,217,309a2.5,2.5,0,0,0,4.82-1.33c-2.51-12.23-17.54-20.11-28.8-13.87-10.92,6.05-12.74,21.83-4.77,30.89,1.6,1.82,5.05-.1,4.18-2.43-5-13.4-21.89-9.5-27.12,1.53-7,14.83,2.18,35.11,10.12,47.79,1.7,2.72,6,.22,4.32-2.52h0Z"/><path class="cls-8" d="M96.39,422.3a21.94,21.94,0,0,0-22.46-16.89c-5,.32-7.72,2.08-8.22,7.34a13.06,13.06,0,0,0,5.68,12l2.52-4.32c-6.9-4.26-16.93-9.59-24.35-3.39-4.7,3.93-6.6,11.28-1.74,15.81l1.77-4.27c-9.29.43-17.64,6.95-18.74,16.5a19.54,19.54,0,0,0,3.52,13.67c2.9,4,7.39,6.15,10.79,9.61,5.49,5.59.06,11.67-1.31,17.91-1,4.67-1,9.65,1.3,14,3.8,7.26,13.78,10,20,4.3,2.4-2.17-1.14-5.67-3.54-3.54-5.75,5.11-3.09,14.26,3.65,17,9.4,3.81,17.67-3.76,23.48-10.16,2.16-2.38-1.37-5.92-3.54-3.54-3.34,3.67-6.94,7.91-11.94,9.24-3,.79-6.86.61-8.84-2.17a5,5,0,0,1,.72-6.82l-3.54-3.54c-3.67,3.31-9.44,1.27-11.83-2.6s-1.83-9-.55-13.09c2-6.4,5.85-11.77,1.43-18.15-3.68-5.3-10.65-7.47-13.55-13.41-4.59-9.39,2.28-19.71,12.43-20.17,2.06-.1,3.43-2.72,1.77-4.27-3.35-3.12-.07-8.47,3.59-9.66,5.67-1.85,11.83,2.23,16.44,5.09,2.79,1.72,5.08-2.47,2.52-4.32-2.11-1.52-4.77-6.15-2.93-8.82,1.53-2.22,6.3-1.3,8.55-.67a16.73,16.73,0,0,1,12,12.65c0.67,3.15,5.49,1.81,4.82-1.33h0Z"/><path class="cls-9" d="M106.73,483.29c28.24,34.86,79.41,49,121.55,33.65,4.66-1.7,9.29-3.74,14.23-4.15,5.62-.47,11.17,1.2,16.56,2.85l34.23,10.47c4.23,1.29,8.73,2.59,13,1.44s7.9-5.81,6.28-9.92c-1.48-3.76-6.11-5-10.09-5.64l-33.26-5.75c-3-.52-6.43-1.35-7.76-4.09-1.14-2.35-.23-5.12.57-7.6a77.06,77.06,0,0,0-54.2-98.19,456.65,456.65,0,0,1-77.28,84.11c-4.1,3.47-8.55,7.35-9.34,12.66"/><path class="cls-8" d="M125.7,508.53a437.07,437.07,0,0,0,91-90.5c1.93-2.58-2.41-5.08-4.32-2.52a429.12,429.12,0,0,1-89.22,88.71c-2.56,1.89-.07,6.23,2.52,4.32h0Z"/><path class="cls-8" d="M108,481.06c16.23,19.73,39.42,33.06,64.39,38.16a114.24,114.24,0,0,0,38.3,1.35,103.23,103.23,0,0,0,18.56-4.26c8.18-2.72,15.13-6.15,24-4.47,8.55,1.62,17,4.9,25.31,7.44,7.78,2.38,15.86,5.75,23.93,6.92,5.44,0.79,11.16-.36,14.35-5.24a8.89,8.89,0,0,0-2.1-12.28c-5.35-4.05-13.95-4-20.29-5.14l-12.72-2.2c-3.74-.65-8.91-0.67-12.36-2.42-4.92-2.5-1.49-8.63-.53-12.48A80.19,80.19,0,0,0,270.66,476a81.42,81.42,0,0,0-.59-22.07c-5-30.89-28.49-56-58.55-64a2.59,2.59,0,0,0-2.82,1.15,458,458,0,0,1-44.21,53.08q-11.53,11.88-23.9,22.9c-6.77,6-16.72,11.91-18.77,21.39-0.68,3.14,4.14,4.48,4.82,1.33,1.1-5.1,4.91-8.31,8.7-11.56,4.31-3.69,8.58-7.4,12.77-11.22q12.23-11.15,23.63-23.18A467.25,467.25,0,0,0,213,393.61l-2.82,1.15c26.17,7,47.18,27.65,53.74,54.06,3.41,13.72,2.63,27.57-1.28,41.06-1.3,4.48-2.11,9.21,2.17,12.34,5.27,3.86,14.27,3.72,20.46,4.79,7,1.2,14,2.13,20.91,3.63,3.81,0.83,10.12,3.4,5.89,8.33-3.39,3.95-9.22,2.4-13.49,1.2-14.9-4.19-29.7-10.61-44.95-13.35-12.94-2.32-24.5,5.07-36.87,7.65a106.36,106.36,0,0,1-35.18,1.24c-27.15-3.49-52.65-17-70.07-38.19-2-2.49-5.56,1.07-3.54,3.54h0Z"/><path class="cls-9" d="M167.5,353.26c-4.26-33-36.17-60.07-69.45-58.85-3.88.14-7.9,0.67-11.15,2.79-8.26,5.39-7.6,17.48-6,27.2,7.21,43.28,14.47,86.78,28.45,128.38a99.15,99.15,0,0,1,12.32-38.41,242.56,242.56,0,0,0,18,35.54,58.89,58.89,0,0,0,0-30.15,101.09,101.09,0,0,0,25.57,27.68l-4.05-35.83,23.74,30.27a106.41,106.41,0,0,0-10.49-36.43,201.18,201.18,0,0,0,28.74,32.79Q184.81,396,164.25,354.77"/><path class="cls-8" d="M88.26,51.86L80.95,48.2c-1.53-.77-4,0.13-3.76,2.16,7.33,77.37,14.38,154.77,22,232.12,0.7,7.12,1.57,15.3,7.23,20.39,4.56,4.1,11.59,5.45,16.7,1.64,2.55-1.9.06-6.24-2.52-4.32-7.56,5.64-14-3.77-15.41-10.35-1.77-8.17-1.9-16.9-2.69-25.22L97.59,213,87.73,108.88,82.19,50.36l-3.76,2.16,7.31,3.67c2.87,1.44,5.4-2.87,2.52-4.32h0Z"/><path class="cls-8" d="M77.34,344.25l41-14,20.48-7c5.79-2,14.06-6.41,20.05-3.28l-1.24-2.16c-0.44,6.53-10.85,9-15.69,10.94q-9.87,3.94-19.84,7.62-19.94,7.36-40.24,13.67L85,352.48l0-4.65c0-3.22-5-3.22-5,0l0,4.65a2.52,2.52,0,0,0,3.16,2.41q24.9-7.76,49.29-17.07c7-2.68,14.28-5.15,21-8.48,4.83-2.39,8.77-5.88,9.14-11.51a2.45,2.45,0,0,0-1.24-2.16c-5.16-2.7-10.4-1.74-15.74,0-7.72,2.51-15.38,5.24-23.06,7.87L76,339.43c-3,1-1.73,5.87,1.33,4.82h0Z"/><path class="cls-8" d="M172.91,348.59c-4.47-31.65-32.46-57.55-64.16-60.46-7.54-.69-16.86-0.74-22.65,4.93-5.35,5.25-6,13.38-5.54,20.45,0.71,9.78,2.94,19.55,4.59,29.2,1.88,11,3.83,21.95,6,32.88,4.88,25,10.79,49.71,18.84,73.85,0.93,2.8,4.6,2.09,4.91-.66a99.56,99.56,0,0,1,12-37.15l-4.57-.6a257.67,257.67,0,0,0,18.28,36.14,2.53,2.53,0,0,0,4.57-.6,64.31,64.31,0,0,0,0-31.48L140.52,417A108.25,108.25,0,0,0,167,445.6a2.51,2.51,0,0,0,3.76-2.16l-4.05-35.83-4.27,1.77,23.74,30.27c1.29,1.65,4.5.31,4.27-1.77a114.47,114.47,0,0,0-10.83-37.69l-4.32,2.52A212.07,212.07,0,0,0,204.41,436c2.2,2,5-.5,3.93-3q-18.4-42.22-38.93-83.46c-1.43-2.88-5.75-.35-4.32,2.52Q185.62,393.26,204,435.5l3.93-3a205.93,205.93,0,0,1-28.35-32.28,2.5,2.5,0,0,0-4.32,2.52,107.28,107.28,0,0,1,10.15,35.17l4.27-1.77L166,405.84c-1.29-1.65-4.5-.31-4.27,1.77l4.05,35.83,3.76-2.16a101.53,101.53,0,0,1-24.67-26.78,2.51,2.51,0,0,0-4.57,1.93,58.58,58.58,0,0,1,0,28.82l4.57-.6a249.64,249.64,0,0,1-17.78-34.94c-0.76-1.85-3.43-2.66-4.57-.6a105.93,105.93,0,0,0-12.66,39.67l4.91-.66C102.49,411.26,95.31,373,88.86,334.8c-1.45-8.58-3.69-17.45-3.41-26.2,0.12-3.6.73-7.62,3-10.58,3.31-4.41,8.92-5.07,14.06-5.14,14.76-.2,29.32,5.4,40.81,14.55a66.48,66.48,0,0,1,24.83,42.5c0.45,3.17,5.27,1.82,4.82-1.33h0Z"/><path class="cls-8" d="M91.48,47.11Q105.1,149.75,114.9,252.84c0.89,9.38,1.84,18.75,2.59,28.14,0.65,8.14,1,17.29-4.77,23.78-2.13,2.4,1.39,5.95,3.54,3.54,9.6-10.79,6.32-26.6,5.11-39.68q-2.45-26.64-5.16-53.25-5.47-53.72-12-107.32-3.71-30.49-7.76-60.93c-0.42-3.14-5.42-3.18-5,0h0Z"/><path class="cls-10" d="M372.63,497.41l0.18,0.08Z"/><path class="cls-10" d="M372.86,495.86h0l0,0Z"/><path class="cls-10" d="M372.8,495.88l-0.24.07A0.58,0.58,0,0,0,372.8,495.88Z"/><path class="cls-10" d="M374.09,498.17a1.56,1.56,0,0,0,.23.2Z"/><path class="cls-10" d="M375.16,498.27l0.13,0Z"/><path class="cls-10" d="M371.89,497.24l0-.09Z"/><path class="cls-10" d="M371.95,497.64s0,0,0,0v0.05C372,497.76,372,497.68,371.95,497.64Z"/><path class="cls-10" d="M372,497.94v0S372,498,372,497.94Z"/><path class="cls-10" d="M370.91,500.78l-0.07.24A2.28,2.28,0,0,0,370.91,500.78Z"/><path class="cls-10" d="M371.82,496.94l0.06,0.21Z"/><path class="cls-10" d="M372.52,497.37l0.11,0Z"/><path class="cls-10" d="M374,498.3h0S374,498.28,374,498.3Z"/><path class="cls-10" d="M372.44,495.15l-0.11,0C372.29,495.21,372.34,495.2,372.44,495.15Z"/><path class="cls-10" d="M372.24,497.67a6.57,6.57,0,0,1,.32.68c0-.16-0.09-0.27.11,0.06a3.79,3.79,0,0,0,.19.55l-0.06-.24c0.18,0.25.37,0.71,0.38,0.64-0.38-.76.36,0.17,0.37,0l0,0.08,0.34,0.24,0,0-0.09-.13c0.29,0.3.58,0.45,0.62,0.29-0.28-.37.19-0.41-0.09-0.72,0.06,0.11,0,.16-0.1.12l-0.42-.4c0.07-.06.4,0.35,0.2,0.05-0.6-.51-0.08.09-0.19,0.09a2.37,2.37,0,0,1-.24-0.36c-0.09.08-.35-0.09,0.1,0.57a1.86,1.86,0,0,1-.36-0.45c0.23,0.41-.32-0.31-0.11.05a4.21,4.21,0,0,1-.37-0.73c0.46,0.38.13-.1,0.08-0.2,0.43,0.32.73,0.68,1,.84s-0.14-.28-0.36-0.49a2.4,2.4,0,0,0,.85.38l0.24,0.28c0.7,0.31-.2-0.25,0-0.23-0.18-.08-0.35-0.17-0.37-0.1a0.82,0.82,0,0,1-.33-0.28h0c-0.3-.21-0.65-0.41-0.46-0.37a0.88,0.88,0,0,0,.53.18l0.08,0.06A1.27,1.27,0,0,1,374,498l0.1,0a2.59,2.59,0,0,1-.55-0.31,2.37,2.37,0,0,0,.7.24c0.32,0.11.32,0.22,0.18,0.25a0.91,0.91,0,0,1,.66.25c0.41,0.12-.13-0.17.07-0.16-0.13,0-.26-0.1-0.39-0.14,0.55,0.18.11-.2-0.28-0.29l0.28,0.18c-0.45-.13-0.71-0.3-1-0.34,0.72,0.13-.3-0.24.3-0.16l-0.37,0c0.23-.11-0.59-0.28-0.77-0.32,0.24,0,1,0,.75.09a5.55,5.55,0,0,1,1.2-.09c0.29-.16-0.75,0-1-0.07l0.15,0.07c-0.47,0-.43-0.08-0.34-0.16s0.21-.18-0.08-0.19a0.24,0.24,0,0,1,.23,0c0.46-.16-0.1,0-0.29,0a1.19,1.19,0,0,1,.82-0.32,1.3,1.3,0,0,0-.53.09l0.12,0-0.66.07a4.28,4.28,0,0,1,1-.43,9.48,9.48,0,0,0-1.52.25,2.16,2.16,0,0,1,.65-0.17l-0.09-.08a8.85,8.85,0,0,0,1.07-.2,1.88,1.88,0,0,1-.76,0l-0.06,0c-0.51.11-.2-0.11-0.32-0.14a0.87,0.87,0,0,1,.49,0c0.22-.15-0.09-0.27-0.74-0.09a1.2,1.2,0,0,1,.59-0.3c0-.19-0.92.29-0.78,0.1l0.48-.19c0.62-.42-0.72,0-0.16-0.39l-0.57.26c0.23-.14.31-0.24,0.53-0.36l0.22,0c0.45-.28-0.48.15-0.18-0.07-0.17.08-.53,0.32-0.72,0.41,0.45,0.1-.28.68,0.4,0.71a1.33,1.33,0,0,1,.26-0.11,0.4,0.4,0,0,1-.28.18h0a1.88,1.88,0,0,1-.53.36c0.41-.11-0.13.18,0.56-0.06l-0.43.18c0.26-.06.6-0.18,0.74-0.19a1,1,0,0,1-.51.16,0.28,0.28,0,0,0-.1.3,0.66,0.66,0,0,0,.28.27l-0.35,0c-0.14.11,0.6,0-.25,0.13a1.53,1.53,0,0,0,.66,0c-0.86.1-.38,0.07-0.26,0.14a0.84,0.84,0,0,1,.57.15c-0.59-.1-0.61-0.15-1-0.19,0.47,0.06.3,0.09,0.2,0.06s-0.11,0,.62.25l-0.17-.06a2.37,2.37,0,0,1-.32-0.1,2.94,2.94,0,0,1,.45.2,6.48,6.48,0,0,1-.63-0.27,8.22,8.22,0,0,1,.92.63,3.68,3.68,0,0,1-.54-0.34c0.35,0.34-.11,0,0.08.24a1.59,1.59,0,0,1-.27-0.3c-0.34-.27-0.31-0.25-0.25-0.17s0.13,0.19,0,0l0.34,0.44a2.05,2.05,0,0,1-.41-0.49c-0.22-.26,0,0-0.05,0l-0.07-.13h0l0.34,0.71C372.21,497.68,372.12,497.5,372.24,497.67Z"/><path class="cls-10" d="M372.34,498l0,0.06h0Z"/><path class="cls-10" d="M374.9,498.75l-0.23-.07A0.8,0.8,0,0,0,374.9,498.75Z"/><path class="cls-10" d="M371.55,499.08c-0.08.85,0.1-.13,0.13,0.11a3.46,3.46,0,0,0-.1.87c0.15-1.09.1,0.23,0.31,0,0,0.36-.08.42-0.1,0.82a1.62,1.62,0,0,0,.26-1.05,0.55,0.55,0,0,0,.39.05,11.16,11.16,0,0,0,.1,1.15,7.58,7.58,0,0,0-.12-2.5c0.25,0.63.29,0.69,0.49,1.27,0.36,0.34-.18-0.6.05-0.48l-0.12-.08a6.08,6.08,0,0,0-.47-1.2l-0.05.12a1.67,1.67,0,0,1-.14-0.49c-0.23-.5-0.19-0.36-0.36-0.76a1.81,1.81,0,0,1,.14.38l-0.09-.23c-0.09-.25.11,0.36,0.08,0.35l0-.16a5.09,5.09,0,0,1,.15.7v0a10.58,10.58,0,0,0,.26,1.6s-0.22-.14-0.22-0.15c-0.05-.65-0.17-1.64-0.16-1.72l0-.27a3.93,3.93,0,0,0,.1,1.07c0.07,0.78,0,.8-0.08.7s-0.13-.3-0.21,0c0-.42.08-0.59,0.09-0.89,0-.05,0-0.06,0,0.3,0.09-.24-0.06-1.35,0-1.2a6.82,6.82,0,0,0,.08.74l0-.59-0.07-.59a2.59,2.59,0,0,1,0,.36c0,0.41-.1.41-0.11,0.35a0.65,0.65,0,0,1,0-.23,0.39,0.39,0,0,1-.15.14,0.23,0.23,0,0,0-.07,0,0.13,0.13,0,0,1,0,.08c0,0.11-.14-0.1-0.12-0.07-0.23-.09-0.22-0.17-1.3.29a0.91,0.91,0,0,1-.43.34c0.4-.18.64-0.22,0.65-0.12-0.38.2-.22,0-0.3,0.08l0,0a0.82,0.82,0,0,1-.36.12c-0.54.37-.31,0.54,0.46,0.19a1.59,1.59,0,0,1-1,.38,1.24,1.24,0,0,0,.22.72,4.14,4.14,0,0,0,.48.47,6.59,6.59,0,0,1,.64-0.77l-0.12.25a5.34,5.34,0,0,0,.41-0.7c-0.15.59,0.66-.79,0.8-1.08l-0.16.36a0.44,0.44,0,0,0,.18-0.24,4.6,4.6,0,0,1-.41,1l0.09-.14a7.43,7.43,0,0,1-.57,1.17c0.4-.53.21,0.33,0.55-0.08a1.12,1.12,0,0,1-.5.71c0.08,0.07.31-.19,0.22,0.2l0.14-.53a2,2,0,0,1-.16.84,1,1,0,0,0,.38-0.9A4.23,4.23,0,0,1,371.55,499.08Z"/><path class="cls-10" d="M373.67,498.59c-0.05,0-.05,0,0,0.08A0.07,0.07,0,0,0,373.67,498.59Z"/><path class="cls-10" d="M373.95,499.73l0.11,0.17A0.67,0.67,0,0,0,373.95,499.73Z"/><path class="cls-10" d="M374.34,500.39a2.85,2.85,0,0,1-.29-0.49A0.6,0.6,0,0,0,374.34,500.39Z"/><path class="cls-10" d="M372.86,491.11a2.17,2.17,0,0,0-.36.28l0.21-.06Z"/><path class="cls-10" d="M372.59,491.69l-0.08.22,0.58-.46C373,491.36,372.68,491.75,372.59,491.69Z"/><path class="cls-10" d="M372.49,492.17l-0.15.11A0.57,0.57,0,0,0,372.49,492.17Z"/><path class="cls-10" d="M372.72,492l0.42-.34-0.38.17,0,0.11a3.07,3.07,0,0,0-.23.27l0.32-.23S372.67,492,372.72,492Z"/><path class="cls-10" d="M372.81,492l0.11-.12Z"/><path class="cls-10" d="M372.22,492.87a5.5,5.5,0,0,1,.56-0.44c0.09-.21-0.51.31-0.37,0.08a0.72,0.72,0,0,0,.41-0.49,2.8,2.8,0,0,0-.63.79l0.26-.21A0.89,0.89,0,0,1,372.22,492.87Z"/><path class="cls-10" d="M373.17,492.74l-0.44.24a3.23,3.23,0,0,1,.52-0.57,2.72,2.72,0,0,0-.39.2c0.18-.19.32-0.34,0-0.14a3.55,3.55,0,0,0-.31.62c-0.09.07-.09,0-0.08,0l-0.16.24A3.8,3.8,0,0,0,373.17,492.74Z"/><path class="cls-10" d="M373,493.09a1.48,1.48,0,0,0-.72.43l0.42-.11S372.54,493.36,373,493.09Z"/><path class="cls-10" d="M373,493.19c-0.19.18-.64,0.55-0.18,0.29C372.72,493.46,373.37,493.05,373,493.19Z"/><path class="cls-10" d="M372.93,493.93l0.2-.31c0.54-.38.22,0,0.49-0.16,0-.19-0.12,0-0.52.1a1.28,1.28,0,0,0-.48.15C373.19,493.58,371.82,494.46,372.93,493.93Z"/><polygon class="cls-10" points="373.33 493.3 373.09 493.44 373.31 493.38 373.33 493.3"/><path class="cls-10" d="M372.48,494.59c-0.65.45,0.47-.07,0.21,0.18l-0.19.07,0.11,0-0.16.08a5.46,5.46,0,0,1,1-.35c0.41-.31-0.54.22-0.09-0.09l0.66-.27a5.19,5.19,0,0,0-.74.27,0.56,0.56,0,0,1,.33-0.22,1.72,1.72,0,0,1-.78.23c0.33-.25.59-0.28,0.39-0.29-0.63.41,0-.15-0.38,0a2.42,2.42,0,0,1,.69-0.55,5.31,5.31,0,0,1-1.13.54l0.48-.14-0.56.39c0.31-.1.29,0,0.25,0.07h0Z"/><path class="cls-10" d="M374,494.24l0.12,0S374.06,494.21,374,494.24Z"/><polygon class="cls-10" points="373.64 493.61 373.78 493.57 373.93 493.44 373.64 493.61"/><path class="cls-10" d="M374.45,494.1a0.39,0.39,0,0,0-.2.09l0.3-.11Z"/><polygon class="cls-10" points="374.1 494.37 373.76 494.58 374.06 494.48 374.1 494.37"/><path class="cls-10" d="M374.41,496.38c0.22-.11-0.24,0-0.56.07A1.61,1.61,0,0,0,374.41,496.38Z"/><path class="cls-10" d="M375.06,497.8c0.31,0-.13-0.21-0.11-0.29C374.71,497.57,374.84,497.68,375.06,497.8Z"/><path class="cls-10" d="M376.26,499.15c-0.12-.1-0.17-0.17-0.26-0.13l-0.35-.23-0.36-.22C375,498.61,375.93,499,376.26,499.15Z"/><path class="cls-10" d="M375.67,500.27l-0.12-.35-0.08.06c-0.22-.24-0.33-0.37-0.51-0.58A2,2,0,0,0,375.67,500.27Z"/><path class="cls-10" d="M374.93,499.21a0.44,0.44,0,0,0,0,.07C375,499.32,375.13,499.38,374.93,499.21Z"/><path class="cls-10" d="M374.9,499.33L375,499.4a0.74,0.74,0,0,1,0-.13C374.86,499.24,374.81,499.22,374.9,499.33Z"/><path class="cls-10" d="M375.27,500.12s-0.15.3-.16,0.29l0.2,0C375,500.07,375.64,500.53,375.27,500.12Z"/><path class="cls-10" d="M373.79,500.7l-0.25-.43c-0.16,0,0,1-.34.33a1.09,1.09,0,0,0,.31.64C373.43,500.79,373.63,500.67,373.79,500.7Z"/><path class="cls-10" d="M373,500.25a1.34,1.34,0,0,0-.15-0.36c-0.06,0,0,.2,0,0.39C372.7,499.64,373,500.66,373,500.25Z"/><path class="cls-10" d="M372.34,500.46s0.09-.08,0-0.19a3.21,3.21,0,0,0,0,1C372.48,501.5,372.46,500.71,372.34,500.46Z"/><path class="cls-10" d="M371.79,497.09v0Z"/><polygon class="cls-10" points="371.33 500.34 371.35 500.44 371.47 499.8 371.33 500.34"/><path class="cls-10" d="M370.46,500.48l-0.27.34h0.19Z"/><path class="cls-10" d="M370.36,500.31l-0.14,0,0,0.17C370.2,500.59,370.31,500.3,370.36,500.31Z"/><path class="cls-10" d="M369.94,500.18s0,0,0,.1l0.25-.18Z"/><path class="cls-10" d="M371,497.38l0.19-.1,0,0h0l0.07,0.15h0s-0.06,0,0,0l-0.29.14a0.12,0.12,0,0,0-.07.05h0l-0.05-.11h0Z"/><path class="cls-11" d="M385.69,249.77l161.55,6.34a2.88,2.88,0,0,1,2.66,3.65l-31.16,111.8a2.88,2.88,0,0,1-3.68,2L484,363.2a2.88,2.88,0,0,1-1.21-.78L383.46,254.6A2.88,2.88,0,0,1,385.69,249.77Z"/><g class="cls-12"><path class="cls-13" d="M319.65,266.78C298,284.36,285.44,290.94,265.07,307a2.88,2.88,0,0,0,1.12,5.07C347.57,331.44,426,359.95,509,372.59c3.05,0.47,6.5,0,8.78-2.1,1.83-1.67,2.47-4.24,3-6.65,9-39,8.06-67.16,17.09-106.16h0c-61.78-3.7-61.21-7.14-123-10.84"/></g><path class="cls-10" d="M415.69,551l0.23,0.1Z"/><path class="cls-10" d="M416,549.12h0l-0.06,0Z"/><path class="cls-10" d="M415.9,549.14l-0.3.08A0.71,0.71,0,0,0,415.9,549.14Z"/><path class="cls-10" d="M417.51,552a2,2,0,0,0,.29.25Z"/><path class="cls-10" d="M418.84,552.12l0.16,0Z"/><path class="cls-10" d="M414.77,550.83l0-.11Z"/><path class="cls-10" d="M414.84,551.33s0,0,0,0v0.07C414.85,551.48,414.85,551.38,414.84,551.33Z"/><path class="cls-10" d="M415,551.71v0S415,551.74,415,551.71Z"/><path class="cls-10" d="M413.55,555.25l-0.08.3A2.91,2.91,0,0,0,413.55,555.25Z"/><path class="cls-10" d="M414.67,550.46l0.07,0.26Z"/><path class="cls-10" d="M415.55,551l0.13,0Z"/><path class="cls-10" d="M417.36,552.16h0S417.35,552.13,417.36,552.16Z"/><path class="cls-10" d="M415.45,548.23a0.47,0.47,0,0,0-.13,0C415.26,548.3,415.33,548.29,415.45,548.23Z"/><path class="cls-10" d="M415.21,551.37a8.07,8.07,0,0,1,.4.85c-0.06-.19-0.12-0.33.14,0.08a4.72,4.72,0,0,0,.24.69l-0.07-.3c0.23,0.31.46,0.88,0.48,0.8-0.47-.95.44,0.22,0.46,0l0,0.1,0.21,0.15,0.21,0.15,0,0-0.11-.16c0.36,0.38.73,0.56,0.78,0.36-0.35-.46.24-0.51-0.11-0.9,0.07,0.14,0,.2-0.12.15l-0.52-.5c0.08-.08.5,0.44,0.25,0.07-0.75-.63-0.1.12-0.24,0.11a3,3,0,0,1-.3-0.45c-0.12.1-.43-0.11,0.12,0.71a2.31,2.31,0,0,1-.45-0.56c0.28,0.51-.4-0.39-0.14.07a5.29,5.29,0,0,1-.46-0.91c0.57,0.48.17-.12,0.1-0.25,0.53,0.41.91,0.84,1.25,1s-0.18-.35-0.45-0.62a3,3,0,0,0,1.06.47l0.3,0.34c0.87,0.38-.25-0.31,0-0.29-0.23-.09-0.44-0.22-0.46-0.12a1,1,0,0,1-.41-0.35h0c-0.38-.26-0.81-0.51-0.57-0.46a1.1,1.1,0,0,0,.66.22l0.09,0.07a1.56,1.56,0,0,1-.11-0.26l0.13,0.05a3.26,3.26,0,0,1-.69-0.39,3,3,0,0,0,.87.3c0.39,0.14.39,0.28,0.22,0.31a1.13,1.13,0,0,1,.83.31c0.51,0.16-.17-0.22.09-0.2-0.16,0-.32-0.12-0.48-0.17,0.68,0.22.14-.25-0.35-0.36l0.35,0.22c-0.56-.17-0.89-0.38-1.21-0.43,0.9,0.17-.38-0.3.37-0.2l-0.47,0c0.28-.14-0.73-0.35-1-0.4,0.3,0,1.29,0,.94.11a7,7,0,0,1,1.49-.11c0.36-.2-0.93-0.06-1.25-0.09l0.19,0.08c-0.58,0-.53-0.11-0.42-0.2s0.26-.23-0.1-0.24a0.3,0.3,0,0,1,.29,0c0.57-.2-0.12,0-0.36,0a1.49,1.49,0,0,1,1-.39,1.63,1.63,0,0,0-.66.11l0.16-.06-0.82.08a5.35,5.35,0,0,1,1.23-.54c-0.19-.17-1.61.36-1.9,0.31a2.68,2.68,0,0,1,.81-0.21l-0.11-.1a11,11,0,0,0,1.34-.24,2.36,2.36,0,0,1-1,0l-0.08,0c-0.63.14-.25-0.14-0.4-0.18a1.09,1.09,0,0,1,.61,0c0.27-.19-0.11-0.33-0.92-0.11a1.49,1.49,0,0,1,.73-0.37c0.06-.23-1.15.36-1,0.12l0.6-.23c0.77-.53-0.89,0-0.2-0.48l-0.71.32c0.28-.17.39-0.3,0.66-0.45l0.28,0c0.56-.35-0.6.19-0.23-0.09-0.21.11-.66,0.4-0.89,0.51,0.56,0.13-.35.85,0.5,0.88a1.67,1.67,0,0,1,.32-0.14,0.5,0.5,0,0,1-.35.23h-0.06a2.36,2.36,0,0,1-.66.45c0.51-.13-0.16.23,0.7-0.08l-0.53.22c0.33-.08.75-0.22,0.92-0.23a1.28,1.28,0,0,1-.63.21,0.35,0.35,0,0,0-.13.37,0.82,0.82,0,0,0,.35.34l-0.43,0c-0.1,0,.11.12,0.18,0s0,0-.49.11a1.91,1.91,0,0,0,.83,0c-1.08.12-.48,0.09-0.32,0.18a1,1,0,0,1,.71.18c-0.73-.13-0.76-0.18-1.26-0.23,0.58,0.08.38,0.11,0.25,0.08s-0.13,0,.77.31l-0.22-.07a3,3,0,0,1-.39-0.12,3.65,3.65,0,0,1,.56.25,8.39,8.39,0,0,1-.79-0.34,10.24,10.24,0,0,1,1.15.79,4.62,4.62,0,0,1-.67-0.42c0.43,0.42-.14,0,0.1.3a2,2,0,0,1-.34-0.37c-0.43-.34-0.39-0.31-0.31-0.22s0.16,0.24,0,0l0.43,0.55a2.56,2.56,0,0,1-.51-0.61c-0.27-.32,0,0-0.07,0l-0.09-.16h0l0.42,0.88C415.16,551.38,415.05,551.16,415.21,551.37Z"/><path class="cls-10" d="M415.33,551.74l0,0.08h0Z"/><path class="cls-10" d="M418.53,552.71a1.46,1.46,0,0,0-.29-0.08A1,1,0,0,0,418.53,552.71Z"/><path class="cls-10" d="M414.34,553.13c-0.1,1.06.13-.16,0.17,0.13a4.33,4.33,0,0,0-.12,1.08c0.19-1.36.13,0.29,0.38,0,0,0.45-.1.52-0.12,1a2,2,0,0,0,.32-1.31,0.69,0.69,0,0,0,.48.06,13.91,13.91,0,0,0,.12,1.43,9.46,9.46,0,0,0-.15-3.12c0.31,0.78.36,0.86,0.61,1.59,0.45,0.43-.23-0.75.06-0.59l-0.15-.1a7.58,7.58,0,0,0-.59-1.49s-0.07.15-.07,0.15a2.09,2.09,0,0,1-.18-0.61c-0.28-.63-0.24-0.45-0.45-0.95a2.24,2.24,0,0,1,.17.47l-0.11-.29c-0.11-.31.14,0.46,0.1,0.44l-0.06-.2a6.32,6.32,0,0,1,.18.88v0a13.22,13.22,0,0,0,.32,2s-0.27-.18-0.27-0.19c-0.07-.8-0.21-2.05-0.2-2.15l-0.06-.34a4.88,4.88,0,0,0,.12,1.33c0.09,1,0,1-.1.87s-0.17-.38-0.26,0c0-.53.1-0.74,0.12-1.11,0-.06,0-0.08.06,0.37,0.11-.3-0.07-1.69,0-1.5a8.44,8.44,0,0,0,.1.93l-0.06-.73-0.09-.73a3.3,3.3,0,0,1,0,.45c0,0.51-.12.51-0.14,0.43a0.81,0.81,0,0,1,0-.29,0.49,0.49,0,0,1-.19.17,0.28,0.28,0,0,0-.09,0,0.16,0.16,0,0,1,0,.1c0,0.14-.17-0.12-0.15-0.08-0.29-.11-0.27-0.21-1.62.36a1.14,1.14,0,0,1-.54.43c0.5-.22.8-0.28,0.81-0.15-0.47.25-.28,0-0.38,0.1l0,0a1,1,0,0,1-.45.15c-0.33.24-.43,0.4-0.33,0.45a1.38,1.38,0,0,0,.91-0.21,2,2,0,0,1-1.19.47,1.55,1.55,0,0,0,.27.9,5.1,5.1,0,0,0,.6.59,8.26,8.26,0,0,1,.8-1l-0.15.31a6.7,6.7,0,0,0,.51-0.87c-0.18.73,0.83-1,1-1.35l-0.2.45a0.55,0.55,0,0,0,.23-0.3,5.76,5.76,0,0,1-.52,1.24l0.11-.17a9.26,9.26,0,0,1-.71,1.46c0.5-.66.26,0.41,0.69-0.09a1.4,1.4,0,0,1-.63.88c0.1,0.09.39-.24,0.28,0.25l0.18-.66c0.19,0-.16.61-0.2,1,0.27,0,.38-0.55.48-1.12A5.27,5.27,0,0,1,414.34,553.13Z"/><path class="cls-10" d="M417,552.52c-0.07,0-.06,0,0,0.1A0.08,0.08,0,0,0,417,552.52Z"/><path class="cls-10" d="M417.34,553.94l0.14,0.21A0.82,0.82,0,0,0,417.34,553.94Z"/><path class="cls-10" d="M417.83,554.76a3.54,3.54,0,0,1-.36-0.61A0.75,0.75,0,0,0,417.83,554.76Z"/><path class="cls-10" d="M416,543.18a2.7,2.7,0,0,0-.46.35l0.26-.08Z"/><path class="cls-10" d="M415.64,543.9l-0.1.27,0.72-.58C416.16,543.5,415.75,544,415.64,543.9Z"/><path class="cls-10" d="M415.51,544.51l-0.18.13A0.71,0.71,0,0,0,415.51,544.51Z"/><path class="cls-10" d="M415.8,544.25l0.53-.42-0.47.21-0.05.14a3.82,3.82,0,0,0-.29.33l0.39-.28C415.85,544.25,415.75,544.31,415.8,544.25Z"/><path class="cls-10" d="M415.92,544.32l0.14-.14Z"/><path class="cls-10" d="M415.18,545.38a6.88,6.88,0,0,1,.7-0.55c0.12-.26-0.64.39-0.46,0.1a0.9,0.9,0,0,0,.51-0.61,3.5,3.5,0,0,0-.79,1l0.32-.26A1.1,1.1,0,0,1,415.18,545.38Z"/><path class="cls-10" d="M416.36,545.21l-0.55.3a4.06,4.06,0,0,1,.65-0.72,3.39,3.39,0,0,0-.49.25c0.23-.24.4-0.42,0-0.18a4.42,4.42,0,0,0-.39.77c-0.11.08-.11,0-0.1,0l-0.2.3A4.74,4.74,0,0,0,416.36,545.21Z"/><path class="cls-10" d="M416.09,545.65a1.85,1.85,0,0,0-.9.54l0.52-.13S415.58,546,416.09,545.65Z"/><path class="cls-10" d="M416.17,545.78c-0.24.22-.79,0.68-0.22,0.37C415.81,546.11,416.62,545.61,416.17,545.78Z"/><path class="cls-10" d="M416.07,546.7l0.25-.39c0.68-.48.27-0.06,0.62-0.2,0.05-.24-0.15-0.05-0.65.12a1.6,1.6,0,0,0-.6.19C416.39,546.26,414.68,547.36,416.07,546.7Z"/><polygon class="cls-10" points="416.56 545.92 416.27 546.09 416.54 546.02 416.56 545.92"/><path class="cls-10" d="M415.5,547.53c-0.81.56,0.58-.09,0.27,0.22-0.06,0-.12.06-0.24,0.09l0.13,0-0.19.1a6.81,6.81,0,0,1,1.2-.44c0.51-.38-0.68.28-0.12-0.12l0.82-.34a6.45,6.45,0,0,0-.92.34,0.7,0.7,0,0,1,.41-0.28c-0.35.08-1.1,0.49-1,.29,0.41-.31.73-0.35,0.48-0.36-0.78.51,0.06-.19-0.48,0.06a3,3,0,0,1,.87-0.68,6.59,6.59,0,0,1-1.41.67l0.6-.18-0.7.48c0.39-.13.36,0,0.31,0.09Z"/><path class="cls-10" d="M417.38,547.09l0.16,0S417.48,547.06,417.38,547.09Z"/><polygon class="cls-10" points="416.95 546.3 417.12 546.25 417.31 546.1 416.95 546.3"/><path class="cls-10" d="M418,546.91a0.49,0.49,0,0,0-.25.12l0.37-.14Z"/><polygon class="cls-10" points="417.53 547.25 417.11 547.52 417.48 547.38 417.53 547.25"/><path class="cls-10" d="M417.91,549.75c0.27-.14-0.29,0-0.7.08A2,2,0,0,0,417.91,549.75Z"/><path class="cls-10" d="M418.72,551.53c0.39-.06-0.16-0.26-0.13-0.36C418.28,551.24,418.45,551.38,418.72,551.53Z"/><path class="cls-10" d="M420.22,553.22c-0.15-.12-0.21-0.21-0.32-0.16l-0.44-.29-0.44-.27C418.62,552.54,419.81,553,420.22,553.22Z"/><path class="cls-10" d="M419.49,554.62l-0.15-.44-0.1.08c-0.28-.31-0.41-0.46-0.63-0.72A2.46,2.46,0,0,0,419.49,554.62Z"/><path class="cls-10" d="M418.56,553.28a0.58,0.58,0,0,0,0,.09C418.68,553.43,418.81,553.51,418.56,553.28Z"/><path class="cls-10" d="M418.53,553.44l0.08,0.09a0.89,0.89,0,0,1,0-.16C418.48,553.33,418.41,553.3,418.53,553.44Z"/><path class="cls-10" d="M419,554.42s-0.19.37-.2,0.37l0.25,0C418.61,554.36,419.44,554.93,419,554.42Z"/><path class="cls-10" d="M417.14,555.15l-0.31-.53c-0.2,0,.06,1.29-0.42.41,0.23,0.33.07,0.73,0.39,0.79C416.69,555.26,416.94,555.11,417.14,555.15Z"/><path class="cls-10" d="M416.11,554.59a1.66,1.66,0,0,0-.19-0.45c-0.07-.05,0,0.24.06,0.48C415.78,553.83,416.21,555.1,416.11,554.59Z"/><path class="cls-10" d="M415.32,554.85c0.05,0,.11-0.1,0-0.24a4,4,0,0,0,0,1.19C415.51,556.15,415.48,555.16,415.32,554.85Z"/><path class="cls-10" d="M414.65,550.65h0v0Z"/><polygon class="cls-10" points="414.06 554.7 414.09 554.83 414.24 554.02 414.06 554.7"/><path class="cls-10" d="M413,554.87l-0.16.22-0.17.21h0.24Z"/><path class="cls-10" d="M412.85,554.66l-0.17,0,0,0.22C412.65,555,412.8,554.64,412.85,554.66Z"/><path class="cls-10" d="M412.33,554.5s0,0,0,.13l0.32-.22Z"/><path class="cls-10" d="M413.67,551l0.23-.12,0,0h0L414,551h0s-0.07,0,0-.06a3,3,0,0,0-.37.17,0.15,0.15,0,0,0-.08.07h0l-0.06-.14h0Z"/><polygon class="cls-10" points="391.71 274.68 391.82 274.78 391.63 274.42 391.71 274.68"/><path class="cls-10" d="M392.61,275.88l0-.18a7.94,7.94,0,0,0-.9-1.45,3.51,3.51,0,0,0,.41,1c0-.05-0.18-0.47-0.07-0.37,0.15,0.31.09,0.29,0.29,0.69s-0.11-.27,0-0.16Z"/><path class="cls-10" d="M392.13,274.79l0.26,0.52A3.13,3.13,0,0,0,392.13,274.79Z"/><path class="cls-10" d="M392.12,274.66a1.91,1.91,0,0,1,.23.45l-0.3-.71Z"/><path class="cls-10" d="M392.33,274.61v-0.08C392.26,274.43,392.29,274.52,392.33,274.61Z"/><path class="cls-10" d="M392.38,274.48c-0.13-.23-0.09-0.07-0.06.06l0,0a1.2,1.2,0,0,1,.23.59c0,0.13-.22-0.36-0.1,0l0.24,0.38A9.23,9.23,0,0,0,392.38,274.48Z"/><path class="cls-10" d="M392.33,274.61a0.05,0.05,0,0,1,0,0C392.37,274.73,392.35,274.68,392.33,274.61Z"/><polygon class="cls-10" points="392.2 274.6 392.23 274.71 392.34 274.92 392.2 274.6"/><path class="cls-10" d="M392.52,274.38c0.28,0.69-.15,0,0.07.5a2.08,2.08,0,0,1,.45.82l0-.24A7.71,7.71,0,0,0,392.52,274.38Z"/><path class="cls-10" d="M393.34,276.09a0.94,0.94,0,0,1,0-.12A0.74,0.74,0,0,0,393.34,276.09Z"/><path class="cls-10" d="M393.21,274.77l0,0.38,0.05,0.38a2.94,2.94,0,0,1-.14-0.54,1.46,1.46,0,0,0,0,.33c-0.25-.65.07-0.08-0.16-0.66,0,0-.09.09,0.1,0.65l-0.23-.42,0.3,0.7c0.1,0.2-.17-0.58,0-0.09a1.69,1.69,0,0,1,.14.45c0-.16.29,0.53,0.31,0.41S393.26,275.14,393.21,274.77Z"/><polygon class="cls-10" points="393.46 275.56 393.56 275.84 393.44 275.46 393.46 275.56"/><path class="cls-10" d="M393.34,274.57l0.05,0.48-0.12-.34,0.16,0.59c0.23,0.65,0-.23,0-0.36a4,4,0,0,1,.31,1s-0.08-.17-0.12-0.21c0.27,0.73.14,0,.14-0.17a0.43,0.43,0,0,0-.09-0.21v-0.23C393.51,274.59,393.43,274.46,393.34,274.57Z"/><path class="cls-10" d="M393.19,274.61c0-.06,0,0,0.07.08C393.2,274.52,393.15,274.39,393.19,274.61Z"/><path class="cls-10" d="M393.81,275.52s0,0,0,0S393.81,275.58,393.81,275.52Z"/><path class="cls-10" d="M393.57,274.74l0.07,0.05-0.1-.31A0.66,0.66,0,0,0,393.57,274.74Z"/><path class="cls-10" d="M395.68,275.63c0-.28,0-0.42,0-0.37a1.69,1.69,0,0,1,.14-0.51,4.52,4.52,0,0,1,.07-0.8,1.93,1.93,0,0,1-.21.34,3.89,3.89,0,0,0,0-.4c-0.12.23-.28,0.57-0.36,0.24-0.08-.14-0.15,0-0.24.2-0.32-.18-0.6.2-1-0.09l0.06,0.73a2.15,2.15,0,0,1-.14-0.46c0,0.09,0,0,.06,0-0.17-.62-0.17.08-0.29-0.14a8,8,0,0,1,.17.86c-0.15-.79-0.08,0-0.3-0.87-0.13-.2.15,0.69,0,0.58a3.66,3.66,0,0,0,.21.56,0.81,0.81,0,0,0,0,.35c0.14,0.2.15-.8,0.33-1.1l0,0.45c0-.33.23-0.38,0.35,0.36a1.76,1.76,0,0,0,.08-0.74,0.55,0.55,0,0,0,.08.27v-0.31c0.05,0,.06.48,0.11,0.45a4.35,4.35,0,0,1,0-.89c0.08,0.46.16,0.86,0.21,1.24,0-.13,0-0.29,0-0.47a0.63,0.63,0,0,0,0-.39,3.55,3.55,0,0,1,0,.79c0.06,0.17.13-.85,0.17-0.51v-0.43a1.19,1.19,0,0,0,.21.24,1.74,1.74,0,0,1-.15.75,2.23,2.23,0,0,1,0,.35c0.05-.3.14-0.7,0.21-1C395.56,275.62,395.66,275.59,395.68,275.63Z"/><path class="cls-10" d="M395.45,275.92l0,0.23s0-.07,0,0v-0.19Z"/><path class="cls-10" d="M395.68,275.63v0.07A0.1,0.1,0,0,0,395.68,275.63Z"/><path class="cls-10" d="M395.31,274.11v0.06Z"/><path class="cls-10" d="M395.2,276c0-.15,0-0.31,0-0.46A1.69,1.69,0,0,0,395.2,276Z"/><path class="cls-10" d="M394.76,275.58c0,0.08,0,.2,0,0.34A0.5,0.5,0,0,0,394.76,275.58Z"/><polygon class="cls-10" points="395.52 276.04 395.59 275.9 395.62 275.79 395.52 276.04"/><path class="cls-10" d="M397.17,274.08c0.07-.51-0.11-0.23-0.16-0.35-0.21.22-.29,1.08-0.42,1.11l0.26-1c-0.14,0-.31-0.23-0.58.67a1.46,1.46,0,0,1,.08-0.43,6.71,6.71,0,0,1-.34,1.11,7.12,7.12,0,0,0,.18-1.26l0-.07a1.82,1.82,0,0,1-.28.33,2.45,2.45,0,0,1-.11.71,4.13,4.13,0,0,1-.06.63,2.6,2.6,0,0,0,.18-0.45c0,0.35,0,.11-0.05.46l0.09-.32a3.4,3.4,0,0,0,0,.43,0.47,0.47,0,0,1,.15-0.37l0,0.12a0.73,0.73,0,0,0,.16-0.53l-0.06.58,0.06-.39c0.07,0.17-.09,1.1.11,0.65a1.33,1.33,0,0,1,.1-0.4c0-.28-0.12.28-0.17,0.32a8.65,8.65,0,0,0,.24-1.09,2,2,0,0,1-.06.95c0.05,0.08.2-.39,0.21-0.14l0,0.14c0.18-.63,0,0.3.21-0.34V275a0.47,0.47,0,0,1,.14-0.3,1.52,1.52,0,0,0-.06.23,2.24,2.24,0,0,1,.3-0.64,1.06,1.06,0,0,0-.25.38A1.81,1.81,0,0,1,397.17,274.08Z"/><path class="cls-10" d="M396,275.6l0.06-.22A1.31,1.31,0,0,0,396,275.6Z"/><path class="cls-10" d="M397.22,275c0,0.11-.18.37-0.24,0.57,0.18-.29.25-0.63,0.5-1.07-0.1.27,0.17-.16,0.2-0.16-0.16.24-.44,0.81-0.49,0.93,0.1-.15,0,0.14,0,0.16,0.15-.37.17-0.19,0.34-0.59s0.43-.53.3-0.28-0.15.18-.17,0.18c-0.29.44-.11,0.25-0.37,0.66,0.44-.59.68-0.45,1.37-1.37,0.11-.19-0.1,0-0.17,0a2.21,2.21,0,0,1-.52.65c0.08-.17-0.2.11,0.07-0.23l0.32-.32a0.65,0.65,0,0,0-.79-0.27l0.1,0.06a1.68,1.68,0,0,1-.27.41l-0.24.71c0-.06-0.05,0,0-0.21a6.41,6.41,0,0,0-.27.72c-0.07.12,0-.17-0.15,0.3s0.2-.47,0,0Z"/><polygon class="cls-10" points="396.92 275.31 397.06 274.95 396.97 275.12 396.92 275.31"/><path class="cls-10" d="M397.48,273.74c-0.05.16-.1,0.22-0.15,0.38S397.43,274,397.48,273.74Z"/><path class="cls-10" d="M397.28,275.42l0.12-.09,0.07-.13A2.48,2.48,0,0,1,397.28,275.42Z"/><path class="cls-10" d="M399.08,274.09c-0.19,0-.48.24-0.34-0.12-0.4.35-.6,0.72-1,1.07,0,0.1.56-.56,0.73-0.64-0.29.32,0.15,0,.14,0.07A4.57,4.57,0,0,1,399.08,274.09Z"/><path class="cls-10" d="M398,275.38s0.38-.18.2,0-0.38.23-.33,0.17a0.85,0.85,0,0,0-.26.23l0.3-.19c-0.09.12,0.56-.29,0.29,0a7.25,7.25,0,0,0,.66-0.31c-0.51.33-.53,0.31-1,0.59l1.45-.71c-0.67.45,0.27,0-.3,0.36,0,0-.21.06-0.14,0-0.87.36,0.21,0,.08,0.07l-0.78.28c0.14,0,.72-0.17.16,0l-0.42.12a2,2,0,0,1,.84,0l-0.54.14c0.77-.07.25-0.13,1.65-0.35-1.66.34,0.6-.06,0,0.13s-0.41,0-1.16.17c0.89-.14.28,0,0.56,0-0.85.12-.07,0.06-1,0.18l0.83-.07,0.86,0c-0.48.07-.38,0.08-0.23,0.09a3,3,0,0,1,.67-0.08,2.77,2.77,0,0,0,.7-0.1c-0.42-.09-0.81-0.21-0.63-0.42-0.86.18-.06-0.1-0.8,0.07l0.76-.22a2.78,2.78,0,0,0-.77.21,1.47,1.47,0,0,1,.63-0.25,1.89,1.89,0,0,0-.72.17l0.86-.32c-0.53-.14-1.33,0-1.18-0.46l-0.45.31c0.14-.27-1.22.67-0.31-0.13l-0.41.3c0.24-.18.64-0.56,0.95-0.77-0.18.1-.06-0.05-0.23,0l-0.13.2c-0.39.28-.21,0.08,0.05-0.2a8.94,8.94,0,0,0-1,1c0.91-.64-0.74.69-0.36,0.43A7.12,7.12,0,0,0,398,275.38Z"/><path class="cls-10" d="M399.09,274.36l-0.13.08Z"/><path class="cls-10" d="M399.67,276.14l0.07,0C400,276.16,399.8,276.15,399.67,276.14Z"/><polygon class="cls-10" points="398.66 274.47 398.66 274.47 398.66 274.47 398.66 274.47"/><polygon class="cls-10" points="397.63 275.37 397.64 275.39 397.82 275.21 397.63 275.37"/><path class="cls-10" d="M398.75,276.39h0Z"/><path class="cls-10" d="M398.75,276.79h0C398.69,276.77,398.7,276.77,398.75,276.79Z"/><path class="cls-10" d="M398.66,277.64l0.85,0.57-0.12-.08-0.18-.1a7.08,7.08,0,0,0,.91.66l-0.19-.15c-0.26-.26.47,0.25,0.72,0.33a4.33,4.33,0,0,1-.61-0.57,2.11,2.11,0,0,1,.45.25,3.18,3.18,0,0,0-.62-0.48c1,0.56,1,.46.79,0.32s-0.43-.32.32,0c-0.1-.1.2,0-0.15-0.25,0.51,0.26.14,0,.76,0.28-1.32-.57.91,0.17-0.82-0.51a2.61,2.61,0,0,0,.44.08,0.52,0.52,0,0,1,.2.09c0.44,0.12-.69-0.29.19,0,0.13,0,0,0-.2-0.1l-0.91-.31,0.35,0.08,0.35,0.1,0.9,0.26a4.16,4.16,0,0,1-.81-0.32,8.36,8.36,0,0,1-1-.27,8.79,8.79,0,0,0-1.27-.44,2.74,2.74,0,0,1,.83.24s-0.14,0,.58.16l1.41,0.48c0.08,0,.12,0,0.09-0.06a3.05,3.05,0,0,0-.53-0.27c0.11,0,.5.15,0.58,0.13,0.39,0-1.14-.4-0.73-0.38l0.53,0.12c-0.72-.19,0-0.16-0.39-0.33l-0.34,0-0.43-.07a2.57,2.57,0,0,0,.61.08A0.82,0.82,0,0,0,401,277c-0.37-.09-0.81-0.18-0.13-0.14-1.27-.15-2-0.28-2.16-0.31l1.17,0.1c-0.34,0,0,0,.53.11a9.87,9.87,0,0,1,1.16.19,2.9,2.9,0,0,0-.7-0.26l0.63,0.07a2,2,0,0,0-.64-0.12c-0.36,0-.79-0.08-0.34-0.09l0.52,0c-0.19-.15.44-0.38-0.66-0.46l-2.09.16c0.48,0,1.45,0,2,.07h-1l0.93,0,0.4,0h0.27c0.2,0,.05,0-0.09,0s-0.35,0-.05,0l-2.16-.07,0.57,0-0.81,0c1.4,0.1-.49,0,0.16.1h0.19a5,5,0,0,1,.79.09c-0.9-.06-0.77,0-1.16-0.06,0.53,0.06,1.73.21,1.76,0.26-1.28-.17-0.65,0-1.73-0.18a11.71,11.71,0,0,1,1.26.25c0.28,0.07.15,0.07-.55-0.06l-0.23-.05h0l-0.29-.06s0.95,0.19.3,0.08l-0.49-.11c-0.22,0,2.08.48,0.86,0.26,0.64,0.15.73,0.22,2.19,0.56-0.5-.1-1.67-0.39-1.44-0.3,1.26,0.35-.43-0.07.39,0.17-1.34-.4-0.37-0.11-1.64-0.47-0.49-.12,1.16.35,0.85,0.3l-1-.27a3.78,3.78,0,1,1,.36.13l0.86,0.25c-0.47-.12-0.27,0-1.21-0.31l1.51,0.5c-0.86-.25-0.93-0.26-0.64-0.15l0.66,0.25c0.25,0.1.67,0.25,0.8,0.32l-0.2,0-0.43-.14-0.49-.19c-0.11,0-1-.3.2,0.14,0.31,0.14-.84-0.29-1.06-0.36,0.77,0.31.4,0.21,0.17,0.15s-0.35-.09.78,0.4l0.32,0.08a0.35,0.35,0,0,0,.21,0c0.16,0.09.47,0.22,0.47,0.25a1.14,1.14,0,0,0-.46-0.06l-0.14-.07a3.51,3.51,0,0,0-.37-0.18l-0.72-.31c-0.79-.3-0.34-0.09,0,0.11S399.66,278.09,398.66,277.64Z"/><path class="cls-10" d="M399.54,277.5l-0.89-.29,0.72,0.25C399.27,277.42,399.28,277.41,399.54,277.5Z"/><path class="cls-10" d="M399.38,277.46l0.31,0.12s0,0-.13-0.06Z"/><path class="cls-10" d="M398.69,277.79c-0.06,0-.18-0.07-0.07,0S398.87,277.89,398.69,277.79Z"/><polygon class="cls-10" points="399 277.99 399.22 278.09 399.08 278.01 399 277.99"/><path class="cls-10" d="M397.76,278.93l0.15,0.46c-0.15-.22-0.13.09-0.3-0.31,0.22,0.55-.21.07,0.24,0.83,0.22-.35,1.08-0.09,1-0.81l0.17,0.29c-0.27-.58.87,0.48,0-0.58l0.51,0.52c0.27,0.11-.6-0.78.09-0.27l-0.24-.2s0.14,0.08.17,0.08l-0.12-.09c-0.16-.22-0.1-0.2.13-0.08s0,0.07.08,0.12c0.23,0.15-.12-0.19-0.07-0.2a1.6,1.6,0,0,1,.35.29c-0.12-.25.64,0.22-0.21-0.49a2.38,2.38,0,0,1-.4-0.29c-0.21-.1-0.25-0.09-0.16,0l0.24,0.3h0c0.82,0.7-.25-0.14,0,0.18-0.32-.29-0.27-0.3-0.45-0.45-1.13-.61.61,0.52-0.75-0.29l0,0c-0.14-.08.07,0.08,0.17,0.17s0.31,0.17.39,0.23,0.39,0.39.53,0.53c-0.39-.31.13,0.17-0.11,0a2.44,2.44,0,0,1-.41-0.45l0.16,0.22a0.6,0.6,0,0,1-.24-0.17l-0.19-.17-0.26-.17a3.58,3.58,0,0,1,.59.52c-0.46-.36-0.58-0.22-0.44.12a1.52,1.52,0,0,1-.19-0.31c-0.08-.07,0,0.11.21,0.36s-0.16.11-.42-0.11l0.22,0.26c0.25,0.46-.42-0.29-0.36,0h0a1.29,1.29,0,0,1,.21.63A5.28,5.28,0,0,0,397.76,278.93Z"/><path class="cls-10" d="M397.65,279.69l-0.15-.41a1.51,1.51,0,0,0,.23.71c0-.1.13,0.07,0-0.16C397.71,279.78,397.64,279.63,397.65,279.69Z"/><path class="cls-10" d="M396.7,280c0,0.11.06,0.27,0.09,0.4,0.21-.12.41-0.36,0.62-0.05a2.18,2.18,0,0,0-.09-0.7l0.22,0.41c-0.07-.28.28,0.13-0.08-0.53,0-.06.11,0.33,0,0.22l-0.1-.24-0.05.1-0.1-.3c-0.29-.4.29,0.91,0,0.67L397,279.4c-0.11,0-.09.21-0.29-0.15a0.4,0.4,0,0,0,.08.18,2.18,2.18,0,0,1,.18.46c0,0.52-.1-0.37-0.28-0.6,0,0.45-.15.89-0.34,0.39a0.92,0.92,0,0,1,.06.8,2.51,2.51,0,0,1-.09-0.59c0-.06-0.11-0.22-0.12-0.11a2.71,2.71,0,0,1,.14,1.1C396.63,281.21,396.52,280,396.7,280Z"/><path class="cls-10" d="M396.8,280.56a0.29,0.29,0,0,0,0-.15l-0.07,0Z"/><path class="cls-14" d="M365.61,180.58c-22.34,1.35-42.07,14.77-59,29.39-8.88,7.67-17.48,15.94-23.44,26.05-13,22-11.3,51.25,2.19,73s37.59,35.93,62.91,39.64,51.54-2.47,73.92-14.88c16.06-8.91,30.52-21.18,40.27-36.75S477,262.47,473.8,244.38c-2.23-12.74-8.21-24.55-15.36-35.32-6.82-10.29-14.87-19.91-24.8-27.24-24.76-18.25-60.8-19.54-86.79-3.09l3.53,7.48"/><path class="cls-8" d="M365.61,178.08c-21.24,1.57-39.6,12.7-55.75,25.89-16,13-31,28-36.06,48.66-9.7,39.86,15.47,77.78,52,92.52,39.79,16.05,87,3.36,118.8-23.88,15.92-13.65,28.08-32.14,31.58-53,3.67-21.94-3.53-42.27-15.58-60.44-12.79-19.28-29.88-35-52.8-40.66a81.82,81.82,0,0,0-62.21,9.44,2.57,2.57,0,0,0-.9,3.42l3.53,7.48c1.37,2.91,5.68.37,4.32-2.52L349,177.46l-0.9,3.42a76.33,76.33,0,0,1,52.45-10.15c19,3.15,34.82,13.29,47.09,27.91,13,15.46,24.21,35,24.61,55.67,0.4,20.26-8.37,39.65-21.89,54.44-26.39,28.87-70.3,45-108.87,36.11-36-8.3-65.71-38.53-64.71-76.91,0.6-23.17,13.45-40.4,30.29-55.1,16.59-14.48,35.88-28.09,58.52-29.76,3.19-.24,3.22-5.24,0-5h0Z"/><path class="cls-9" d="M368.11,237.44c-8.76,2.42-16,8.69-21.43,16-4.27,5.78-7.61,13.31-5,20,3,7.62,12,10.57,20,12.44s17,4.43,20.48,11.83c2,4.18,1.78,9.39,4.82,12.87,6.21-3.47,12.9-7.5,15.29-14.2,2.53-7.09-.58-14.94.16-22.43,0.62-6.27,3.93-12.27,3.16-18.53-0.73-5.9-5.1-10.87-10.29-13.78s-11.15-4.08-17-5.06c-3.39-.57-6.93-1.08-10.2,0s-6.15,4.15-5.76,7.56"/><path class="cls-8" d="M367.45,235c-14.94,4.53-38.88,27-25.59,43.62,5.77,7.2,15.53,8.49,23.83,10.86,5.07,1.44,10.79,3.52,13.64,8.29,2.64,4.42,2.27,9.82,5.45,14.06a2.57,2.57,0,0,0,3.42.9c9.32-5.25,17.47-11.47,17.54-23.09,0-6.93-1.68-13.2,0-20.11,1.39-5.59,3.35-11.16,1.74-16.94-3.12-11.14-14.78-15.8-25.07-17.8-8.22-1.6-22.64-2.91-22.65,9.32,0,3.22,5,3.22,5,0,0-10.65,22.3-3.7,27.64-1.13a20,20,0,0,1,9.13,8.15c2.56,4.74,1.39,9.64.07,14.55a41.3,41.3,0,0,0-1.84,11.74c0.09,4.09,1,8.13,1,12.22-0.13,9.75-7.33,14.41-15.06,18.77l3.42,0.9c-2.59-3.46-2.73-7.73-4.3-11.63a17.8,17.8,0,0,0-6-7.67c-6.42-4.82-14.47-5.65-21.9-8-4.16-1.31-8.55-3.16-11.28-6.7-3.83-5-2.29-11.28.46-16.38,4.72-8.77,13.13-16.2,22.68-19.1,3.07-.93,1.76-5.76-1.33-4.82h0Z"/><path class="cls-9" d="M356.88,261.26c-2.84,2.09-3.53,6.25-2.43,9.6s3.63,6,6.28,8.36a10,10,0,0,0,3.31,2.15c2.86,0.95,6-.68,8-3a12.71,12.71,0,0,0-7.29-20.62c-0.86-.17-2-0.06-2.25.79s1.73,0.69,1.11.07"/><path class="cls-8" d="M355.11,259.49c-7.28,6.61-2.28,16.2,3.85,21.5,6.6,5.71,14.89,2.24,17.61-5.74a15.34,15.34,0,0,0-9.3-19.35c-2.32-.83-6.44-1.32-7.21,2-0.59,2.56,2,4.25,4.24,3.52a2.58,2.58,0,0,0,1.75-3.08l-0.06-.37c-0.49-3.17-5.31-1.82-4.82,1.33l0.06,0.37,1.75-3.08,0.33,0,1.75,1.75-0.17-.46-0.64,2.43c0.56-.72,3.9,1.55,4.53,2.09a10.68,10.68,0,0,1,3,4.25c1.31,3.59.47,8.31-2.49,10.9-6.27,5.46-17.1-8.71-10.69-14.52,2.39-2.17-1.16-5.69-3.54-3.54h0Z"/><path class="cls-15" d="M385.61,252.8c-3.51-1.76-7.88,1.44-8.8,5.26s0.5,7.77,1.93,11.43c0.5,1.26,1.27,2.74,2.63,2.81a3.07,3.07,0,0,0,2.41-1.47,9.9,9.9,0,0,0-1.71-13.24l-2.23,2.61"/><path class="cls-8" d="M386.27,250.39c-4.6-1.74-9.42,1.19-11.32,5.47-2.15,4.83-.48,13,2.82,17,3.49,4.27,8.16.48,9.58-3.51a12.57,12.57,0,0,0-3.51-13.53,2.53,2.53,0,0,0-3.54,0l-2.23,2.61c-2.08,2.44,1.44,6,3.54,3.54l2.23-2.61H380.3a7.7,7.7,0,0,1,2.77,6,5.58,5.58,0,0,1-.64,2.81c-1.22,1.91-1.42.36-2-1.18-0.91-2.5-2-5.57-1.23-8.25s3.08-4.52,5.73-3.52c3,1.14,4.31-3.69,1.33-4.82h0Z"/><path class="cls-15" d="M376.14,287.09l3.44,9.77,0.73-7.92a12.38,12.38,0,0,1,3.62,4.37,14.32,14.32,0,0,0-.15-9"/><polygon class="cls-10" points="383.96 284.28 383.85 284.42 384.24 284.31 383.96 284.28"/><path class="cls-10" d="M382.68,285.15l0.21,0.09a4.51,4.51,0,0,0,1.56-.71,2.13,2.13,0,0,0-1.09.09c0.06,0,.52,0,0.41.11-0.34.07-.33,0-0.77,0.07s0.31,0,.2.19Z"/><path class="cls-10" d="M383.87,285c-0.2,0-.4.09-0.56,0.14A1.53,1.53,0,0,0,383.87,285Z"/><path class="cls-10" d="M384,285a1,1,0,0,1-.48.15l0.77-.11Z"/><path class="cls-10" d="M384.07,285.43l0.08,0C384.27,285.41,384.17,285.43,384.07,285.43Z"/><path class="cls-10" d="M384.21,285.61c0.25-.1.08-0.12-0.06-0.15l0,0c-0.2.11-.75,0.2-0.63,0.07-0.14-.06.38-0.19,0-0.17l-0.4.22A3.85,3.85,0,0,0,384.21,285.61Z"/><path class="cls-10" d="M384.07,285.43a0.08,0.08,0,0,1,0,0C383.94,285.44,384,285.44,384.07,285.43Z"/><polygon class="cls-10" points="384.08 285.22 383.96 285.2 383.74 285.27 384.08 285.22"/><path class="cls-10" d="M384.33,285.93c-0.73.14,0-.25-0.55-0.15a1.12,1.12,0,0,1-.86.4l0.26,0.08A3.94,3.94,0,0,0,384.33,285.93Z"/><path class="cls-10" d="M382.54,286.58h0.13A0.34,0.34,0,0,0,382.54,286.58Z"/><path class="cls-10" d="M383.92,287l-0.79-.2a1.47,1.47,0,0,1,.57,0,1.32,1.32,0,0,0-.35-0.23c0.68-.16.09,0.2,0.69,0,0-.08-0.09-0.21-0.68-0.16l0.44-.22-0.74.2c-0.21.09,0.61,0,.09,0.12a0.76,0.76,0,0,1-.47,0c0.17,0.05-.54.32-0.42,0.46A11.18,11.18,0,0,0,383.92,287Z"/><polygon class="cls-10" points="383.09 287.18 382.8 287.24 383.2 287.17 383.09 287.18"/><path class="cls-10" d="M384.12,287.4l-0.49-.11a3,3,0,0,1,.36-0.09c-0.17,0-.47,0-0.62.05-0.67.17,0.24,0.17,0.37,0.25a2.21,2.21,0,0,1-1,.17,0.51,0.51,0,0,0,.21-0.15,0.78,0.78,0,0,0-.32.15s0,0,0,0a3.74,3.74,0,0,1,.44,0,0.35,0.35,0,0,0,.22,0l0.23,0.06C384.1,287.71,384.24,287.62,384.12,287.4Z"/><path class="cls-10" d="M384.08,287.09c0.06,0.06,0,.09-0.08.11C384.18,287.15,384.31,287.11,384.08,287.09Z"/><path class="cls-10" d="M383.12,287.76s0,0,0,0S383.06,287.75,383.12,287.76Z"/><path class="cls-10" d="M383.94,287.73l-0.06.09,0.32,0A0.43,0.43,0,0,0,383.94,287.73Z"/><path class="cls-10" d="M382.78,289a1.46,1.46,0,0,0,.32.73,10.76,10.76,0,0,1,.41,1.22c0.22,0.42.38,1,.66,1.69,0.09,0-.33-1.13-0.21-1s0.26,0.61.33,0.73c0-.23-0.17-0.69-0.21-0.92s0-.36.13-0.16,0-.35-0.13-0.76a1.27,1.27,0,0,0,.1-0.78,1,1,0,0,1,.17-0.76l-0.38-.26-0.38-.24a2.49,2.49,0,0,1,.49.15c-0.09,0,0,0,0,.09,0.66,0.2-.07-0.35.17-0.39a6.68,6.68,0,0,1-.9-0.27c0.83,0.24,0-.1.93,0,0.22-.11-0.72-0.12-0.6-0.22-0.48-.06-0.23.07-0.59,0a0.84,0.84,0,0,0-.35-0.1c-0.12,0,.08.06,0.34,0.24a2.47,2.47,0,0,1,.73.73l-0.46-.33c0.34,0.31.33,0.66-.41,0,0.44,0.44-.24-0.16.74,0.95a1,1,0,0,0-.28-0.24l0.31,0.4c0,0.07-.49-0.56-0.46-0.46a11.89,11.89,0,0,1,.87,1.23,11.64,11.64,0,0,1-1.25-1.59c0.13,0.21.28,0.45,0.45,0.7a3.64,3.64,0,0,0,.37.68,12.1,12.1,0,0,1-.76-1.24,9,9,0,0,1,.46,1l0.4,0.73c0.07,0.33-.38-0.47-0.27-0.09-0.53-1.13-.43-1.08-0.66-1.58-0.11-.22-0.15-0.27-0.32-0.65,0.27,0.59.62,1.46,0.85,2.11A6.7,6.7,0,0,0,382.78,289Z"/><path class="cls-10" d="M382.54,288.25l-0.21-.45,0,0.09Z"/><path class="cls-10" d="M382.78,289l-0.06-.14Z"/><path class="cls-10" d="M384.26,291.27l0,0h0Z"/><path class="cls-10" d="M382.43,287.93c0.14,0.24.29,0.49,0.44,0.72Z"/><path class="cls-10" d="M382.92,288.41l-0.35-.39A4.05,4.05,0,0,0,382.92,288.41Z"/><polygon class="cls-10" points="382.44 288.05 382.56 288.35 382.65 288.59 382.44 288.05"/><path class="cls-10" d="M383.18,292.47l0.15,0.64c0.23,0.86.18,0.19,0.3,0.51a5.15,5.15,0,0,0-.12-0.74l-0.2-.9a7,7,0,0,1-.2-1l0.57,2.39a0.46,0.46,0,0,0,.17.11,3.55,3.55,0,0,0-.27-1.3c0.1,0.32.24,0.8,0.3,1.07,0.07,0.11-1.06-3.69-.76-2.88s0.35,1.25.48,1.61l0.21,0.58c0.08,0.22.19,0.56,0.26,0.81l0,0.17a5.51,5.51,0,0,0-.05-0.63,1.78,1.78,0,0,1-.06-0.51c-0.22-.61-0.57-1.51-0.58-1.66s-0.3-.8-0.52-1.41c0.23,0.74.07,0.34,0.34,1.22l-0.37-1.1,0.24,0.84c-0.07-.18-0.27-0.9-0.33-1a6.36,6.36,0,0,1,.26,1L383,290c0.09,0.32-.06-0.16.36,1.32l-0.43-1.48,0.28,1a12,12,0,0,0-.5-1.65l0.23,0.91c0.19,0.66-.14-0.62-0.16-0.72,0.26,0.94.48,1.92,0.67,2.55-0.33-1.17-.08-0.07-0.63-2.26-0.06-.18.15,0.8,0,0.24l-0.06-.29a3.58,3.58,0,0,1,.08.63l0.09,0.33a1.34,1.34,0,0,1,.08.56l-0.09-.45,0.06,0.32a5.83,5.83,0,0,1,.07.84c0,0.16,0,0,0-.1l0-.38v-0.15l0.2,1.14C383.21,292.51,383.22,292.6,383.18,292.47Z"/><path class="cls-10" d="M382.79,289.37L383,290Z"/><path class="cls-10" d="M382.52,290.19c-0.06-.22,0-0.64-0.11-1,0,0.46.14,1.13,0.15,1.84-0.07-.5-0.08.19-0.12,0.24,0-.33,0-0.58,0-0.92l0-.71c0,0.24-.06-0.26-0.08-0.31,0.07,0.65-.06.26,0,1,0,0.5-.13.84-0.15,0.33,0-.36,0-0.25.07-0.23,0-.68,0-0.45,0-1.08-0.11.9-.46,0.38-0.67,1.93,0,0.35.12,0.06,0.18,0.06a2.21,2.21,0,0,1,.18-1.06c0,0.29.16-.11,0.08,0.44,0,0-.16.51-0.17,0.5a3.67,3.67,0,0,0,1.13,1.65l-0.17-.31a6.85,6.85,0,0,1,0-1l-0.2-1.33a0.89,0.89,0,0,1,.09.41c0-.5-0.1-0.85-0.16-1.3,0-.19.09,0.35,0-0.5-0.18-1.11.08,0.83-.08-0.14Z"/><polygon class="cls-10" points="382.62 289.75 382.7 290.39 382.68 290.11 382.62 289.75"/><path class="cls-10" d="M383.11,293.29L383,292.15C382.85,291.74,382.94,292.38,383.11,293.29Z"/><path class="cls-10" d="M382.16,289.2l-0.07.11,0,0.22A2,2,0,0,1,382.16,289.2Z"/><path class="cls-10" d="M380.93,290.72c0.24,0.15.42-.19,0.51,0.51a15.17,15.17,0,0,0,.39-1.61c0-.18-0.27.75-0.42,0.83,0.12-.49-0.17,0-0.23-0.24A2.22,2.22,0,0,1,380.93,290.72Z"/><path class="cls-10" d="M381.3,288.83c-0.07-.06-0.35.13-0.28-0.07s0.28-.24.28-0.15c0.36-.49-0.14,0,0-0.38a0.7,0.7,0,0,1-.17.25c-0.1-.25-0.37.21-0.45-0.07l-0.1-.33-1,.8-0.08.06a1.17,1.17,0,0,0,.56.13,6.29,6.29,0,0,0-1,.21c0.24,0,.78,0,1.28,0-0.73.23,0.07,0.31-.47,0.46,0,0-.15-0.06-0.08-0.11-0.7,0,.11.17,0,0.27l-0.6-.07c0.09,0.11.47,0.31,0,.39l-0.3-.06a1.51,1.51,0,0,1,.4.8l-0.38.08c0.43,0.34.24-.27,1.11,0-1.11-.07.35,0.19-0.11,0.31s-0.21-.19-0.72-0.15c0.56,0.09.15,0.1,0.31,0.21a3.33,3.33,0,0,1-.69.07l1,0.4c-0.31,0-.27.12-0.2,0.19,0-.17.79,0.12,1.05,0a0.84,0.84,0,0,1-.06-1.1c-0.73-.11,0-0.22-0.56-0.33l0.67,0a0.91,0.91,0,0,0-.67-0.06c-0.09-.11.36-0.14,0.62-0.11,0.05-.16-0.2,0-0.59-0.15l0.82,0a2.63,2.63,0,0,1-.38-1.38l-0.41.18a0.71,0.71,0,0,1,.19.37l0.28-.42c0,0.19.27,0,.47,0s0.27-.11,0,0.42l0.28-.33c-0.16.19-.36,0.7-0.6,0.94a2.38,2.38,0,0,1,.26.06v-0.32c0.28-.33.21,0,0.08,0.37a4.52,4.52,0,0,0,.5-1.32c-0.29.36-.23,0.11-0.09-0.15s0.38-.55.18-0.47A1.14,1.14,0,0,0,381.3,288.83Z"/><path class="cls-10" d="M380.72,290.17l0.11-.08Z"/><path class="cls-10" d="M379.65,292.16a0.11,0.11,0,0,0,0,.08C379.8,292.27,379.72,292.22,379.65,292.16Z"/><polygon class="cls-10" points="381.18 290.21 381.18 290.2 381.18 290.2 381.18 290.21"/><polygon class="cls-10" points="381.78 289.06 381.75 289.02 381.66 289.25 381.78 289.06"/><path class="cls-10" d="M379,292.85l0.26,0Z"/><path class="cls-10" d="M378.6,294.89l0,0S378.58,294.87,378.6,294.89Z"/><path class="cls-10" d="M379.13,293.77a1.51,1.51,0,0,0-.85-0.14l0.25-.08a1.33,1.33,0,0,0-1,.2l0.23,0c0.43,0-.38.26-0.49,0.45,0.17,0.11,1.15-.14,1,0.08a0.58,0.58,0,0,1-.4.18,2.33,2.33,0,0,0,.85,0c-1.89.71,0.67,0.23-.47,0.85a0.78,0.78,0,0,0,.52.33c-0.5.08,0,.17-0.53,0.32,1.12-.34-0.33.64,1.07,0.17-0.31.36,0.1,0-.14,0.34a0.21,0.21,0,0,1-.21,0c-0.25.2,0.65-.06,0,0.25,0,0.24.39-.1,0.8-0.11a0.65,0.65,0,0,1-.41.36l0.5-.06,0.48,0a1,1,0,0,1-.7-0.33,0.39,0.39,0,0,1-.44,0c0.14-.25-0.44-0.25-0.61-0.51,0.78-.05,0,0.24.63,0.09a2.16,2.16,0,0,0,.86.43,0.72,0.72,0,0,0-.34-0.71,2.65,2.65,0,0,1,.44,0c0.36-.19-0.76-0.41-0.4-0.56l0.39,0.07c-0.52-.16.15-0.38-0.12-0.61a1.44,1.44,0,0,1-.47,0c1,0.1-.5-0.33.23-0.47a1.29,1.29,0,0,1-1-.4,2.78,2.78,0,0,1,.61,0c-0.39.17,0.68,0.26,1,.45-0.32-.16,0-0.35-0.4-0.51l0.49,0.09c0.09-.18-1.11-0.27-0.62-0.42l0.36,0.05c0-.4.68-0.79-0.11-1.18a12.16,12.16,0,0,0-1.26,0,10.29,10.29,0,0,0,1,.53l-0.57-.05a2.53,2.53,0,0,0,.92.19c0.28,0.14-.51,0-0.2.21-0.6-.07-0.66-0.15-1.16-0.2l0.28,0.14c-0.23-.06-0.21.05-0.44,0,0.71,0.28-.31.27,0,0.53l0.12-.11a0.43,0.43,0,0,1,.38.16,1,1,0,0,0-.63.16,2.24,2.24,0,0,1,.83.37,3.54,3.54,0,0,0-.9.17c0.63,0.09.2,0.28,0.56,0.33,0.12,0.08,0,.17-0.29.14l-0.1-.06,0,0.07-0.14,0c0,0.06.44,0.1,0.12,0.16a0.28,0.28,0,0,1-.22-0.1c-0.12.16,0.93,0.38,0.34,0.47a2.38,2.38,0,0,0,1,.27c-0.24,0-.77,0-0.69.11,0.56,0.13-.22.14,0.13,0.28-0.58-.2-0.16,0-0.72-0.19-0.24.08,0.5,0.29,0.38,0.45h-0.44c0.19,0.08.65,0.2,0.17,0.21l0.4,0a0.41,0.41,0,0,0-.17.16l1.68-.21a0.54,0.54,0,0,1,.27-0.33l-0.77.12c0.7-.45-0.07-0.46-0.78-0.37a0.41,0.41,0,0,1,.26-0.28l0.29,0c0-.11.36-0.37-0.26-0.22-0.22,0,.39-0.22.46-0.33-0.92.09,0.41-.82-0.9-0.43a0.82,0.82,0,0,0-.06.48,1.87,1.87,0,0,1-.46.09c-0.12-.14.33-0.39,0.06-0.47l0.83-.27C380.07,294,378,294.4,379.13,293.77Z"/><path class="cls-10" d="M379.84,295.83l0.37-.26-0.35.14C379.93,295.71,379.94,295.75,379.84,295.83Z"/><path class="cls-10" d="M379.86,295.7h-0.19s0,0,.1,0Z"/><path class="cls-10" d="M378.83,293.35s0.07-.11,0-0.13S378.69,293.37,378.83,293.35Z"/><polygon class="cls-10" points="378.53 293.31 378.42 293.41 378.52 293.38 378.53 293.31"/><path class="cls-10" d="M376.62,290.16h-0.56c0.24-.12-0.14-0.23.32-0.31-0.64.1-.14-0.35-1,0,0.49,0.44.25,1.38,1.24,1.74l-0.38,0c0.8,0.09-.59.71,0.86,0.5l-0.71.21c-0.14.22,1.1-.06,0.42,0.35l0.28-.12s-0.11.1-.1,0.15l0.12-.06c0.32,0,.31.09,0.15,0.27s-0.11,0-.18,0,0.29,0,.32.13a0.77,0.77,0,0,1-.42.14c0.4,0.15-.29.52,0.81,0.33a0.86,0.86,0,0,1,.45-0.13c0.26-.28-0.19-0.27-0.53-0.33v0c-1,.23.19-0.17-0.31-0.21a4.34,4.34,0,0,1,.68-0.05c0.69-.5-0.7-0.11.23-0.61h0c0.09-.07-0.12-0.06-0.23-0.08a1.23,1.23,0,0,0-.25.2,4,4,0,0,0-.76.16c0.43-.21-0.24,0-0.05-0.17a1.26,1.26,0,0,1,.64-0.1h-0.32a1.52,1.52,0,0,1,.62-0.39c-0.34,0-.2.13-0.67,0.21,0.47-.29.17-0.7-0.31-0.78a1,1,0,0,1,.42,0c0.08-.07-0.17-0.11-0.49,0-0.33-.05-0.2-0.32,0-0.56l-0.3.15c-0.58.07,0.29-.44-0.1-0.54h0c-0.09,0-.88.17-0.77,0A4.63,4.63,0,0,0,376.62,290.16Z"/><path class="cls-10" d="M375.63,289.68l0.46-.09a1.14,1.14,0,0,0-.81.11c0.11,0-.06.15,0.2,0.07C375.54,289.74,375.7,289.69,375.63,289.68Z"/><path class="cls-10" d="M375.06,288.29a3.08,3.08,0,0,0-.4.11c0.16,0.28.47,0.59,0.16,0.83a2.43,2.43,0,0,0,.77,0l-0.43.21c0.31,0-.1.35,0.6,0,0.06,0-.37.06-0.26,0l0.26-.08-0.14-.1,0.33-.07c0.38-.34-1,0.2-0.78-0.13l0.64-.22c0-.16-0.26-0.16.08-0.43,0,0-.32.11-0.18,0.09a1.4,1.4,0,0,1-.46.21c-0.58-.05.39-0.1,0.59-0.35-0.5,0-1-.28-0.53-0.57a0.72,0.72,0,0,1-.81.11,1.63,1.63,0,0,1,.59-0.15c0-.07.19-0.17,0.08-0.19a2,2,0,0,1-1.07.27C373.81,288.21,375,288,375.06,288.29Z"/><path class="cls-10" d="M374.5,288.4a0.24,0.24,0,0,0,.16,0l-0.05-.1Z"/><path class="cls-9" d="M345.09,260.69a62.43,62.43,0,0,1-20.4-3.49c1.21-4.29.93-9.24-1.82-12.74s-8.37-4.81-11.84-2c-2.6,2.1-3.38,5.84-2.76,9.12s2.4,6.2,4.2,9a4.4,4.4,0,0,1,.95,2.49,4,4,0,0,1-1.2,2.29c-2.27,2.58-5.13,4.67-7,7.58s-2.3,7.14.19,9.51,6.55,1.7,9.05-.47,3.69-5.48,4.49-8.7c0.85-3.46,1.87-7.6,5.23-8.76a9.19,9.19,0,0,1,3.51-.29,73.13,73.13,0,0,1,13,1.88"/><path class="cls-8" d="M345.09,258.19a65.53,65.53,0,0,1-19.73-3.4l1.75,3.08c1.22-5.11,1.13-11-2.47-15.17-3.14-3.68-8.64-5.41-13.17-3.37-4.68,2.11-6.4,7.45-5.69,12.25a22.12,22.12,0,0,0,2.79,7.42c1.17,2.11,2.35,3.28.89,5.69-0.82,1.36-2.58,2.47-3.67,3.64-3.12,3.35-5.71,8-4.08,12.73,1.47,4.24,5.93,6.09,10.14,5.06,5.12-1.26,7.78-6.09,9.2-10.77,0.72-2.39.94-6.16,3-7.86,3.18-2.59,12.59.3,16,1.06,3.13,0.7,4.47-4.12,1.33-4.82C335.11,262.3,324.3,259,319.6,265c-1.85,2.39-2.4,5.44-3.2,8.28-0.65,2.32-1.4,4.59-3.19,6.28-3.29,3.12-7.83,1.35-6.63-3.6,1.61-6.61,12.49-8.79,8-16.67-2.41-4.27-7.95-14,.31-15.77,7.27-1.54,8.47,8.22,7.33,13a2.56,2.56,0,0,0,1.75,3.08,70.13,70.13,0,0,0,21.06,3.58c3.22,0.06,3.22-4.94,0-5h0Z"/><path class="cls-9" d="M404.28,271.46l21.2,1.84c4.32,0.38,9.49.38,12-3.19,1.48-2.14,1.61-5.18,3.62-6.83,2.44-2,6.57-.45,7.76,2.47s-0.09,6.42-2.38,8.59-5.4,3.26-8.47,4a64.27,64.27,0,0,1,.49,20.87c-3.57.5-6.92-2-9-5s-3.4-6.4-5.64-9.23c-4.85-6.14-13.08-8.28-20.7-10"/><path class="cls-8" d="M404.28,274l17.35,1.51c4.28,0.37,8.87,1.09,13-.39,3.26-1.16,4.41-3.29,6.08-6,1.1-1.81.08-1.54,2.6-2.78q2.93-2.62,3.43,2.11L446,270.95c-1.68,3.07-5.52,4.17-8.66,5a2.56,2.56,0,0,0-1.75,3.08,67.62,67.62,0,0,1,.4,20.21l2.5-2.5c-5.5.13-7.66-5-10-9.07a25.87,25.87,0,0,0-6.2-7.65c-5.28-4.22-12-5.93-18.5-7.44-3.13-.73-4.47,4.09-1.33,4.82,8.39,2,16.7,4.2,21.32,12.12,3.45,5.91,6.89,12.4,14.69,12.22a2.58,2.58,0,0,0,2.5-2.5,72,72,0,0,0-.58-21.54l-1.75,3.08c5.79-1.5,12-4.52,13-11.06,0.76-4.93-2.62-9.81-7.9-9.77-7.37.06-5.94,9.44-12.21,10.86-3.64.83-8.13-.16-11.79-0.47L404.28,269c-3.21-.28-3.19,4.72,0,5h0Z"/><path class="cls-9" d="M377.62,233.41l2-26.83a4.82,4.82,0,0,0-.2-2.27c-0.82-1.91-3.45-1.93-5.54-2-4.48-.19-9.53-3.34-9.13-7.8a5.51,5.51,0,0,1,10.4-2c3.66-1.83,7.6-3.51,11.68-3.23s8.27,3.1,8.75,7.16c0.47,3.89-2.38,7.29-4.84,10.33a88.79,88.79,0,0,0-18.07,38.64"/><path class="cls-8" d="M380.12,233.41l1.13-15.33c0.3-4,1.69-9.39.8-13.32-0.62-2.72-2.24-4-4.9-4.68-1.66-.41-3.41-0.12-5.07-0.59a8.66,8.66,0,0,1-3.29-1.65q-3.82-3.16,4.21-4.09a2.58,2.58,0,0,0,3.42.9c3.29-1.6,7.34-3.55,11.11-2.8,4.29,0.86,6.69,4.76,4.58,8.78-2.55,4.84-6.85,8.94-9.77,13.61a92.77,92.77,0,0,0-12.08,30.47c-0.65,3.14,4.17,4.48,4.82,1.33a88.87,88.87,0,0,1,8.66-24.27,87.75,87.75,0,0,1,6.14-9.83c2.25-3.12,5.14-6,6.86-9.45,2.48-5,1.31-10.56-3.48-13.65-6.2-4-13.32-1.47-19.37,1.47l3.42,0.9c-6.58-9.45-20.21.24-13.09,9a12.32,12.32,0,0,0,5.32,3.65c2.9,1.07,6.73,0,7.49,3.62s-0.65,8.84-.92,12.46l-1,13.41c-0.24,3.21,4.76,3.19,5,0h0Z"/><path class="cls-9" d="M370.5,301.08a68.71,68.71,0,0,1-5.82,27.9L352.2,324a5,5,0,0,0-2.94-.51c-1.94.47-2.56,3-2.29,4.94a11.91,11.91,0,0,0,9.54,9.85c2.65,0.45,5.47,0,8,.92,2.31,0.86,4,2.78,6.13,4.08s5.12,1.82,6.81,0,1-4.47-.47-6.15-3.73-2.5-5.86-3.26q4.56-14.63,8.53-29.43l0,1.61"/><path class="cls-8" d="M368,301.08a69.14,69.14,0,0,1-5.47,26.64l2.82-1.15c-5.22-2.07-18.78-10.64-20.74-.62-1.37,7,5.09,13.63,11.58,14.81,2.77,0.5,5.77,0,8.38,1.26,2,1,3.43,2.72,5.36,3.73,2.75,1.44,6.25,1.83,8.77-.26,6.72-5.59-1.91-12.14-6.92-14l1.75,3.08q4.54-14.63,8.53-29.43l-4.91-.66,0,1.61c-0.06,3.22,4.94,3.22,5,0l0-1.61c0-2.82-4.18-3.39-4.91-.66q-4,14.79-8.53,29.43a2.56,2.56,0,0,0,1.75,3.08,19.39,19.39,0,0,1,3.16,1.35q1.94,5.94-1.72,3.46c-1.75-.65-3.16-2.53-4.8-3.45-2.86-1.6-5.81-1.35-9-1.71a9.7,9.7,0,0,1-6.62-3.35c-0.86-1-3.17-4.79-2-6,1.83-1.82,12.34,3.87,14.5,4.73a2.49,2.49,0,0,0,2.82-1.15A75.53,75.53,0,0,0,373,301.08c0-3.22-5-3.22-5,0h0Z"/><path class="cls-8" d="M283.67,289.17q-4.25,3.46-8.51,6.92a19.28,19.28,0,0,0-1.67,1.34H276l0.9,3.42c-0.85,1.3.25-.48,0.33-0.71,0.59-1.69-.93-3-2.41-3.16-1.2-.14-2.54,1.25-3.37,1.88-3,2.27-8.09,4.83-9.55,8.35-1.82,4.37,1.83,6.76,5.45,7.73,7.34,2,14.76,3.62,22.12,5.52,29.38,7.6,58.51,16.09,87.73,24.27s58.49,16,88.14,22.36c14.35,3.06,29.06,6.5,43.68,8,14.2,1.47,14.95-13,17-23.62,5.88-30.9,7.33-62.41,14.34-93.13a2.54,2.54,0,0,0-2.41-3.16c-8.85-.54-18-0.68-26.74-2.14a8.41,8.41,0,0,0-2-.4c-1,.2.1-0.45,0,0.19-0.16,1.74,1.42,2.16.51,0.33-1.14-2.32-3.28-2.56-5.67-2.92-9-1.35-18.26-1.66-27.36-2.21-3.21-.19-3.2,4.81,0,5,8.85,0.54,18,.68,26.74,2.14a8.41,8.41,0,0,0,2,.4c1-.2-0.1.45,0-0.19,0.16-1.74-1.42-2.16-.51-0.33,1.14,2.32,3.28,2.56,5.67,2.92,9,1.35,18.26,1.66,27.36,2.21L535.52,257c-5.44,23.83-7.62,48.05-11,72.21-0.8,5.79-1.69,11.57-2.72,17.32-1.11,6.19-1.61,13.77-4.19,19.53-3.22,7.18-13.37,3.28-19.24,2.28q-10.31-1.75-20.57-3.8c-52.08-10.37-102.92-25.9-154-40.06-14-3.88-28.07-7.67-42.19-11.22-3.61-.91-7.55-1.51-11.07-2.73l-1.85-.44q-3.12-.88-1.17-1.88c0.54-1.13,3-2.39,4.06-3.19s2.77-1.73,3.64-2.81,1.42,0-.39-0.26l-2.41-3.16c0,0.1,1.23-2.09.18-.49a2.53,2.53,0,0,0,.9,3.42h0a2.52,2.52,0,0,0,2.52,0c4-2.36,7.61-6.13,11.18-9,2.5-2-1.06-5.55-3.54-3.54h0Z"/><path class="cls-9" d="M271.12,322.66l235.09,56.48a2.88,2.88,0,0,1,2,3.84L437.88,564.45a2.88,2.88,0,0,1-3.14,1.8L299,544.42a2.88,2.88,0,0,1-2.4-2.46l-29-216.11A2.88,2.88,0,0,1,271.12,322.66Z"/><path class="cls-8" d="M515.4,369.83C495.35,424.35,472,477.62,450.52,531.57c-5.68,14.23-11.24,28.51-16.53,42.89-1.11,3,3.72,4.33,4.82,1.33C458.86,521.26,482.18,468,503.69,414c5.68-14.23,11.24-28.51,16.53-42.89,1.11-3-3.72-4.33-4.82-1.33h0Z"/><path class="cls-8" d="M272.93,312.27q9.11,80.5,19.94,160.8,2.71,20.11,5.53,40.21,1.38,9.8,2.78,19.6c0.59,4.15,0,11,4.09,13.4,3.53,2.06,9.71,2,13.69,2.69q8.89,1.49,17.79,2.9,17.41,2.78,34.84,5.42c13.07,2,26.15,4,39.22,6.08q9.34,1.48,18.67,3,4.65,0.78,9.3,1.58l3,0.53c1,0.18,4,1.28,3.24.39v-3.54c0.57-.73.14-0.48,0.9,0.22l0.39,3c-0.55.92,2.42-.81,2.92-1.15a13.5,13.5,0,0,0,3.47-3.41,10.79,10.79,0,0,0,1.74-9.09c-0.71-3.14-5.53-1.81-4.82,1.33,1,4.52-2.48,6.31-5.63,8.23a4.69,4.69,0,0,0-2,1.56,2.53,2.53,0,0,0,.39,3c1.4,1.29,4.9,1.41,6.17-.22a2.6,2.6,0,0,0,0-3.54c-1.88-2.21-7.36-2-10-2.46q-7.88-1.36-15.78-2.64Q406,557.52,389.26,555c-22.74-3.5-45.5-6.91-68.19-10.7l-7-1.19c-2-.34-5.29-0.22-6.66-1.74-1.13-1.26-1.16-8.06-1.41-9.8q-0.77-5.39-1.53-10.78-2.78-19.6-5.45-39.22-5.5-40.38-10.55-80.81-5.53-44.2-10.53-88.47c-0.36-3.16-5.36-3.2-5,0h0Z"/><path class="cls-8" d="M452.13,398.86l-26.9-7.92c-3.08-.91-7-2.83-9.9-0.41-3.06,2.59-2.11,8.05-2.44,11.6a148.53,148.53,0,0,1-3.35,20.05c-0.73,3.13,4.09,4.47,4.82,1.33,1.16-5,2.11-10,2.79-15q0.43-3.17.73-6.36c0.12-1.32-.21-7.13,1.07-7.83s7.71,2.27,8.95,2.63l22.9,6.74c3.09,0.91,4.41-3.91,1.33-4.82h0Z"/><path class="cls-8" d="M355.55,498.08c27.56,2,55.05-11.21,70.06-34.56a78.28,78.28,0,0,0,12.21-38.27c0.23-4.74,1.17-13.68-2.06-17.65-2.5-3.06-7.94-1.69-7.51,2.6,0.32,3.17,5.32,3.2,5,0q-1.71.66-1,2.17a16.34,16.34,0,0,1,.26,1.89c0.15,1.3.24,2.61,0.3,3.92a73.2,73.2,0,0,1,0,7.85A72.87,72.87,0,0,1,414,470.42c-14.86,16.06-36.74,24.21-58.45,22.66-3.21-.23-3.2,4.77,0,5h0Z"/><path class="cls-8" d="M285.93,447l20.26,6.65c6.22,2,12.74,5,19.18,6.24,3.68,0.7,5.89-.65,7.34-4,2.49-5.81,3.79-12.47,5.62-18.52,0.93-3.09-3.89-4.41-4.82-1.33l-4.21,14-1.05,3.49q-1.85,2.32-4.14.79c-2.37-.25-5.1-1.67-7.37-2.42l-29.47-9.67c-3.06-1-4.38,3.82-1.33,4.82h0Z"/><path class="cls-8" d="M390,386.37c-23.66-4.17-50.82-6.85-70.56,9.83C303.13,410,300.37,435,312.53,452.39c1.83,2.61,6.17.12,4.32-2.52-11.5-16.4-8.25-39.71,8.06-51.67,18.45-13.52,42.62-10.74,63.74-7,3.15,0.56,4.5-4.26,1.33-4.82h0Z"/></g></g></g></svg>