<?xml version="1.0" encoding="UTF-8"?>
<svg id="Layer_2" data-name="Layer 2" xmlns="http://www.w3.org/2000/svg" xmlns:xlink="http://www.w3.org/1999/xlink" viewBox="0 0 580 580">
  <defs>
    <style>.cls-1{fill:none;}.cls-2{clip-path:url(#clip-path);}.cls-3{fill:#fdea8b;}.cls-4{fill:#014e7f;}.cls-5{fill:url(#linear-gradient);}.cls-6{fill:#da1f47;}.cls-7{fill:url(#linear-gradient-2);}.cls-8{fill:url(#linear-gradient-3);}.cls-9{fill:url(#linear-gradient-4);}.cls-10{fill:url(#linear-gradient-5);}.cls-11{fill:url(#linear-gradient-6);}.cls-12{fill:#fff;}.cls-13{clip-path:url(#clip-path-2);}</style>
    <clipPath id="clip-path">
      <rect class="cls-1" x="3.95" width="580" height="580"/>
    </clipPath>
    <linearGradient id="linear-gradient" x1="-20.83" y1="48.1" x2="423.86" y2="506.69" gradientTransform="translate(126.81 -103.71) rotate(14.84)" gradientUnits="userSpaceOnUse">
      <stop offset="0" stop-color="#f68d3d"/>
      <stop offset="1" stop-color="#da1f47"/>
    </linearGradient>
    <linearGradient id="linear-gradient-2" x1="-92.5" y1="117.6" x2="352.19" y2="576.19" xlink:href="#linear-gradient"/>
    <linearGradient id="linear-gradient-3" x1="-143.69" y1="167.24" x2="301.01" y2="625.82" xlink:href="#linear-gradient"/>
    <linearGradient id="linear-gradient-4" x1="36.87" y1="-7.85" x2="481.56" y2="450.74" xlink:href="#linear-gradient"/>
    <linearGradient id="linear-gradient-5" x1="79.94" y1="-49.62" x2="524.64" y2="408.97" xlink:href="#linear-gradient"/>
    <linearGradient id="linear-gradient-6" x1="-44.73" y1="71.27" x2="399.97" y2="529.86" xlink:href="#linear-gradient"/>
    <clipPath id="clip-path-2">
      <rect class="cls-1" x="-0.58" y="2654.7" width="580" height="580"/>
    </clipPath>
  </defs>
  <title>iiLAB -U1-concepts-06-WEBSITE UNDER ATTACK</title>
  <g class="cls-2">
    <path class="cls-4" d="M171.63,607.62c112.6-31.43,229.09-58.6,346.79-48a490.19,490.19,0,0,1,97.18,18.56c3.09,0.93,4.41-3.9,1.33-4.82-113.28-34.08-233.72-22.13-347.32,3.81-33.34,7.61-66.38,16.41-99.31,25.6-3.09.86-1.78,5.69,1.33,4.82h0Z"/>
    <path class="cls-5" d="M200.88,10.76a265.4,265.4,0,0,1,34.45,43.68l-16.69,22.1c-5,6.58-10.22,14.22-8.79,22.34,2.23,12.68,17.84,16.78,30.14,20.6,28.52,8.86,52.65,30.38,65.62,57.29s14.85,58.76,6.13,87.33c-1,3.24-2.32,6.7-5.24,8.41-2.39,1.4-5.34,1.3-8.1,1.06-51.45-4.47-94-45.95-113.65-93.69-2.69-6.53-5.08-13.39-4.91-20.45s2.79-13.58,3.83-20.45,0-14.81-5.41-19.12c-11.67-9.23-28.9,6.21-43.14,1.89-5.59-1.7-9.8-6.24-13.61-10.67A384,384,0,0,1,94.89,76.3,240.12,240.12,0,0,1,171,57.54,115.19,115.19,0,0,1,198.51,2.16"/>
    <path class="cls-4" d="M199.37,12.28a270.89,270.89,0,0,1,34.11,43.25V53.36c-7.18,9.51-15.35,18.79-21.49,29-4.23,7-6.43,15.62-1.93,23.09,3.7,6.15,10.53,9.53,17,12,8.63,3.32,17.58,5.37,26,9.41,38.66,18.64,62.05,59,61.94,101.53a120.68,120.68,0,0,1-4.77,33.45c-0.88,3-1.82,7-4.75,8.78-2.53,1.53-6.44.86-9.2,0.56a104.41,104.41,0,0,1-14.36-2.6c-18.32-4.63-35.21-14-49.57-26.22a163.72,163.72,0,0,1-36-43.79c-5-8.7-9.65-18-12.52-27.62a36.85,36.85,0,0,1-.85-18.7c1-4.89,2.57-9.7,3.07-14.7,0.86-8.5-1.66-18.17-10.29-21.66-7.93-3.21-16.8.55-24.5,2.66-4.79,1.32-10,2.56-14.91,1.25-6.2-1.65-10.48-7-14.46-11.67a384.88,384.88,0,0,1-25.09-33L96,78.15a241.78,241.78,0,0,1,75-18.47,2.2,2.2,0,0,0,2.07-1.57A115.19,115.19,0,0,1,200,3.68c1.83-2.05-1.19-5.09-3-3A119.41,119.41,0,0,0,168.93,57L171,55.4A248.24,248.24,0,0,0,93.81,74.45,2.15,2.15,0,0,0,93,77.38Q103,91.94,114.12,105.6c6.08,7.42,12.72,17.08,22.89,18.76,8.35,1.38,16.48-2.24,24.42-4.22,3.89-1,8.14-1.78,12.05-.49,6.12,2,8.36,8.5,8.4,14.4,0.08,10.68-5.37,20.34-3.79,31.2,1.47,10.12,6.33,20,11,29a170.58,170.58,0,0,0,34.2,45.77c13.41,12.67,29.12,23,46.49,29.31a110.89,110.89,0,0,0,27.19,6.22c4.17,0.41,8.6.64,12-2.22s4.66-7.83,5.81-12c11.25-41,.83-86.69-29.62-116.85a112.72,112.72,0,0,0-25.93-19.25c-9.14-4.9-18.84-7.58-28.55-11-10.14-3.57-21.73-10-18.21-22.75,1.85-6.7,6.92-12.41,11-17.84l13.71-18.15a2.09,2.09,0,0,0,0-2.16A276.45,276.45,0,0,0,202.4,9.25c-1.92-2-4.95,1-3,3h0Z"/>
    <path class="cls-6" d="M310.87,198.3c-22.59,18.49-52.6,27.63-71.66,49.75-1.13,1.31-1.07,4.36.5,3.65"/>
    <path class="cls-4" d="M309.36,196.79c-14.8,11.94-32.21,19.82-48.11,30.09a114.8,114.8,0,0,0-20.4,16.22c-1.92,2-4.49,4.11-4.52,7.09,0,2.08,1.13,3.89,3.38,3.66,2.72-.28,2.74-4.56,0-4.28,2.84-.29,6.47-5.78,8.64-7.72a105.19,105.19,0,0,1,9.26-7.34c5.95-4.23,12.23-8,18.55-11.61,12.43-7.16,25-14,36.23-23.06,2.15-1.73-.9-4.75-3-3h0Z"/>
    <path class="cls-7" d="M218.42,283.17A157.6,157.6,0,0,1,232.64,313L220.08,323.6c-3.74,3.16-7.78,6.9-8,11.79-0.37,7.63,8.13,12.06,14.75,15.88,15.36,8.87,26.51,24.5,30.49,41.79a72.18,72.18,0,0,1-7.9,51.38c-1,1.75-2.22,3.58-4.14,4.18a8.09,8.09,0,0,1-4.83-.45C211.22,438.84,192,409.24,186.9,379c-0.7-4.14-1.19-8.42-.16-12.49s3.4-7.5,4.9-11.34,2-8.58-.63-11.79c-5.55-6.88-17.56-.19-25.24-4.56-3-1.72-4.86-4.9-6.48-8a228,228,0,0,1-10.85-23.63,142.59,142.59,0,0,1,46.54-.89,68.4,68.4,0,0,1,23.19-28.46"/>
    <path class="cls-4" d="M216.8,284.12A163.21,163.21,0,0,1,227,303.68a42.91,42.91,0,0,1,2.58,6.36c0.66,2.75.86,1.91-1,4-2.6,2.84-6.13,5.17-9.07,7.66-7.26,6.16-13.24,14.7-5.33,23.08,3.29,3.49,7.67,5.71,11.74,8.12a62.81,62.81,0,0,1,15.84,13.27A64.68,64.68,0,0,1,257,403.22a70.14,70.14,0,0,1-1.41,20,73.31,73.31,0,0,1-2.88,9.88c-1.24,3.35-3,9.16-5.68,11.74-5,4.79-15.39-2.07-19.76-4.75a72,72,0,0,1-14.87-12.24,91.6,91.6,0,0,1-18.81-31.12,103.49,103.49,0,0,1-4.31-15.35,41.4,41.4,0,0,1-1.16-11.29c0.42-5.17,3.38-9.23,5.18-13.93,1.68-4.38,2.39-9.68-.63-13.68s-8.12-4.39-12.77-4.19a71.9,71.9,0,0,1-8,.27c-5-.34-7.83-3.11-10.23-7.29a189.37,189.37,0,0,1-11.38-24.5L148.94,309a144.75,144.75,0,0,1,45.54-.89,1.94,1.94,0,0,0,2.12-.86,68.76,68.76,0,0,1,22.52-27.79c1.94-1.4.07-4.66-1.89-3.24a72.33,72.33,0,0,0-23.87,29.14l2.12-.86a150.62,150.62,0,0,0-47.54.89,1.88,1.88,0,0,0-1.31,2.31c2.57,6.49,5.37,12.88,8.49,19.12,2.5,5,5,11.17,10.27,13.87,4.06,2.07,8.74,1.6,13.13,1.36,2.63-.14,5.67-0.5,8.19.49,5.18,2,4.71,7.75,3.1,12-2.22,5.93-5.52,10.65-5.53,17.23,0,6.32,1.65,12.9,3.39,18.94a100.52,100.52,0,0,0,14.51,30.44,80.32,80.32,0,0,0,23.16,22.08,65.81,65.81,0,0,0,13.24,6.25c5.66,1.91,9.27,1,12.45-4.15,13.06-21.27,13.08-50.14.65-71.59-6.64-11.45-16.09-19.44-27.33-26.12-5.95-3.53-13.66-8.91-8.81-16.69,2.1-3.38,5.68-5.89,8.67-8.41l9.77-8.25a1.82,1.82,0,0,0,.48-1.82A168.79,168.79,0,0,0,220,282.23c-1.25-2.06-4.49-.18-3.24,1.89h0Z"/>
    <path class="cls-6" d="M257.53,406.22c-15.51,7.75-34.09,9.11-48,19.42-0.82.61-1.19,2.39-.19,2.18"/>
    <path class="cls-4" d="M256.58,404.6c-9.95,4.81-20.76,7.14-31.11,10.87a74.14,74.14,0,0,0-12.88,5.87c-2.26,1.35-6.09,3.08-5.66,6.31a2,2,0,0,0,1.38,1.81l0.51,0.17c2.3,0.76,3.28-2.86,1-3.62l-0.51-.17,1.38,1.81c-0.31-2.37,10.37-6.44,12-7.12,4-1.65,8.16-3,12.3-4.24,8-2.46,16-4.81,23.49-8.45,2.17-1.05.27-4.29-1.89-3.24h0Z"/>
    <path class="cls-8" d="M86.34,199.45a157.6,157.6,0,0,1,16.44,28.65L91.07,239.64c-3.49,3.43-7.24,7.47-7.11,12.36,0.21,7.64,9,11.41,15.91,14.72,16,7.68,28.29,22.42,33.57,39.35a72.18,72.18,0,0,1-4,51.83c-0.86,1.82-1.94,3.74-3.81,4.49a8.09,8.09,0,0,1-4.85-.08C91,355.22,69.6,327.16,62.18,297.4c-1-4.07-1.82-8.31-1.11-12.44s2.82-7.74,4-11.68,1.31-8.7-1.52-11.7c-6.05-6.44-17.52,1.14-25.51-2.64-3.14-1.48-5.21-4.51-7.07-7.45a228,228,0,0,1-12.61-22.74,142.59,142.59,0,0,1,46.34-4.41,68.4,68.4,0,0,1,21-30.14"/>
    <path class="cls-4" d="M84.73,200.4a166.29,166.29,0,0,1,16.44,28.65l0.29-2.27c-4.61,4.53-9.44,8.91-13.81,13.67-3.24,3.52-6.11,7.78-5.45,12.79,1.24,9.38,12.38,12.64,19.44,16.48,22.72,12.37,35.07,38,32.71,63.46a71.85,71.85,0,0,1-4.64,19.5c-1.72,4.41-2.85,7.81-8.39,7.83-3.16,0-7.5-2.19-10.33-3.42a73.84,73.84,0,0,1-25.61-19,95.89,95.89,0,0,1-17.95-30.17c-2.07-5.56-4.17-11.7-4.65-17.63-0.59-7.32,3.93-12.78,4.83-19.75,0.54-4.24-.37-8.75-4-11.43-3.84-2.86-8.8-2.18-13.23-1.59-3.25.43-6.83,1.15-10.05,0.22-4.26-1.23-6.51-5.27-8.7-8.79A234.12,234.12,0,0,1,20,227.81l-1.12,2.75a146,146,0,0,1,45.84-4.35,1.91,1.91,0,0,0,1.81-1.38A68.69,68.69,0,0,1,87,195.52c1.85-1.56-.82-4.2-2.65-2.65a72.39,72.39,0,0,0-21.45,31l1.81-1.38a149.38,149.38,0,0,0-46.84,4.48,1.9,1.9,0,0,0-1.12,2.75c3.26,6.69,6.78,13.23,10.65,19.58C30.15,253.76,33,259,38.15,261c4.54,1.74,9.4.63,14.05,0.07,2.72-.33,6.07-0.82,8.55.67,4.24,2.54,3.54,8,2.25,11.9-2.11,6.45-4.7,11.49-3.79,18.48a79.44,79.44,0,0,0,5.1,18.2,101.46,101.46,0,0,0,16.52,28.28,78.82,78.82,0,0,0,25.68,20.56,62.09,62.09,0,0,0,13.79,5c5.25,1.14,8.4-.55,10.78-5.27,11.25-22.32,9.48-50.85-4.64-71.44-7.5-10.94-17.44-18.2-29.18-24-6.13-3-14.4-7.83-10.25-15.92,1.82-3.54,5.18-6.32,8-9.07l9.12-9a1.94,1.94,0,0,0,.29-2.27A166.29,166.29,0,0,0,88,198.51c-1.39-1.95-4.64-.08-3.24,1.89h0Z"/>
    <path class="cls-6" d="M134.67,319.18c-14.88,8.9-33.3,11.67-46.42,23-0.77.67-1,2.47,0,2.19"/>
    <path class="cls-4" d="M133.73,317.56c-9.4,5.47-19.79,8.66-29.71,13a72.36,72.36,0,0,0-13.64,7.56c-2.34,1.7-5.16,3.37-4.48,6.61A1.85,1.85,0,0,0,87.22,346l0.52,0.13c2.34,0.58,3.34-3,1-3.62,2.58,0.64,4.75-2.11,6.77-3.37,1.76-1.1,3.59-2.11,5.44-3,4.08-2.07,8.33-3.77,12.58-5.44,7.54-3,15.09-5.82,22.1-9.91a1.88,1.88,0,0,0-1.89-3.24h0Z"/>
    <path class="cls-9" d="M412.23,283.84a120.33,120.33,0,0,1,13,21.6l-8.75,9c-2.61,2.68-5.4,5.82-5.22,9.56,0.29,5.83,7.08,8.56,12.39,11A50.15,50.15,0,0,1,450,364.43a55.11,55.11,0,0,1-2.17,39.63c-0.63,1.4-1.42,2.88-2.83,3.49a6.18,6.18,0,0,1-3.7,0c-22.89-4.91-39.68-26-45.84-48.56a23.24,23.24,0,0,1-1.05-9.48c0.47-3.11,2-6,2.88-9s0.85-6.66-1.36-8.91c-4.73-4.81-13.35,1.16-19.52-1.59-2.42-1.08-4.06-3.36-5.52-5.57a174.09,174.09,0,0,1-10-17.15,108.87,108.87,0,0,1,35.3-4.14,52.23,52.23,0,0,1,15.5-23.36"/>
    <path class="cls-4" d="M411.22,284.43a127.21,127.21,0,0,1,8.9,13.57c0.94,1.66,3.54,5.19,3.21,7.14-0.38,2.23-4.79,5.52-6.4,7.17-4.54,4.69-9.88,11.09-4.42,17.25,2.2,2.48,5.29,4,8.24,5.35a56.88,56.88,0,0,1,13.44,8.15A49.71,49.71,0,0,1,450,368.81a52.9,52.9,0,0,1,1.33,16.47c-0.4,5.46-1.43,13.49-4.56,18.2-5.64,8.5-23.19-4.42-28.3-8.87a70.34,70.34,0,0,1-16.34-21.36,76.92,76.92,0,0,1-5.2-13.16c-1.12-3.85-2.05-7.75-1.13-11.77,0.59-2.56,1.89-4.91,2.56-7.45,2.08-7.89-2.48-13-10.4-12.15-2.21.24-4.4,0.84-6.62,0.9-4.4.13-7.08-2.27-9.49-5.72a150.48,150.48,0,0,1-10-17.15l-0.7,1.73a113,113,0,0,1,35-4.1,1.2,1.2,0,0,0,1.13-.86,53.13,53.13,0,0,1,15.2-22.84c1.13-1-.53-2.66-1.66-1.66a56,56,0,0,0-9.53,10.86,52.38,52.38,0,0,0-3.51,6.16c-0.73,1.51-1.59,4.84-2.88,5.64-1.82,1.13-5.94.23-8.14,0.31q-4.69.18-9.36,0.77a116,116,0,0,0-16.86,3.45,1.19,1.19,0,0,0-.7,1.73c2.49,4.82,5.14,9.53,8,14.11,2.12,3.34,4.35,7.5,8.19,9.14,3.07,1.31,6.42.69,9.59,0.23,2.17-.31,4.71-1,6.89-0.34,5.44,1.54,4.17,7.58,2.82,11.4-1.49,4.18-2.68,7.64-2.08,12.13a58.11,58.11,0,0,0,4.28,14.26,76.9,76.9,0,0,0,13.19,21.35,59.58,59.58,0,0,0,20.48,15.32c4.44,1.95,12.65,6.07,16.45,1.16,5.3-6.85,6.41-19,6.12-27.35a52.78,52.78,0,0,0-8-26.36A50.88,50.88,0,0,0,425,334.27c-4.41-2.11-12.08-4.41-12.49-10.27-0.29-4.12,3.6-7.4,6.12-10s5-5.14,7.5-7.71a1.22,1.22,0,0,0,.18-1.42,129,129,0,0,0-13-21.6c-0.89-1.2-2.93,0-2,1.19h0Z"/>
    <path class="cls-6" d="M451.13,374.42c-11.21,7-25.22,9.46-35,18.34-0.58.52-.73,1.9,0,1.67"/>
    <path class="cls-4" d="M450.53,373.4c-7.09,4.3-14.93,6.93-22.41,10.41-3.65,1.7-13.48,5.51-13.66,10.4a1.15,1.15,0,0,0,.58,1l0.47,0.21c1.36,0.63,2.56-1.4,1.19-2,0.52,0.24,7.75-5.12,9.06-5.82,3.19-1.69,6.52-3.09,9.85-4.48a118.93,118.93,0,0,0,16.11-7.67,1.18,1.18,0,0,0-1.19-2h0Z"/>
    <path class="cls-10" d="M420.6,142.54A192.09,192.09,0,0,1,441.4,177l-14,14.36c-4.16,4.28-8.62,9.29-8.33,15.25,0.46,9.31,11.3,13.66,19.79,17.51,19.69,8.93,35.07,26.56,42,47.06s5.37,43.54-3.46,63.27c-1,2.24-2.27,4.61-4.52,5.57-1.84.79-4,.46-5.91,0-36.55-7.84-63.34-41.47-73.18-77.53-1.35-4.93-2.44-10.08-1.68-15.13s3.23-9.5,4.59-14.34,1.36-10.64-2.17-14.22c-7.55-7.68-21.32,1.86-31.15-2.53-3.86-1.72-6.47-5.36-8.81-8.89a277.92,277.92,0,0,1-16-27.37,173.8,173.8,0,0,1,56.35-6.62,83.37,83.37,0,0,1,24.74-37.29"/>
    <path class="cls-4" d="M419,143.48A200.66,200.66,0,0,1,439.78,178l0.29-2.27c-5.69,5.85-11.78,11.5-17.07,17.72-3.57,4.19-6.55,9.26-5.59,15,2,11.54,16.54,15,25.24,19.74,27.56,15,42.74,45.78,40.37,76.7a88,88,0,0,1-5.49,24.42c-2.18,5.75-4.45,10.28-11.48,8.71a71.84,71.84,0,0,1-9.53-2.89c-13-4.88-24.49-13.27-33.88-23.44a117.59,117.59,0,0,1-22.18-35.21c-2.81-6.87-5.45-14.27-6.43-21.65-1.19-9,3.79-15.65,5.09-24.17,0.84-5.55-.39-11.73-5.5-14.86-4.9-3-10.95-1.71-16.27-.9-3.59.55-7.54,1.34-11.15,0.44-5.28-1.33-8.25-6.09-11.05-10.36a285.09,285.09,0,0,1-15-25.81l-1.12,2.75a177.23,177.23,0,0,1,55.85-6.55,1.91,1.91,0,0,0,1.81-1.38A83.61,83.61,0,0,1,421,137.47c1.82-1.6-.85-4.24-2.65-2.65a87.33,87.33,0,0,0-25.23,38.12l1.81-1.38a180.58,180.58,0,0,0-56.84,6.68A1.9,1.9,0,0,0,337,181c4.12,8,8.58,15.86,13.43,23.46,3.47,5.43,7.12,11.95,13.63,14.1,6,2,12.34,0,18.35-.71,3.06-.36,6.63-0.62,9.36,1.12,4.31,2.76,4.4,8.46,3.32,12.91-2,8.13-5.87,14.44-4.78,23.12,0.9,7.17,3.39,14.34,6,21a124.17,124.17,0,0,0,20.36,34.43,96.68,96.68,0,0,0,31.92,25.23A73.38,73.38,0,0,0,467.2,342c6.81,1.19,9.93-2.22,12.49-8.17,12.06-28,9.24-61.59-9.11-86.2a82.64,82.64,0,0,0-15.95-16.2c-6.46-5-13.53-8.15-20.79-11.68-7.48-3.64-16.32-9.68-11.37-19.16,2.25-4.31,6.12-7.72,9.47-11.17l10.8-11.1a1.94,1.94,0,0,0,.29-2.27,200.66,200.66,0,0,0-20.8-34.48c-1.43-1.91-4.69,0-3.24,1.89h0Z"/>
    <path class="cls-6" d="M482.69,287.13c-17.89,11.25-40.27,15.11-55.95,29.27-0.93.84-1.16,3,0,2.67"/>
    <path class="cls-4" d="M481.74,285.51c-10.91,6.7-23,10.81-34.63,16.09a93.7,93.7,0,0,0-16.42,9.23c-2.84,2.07-7.32,4.5-6.36,8.6a1.85,1.85,0,0,0,1.31,1.31l0.64,0.14c2.35,0.53,3.35-3.09,1-3.62,2.17,0.49,6.24-3.89,7.89-5,2.18-1.44,4.45-2.75,6.75-4,4.76-2.53,9.71-4.67,14.68-6.75,9.22-3.86,18.5-7.55,27-12.8,2.05-1.26.17-4.51-1.89-3.24h0Z"/>
    <path class="cls-11" d="M336.27,363.3a157.6,157.6,0,0,1,17.4,28.08l-11.33,11.92c-3.37,3.55-7,7.71-6.68,12.6,0.46,7.63,9.4,11.1,16.4,14.17,16.24,7.14,29,21.46,34.88,38.2a72.18,72.18,0,0,1-2.23,51.94c-0.8,1.84-1.82,3.8-3.65,4.61a8.09,8.09,0,0,1-4.85.09c-30.06-6.08-52.36-33.41-60.78-62.9-1.15-4-2.1-8.24-1.53-12.4s2.56-7.83,3.63-11.81,1-8.74-1.91-11.65c-6.27-6.23-17.47,1.73-25.58-1.78-3.19-1.38-5.36-4.34-7.32-7.21a228,228,0,0,1-13.37-22.3,142.59,142.59,0,0,1,46.16-6,68.4,68.4,0,0,1,19.94-30.83"/>
    <path class="cls-4" d="M334.65,364.25A165.81,165.81,0,0,1,352,392.33l0.29-2.27c-4.45,4.68-9.13,9.23-13.35,14.12-3.13,3.62-5.87,8-5.06,13,1.53,9.37,12.72,12.23,19.93,15.85,23.14,11.6,36.35,36.75,34.88,62.29a71.81,71.81,0,0,1-4,19.64c-1.55,4.41-2.61,7.94-8.08,8.18-2.91.13-6.88-1.73-9.58-2.73A73.1,73.1,0,0,1,340,502a96.27,96.27,0,0,1-19-29.53A75.12,75.12,0,0,1,316,456.25c-1.3-8,3.22-13.62,4-21.19,0.41-4.23-.63-8.76-4.3-11.32-3.93-2.75-8.85-1.92-13.28-1.19-3.17.52-6.46,1.31-9.67,0.64-4.55-.95-7-4.9-9.4-8.5A234.12,234.12,0,0,1,271,393.93l-1.12,2.75a146,146,0,0,1,45.66-5.9,1.91,1.91,0,0,0,1.81-1.38,68.64,68.64,0,0,1,19.46-30c1.79-1.62-.87-4.27-2.65-2.65a72.45,72.45,0,0,0-20.42,31.66L315.5,387a149.39,149.39,0,0,0-46.66,6,1.9,1.9,0,0,0-1.12,2.75c3.48,6.57,7.22,13,11.31,19.21,2.86,4.36,5.87,9.57,11.09,11.37,4.32,1.49,8.86.47,13.23-.23,2.91-.47,6.62-1.31,9.4.19,4.35,2.36,3.88,7.79,2.72,11.79-1.74,6-4.17,10.93-3.38,17.31,0.82,6.62,3.29,13.19,5.89,19.3A100.82,100.82,0,0,0,335.4,502.5a78.93,78.93,0,0,0,26.35,19.7,62.88,62.88,0,0,0,13.95,4.52c5.26,1,8.41-.75,10.62-5.56,10.44-22.74,7.86-51.08-7-71.24-7.87-10.69-18-17.62-30-23.05-6.2-2.82-14.71-7.33-10.86-15.54,1.7-3.62,4.94-6.49,7.66-9.34l8.81-9.27a1.94,1.94,0,0,0,.29-2.27,165.81,165.81,0,0,0-17.4-28.08c-1.45-1.89-4.71,0-3.24,1.89h0Z"/>
    <path class="cls-6" d="M388.6,481.33c-14.57,9.4-32.89,12.78-45.62,24.56-0.75.7-.92,2.5,0.05,2.19"/>
    <path class="cls-4" d="M387.65,479.71c-9.21,5.79-19.49,9.32-29.25,14a74.45,74.45,0,0,0-13,7.68c-2.34,1.78-5.57,3.72-4.75,7.06a1.85,1.85,0,0,0,1.31,1.31l0.52,0.11c2.35,0.5,3.36-3.12,1-3.62,2.51,0.53,4.66-2.31,6.53-3.58,1.72-1.17,3.51-2.23,5.33-3.23,3.68-2,7.52-3.75,11.37-5.43,7.76-3.38,15.58-6.55,22.77-11.07,2-1.28.16-4.53-1.89-3.24h0Z"/>
    <path class="cls-12" d="M350.33,67.44l86.76-8.5c2.66-.26,5.4-0.55,7.74-1.83,5.52-3,6.84-10.81,4.58-16.69s-7.13-10.29-11.84-14.47c-2-1.8-4.55-3.73-7.17-3a8,8,0,0,0-3.63,2.72A111.36,111.36,0,0,0,417.22,38C408.37,33.34,397,28.78,389,34.84c-1.74,1.32-3.16,3.08-5.09,4.13-7.68,4.19-16.48-5.14-25.17-4.18-6.4.7-11,7.09-11.78,13.47S348.24,61,350.31,67.1"/>
    <path class="cls-12" d="M417.05,99.71a174.68,174.68,0,0,1,59.41-7.5c7.53,0.35,15.39,1.15,22.35-1.76,1.13-.47,2.35-1.21,2.53-2.42a3.68,3.68,0,0,0-1-2.57,27.48,27.48,0,0,0-45,.83c-1.15-3.08-2.35-6.24-4.6-8.64s-5.83-3.85-8.89-2.67-5.12,4.87-8.46,5.24c-1.62.18-3.21-.48-4.82-0.74-4.85-.77-9.65,2.32-12.38,6.4s-3.8,9-4.81,13.81"/>
    <path class="cls-12" d="M474.5,175.31A434.53,434.53,0,0,1,561.84,173a57.59,57.59,0,0,0-7.69-17.56c-1.43-2.18-3.4-4.47-6-4.46-2.89,0-5,2.83-7.73,3.66-4,1.21-7.85-1.93-11.46-4.06a26.17,26.17,0,0,0-16.16-3.42c-2.6.3-5.25,1-7.79,0.34-3.82-1-6.36-4.72-10.06-6.1-6.79-2.52-13.74,4-16.25,10.82s-2.78,14.51-6.77,20.55"/>
    <path class="cls-4" d="M344,66.27l53.24-5.21,27.61-2.7c6-.59,13.31-0.3,17.82-5,8.68-9.11,1.82-21.87-5.57-29.05-3.61-3.51-8.66-9.19-14.29-7.17-3.22,1.16-5.46,4.55-7.51,7.09C413,27,410.79,30,408.72,33.09l3.42-.9c-7.59-4-16.92-8.29-25.64-5.68-4.57,1.37-7.47,6.3-11.89,7.25S365,31.41,360.93,30c-7.44-2.59-14.85-1.25-19.46,5.59-5.89,8.74-3,19.34.1,28.52,1,3,5.86,1.73,4.82-1.33-2.78-8.22-6.34-19.17.76-26.29,6.4-6.42,14.5-.18,21.38,1.69a15.24,15.24,0,0,0,7.42.42c3.92-.92,6-4.1,9.24-6.09,7.56-4.58,17.55.43,24.44,4a2.57,2.57,0,0,0,3.42-.9c2.52-3.73,8.67-15.37,14.29-13.23,2.21,0.84,4.55,3.77,6.23,5.41a34.19,34.19,0,0,1,5.62,6.73c2.53,4.19,3.66,10,.69,14.34-3.6,5.24-13.33,4.32-19,4.88L344,61.27c-3.17.31-3.21,5.31,0,5h0Z"/>
    <path class="cls-4" d="M411.38,98.45a175.53,175.53,0,0,1,47.46-7.58c7.56-.14,15.12.76,22.67,0.5,4.49-.16,12.34-0.48,15.17-4.69s-2.25-8.78-5.06-11.21A30.71,30.71,0,0,0,476,68.3c-11.49-1.64-22.45,3.76-29.09,13.06l4.57,0.6c-1.93-5.11-4.29-10.75-9.82-12.82a9.73,9.73,0,0,0-7.34,0c-3,1.29-4.62,4.11-8,4.52-3.09.37-5.88-.85-9,0a16.35,16.35,0,0,0-6.77,4c-4.9,4.63-6.51,11.38-7.87,17.73-0.67,3.14,4.15,4.48,4.82,1.33,1-4.51,1.89-9.36,4.56-13.22a12.4,12.4,0,0,1,6.59-5c2.63-.71,5,0.51,7.64.53,3.06,0,5.08-1.61,7.37-3.43,6.71-5.34,10.8,1.93,13,7.69a2.54,2.54,0,0,0,4.57.6c6.07-8.5,16.94-12.89,27.14-10a25.77,25.77,0,0,1,7.16,3.23c1.33,0.87,5.59,3.51,5.86,5.23,0.82,5.27-12.83,4.1-16,4-22.3-.91-43.87.86-65.32,7.33-3.07.93-1.76,5.75,1.33,4.82h0Z"/>
    <path class="cls-4" d="M468.16,174.14a443.81,443.81,0,0,1,87.34-2.33,2.52,2.52,0,0,0,2.41-3.16c-1.91-7.17-7.19-25.35-17.37-23.69-2.5.41-4.05,2.25-6.32,3.16-3.88,1.57-7.17-1.6-10.35-3.39A29.46,29.46,0,0,0,506.46,141c-3.79.38-6.65,1.17-10-1-2-1.34-3.73-3.08-6-4.12a12.44,12.44,0,0,0-12.26,1.23c-10.77,7.07-8.75,20.84-14.78,30.77-1.67,2.76,2.65,5.27,4.32,2.52,5.14-8.48,3.93-20.4,11.23-27.52,2.57-2.51,6.07-4,9.56-2.42,2,0.91,3.55,2.65,5.38,3.85,3.5,2.29,6.79,2.43,10.85,1.94a26.61,26.61,0,0,1,17.94,3.67c3.47,2.09,7,4.43,11.27,3.61,5-1,7.52-6.46,11.67-.48a54.06,54.06,0,0,1,7.44,17l2.41-3.16a443.81,443.81,0,0,0-87.34,2.33c-3.15.4-3.19,5.4,0,5h0Z"/>
    <path class="cls-4" d="M85.33-74.61L129.75,7.07c1.54,2.83,5.86.31,4.32-2.52L89.65-77.14c-1.54-2.83-5.86-.31-4.32,2.52h0Z"/>
    <path class="cls-4" d="M46.51-44l24.43,28.7L82.51-1.66l6.43,7.55c1.15,1.35,7.06,6.75,6.67,8.34l1.75-1.75,1.19,0.39-0.39,3,0.42-.35C101,13.48,97.48,10,95,12l-0.42.35a2.54,2.54,0,0,0-.39,3c1.75,3.45,6.63,2.5,6.55-1.56-0.05-2.72-2.84-5.06-4.44-6.94L86.68-4.45,50-47.49C48-49.95,44.43-46.39,46.51-44h0Z"/>
    <path class="cls-4" d="M29.24-31.06A477.26,477.26,0,0,1,90.73,65.17c1.4,2.9,5.71.36,4.32-2.52A482.45,482.45,0,0,0,32.77-34.6c-2-2.49-5.57,1.07-3.54,3.54h0Z"/>
    <path class="cls-4" d="M58.38,151.1a422.69,422.69,0,0,0,25.23,47.49c1.68,2.74,6,.23,4.32-2.52A422.69,422.69,0,0,1,62.7,148.57c-1.32-2.93-5.63-.39-4.32,2.52h0Z"/>
    <path class="cls-4" d="M31.53,183.83a135.82,135.82,0,0,0,21.62,28.31c2.27,2.28,5.81-1.25,3.54-3.54a130.72,130.72,0,0,1-20.84-27.3c-1.6-2.79-5.92-.27-4.32,2.52h0Z"/>
    <path class="cls-4" d="M203.26,185.61a147.29,147.29,0,0,1,18,38.71c0.91,3.08,5.74,1.77,4.82-1.33a152,152,0,0,0-18.46-39.91c-1.75-2.68-6.08-.18-4.32,2.52h0Z"/>
    <path class="cls-4" d="M177.11,210.46l5.94,10.39c1.6,2.79,5.92.28,4.32-2.52l-5.94-10.39c-1.6-2.79-5.92-.28-4.32,2.52h0Z"/>
    <path class="cls-4" d="M179.49,227.68l13.36,8.9c2.68,1.79,5.19-2.54,2.52-4.32L182,223.37c-2.68-1.79-5.19,2.54-2.52,4.32h0Z"/>
    <path class="cls-4" d="M351.65,72.85Q372,99.54,390.23,127.76c1.74,2.69,6.07.19,4.32-2.52Q376.34,97,356,70.32c-1.93-2.52-6.27,0-4.32,2.52h0Z"/>
    <path class="cls-4" d="M308.6,96.6l36,47.22c1.92,2.53,6.27,0,4.32-2.52l-36-47.22c-1.92-2.53-6.27,0-4.32,2.52h0Z"/>
    <path class="cls-4" d="M341.85,240.14l25.23,40.07c1.71,2.72,6,.21,4.32-2.52l-25.23-40.07c-1.71-2.72-6-.21-4.32,2.52h0Z"/>
    <path class="cls-4" d="M325.45,266.91A228.88,228.88,0,0,0,352.66,300c2.27,2.28,5.81-1.25,3.54-3.54a221.91,221.91,0,0,1-26.44-32.06c-1.79-2.65-6.13-.15-4.32,2.52h0Z"/>
    <path class="cls-4" d="M291.45,324.71L295,364.09c0.29,3.18,5.29,3.21,5,0l-3.58-39.38c-0.29-3.18-5.29-3.21-5,0h0Z"/>
  </g>
</svg>
