<svg id="Layer_2" data-name="Layer 2" xmlns="http://www.w3.org/2000/svg" xmlns:xlink="http://www.w3.org/1999/xlink" viewBox="0 0 580 580"><defs><style>.cls-1,.cls-15,.cls-16{fill:none;}.cls-2{clip-path:url(#clip-path);}.cls-3{fill:#fdea8b;}.cls-4{fill:#fff;}.cls-5{fill:url(#linear-gradient);}.cls-6{fill:#014e7f;}.cls-7{fill:#da1f47;}.cls-8{fill:url(#linear-gradient-2);}.cls-9{fill:url(#linear-gradient-3);}.cls-10{fill:url(#linear-gradient-4);}.cls-11{fill:url(#linear-gradient-5);}.cls-12{fill:#29abe2;}.cls-12,.cls-13,.cls-14,.cls-15,.cls-16{stroke:#014e7f;}.cls-12,.cls-13,.cls-14,.cls-15{stroke-miterlimit:10;}.cls-12,.cls-13,.cls-14{stroke-width:2.76px;}.cls-13{fill:#ffec8d;}.cls-14{fill:#9acd72;}.cls-15,.cls-16{stroke-width:3.84px;}.cls-16{stroke-linecap:round;stroke-linejoin:round;}.cls-17{fill:#262261;}.cls-18{fill:url(#linear-gradient-6);}</style><clipPath id="clip-path"><rect class="cls-1" x="0.73" y="4.77" width="580" height="580"/></clipPath><linearGradient id="linear-gradient" x1="29.33" y1="-82.06" x2="474.02" y2="376.53" gradientUnits="userSpaceOnUse"><stop offset="0" stop-color="#f68d3d"/><stop offset="1" stop-color="#da1f47"/></linearGradient><linearGradient id="linear-gradient-2" x1="-42.35" y1="-12.56" x2="402.34" y2="446.03" xlink:href="#linear-gradient"/><linearGradient id="linear-gradient-3" x1="-93.53" y1="37.07" x2="351.16" y2="495.66" xlink:href="#linear-gradient"/><linearGradient id="linear-gradient-4" x1="87.03" y1="-138.01" x2="531.72" y2="320.58" xlink:href="#linear-gradient"/><linearGradient id="linear-gradient-5" x1="130.1" y1="-179.78" x2="574.79" y2="278.81" xlink:href="#linear-gradient"/><linearGradient id="linear-gradient-6" x1="5.43" y1="-58.89" x2="450.12" y2="399.7" xlink:href="#linear-gradient"/></defs><title>iiLAB -U1-concepts-06-WEBSITE UNDER ATTACK</title><g class="cls-2"><rect class="cls-3" x="-32.5" y="-25.03" width="645" height="645"/><path class="cls-4" d="M467.66,54.34l86.76-8.5c2.66-.26,5.4-0.55,7.74-1.83,5.52-3,6.84-10.81,4.58-16.69S559.61,17,554.9,12.84c-2-1.8-4.55-3.73-7.17-3a8,8,0,0,0-3.63,2.72,111.36,111.36,0,0,0-9.56,12.38c-8.85-4.69-20.21-9.24-28.18-3.18-1.74,1.32-3.16,3.08-5.09,4.13-7.68,4.19-16.48-5.14-25.17-4.18-6.4.7-11,7.09-11.78,13.47S465.57,47.9,467.64,54"/><path class="cls-4" d="M534.38,86.61a174.68,174.68,0,0,1,59.41-7.5c7.53,0.35,15.39,1.15,22.35-1.76,1.13-.47,2.35-1.21,2.53-2.42a3.68,3.68,0,0,0-1-2.57,27.48,27.48,0,0,0-45,.83c-1.15-3.08-2.35-6.24-4.6-8.64s-5.83-3.85-8.89-2.67-5.12,4.87-8.46,5.24c-1.62.18-3.21-.48-4.82-0.74-4.85-.77-9.65,2.32-12.38,6.4s-3.8,9-4.81,13.81"/><path class="cls-4" d="M-13.27,89.38a434.53,434.53,0,0,1,87.34-2.33,57.59,57.59,0,0,0-7.69-17.56C65,67.31,63,65,60.38,65c-2.89,0-5,2.83-7.73,3.66-4,1.21-7.85-1.93-11.46-4.06A26.17,26.17,0,0,0,25,61.21c-2.6.3-5.25,1-7.79,0.34-3.82-1-6.36-4.72-10.06-6.1-6.79-2.52-13.74,4-16.25,10.82s-2.78,14.51-6.77,20.55"/><path class="cls-5" d="M151.08-38.48a265.4,265.4,0,0,1,44.49,33.4L185.09,20.55c-3.12,7.64-6.24,16.36-2.78,23.85,5.4,11.68,21.54,11.65,34.41,12.19,29.84,1.26,58.68,15.88,78.1,38.57s29.41,53,28.3,82.84c-0.13,3.38-.52,7.07-2.91,9.47-2,2-4.83,2.63-7.56,3.1-50.88,8.86-102.6-20.35-133.86-61.46-4.28-5.62-8.34-11.64-10-18.51S168,96.77,167.28,89.86s-3.76-14.33-10.13-17.1c-13.65-5.93-26.35,13.41-41.22,12.88-5.84-.21-11.07-3.52-15.89-6.83A384,384,0,0,1,65.41,52a240.12,240.12,0,0,1,68.76-37.63,115.19,115.19,0,0,1,12.41-60.57"/><path class="cls-6" d="M150-36.63A270.89,270.89,0,0,1,194-3.57L193.5-5.65c-4.51,11-10,22.1-13.35,33.55-2.33,8-2.18,16.86,4.18,22.94,5.37,5.13,13.2,6.54,20.31,7.23,9.61,0.94,19.11.74,28.62,2.77,41.39,8.83,73.39,41.63,83.91,82.21a121.4,121.4,0,0,1,3.89,31.69c-0.06,6.33-.44,11.87-7.6,13.51A84,84,0,0,1,297.39,190c-19.8.59-39.46-4.33-57.24-12.9a164.56,164.56,0,0,1-47.73-35.23c-7-7.4-14.33-15.56-18.9-24.74-5.31-10.67-2-22.31-5.27-33.35-2.3-7.64-8.08-14.29-16.58-14.27-8.1,0-15.1,5.65-21.81,9.46-4.23,2.41-8.92,4.77-13.93,4.55-6.42-.28-12-4.57-17.06-8.09A387.28,387.28,0,0,1,66.93,50.5v3a241.6,241.6,0,0,1,67.81-37.08,2.19,2.19,0,0,0,1.57-2.07A115.35,115.35,0,0,1,148.43-45.1c1.24-2.46-2.46-4.63-3.7-2.16A119.65,119.65,0,0,0,132,14.39l1.57-2.07A248,248,0,0,0,63.9,50.5a2.15,2.15,0,0,0,0,3Q77.22,65.06,91.5,75.41c7.59,5.48,16.25,12.92,26.23,12.33,7.77-.45,14.42-5.23,20.9-9,8.38-4.93,18.76-8.24,24.16,2.76,5.11,10.41,1.12,22.78,5.17,33.59,3.38,9,9.95,16.83,16.18,24a170.85,170.85,0,0,0,46.95,38.14c17.13,9.37,36.11,15.56,55.65,16.84,9.17,0.6,18.86.35,27.86-1.68,9.95-2.24,10.79-10.36,10.75-19.27C325.19,132,304.47,92.05,269,70.55A112.84,112.84,0,0,0,238.21,57.6C227.76,55,217.35,54.77,206.68,54c-11.08-.84-24.5-4.33-23.69-18.18,0.4-6.7,3.53-13.12,6-19.24l8.6-21.06a2.08,2.08,0,0,0-.55-2.08,276.45,276.45,0,0,0-44.92-33.74c-2.37-1.43-4.52,2.28-2.16,3.7h0Z"/><path class="cls-7" d="M305.43,114.63c-17.1,23.66-43.77,40.19-56.53,66.45-0.75,1.55.08,4.49,1.42,3.4"/><path class="cls-6" d="M303.58,113.55c-11,15.06-25.54,27-38.12,40.67a119.18,119.18,0,0,0-15.52,20.38c-1.51,2.59-3.93,5.75-3.35,8.94,0.42,2.29,2,3.67,4.3,3,2.64-.77,1.52-4.91-1.14-4.13l-0.73.21,2.08,0.55c-2.42-2.12,10.55-18,11.85-19.6,4.73-5.72,9.93-11,15.2-16.27,10.19-10.11,20.61-20,29.13-31.59,1.63-2.23-2.08-4.36-3.7-2.16h0Z"/><path class="cls-8" d="M237.8,220.35a157.6,157.6,0,0,1,21.39,25.18L249.76,259c-2.81,4-5.76,8.66-4.74,13.45,1.6,7.48,11,9.57,18.33,11.57,17.12,4.64,31.9,16.89,40.18,32.58a72.18,72.18,0,0,1,5.52,51.69c-0.52,1.94-1.23,4-2.93,5.1a8.09,8.09,0,0,1-4.78.81c-30.63-1.54-56.75-25.24-69.47-53.15-1.74-3.82-3.3-7.84-3.35-12s1.36-8.12,1.83-12.22-0.3-8.79-3.63-11.23c-7.13-5.23-17,4.31-25.56,2.05-3.36-.89-5.95-3.49-8.31-6a228,228,0,0,1-16.54-20.06,142.59,142.59,0,0,1,44.76-12.78A68.4,68.4,0,0,1,236.2,215.3"/><path class="cls-6" d="M236.47,221.68a163.6,163.6,0,0,1,14.13,15.39c1.62,2,6.13,6.26,5.92,9-0.08,1.07-2.51,3.59-3.14,4.49l-4.19,6c-2.95,4.23-6.41,8.88-6.24,14.3,0.15,4.62,3.14,8.22,7,10.45s8.54,3.28,12.91,4.52a62.84,62.84,0,0,1,18.71,8.77,64.73,64.73,0,0,1,24.24,31.94,70.19,70.19,0,0,1,3.8,21.37c0.14,6.5.14,15.09-2.7,21.07-2.92,6.16-14,2.57-19.27,1.09A70.77,70.77,0,0,1,271,362.92a90.43,90.43,0,0,1-27.12-25,103.17,103.17,0,0,1-9.11-15.14,41.48,41.48,0,0,1-4-10.68c-0.81-4.49.48-8.65,1.2-13,0.84-5.15.61-11.3-3.86-14.81-3.58-2.81-8.07-2.32-12.19-1.16-3,.84-5.87,2.11-8.92,2.69-4.89.94-8.35-1-11.73-4.43a189.42,189.42,0,0,1-17.28-20.77l-0.67,2.57a144.6,144.6,0,0,1,43.81-12.52,1.93,1.93,0,0,0,1.81-1.38,68.86,68.86,0,0,1,14.65-32.63c1.52-1.85-1.12-4.52-2.65-2.65a72.43,72.43,0,0,0-15.61,34.28l1.81-1.38a150.37,150.37,0,0,0-45.71,13,1.88,1.88,0,0,0-.67,2.57c4.15,5.61,8.49,11.07,13.1,16.3,3.56,4,7.4,9.17,12.87,10.66,4.62,1.26,9.33-.52,13.68-1.93,2.51-.81,5.36-1.94,8-1.62,4.84,0.58,6.35,5.32,6.2,9.54-0.24,6.81-2.89,12.51-1.08,19.4,1.5,5.69,4.53,11.25,7.47,16.31a101.09,101.09,0,0,0,21.89,26.33,80.54,80.54,0,0,0,28.39,15.83c7.68,2.33,21.73,6.8,25.26-3.31,8.13-23.28.38-52-16.31-69.45-9.07-9.51-20.3-15.52-32.89-19C254.9,279.77,245,277,247,268.23c0.95-4.18,4.09-7.85,6.49-11.27l7.33-10.48a1.82,1.82,0,0,0,0-1.89A168.26,168.26,0,0,0,239.13,219c-1.74-1.68-4.39,1-2.65,2.65h0Z"/><path class="cls-7" d="M307.12,329.27c-13,11.46-30.62,17.53-41.45,31.07-0.64.8-.54,2.61,0.38,2.15"/><path class="cls-6" d="M305.8,327.95c-8.27,7.11-18,12.09-26.94,18.24a76.15,76.15,0,0,0-11,8.88c-1.93,1.94-5.49,4.76-4.19,7.9a2,2,0,0,0,1.81,1.38l0.54,0c2.41,0.14,2.4-3.61,0-3.75l-0.54,0,1.81,1.38c-0.88-2.15,7.93-8.49,9.31-9.56,3.57-2.75,7.38-5.19,11.2-7.58,7.1-4.43,14.25-8.76,20.62-14.23,1.83-1.58-.83-4.22-2.65-2.65h0Z"/><path class="cls-9" d="M88.69,173.25a157.6,157.6,0,0,1,23.23,23.49l-8.38,14.15c-2.5,4.21-5.08,9.07-3.7,13.77C102,232,111.49,233.37,119,234.81c17.42,3.33,33.09,14.43,42.53,29.44A72.18,72.18,0,0,1,171,315.37c-0.37,2-.92,4.11-2.53,5.31a8.09,8.09,0,0,1-4.71,1.17c-30.66.79-58.5-20.86-73.3-47.73-2-3.67-3.89-7.56-4.26-11.74s0.74-8.2.9-12.32-1-8.74-4.47-10.92c-7.5-4.67-16.64,5.59-25.33,4-3.41-.63-6.2-3-8.74-5.39a228,228,0,0,1-18-18.75,142.59,142.59,0,0,1,43.66-16.13,68.4,68.4,0,0,1,12.55-34.51"/><path class="cls-6" d="M87.36,174.58a165.81,165.81,0,0,1,23.23,23.49l-0.29-2.27c-3.34,5.64-7,11.2-10,17-2.2,4.32-3.81,9.27-1.64,13.94,4,8.56,15.73,8.66,23.55,10.68,25.08,6.46,43.32,28.3,47.27,53.59a71.87,71.87,0,0,1,.44,18.57c-0.36,3.4-.3,8.66-4.22,10.2-2.37.94-6.8,0.16-9.34-.07-11.86-1.08-23.18-5.64-33.06-12.17a95.81,95.81,0,0,1-24.9-24.29c-3.52-4.94-7.2-10.42-9.23-16.18-2.43-6.9.52-13.39-.39-20.33-0.61-4.63-3.07-9.1-7.87-10.4-4.44-1.2-8.87.92-12.89,2.57-2.8,1.15-5.8,2.53-8.89,2.45-4.42-.11-7.62-3.43-10.64-6.27a234.11,234.11,0,0,1-16.66-17.48l-0.38,2.94a145.87,145.87,0,0,1,43.21-15.95A1.91,1.91,0,0,0,76,202.84a68.79,68.79,0,0,1,12.29-33.56c1.38-2-1.86-3.86-3.24-1.89a72.51,72.51,0,0,0-12.8,35.45L73.67,201a149.1,149.1,0,0,0-44.11,16.32,1.9,1.9,0,0,0-.38,2.94c4.86,5.63,9.95,11,15.31,16.2C48.15,240,52,244.14,57.26,245c5,0.82,9.7-1.68,14.23-3.46,2.55-1,5.64-2.34,8.42-1.54,4.4,1.27,5.33,6.15,5.28,10.07-0.09,7.12-1.82,12.82,1,19.72a78.58,78.58,0,0,0,9,15.4,101.78,101.78,0,0,0,23.8,24,78.38,78.38,0,0,0,31.12,13.51c4.92,0.89,10.4,1.66,15.38,1,4.49-.63,6.4-3.44,7.31-7.73,5-23.94-3.49-50.51-21.64-66.85-9.78-8.81-21.36-14-34.2-16.5-6.12-1.19-15.82-2.88-15.59-11,0.13-4.61,3.42-9,5.69-12.82l6.52-11a1.94,1.94,0,0,0-.29-2.27A165.81,165.81,0,0,0,90,171.93c-1.85-1.53-4.51,1.11-2.65,2.65h0Z"/><path class="cls-7" d="M166.07,276.6c-12.1,12.42-29.2,19.81-39,34.13-0.58.85-.34,2.64,0.54,2.12"/><path class="cls-6" d="M164.75,275.28c-7.64,7.65-16.81,13.37-25.24,20.07a74,74,0,0,0-11,10.42c-1.93,2.32-4.62,4.9-3,8a1.85,1.85,0,0,0,1.62.93h0.54c2.41,0,2.42-3.79,0-3.75,3-.05,7.49-6.93,9.86-9.06a140.12,140.12,0,0,1,11-8.72c6.54-4.8,13.13-9.51,18.88-15.27a1.88,1.88,0,0,0-2.65-2.65h0Z"/><path class="cls-10" d="M425.32,171.35a120.33,120.33,0,0,1,18.13,17.54l-6.16,10.94c-1.83,3.26-3.73,7-2.59,10.57,1.77,5.56,9,6.46,14.79,7.43a50.15,50.15,0,0,1,33,21.76,55.11,55.11,0,0,1,8.05,38.87c-0.25,1.51-.63,3.15-1.84,4.1a6.18,6.18,0,0,1-3.57,1c-23.39,1.11-45-14.95-56.75-35.2a23.24,23.24,0,0,1-3.45-8.89c-0.35-3.13.43-6.27,0.48-9.42s-0.88-6.66-3.59-8.26c-5.8-3.44-12.61,4.54-19.27,3.47-2.62-.42-4.78-2.21-6.76-4a174.09,174.09,0,0,1-14.07-14,108.87,108.87,0,0,1,33.06-13,52.23,52.23,0,0,1,9-26.55"/><path class="cls-6" d="M424.49,172.18A126.63,126.63,0,0,1,436.57,183c1.47,1.51,4.74,4,4.93,6.08,0.21,2.26-3.22,6.56-4.35,8.57-3.08,5.51-6.63,12.73-.35,17.48,2.79,2.11,6.47,2.78,9.83,3.38A56.67,56.67,0,0,1,461.72,223a49.76,49.76,0,0,1,21.42,20,54.15,54.15,0,0,1,6.62,32.28c-0.4,3.86-1.87,6.68-6.16,7.16a30.63,30.63,0,0,1-7.2-.43,53.32,53.32,0,0,1-15-4.37,69.7,69.7,0,0,1-22.95-17.3,77,77,0,0,1-8.7-11.92,26.84,26.84,0,0,1-3.44-7.68c-0.79-3.6.28-7.09,0.26-10.68-0.06-8.13-5.71-12-13.18-9.07-6.61,2.56-10.45,4.86-16.79-.53a152.8,152.8,0,0,1-14.07-14l-0.24,1.84A112.81,112.81,0,0,1,415,195.32a1.2,1.2,0,0,0,.86-1.13,53.16,53.16,0,0,1,8.84-26c0.84-1.26-1.2-2.44-2-1.19A56,56,0,0,0,416,180.77a52.29,52.29,0,0,0-1.77,7.29c-0.42,2.46,0,4.52-2.44,5.58-5.09,2.2-10.91,3.09-16.11,5.24a116,116,0,0,0-14.62,7.33,1.19,1.19,0,0,0-.24,1.84c3.64,4,7.41,7.9,11.39,11.58,2.91,2.69,6.13,6.14,10.27,6.74,3.3,0.47,6.37-1,9.32-2.23,2-.87,4.29-2.14,6.59-2.1,5.87,0.11,5.93,6.66,5.59,10.79-0.36,4.31-.54,7.73,1.13,11.78a58.57,58.57,0,0,0,8.07,13,76.28,76.28,0,0,0,18.55,17.3,59,59,0,0,0,24.17,9.32c6.23,0.85,14.19,2.15,15.72-5.5,3.49-17.53-3.14-37.08-16.13-49.17a51.33,51.33,0,0,0-25.7-12.91c-4.64-.85-12.15-1.23-14-6.61-1.32-3.9,1.59-8.06,3.36-11.23s3.52-6.25,5.28-9.38a1.22,1.22,0,0,0-.18-1.42,129,129,0,0,0-18.13-17.54c-1.17-.93-2.84.72-1.66,1.66h0Z"/><path class="cls-7" d="M486.12,248.95c-9,9.68-22,15.61-29.18,26.7-0.43.66-.22,2,0.45,1.61"/><path class="cls-6" d="M485.29,248.11c-5.71,5.93-12.56,10.45-18.86,15.69-3.14,2.61-11.77,8.86-10.68,13.68a1.14,1.14,0,0,0,.82.82l0.51,0.09c1.48,0.25,2.11-2,.62-2.27,0.54,0.09,6-6.8,7-7.66,2.72-2.55,5.67-4.83,8.62-7.09a119.1,119.1,0,0,0,13.68-11.6,1.18,1.18,0,0,0-1.66-1.66h0Z"/><path class="cls-6" d="M451.24,47.23L504.48,42l27.61-2.7c6-.59,13.31-0.3,17.82-5,8.68-9.11,1.82-21.87-5.57-29.05-3.61-3.51-8.66-9.19-14.29-7.17-3.22,1.16-5.46,4.55-7.51,7.09C520.22,8,518,11,516,14.06l3.42-.9c-7.59-4-16.92-8.29-25.64-5.68-4.57,1.37-7.47,6.3-11.89,7.25s-9.59-2.36-13.69-3.78c-7.44-2.59-14.85-1.25-19.46,5.59-5.89,8.74-3,19.34.1,28.52,1,3,5.86,1.73,4.82-1.33-2.78-8.22-6.34-19.17.76-26.29,6.4-6.42,14.5-.18,21.38,1.69a15.24,15.24,0,0,0,7.42.42c3.92-.92,6-4.1,9.24-6.09,7.56-4.58,17.55.43,24.44,4a2.57,2.57,0,0,0,3.42-.9c2.52-3.73,8.67-15.37,14.29-13.23,2.21,0.84,4.55,3.77,6.23,5.41a34.19,34.19,0,0,1,5.62,6.73c2.53,4.19,3.66,10,.69,14.34-3.6,5.24-13.33,4.32-19,4.88l-76.9,7.53c-3.17.31-3.21,5.31,0,5h0Z"/><path class="cls-6" d="M518.63,79.42a175.53,175.53,0,0,1,47.46-7.58c7.56-.14,15.12.76,22.67,0.5,4.49-.16,12.34-0.48,15.17-4.69s-2.25-8.78-5.06-11.21a30.71,30.71,0,0,0-15.66-7.18c-11.49-1.64-22.45,3.76-29.09,13.06l4.57,0.6c-1.93-5.11-4.29-10.75-9.82-12.82a9.73,9.73,0,0,0-7.34,0c-3,1.29-4.62,4.11-8,4.52-3.09.37-5.88-.85-9,0a16.35,16.35,0,0,0-6.77,4c-4.9,4.63-6.51,11.38-7.87,17.73-0.67,3.14,4.15,4.48,4.82,1.33,1-4.51,1.89-9.36,4.56-13.22a12.4,12.4,0,0,1,6.59-5c2.63-.71,5,0.51,7.64.53,3.06,0,5.08-1.61,7.37-3.43,6.71-5.34,10.8,1.93,13,7.69a2.54,2.54,0,0,0,4.57.6c6.07-8.5,16.94-12.89,27.14-10a25.77,25.77,0,0,1,7.16,3.23c1.33,0.87,5.59,3.51,5.86,5.23,0.82,5.27-12.83,4.1-16,4-22.3-.91-43.87.86-65.32,7.33-3.07.93-1.76,5.75,1.33,4.82h0Z"/><path class="cls-6" d="M-29.68,82.28A443.81,443.81,0,0,1,57.66,80a2.52,2.52,0,0,0,2.41-3.16C58.16,69.62,52.88,51.44,42.7,53.1c-2.5.41-4.05,2.25-6.32,3.16-3.88,1.57-7.17-1.6-10.35-3.39A29.46,29.46,0,0,0,8.61,49.11c-3.79.38-6.65,1.17-10-1-2-1.34-3.73-3.08-6-4.12A12.44,12.44,0,0,0-19.64,45.2C-30.4,52.27-28.39,66-34.41,76c-1.67,2.76,2.65,5.27,4.32,2.52C-25,70-26.17,58.1-18.86,51c2.57-2.51,6.07-4,9.56-2.42,2,0.91,3.55,2.65,5.38,3.85,3.5,2.29,6.79,2.43,10.85,1.94A26.61,26.61,0,0,1,24.87,58c3.47,2.09,7,4.43,11.27,3.61,5-1,7.52-6.46,11.67-.48a54.06,54.06,0,0,1,7.44,17L57.66,75a443.81,443.81,0,0,0-87.34,2.33c-3.15.4-3.19,5.4,0,5h0Z"/><path class="cls-6" d="M114.19,494.36c112.6-31.43,229.09-58.6,346.79-48a490.19,490.19,0,0,1,97.18,18.56c3.09,0.93,4.41-3.9,1.33-4.82C446.21,426,325.78,438,212.18,463.93c-33.34,7.61-66.38,16.41-99.31,25.6-3.09.86-1.78,5.69,1.33,4.82h0Z"/><path class="cls-6" d="M2.86-53.36A477.26,477.26,0,0,1,64.35,42.87c1.4,2.9,5.71.36,4.32-2.52A482.45,482.45,0,0,0,6.4-56.89c-2-2.49-5.57,1.07-3.54,3.54h0Z"/><path class="cls-6" d="M32,128.8A422.69,422.69,0,0,0,57.24,176.3c1.68,2.74,6,.23,4.32-2.52a422.69,422.69,0,0,1-25.23-47.49c-1.32-2.93-5.63-.39-4.32,2.52h0Z"/><path class="cls-6" d="M5.15,161.53a135.82,135.82,0,0,0,21.62,28.31c2.27,2.28,5.81-1.25,3.54-3.54A130.72,130.72,0,0,1,9.47,159c-1.6-2.79-5.92-.27-4.32,2.52h0Z"/><path class="cls-6" d="M20.81,199.8c3.22,0,3.22-5,0-5s-3.22,5,0,5h0Z"/><path class="cls-6" d="M176.88,163.32a147.29,147.29,0,0,1,18,38.71c0.91,3.08,5.74,1.77,4.82-1.33a152,152,0,0,0-18.46-39.91c-1.75-2.68-6.08-.18-4.32,2.52h0Z"/><path class="cls-6" d="M150.74,188.17l5.94,10.39c1.6,2.79,5.92.28,4.32-2.52l-5.94-10.39c-1.6-2.79-5.92-.28-4.32,2.52h0Z"/><path class="cls-6" d="M153.12,205.39l13.36,8.9c2.68,1.79,5.19-2.54,2.52-4.32l-13.36-8.9c-2.68-1.79-5.19,2.54-2.52,4.32h0Z"/><path class="cls-6" d="M336.25-41.87Q356.62-15.18,374.84,13c1.74,2.69,6.07.19,4.32-2.52q-18.21-28.21-38.59-54.91c-1.93-2.52-6.27,0-4.32,2.52h0Z"/><path class="cls-6" d="M293.21-18.12l36,47.22c1.92,2.53,6.27,0,4.32-2.52l-36-47.22c-1.92-2.53-6.27,0-4.32,2.52h0Z"/><path class="cls-6" d="M311.7,30.61c3.22,0,3.22-5,0-5s-3.22,5,0,5h0Z"/><path class="cls-6" d="M315.47,217.85l25.23,40.07c1.71,2.72,6,.21,4.32-2.52l-25.23-40.07c-1.71-2.72-6-.21-4.32,2.52h0Z"/><path class="cls-6" d="M299.07,244.62a228.88,228.88,0,0,0,27.22,33.07c2.27,2.28,5.81-1.25,3.54-3.54a221.91,221.91,0,0,1-26.44-32.06c-1.79-2.65-6.13-.15-4.32,2.52h0Z"/><path class="cls-11" d="M397.21,32.62a192.09,192.09,0,0,1,28.94,28l-9.83,17.47c-2.93,5.2-6,11.19-4.14,16.88,2.82,8.88,14.42,10.31,23.61,11.85,21.32,3.59,40.71,16.69,52.62,34.74s16.34,40.71,12.86,62c-0.4,2.42-1,5-2.94,6.54-1.58,1.23-3.71,1.45-5.71,1.55-37.34,1.78-71.85-23.86-90.59-56.2-2.56-4.42-4.94-9.11-5.5-14.2s0.69-10,.77-15-1.41-10.63-5.74-13.19c-9.27-5.49-20.13,7.25-30.76,5.53-4.18-.68-7.63-3.52-10.79-6.33a277.92,277.92,0,0,1-22.45-22.37,173.8,173.8,0,0,1,52.77-20.83,83.37,83.37,0,0,1,14.37-42.38"/><path class="cls-6" d="M395.89,33.95a200.26,200.26,0,0,1,28.94,28l-0.29-2.27c-4.07,7.23-8.62,14.37-12.15,21.88-2.36,5-3.82,10.86-1.12,16.07,5.39,10.39,20.31,9.79,30.06,12.29,30.07,7.74,52.21,33.37,57.79,63.57a88,88,0,0,1,1,24.35c-0.5,5.21-.74,11.51-7.52,12a67.23,67.23,0,0,1-10.37-.2c-14.16-1.22-27.75-6.46-39.69-14A117.82,117.82,0,0,1,411,165.86c-4.34-5.9-8.79-12.4-11.33-19.31-2.89-7.88.2-15.56-.75-23.57-0.68-5.72-3.69-11.34-9.64-12.81-5.57-1.38-11.05,1.55-16,3.71-3.34,1.45-7,3.11-10.69,3-5.14-.16-9.09-3.93-12.7-7.17a284.19,284.19,0,0,1-21.06-21.12l-0.38,2.94a176.91,176.91,0,0,1,52.32-20.64,1.91,1.91,0,0,0,1.38-1.81A83.75,83.75,0,0,1,396.3,27.63c1.35-2-1.9-3.89-3.24-1.89a87.54,87.54,0,0,0-14.62,43.33l1.38-1.81a180.25,180.25,0,0,0-53.22,21,1.9,1.9,0,0,0-.38,2.94c6,6.7,12.35,13.13,19,19.24,4.76,4.37,10,9.73,16.81,10.15,10.71,0.65,31.14-17.19,33.26,3.12,0.89,8.5-2.07,16.26,1.11,24.62,2.56,6.73,6.77,13,11,18.79A124.47,124.47,0,0,0,436.3,195.9a96.41,96.41,0,0,0,38.16,16.43,70.29,70.29,0,0,0,19.66,1.13c6.54-.71,8.37-5.3,9.23-11.25,4.31-29.77-6.64-61.09-30.18-80.19-12.78-10.37-26.83-15-42.73-18-8-1.52-18.52-4.69-16.64-15.07,0.91-5,3.91-9.5,6.37-13.88l7.6-13.5a1.94,1.94,0,0,0-.29-2.27,200.26,200.26,0,0,0-28.94-28c-1.87-1.48-4.55,1.16-2.65,2.65h0Z"/><path class="cls-7" d="M494.27,156.49c-14.41,15.45-35.05,24.92-46.58,42.63-0.68,1-.34,3.23.71,2.57"/><path class="cls-6" d="M492.94,155.16c-8.79,9.24-19.41,16.29-29.24,24.32a95.44,95.44,0,0,0-13.24,12.75c-2.32,2.8-6.4,6.55-4.34,10.42a1.85,1.85,0,0,0,1.62.93l0.65,0c2.41-.09,2.42-3.84,0-3.75,2.22-.09,4.91-5.19,6.21-6.66,1.69-1.91,3.49-3.72,5.35-5.46,4-3.77,8.36-7.19,12.73-10.54,7.94-6.1,16-12.06,22.9-19.33,1.66-1.75-1-4.4-2.65-2.65h0Z"/><rect class="cls-12" x="343.91" y="387.45" width="189.62" height="142.97" transform="translate(70.08 -57.98) rotate(8.22)"/><rect class="cls-13" x="368.5" y="398.96" width="73.41" height="9.92" transform="translate(61.87 -53.75) rotate(8.22)"/><line class="cls-13" x1="333.86" y1="521.74" x2="521.53" y2="548.84"/><line class="cls-13" x1="355.94" y1="368.8" x2="543.61" y2="395.89"/><rect class="cls-14" x="351.7" y="427.47" width="169.5" height="88.4" transform="translate(71.87 -57.52) rotate(8.22)"/><path class="cls-7" d="M442.25,442.06a2.53,2.53,0,0,0-4.49-.6l-38.39,43.82c-1.48,1.69-.88,3.4,1.33,3.8l66.86,12c2.21,0.4,3.21-.93,2.22-2.94Z"/><path class="cls-15" d="M442.25,442.06a2.53,2.53,0,0,0-4.49-.6l-38.39,43.82c-1.48,1.69-.88,3.4,1.33,3.8l66.86,12c2.21,0.4,3.21-.93,2.22-2.94Z"/><line class="cls-16" x1="437.07" y1="456.71" x2="434.51" y2="474.47"/><circle class="cls-17" cx="433.02" cy="484.77" r="1.84" transform="translate(-108.65 844.08) rotate(-81.78)"/><path class="cls-6" d="M480.56,369.95a410.31,410.31,0,0,0,12.78-44.67c0.71-3.13-4.11-4.47-4.82-1.33a410.31,410.31,0,0,1-12.78,44.67c-1.06,3,3.77,4.35,4.82,1.33h0Z"/><path class="cls-6" d="M515.92,363.16L550,318.45c1.95-2.56-2.39-5.05-4.32-2.52L511.6,360.63c-1.95,2.56,2.39,5.05,4.32,2.52h0Z"/><path class="cls-6" d="M551.91,371.3A162.42,162.42,0,0,1,592,340.41c2.82-1.54.3-5.86-2.52-4.32a166.79,166.79,0,0,0-41.13,31.67c-2.21,2.33,1.32,5.88,3.54,3.54h0Z"/><path class="cls-6" d="M583.44,393A76,76,0,0,1,618,384.37c3.22,0,3.22-5,0-5a81.63,81.63,0,0,0-37.06,9.32c-2.86,1.49-.33,5.8,2.52,4.32h0Z"/><path class="cls-6" d="M278.35,387.65a105.06,105.06,0,0,1,28.18,21c2.23,2.33,5.76-1.21,3.54-3.54a109.16,109.16,0,0,0-29.2-21.81c-2.86-1.47-5.39,2.85-2.52,4.32h0Z"/><path class="cls-6" d="M235.21,427.36l53,28.91V452l-6.14,4.7c-2.52,1.93,0,6.28,2.52,4.32l6.14-4.7c1.4-1.07,1.81-3.33,0-4.32l-53-28.91c-2.83-1.54-5.35,2.77-2.52,4.32h0Z"/><path class="cls-6" d="M234.88,484.47l37.59,1.83c3.22,0.16,3.21-4.84,0-5l-37.59-1.83c-3.22-.16-3.21,4.84,0,5h0Z"/><path class="cls-6" d="M422.13,267.31l3.58,39.38c0.29,3.18,5.29,3.21,5,0l-3.58-39.38c-0.29-3.18-5.29-3.21-5,0h0Z"/><path class="cls-18" d="M372.24,267.62a157.6,157.6,0,0,1,24,22.69l-7.9,14.42c-2.35,4.3-4.78,9.24-3.24,13.89,2.4,7.26,11.93,8.32,19.48,9.5,17.52,2.74,33.56,13.3,43.5,28a72.18,72.18,0,0,1,11.15,50.78c-0.3,2-.78,4.14-2.35,5.39a8.09,8.09,0,0,1-4.67,1.33c-30.61,1.82-59.17-18.88-74.86-45.23-2.15-3.6-4.14-7.43-4.65-11.59s0.47-8.22.48-12.35-1.26-8.71-4.83-10.77c-7.65-4.42-16.45,6.15-25.18,4.84-3.43-.51-6.29-2.82-8.92-5.09a228,228,0,0,1-18.64-18.13,142.59,142.59,0,0,1,43.09-17.6,68.4,68.4,0,0,1,11.38-34.91"/><path class="cls-6" d="M371.29,269.24a163.54,163.54,0,0,1,23.63,22.4l-0.29-2.27c-3.15,5.76-6.61,11.44-9.43,17.37-2.07,4.36-3.54,9.39-1.24,14,4.14,8.23,15.37,8.14,23.13,9.75,25.06,5.2,44.13,25.76,49.5,50.46a71.51,71.51,0,0,1,1.47,19.34c-0.23,4,0,10.05-4.85,11.34-3,.79-6.89.27-9.95,0-11.57-.95-22.69-5.17-32.48-11.29A96.49,96.49,0,0,1,384,375c-3.3-4.57-6.81-9.55-8.57-14.94-2.06-6.28.42-12.58-.59-18.94-0.74-4.62-3.36-9-8.17-10.17-4.18-1-8.29.92-12,2.6-3.16,1.42-6.61,3.33-10.2,3.16-4.12-.19-7.32-3.31-10.24-5.88A234.11,234.11,0,0,1,317,314l-0.38,2.94a145.86,145.86,0,0,1,42.65-17.41,1.91,1.91,0,0,0,1.38-1.81,68.71,68.71,0,0,1,11.12-34c1.32-2-1.93-3.91-3.24-1.89a72.57,72.57,0,0,0-11.63,35.86l1.38-1.81a149.12,149.12,0,0,0-43.54,17.79,1.9,1.9,0,0,0-.38,2.94c5,5.46,10.31,10.71,15.85,15.67,3.75,3.36,7.79,7.42,13,8.1,4.76,0.61,9.13-1.69,13.34-3.56,2.24-1,4.82-2.35,7.36-2.35,5.56,0,7.34,5.3,7.45,10,0.16,6.71-1.39,12.39,1.29,18.85a71.72,71.72,0,0,0,9,14.86,102.18,102.18,0,0,0,24.72,23.79,78.88,78.88,0,0,0,32,12.87c4.9,0.74,10.19,1.28,15.12.57,4.73-.67,6.78-3.42,7.59-8,4.25-24.08-5.13-50.38-23.82-66.11-10.1-8.49-21.78-13.29-34.72-15.37-6.11-1-15.92-2.34-16-10.42-0.06-4.65,3.07-9.09,5.22-13l6.14-11.22a1.94,1.94,0,0,0-.29-2.27,168.09,168.09,0,0,0-24.39-23c-1.91-1.47-3.78,1.78-1.89,3.24h0Z"/><path class="cls-7" d="M453.06,368.31c-11.68,12.82-28.52,20.78-37.8,35.42-0.55.86-.25,2.65,0.61,2.1"/><path class="cls-6" d="M451.73,367c-7,7.53-15.49,13.36-23.38,19.93a82.51,82.51,0,0,0-10.37,10c-2.19,2.59-5.46,5.67-4.59,9.3a1.83,1.83,0,0,0,1.31,1.31l0.66,0.11c2.36,0.38,3.38-3.23,1-3.62,1.64,0.26,3.89-4,4.76-5,1.32-1.53,2.73-3,4.18-4.37,3.12-3,6.49-5.75,9.88-8.43,6.64-5.25,13.4-10.34,19.19-16.55,1.64-1.76-1-4.42-2.65-2.65h0Z"/></g></svg>