<svg xmlns="http://www.w3.org/2000/svg" xmlns:xlink="http://www.w3.org/1999/xlink" viewBox="0 0 580 580"><defs><style>.cls-1{fill:none;}.cls-2{isolation:isolate;}.cls-3{clip-path:url(#clip-path);}.cls-4{clip-path:url(#clip-path-2);}.cls-5{fill:#fdea8b;}.cls-6{mix-blend-mode:multiply;fill:url(#radial-gradient);}.cls-7{fill:#0071bc;}.cls-8{fill:#ffec8d;}.cls-9{fill:#4d4d4d;}.cls-10{fill:#014e7f;}.cls-11{fill:#21648f;}.cls-12{fill:#fff;}.cls-13{fill:#ffcd31;}.cls-14{fill:gray;}.cls-15{fill:#f7931e;}.cls-16{fill:#666;}.cls-17{fill:#fbb03b;}.cls-18{fill:#29abe2;}</style><clipPath id="clip-path"><rect class="cls-1" y="877.26" width="580" height="580"/></clipPath><clipPath id="clip-path-2"><rect class="cls-1" x="-0.13" width="580" height="580"/></clipPath><radialGradient id="radial-gradient" cx="-384.82" cy="-91.26" r="389.88" gradientTransform="translate(689.21 364.9)" gradientUnits="userSpaceOnUse"><stop offset="0" stop-color="#ffd459"/><stop offset="0.33" stop-color="#ffcd31"/><stop offset="0.57" stop-color="#ffdf79"/><stop offset="1" stop-color="#fff"/></radialGradient></defs><title>iiLAB -U1-concepts-04-DEVICE SEIZED</title><g class="cls-2"><g id="Layer_2" data-name="Layer 2"><g class="cls-4"><rect class="cls-5" x="-28.78" y="-19.34" width="645" height="645"/><circle class="cls-6" cx="304.38" cy="273.64" r="389.88" transform="translate(-102.11 321.5) rotate(-48.67)"/><path class="cls-7" d="M217.65,195.52c0.17-4.29-1.31-8.44-1.27-12.71,0-.56-0.08-2.29.4-2.75s3.13,0.07,3.9.11a86.36,86.36,0,0,1,9.68,1c3.15,0.51,4.5-4.3,1.33-4.82a96.93,96.93,0,0,0-12.31-1.28c-2.88-.1-5.49-0.29-7,2.54-2.85,5.31.5,12.27,0.27,17.87-0.13,3.22,4.87,3.21,5,0h0Z"/><line class="cls-8" x1="265.26" y1="222.3" x2="216.54" y2="179.05"/><path class="cls-7" d="M267,220.54l-48.72-43.25c-2.4-2.13-5.95,1.39-3.54,3.54l48.72,43.25c2.4,2.13,5.95-1.39,3.54-3.54h0Z"/><path class="cls-9" d="M366.73,164c4.35,0.76,8.73-.09,13.08.49,1.61,0.21,2.19.14,2.58,1.71,0.24,1-.49,2.89-0.68,3.85-0.6,3-1.37,5.92-2.25,8.83-0.94,3.09,3.89,4.4,4.82,1.33a91.34,91.34,0,0,0,2.82-12c0.43-2.65.92-5.11-1.5-6.92-4.83-3.61-12.08-1.12-17.54-2.07-3.15-.55-4.5,4.27-1.33,4.82h0Z"/><line class="cls-8" x1="334.23" y1="207.75" x2="383.54" y2="165.16"/><path class="cls-9" d="M336,209.51l49.31-42.58c2.44-2.11-1.11-5.63-3.54-3.54L332.46,206c-2.44,2.11,1.11,5.63,3.54,3.54h0Z"/><path class="cls-10" d="M249,327.74c-4.26.47-8.12,2.32-12.31,3.07-3.93.7-3.46-.93-3.77-4.52-0.26-3.1-.34-6.19-0.29-9.3s-5-3.22-5,0a93.31,93.31,0,0,0,.67,12.86c0.31,2.49.64,4.74,3.25,5.73,5.66,2.15,11.92-2.23,17.46-2.84,3.16-.35,3.2-5.35,0-5h0Z"/><line class="cls-8" x1="268.14" y1="276.75" x2="232.5" y2="331.28"/><path class="cls-10" d="M266,275.48L230.35,330c-1.77,2.7,2.56,5.21,4.32,2.52L270.3,278c1.77-2.7-2.56-5.21-4.32-2.52h0Z"/><path class="cls-7" d="M395.75,312.14c0.18,4.45,2.12,8.62,2.33,13a12.08,12.08,0,0,1,0,2.5c-0.4.49-3.75,0.21-4.29,0.22a93.21,93.21,0,0,1-10-.31c-3.21-.26-3.19,4.74,0,5a88.64,88.64,0,0,0,12.88.18c2.77-.18,4.94-0.59,6-3.46,2-5.55-1.64-11.62-1.87-17.17-0.13-3.21-5.13-3.22-5,0h0Z"/><line class="cls-8" x1="338.94" y1="276.75" x2="398.2" y2="328.67"/><path class="cls-7" d="M337.18,278.51l59.25,51.92c2.41,2.11,6-1.41,3.54-3.54L340.71,275c-2.41-2.11-6,1.41-3.54,3.54h0Z"/><path class="cls-10" d="M362.14,242.47a57.77,57.77,0,1,0-46.79,56.71c27.09-5.11,46.45-29.44,46.79-56.71,0-3.22-5-3.22-5,0-0.27,22-13.88,42-34.7,49.59a52.78,52.78,0,1,1-7.76-101.35c24.62,5,42.14,26.82,42.45,51.76C357.18,245.68,362.18,245.69,362.14,242.47Z"/><path class="cls-8" d="M336,253.34a2.56,2.56,0,0,0,1.82-2.11s0.08-.88.08-2.21-0.08-2.21-.08-2.21a2.56,2.56,0,0,0-1.82-2.11l-7-1.68a3.49,3.49,0,0,1-2.22-2l-0.9-2.19a3.49,3.49,0,0,1,.14-3l3.75-6.13a2.46,2.46,0,0,0-.25-2.74l-3.12-3.12a2.46,2.46,0,0,0-2.74-.25l-6.13,3.75a3.48,3.48,0,0,1-3,.14l-2.19-.9a3.51,3.51,0,0,1-2-2.22l-1.68-7a2.56,2.56,0,0,0-2.11-1.82s-0.88-.08-2.21-0.08-2.21.08-2.21,0.08a2.56,2.56,0,0,0-2.11,1.82l-1.68,7a3.51,3.51,0,0,1-2,2.22l-2.19.9a3.48,3.48,0,0,1-3-.14L285,223.59a2.46,2.46,0,0,0-2.74.25L279.19,227a2.46,2.46,0,0,0-.25,2.74l3.75,6.13a3.49,3.49,0,0,1,.14,3l-0.9,2.19a3.49,3.49,0,0,1-2.22,2l-7,1.68a2.56,2.56,0,0,0-1.82,2.11s-0.08.88-.08,2.21,0.08,2.21.08,2.21a2.56,2.56,0,0,0,1.82,2.11l7,1.69a3.49,3.49,0,0,1,2.22,2l0.9,2.19a3.49,3.49,0,0,1-.14,3l-3.75,6.13a2.46,2.46,0,0,0,.25,2.74l3.12,3.12a2.46,2.46,0,0,0,2.74.25l6.13-3.75a3.48,3.48,0,0,1,3-.14l2.19,0.9a3.51,3.51,0,0,1,2,2.22l1.68,7a2.56,2.56,0,0,0,2.11,1.82s0.88,0.08,2.21.08,2.21-.08,2.21-0.08a2.56,2.56,0,0,0,2.11-1.82l1.68-7a3.51,3.51,0,0,1,2-2.22l2.19-.9a3.48,3.48,0,0,1,3,.14l6.13,3.75a2.46,2.46,0,0,0,2.74-.25l3.12-3.12a2.46,2.46,0,0,0,.25-2.74l-3.75-6.13a3.49,3.49,0,0,1-.14-3l0.9-2.19a3.49,3.49,0,0,1,2.22-2Z"/><polygon class="cls-11" points="46.87 574.1 47.01 574.15 46.69 573.9 46.87 574.1"/><path class="cls-11" d="M48.19,574.81l-0.09-.16a10.28,10.28,0,0,0-1.43-.92,4.51,4.51,0,0,0,.79.72c0-.05-0.37-0.35-0.22-0.3,0.27,0.22.21,0.23,0.56,0.51s-0.21-.21,0-0.17Z"/><path class="cls-11" d="M47.28,574l0.46,0.35A3.11,3.11,0,0,0,47.28,574Z"/><path class="cls-11" d="M47.21,573.93a2,2,0,0,1,.41.29l-0.59-.5Z"/><path class="cls-11" d="M47.36,573.81l0-.06C47.21,573.68,47.29,573.75,47.36,573.81Z"/><path class="cls-11" d="M47.34,573.68c-0.22-.14-0.11,0,0,0.07l0,0a1.16,1.16,0,0,1,.48.4c0.07,0.11-.36-0.21-0.1,0l0.39,0.22A6.36,6.36,0,0,0,47.34,573.68Z"/><path class="cls-11" d="M47.36,573.81a0,0,0,0,1,0,0C47.45,573.89,47.41,573.85,47.36,573.81Z"/><polygon class="cls-11" points="47.25 573.85 47.33 573.93 47.52 574.07 47.25 573.85"/><path class="cls-11" d="M47.4,573.53a2,2,0,0,1,.33.39,2.11,2.11,0,0,1,.81.47l-0.15-.19A8.43,8.43,0,0,0,47.4,573.53Z"/><path class="cls-11" d="M49,574.53l-0.09-.09Z"/><path class="cls-11" d="M48.17,573.49l0.51,0.57a3,3,0,0,1-.43-0.37,1.68,1.68,0,0,0,.16.29c-0.57-.4,0-0.11-0.5-0.45,0,0,0,.11.44,0.49l-0.42-.22,0.63,0.43c0.19,0.11-.45-0.4,0-0.1a1.33,1.33,0,0,1,.36.31,4.64,4.64,0,0,0,.52.13C49.42,574.44,48.43,573.75,48.17,573.49Z"/><polygon class="cls-11" points="48.85 573.98 49.1 574.14 48.77 573.91 48.85 573.98"/><path class="cls-11" d="M48.16,573.25l0.34,0.35-0.31-.2,0.49,0.38c0.58,0.37-.12-0.21-0.19-0.32a3.8,3.8,0,0,1,.85.57s-0.17-.08-0.23-0.07c0.67,0.4.15-.1,0-0.25a0.4,0.4,0,0,0-.2-0.1l-0.16-.17C48.3,573.16,48.15,573.11,48.16,573.25Z"/><path class="cls-11" d="M48.07,573.38c0-.06,0,0,0.1,0C48,573.29,47.91,573.22,48.07,573.38Z"/><path class="cls-11" d="M49.12,573.68s0,0,0,0S49.16,573.72,49.12,573.68Z"/><path class="cls-11" d="M48.43,573.24h0.09l-0.28-.17A0.69,0.69,0,0,0,48.43,573.24Z"/><path class="cls-11" d="M50.61,572c-0.23-.16-0.36-0.23-0.34-0.16a1.77,1.77,0,0,1-.36-0.38,4.53,4.53,0,0,1-.65-0.46,1.58,1.58,0,0,1,.18.34l-0.33-.23c0.14,0.21.33,0.53,0,.41s-0.05.13,0,.31c-0.33.12-.2,0.6-0.67,0.64L49.06,573a1.86,1.86,0,0,1-.42-0.22c0.08,0,0,0,0,0-0.55-.32-0.06.18-0.3,0.11a7.59,7.59,0,0,1,.71.52c-0.65-.48,0,0.09-0.81-0.44-0.23-.07.57,0.42,0.42,0.41a2.76,2.76,0,0,0,.53.27,0.72,0.72,0,0,0,.23.26c0.27,0-.39-0.76-0.48-1.08L49.33,573c-0.2-.27-0.11-0.42.53-0.06-0.36-.24.28,0-0.52-0.55a0.49,0.49,0,0,0,.26.1l-0.24-.19a4.35,4.35,0,0,0,.43.18,4.33,4.33,0,0,1-.7-0.54c0.42,0.22.8,0.39,1.14,0.56-0.11-.07-0.24-0.16-0.4-0.25,0.15,0.05-.18-0.18-0.29-0.27a3.47,3.47,0,0,1,.66.44c0.18,0-.63-0.6-0.32-0.44l-0.36-.24a1.11,1.11,0,0,0,.32-0.05,1.46,1.46,0,0,1,.55.53,2.19,2.19,0,0,1,.32.15l-0.72-.7C50.52,572.15,50.56,572,50.61,572Z"/><path class="cls-11" d="M50.71,572.42l0.17,0.16s-0.05-.06,0-0.05Z"/><path class="cls-11" d="M50.61,572l0.05,0A0.08,0.08,0,0,0,50.61,572Z"/><path class="cls-11" d="M49.1,571.56h0Z"/><path class="cls-11" d="M50.64,572.76l-0.41-.22A1.27,1.27,0,0,0,50.64,572.76Z"/><path class="cls-11" d="M49.94,572.9C50,573,50.1,573,50.2,573.12A0.42,0.42,0,0,0,49.94,572.9Z"/><polygon class="cls-11" points="50.86 572.4 50.79 572.27 50.71 572.18 50.86 572.4"/><path class="cls-11" d="M49.84,570c-0.45-.25-0.24,0-0.37,0,0.14,0.26.89,0.67,0.87,0.81l-0.84-.64c0,0.14-.3.15,0.38,0.78a1.54,1.54,0,0,1-.35-0.26c0,0.09,1.19.92,0.84,0.8a7.22,7.22,0,0,0-1-.75l-0.05-.06a1.62,1.62,0,0,1,.18.39,2.4,2.4,0,0,1,.57.44,3.92,3.92,0,0,1,.52.36,2,2,0,0,0-.3-0.39c0.31,0.18.08,0.09,0.38,0.26l-0.24-.24a2.82,2.82,0,0,0,.36.24,0.45,0.45,0,0,1-.25-0.31l0.09,0.08a0.66,0.66,0,0,0-.41-0.38l0.5,0.31-0.33-.23c0.18,0,1,.55.65,0.15a1.2,1.2,0,0,1-.33-0.25c-0.25-.12.21,0.23,0.22,0.3a8.16,8.16,0,0,0-.89-0.67,2.09,2.09,0,0,1,.84.43c0.1,0-.28-0.34,0-0.27L50.93,571c-0.52-.4.28,0.12-0.23-0.32l-0.14-.05a0.47,0.47,0,0,1-.23-0.23l0.19,0.13A2.58,2.58,0,0,1,50,570a1.16,1.16,0,0,0,.27.36A2,2,0,0,1,49.84,570Z"/><path class="cls-11" d="M50.76,571.7l-0.17-.16A1.21,1.21,0,0,0,50.76,571.7Z"/><path class="cls-11" d="M50.73,570.21c0.12,0,.32.25,0.52,0.34-0.24-.24-0.58-0.35-1-0.68,0.25,0.14-.12-0.19-0.12-0.21,0.21,0.18.73,0.55,0.84,0.61-0.13-.12.15,0,0.18,0-0.37-.17-0.15-0.2-0.54-0.39s-0.47-.45-0.22-0.3,0.16,0.15.15,0.17a5.81,5.81,0,0,0,.64.39,5.22,5.22,0,0,0-1.31-1.27c-0.19-.11,0,0.07,0,0.13a2.48,2.48,0,0,1,.65.48c-0.17-.08.09,0.18-0.23-0.07l-0.31-.3a0.4,0.4,0,0,0-.34.52l0.07-.06a1.51,1.51,0,0,1,.34.35l0.63,0.41c-0.06,0,0,.07-0.2-0.09a4,4,0,0,0,.62.45c0.07,0.13-.18,0,0.19.3,0.57,0.28-.36-0.38.15-0.16Z"/><polygon class="cls-11" points="50.92 570.65 50.63 570.4 50.76 570.55 50.92 570.65"/><path class="cls-11" d="M49.6,569.64l0.32,0.25C50,569.91,49.85,569.78,49.6,569.64Z"/><path class="cls-11" d="M51.29,570.11L51.23,570l-0.14-.05A1.15,1.15,0,0,1,51.29,570.11Z"/><path class="cls-11" d="M50,568.58c0,0.12.27,0.36-.1,0.21,0.37,0.33.76,0.53,1.11,0.81,0.12,0-.56-0.47-0.66-0.6,0.35,0.23,0-.12.08-0.1A5.36,5.36,0,0,1,50,568.58Z"/><path class="cls-11" d="M51.48,569.29s-0.22-.26,0-0.17,0.28,0.24.21,0.22c0.5,0.34,0-.09.3,0.11a1.63,1.63,0,0,1-.25-0.17c0.18,0-.37-0.34,0-0.26a2.4,2.4,0,0,0-.43-0.36c0.46,0.23.43,0.27,0.85,0.45-0.19-.14-0.65-0.43-1.06-0.73,0.66,0.31,0-.17.49,0.07,0,0,.11.11,0,0.09,0.58,0.41-.06-0.14.08-0.09l0.48,0.36c-0.05-.09-0.32-0.39.07-0.18l0.24,0.19a0.9,0.9,0,0,1-.17-0.57l0.33,0.18c-0.29-.38-0.25,0-0.92-0.62,0.9,0.64-.25-0.27.15-0.07s0.14,0.2.57,0.46c-0.45-.35-0.11-0.13-0.22-0.26a6.69,6.69,0,0,1,.58.35l-0.72-.7c0.26,0.16.24,0.1,0.2,0s-0.63-.49-0.88-0.56c0.13,0.26.15,0.54-.17,0.5a3.29,3.29,0,0,1,.4.45l-0.56-.38a1.88,1.88,0,0,0,.54.4,1.1,1.1,0,0,1-.54-0.3,1.24,1.24,0,0,0,.46.39l-0.68-.44c0.06,0.33.32,0.9-.2,0.85l0.42,0.28c-0.3-.07.79,0.82-0.15,0.27l0.33,0.29c-0.19-.16-0.63-0.43-0.89-0.66a1,1,0,0,1,.05.16l0.23,0.09c0.32,0.29.08,0.17-.23,0a5,5,0,0,0,1.1.71c-0.68-.65.81,0.44,0.57,0.11A2.6,2.6,0,0,0,51.48,569.29Z"/><path class="cls-11" d="M50.26,568.6l0.1,0.09Z"/><path class="cls-11" d="M52.29,567.6a0,0,0,0,0,0,0C52.19,567.47,52.25,567.54,52.29,567.6Z"/><polygon class="cls-11" points="50.41 568.9 50.41 568.91 50.41 568.9 50.41 568.9"/><polygon class="cls-11" points="51.37 569.68 51.41 569.67 51.22 569.53 51.37 569.68"/><path class="cls-11" d="M53,567.69l-0.21-.16Z"/><path class="cls-11" d="M53.7,567h0S53.72,567,53.7,567Z"/><path class="cls-11" d="M54.61,564.82a2.3,2.3,0,0,0-.5-0.6l0.21,0.16a2.66,2.66,0,0,0-.79-0.67l0.18,0.15c0.27,0.3-.39-0.21-0.57-0.26a3.84,3.84,0,0,1,.61.67A1.19,1.19,0,0,1,53.4,564a4.23,4.23,0,0,0,.56.58c-1.64-1.17.33,0.49-.77-0.19a0.58,0.58,0,0,0,.18.41c-0.38-.33-0.08,0-0.53-0.31,0.93,0.71-.56-0.12.63,0.76a0.57,0.57,0,0,0-.28,0,0.36,0.36,0,0,1-.14-0.14c-0.28-.14.46,0.43-0.1,0.07a1.9,1.9,0,0,0,.6.53,2.87,2.87,0,0,1-.87-0.47,1.69,1.69,0,0,1,.52.53,0.73,0.73,0,0,1,.38.23,1.45,1.45,0,0,0,.4.55,3.4,3.4,0,0,0-.51-0.39,3.83,3.83,0,0,0-.62-0.66c-0.09.05-.06,0.22,0.14,0.5-0.12,0-.28-0.24-0.36-0.25-0.34-.12.55,0.6,0.22,0.46l-0.31-.25c0.4,0.35-.2.08,0,0.33a3.12,3.12,0,0,1,.38.27c-0.81-.6.34,0.42-0.29,0.07a2.34,2.34,0,0,1,.77.74,6,6,0,0,1-.5-0.34c0.36,0.14-.51-0.49-0.7-0.72a1.23,1.23,0,0,0,.23.44L52,566.43c-0.11,0,.87.73,0.43,0.52l-0.29-.22c-0.07.18-.72,0-0.15,0.57,0.24,0.19.86,0.55,1,.68-0.16-.22-0.56-0.58-0.73-0.79l0.47,0.34a5.33,5.33,0,0,0-.73-0.59c-0.21-.22.43,0.27,0.2,0,0.48,0.36.51,0.43,0.92,0.72L53,567.46c0.18,0.15.18,0.09,0.36,0.25-0.53-.51.31,0.05,0.11-0.22l-0.12,0a0.75,0.75,0,0,1-.29-0.28,1.74,1.74,0,0,0,.55.28,4.14,4.14,0,0,1-.62-0.62,7,7,0,0,0,.78.43,2.11,2.11,0,0,1-.4-0.45c-0.09-.1,0-0.1.27,0.1L53.7,567h0l0.11,0.09s-0.34-.29-0.07-0.13a0.49,0.49,0,0,1,.16.17c0.13,0-.7-0.68-0.19-0.39a4.81,4.81,0,0,0-.76-0.66,1.69,1.69,0,0,0,.6.33c-0.44-.37.21,0.06-0.05-0.19,0.44,0.4.13,0.1,0.56,0.48a3,3,0,0,0-.23-0.4l0.36,0.24c-0.14-.14-0.5-0.44-0.1-0.19l-0.33-.23a1.23,1.23,0,0,1,.53.16l-0.58-.51c0.71,0.41.19-.12-0.33-0.59a0.61,0.61,0,0,1,.33.13l0.2,0.19c0.05,0,.44.19-0.06-0.21a1.64,1.64,0,0,1,.48.26c-0.67-.61.71,0.15-0.38-0.68,0,0-.3-0.07-0.29,0a3.83,3.83,0,0,1-.36-0.3c0-.1.43,0.17,0.29,0l0.7,0.52C55.14,565.49,53.54,564.17,54.61,564.82Z"/><path class="cls-11" d="M54,565.63l0.39,0.21-0.31-.22S54.11,565.69,54,565.63Z"/><path class="cls-11" d="M54.08,565.63L54,565.49s0,0,0,.08Z"/><path class="cls-11" d="M54.63,564.55s0.11,0,0,0S54.53,564.46,54.63,564.55Z"/><polygon class="cls-11" points="54.46 564.34 54.33 564.28 54.41 564.35 54.46 564.34"/><path class="cls-11" d="M54.83,562.54l-0.37-.39c0.23,0.15,0-.13.38,0.17a2.08,2.08,0,0,0-.67-0.65c0.09,0.4-.56.39-0.09,1.12l-0.27-.26c0.49,0.56-.77-0.29.31,0.66l-0.58-.45c-0.21-.06.77,0.74,0.1,0.35l0.25,0.17s-0.13-.06-0.14,0l0.11,0.07c0.21,0.22.16,0.22,0,.15s-0.07-.08-0.11-0.13c-0.21-.12.17,0.21,0.14,0.24a1.62,1.62,0,0,1-.35-0.26c0.19,0.29-.47-0.12.37,0.6a1.77,1.77,0,0,1,.37.29c0.32,0.13,0-.17-0.18-0.41v0c-0.83-.68.22,0.1-0.09-0.24,0.34,0.28.31,0.31,0.49,0.46,0.73,0.39-.41-0.49.48,0.06l0,0c0.09,0,0-.09-0.11-0.17a2.31,2.31,0,0,0-.28-0.14c-0.07-.08-0.44-0.37-0.59-0.49,0.4,0.25-.16-0.17.05-0.06a2.51,2.51,0,0,1,.48.42l-0.21-.22a3,3,0,0,1,.62.36c-0.24-.23-0.21-0.12-0.56-0.42,0.47,0.28.48,0,.2-0.33a1.85,1.85,0,0,1,.29.28c0.09,0-.06-0.14-0.33-0.33s0-.19.32-0.06l-0.28-.18c-0.42-.38.42,0.13,0.22-0.15h0a2.48,2.48,0,0,1-.51-0.52C54.55,562.29,54.5,562.3,54.83,562.54Z"/><path class="cls-11" d="M54.42,561.78l0.36,0.3a2.22,2.22,0,0,0-.6-0.53c0.07,0.08-.12,0,0.09.15C54.33,561.73,54.46,561.83,54.42,561.78Z"/><path class="cls-11" d="M54.77,561.17c-0.08-.07-0.22-0.18-0.33-0.26,0,0.15,0,.41-0.33.24a4.41,4.41,0,0,0,.52.53l-0.4-.26c0.22,0.2-.25,0,0.39.41,0.06,0-.28-0.24-0.15-0.18l0.21,0.16,0-.11,0.26,0.21c0.44,0.21-.77-0.64-0.46-0.55l0.54,0.4c0.07,0-.09-0.2.28,0a0.53,0.53,0,0,0-.17-0.11,3,3,0,0,1-.42-0.28c-0.36-.4.31,0.25,0.58,0.35-0.32-.35-0.52-0.72-0.05-0.45a1.31,1.31,0,0,1-.6-0.53,3.47,3.47,0,0,1,.47.38c0.07,0,.22.1,0.15,0a4.18,4.18,0,0,1-.86-0.69C54,560.31,54.91,561.12,54.77,561.17Z"/><path class="cls-11" d="M54.34,560.81a0.46,0.46,0,0,0,.11.11l0-.05Z"/><polygon class="cls-11" points="46.87 574.1 47.01 574.15 46.69 573.9 46.87 574.1"/><path class="cls-11" d="M48.19,574.81l-0.09-.16a10.28,10.28,0,0,0-1.43-.92,4.51,4.51,0,0,0,.79.72c0-.05-0.37-0.35-0.22-0.3,0.27,0.22.21,0.23,0.56,0.51s-0.21-.21,0-0.17Z"/><path class="cls-11" d="M47.28,574l0.46,0.35A3.11,3.11,0,0,0,47.28,574Z"/><path class="cls-11" d="M47.21,573.93a2,2,0,0,1,.41.29l-0.59-.5Z"/><path class="cls-11" d="M47.36,573.81l0-.06C47.21,573.68,47.29,573.75,47.36,573.81Z"/><path class="cls-11" d="M47.34,573.68c-0.22-.14-0.11,0,0,0.07l0,0a1.16,1.16,0,0,1,.48.4c0.07,0.11-.36-0.21-0.1,0l0.39,0.22A6.36,6.36,0,0,0,47.34,573.68Z"/><path class="cls-11" d="M47.36,573.81a0,0,0,0,1,0,0C47.45,573.89,47.41,573.85,47.36,573.81Z"/><polygon class="cls-11" points="47.25 573.85 47.33 573.93 47.52 574.07 47.25 573.85"/><path class="cls-11" d="M47.4,573.53a2,2,0,0,1,.33.39,2.11,2.11,0,0,1,.81.47l-0.15-.19A8.43,8.43,0,0,0,47.4,573.53Z"/><path class="cls-11" d="M49,574.53l-0.09-.09Z"/><path class="cls-11" d="M48.17,573.49l0.51,0.57a3,3,0,0,1-.43-0.37,1.68,1.68,0,0,0,.16.29c-0.57-.4,0-0.11-0.5-0.45,0,0,0,.11.44,0.49l-0.42-.22,0.63,0.43c0.19,0.11-.45-0.4,0-0.1a1.33,1.33,0,0,1,.36.31,4.64,4.64,0,0,0,.52.13C49.42,574.44,48.43,573.75,48.17,573.49Z"/><polygon class="cls-11" points="48.85 573.98 49.1 574.14 48.77 573.91 48.85 573.98"/><path class="cls-11" d="M48.16,573.25l0.34,0.35-0.31-.2,0.49,0.38c0.58,0.37-.12-0.21-0.19-0.32a3.8,3.8,0,0,1,.85.57s-0.17-.08-0.23-0.07c0.67,0.4.15-.1,0-0.25a0.4,0.4,0,0,0-.2-0.1l-0.16-.17C48.3,573.16,48.15,573.11,48.16,573.25Z"/><path class="cls-11" d="M48.07,573.38c0-.06,0,0,0.1,0C48,573.29,47.91,573.22,48.07,573.38Z"/><path class="cls-11" d="M49.12,573.68s0,0,0,0S49.16,573.72,49.12,573.68Z"/><path class="cls-11" d="M48.43,573.24h0.09l-0.28-.17A0.69,0.69,0,0,0,48.43,573.24Z"/><path class="cls-11" d="M50.61,572c-0.23-.16-0.36-0.23-0.34-0.16a1.77,1.77,0,0,1-.36-0.38,4.53,4.53,0,0,1-.65-0.46,1.58,1.58,0,0,1,.18.34l-0.33-.23c0.14,0.21.33,0.53,0,.41s-0.05.13,0,.31c-0.33.12-.2,0.6-0.67,0.64L49.06,573a1.86,1.86,0,0,1-.42-0.22c0.08,0,0,0,0,0-0.55-.32-0.06.18-0.3,0.11a7.59,7.59,0,0,1,.71.52c-0.65-.48,0,0.09-0.81-0.44-0.23-.07.57,0.42,0.42,0.41a2.76,2.76,0,0,0,.53.27,0.72,0.72,0,0,0,.23.26c0.27,0-.39-0.76-0.48-1.08L49.33,573c-0.2-.27-0.11-0.42.53-0.06-0.36-.24.28,0-0.52-0.55a0.49,0.49,0,0,0,.26.1l-0.24-.19a4.35,4.35,0,0,0,.43.18,4.33,4.33,0,0,1-.7-0.54c0.42,0.22.8,0.39,1.14,0.56-0.11-.07-0.24-0.16-0.4-0.25,0.15,0.05-.18-0.18-0.29-0.27a3.47,3.47,0,0,1,.66.44c0.18,0-.63-0.6-0.32-0.44l-0.36-.24a1.11,1.11,0,0,0,.32-0.05,1.46,1.46,0,0,1,.55.53,2.19,2.19,0,0,1,.32.15l-0.72-.7C50.52,572.15,50.56,572,50.61,572Z"/><path class="cls-11" d="M50.71,572.42l0.17,0.16s-0.05-.06,0-0.05Z"/><path class="cls-11" d="M50.61,572l0.05,0A0.08,0.08,0,0,0,50.61,572Z"/><path class="cls-11" d="M49.1,571.56h0Z"/><path class="cls-11" d="M50.64,572.76l-0.41-.22A1.27,1.27,0,0,0,50.64,572.76Z"/><path class="cls-11" d="M49.94,572.9C50,573,50.1,573,50.2,573.12A0.42,0.42,0,0,0,49.94,572.9Z"/><polygon class="cls-11" points="50.86 572.4 50.79 572.27 50.71 572.18 50.86 572.4"/><path class="cls-11" d="M49.84,570c-0.45-.25-0.24,0-0.37,0,0.14,0.26.89,0.67,0.87,0.81l-0.84-.64c0,0.14-.3.15,0.38,0.78a1.54,1.54,0,0,1-.35-0.26c0,0.09,1.19.92,0.84,0.8a7.22,7.22,0,0,0-1-.75l-0.05-.06a1.62,1.62,0,0,1,.18.39,2.4,2.4,0,0,1,.57.44,3.92,3.92,0,0,1,.52.36,2,2,0,0,0-.3-0.39c0.31,0.18.08,0.09,0.38,0.26l-0.24-.24a2.82,2.82,0,0,0,.36.24,0.45,0.45,0,0,1-.25-0.31l0.09,0.08a0.66,0.66,0,0,0-.41-0.38l0.5,0.31-0.33-.23c0.18,0,1,.55.65,0.15a1.2,1.2,0,0,1-.33-0.25c-0.25-.12.21,0.23,0.22,0.3a8.16,8.16,0,0,0-.89-0.67,2.09,2.09,0,0,1,.84.43c0.1,0-.28-0.34,0-0.27L50.93,571c-0.52-.4.28,0.12-0.23-0.32l-0.14-.05a0.47,0.47,0,0,1-.23-0.23l0.19,0.13A2.58,2.58,0,0,1,50,570a1.16,1.16,0,0,0,.27.36A2,2,0,0,1,49.84,570Z"/><path class="cls-11" d="M50.76,571.7l-0.17-.16A1.21,1.21,0,0,0,50.76,571.7Z"/><path class="cls-11" d="M50.73,570.21c0.12,0,.32.25,0.52,0.34-0.24-.24-0.58-0.35-1-0.68,0.25,0.14-.12-0.19-0.12-0.21,0.21,0.18.73,0.55,0.84,0.61-0.13-.12.15,0,0.18,0-0.37-.17-0.15-0.2-0.54-0.39s-0.47-.45-0.22-0.3,0.16,0.15.15,0.17a5.81,5.81,0,0,0,.64.39,5.22,5.22,0,0,0-1.31-1.27c-0.19-.11,0,0.07,0,0.13a2.48,2.48,0,0,1,.65.48c-0.17-.08.09,0.18-0.23-0.07l-0.31-.3a0.4,0.4,0,0,0-.34.52l0.07-.06a1.51,1.51,0,0,1,.34.35l0.63,0.41c-0.06,0,0,.07-0.2-0.09a4,4,0,0,0,.62.45c0.07,0.13-.18,0,0.19.3,0.57,0.28-.36-0.38.15-0.16Z"/><polygon class="cls-11" points="50.92 570.65 50.63 570.4 50.76 570.55 50.92 570.65"/><path class="cls-11" d="M49.6,569.64l0.32,0.25C50,569.91,49.85,569.78,49.6,569.64Z"/><path class="cls-11" d="M51.29,570.11L51.23,570l-0.14-.05A1.15,1.15,0,0,1,51.29,570.11Z"/><path class="cls-11" d="M50,568.58c0,0.12.27,0.36-.1,0.21,0.37,0.33.76,0.53,1.11,0.81,0.12,0-.56-0.47-0.66-0.6,0.35,0.23,0-.12.08-0.1A5.36,5.36,0,0,1,50,568.58Z"/><path class="cls-11" d="M51.48,569.29s-0.22-.26,0-0.17,0.28,0.24.21,0.22c0.5,0.34,0-.09.3,0.11a1.63,1.63,0,0,1-.25-0.17c0.18,0-.37-0.34,0-0.26a2.4,2.4,0,0,0-.43-0.36c0.46,0.23.43,0.27,0.85,0.45-0.19-.14-0.65-0.43-1.06-0.73,0.66,0.31,0-.17.49,0.07,0,0,.11.11,0,0.09,0.58,0.41-.06-0.14.08-0.09l0.48,0.36c-0.05-.09-0.32-0.39.07-0.18l0.24,0.19a0.9,0.9,0,0,1-.17-0.57l0.33,0.18c-0.29-.38-0.25,0-0.92-0.62,0.9,0.64-.25-0.27.15-0.07s0.14,0.2.57,0.46c-0.45-.35-0.11-0.13-0.22-0.26a6.69,6.69,0,0,1,.58.35l-0.72-.7c0.26,0.16.24,0.1,0.2,0s-0.63-.49-0.88-0.56c0.13,0.26.15,0.54-.17,0.5a3.29,3.29,0,0,1,.4.45l-0.56-.38a1.88,1.88,0,0,0,.54.4,1.1,1.1,0,0,1-.54-0.3,1.24,1.24,0,0,0,.46.39l-0.68-.44c0.06,0.33.32,0.9-.2,0.85l0.42,0.28c-0.3-.07.79,0.82-0.15,0.27l0.33,0.29c-0.19-.16-0.63-0.43-0.89-0.66a1,1,0,0,1,.05.16l0.23,0.09c0.32,0.29.08,0.17-.23,0a5,5,0,0,0,1.1.71c-0.68-.65.81,0.44,0.57,0.11A2.6,2.6,0,0,0,51.48,569.29Z"/><path class="cls-11" d="M50.26,568.6l0.1,0.09Z"/><path class="cls-11" d="M52.29,567.6a0,0,0,0,0,0,0C52.19,567.47,52.25,567.54,52.29,567.6Z"/><polygon class="cls-11" points="50.41 568.9 50.41 568.91 50.41 568.9 50.41 568.9"/><polygon class="cls-11" points="51.37 569.68 51.41 569.67 51.22 569.53 51.37 569.68"/><path class="cls-11" d="M53,567.69l-0.21-.16Z"/><path class="cls-11" d="M53.7,567h0S53.72,567,53.7,567Z"/><path class="cls-11" d="M54.61,564.82a2.3,2.3,0,0,0-.5-0.6l0.21,0.16a2.66,2.66,0,0,0-.79-0.67l0.18,0.15c0.27,0.3-.39-0.21-0.57-0.26a3.84,3.84,0,0,1,.61.67A1.19,1.19,0,0,1,53.4,564a4.23,4.23,0,0,0,.56.58c-1.64-1.17.33,0.49-.77-0.19a0.58,0.58,0,0,0,.18.41c-0.38-.33-0.08,0-0.53-0.31,0.93,0.71-.56-0.12.63,0.76a0.57,0.57,0,0,0-.28,0,0.36,0.36,0,0,1-.14-0.14c-0.28-.14.46,0.43-0.1,0.07a1.9,1.9,0,0,0,.6.53,2.87,2.87,0,0,1-.87-0.47,1.69,1.69,0,0,1,.52.53,0.73,0.73,0,0,1,.38.23,1.45,1.45,0,0,0,.4.55,3.4,3.4,0,0,0-.51-0.39,3.83,3.83,0,0,0-.62-0.66c-0.09.05-.06,0.22,0.14,0.5-0.12,0-.28-0.24-0.36-0.25-0.34-.12.55,0.6,0.22,0.46l-0.31-.25c0.4,0.35-.2.08,0,0.33a3.12,3.12,0,0,1,.38.27c-0.81-.6.34,0.42-0.29,0.07a2.34,2.34,0,0,1,.77.74,6,6,0,0,1-.5-0.34c0.36,0.14-.51-0.49-0.7-0.72a1.23,1.23,0,0,0,.23.44L52,566.43c-0.11,0,.87.73,0.43,0.52l-0.29-.22c-0.07.18-.72,0-0.15,0.57,0.24,0.19.86,0.55,1,.68-0.16-.22-0.56-0.58-0.73-0.79l0.47,0.34a5.33,5.33,0,0,0-.73-0.59c-0.21-.22.43,0.27,0.2,0,0.48,0.36.51,0.43,0.92,0.72L53,567.46c0.18,0.15.18,0.09,0.36,0.25-0.53-.51.31,0.05,0.11-0.22l-0.12,0a0.75,0.75,0,0,1-.29-0.28,1.74,1.74,0,0,0,.55.28,4.14,4.14,0,0,1-.62-0.62,7,7,0,0,0,.78.43,2.11,2.11,0,0,1-.4-0.45c-0.09-.1,0-0.1.27,0.1L53.7,567h0l0.11,0.09s-0.34-.29-0.07-0.13a0.49,0.49,0,0,1,.16.17c0.13,0-.7-0.68-0.19-0.39a4.81,4.81,0,0,0-.76-0.66,1.69,1.69,0,0,0,.6.33c-0.44-.37.21,0.06-0.05-0.19,0.44,0.4.13,0.1,0.56,0.48a3,3,0,0,0-.23-0.4l0.36,0.24c-0.14-.14-0.5-0.44-0.1-0.19l-0.33-.23a1.23,1.23,0,0,1,.53.16l-0.58-.51c0.71,0.41.19-.12-0.33-0.59a0.61,0.61,0,0,1,.33.13l0.2,0.19c0.05,0,.44.19-0.06-0.21a1.64,1.64,0,0,1,.48.26c-0.67-.61.71,0.15-0.38-0.68,0,0-.3-0.07-0.29,0a3.83,3.83,0,0,1-.36-0.3c0-.1.43,0.17,0.29,0l0.7,0.52C55.14,565.49,53.54,564.17,54.61,564.82Z"/><path class="cls-11" d="M54,565.63l0.39,0.21-0.31-.22S54.11,565.69,54,565.63Z"/><path class="cls-11" d="M54.08,565.63L54,565.49s0,0,0,.08Z"/><path class="cls-11" d="M54.63,564.55s0.11,0,0,0S54.53,564.46,54.63,564.55Z"/><polygon class="cls-11" points="54.46 564.34 54.33 564.28 54.41 564.35 54.46 564.34"/><path class="cls-11" d="M54.83,562.54l-0.37-.39c0.23,0.15,0-.13.38,0.17a2.08,2.08,0,0,0-.67-0.65c0.09,0.4-.56.39-0.09,1.12l-0.27-.26c0.49,0.56-.77-0.29.31,0.66l-0.58-.45c-0.21-.06.77,0.74,0.1,0.35l0.25,0.17s-0.13-.06-0.14,0l0.11,0.07c0.21,0.22.16,0.22,0,.15s-0.07-.08-0.11-0.13c-0.21-.12.17,0.21,0.14,0.24a1.62,1.62,0,0,1-.35-0.26c0.19,0.29-.47-0.12.37,0.6a1.77,1.77,0,0,1,.37.29c0.32,0.13,0-.17-0.18-0.41v0c-0.83-.68.22,0.1-0.09-0.24,0.34,0.28.31,0.31,0.49,0.46,0.73,0.39-.41-0.49.48,0.06l0,0c0.09,0,0-.09-0.11-0.17a2.31,2.31,0,0,0-.28-0.14c-0.07-.08-0.44-0.37-0.59-0.49,0.4,0.25-.16-0.17.05-0.06a2.51,2.51,0,0,1,.48.42l-0.21-.22a3,3,0,0,1,.62.36c-0.24-.23-0.21-0.12-0.56-0.42,0.47,0.28.48,0,.2-0.33a1.85,1.85,0,0,1,.29.28c0.09,0-.06-0.14-0.33-0.33s0-.19.32-0.06l-0.28-.18c-0.42-.38.42,0.13,0.22-0.15h0a2.48,2.48,0,0,1-.51-0.52C54.55,562.29,54.5,562.3,54.83,562.54Z"/><path class="cls-11" d="M54.42,561.78l0.36,0.3a2.22,2.22,0,0,0-.6-0.53c0.07,0.08-.12,0,0.09.15C54.33,561.73,54.46,561.83,54.42,561.78Z"/><path class="cls-11" d="M54.77,561.17c-0.08-.07-0.22-0.18-0.33-0.26,0,0.15,0,.41-0.33.24a4.41,4.41,0,0,0,.52.53l-0.4-.26c0.22,0.2-.25,0,0.39.41,0.06,0-.28-0.24-0.15-0.18l0.21,0.16,0-.11,0.26,0.21c0.44,0.21-.77-0.64-0.46-0.55l0.54,0.4c0.07,0-.09-0.2.28,0a0.53,0.53,0,0,0-.17-0.11,3,3,0,0,1-.42-0.28c-0.36-.4.31,0.25,0.58,0.35-0.32-.35-0.52-0.72-0.05-0.45a1.31,1.31,0,0,1-.6-0.53,3.47,3.47,0,0,1,.47.38c0.07,0,.22.1,0.15,0a4.18,4.18,0,0,1-.86-0.69C54,560.31,54.91,561.12,54.77,561.17Z"/><path class="cls-11" d="M54.34,560.81a0.46,0.46,0,0,0,.11.11l0-.05Z"/><path class="cls-12" d="M169.59,476.32c-0.11-2-2.88-2.48-4.9-2.31-3.06.26-6.25,0.59-8.81,2.29s-4.2,5.18-2.82,7.92c1.65,3.25,6.94,4.92,6.13,8.48a6,6,0,0,1-1.64,2.56l-15.2,16.61a39.69,39.69,0,0,0,20.2-7.39c-4.18,12.51-8.41,25.54-6.76,38.62A104.67,104.67,0,0,0,167,514.37c4.68,10.76,9.81,22.08,19.42,28.81a81.79,81.79,0,0,0-13.82-41l18.64-1.42a2.07,2.07,0,0,0,1.87-.86c0.36-.81-0.43-1.65-1.15-2.17a37.94,37.94,0,0,0-26.64-6.72c-0.42-3.27,2.26-6,4.07-8.74s2.33-7.35-.72-8.58l-2.4,1.45"/><path class="cls-13" d="M479.45,476.32c-0.11-2-2.88-2.48-4.9-2.31-3.06.26-6.25,0.59-8.81,2.29s-4.2,5.18-2.82,7.92c1.65,3.25,6.94,4.92,6.13,8.48a6,6,0,0,1-1.64,2.56l-15.2,16.61a39.69,39.69,0,0,0,20.2-7.39C468.24,517,464,530,465.65,543.1a104.67,104.67,0,0,0,11.2-28.73c4.68,10.76,9.81,22.08,19.42,28.81a81.79,81.79,0,0,0-13.82-41l18.64-1.42a2.07,2.07,0,0,0,1.87-.86c0.36-.81-0.43-1.65-1.15-2.17a37.94,37.94,0,0,0-26.64-6.72c-0.42-3.27,2.26-6,4.07-8.74s2.33-7.35-.72-8.58l-2.4,1.45"/><path class="cls-13" d="M376.3,492.59c-0.11-2-2.88-2.48-4.9-2.31-3.06.26-6.25,0.59-8.81,2.29s-4.2,5.18-2.82,7.92c1.65,3.25,6.94,4.92,6.13,8.48a6,6,0,0,1-1.64,2.56l-15.2,16.61a39.69,39.69,0,0,0,20.2-7.39c-4.18,12.51-8.41,25.54-6.76,38.62a104.67,104.67,0,0,0,11.2-28.73c4.68,10.76,9.81,22.08,19.42,28.81a81.79,81.79,0,0,0-13.82-41l18.64-1.42a2.07,2.07,0,0,0,1.87-.86c0.36-.81-0.43-1.65-1.15-2.17A37.94,37.94,0,0,0,372,507.33c-0.42-3.27,2.26-6,4.07-8.74s2.33-7.35-.72-8.58l-2.4,1.45"/><path class="cls-14" d="M511.76,16.9c-0.11-2-2.88-2.48-4.9-2.31-3.06.26-6.25,0.59-8.81,2.29s-4.2,5.18-2.82,7.92c1.65,3.25,6.94,4.92,6.13,8.48a6,6,0,0,1-1.64,2.56l-15.2,16.61a39.69,39.69,0,0,0,20.2-7.39C500.54,57.57,496.3,70.6,498,83.68A104.67,104.67,0,0,0,509.16,55C513.84,65.72,519,77,528.58,83.76a81.79,81.79,0,0,0-13.82-41l18.64-1.42a2.07,2.07,0,0,0,1.87-.86c0.36-.81-0.43-1.65-1.15-2.17a37.94,37.94,0,0,0-26.64-6.72c-0.42-3.27,2.26-6,4.07-8.74s2.33-7.35-.72-8.58l-2.4,1.45"/><path class="cls-14" d="M541.57,107.57c-0.11-2-2.88-2.48-4.9-2.31-3.06.26-6.25,0.59-8.81,2.29s-4.2,5.18-2.82,7.92c1.65,3.25,6.94,4.92,6.13,8.48a6,6,0,0,1-1.64,2.56l-15.2,16.61a39.69,39.69,0,0,0,20.2-7.39c-4.18,12.51-8.41,25.54-6.76,38.62A104.67,104.67,0,0,0,539,145.62c4.68,10.76,9.81,22.08,19.42,28.81a81.79,81.79,0,0,0-13.82-41l18.64-1.42a2.07,2.07,0,0,0,1.87-.86c0.36-.81-0.43-1.65-1.15-2.17a37.94,37.94,0,0,0-26.64-6.72c-0.42-3.27,2.26-6,4.07-8.74s2.33-7.35-.72-8.58l-2.4,1.45"/><path class="cls-10" d="M519.68,14C517,4.92,500,11,498.05,18.14a8,8,0,0,0,.53,5.66c1.08,2.16,4.37,3.39,5.19,5.4,1.22,3-4.78,7.5-6.64,9.53l-8.87,9.69c-1.33,1.45-.53,4.49,1.77,4.27A44.42,44.42,0,0,0,511.5,45l-3.67-2.82c-4.24,12.73-8.28,25.71-6.85,39.28,0.24,2.3,3.34,3.61,4.66,1.26a112.88,112.88,0,0,0,11.46-29.32l-4.57.6c4.9,11.23,10.21,22.28,20.32,29.71,1.5,1.1,3.88-.37,3.76-2.16a86.62,86.62,0,0,0-14.16-42.22L520.28,43c6.24-.47,13.21-0.15,19.31-1.51,3-.66,4.76-3.05,3-6-2.2-3.65-8.74-5.79-12.59-7a41.07,41.07,0,0,0-17-1.64l2.5,2.5c0-4.68,5-7.63,5.43-12.38,0.31-3-.66-5.52-3.32-7.1a2.51,2.51,0,0,0-2.52,0l-2.4,1.45c-2.75,1.66-.24,6,2.52,4.32l2.4-1.45h-2.52c3.22,1.92-1.68,7.11-2.67,8.73a11.61,11.61,0,0,0-1.92,6.43,2.51,2.51,0,0,0,2.5,2.5,37.55,37.55,0,0,1,13.28.78c2.53,0.64,11.62,2.95,12.1,6.27L539,36.5c-1.41,1.2-7.47.69-9.42,0.84l-9.32.71c-1.76.13-3.28,2.06-2.16,3.76A81.48,81.48,0,0,1,531.6,81.5l3.76-2.16c-9.29-6.82-14.05-17.65-18.53-27.91-0.87-2-4.1-1.36-4.57.6a108,108,0,0,1-11,28.13L506,81.42c-1.38-13.16,2.57-25.62,6.67-38,0.67-2-1.89-4.06-3.67-2.82a39.43,39.43,0,0,1-18.94,7L491.8,52,503.2,39.5c2.35-2.57,6.42-5.6,6.24-9.49-0.14-2.92-2.49-4.33-4.28-6.25-8-8.56,9.26-9.92,9.7-8.45,0.91,3.08,5.74,1.77,4.82-1.33h0Z"/><path class="cls-10" d="M549.5,104.65c-2.68-9.06-19.69-3-21.63,4.17a8,8,0,0,0,.53,5.66c1.08,2.16,4.37,3.39,5.19,5.4,1.22,3-4.78,7.5-6.64,9.53l-8.87,9.69c-1.33,1.45-.53,4.49,1.77,4.27a44.42,44.42,0,0,0,21.46-7.73l-3.67-2.82c-4.24,12.73-8.28,25.71-6.85,39.28,0.24,2.3,3.34,3.61,4.66,1.26A112.88,112.88,0,0,0,546.9,144l-4.57.6c4.9,11.23,10.21,22.28,20.32,29.71,1.5,1.1,3.88-.37,3.76-2.16A86.62,86.62,0,0,0,552.25,130l-2.16,3.76c6.24-.47,13.21-0.15,19.31-1.51,3-.66,4.76-3.05,3-6-2.2-3.65-8.74-5.79-12.59-7a41.07,41.07,0,0,0-17-1.64l2.5,2.5c0-4.68,5-7.63,5.43-12.38,0.31-3-.66-5.52-3.32-7.1a2.51,2.51,0,0,0-2.52,0l-2.4,1.45c-2.75,1.66-.24,6,2.52,4.32l2.4-1.45h-2.52c3.22,1.92-1.68,7.11-2.67,8.73a11.61,11.61,0,0,0-1.92,6.43,2.51,2.51,0,0,0,2.5,2.5,37.55,37.55,0,0,1,13.28.78c2.53,0.64,11.62,2.95,12.1,6.27l0.64-2.43c-1.41,1.2-7.47.69-9.42,0.84l-9.32.71c-1.76.13-3.28,2.06-2.16,3.76a81.48,81.48,0,0,1,13.48,39.69l3.76-2.16c-9.29-6.82-14.05-17.65-18.53-27.91-0.87-2-4.1-1.36-4.57.6a108,108,0,0,1-11,28.13l4.66,1.26c-1.38-13.16,2.57-25.62,6.67-38,0.67-2-1.89-4.06-3.67-2.82a39.43,39.43,0,0,1-18.94,7l1.77,4.27L533,130.17c2.35-2.57,6.42-5.6,6.24-9.49-0.14-2.92-2.49-4.33-4.28-6.25-8-8.56,9.26-9.92,9.7-8.45,0.91,3.08,5.74,1.77,4.82-1.33h0Z"/><path class="cls-15" d="M136.81,25.26c-0.11-2-2.88-2.48-4.9-2.31-3.06.26-6.25,0.59-8.81,2.29s-4.2,5.18-2.82,7.92c1.65,3.25,6.94,4.92,6.13,8.48a6,6,0,0,1-1.64,2.56L109.57,60.8a39.69,39.69,0,0,0,20.2-7.39C125.59,65.92,121.36,79,123,92a104.67,104.67,0,0,0,11.2-28.73c4.68,10.76,9.81,22.08,19.42,28.81a81.79,81.79,0,0,0-13.82-41l18.64-1.42a2.07,2.07,0,0,0,1.87-.86c0.36-.81-0.43-1.65-1.15-2.17A37.94,37.94,0,0,0,132.53,40c-0.42-3.27,2.26-6,4.07-8.74s2.33-7.35-.72-8.58l-2.4,1.45"/><path class="cls-12" d="M83.37,408c-0.11-2-2.88-2.48-4.9-2.31-3.06.26-6.25,0.59-8.81,2.29s-4.2,5.18-2.82,7.92c1.65,3.25,6.94,4.92,6.13,8.48a6,6,0,0,1-1.64,2.56l-15.2,16.61a39.69,39.69,0,0,0,20.2-7.39c-4.18,12.51-8.41,25.54-6.76,38.62A104.67,104.67,0,0,0,80.77,446c4.68,10.76,9.81,22.08,19.42,28.81a81.79,81.79,0,0,0-13.82-41L105,432.48a2.07,2.07,0,0,0,1.87-.86c0.36-.81-0.43-1.65-1.15-2.17a37.94,37.94,0,0,0-26.64-6.72c-0.42-3.27,2.26-6,4.07-8.74s2.33-7.35-.72-8.58L80,406.86"/><path class="cls-10" d="M166.79,473.18c-2.68-9.06-19.69-3-21.63,4.17a8,8,0,0,0,.53,5.66c1.08,2.16,4.37,3.39,5.19,5.4,1.22,3-4.78,7.5-6.64,9.53l-8.87,9.69c-1.33,1.45-.53,4.49,1.77,4.27a44.42,44.42,0,0,0,21.46-7.73l-3.67-2.82c-4.24,12.73-8.28,25.71-6.85,39.28,0.24,2.3,3.34,3.61,4.66,1.26a112.88,112.88,0,0,0,11.46-29.32l-4.57.6c4.9,11.23,10.21,22.28,20.32,29.71,1.5,1.1,3.88-.37,3.76-2.16a86.62,86.62,0,0,0-14.16-42.22l-2.16,3.76c6.24-.47,13.21-0.15,19.31-1.51,3-.66,4.76-3.05,3-6-2.2-3.65-8.74-5.79-12.59-7a41.07,41.07,0,0,0-17-1.64l2.5,2.5c0-4.68,5-7.63,5.43-12.38,0.31-3-.66-5.52-3.32-7.1a2.51,2.51,0,0,0-2.52,0l-2.4,1.45c-2.75,1.66-.24,6,2.52,4.32l2.4-1.45h-2.52c3.22,1.92-1.68,7.11-2.67,8.73a11.61,11.61,0,0,0-1.92,6.43,2.51,2.51,0,0,0,2.5,2.5,37.55,37.55,0,0,1,13.28.78c2.53,0.64,11.62,2.95,12.1,6.27l0.64-2.43c-1.41,1.2-7.47.69-9.42,0.84l-9.32.71c-1.76.13-3.28,2.06-2.16,3.76a81.48,81.48,0,0,1,13.48,39.69l3.76-2.16c-9.29-6.82-14.05-17.65-18.53-27.91-0.87-2-4.1-1.36-4.57.6a108,108,0,0,1-11,28.13l4.66,1.26c-1.38-13.16,2.57-25.62,6.67-38,0.67-2-1.89-4.06-3.67-2.82a39.43,39.43,0,0,1-18.94,7l1.77,4.27,11.4-12.46c2.35-2.57,6.42-5.6,6.24-9.49-0.14-2.92-2.49-4.33-4.28-6.25-8-8.56,9.26-9.92,9.7-8.45,0.91,3.08,5.74,1.77,4.82-1.33h0Z"/><path class="cls-10" d="M85.78,402.81c-2.68-9.06-19.69-3-21.63,4.17a8,8,0,0,0,.53,5.66c1.08,2.16,4.37,3.39,5.19,5.4,1.22,3-4.78,7.5-6.64,9.53l-8.87,9.69c-1.33,1.45-.53,4.49,1.77,4.27a44.42,44.42,0,0,0,21.46-7.73L73.92,431c-4.24,12.73-8.28,25.71-6.85,39.28,0.24,2.3,3.34,3.61,4.66,1.26a112.88,112.88,0,0,0,11.46-29.32l-4.57.6c4.9,11.23,10.21,22.28,20.32,29.71,1.5,1.1,3.88-.37,3.76-2.16a86.62,86.62,0,0,0-14.16-42.22l-2.16,3.76c6.24-.47,13.21-0.15,19.31-1.51,3-.66,4.76-3.05,3-6-2.2-3.65-8.74-5.79-12.59-7a41.07,41.07,0,0,0-17-1.64l2.5,2.5c0-4.68,5-7.63,5.43-12.38,0.31-3-.66-5.52-3.32-7.1a2.51,2.51,0,0,0-2.52,0l-2.4,1.45c-2.75,1.66-.24,6,2.52,4.32l2.4-1.45H81.18c3.22,1.92-1.68,7.11-2.67,8.73a11.61,11.61,0,0,0-1.92,6.43,2.51,2.51,0,0,0,2.5,2.5,37.55,37.55,0,0,1,13.28.78c2.53,0.64,11.62,2.95,12.1,6.27l0.64-2.43c-1.41,1.2-7.47.69-9.42,0.84l-9.32.71c-1.76.13-3.28,2.06-2.16,3.76a81.48,81.48,0,0,1,13.48,39.69l3.76-2.16c-9.29-6.82-14.05-17.65-18.53-27.91-0.87-2-4.1-1.36-4.57.6a108,108,0,0,1-11,28.13l4.66,1.26c-1.38-13.16,2.57-25.62,6.67-38,0.67-2-1.89-4.06-3.67-2.82a39.43,39.43,0,0,1-18.94,7l1.77,4.27,11.4-12.46c2.35-2.57,6.42-5.6,6.24-9.49-0.14-2.92-2.49-4.33-4.28-6.25-8-8.56,9.26-9.92,9.7-8.45,0.91,3.08,5.74,1.77,4.82-1.33h0Z"/><path class="cls-13" d="M528.22,405.5c-0.11-2-2.88-2.48-4.9-2.31-3.06.26-6.25,0.59-8.81,2.29s-4.2,5.18-2.82,7.92c1.65,3.25,6.94,4.92,6.13,8.48a6,6,0,0,1-1.64,2.56L501,441a39.69,39.69,0,0,0,20.2-7.39c-4.18,12.51-8.41,25.54-6.76,38.62a104.67,104.67,0,0,0,11.2-28.73c4.68,10.76,9.81,22.08,19.42,28.81a81.79,81.79,0,0,0-13.82-41L549.87,430a2.07,2.07,0,0,0,1.87-.86c0.36-.81-0.43-1.65-1.15-2.17a37.94,37.94,0,0,0-26.64-6.72c-0.42-3.27,2.26-6,4.07-8.74s2.33-7.35-.72-8.58l-2.4,1.45"/><path class="cls-10" d="M478.13,472.18c-2.68-9.06-19.69-3-21.63,4.17A8,8,0,0,0,457,482c1.08,2.16,4.37,3.39,5.19,5.4,1.22,3-4.78,7.5-6.64,9.53l-8.87,9.69c-1.33,1.45-.53,4.49,1.77,4.27a44.42,44.42,0,0,0,21.46-7.73l-3.67-2.82C462,513.06,458,526,459.42,539.62c0.24,2.3,3.34,3.61,4.66,1.26a112.88,112.88,0,0,0,11.46-29.32l-4.57.6c4.9,11.23,10.21,22.28,20.32,29.71,1.5,1.1,3.88-.37,3.76-2.16a86.62,86.62,0,0,0-14.16-42.22l-2.16,3.76c6.24-.47,13.21-0.15,19.31-1.51,3-.66,4.76-3.05,3-6-2.2-3.65-8.74-5.79-12.59-7a41.07,41.07,0,0,0-17-1.64l2.5,2.5c0-4.68,5-7.63,5.43-12.38,0.31-3-.66-5.52-3.32-7.1a2.51,2.51,0,0,0-2.52,0l-2.4,1.45c-2.75,1.66-.24,6,2.52,4.32l2.4-1.45h-2.52c3.22,1.92-1.68,7.11-2.67,8.73a11.61,11.61,0,0,0-1.92,6.43,2.51,2.51,0,0,0,2.5,2.5,37.55,37.55,0,0,1,13.28.78c2.53,0.64,11.62,2.95,12.1,6.27l0.64-2.43c-1.41,1.2-7.47.69-9.42,0.84l-9.32.71c-1.76.13-3.28,2.06-2.16,3.76A81.48,81.48,0,0,1,490,539.7l3.76-2.16c-9.29-6.82-14.05-17.65-18.53-27.91-0.87-2-4.1-1.36-4.57.6a108,108,0,0,1-11,28.13l4.66,1.26c-1.38-13.16,2.57-25.62,6.67-38,0.67-2-1.89-4.06-3.67-2.82a39.43,39.43,0,0,1-18.94,7l1.77,4.27,11.4-12.46c2.35-2.57,6.42-5.6,6.24-9.49-0.14-2.92-2.49-4.33-4.28-6.25-8-8.56,9.26-9.92,9.7-8.45,0.91,3.08,5.74,1.77,4.82-1.33h0Z"/><path class="cls-10" d="M375,488.45c-2.68-9.06-19.69-3-21.63,4.17a8,8,0,0,0,.53,5.66c1.08,2.16,4.37,3.39,5.19,5.4,1.22,3-4.78,7.5-6.64,9.53l-8.87,9.69c-1.33,1.45-.53,4.49,1.77,4.27a44.42,44.42,0,0,0,21.46-7.73l-3.67-2.82c-4.24,12.73-8.28,25.71-6.85,39.28,0.24,2.3,3.34,3.61,4.66,1.26a112.88,112.88,0,0,0,11.46-29.32l-4.57.6c4.9,11.23,10.21,22.28,20.32,29.71,1.5,1.1,3.88-.37,3.76-2.16a86.62,86.62,0,0,0-14.16-42.22l-2.16,3.76c6.24-.47,13.21-0.15,19.31-1.51,3-.66,4.76-3.05,3-6-2.2-3.65-8.74-5.79-12.59-7a41.07,41.07,0,0,0-17-1.64l2.5,2.5c0-4.68,5-7.63,5.43-12.38,0.31-3-.66-5.52-3.32-7.1a2.51,2.51,0,0,0-2.52,0l-2.4,1.45c-2.75,1.66-.24,6,2.52,4.32l2.4-1.45h-2.52c3.22,1.92-1.68,7.11-2.67,8.73a11.61,11.61,0,0,0-1.92,6.43,2.51,2.51,0,0,0,2.5,2.5,37.55,37.55,0,0,1,13.28.78c2.53,0.64,11.62,2.95,12.1,6.27l0.64-2.43c-1.41,1.2-7.47.69-9.42,0.84l-9.32.71c-1.76.13-3.28,2.06-2.16,3.76A81.48,81.48,0,0,1,386.89,556l3.76-2.16c-9.29-6.82-14.05-17.65-18.53-27.91-0.87-2-4.1-1.36-4.57.6a108,108,0,0,1-11,28.13l4.66,1.26c-1.38-13.16,2.57-25.62,6.67-38,0.67-2-1.89-4.06-3.67-2.82a39.43,39.43,0,0,1-18.94,7l1.77,4.27L358.5,514c2.35-2.57,6.42-5.6,6.24-9.49-0.14-2.92-2.49-4.33-4.28-6.25-8-8.56,9.26-9.92,9.7-8.45,0.91,3.08,5.74,1.77,4.82-1.33h0Z"/><path class="cls-10" d="M526.9,401.35c-2.68-9.06-19.69-3-21.63,4.17a8,8,0,0,0,.53,5.66c1.08,2.16,4.37,3.39,5.19,5.4,1.22,3-4.78,7.5-6.64,9.53l-8.87,9.69c-1.33,1.45-.53,4.49,1.77,4.27a44.42,44.42,0,0,0,21.46-7.73L515,429.51c-4.24,12.73-8.28,25.71-6.85,39.28,0.24,2.3,3.34,3.61,4.66,1.26a112.88,112.88,0,0,0,11.46-29.32l-4.57.6c4.9,11.23,10.21,22.28,20.32,29.71,1.5,1.1,3.88-.37,3.76-2.16a86.62,86.62,0,0,0-14.16-42.22l-2.16,3.76c6.24-.47,13.21-0.15,19.31-1.51,3-.66,4.76-3.05,3-6-2.2-3.65-8.74-5.79-12.59-7a41.07,41.07,0,0,0-17-1.64l2.5,2.5c0-4.68,5-7.63,5.43-12.38,0.31-3-.66-5.52-3.32-7.1a2.51,2.51,0,0,0-2.52,0l-2.4,1.45c-2.75,1.66-.24,6,2.52,4.32l2.4-1.45H522.3c3.22,1.92-1.68,7.11-2.67,8.73a11.61,11.61,0,0,0-1.92,6.43,2.51,2.51,0,0,0,2.5,2.5,37.55,37.55,0,0,1,13.28.78c2.53,0.64,11.62,2.95,12.1,6.27l0.64-2.43c-1.41,1.2-7.47.69-9.42,0.84l-9.32.71c-1.76.13-3.28,2.06-2.16,3.76a81.48,81.48,0,0,1,13.48,39.69l3.76-2.16c-9.29-6.82-14.05-17.65-18.53-27.91-0.87-2-4.1-1.36-4.57.6a108,108,0,0,1-11,28.13l4.66,1.26c-1.38-13.16,2.57-25.62,6.67-38,0.67-2-1.89-4.06-3.67-2.82a39.43,39.43,0,0,1-18.94,7l1.77,4.27,11.4-12.46c2.35-2.57,6.42-5.6,6.24-9.49-0.14-2.92-2.49-4.33-4.28-6.25-8-8.56,9.26-9.92,9.7-8.45,0.91,3.08,5.74,1.77,4.82-1.33h0Z"/><path class="cls-16" d="M491,124c2.61,3.05,6.16,5.06,8.94,7.93,0.44,0.45,1.66,1.45,1.72,2.07,0.14,1.4-1.83,2.65-2.75,3.41a88.6,88.6,0,0,1-7.84,5.71c-2.68,1.76-.18,6.09,2.52,4.32a98.62,98.62,0,0,0,9.47-7c2.31-1.95,4.68-3.76,3.78-7-1.58-5.78-8.65-8.69-12.3-13-2.1-2.45-5.62,1.1-3.54,3.54h0Z"/><line class="cls-8" x1="437.7" y1="136.24" x2="502.85" y2="135.3"/><path class="cls-16" d="M437.7,138.74l65.14-.94c3.21,0,3.22-5,0-5l-65.14.94c-3.21,0-3.22,5,0,5h0Z"/><path class="cls-16" d="M452.85,64c4.35,0.76,8.73-.09,13.08.49,1.61,0.21,2.19.14,2.58,1.71,0.24,1-.49,2.89-0.68,3.85-0.6,3-1.37,5.92-2.25,8.83-0.94,3.09,3.89,4.4,4.82,1.33a91.34,91.34,0,0,0,2.82-12c0.43-2.65.92-5.11-1.5-6.92-4.83-3.61-12.08-1.12-17.54-2.07-3.15-.55-4.5,4.27-1.33,4.82h0Z"/><line class="cls-8" x1="420.34" y1="107.71" x2="469.65" y2="65.12"/><path class="cls-16" d="M422.11,109.48l49.31-42.58c2.44-2.11-1.11-5.63-3.54-3.54l-49.31,42.58c-2.44,2.11,1.11,5.63,3.54,3.54h0Z"/><path class="cls-9" d="M435.93,302.45c-3,2.62-5,6.17-7.91,9-0.45.44-1.45,1.66-2.07,1.73-1.4.15-2.66-1.81-3.42-2.74a88.44,88.44,0,0,1-5.72-7.83c-1.76-2.68-6.09-.17-4.32,2.52a98.63,98.63,0,0,0,7,9.45c2,2.31,3.77,4.67,7,3.77,5.78-1.59,8.67-8.67,12.92-12.33,2.44-2.1-1.11-5.62-3.54-3.54h0Z"/><line class="cls-8" x1="420.34" y1="149.1" x2="424.63" y2="314.33"/><path class="cls-9" d="M417.84,149.1l3.75,144.46,0.54,20.78c0.08,3.21,5.08,3.22,5,0l-3.75-144.46-0.54-20.78c-0.08-3.21-5.08-3.22-5,0h0Z"/><path class="cls-7" d="M167.6,63.59c3.58-2.59,6.09-6.33,9.63-8.93,1.55-1.14,1.6-1.45,3.15-.33,0.93,0.68,1.65,2.33,2.27,3.27,1.62,2.44,3.08,4.95,4.47,7.52,1.53,2.83,5.84.31,4.32-2.52a91.82,91.82,0,0,0-6.74-10.79c-1.36-1.86-2.56-3.64-5.1-3.58-6.1.13-10.13,7.89-14.52,11.06-2.59,1.87-.09,6.2,2.52,4.32h0Z"/><line class="cls-8" x1="175.59" y1="117.49" x2="180.25" y2="52.51"/><path class="cls-7" d="M178.09,117.49l4.66-65c0.23-3.21-4.77-3.2-5,0l-4.66,65c-0.23,3.21,4.77,3.2,5,0h0Z"/><path class="cls-7" d="M97,117c-1.19-4.31-4.06-8-5.18-12.29a6.47,6.47,0,0,1-.39-2.26c0.29-.61,4-1.14,4.6-1.28a94.41,94.41,0,0,1,9.37-1.79c3.17-.46,1.82-5.28-1.33-4.82a81.52,81.52,0,0,0-13.21,2.84c-2.28.73-3.84,1.62-4.28,4.14-1,5.88,4.12,11.44,5.59,16.8,0.85,3.1,5.68,1.78,4.82-1.33h0Z"/><line class="cls-8" x1="150.37" y1="128.29" x2="90.95" y2="101.58"/><path class="cls-7" d="M151.63,126.13L92.21,99.42c-2.91-1.31-5.46,3-2.52,4.32l59.42,26.72c2.91,1.31,5.46-3,2.52-4.32h0Z"/><path class="cls-10" d="M125,400.57c-3.26-2.21-7.11-3.22-10.5-5.17-0.62-.35-2.24-1.08-2.48-1.7-0.48-1.21,1.17-3.13,1.76-4a87.87,87.87,0,0,1,6-7.59c2.12-2.41-1.4-6-3.54-3.54a97.74,97.74,0,0,0-7.72,9.91c-1.71,2.54-3,4.75-1.1,7.52,3.33,4.86,10.39,5.7,15,8.84,2.67,1.81,5.17-2.52,2.52-4.32h0Z"/><line class="cls-8" x1="173.08" y1="374.58" x2="110.52" y2="392.78"/><path class="cls-10" d="M172.42,372.17l-62.56,18.2c-3.08.9-1.77,5.72,1.33,4.82L173.74,377c3.08-.9,1.77-5.72-1.33-4.82h0Z"/><path class="cls-10" d="M200.16,448.35c-3.58,2.6-6.07,6.35-9.6,9-1.54,1.14-1.6,1.47-3.15.36-0.93-.67-1.66-2.33-2.28-3.26-1.62-2.43-3.1-4.94-4.49-7.51-1.54-2.83-5.86-.31-4.32,2.52a92.23,92.23,0,0,0,6.78,10.76c1.36,1.85,2.57,3.63,5.11,3.57,6.1-.14,10.1-7.92,14.48-11.1,2.58-1.87.08-6.21-2.52-4.32h0Z"/><line class="cls-8" x1="191.97" y1="394.48" x2="187.55" y2="459.48"/><path class="cls-10" d="M189.47,394.48l-4.42,65c-0.22,3.21,4.78,3.2,5,0l4.42-65c0.22-3.21-4.78-3.2-5,0h0Z"/><path class="cls-10" d="M394.26,459.35c-4.32,1.14-8,4-12.34,5.07a5.6,5.6,0,0,1-2.25.34c-0.61-.3-1.11-4.05-1.24-4.61a94.41,94.41,0,0,1-1.71-9.39c-0.43-3.17-5.25-1.82-4.82,1.33a81.09,81.09,0,0,0,2.72,13.23c0.71,2.3,1.6,3.84,4.12,4.3,5.87,1.08,11.47-4,16.85-5.45,3.11-.82,1.79-5.65-1.33-4.82h0Z"/><line class="cls-8" x1="406.01" y1="406.03" x2="378.76" y2="465.2"/><path class="cls-10" d="M403.86,404.77L376.6,463.94c-1.34,2.9,3,5.45,4.32,2.52l27.25-59.17c1.34-2.9-3-5.45-4.32-2.52h0Z"/><path class="cls-10" d="M496,404c-0.41,4.27.86,8.5,0.55,12.77,0,0.65-.06,2.08-0.69,2.58s-3.1-.24-3.89-0.33a87.36,87.36,0,0,1-9.6-1.63c-3.13-.7-4.47,4.12-1.33,4.82a97,97,0,0,0,12.23,1.94c2.89,0.26,5.44.54,7.07-2.26,3-5.21.12-12.26,0.67-17.88,0.31-3.2-4.69-3.18-5,0h0Z"/><line class="cls-8" x1="450.01" y1="374.47" x2="496.2" y2="420.41"/><path class="cls-10" d="M448.24,376.24l46.2,45.94c2.28,2.27,5.82-1.26,3.54-3.54l-46.2-45.94c-2.28-2.27-5.82,1.26-3.54,3.54h0Z"/><path class="cls-10" d="M462.73,438.87c-2.57,3.44-3.73,7.68-6.25,11.14-2.07,2.84-3.43.78-5.88-1.19-2.28-1.83-4.43-3.79-6.53-5.82-2.31-2.24-5.85,1.29-3.54,3.54a96.18,96.18,0,0,0,8.92,7.68c2.48,1.87,4.69,3.7,7.7,2.05,5.25-2.87,6.53-10.38,9.89-14.88,1.93-2.58-2.41-5.07-4.32-2.52h0Z"/><line class="cls-8" x1="439.09" y1="389.5" x2="454.33" y2="452.84"/><path class="cls-10" d="M436.68,390.16l15.23,63.34c0.75,3.13,5.57,1.8,4.82-1.33l-15.23-63.34c-0.75-3.13-5.57-1.8-4.82,1.33h0Z"/><path class="cls-17" d="M355.87,91.68c3.19,3,7.42,4.72,10.58,7.75,1,0.93,1.52,1.32,1.14,2.5-0.31,1-1.93,2.08-2.7,2.85a95.11,95.11,0,0,1-7.13,6.34c-2.5,2,1.06,5.55,3.54,3.54a84.89,84.89,0,0,0,9.35-8.63c1.79-2,3.17-3.67,2.15-6.35-2.13-5.58-9.36-7.7-13.39-11.54-2.33-2.22-5.87,1.31-3.54,3.54h0Z"/><path class="cls-17" d="M220.82,119.83c-4,3.84-11.26,6-13.39,11.54-1,2.69.36,4.4,2.15,6.35a84.89,84.89,0,0,0,9.35,8.63c2.48,2,6-1.51,3.54-3.54C220.2,141,218,139.06,215.9,137a16.14,16.14,0,0,1-2.79-2.84c-1-1.73-.87-1.59.66-3.07,3.13-3,7.4-4.71,10.58-7.75,2.33-2.23-1.21-5.76-3.54-3.54h0Z"/><line class="cls-8" x1="209.51" y1="133.52" x2="370.24" y2="100.1"/><path class="cls-17" d="M210.17,135.93l141-29.32,19.69-4.09c3.15-.65,1.82-5.48-1.33-4.82L228.53,127l-19.69,4.09c-3.15.65-1.82,5.48,1.33,4.82h0Z"/><path class="cls-15" d="M42.29,72.85c-0.11-2-2.88-2.48-4.9-2.31-3.06.26-6.25,0.59-8.81,2.29s-4.2,5.18-2.82,7.92c1.65,3.25,6.94,4.92,6.13,8.48a6,6,0,0,1-1.64,2.56L15,108.4A39.69,39.69,0,0,0,35.25,101c-4.18,12.51-8.41,25.54-6.76,38.62a104.67,104.67,0,0,0,11.2-28.73c4.68,10.76,9.81,22.08,19.42,28.81a81.79,81.79,0,0,0-13.82-41l18.64-1.42a2.07,2.07,0,0,0,1.87-.86c0.36-.81-0.43-1.65-1.15-2.17A37.94,37.94,0,0,0,38,87.59c-0.42-3.27,2.26-6,4.07-8.74s2.33-7.35-.72-8.58L39,71.72"/><path class="cls-10" d="M145.14,20.17c-2.68-9.06-19.69-3-21.63,4.17A8,8,0,0,0,124,30c1.08,2.16,4.37,3.39,5.19,5.4,1.22,3-4.78,7.5-6.64,9.53l-8.87,9.69c-1.33,1.45-.53,4.49,1.77,4.27A44.42,44.42,0,0,0,137,51.16l-3.67-2.82C129,61.06,125,74,126.42,87.62c0.24,2.3,3.34,3.61,4.66,1.26a112.88,112.88,0,0,0,11.46-29.32l-4.57.6c4.9,11.23,10.21,22.28,20.32,29.71,1.5,1.1,3.88-.37,3.76-2.16a86.62,86.62,0,0,0-14.16-42.22l-2.16,3.76c6.24-.47,13.21-0.15,19.31-1.51,3-.66,4.76-3.05,3-6-2.2-3.65-8.74-5.79-12.59-7a41.07,41.07,0,0,0-17-1.64l2.5,2.5c0-4.68,5-7.63,5.43-12.38,0.31-3-.66-5.52-3.32-7.1a2.51,2.51,0,0,0-2.52,0l-2.4,1.45c-2.75,1.66-.24,6,2.52,4.32l2.4-1.45h-2.52c3.22,1.92-1.68,7.11-2.67,8.73a11.61,11.61,0,0,0-1.92,6.43,2.51,2.51,0,0,0,2.5,2.5,37.55,37.55,0,0,1,13.28.78c2.53,0.64,11.62,2.95,12.1,6.27l0.64-2.43c-1.41,1.2-7.47.69-9.42,0.84l-9.32.71c-1.76.13-3.28,2.06-2.16,3.76A81.48,81.48,0,0,1,157.05,87.7l3.76-2.16c-9.29-6.82-14.05-17.65-18.53-27.91-0.87-2-4.1-1.36-4.57.6a108,108,0,0,1-11,28.13l4.66,1.26C130,74.46,134,62,138.1,49.66c0.67-2-1.89-4.06-3.67-2.82a39.43,39.43,0,0,1-18.94,7l1.77,4.27,11.4-12.46c2.35-2.57,6.42-5.6,6.24-9.49-0.14-2.92-2.49-4.33-4.28-6.25-8-8.56,9.26-9.92,9.7-8.45,0.91,3.08,5.74,1.77,4.82-1.33h0Z"/><path class="cls-10" d="M50.62,67.77c-2.68-9.06-19.69-3-21.63,4.17a8,8,0,0,0,.53,5.66C30.6,79.76,33.89,81,34.71,83c1.22,3-4.78,7.5-6.64,9.53l-8.87,9.69c-1.33,1.45-.53,4.49,1.77,4.27a44.42,44.42,0,0,0,21.46-7.73l-3.67-2.82c-4.24,12.73-8.28,25.71-6.85,39.28,0.24,2.3,3.34,3.61,4.66,1.26A112.88,112.88,0,0,0,48,107.15l-4.57.6C48.35,119,53.66,130,63.77,137.46c1.5,1.1,3.88-.37,3.76-2.16A86.62,86.62,0,0,0,53.37,93.08l-2.16,3.76c6.24-.47,13.21-0.15,19.31-1.51,3-.66,4.76-3.05,3-6-2.2-3.65-8.74-5.79-12.59-7a41.07,41.07,0,0,0-17-1.64l2.5,2.5c0-4.68,5-7.63,5.43-12.38,0.31-3-.66-5.52-3.32-7.1a2.51,2.51,0,0,0-2.52,0l-2.4,1.45c-2.75,1.66-.24,6,2.52,4.32L48.54,68H46c3.22,1.92-1.68,7.11-2.67,8.73a11.61,11.61,0,0,0-1.92,6.43,2.51,2.51,0,0,0,2.5,2.5,37.55,37.55,0,0,1,13.28.78c2.53,0.64,11.62,2.95,12.1,6.27L70,90.3c-1.41,1.2-7.47.69-9.42,0.84l-9.32.71c-1.76.13-3.28,2.06-2.16,3.76A81.48,81.48,0,0,1,62.53,135.3l3.76-2.16c-9.29-6.82-14.05-17.65-18.53-27.91-0.87-2-4.1-1.36-4.57.6a108,108,0,0,1-11,28.13l4.66,1.26c-1.38-13.16,2.57-25.62,6.67-38,0.67-2-1.89-4.06-3.67-2.82a39.43,39.43,0,0,1-18.94,7l1.77,4.27,11.4-12.46c2.35-2.57,6.42-5.6,6.24-9.49-0.14-2.92-2.49-4.33-4.28-6.25-8-8.56,9.26-9.92,9.7-8.45,0.91,3.08,5.74,1.77,4.82-1.33h0Z"/><rect class="cls-10" x="389.32" y="331.86" width="68.27" height="68.27" rx="5.04" ry="5.04" transform="translate(-73.9 109.27) rotate(-13.54)"/><path class="cls-12" d="M433.42,346.61c-4.33-3.45-10.61-4.18-15.89-2.54-5,1.55-7.53,6.16-8.46,11-1.34,7-.53,14.67.09,21.75q0.52,6,1.45,12c0.4,2.58.22,5.89,2.59,7.45a2.5,2.5,0,0,0,2.54,0l0.48-.29a2.55,2.55,0,0,0,1.16-2.85l-0.19-.53a2.66,2.66,0,0,0-2.43-1.85l-0.56-.06c-3.22-.34-3.2,4.7,0,5l0.56,0.06L412.33,394l0.19,0.53,1.16-2.85-0.48.29h2.54c0.14,0.09-.48-5.76-0.56-6.32q-0.62-4.38-1-8.8c-0.41-4.75-.63-9.51-0.63-14.28,0-3.52-.08-7.82,2-10.87,2.73-4.1,10.56-4.55,14.35-1.53,2.51,2,6.1-1.54,3.56-3.56h0Z"/><path class="cls-12" d="M401.23,378l18.35-3c3.38-.55,6.61-1.1,7-5,0.29-3.23-4.75-3.21-5,0,0,0.07-19.64,2.82-21.61,3.15-3.19.52-1.84,5.38,1.34,4.86h0Z"/><path class="cls-18" d="M457.31,389.4c-0.16,3-5,2.71-6.83,3l-13.09,1.93-30.19,4.46c-1.91.28-5.38,1.53-7.28,1.08-2.66-.63-2.38-3.61-2.69-5.69L393,365.8l-2.22-15c-0.34-2.3-1.56-5.78-1.2-8.1,0.41-2.62,2.58-2.49,4.63-2.79l11.63-1.72,31.24-4.61c2.77-.41,6.34-1.6,9.14-1.35,2.42,0.21,2.83,1.57,3.14,3.67l8,53.83c0.24,1.6,2.66.92,2.43-.67l-7.89-53.4c-0.37-2.51-.64-5.25-3.66-6-2.06-.48-4.89.43-6.9,0.73l-32.94,4.87-14,2.07c-2.22.33-5.09,0.29-6.53,2.33s-0.45,4.86-.13,7l2.07,14,4.87,32.94c0.29,2,.22,4.86,1.3,6.63,1.63,2.67,4.49,2,7,1.62l34.64-5.12,15.73-2.32c3.33-.49,6.28-0.94,6.51-5.1C459.92,387.78,457.4,387.78,457.31,389.4Z"/><rect class="cls-7" x="130.53" y="107.63" width="72.5" height="72.5" rx="5.04" ry="5.04" transform="translate(-22.72 31.6) rotate(-10.14)"/><path class="cls-10" d="M199.72,168.54c-0.27,3-5.31,2.51-7.26,2.72l-13,1.44-30.53,3.37c-1.9.21-4.84,1.13-6.74,0.74-2.85-.58-2.41-3.56-2.65-5.75l-3.22-29.17-1.56-14.08c-0.27-2.42-1.3-5.81-.91-8.23,0.46-2.84,2.44-2.56,4.67-2.8l11.87-1.31,30.91-3.42c2.93-.32,6.37-1.24,9.32-1,2.45,0.18,2.88,1.37,3.12,3.48l6,54c0.18,1.59,2.7,1.61,2.52,0l-5.92-53.61c-0.28-2.54-.37-5.46-3.35-6.36-2-.6-4.77.21-6.75,0.42l-33.53,3.71-13.89,1.54c-2.19.24-5,.11-6.56,2s-0.72,4.83-.47,7.05l1.58,14.29,3.64,32.9c0.21,1.94.06,4.92,1.08,6.7,1.55,2.69,4.36,2.12,6.87,1.85l35.48-3.92,15.31-1.69c3.32-.37,6.15-0.84,6.51-4.88C202.39,166.93,199.87,166.93,199.72,168.54Z"/><path class="cls-12" d="M182.08,117.43a10.38,10.38,0,0,0-3.07,4.9,15.67,15.67,0,0,1,6.84-4.08,40.77,40.77,0,0,1-2.45,7.81,13.49,13.49,0,0,1,7-1.88,11.56,11.56,0,0,1-6.87,7.64c-2,.79-4.65,1.3-5.33,3.38-0.43,1.29.13,2.68,0.66,3.94,1.83,4.34,3.48,8.88,3.55,13.59s-1.68,9.68-5.51,12.43c-3.41,2.45-7.82,2.81-12,3.54a57.59,57.59,0,0,0-24.13,10.39,34.63,34.63,0,0,1,10.64-17.79,66.68,66.68,0,0,1-19.19-1.57,6.56,6.56,0,0,1-5.94-5.5,61.89,61.89,0,0,1-3-21.27c10.88,10.71,29.91,11.69,41.83,2.15l-4.11-5.1c-0.59-.74-1.22-1.65-0.93-2.55,0.24-.73,1.69-5.26,2.39-5.57,3.3-1.46,12.89.78,16.48,0.43"/><path class="cls-10" d="M181.19,116.54A14.49,14.49,0,0,0,177.8,122c-0.45,1.25,1.25,2,2.11,1.23a15.84,15.84,0,0,1,6.29-3.75l-1.55-1.55a50.42,50.42,0,0,1-2.45,7.81c-0.44,1.1,1,1.88,1.85,1.42a13.4,13.4,0,0,1,6.37-1.71l-1.22-1.6c-1.53,4.53-4.41,5.82-8.43,7.65-1.62.74-3.2,1.54-3.78,3.37-0.82,2.62,1.13,5.58,2,7.9,1.61,4.39,2.85,9.2,1.8,13.87-2.32,10.3-12.78,9.71-21,11.93A60.68,60.68,0,0,0,140.2,178l1.85,1.42a35.25,35.25,0,0,1,10.31-17.24,1.27,1.27,0,0,0-.89-2.15c-7.22.36-20.14,1.5-23.92-6.14-3-6-3.07-14.4-2.94-20.94l-2.15.89c11.76,11,30.49,12.13,43.35,2.35a1.29,1.29,0,0,0,.26-2c-1.89-2.35-4.7-4.92-4.19-8,0.46-2.79,1.79-3.55,4.4-3.58,4.26-.05,8.47,1.13,12.74.93,1.62-.07,1.62-2.59,0-2.52-4.52.21-14.05-3.34-17.67,0.24-1.13,1.12-2.23,4.32-2.42,5.83-0.43,3.41,3.47,6.53,5.37,8.88l0.26-2a31.58,31.58,0,0,1-40.3-2,1.28,1.28,0,0,0-2.15.89,67.68,67.68,0,0,0,1,13.77c0.65,3.54,1.3,8.16,3.49,11.15s5.84,3.27,9.1,3.83a72,72,0,0,0,15.74.85l-0.89-2.15a37.63,37.63,0,0,0-11,18.35,1.27,1.27,0,0,0,1.85,1.42,60.63,60.63,0,0,1,25.39-10.52c6.61-1.16,12.6-2.78,15.43-9.49a19.26,19.26,0,0,0,1.3-9.2c-0.38-4.34-2.82-8-3.5-12.17-0.9-5.45,3.35-4.94,6.69-7.35a13.45,13.45,0,0,0,4.85-6.94,1.27,1.27,0,0,0-1.22-1.6,17.44,17.44,0,0,0-7.64,2l1.85,1.42a50.42,50.42,0,0,0,2.45-7.81,1.27,1.27,0,0,0-1.55-1.55,20.15,20.15,0,0,0-7.4,4.4l2.11,1.23a9.13,9.13,0,0,1,2.74-4.34,1.26,1.26,0,0,0-1.78-1.78h0Z"/><rect class="cls-12" x="375.77" y="85.34" width="72.5" height="72.5" rx="5.04" ry="5.04" transform="translate(210.1 500.77) rotate(-78.41)"/><path class="cls-16" d="M431.81,154.55c-1.4,2.79-5.34.73-7.32,0.19l-12.1-3.27L384.87,144c-1.79-.48-4.91-0.69-6.47-1.75-2.36-1.61-.84-4.27-0.28-6.36l7.1-26.26,3.47-12.84c0.6-2.23.87-5.52,2-7.54,1.42-2.45,3.29-1.45,5.4-.88L407,91.34,435.17,99c4.14,1.12,11.3,1.18,9.78,6.83l-13.27,49.07a1.26,1.26,0,0,0,2.43.67l13.27-49.07c0.65-2.41,1.36-5-1-6.8-1.59-1.18-4.27-1.45-6.1-1.94l-30.32-8.2L396.81,86c-2-.55-4.37-1.57-6.38-0.42s-2.35,3.89-2.9,6L384,104.36l-8.2,30.32c-0.51,1.88-1.67,4.41-1.38,6.43,0.41,2.89,3,3.52,5.31,4.16l31.94,8.64,14.49,3.92c3.09,0.84,6,1.53,7.77-2C434.71,154.37,432.53,153.09,431.81,154.55Z"/><path class="cls-9" d="M433.65,104.13c-10.68-4.71-22-8.21-32.08-.26-8.21,6.48-15,18.23-13.82,29,2.34,22.21,40.3,9.71,41.15-8a2.56,2.56,0,0,0-2.52-2.52,120.87,120.87,0,0,1-19.24-2.52c-3.16-.68-4.52,4.18-1.34,4.86a129.41,129.41,0,0,0,20.58,2.7l-2.52-2.52c-0.36,7.57-8.8,11.63-15.1,13.66-4.07,1.31-8.85,2.08-12.61-.49-4.08-2.78-3.81-7.69-2.82-12,1.71-7.44,6.17-14.75,12.54-19.1,8.1-5.53,17.15-2,25.24,1.55,2.94,1.3,5.51-3,2.54-4.35h0Z"/><polygon class="cls-12" points="239.57 398.48 158.81 405.68 151.75 353.06 235.6 341.81 239.57 398.48"/><path class="cls-10" d="M237,391.28l-71.44,11.22,1.55,0.88L157.72,357l-0.88,1.55,73.95-15-1.55-.88,6.91,50.2c0.22,1.6,2.65.92,2.43-.67L231.67,342a1.28,1.28,0,0,0-1.55-.88l-73.95,15a1.28,1.28,0,0,0-.88,1.55l9.42,46.41a1.29,1.29,0,0,0,1.55.88l71.44-11.22C239.3,393.46,238.62,391,237,391.28Z"/><path class="cls-10" d="M226.64,345l-10.1,12.56L209,366.95c-1.35,1.68-4.5,4.32-5.15,6.41-0.37,1.18-.68,0,0.6.3a10.11,10.11,0,0,1-1.57-.5c-2.45-1-5.13-1.65-7.66-2.46l-22.93-7.38-15.58-5c-1.55-.5-2.21,1.93-0.67,2.43l47.83,15.39a1.23,1.23,0,0,0,1.23-.32l23.32-29c1-1.25-.77-3-1.78-1.78h0Z"/><path class="cls-10" d="M186.9,371.09a282.08,282.08,0,0,1-16.82,26.14c-1,1.31,1.23,2.57,2.18,1.27a282.08,282.08,0,0,0,16.82-26.14,1.26,1.26,0,0,0-2.18-1.27h0Z"/><path class="cls-10" d="M210,369c8.49,8.29,19,15,26.43,24.35,1,1.27,2.78-.52,1.78-1.78-7.42-9.32-17.94-16.06-26.43-24.35A1.26,1.26,0,0,0,210,369h0Z"/><path class="cls-17" d="M375.38,380.24c2.44,3.81,7.15,6.74,8.91,10.87,0.64,1.51.73,0.94,0.11,1.91s-2.41,1.56-3.36,2.12a95.11,95.11,0,0,1-8.45,4.44c-2.91,1.36-.38,5.68,2.52,4.32a86.83,86.83,0,0,0,11.15-6.13c1.93-1.28,3.72-2.4,3.74-5,0.05-6.05-7.38-10.54-10.3-15.09-1.73-2.7-6.06-.2-4.32,2.52h0Z"/><path class="cls-17" d="M237.57,375.1c-4.81,2.76-11.8,3.06-15.48,7.61-1.74,2.15-1.32,4-.16,6.34a71.35,71.35,0,0,0,7.38,11.32c1.92,2.54,6.26,0,4.32-2.52a95.14,95.14,0,0,1-5.4-7.87c-0.57-.94-1.88-2.38-2-3.42-0.11-1.35.64-1.57,2-2.3,3.75-2.06,8.12-2.69,11.85-4.84,2.79-1.6.27-5.93-2.52-4.32h0Z"/><line class="cls-8" x1="223.27" y1="385.68" x2="387.32" y2="391.9"/><path class="cls-17" d="M223.27,388.18l144,5.45,20.09,0.76c3.22,0.12,3.21-4.88,0-5l-144-5.45-20.09-.76c-3.22-.12-3.21,4.88,0,5h0Z"/><path class="cls-10" d="M338.31,249.66c4.52-2.9,4.63-11.13-.76-13.24-4.13-1.61-10.69-1.29-6.94-7.42,2.51-4.1,4.34-6.94.51-10.88-4-4.1-6.66-3.14-11.14-.4-1.9,1.16-4,2.5-5.89.36-1.47-1.66-1.11-5-1.93-7.06-1.79-4.49-9.21-5.67-12.45-2-2.55,2.9-1,11.63-6.79,10-4.34-1.24-6.76-6.35-11.54-2.61-3.73,2.92-5.14,6-2.68,10.19,1.09,1.87,3.11,3.83,2.59,6.07-0.64,2.77-3.81,2.74-6.13,3.3-2.14.52-4,1-5.11,3.1-1.22,2.29-1.33,6.75.3,8.92,2.52,3.35,10.3,1.47,11,5.91s-5.84,7-3.77,11.79c1.59,3.71,6,6.76,9.87,5,1.86-.84,3.68-3,5.65-3.45,2.85-.69,3.93,1.52,4.49,3.84,1.34,5.57,3.23,9.34,10,8.08s3-10.65,8.32-11.88c4.94-1.15,7.81,7,13.31,2.86,4.62-3.51,5-6.83,2.13-11.53-1.24-2-3.33-4.65-.87-6.73,1.58-1.34,5.21-1.49,7.22-2,3.13-.75,1.8-5.58-1.33-4.82-3.87.93-8.5,1.12-10.71,4.85-2.42,4.09-1.13,7.11,1.11,10.77,1.38,2.25,2.34,2.46.46,4.33s-2.42.71-4.75-.72c-3.67-2.25-6.85-3.14-10.79-.6a7,7,0,0,0-3,4.4c-0.42,1.45-.52,5.23-1.76,6.07-1,.67-3.09,0-3.65-0.63s-0.62-2.56-.81-3.36c-0.51-2.1-.81-4.31-2.52-5.84-3.14-2.8-7.17-2.78-10.57-.76-1.11.66-3.7,2.87-4.75,2.59a12.49,12.49,0,0,1-2.33-2.33c-0.15-.59.44-1.25,0.88-1.95,2.47-3.94,4.38-6.8,2.11-11.4a6.77,6.77,0,0,0-4.13-3.8c-1.51-.55-5.38-0.43-6.44-1.55-2-2.1-.29-3.84,1.71-4.41s4.55-.69,6.4-1.85c3.32-2.09,4.43-7.23,2.76-10.54-0.65-1.29-3.42-4.08-3.34-5.46,0.07-1,2.09-2.72,3-2.69,1.61,0,3.95,2.63,5.46,3.34a7,7,0,0,0,6.16,0c5.28-2.09,4.17-5.33,6.14-9.72,0.71-1.59-.1-1.16,1.51-1.73s2.27-.06,2.93,1c1,1.61.78,4.25,1.46,6,1.6,4.28,7.23,6.28,11.22,4.27,1.3-.66,4.32-3.6,5.67-3.51a13.06,13.06,0,0,1,2.55,2.55c0.15,0.59-.44,1.24-0.88,1.95-2.7,4.3-4.76,8.15-1.35,12.87,1.33,1.84,3.24,2.3,5.31,2.8,1,0.25,3.49.34,4.28,1s1.33,3.36,0,4.21C333.09,247.07,335.59,251.4,338.31,249.66Z"/><path class="cls-10" d="M316.31,243.18c-0.7,13.94-21.85,14.17-21.85,0s21.14-14,21.85,0c0.16,3.2,5.16,3.22,5,0-0.44-8.65-6.94-15.92-15.92-15.92a15.92,15.92,0,0,0,0,31.85c9,0,15.49-7.28,15.92-15.92C321.47,240,316.47,240,316.31,243.18Z"/><path class="cls-7" d="M154.95,201.92c3.08-3.14,4.83-7.35,7.89-10.47,1-1,1.34-1.49,2.52-1.08,1,0.34,2.05,2,2.81,2.76a95.11,95.11,0,0,1,6.25,7.22c2,2.53,5.51-1,3.54-3.54a83.64,83.64,0,0,0-8.5-9.46c-2-1.82-3.63-3.19-6.33-2.19-5.59,2.07-7.82,9.26-11.71,13.23-2.25,2.3,1.28,5.84,3.54,3.54h0Z"/><path class="cls-7" d="M181.26,337.39c3.78,4.07,5.79,11.35,11.36,13.53,2.67,1,4.41-.35,6.38-2.1a86.18,86.18,0,0,0,8.75-9.23c2-2.46-1.47-6-3.54-3.54-1.87,2.24-3.81,4.42-5.88,6.48a15.53,15.53,0,0,1-2.88,2.75c-1.73.95-1.63,0.78-3.06-.75-3-3.19-4.61-7.46-7.6-10.68-2.19-2.36-5.72,1.18-3.54,3.54h0Z"/><line class="cls-8" x1="194.77" y1="348.86" x2="163.54" y2="187.69"/><path class="cls-7" d="M197.18,348.2l-27.4-141.43L165.95,187c-0.61-3.16-5.43-1.82-4.82,1.33l27.4,141.43,3.83,19.74c0.61,3.16,5.43,1.82,4.82-1.33h0Z"/></g></g></g></svg>