<svg xmlns="http://www.w3.org/2000/svg" xmlns:xlink="http://www.w3.org/1999/xlink" viewBox="0 0 580 580"><defs><style>.cls-1,.cls-15{fill:none;}.cls-2,.cls-7{fill:#fff;}.cls-15,.cls-2{stroke:#014e7f;stroke-linecap:round;stroke-linejoin:round;stroke-width:4px;}.cls-3{isolation:isolate;}.cls-4{clip-path:url(#clip-path);}.cls-5{fill:#fdea8b;}.cls-6{opacity:0.45;mix-blend-mode:multiply;fill:url(#linear-gradient);}.cls-8{fill:#014e7f;}.cls-9{fill:#fbb03b;}.cls-10{fill:#ffec8d;}.cls-11{fill:#da1f47;}.cls-12{clip-path:url(#clip-path-2);}.cls-13{fill:#21648f;}.cls-14{fill:#d91e47;}</style><clipPath id="clip-path"><rect class="cls-1" width="580" height="580"/></clipPath><linearGradient id="linear-gradient" x1="-149.17" y1="158.45" x2="427.71" y2="158.45" gradientTransform="translate(321.81 23.32) rotate(90)" gradientUnits="userSpaceOnUse"><stop offset="0" stop-color="#fff"/><stop offset="0.6" stop-color="#9acd72"/></linearGradient><clipPath id="clip-path-2"><circle class="cls-2" cx="339.3" cy="304.68" r="83.29"/></clipPath></defs><title>iiLAB -U1-concepts-04-DEVICE SEIZED</title><g class="cls-3"><g id="Layer_2" data-name="Layer 2"><g class="cls-4"><rect class="cls-5" x="-28.78" y="-23.12" width="645" height="645"/><circle class="cls-6" cx="163.36" cy="162.59" r="288.44" transform="translate(-62.33 115.85) rotate(-33.16)"/><path class="cls-7" d="M257.78,247.65q13.33-79.39,25.93-158.9Q180.38,90.43,77.3,98.59c-3.71.29-7.82,0.79-10.24,3.62-1.88,2.21-2.24,5.29-2.51,8.18A1084.68,1084.68,0,0,0,61.08,259.1l6.67,115.63,13.75,7.35,227-31,9.19-8.22ZM77,259.1l7.85-145.79,178.61-6.85-25.72,135Z"/><path class="cls-8" d="M278.78,233.52q13.33-79.39,25.93-158.9a2.54,2.54,0,0,0-2.41-3.16q-74.51,1.24-148.92,5.8-18.84,1.16-37.67,2.54-8.92.65-17.83,1.35c-4.25.34-8.95,0.48-12.5,3.16-3,2.24-4,5.64-4.49,9.17-0.77,5.61-1.06,11.31-1.5,17q-1.44,18.3-2.25,36.65c-2.51,56.52.92,112.52,4.17,168.88l1.84,31.83L83.68,357c0.07,1.18-.12,3.12.51,4.19,0.75,1.27,2.9,2,4.09,2.61L96,367.94c1.89,1,3.1,1.77,5.21,1.7,3.59-.13,7.31-1,10.86-1.48l126.24-17.22,63.4-8.65,19.42-2.65c2.47-.34,5.57-0.22,7.71-1.57,3.31-2.1,6.22-5.56,9.15-8.18a2.52,2.52,0,0,0,.39-3l-52.52-83.57-7.35-11.7c-1.71-2.72-6-.21-4.32,2.52l52.52,83.57,7.35,11.7,0.39-3-4.23,3.78-3.38,3c-1.1,1-2.29,1.19-.48.77-0.71.17-1.48,0.2-2.21,0.3l-14.42,2-58,7.91L118.6,362.27l-17.06,2.33a5.52,5.52,0,0,0-1.65.22c-1.06.64,1.1,0.31,1,.08-0.31-1.13-6.22-3.33-7.3-3.9l-6-3.22,1.24,2.16-6-104.73q-2.43-42.12-1.47-84.32,0.79-35.22,3.87-70.35c0.51-5.87.16-12.27,7.12-13.8,5.58-1.23,11.76-1.08,17.44-1.51q17.84-1.34,35.68-2.48,78.34-5,156.85-6.3l-2.41-3.16Q287.29,152.8,274,232.19C273.43,235.34,278.25,236.69,278.78,233.52Z"/><path class="cls-8" d="M103.42,101l60.4-2.32L260,95l22-.84L279.63,91,257.15,209l-3.25,17,2.41-1.84L115.18,239.66l-19.6,2.15,2.5,2.5,6.87-127.66,1-18.13c0.17-3.22-4.83-3.21-5,0L94.05,226.18l-1,18.13a2.51,2.51,0,0,0,2.5,2.5l141.13-15.48,19.6-2.15a2.58,2.58,0,0,0,2.41-1.84l22.48-118,3.25-17A2.53,2.53,0,0,0,282,89.17l-60.4,2.32-96.21,3.69-22,.84C100.22,96.14,100.2,101.14,103.42,101Z"/><path class="cls-8" d="M244.86,252l38.75,54c1.86,2.59,6.2.1,4.32-2.52l-38.75-54c-1.86-2.59-6.2-.1-4.32,2.52h0Z"/><path class="cls-8" d="M105.83,276c47.39-6.95,94.46-15.93,141.86-22.87,3.17-.46,1.82-5.28-1.33-4.82-47.39,6.95-94.46,15.93-141.86,22.87-3.17.46-1.82,5.28,1.33,4.82h0Z"/><path class="cls-8" d="M129.59,300.6c22.11-5.61,44.25-11.4,66.75-15.24s45.62-5.69,68.49-7.68c3.18-.28,3.21-5.28,0-5-22.95,2-46,3.86-68.71,7.67s-45.39,9.73-67.86,15.43c-3.12.79-1.8,5.61,1.33,4.82h0Z"/><path class="cls-8" d="M285.78,302.18c-24.77,1-49.6,1.87-74.27,4.47-24.41,2.57-48.51,7.16-72.42,12.65-3.13.72-1.81,5.54,1.33,4.82,23.94-5.49,48.05-10.1,72.49-12.61,24.21-2.49,48.56-3.31,72.87-4.32,3.21-.13,3.22-5.13,0-5h0Z"/><path class="cls-8" d="M205.25,252l38.75,54c1.86,2.59,6.2.1,4.32-2.52l-38.75-54c-1.86-2.59-6.2-.1-4.32,2.52h0Z"/><path class="cls-8" d="M175.35,258.47L219,319.25c1.86,2.59,6.2.1,4.32-2.52l-43.64-60.78c-1.86-2.59-6.2-.1-4.32,2.52h0Z"/><path class="cls-8" d="M145.33,261l38.75,54c1.86,2.59,6.2.1,4.32-2.52l-38.75-54c-1.86-2.59-6.2-.1-4.32,2.52h0Z"/><path class="cls-8" d="M118.61,272.32l37.31,52c1.86,2.59,6.2.1,4.32-2.52l-37.31-52c-1.86-2.59-6.2-.1-4.32,2.52h0Z"/><path class="cls-8" d="M455.61,303.42c-0.29-41.35-26.29-78.95-65.23-93.24-39.29-14.43-84.89-1.74-111.14,30.83-25.88,32.12-29.27,78.23-7.88,113.63,21.53,35.64,64,54.23,104.84,46C422.12,391.44,455.28,349.95,455.61,303.42Z"/><path class="cls-8" d="M512.28,499.72c-15.6-21-40.08-59.43-52.11-82.5-2.94-5.64-6-11.23-9.29-16.68-2.54-4.2-5.15-9.89-9.16-12.9s-8.58-1.53-12.28,1.37c-5.64,4.42-10.74,9.7-16,14.53a2.4,2.4,0,0,0-.54.71l-1.18.36a2.52,2.52,0,0,0-1.75,3.08A362.32,362.32,0,0,0,453.6,490.1c9.31,13.09,33.74,39.83,44,52.19,3,3.67,7.13,11,12.93,8.57,4.7-2,9.71-7,12.45-11.27C531.93,525.81,520.46,510.61,512.28,499.72Z"/><circle class="cls-9" cx="340.26" cy="305.81" r="106.09"/><path class="cls-8" d="M449.09,305.81c-0.29-45.08-28.5-86.1-70.81-102-42.9-16.11-92.92-2.62-122,32.76-28.87,35.15-32.9,86-9.46,125.1s70,59.66,114.69,50.88c44-8.64,79.22-45.19,86.17-89.48a116,116,0,0,0,1.38-17.26c0-3.53-5.46-3.53-5.48,0-0.28,43-27.4,82.49-68,97.16-40.78,14.73-87.29,2-115-31.31s-31.25-82.41-8.68-119.52S319,195.73,361.4,204.62c47.57,10,81.89,52.78,82.2,101.19C443.63,309.34,449.11,309.35,449.09,305.81Z"/><path class="cls-10" d="M401.56,396.43a25.94,25.94,0,0,1,17,15.46"/><path class="cls-8" d="M400.83,399.08a23.49,23.49,0,0,1,15.06,13.55c1.31,3.23,6.62,1.82,5.29-1.46a29.34,29.34,0,0,0-18.89-17.38c-3.39-1-4.83,4.27-1.46,5.29h0Z"/><path class="cls-9" d="M423.64,411.58l-18.72,5.66a391.12,391.12,0,0,0,47,88.9c11.81,16.69,24.9,32.42,38,48.13,1.22,1.47,2.75,3.08,4.66,2.94a6.09,6.09,0,0,0,3.08-1.52c4.75-3.62,9.69-7.48,12.13-12.93,5.77-13-4.78-26.79-13.3-38.13-23.63-31.45-35.79-70.12-57.81-102.72-1.42-2.1-3.08-4.32-5.53-5-3.49-.92-6.83,1.7-9.49,4.13L408,415.36"/><path class="cls-8" d="M422.91,408.93l-18.72,5.66a2.77,2.77,0,0,0-1.92,3.37A398.41,398.41,0,0,0,440.5,494.1c7.92,12.25,16.59,24,25.64,35.41,4.36,5.51,8.81,11,13.28,16.38,2.44,3,4.87,5.92,7.34,8.85,2,2.32,3.86,4.84,7.1,5.12,4,0.34,7.71-3.59,10.46-6,4.54-3.93,8.31-8.72,9.46-14.74,2.16-11.28-4.76-22-11.06-30.7a314.77,314.77,0,0,1-22.28-34.48c-6.63-12.23-12.58-24.81-18.83-37.23-3.38-6.73-6.85-13.41-10.57-20-3.62-6.39-7.25-13.85-12.28-19.26-4.08-4.39-9.36-4.15-14.05-.83-6.71,4.74-12.57,11.23-18.63,16.77-2.61,2.39,1.28,6.26,3.88,3.88q7.11-6.5,14.22-13c3.07-2.79,6.62-6.89,10.71-2.94,2.14,2.07,3.63,5.22,5.21,7.73,6.17,9.8,11.58,20.05,16.78,30.39,10.52,20.9,20.22,42.37,33.68,61.61,6.28,9,14.58,17.68,17.4,28.54a17.77,17.77,0,0,1-3.28,16.16,37.53,37.53,0,0,1-5.4,5.18c-3,2.49-5,4.25-8,.63-16.75-19.7-33-40-47-61.78a391.85,391.85,0,0,1-36.69-73.31l-1.92,3.37,18.72-5.66c3.37-1,1.93-6.31-1.46-5.29h0Z"/><path class="cls-11" d="M365,343.33a6.56,6.56,0,0,0,5-.72,7,7,0,0,0,3-4c0.86-2.8-.13-6.54-3-7.82a5.44,5.44,0,0,0-3.85-.5,5.1,5.1,0,0,0-3,2.3,5,5,0,0,0-.5,3.85,4.85,4.85,0,0,0,2.3,3,1.88,1.88,0,0,1,.33.18l-1-.78a1.75,1.75,0,0,1,.24.25l-0.78-1a1.94,1.94,0,0,1,.16.3l-0.5-1.19a2.36,2.36,0,0,1,.09.34l-0.18-1.33a2.55,2.55,0,0,1,0,.61l0.18-1.33a3,3,0,0,1-.17.61l0.5-1.19a2.81,2.81,0,0,1-.31.54l0.78-1a2.34,2.34,0,0,1-.34.33l1-.78a2.06,2.06,0,0,1-.3.17l1.19-.5a1.78,1.78,0,0,1-.33.09l1.33-.18a1.79,1.79,0,0,1-.36,0l1.33,0.18-0.13,0a5.27,5.27,0,0,0-3.85.5,5.1,5.1,0,0,0-2.3,3c-0.58,2.54.76,5.53,3.49,6.15h0Z"/><circle class="cls-7" cx="337.79" cy="302.51" r="75.95"/><path class="cls-8" d="M416.59,302.51a79.74,79.74,0,0,0-51.26-73.84c-31.14-11.73-67.55-1.82-88.52,24-20.78,25.54-23.6,62.34-6.49,90.6A79.61,79.61,0,0,0,353,379.83c36.75-7.09,63.23-40.2,63.57-77.32,0-3.66-5.66-3.67-5.69,0C410.62,333,391.47,361,362.56,371.32a73.86,73.86,0,0,1-80.89-21.95c-19.68-23.44-22.39-57.84-6.78-84.14s47.16-40.52,77.29-34.42c34,6.87,58.41,37.21,58.72,71.7C410.93,306.17,416.62,306.18,416.59,302.51Z"/><circle class="cls-7" cx="339.3" cy="304.68" r="83.29"/><g class="cls-12"><polygon class="cls-13" points="307.93 295.01 307.92 295.15 308.05 294.77 307.93 295.01"/><path class="cls-13" d="M307.62,296.46l0.09-.15a11.14,11.14,0,0,0,.47-1.64,4.94,4.94,0,0,0-.39,1,0.73,0.73,0,0,1,.17-0.32c-0.11.32-.13,0.27-0.27,0.7s0.11-.27.1-0.1Z"/><path class="cls-13" d="M308,295.35l-0.19.55A5.13,5.13,0,0,0,308,295.35Z"/><path class="cls-13" d="M308.11,295.25a3,3,0,0,1-.16.47l0.29-.71Z"/><path class="cls-13" d="M308.22,295.34l0-.06C308.3,295.17,308.26,295.26,308.22,295.34Z"/><path class="cls-13" d="M308.32,295.28c0.09-.25,0-0.11-0.06,0l0,0a1.9,1.9,0,0,1-.25.57c-0.07.11,0.12-.4,0-0.07l-0.13.43C307.9,296.2,308.21,295.47,308.32,295.28Z"/><path class="cls-13" d="M308.22,295.34l0,0C308.16,295.46,308.19,295.41,308.22,295.34Z"/><polygon class="cls-13" points="308.18 295.26 308.12 295.36 308.05 295.58 308.18 295.26"/><path class="cls-13" d="M308.43,295.29a4,4,0,0,1-.27.42,3.21,3.21,0,0,1-.32.88l0.12-.2C308.1,296.13,308.32,295.62,308.43,295.29Z"/><path class="cls-13" d="M307.72,297l0.06-.11Z"/><path class="cls-13" d="M308.46,296l-0.22.31-0.21.32a4.66,4.66,0,0,1,.28-0.49,1.86,1.86,0,0,0-.21.24c0.3-.63.08,0,0.34-0.58a1,1,0,0,0-.35.54l0.17-.44-0.31.7c-0.08.2,0.28-.53,0.06,0a3.25,3.25,0,0,1-.22.41c0.09-.13-0.22.55-0.15,0.47S308.25,296.27,308.46,296Z"/><polygon class="cls-13" points="308.06 296.7 307.92 296.97 308.11 296.61 308.06 296.7"/><path class="cls-13" d="M308.63,295.89l-0.28.38,0.17-.32-0.31.53c-0.32.61,0.15-.16,0.24-0.25a6.61,6.61,0,0,1-.51.89s0.08-.17.09-0.22c-0.37.68,0,.09,0.15-0.06a0.71,0.71,0,0,0,.1-0.2l0.14-.18C308.69,296,308.74,295.86,308.63,295.89Z"/><path class="cls-13" d="M308.55,295.85s0,0,0,.1C308.61,295.78,308.67,295.66,308.55,295.85Z"/><path class="cls-13" d="M308.19,296.84s0,0,0,0S308.16,296.88,308.19,296.84Z"/><path class="cls-13" d="M308.61,296.14v0.08l0.16-.28A1,1,0,0,0,308.61,296.14Z"/><path class="cls-13" d="M308.79,297.71c0.22-.17.32-0.27,0.26-0.25a2.5,2.5,0,0,1,.44-0.28,7.22,7.22,0,0,1,.63-0.49,2.69,2.69,0,0,1-.35.13l0.31-.25c-0.23.1-.55,0.26-0.34,0s-0.09-.05-0.25,0c0-.27-0.4-0.13-0.34-0.52l-0.47.56a3.71,3.71,0,0,1,.26-0.4c0,0.08,0,0,0,0,0.35-.54-0.12,0,0-0.25-0.07.11-.43,0.63-0.51,0.71,0.47-.66,0,0,0.46-0.79,0.08-.22-0.4.59-0.36,0.45-0.27.4-.09,0.22-0.29,0.52a1.33,1.33,0,0,0-.22.27,8.19,8.19,0,0,0,.84-0.65l-0.29.34c0.24-.22.34-0.16-0.12,0.41a3.31,3.31,0,0,0,.55-0.49,0.87,0.87,0,0,0-.16.22l0.22-.22s-0.32.36-.27,0.36a6.93,6.93,0,0,1,.64-0.62c-0.3.36-.56,0.67-0.82,0.95l0.33-.33a1,1,0,0,0,.31-0.25,5.69,5.69,0,0,1-.57.55,3.17,3.17,0,0,1,.44-0.28l0.31-.29a1.15,1.15,0,0,0-.08.25,3.08,3.08,0,0,1-.62.44c-0.09.09-.1,0.12-0.25,0.25,0.24-.18.58-0.42,0.82-0.57A1.15,1.15,0,0,0,308.79,297.71Z"/><path class="cls-13" d="M308.48,297.81l-0.18.14s0.06,0,0,0Z"/><path class="cls-13" d="M308.79,297.71l-0.05,0Z"/><path class="cls-13" d="M309.76,296.53l0,0v0Z"/><path class="cls-13" d="M308.29,297.81l0.32-.33A3.34,3.34,0,0,0,308.29,297.81Z"/><path class="cls-13" d="M308.47,297.31l-0.24.24A0.94,0.94,0,0,0,308.47,297.31Z"/><polygon class="cls-13" points="308.42 297.91 308.55 297.85 308.64 297.79 308.42 297.91"/><path class="cls-13" d="M310.7,297.33c0.43-.28.12-0.19,0.18-0.28-0.28,0-1,.54-1.07.51l0.91-.52c-0.09,0,0-.29-0.8.17a2.3,2.3,0,0,1,.37-0.24c-0.07,0-1.26.82-1,.57a11.36,11.36,0,0,0,1-.74l0.07,0a2.44,2.44,0,0,1-.39.1,4.07,4.07,0,0,1-.58.42s-0.28.22-.5,0.39c0.26-.15.12,0,0.42-0.22-0.28.22-.1,0.06-0.37,0.28l0.28-.17c-0.06.06-.3,0.19-0.35,0.26a0.71,0.71,0,0,1,.35-0.18l-0.1.06a1.22,1.22,0,0,0,.48-0.28l-0.47.34,0.33-.22c-0.1.14-.89,0.65-0.45,0.44a2.29,2.29,0,0,1,.36-0.21c0.22-.17-0.28.13-0.33,0.14,0.33-.22.76-0.42,0.95-0.58a2.88,2.88,0,0,1-.75.56c0,0.07.4-.16,0.21,0l-0.13.07a1.84,1.84,0,0,1,.36-0.12l0.12-.09a0.68,0.68,0,0,1,.3-0.13l-0.2.11a3.3,3.3,0,0,1,.65-0.26,1.48,1.48,0,0,0-.43.13A2.71,2.71,0,0,1,310.7,297.33Z"/><path class="cls-13" d="M308.95,297.8l0.2-.12Z"/><path class="cls-13" d="M310.05,297.92c-0.09.07-.37,0.17-0.56,0.28,0.31-.11.6-0.31,1.06-0.49-0.25.14,0.21,0,.23,0-0.26.1-.84,0.36-1,0.42,0.17-.06-0.11.09-0.12,0.11,0.35-.2.24-0.05,0.62-0.26s0.62-.2.36-0.07-0.21.06-.22,0.06c-0.48.19-.24,0.14-0.67,0.32a10.85,10.85,0,0,0,1.75-.48c0.2-.1-0.07,0-0.12,0a3.38,3.38,0,0,1-.76.28c0.16-.09-0.19,0,0.2-0.14l0.41-.11c0.16-.21,0-0.36-0.22-0.43v0.07a2.18,2.18,0,0,1-.46.15l-0.67.35s-0.06,0,.18-0.12a7,7,0,0,0-.69.34c-0.13,0,.13-0.11-0.32.09s0.48-.19,0,0.11Z"/><polygon class="cls-13" points="309.62 297.97 309.97 297.81 309.79 297.87 309.62 297.97"/><path class="cls-13" d="M311.12,297.25l-0.37.17C310.67,297.5,310.88,297.4,311.12,297.25Z"/><path class="cls-13" d="M309.78,298.29h0.13l0.13-.08Z"/><path class="cls-13" d="M311.74,297.94c-0.1-.05-0.44,0-0.11-0.17-0.48.13-.87,0.33-1.3,0.46-0.09.07,0.7-.21,0.86-0.23-0.4.15,0.11,0,0,.09Z"/><path class="cls-13" d="M310.24,298.61s0.33,0,.14,0-0.36.07-.29,0a0.6,0.6,0,0,0-.29.12l0.29-.08c-0.12.09,0.49-.08,0.18,0.08a4.19,4.19,0,0,0,.56-0.09l-0.92.27,1.25-.26a3.75,3.75,0,0,0-.4.23s-0.15,0-.09,0c-0.7.12,0.13,0,0,.08l-0.6.08c0.1,0,.5,0,0.06.09l-0.3,0a0.81,0.81,0,0,1,.49.15l-0.37.05c0.46,0.06.21-.09,1.11-0.08-1.11.07,0.36,0-.08,0.11s-0.23,0-.74,0c0.57,0,.16,0,0.33,0-0.54,0-.07.05-0.68,0l0.5,0,0.5,0c-0.3,0-.25,0-0.18.06s0.8,0,1,0c-0.26-.11-0.45-0.26-0.17-0.4-0.73,0,0-.08-0.59,0l0.67-.08a2.48,2.48,0,0,0-.67.06,1.52,1.52,0,0,1,.6-0.12,1.53,1.53,0,0,0-.6,0l0.8-.13c-0.27-.17-0.84-0.27-0.44-0.57l-0.49.13c0.25-.16-1.12.17-0.09-0.2l-0.43.1c0.24-.06.73-0.23,1.06-0.31a1.25,1.25,0,0,1-.16,0l-0.22.11c-0.42.1-.18,0,0.18-0.13a8.27,8.27,0,0,0-1.23.43c0.93-.2-0.86.33-0.47,0.27A4.74,4.74,0,0,0,310.24,298.61Z"/><path class="cls-13" d="M311.55,298.13l-0.13,0Z"/><path class="cls-13" d="M310.72,299.7l0,0C310.87,299.74,310.78,299.72,310.72,299.7Z"/><polygon class="cls-13" points="311.23 298.1 311.22 298.1 311.23 298.1 311.23 298.1"/><polygon class="cls-13" points="310.03 298.44 310.02 298.46 310.24 298.39 310.03 298.44"/><path class="cls-13" d="M310.07,299.88l0.26,0Z"/><path class="cls-13" d="M309.83,300.34h0S309.81,300.33,309.83,300.34Z"/><path class="cls-13" d="M310.19,299.79a3.1,3.1,0,0,0-.55.53l0.16-.21a3.76,3.76,0,0,0-.65.81l0.15-.18c0.28-.29-0.23.38-0.29,0.55a5.28,5.28,0,0,1,.63-0.64,1.67,1.67,0,0,1-.25.36,5.74,5.74,0,0,0,.54-0.58c-1.17,1.64.44-.36-0.26,0.72a0.64,0.64,0,0,0,.35-0.22c-0.32.39,0,.06-0.33,0.52,0.7-.94-0.18.52,0.7-0.67a0.67,0.67,0,0,0-.07.25,0.48,0.48,0,0,1-.13.15c-0.15.27,0.41-.48,0,0.08a2.67,2.67,0,0,0,.51-0.61,4,4,0,0,1-.5.85,2.33,2.33,0,0,1,.5-0.54,1,1,0,0,1,.24-0.37,1.54,1.54,0,0,0,.48-0.43l-1.62.49h0a1,1,0,0,1,.36.14l1.08-.33s0-.11-0.15.21a5.33,5.33,0,0,0-.62.65s0.06,0,.14,0l0.55-.17a1.16,1.16,0,0,0-.28-0.22c0.11,0,.34.14,0.42,0.13,0.35,0-.72-0.36-0.38-0.31l0.38,0.12c-0.5-.18.16-0.1-0.11-0.25a4.3,4.3,0,0,1-.46-0.1c1,0.23-.5-0.2.21-0.11a4.83,4.83,0,0,1-1-.28l0.6,0.09a3.47,3.47,0,0,0,1,.29,1.15,1.15,0,0,0-.41-0.24l0.49,0.09c0.09-.06-1.11-0.22-0.62-0.22l0.36,0.05c0-.13.63-0.27-0.18-0.41-0.3,0-1,0-1.25,0,0.26,0.06.79,0.12,1,.19l-0.57-.05a9.07,9.07,0,0,0,.93.12c0.29,0.07-.51,0-0.18.06l-1.16-.15,0.29,0.06c-0.23,0-.2,0-0.44,0,0.72,0.14-.29,0,0,0.12h0.11a1.22,1.22,0,0,1,.39.09,4.3,4.3,0,0,0-.61-0.05,5.19,5.19,0,0,1,.83.23c-0.62-.13-0.35,0-0.87-0.12a2.81,2.81,0,0,1,.56.2c0.12,0,0,.06-0.28,0l-0.1,0h0l-0.13,0s0.43,0.13.12,0.07a1.07,1.07,0,0,1-.22-0.08c-0.11,0,.9.33,0.34,0.2,0.28,0.09.29,0.15,0.94,0.35a3,3,0,0,0-.66-0.17c0.53,0.21-.21,0,0.12.12-0.55-.24-0.15-0.06-0.68-0.28-0.09,0,0,0,.05,0l1.86-.56a0.59,0.59,0,0,1-.28.23l0.25-.36c-0.13.15-.43,0.51-0.17,0.12l-0.23.33a1.58,1.58,0,0,1,.2-0.5l-0.49.59c0.43-.69-0.07-0.16-0.52.38a0.83,0.83,0,0,1,.15-0.31l0.18-.21s0.21-.42-0.18.08a2.26,2.26,0,0,1,.28-0.47c-0.59.69,0.22-.66-0.6,0.44,0,0-.1.28,0,0.26-0.11.13-.26,0.35-0.29,0.36s0.19-.41,0-0.26l0.52-.7C310.8,299.22,309.52,300.84,310.19,299.79Z"/><path class="cls-13" d="M310.76,300.22l0.23-.38-0.22.31S310.82,300.11,310.76,300.22Z"/><path class="cls-13" d="M310.77,300.15l-0.12.13s0,0,.07-0.05Z"/><path class="cls-13" d="M310,299.82s0-.1,0,0S309.89,299.92,310,299.82Z"/><polygon class="cls-13" points="309.78 300 309.72 300.12 309.78 300.04 309.78 300"/><path class="cls-13" d="M308.38,299.92l-0.36.39a0.81,0.81,0,0,1,.19-0.37,2.88,2.88,0,0,0-.62.7c0.34-.14.24,0.45,0.89-0.08l-0.24.28c0.52-.52-0.34.73,0.58-0.37l-0.44.59c-0.08.2,0.7-.8,0.29-0.14l0.17-.25s-0.06.12-.05,0.13l0.07-.11c0.21-.22.2-0.17,0.11,0s-0.07.07-.12,0.11c-0.13.2,0.19-.18,0.21-0.16a2.34,2.34,0,0,1-.26.35c0.26-.21-0.16.44,0.54-0.42a2.58,2.58,0,0,1,.28-0.37c0.15-.31-0.14,0-0.36.22h0c-0.66.84,0.12-.21-0.21,0.12,0.27-.34.29-0.32,0.44-0.5,0.42-.71-0.46.44,0.12-0.44l0,0c0.05-.09-0.08.06-0.15,0.13s-0.1.18-.15,0.27-0.36.45-.48,0.6c0.26-.39-0.16.17,0,0a3.63,3.63,0,0,1,.4-0.49l-0.21.22a4.28,4.28,0,0,1,.38-0.61c-0.22.25-.12,0.2-0.42,0.56,0.29-.46.07-0.43-0.24-0.13a2.61,2.61,0,0,1,.27-0.3,0.65,0.65,0,0,0-.32.34c-0.22.21-.15,0,0-0.28l-0.19.28c-0.37.43,0.16-.4-0.09-0.18h0a3.41,3.41,0,0,1-.49.53C308.15,300.21,308.15,300.25,308.38,299.92Z"/><path class="cls-13" d="M307.72,300.4L308,300a3.1,3.1,0,0,0-.51.61c0.07-.07,0,0.11.13-0.1A0.34,0.34,0,0,0,307.72,300.4Z"/><path class="cls-13" d="M307.28,300.17c-0.07.08-.17,0.23-0.25,0.33,0.12,0,.33-0.06.15,0.26a6.34,6.34,0,0,0,.5-0.54l-0.26.39a0.65,0.65,0,0,0,.39-0.41,0.58,0.58,0,0,1-.17.16l0.16-.21-0.09,0,0.21-.26c0.23-.42-0.63.79-0.51,0.49l0.4-.54c0-.06-0.18.11,0-0.25a0.74,0.74,0,0,0-.11.17,4.24,4.24,0,0,1-.29.42c-0.37.38,0.25-.32,0.36-0.57-0.33.33-.66,0.57-0.37,0.11a1.81,1.81,0,0,1-.51.61,4.93,4.93,0,0,1,.37-0.48c0-.07.11-0.21,0-0.14a6,6,0,0,1-.67.87C306.47,301,307.25,300.05,307.28,300.17Z"/><path class="cls-13" d="M306.92,300.61a0.62,0.62,0,0,0,.1-0.11h0Z"/><path class="cls-14" d="M340.32,240.84c-10.61-9.86-25.7-13.11-40.11-14.52-7.56-.74-15.27-1.07-22.66.66-16.12,3.76-29,17.59-33.2,33.61s0,33.64,9.52,47.16,24.17,23,40,28c11.34,3.54,23.54,4.84,35.19,2.45s22.68-8.63,29.74-18.19c5-6.73,7.83-14.8,9.68-23,1.77-7.79,2.69-15.85,1.68-23.78-2.51-19.74-18-37.19-37.3-42l-1.93,5"/><path class="cls-8" d="M342.09,239.07c-10-8.9-22.67-12.74-35.68-14.52-14.21-1.94-29.09-2.57-41.83,5-23.35,13.93-29.57,43.54-19.39,67.64,10.73,25.41,37.54,41.52,64.35,44.28,14.11,1.45,28.87-1.38,40.57-9.69,11.53-8.2,17.67-20.59,20.75-34.12,3.44-15.13,3-30.7-5.06-44.3a54,54,0,0,0-32.3-24.57,2.57,2.57,0,0,0-3.08,1.75l-1.93,5c-1.16,3,3.67,4.3,4.82,1.33l1.93-5-3.08,1.75c23.43,6.25,37.85,28.67,35.59,52.47-1.24,13-5.34,27.3-14.78,36.8-9.06,9.12-21.83,13.63-34.53,14-24.52.64-51-12.05-64.18-33-12.8-20.35-12.42-48,6-64.83,11.26-10.27,25.34-11.59,39.94-10.17,13.66,1.34,27.83,4.39,38.34,13.78,2.39,2.14,5.94-1.39,3.54-3.54h0Z"/><path class="cls-10" d="M314.82,267.4c-5-3-11.23-3.63-17.06-2.89-4.61.58-9.63,2.38-11.6,6.59-2.25,4.79.41,10.34,3.09,14.91s5.52,9.94,3.6,14.87c-1.08,2.79-3.6,5-3.88,8,4.4,1.36,9.27,2.7,13.48.82,4.45-2,6.73-6.94,10.57-9.94,3.21-2.51,7.5-3.64,10.09-6.79,2.44-3,2.81-7.24,1.86-11s-3.07-7-5.23-10.23A14.07,14.07,0,0,0,315.2,267c-2-1.06-4.69-1-6.11.68"/><path class="cls-8" d="M316.08,265.24c-8.86-4.83-26.63-6.23-32.09,4.59-2.67,5.3-.3,11.23,2.29,16,2,3.62,5,7.66,4.68,12-0.29,3.81-3.61,6.64-4.4,10.34a2.56,2.56,0,0,0,1.75,3.08c8,2.41,15,2.68,20.94-3.86a40,40,0,0,1,10.32-8.66c3.11-1.78,5.85-3.87,7.28-7.28,3.94-9.34-7.73-35.4-19.53-25.59-2.48,2.06,1.08,5.58,3.54,3.54,4.17-3.47,10.28,8.88,11.22,11.66,2.29,6.75-.65,10.87-6.4,14.09a32.37,32.37,0,0,0-9,7.6c-1.8,2.08-3.72,4.33-6.5,5.07-3.45.91-7.24-.39-10.54-1.38l1.75,3.08c1-4.89,4.9-7.8,4.54-13.19-0.33-4.81-3.11-8.9-5.31-13-1.57-2.92-3.54-6.71-2.57-10.12,0.9-3.18,4-4.77,6.91-5.6a25.17,25.17,0,0,1,18.61,1.95c2.83,1.54,5.35-2.77,2.52-4.32h0Z"/><path class="cls-10" d="M298.65,272.77c-2.25-.4-4.5,1.14-5.58,3.15a12.92,12.92,0,0,0-1.11,6.67,6.44,6.44,0,0,0,.47,2.51c0.83,1.76,3,2.52,5,2.39a8.22,8.22,0,0,0,6.4-12.62,1.17,1.17,0,0,0-1.37-.7c-0.49.28,0.45,1.12,0.46,0.55"/><path class="cls-8" d="M298.65,270.27c-7-.51-9.62,7-9.17,12.75,0.47,6,6.4,8.39,11.64,6.06a10.77,10.77,0,0,0,5.57-13.94c-0.88-2.1-3-4.6-5.54-3.12-2,1.19-1.57,4,.32,5.06a2.59,2.59,0,0,0,3.42-.9L305,276c2-2.55-2.38-5-4.32-2.52l-0.15.19,3.42-.9,0.44,0.44v2.52l0.14-.29-2.16,1.24c-0.66.07,0.12,2,.12,2.64a5.56,5.56,0,0,1-.73,2.8,5.73,5.73,0,0,1-5.16,2.89c-4.28-.47-2.48-10.05,2-9.73,3.21,0.23,3.2-4.77,0-5h0Z"/><path class="cls-10" d="M315.44,282.45c-0.75-2.43-4.19-3-6.39-1.77s-3.42,3.7-4.49,6c-0.37.8-.71,1.82-0.14,2.48a2,2,0,0,0,1.76.47,6.41,6.41,0,0,0,5.44-6.71l-2.22.12"/><path class="cls-8" d="M317.85,281.78a6.74,6.74,0,0,0-8-4.06c-3.86.89-6.08,4.62-7.55,8-1.91,4.41,1.68,7.54,6,6a9,9,0,0,0,5.84-8.75,2.53,2.53,0,0,0-2.5-2.5l-2.22.12c-3.2.18-3.22,5.18,0,5l2.22-.12-2.5-2.5a4.06,4.06,0,0,1-1.51,3.5,4.88,4.88,0,0,1-.93.54q-1.24.06,0,1a22,22,0,0,0,1-2c0.64-1.18,1.46-2.63,2.77-3.17,0.61-.25,2.21-0.5,2.55.36,1.18,3,6,1.67,4.82-1.33h0Z"/><path class="cls-10" d="M295.15,293.32l-3,6,4-3.2a8,8,0,0,1-.43,3.65,9.26,9.26,0,0,0,4.13-4.07"/><polygon class="cls-13" points="300.02 295.76 299.86 295.74 300.21 295.95 300.02 295.76"/><path class="cls-13" d="M298.58,295.3l0.11,0.16a6.56,6.56,0,0,0,1.55.71,3,3,0,0,0-.86-0.65c0,0.05.4,0.32,0.24,0.3-0.29-.19-0.22-0.22-0.61-0.45s0.23,0.19,0,.19Z"/><path class="cls-13" d="M299.57,296l-0.49-.3A2.34,2.34,0,0,0,299.57,296Z"/><path class="cls-13" d="M299.64,296.09a1.48,1.48,0,0,1-.44-0.25l0.63,0.45Z"/><path class="cls-13" d="M299.46,296.29l0,0.06C299.61,296.41,299.53,296.35,299.46,296.29Z"/><path class="cls-13" d="M299.47,296.45c0.24,0.12.12,0,0-.1l0,0A0.91,0.91,0,0,1,299,296c-0.08-.11.38,0.17,0.1-0.06l-0.42-.17A6.11,6.11,0,0,0,299.47,296.45Z"/><path class="cls-13" d="M299.46,296.29a0.06,0.06,0,0,1,0,0C299.36,296.21,299.4,296.25,299.46,296.29Z"/><polygon class="cls-13" points="299.58 296.21 299.5 296.12 299.3 296.01 299.58 296.21"/><path class="cls-13" d="M299.38,296.66c-0.61-.42.15-0.09-0.32-0.42a1.62,1.62,0,0,1-.84-0.4l0.15,0.2A6.11,6.11,0,0,0,299.38,296.66Z"/><path class="cls-13" d="M297.73,295.73l0.1,0.09Z"/><path class="cls-13" d="M298.51,296.83l-0.47-.62a2.22,2.22,0,0,1,.41.38,1.27,1.27,0,0,0-.14-0.32c0.58,0.39,0,.14.49,0.47,0-.06,0-0.14-0.42-0.52l0.43,0.2-0.64-.41c-0.2-.1.45,0.4,0,0.11a1.21,1.21,0,0,1-.36-0.31c0.1,0.13-.56-0.24-0.53-0.11S298.27,296.55,298.51,296.83Z"/><polygon class="cls-13" points="297.84 296.32 297.6 296.15 297.92 296.39 297.84 296.32"/><path class="cls-13" d="M298.48,297.12l-0.3-.39,0.3,0.21-0.47-.4c-0.57-.39.09,0.23,0.15,0.36a3,3,0,0,1-.81-0.62s0.17,0.09.23,0.08c-0.65-.43-0.16.1-0.06,0.27s0.23,0.17.2,0.11l0.13,0.19C298.3,297.24,298.45,297.29,298.48,297.12Z"/><path class="cls-13" d="M298.6,297c0,0.07,0,0-.11,0C298.64,297.06,298.75,297.13,298.6,297Z"/><path class="cls-13" d="M297.51,296.66s0,0,0,0S297.48,296.61,297.51,296.66Z"/><path class="cls-13" d="M298.16,297.16h-0.1l0.26,0.19A0.52,0.52,0,0,0,298.16,297.16Z"/><path class="cls-13" d="M295.39,298.08c0.14,0.24.24,0.35,0.26,0.27a1.36,1.36,0,0,1,.16.5,3.5,3.5,0,0,1,.41.69,1.68,1.68,0,0,1,0-.42,3.08,3.08,0,0,0,.21.34c0-.27,0-0.66.23-0.46s0.14-.14.14-0.34c0.44-.08.5-0.63,1-0.66l-0.46-.56a1.59,1.59,0,0,1,.39.28c-0.08,0,0,0-.06,0,0.51,0.39.13-.21,0.37-0.12a5.89,5.89,0,0,1-.63-0.61c0.58,0.56.07-.09,0.77,0.51a5.44,5.44,0,0,0-.35-0.47,2.6,2.6,0,0,0-.52-0.31c-0.26-.28.18,0-0.19-0.29-0.27-.05.25,0.84,0.23,1.23l-0.29-.35c0.13,0.33,0,.49-0.58,0,0.29,0.31-.28-0.06.34,0.68a0.44,0.44,0,0,0-.24-0.15l0.18,0.25c-0.06,0-.34-0.35-0.38-0.28a3.35,3.35,0,0,1,.51.72c-0.36-.31-0.67-0.58-1-0.85a4.23,4.23,0,0,0,.3.36c-0.13-.09.11,0.23,0.18,0.35a2.71,2.71,0,0,1-.49-0.62c-0.16-.09.37,0.79,0.12,0.54l0.26,0.34c0,0.15-.35-0.21-0.37,0a1.33,1.33,0,0,1-.29-0.71,1.73,1.73,0,0,1-.25-0.26c0.12,0.28.28,0.67,0.37,0.94C295.53,298,295.44,298.1,295.39,298.08Z"/><path class="cls-13" d="M295.46,297.68l-0.1-.21s0,0.07,0,.06Z"/><path class="cls-13" d="M295.39,298.08l0-.06A0.07,0.07,0,0,0,295.39,298.08Z"/><path class="cls-13" d="M296.71,299l0,0h0Z"/><path class="cls-13" d="M295.68,297.38l0.32,0.34A1.23,1.23,0,0,0,295.68,297.38Z"/><path class="cls-13" d="M296.44,297.41c0-.07-0.12-0.16-0.2-0.28A0.38,0.38,0,0,0,296.44,297.41Z"/><polygon class="cls-13" points="295.32 297.65 295.33 297.8 295.36 297.91 295.32 297.65"/><path class="cls-13" d="M295.83,298.63c-0.52,0-.23.14-0.36,0.21a10.19,10.19,0,0,1,1.09.49l-1-.31c0,0.18-.26.32,0.56,0.77a1.1,1.1,0,0,1-.41-0.15,1.65,1.65,0,0,0,.54.29l-0.79-.71c-0.14-.34-0.29-0.67-0.14-0.54a5.52,5.52,0,0,0,.58,1.13v0.08a1.89,1.89,0,0,1,.09-0.46,1.91,1.91,0,0,1-.32-0.65,3.18,3.18,0,0,1-.32-0.55,2.12,2.12,0,0,0,.08.49c-0.2-.29,0-0.11-0.23-0.41l0.1,0.32a2.55,2.55,0,0,0-.22-0.37,0.67,0.67,0,0,1,.09.39l1.64,1.48a0,0,0,0,1,0,0l0.11,0.06c-0.11-.1.08-0.12-0.48-0.29L297,300l-0.38-.12c0.2-.09,1.13.14,0.71-0.21a0.76,0.76,0,0,1-.39-0.14c-0.29,0,.26.18,0.29,0.28a5.19,5.19,0,0,0-1.06-.36,1.64,1.64,0,0,1,1,0c0.1-.11-0.36-0.28-0.11-0.34l0.14,0c-0.63-.18.32,0-0.32-0.28l-0.16,0a0.36,0.36,0,0,1-.3-0.15l0.23,0a2.11,2.11,0,0,1-.65-0.3,1,1,0,0,0,.39.27A1.57,1.57,0,0,1,295.83,298.63Z"/><path class="cls-13" d="M295.05,298.35l0.05,0.16,1.91,1.72-0.06,0,0,0-1.87-1.68A1.32,1.32,0,0,0,295.05,298.35Z"/><path class="cls-13" d="M296.74,298.28c0.12-.06.4,0.08,0.62,0-0.32-.12-0.68,0-1.16-0.15,0.29,0-.19-0.14-0.2-0.17a7.86,7.86,0,0,0,1,.13c-0.17-.05.15-0.08,0.17-0.13-0.41.08-.23-0.13-0.67-0.07s-0.63-.18-0.34-0.2,0.21,0.06.22,0.09a3.53,3.53,0,0,0,.75,0c-0.7-.19-0.63-0.53-1.78-0.48-0.22,0,.06.06,0.1,0.1a1.88,1.88,0,0,1,.81.06c-0.19,0,.17.14-0.24,0.1l-0.42-.1a0.67,0.67,0,0,0-.06.8l0-.11a1.08,1.08,0,0,1,.45.19l0.75,0.06c-0.06,0,0,.08-0.22,0a2.59,2.59,0,0,0,.76.13c0.11,0.13-.18.09,0.29,0.26,0.65-.07-0.48-0.24.09-0.35Z"/><polygon class="cls-13" points="297.09 298.71 296.73 298.6 296.9 298.69 297.09 298.71"/><path class="cls-13" d="M295.47,298.34l0.4,0.09C296,298.39,295.76,298.35,295.47,298.34Z"/><path class="cls-13" d="M297.21,297.69l-0.12-.11-0.15.05A0.76,0.76,0,0,1,297.21,297.69Z"/><path class="cls-13" d="M295.27,297c0.08,0.11.43,0.17,0,.29,0.49,0.08.93,0,1.38,0a5.29,5.29,0,0,0-.88-0.16c0.42,0-.09-0.1,0-0.17A4.29,4.29,0,0,1,295.27,297Z"/><path class="cls-13" d="M296.89,296.5c0-.06-0.34-0.1-0.13-0.17s0.37,0,.3.06c0.6-.07-0.1-0.06.3-0.17a1,1,0,0,1-.3,0c0.11-.17-0.4-0.07-0.25-0.24l0.06-.07-1.12-.38-0.08,0a1.77,1.77,0,0,0,.31.48,8.91,8.91,0,0,0-.74-0.63c0.15,0.18.52,0.58,0.83,1-0.59-.44-0.09.2-0.52-0.14,0,0-.07-0.14,0-0.11-0.45-.54,0,0.17-0.14.1l-0.37-.48c0,0.12.17,0.49-.17,0.2l-0.17-.25a1,1,0,0,1-.09.68l-0.29-.25c0.14,0.48.28,0,.73,0.84-0.7-.86.15,0.35-0.21,0.07s-0.06-.25-0.41-0.61c0.33,0.46.06,0.16,0.11,0.33a4.9,4.9,0,0,1-.49-0.48l0.46,0.91c-0.21-.22-0.23-0.14-0.22-0.05,0.09-.06.47,0.65,0.72,0.76,0-.31.1-0.64,0.45-0.56-0.44-.59.12-0.08-0.23-0.58l0.44,0.51a1.37,1.37,0,0,0-.42-0.53,0.84,0.84,0,0,1,.46.41,0.93,0.93,0,0,0-.32-0.51l0.56,0.59a1.41,1.41,0,0,1,.37-0.93l-0.41-.17a0.4,0.4,0,0,1-.15.26l0.5-.07c-0.27.18,1.14,0.23,0.06,0.43l0.44,0c-0.25,0-.76,0-1.1,0a1,1,0,0,1,.14.13l0.24-.08c0.43,0,.17.12-0.21,0.14a3.3,3.3,0,0,0,1.3-.12c-0.94-.17.91-0.22,0.51-0.41A1.66,1.66,0,0,0,296.89,296.5Z"/><path class="cls-13" d="M295.51,296.78l0.14,0Z"/><path class="cls-13" d="M294.27,297.13a0.06,0.06,0,0,0,0,.05C294.32,297.29,294.28,297.21,294.27,297.13Z"/><polygon class="cls-13" points="295.81 296.98 295.81 296.98 295.81 296.98 295.81 296.98"/><polygon class="cls-13" points="297.05 297.07 297.07 297.02 296.83 297.03 297.05 297.07"/><path class="cls-13" d="M293.49,296.94l0.16,0.21Z"/><path class="cls-13" d="M292.35,297.64h0S292.34,297.62,292.35,297.64Z"/><path class="cls-13" d="M293.55,297.8a1.83,1.83,0,0,0-.55-0.58l0.23,0.13a2,2,0,0,0-.88-0.56l0.2,0.13c0.3,0.28-.43-0.13-0.62-0.13,0.06,0.15.93,0.66,0.68,0.63a0.87,0.87,0,0,1-.4-0.18,3.18,3.18,0,0,0,.62.53c-1.81-.89.36,0.5-0.84,0a0.6,0.6,0,0,0,.2.45,5,5,0,0,0-.58-0.21c1,0.56-.61,0,0.7.73-0.44-.06.08,0-0.3,0a0.28,0.28,0,0,1-.16-0.12c-0.3-.08.51,0.38-0.11,0.12-0.16.07,0.34,0.2,0.66,0.46a0.86,0.86,0,0,1-.51-0.11l0.39,0.32,0.33,0.34a1.29,1.29,0,0,1-.32-0.68,0.54,0.54,0,0,1-.31-0.31c0.2,0-.18-0.45-0.18-0.69a2.42,2.42,0,0,0,.38.51,2.91,2.91,0,0,0,.38.84c0.13,0,.18-0.25.09-0.59a4.11,4.11,0,0,1,.29.33c0.32,0.18-.32-0.76,0-0.56l0.23,0.33c-0.28-.46.27-0.07,0.19-0.38a2.23,2.23,0,0,1-.3-0.36c0.62,0.79-.18-0.53.36,0a1.77,1.77,0,0,1-.5-1,4.37,4.37,0,0,1,.39.46c-0.34-.21.33,0.63,0.43,0.92a1.16,1.16,0,0,0,0-.54l0.29,0.41c0.14,0-.62-1-0.22-0.66l0.22,0.29c0.17-.2.81,0.13,0.46-0.64-0.18-.25-0.7-0.74-0.85-0.92,0.07,0.28.34,0.74,0.43,1l-0.36-.45a3.86,3.86,0,0,0,.53.78c0.12,0.28-.36-0.36-0.22,0-0.37-.48-0.37-0.56-0.68-1l0.13,0.28c-0.13-.2-0.16-0.13-0.29-0.33,0.34,0.66-.33-0.1-0.24.25l0.13,0a0.58,0.58,0,0,1,.18.36,1.33,1.33,0,0,0-.49-0.4,3.13,3.13,0,0,1,.39.79,5.18,5.18,0,0,0-.67-0.59,1.64,1.64,0,0,1,.23.58c0,0.13,0,.11-0.26-0.15a1,1,0,0,1,0-.11H292.3l-0.08-.11s0.25,0.38,0,.16a0.38,0.38,0,0,1-.1-0.21c-0.15,0,.45.87,0,0.48a3.53,3.53,0,0,0,.53.86,1.25,1.25,0,0,0-.51-0.46c0.31,0.48-.21-0.1,0,0.23-0.3-.52-0.1-0.13-0.39-0.63-0.2-.15.21,0.51,0.05,0.5l-0.29-.33c0.09,0.18.34,0.58,0,.23l0.25,0.31a0.35,0.35,0,0,0-.19-0.05l1.31,1.07a0.6,0.6,0,0,1,.39,0l-0.64-.43c0.78,0.26.21-.22-0.37-0.63a0.5,0.5,0,0,1,.36.05l0.23,0.17c0.06,0,.48.08-0.07-0.25a1.22,1.22,0,0,1,.53.16c-0.74-.53.78-0.07-0.43-0.73a0.51,0.51,0,0,0-.32.15,2.7,2.7,0,0,1-.39-0.25c0-.13.47,0.05,0.32-0.15l0.77,0.41C294.14,298.46,292.37,297.36,293.55,297.8Z"/><path class="cls-13" d="M292.9,299l0.43,0.13L293,299S293,299.08,292.9,299Z"/><path class="cls-13" d="M293,299l-0.14-.12s0,0,.05.08Z"/><path class="cls-13" d="M293.56,297.45s0.12,0,0-.07S293.45,297.37,293.56,297.45Z"/><polygon class="cls-13" points="293.37 297.25 293.23 297.22 293.32 297.27 293.37 297.25"/><path class="cls-13" d="M293.75,294.83l-0.41-.35c0.25,0.1,0-.17.42,0.08-0.53-.35.09-0.22-0.75-0.58,0.11,0.48-.6.7-0.08,1.45l-0.29-.23c0.54,0.53-.85-0.08.35,0.73l-0.64-.36c-0.23,0,.86.66,0.11,0.4l0.27,0.13s-0.14,0-.16,0l0.13,0.05c0.23,0.2.18,0.23,0,.2s-0.07-.08-0.12-0.12c-0.23-.08.19,0.2,0.16,0.25a1.17,1.17,0,0,1-.39-0.21c0.21,0.3-.52,0,0.41.63a1.29,1.29,0,0,1,.41.23c0.36,0.05,0-.23-0.2-0.45v0c-0.91-.56.24,0.05-0.11-0.27a6.24,6.24,0,0,1,.54.4c0.8,0.23-.45-0.48.52-0.09l0,0c0.1,0-.06-0.1-0.13-0.17a1.72,1.72,0,0,0-.3-0.08,6.32,6.32,0,0,0-.66-0.41c0.44,0.18-.18-0.15.06-0.1a1.88,1.88,0,0,1,.53.35l-0.23-.2a2.2,2.2,0,0,1,.68.23c-0.27-.2-0.23-0.08-0.62-0.33,0.52,0.18.53-.17,0.22-0.5a1.37,1.37,0,0,1,.32.25c0.1,0-.07-0.15-0.37-0.3s0-.25.35-0.2l-0.31-.13c-0.47-.33.46,0,0.24-0.27h0a1.87,1.87,0,0,1-.57-0.48A6.91,6.91,0,0,0,293.75,294.83Z"/><path class="cls-13" d="M293.29,294l0.39,0.25a1.64,1.64,0,0,0-.66-0.46c0.07,0.08-.13,0,0.1.15C293.19,294,293.34,294.07,293.29,294Z"/><path class="cls-13" d="M293.66,293.12c-0.09-.07-0.25-0.14-0.36-0.21,0,0.21,0,.52-0.35.43a3.4,3.4,0,0,0,.57.48l-0.44-.18c0.25,0.18-.28.07,0.44,0.38,0.06,0-.31-0.2-0.17-0.18l0.24,0.13,0-.12,0.28,0.18c0.48,0.1-.85-0.53-0.51-0.53l0.6,0.31c0.08-.08-0.1-0.23.31-0.12,0,0-.3-0.15-0.19-0.08a2.14,2.14,0,0,1-.46-0.21c-0.4-.38.35,0.2,0.64,0.23-0.35-.33-0.58-0.73-0.06-0.55a1,1,0,0,1-.66-0.46,2.47,2.47,0,0,1,.52.3c0.08,0,.24.05,0.17,0a3,3,0,0,1-1-.56C292.78,292.32,293.81,293,293.66,293.12Z"/><path class="cls-13" d="M293.18,292.82a0.33,0.33,0,0,0,.12.1,0.31,0.31,0,0,1,0-.07Z"/><path class="cls-10" d="M293.65,267a40.39,40.39,0,0,1-7.47-11.11c2.55-1.35,4.74-3.69,5.15-6.54s-1.49-6.06-4.34-6.44a6.14,6.14,0,0,0-5.5,2.78,17,17,0,0,0-2.35,6,2.85,2.85,0,0,1-.74,1.56,2.58,2.58,0,0,1-1.61.46c-2.22.09-4.48-.32-6.66,0.13s-4.37,2.11-4.37,4.34,2.13,3.83,4.26,4a10.6,10.6,0,0,0,6.08-1.78c2-1.14,4.39-2.52,6.44-1.46a6,6,0,0,1,1.7,1.51,47.31,47.31,0,0,1,4.91,6.91"/><path class="cls-8" d="M295.42,265.23a42.89,42.89,0,0,1-7.08-10.6l-0.9,3.42c5.48-3.34,9.67-11.67,3-16.36a7.43,7.43,0,0,0-8.6.22,10.8,10.8,0,0,0-3.33,3.9c-0.53,1-1.09,4.92-1.71,5.39-1.16.88-5.42-.16-7,0.17a9.12,9.12,0,0,0-3.92,1.76,6.18,6.18,0,0,0-1.72,8,7.76,7.76,0,0,0,8.11,3.38c2.41-.4,4.09-2.11,6.33-2.68,4.39-1.12,6.53,3.69,8.39,6.76,1.67,2.75,6,.24,4.32-2.52-1.91-3.15-4.49-8.1-8.11-9.58a6.81,6.81,0,0,0-4.56-.06,16.57,16.57,0,0,0-2.56,1.08c-1.79.87-3.41,3.35-3.94,0.19-0.42-2.54.7-1.55,3-1.55a12.79,12.79,0,0,0,2.53-.1,4.58,4.58,0,0,0,2.91-1.6c1.39-1.68,1.28-4.28,2.26-6.17l1.28-1.86,4.63,1.09c1.89,2.1-2.67,5.47-3.82,6.18a2.57,2.57,0,0,0-.9,3.42,47.74,47.74,0,0,0,7.86,11.62c2.17,2.39,5.7-1.16,3.54-3.54h0Z"/><path class="cls-10" d="M315,299.52l8.6,10.75c1.75,2.19,4.06,4.61,6.83,4.17,1.66-.26,3.14-1.56,4.81-1.36,2,0.25,3.15,2.88,2.31,4.74a5.25,5.25,0,0,1-5.08,2.72,11.75,11.75,0,0,1-5.65-2.19,41.58,41.58,0,0,1-9.56,9.55c-1.83-1.45-2.14-4.15-1.69-6.44s1.48-4.45,1.81-6.76c0.71-5-2-9.82-4.54-14.18"/><path class="cls-8" d="M313.27,301.29c3.64,4.54,7.24,11,12.14,14.21a7.84,7.84,0,0,0,5.06,1.44,11.39,11.39,0,0,0,2.48-.69l-1.28,1.66a12.68,12.68,0,0,1-3.55-1.7,2.57,2.57,0,0,0-3.42.9,42.55,42.55,0,0,1-8.66,8.65l3,0.39c-3-3.24,1.32-10.87.81-15.07s-2.71-8.15-4.85-11.8c-1.62-2.78-5.94-.26-4.32,2.52a35.06,35.06,0,0,1,3.77,7.84c1.11,3.88-.24,6.65-1.07,10.32s-0.48,6.88,2.12,9.72a2.51,2.51,0,0,0,3,.39A51,51,0,0,0,329,319.63l-3.42.9c3.38,2,7.39,3.55,11.15,1.53a6.26,6.26,0,0,0,3.14-7.89c-1.59-3.87-4.32-3.29-7.67-3-4.55.42-6.05-1.74-8.64-5l-6.76-8.45c-2-2.51-5.53,1-3.54,3.54h0Z"/><path class="cls-10" d="M321,270L334.4,259a3.12,3.12,0,0,0,1-1.11c0.53-1.24-.64-2.48-1.53-3.49-1.91-2.18-2.69-6-.42-7.76a3.56,3.56,0,0,1,5.58,4c2.49,0.9,5,2,6.73,4s2.24,5.25.55,7.29-4.47,2.14-7,2.34a57.45,57.45,0,0,0-26.16,8.79"/><path class="cls-8" d="M322.72,271.81l7.47-6.14c2.15-1.77,5.82-3.77,7.15-6.27a4.72,4.72,0,0,0,.36-3.71,7.59,7.59,0,0,0-1.17-2l-1.26-1.6q-2.25-3.45,1.33-2.16a2.59,2.59,0,0,0,1.75,3.08c1.6,0.61,5.36,2,6,4,1.46,4.69-2.74,4.51-5,4.77a78.78,78.78,0,0,0-9.26,1.45,61.81,61.81,0,0,0-18.17,7.68c-2.73,1.69-.23,6,2.52,4.32a57.58,57.58,0,0,1,17.82-7.36c4.35-1,10.59-.27,14.43-2.93a7.6,7.6,0,0,0,2.77-8.61c-1.39-4.51-5.67-6.56-9.75-8.11l1.75,3.08c1.14-6.75-7.8-11.44-11.17-4.49-1.82,3.77.5,5.85,1.63,9.12,0.67,1.91,1.24.33-.75,2.54a33.1,33.1,0,0,1-3.74,3.07l-8.22,6.75c-2.49,2,1.07,5.56,3.54,3.54h0Z"/><path class="cls-10" d="M286.08,296.93a44.46,44.46,0,0,1-15.66,9.73l-3.25-8.05a3.22,3.22,0,0,0-1.07-1.6c-1.08-.7-2.53.13-3.33,1.14a7.71,7.71,0,0,0-.35,8.86c1,1.44,2.45,2.55,3.13,4.15s0.5,3.13.83,4.69,1.43,3.21,3,3.2a3.06,3.06,0,0,0,2.67-3,8.91,8.91,0,0,0-1.09-4.2q8.88-4.39,17.59-9.14l-0.77.71"/><path class="cls-8" d="M284.31,295.16a44.81,44.81,0,0,1-14.56,9.09l3.08,1.75c-1.61-4-3.38-14-9.75-11.17-4.66,2-5.33,8.84-3.15,12.84,0.64,1.17,1.7,2,2.39,3.12,1.53,2.49,1,4.43,2,6.88a5.79,5.79,0,0,0,4.39,3.78c6,0.84,6.27-6.4,4.66-10.23L272.24,314q8.88-4.41,17.59-9.14l-3-3.93-0.77.71c-2.37,2.18,1.17,5.71,3.54,3.54l0.77-.71c2.14-2-.59-5.25-3-3.93q-8.71,4.73-17.59,9.14a2.5,2.5,0,0,0-1.15,2.82c0.22,0.51,1,2.16.21,2.63a15.59,15.59,0,0,0-.41-3.17,12,12,0,0,0-2.11-4.25c-0.81-1.21-4.51-6.36-1.59-6.72,1.46-.18,2.77,4.89,3.34,6.29,0.47,1.16,1.7,2.27,3.08,1.75a51.27,51.27,0,0,0,16.77-10.38c2.37-2.19-1.18-5.72-3.54-3.54h0Z"/></g><circle class="cls-15" cx="339.3" cy="304.68" r="83.29"/></g></g></g></svg>