<svg xmlns="http://www.w3.org/2000/svg" xmlns:xlink="http://www.w3.org/1999/xlink" viewBox="0 0 580 580"><defs><style>.cls-1{fill:none;}.cls-2{isolation:isolate;}.cls-3{clip-path:url(#clip-path);}.cls-4{clip-path:url(#clip-path-2);}.cls-5{fill:#fdea8b;}.cls-6{opacity:0.82;mix-blend-mode:multiply;fill:url(#linear-gradient);}.cls-7{fill:#fff;}.cls-8{fill:#014e7f;}</style><clipPath id="clip-path"><rect class="cls-1" y="1755.55" width="580" height="580"/></clipPath><clipPath id="clip-path-2"><rect class="cls-1" x="-0.13" width="580" height="580"/></clipPath><linearGradient id="linear-gradient" x1="29.5" y1="207.51" x2="664.71" y2="207.51" gradientTransform="translate(5.47 12.09)" gradientUnits="userSpaceOnUse"><stop offset="0" stop-color="#fff"/><stop offset="0.19" stop-color="#fffefc"/><stop offset="0.32" stop-color="#fffcf4"/><stop offset="0.42" stop-color="#fff9e5"/><stop offset="0.51" stop-color="#fff4d0"/><stop offset="0.59" stop-color="#ffedb5"/><stop offset="0.67" stop-color="#ffe594"/><stop offset="0.75" stop-color="#ffdc6d"/><stop offset="0.82" stop-color="#ffd141"/><stop offset="0.84" stop-color="#ffcd31"/><stop offset="1" stop-color="#ffd459"/></linearGradient></defs><title>iiLAB -U1-concepts-04-DEVICE SEIZED</title><g class="cls-2"><g id="Layer_2" data-name="Layer 2"><g class="cls-4"><rect class="cls-5" x="-28.78" y="-29.14" width="645" height="645"/><circle class="cls-6" cx="352.57" cy="219.61" r="317.6" transform="translate(-45.17 339.33) rotate(-48.67)"/><polygon class="cls-7" points="559.56 478.52 399.34 492.81 385.33 388.4 551.68 366.08 559.56 478.52"/><path class="cls-8" d="M554.52,464.25L430.33,483.75l-17.55,2.76,3.08,1.75-16.38-80.69-2.31-11.4-1.75,3.08L524,373.16l18.18-3.69-3.08-1.75,12,87.06,1.73,12.53c0.44,3.17,5.26,1.82,4.82-1.33l-12-87.06-1.73-12.53c-0.19-1.4-1.9-2-3.08-1.75L412.28,390.73l-18.18,3.69a2.55,2.55,0,0,0-1.75,3.08l16.38,80.69,2.31,11.4a2.56,2.56,0,0,0,3.08,1.75L538.3,471.82l17.55-2.76C559,468.57,557.68,463.75,554.52,464.25Z"/><path class="cls-8" d="M533.91,372.44L487.65,430l2.43-.64-83.15-26.76-11.76-3.78c-3.07-1-4.38,3.84-1.33,4.82L477,430.36l11.76,3.78a2.44,2.44,0,0,0,2.43-.64L537.44,376c2-2.48-1.52-6-3.54-3.54h0Z"/><path class="cls-8" d="M455.07,424.18A535.25,535.25,0,0,1,421.7,476c-1.9,2.6,2.44,5.1,4.32,2.52a535.25,535.25,0,0,0,33.37-51.86c1.58-2.81-2.73-5.33-4.32-2.52h0Z"/><path class="cls-8" d="M501,420.12c8.47,8.34,17.8,15.87,26.73,23.71,8.77,7.7,18.51,15.34,25.72,24.59,2,2.54,5.49-1,3.54-3.54-7.21-9.26-16.95-16.89-25.72-24.59-8.93-7.84-18.25-15.37-26.73-23.71-2.29-2.26-5.83,1.27-3.54,3.54h0Z"/><path class="cls-8" d="M422.93,148c3.22,0,3.22-5,0-5s-3.22,5,0,5h0Z"/><path class="cls-7" d="M531.59,201.73A8.32,8.32,0,0,1,523.3,210H438.91a8.21,8.21,0,0,1-8.2-8.26l0.94-122.48A8.36,8.36,0,0,1,440,71h57.5a80.34,80.34,0,0,1,16.27,2,20,20,0,0,1,9.46,6c6.75,8.18,7.12,10,7.12,10a97,97,0,0,1,1.62,16.35Z"/><path class="cls-8" d="M450.73,106.28c23.46-1.82,47-1.06,70.41-2.28,3.2-.17,3.23-4.9,0-5L520,99c-3.22,0-3.22,5,0,5l1.14,0V99c-23.45,1.22-47,.46-70.41,2.28-3.19.25-3.21,5.25,0,5h0Z"/><path class="cls-8" d="M450.73,120.26c23.46-1.82,47-1.06,70.41-2.28,3.2-.17,3.23-4.9,0-5L520,113c-3.22,0-3.22,5,0,5l1.14,0v-5c-23.45,1.22-47,.46-70.41,2.28-3.19.25-3.21,5.25,0,5h0Z"/><path class="cls-8" d="M450.73,134.24c23.46-1.82,47-1.06,70.41-2.28,3.2-.17,3.23-4.9,0-5l-1.14,0c-3.22,0-3.22,5,0,5l1.14,0v-5c-23.45,1.22-47,.46-70.41,2.28-3.19.25-3.21,5.25,0,5h0Z"/><path class="cls-8" d="M450.73,148.22c23.46-1.82,47-1.06,70.41-2.28,3.2-.17,3.23-4.9,0-5l-1.14,0c-3.22,0-3.22,5,0,5l1.14,0v-5c-23.45,1.22-47,.46-70.41,2.28-3.19.25-3.21,5.25,0,5h0Z"/><path class="cls-8" d="M450.73,162.2c23.46-1.82,47-1.06,70.41-2.28,3.2-.17,3.23-4.9,0-5l-1.14,0c-3.22,0-3.22,5,0,5l1.14,0v-5c-23.45,1.22-47,.46-70.41,2.28-3.19.25-3.21,5.25,0,5h0Z"/><path class="cls-8" d="M450.73,176.17c23.46-1.82,47-1.06,70.41-2.28,3.2-.17,3.23-4.9,0-5l-1.14,0c-3.22,0-3.22,5,0,5l1.14,0v-5c-23.45,1.22-47,.46-70.41,2.28-3.19.25-3.21,5.25,0,5h0Z"/><path class="cls-8" d="M534.51,195.31c-0.62,7.34-9.5,5.76-14.63,5.76H447.19c-1.71,0-3.8.22-5.37-.58-2.66-1.37-3.11-3.95-3.17-6.55-0.11-4.6.07-9.22,0.11-13.81l0.41-53,0.37-47.62c0-3.89-.9-9.74,3.34-11.82,1.81-.89,4.32-0.58,6.26-0.58h10.74c14.34,0,28.69-.2,43,0,5.62,0.08,12,.41,17.26,2.5s10.47,8.07,13,13.29a12.69,12.69,0,0,1,.66,2.84,87.92,87.92,0,0,1,1.08,12.06c0,1.18,0,2.36,0,3.54l-0.34,91.31v2.7c0,3.22,5,3.22,5,0l0.34-92.05c0-7,.49-14.72-1.69-21.32-1-3.09-3.55-5.8-5.51-8.29-3.74-4.74-8-8.32-14-9.73-7.62-1.8-15.38-1.83-23.15-1.83H466.79c-7,0-14-.26-20.94,0s-11.12,5.27-11.28,12c-0.35,14.23-.22,28.48-0.33,42.72l-0.45,59c-0.07,9.62-3.9,29.55,10.56,30.27,14.15,0.7,28.51,0,42.68,0h29.07c4.38,0,8.92.35,13.3-.05,5.9-.54,9.64-5,10.12-10.7C539.78,192.11,534.78,192.13,534.51,195.31Z"/><path class="cls-8" d="M507.59,64.58l-1.76,26.57a2.52,2.52,0,0,0,2.5,2.5l29.07-.46c3.21-.05,3.22-5.05,0-5l-29.07.46,2.5,2.5,1.76-26.57c0.21-3.21-4.79-3.2-5,0h0Z"/><path class="cls-7" d="M338.88,495.3a22.86,22.86,0,0,1-21.48,23.94L85.7,532.13A22.6,22.6,0,0,1,61.91,510.7L41.72,99.89A23,23,0,0,1,63.28,75.94l157.86-8.78a220.94,220.94,0,0,1,45,3.06s15.74,3,26.91,15.14c19.79,21.44,21.06,26.27,21.06,26.27a267.71,267.71,0,0,1,7,44.65Z"/><path class="cls-8" d="M101.34,250.6c56-7.55,112.55-11.57,168.92-15.33,7.78-.52,15.64-0.68,23.39-1.57,1.7-.19,3.35-2,2.16-3.76s-3.45-1.2-5.26-1.12c-3.21.14-3.22,5.14,0,5,1,0,2.06-.11,3.1-0.12l-2.16-1.24h0l2.16-3.76c-16.13,1.84-32.64,2.17-48.83,3.34-30.81,2.24-61.6,4.73-92.35,7.76-17.52,1.72-35,3.63-52.46,6-3.17.43-1.82,5.25,1.33,4.82h0Z"/><path class="cls-8" d="M103.47,289c56-7.55,112.55-11.57,168.92-15.33,7.78-.52,15.64-0.68,23.39-1.57,1.7-.19,3.35-2,2.16-3.76s-3.45-1.2-5.26-1.12c-3.21.14-3.22,5.14,0,5,1,0,2.06-.11,3.1-0.12l-2.16-1.24h0l2.16-3.76c-16.13,1.84-32.64,2.17-48.83,3.34-30.81,2.24-61.6,4.73-92.35,7.76-17.52,1.72-35,3.63-52.46,6-3.17.43-1.82,5.25,1.33,4.82h0Z"/><path class="cls-8" d="M105.61,327.37c56-7.55,112.55-11.57,168.92-15.33,7.78-.52,15.64-0.68,23.39-1.57,1.7-.19,3.35-2,2.16-3.76s-3.45-1.2-5.26-1.12c-3.21.14-3.22,5.14,0,5,1,0,2.06-.11,3.1-0.12l-2.16-1.24h0l2.16-3.76c-16.13,1.84-32.64,2.17-48.83,3.34-30.81,2.24-61.6,4.73-92.35,7.76-17.52,1.72-35,3.63-52.46,6-3.17.43-1.82,5.25,1.33,4.82h0Z"/><path class="cls-8" d="M107.74,365.75c56-7.55,112.55-11.57,168.92-15.33,7.78-.52,15.64-0.68,23.39-1.57,1.7-.19,3.35-2,2.16-3.76s-3.45-1.2-5.26-1.12c-3.21.14-3.22,5.14,0,5,1,0,2.06-.11,3.1-0.12l-2.16-1.24h0l2.16-3.76c-16.13,1.84-32.64,2.17-48.83,3.34-30.81,2.24-61.6,4.73-92.35,7.76-17.52,1.72-35,3.63-52.46,6-3.17.43-1.82,5.25,1.33,4.82h0Z"/><path class="cls-8" d="M109.88,404.13c56-7.55,112.55-11.57,168.92-15.33,7.78-.52,15.64-0.68,23.39-1.57,1.7-.19,3.35-2,2.16-3.76s-3.45-1.2-5.26-1.12c-3.21.14-3.22,5.14,0,5,1,0,2.06-.11,3.1-0.12L300,386h0l2.16-3.76c-16.13,1.84-32.64,2.17-48.83,3.34-30.81,2.24-61.6,4.73-92.35,7.76-17.52,1.72-35,3.63-52.46,6-3.17.43-1.82,5.25,1.33,4.82h0Z"/><path class="cls-8" d="M112,442.51c56-7.55,112.55-11.57,168.92-15.33,7.78-.52,15.64-0.68,23.39-1.57,1.7-.19,3.35-2,2.16-3.76s-3.45-1.2-5.26-1.12c-3.21.14-3.22,5.14,0,5,1,0,2.06-.11,3.1-0.12l-2.16-1.24h0l2.16-3.76c-16.13,1.84-32.64,2.17-48.83,3.34-30.81,2.24-61.6,4.73-92.35,7.76-17.52,1.72-35,3.63-52.46,6-3.17.43-1.82,5.25,1.33,4.82h0Z"/><path class="cls-8" d="M348.88,483.49a20.65,20.65,0,0,1-19,21.44c-1.2.1-2.41,0.13-3.62,0.2l-22.18,1.23-81.55,4.53-86,4.78-28.16,1.57c-4.74.26-10.13,1.14-14.86,0.3-18.15-3.22-16.7-21.61-17.38-35.4L73.23,424.1,64.6,248.37l-7-142.7c-0.64-13.09-4-29.74,10.45-37,6-3,14.18-2.44,20.76-2.81l35.77-2,86.25-4.79c7.34-.41,14.68-0.83,22-1.22,15.17-.81,32.08-0.52,46.85,3.33C290.33,64,299,70.07,306.35,78.14,312,84.4,318,90.75,322.61,97.85a19.65,19.65,0,0,1,1.65,2.82c-0.32-.73-0.15-0.36-0.09-0.18a56.94,56.94,0,0,1,1.82,7.8,245.11,245.11,0,0,1,5,35.57c0.61,10.1,1.07,20.22,1.6,30.32l8.61,163.66L348.49,476l0.39,7.45c0.17,3.2,5.17,3.22,5,0l-5.63-107-9.39-178.64-2.6-49.39q-0.65-12.43-2.48-24.74c-1.21-8.14-1.86-17.8-5.15-25.42-1.56-3.61-4.45-6.85-6.87-9.88-11.63-14.59-24.52-29-43.69-32.61A195.29,195.29,0,0,0,231.6,53l-69.93,3.89L83.12,61.22c-9.47.53-18.43,1.31-25.22,9.18-5.19,6-6.4,13.28-6,20.87l5.8,118.08,9.07,184.5c1.71,34.81,2.84,69.71,5.14,104.49,0.93,14.11,12,24.87,26.34,24.46,4.13-.12,8.27-0.46,12.4-0.69L185,518c48-2.67,96-4.92,144-8,14.27-.92,25.25-11.9,24.93-26.49C353.81,480.28,348.81,480.27,348.88,483.49Z"/><path class="cls-8" d="M266.6,59.81L266,112a1.79,1.79,0,0,0,1.78,1.78l56.82-4.06c2.27-.16,2.29-3.73,0-3.56l-56.82,4.06,1.78,1.78,0.56-52.18c0-2.29-3.54-2.29-3.56,0h0Z"/><path class="cls-7" d="M553.22,302.15a5.94,5.94,0,0,1-5.71,6.06l-149,5a5.82,5.82,0,0,1-6-5.67l-0.86-34.59a5.94,5.94,0,0,1,5.71-6.06l149-5a5.82,5.82,0,0,1,6,5.67Z"/><path class="cls-8" d="M547.79,306.18c-0.15,1.69-2.82,4.1-4.4,4.5a6,6,0,0,1-1.06,0c-1.36.08-2.73,0.09-4.09,0.14l-14.68.49L477,312.9l-48.1,1.61-17.39.58c-2.64.09-6.06,0.8-8.67,0.29-6.49-1.27-5-8.45-5.12-13.35-0.18-7.2-1.15-14.86-.55-22,0.4-4.78,3.22-6,7.14-6.12l12.91-.43,93.48-3.12c9.94-.33,20.28-1.53,30.23-1a8.39,8.39,0,0,1,1.63-.05,6.23,6.23,0,0,1,4.47,4.88,22.93,22.93,0,0,1,.08,3.31l0.58,23.24,0.14,5.5a1.25,1.25,0,0,0,2.5,0l-0.48-19.34c-0.12-4.77,1.47-14.46-2.45-18.19-2.49-2.37-5.74-1.86-8.86-1.76l-15.67.52-101.5,3.39-15.85.53c-2.92.1-6.17-.2-8.53,1.85-4.19,3.63-2.15,13-2,17.78,0.17,6.66-.29,13.67.5,20.28,1.15,9.64,15.25,6.36,21.89,6.14l48.23-1.61L518.3,314c8.33-.28,17,0.15,25.32-0.85,4-.48,6.32-3,6.68-7C550.44,304.58,547.94,304.59,547.79,306.18Z"/><path class="cls-8" d="M542,302.34c-0.5,4.53-5.51,3.77-8.32,3.86l-13.09.45L479.84,308,436,309.53c-8.93.3-18.1,1.26-27,.92a12,12,0,0,1-1.81.06c-4.33-.88-3.73-4.05-3.8-6.88-0.16-6.4-1.06-13.28-.49-19.65,0.7-7.84,11.72-5.64,17.3-5.83l83.48-2.85c10.67-.36,21.54-1.36,32.22-1.1a10.78,10.78,0,0,1,1.87-.06c4.72,1,3.72,6,3.8,9.23l0.47,19a1.25,1.25,0,0,0,2.5,0l-0.46-18.53c-0.13-5.07.55-11.7-6.31-12.17-7.22-.49-14.84.51-22.06,0.75l-92.16,3.14-13.71.47c-2.55.09-5.24-.15-7.33,1.62-4,3.37-2,12.63-1.85,17.12s-1.41,13.38,2.29,16.73c2.22,2,5.2,1.52,7.92,1.43l13.54-.46,45.48-1.55,46.68-1.59c7.22-.25,14.88.21,22.06-0.75,3.56-.48,5.53-2.67,5.92-6.19C544.72,300.74,542.22,300.75,542,302.34Z"/><circle class="cls-8" cx="421.72" cy="294.24" r="5.75" transform="translate(-7.18 10.57) rotate(-1.42)"/><circle class="cls-8" cx="441.16" cy="293.75" r="5.75" transform="translate(-7.16 11.05) rotate(-1.42)"/><circle class="cls-8" cx="460.61" cy="293.27" r="5.75" transform="translate(-7.14 11.53) rotate(-1.42)"/><circle class="cls-8" cx="480.06" cy="292.79" r="5.75" transform="translate(-7.13 12.02) rotate(-1.42)"/><circle class="cls-8" cx="499.5" cy="292.3" r="5.75" transform="matrix(1, -0.02, 0.02, 1, -7.11, 12.5)"/><path class="cls-8" d="M180.18,202c-3.8-1.34-8,1.21-9.23,4.94s1.12,7.35,4.62,8.69a7.76,7.76,0,0,0,9.5-3,9.2,9.2,0,0,0-1-10.64c-1.56-1.88-4.24.82-2.68,2.68,2.56,3.08.48,8.72-3.94,7.63-1.72-.42-3.4-1.89-3-3.83a3.68,3.68,0,0,1,4.7-2.77c2.31,0.81,3.3-2.85,1-3.66h0Z"/><path class="cls-8" d="M162.73,107.74a98.1,98.1,0,0,1,18.63-2,94.8,94.8,0,0,1,9.63.43c2.57,0.25,6.44.17,8.73,1.6,8.41,5.25-9.81,23.3-13.56,28-11.94,14.82-16.86,33.39-13,52.13l1.33-2.34c-7.11,2.34-6.81-18.51-6.26-21.9a58.57,58.57,0,0,1,7.12-19.23C182.06,132.6,191,122.25,197,110a1.92,1.92,0,0,0-1.64-2.86,105.36,105.36,0,0,0-55,12.94l2.6,0.68a6.67,6.67,0,0,1,3.42-8.7c2.18-1.1.26-4.37-1.92-3.28-5.29,2.66-7.08,8.59-4.78,13.89a1.92,1.92,0,0,0,2.6.68,101.45,101.45,0,0,1,53-12.43l-1.64-2.86c-7.83,16.16-21.23,29.26-27,46.44-2.56,7.58-3.68,15.93-1.76,23.8,1.16,4.77,4.27,13,10.62,10.92a2,2,0,0,0,1.33-2.34,57.31,57.31,0,0,1,4.43-36.79c5-10.28,13.79-17.73,19.95-27.23,4.36-6.73,8.36-16.5-2.1-19.27-11.86-3.14-25.55-1.87-37.41.48-2.39.48-1.38,4.14,1,3.66h0Z"/></g></g></g></svg>