<svg xmlns="http://www.w3.org/2000/svg" xmlns:xlink="http://www.w3.org/1999/xlink" viewBox="0 0 580 580"><defs><style>.cls-1{fill:none;}.cls-2{isolation:isolate;}.cls-3{clip-path:url(#clip-path);}.cls-4{fill:#fdea8b;}.cls-5{opacity:0.59;mix-blend-mode:multiply;fill:url(#linear-gradient);}.cls-6{fill:#fff;}.cls-7{fill:#014e7f;}.cls-8{fill:#231f20;}.cls-9{fill:#929497;}.cls-10{fill:#21648f;}</style><clipPath id="clip-path"><rect class="cls-1" y="1.37" width="580" height="580"/></clipPath><linearGradient id="linear-gradient" x1="2132.4" y1="2997.73" x2="2945.95" y2="2997.73" gradientTransform="translate(2839.1 3365.99) rotate(180)" gradientUnits="userSpaceOnUse"><stop offset="0" stop-color="#fff"/><stop offset="0.6" stop-color="#9acd72"/></linearGradient></defs><title>iiLAB -U1-concepts-04-DEVICE SEIZED</title><g class="cls-2"><g id="Layer_2" data-name="Layer 2"><g class="cls-3"><rect class="cls-4" x="-28.78" y="-40.32" width="645" height="645"/><circle class="cls-5" cx="299.92" cy="368.26" r="406.77" transform="translate(-75.12 659.66) rotate(-88.69)"/><path class="cls-6" d="M388.95,313.82a7.19,7.19,0,0,1-5.68,8.36L311.7,336a7.09,7.09,0,0,1-8.3-5.67l-19.2-104a7.22,7.22,0,0,1,5.71-8.36l48.76-9.39a69.39,69.39,0,0,1,14.13-.95,17.25,17.25,0,0,1,9,3.58c7.06,5.84,7.66,7.29,7.66,7.29a83.78,83.78,0,0,1,4,13.6Z"/><path class="cls-7" d="M305,246c19.6-5.36,39.57-8.88,59.34-13.43,2.76-.63,1.53-4.58-1.15-4.16l-1,.17c-2.73.49-1.57,4.65,1.15,4.16l1-.17-1.15-4.16c-19.77,4.54-39.75,8.06-59.34,13.43-2.68.73-1.54,4.9,1.15,4.16h0Z"/><path class="cls-7" d="M307.24,257.89c19.6-5.36,39.57-8.88,59.34-13.43,2.76-.63,1.53-4.58-1.15-4.16l-1,.17c-2.73.49-1.57,4.65,1.15,4.16l1-.17-1.15-4.16c-19.77,4.54-39.75,8.06-59.34,13.43-2.68.73-1.54,4.9,1.15,4.16h0Z"/><path class="cls-7" d="M309.52,269.74c19.6-5.36,39.57-8.88,59.34-13.43,2.76-.63,1.53-4.58-1.15-4.16l-1,.17c-2.73.49-1.57,4.65,1.15,4.16l1-.17-1.15-4.16c-19.77,4.54-39.75,8.06-59.34,13.43-2.68.73-1.54,4.9,1.15,4.16h0Z"/><path class="cls-7" d="M311.8,281.6c19.6-5.36,39.57-8.88,59.34-13.43,2.76-.63,1.53-4.58-1.15-4.16l-1,.17c-2.73.49-1.57,4.65,1.15,4.16l1-.17L370,264c-19.77,4.54-39.75,8.06-59.34,13.43-2.68.73-1.54,4.9,1.15,4.16h0Z"/><path class="cls-7" d="M314.09,293.45c19.6-5.36,39.57-8.88,59.34-13.43,2.76-.63,1.53-4.58-1.15-4.16l-1,.17c-2.73.49-1.57,4.65,1.15,4.16l1-.17-1.15-4.16c-19.77,4.54-39.75,8.06-59.34,13.43-2.68.73-1.54,4.9,1.15,4.16h0Z"/><path class="cls-7" d="M316.37,305.31c19.6-5.36,39.57-8.88,59.34-13.43,2.76-.63,1.53-4.58-1.15-4.16l-1,.17c-2.73.49-1.57,4.65,1.15,4.16l1-.17-1.15-4.16c-19.77,4.54-39.75,8.06-59.34,13.43-2.68.73-1.54,4.9,1.15,4.16h0Z"/><path class="cls-7" d="M390.34,307.49c0.64,6.6-6.27,6.7-10.93,7.59l-20.73,4L317.44,327c-4,.78-7.51.13-8.58-4.59-0.87-3.82-1.43-7.75-2.14-11.61L298.44,266,291,225.76c-0.61-3.32-2.3-7.71.3-10.49,2.84-3,10.3-3.07,14.08-3.8,12.45-2.4,24.88-5,37.37-7.2,10.6-1.84,21.35-1.45,28.08,8.5,2.84,4.2,3.55,10.47,4.5,15.46Q382.73,267,390,305.77l0.43,2.29c0.51,2.73,4.68,1.57,4.16-1.15l-14.82-78.53c-1.08-5.75-1.91-12.41-4.91-17.43-3.86-6.47-12.28-11.67-19.75-11.92-6.86-.23-13.5,1.08-20.19,2.37l-24.87,4.79c-5.61,1.08-11.39,1.86-16.94,3.26-5.91,1.49-8.19,6.48-7.25,12.14,2,12.16,4.48,24.27,6.72,36.39l9.32,50.49c1.55,8.38,1.46,24.9,13.93,23.24,12.13-1.61,24.25-4.67,36.26-7L376.58,320c3.76-.72,7.77-1.13,11.44-2.26a9.46,9.46,0,0,0,6.65-10.26C394.4,304.75,390.08,304.72,390.34,307.49Z"/><path class="cls-7" d="M346.17,201L349,223.83a2.2,2.2,0,0,0,2.73,2.08l24.58-5.14c2.72-.57,1.57-4.73-1.15-4.16l-24.58,5.14,2.73,2.08L350.48,201c-0.34-2.72-4.66-2.76-4.32,0h0Z"/><path class="cls-6" d="M524.13,460.17a4.18,4.18,0,0,0-3-3.43L509.78,454a5.68,5.68,0,0,1-3.62-3.29l-1.47-3.56a5.68,5.68,0,0,1,.23-4.89l6.11-10a4,4,0,0,0-.4-4.46l-5.08-5.08a4,4,0,0,0-4.46-.4l-10,6.11a5.66,5.66,0,0,1-4.88.23l-3.57-1.47a5.72,5.72,0,0,1-3.29-3.62l-2.74-11.39a4.17,4.17,0,0,0-3.43-3s-1.44-.13-3.6-0.13-3.6.13-3.6,0.13a4.18,4.18,0,0,0-3.43,3l-2.74,11.39a5.72,5.72,0,0,1-3.29,3.62L453,428.66a5.66,5.66,0,0,1-4.88-.23l-10-6.11a4,4,0,0,0-4.46.4l-5.08,5.08a4,4,0,0,0-.4,4.46l6.11,10a5.68,5.68,0,0,1,.23,4.89L433,450.7A5.68,5.68,0,0,1,429.4,454L418,456.73a4.18,4.18,0,0,0-3,3.43s-0.13,1.44-.13,3.6,0.13,3.6.13,3.6a4.16,4.16,0,0,0,3,3.43l11.39,2.75a5.68,5.68,0,0,1,3.62,3.29l1.47,3.56a5.68,5.68,0,0,1-.23,4.89l-6.11,10a4,4,0,0,0,.4,4.46l5.08,5.08a4,4,0,0,0,4.46.4l10-6.11a5.66,5.66,0,0,1,4.88-.23l3.57,1.47a5.72,5.72,0,0,1,3.29,3.62l2.74,11.39a4.18,4.18,0,0,0,3.43,3s1.44,0.13,3.6.13,3.6-.13,3.6-0.13a4.17,4.17,0,0,0,3.43-3L479.36,504a5.72,5.72,0,0,1,3.29-3.62l3.57-1.47a5.66,5.66,0,0,1,4.88.23l10,6.11a4,4,0,0,0,4.46-.4l5.08-5.08a4,4,0,0,0,.4-4.46l-6.11-10a5.68,5.68,0,0,1-.23-4.89l1.47-3.56a5.68,5.68,0,0,1,3.62-3.29l11.39-2.75a4.16,4.16,0,0,0,3-3.43s0.13-1.44.13-3.6S524.13,460.17,524.13,460.17Zm-54.54,25.46a21.87,21.87,0,1,1,21.87-21.87A21.87,21.87,0,0,1,469.59,485.63Z"/><path class="cls-7" d="M515.89,479.41c7.05-3.11,6-16.56-1.21-18.77-3.31-1-7.23-1.09-10.38-2.5-3.91-1.75-4.6-6.78-2.61-10,1.66-2.72,3.82-5.47,5.08-8.4,1.83-4.25-.64-6.91-3.46-9.73s-5.29-5.21-9.43-3.58c-3,1.2-5.91,3.5-8.7,5.21-3.18,1.94-8.19,1.36-10-2.46-1.49-3.14-1.51-7.2-2.54-10.52-2.21-7.16-15.69-8.29-18.77-1.21-1.26,2.88-1.65,6.39-2.38,9.43-0.93,3.85-4.67,7.2-8.9,5.78-6-2-11.17-10.47-17.71-4.74-2.37,2.08-5.84,4.9-6.21,8.24s2.23,6.26,3.83,8.88c2.2,3.6,4.53,6.37,1.94,10.59-2.11,3.44-6.59,3.51-10.25,4.39-3.44.83-6.78,1.54-7.94,5.43-1,3.25-1.06,9,1.07,11.84,4.55,6.1,15.38,1.21,18,9.68,2.17,7.1-9.54,12.18-6,19.53,1.19,2.5,4.32,5.45,6.58,7,3.28,2.21,6.25.85,9.22-1s7-5.65,10.71-4.72c4.61,1.16,5.28,4.07,6.25,8.09,0.74,3.08,1,7.44,3.52,9.73,2.68,2.48,8.13,2.27,11.45,1.66,3.84-.7,5.2-3.49,6-6.9s1-9.15,4-11.22c7.56-5.11,12.08,5.19,19.2,5.52,3.72,0.17,6.39-3.25,8.69-5.73s3.24-5.42,1.51-8.76c-1.6-3.08-4.31-5.87-5.57-9.1-1.5-3.85,1.12-7.9,4.83-9,3.13-1,6.41-1.55,9.59-2.31s1.8-5.58-1.33-4.82c-5.56,1.34-13.5,1.6-16.5,7.18-1.73,3.21-3,6.88-1.5,10.38,1.12,2.67,3,5.14,4.54,7.61,0.69,1.13,1.83,2.35,1.73,3.7-0.12,1.55-2.28,3.25-3.47,4.25-1.39,1.17-1.81,1.8-3.7,1.08a31.1,31.1,0,0,1-4.67-2.85c-2.74-1.68-5.53-4-8.91-3.77a15.89,15.89,0,0,0-9.2,4c-2.1,2.24-2.45,5.64-3.14,8.5a35.69,35.69,0,0,1-1.21,5c-1,2.43-2.35,2.4-4.89,2.4-2.3,0-3.82.17-4.82-2.1A32.52,32.52,0,0,1,457,515c-0.75-3.13-1.1-6.66-3.63-8.94-2.15-1.94-6.45-3.75-9.36-3.65-3.08.11-5.74,2.27-8.26,3.81a34.23,34.23,0,0,1-4.41,2.7c-2,.8-2.42.36-4-0.93-0.83-.7-3.08-2.4-3.44-3.43-0.6-1.74,1.1-3.55,1.93-4.91,1.52-2.48,3.56-5,4.54-7.79,1.17-3.3-.16-6.84-1.73-9.81-1.7-3.23-4.35-4.25-7.66-5.05-2.43-.59-8.71-0.87-10-3.41-0.75-1.48-.37-6.2.62-7.33s2.92-1.21,4.35-1.55c2.89-.7,6.3-1,9-2.41,2.95-1.51,4.49-5,5.42-8,1.07-3.51-.06-6.12-1.85-9-1.25-2.05-5.51-6.72-4.62-9.3,0.37-1.08,2.84-3,3.74-3.73,1.55-1.22,2.13-1.33,3.92-.47,3,1.44,5.58,3.68,8.51,5.21,3.43,1.78,6.34,1,9.67-.47,7.89-3.38,5.35-10,8.55-16.52,1.13-2.3,3.18-1.9,5.5-1.86s3.43,0.39,4.23,2.68c1.09,3.13,1.33,6.55,2.34,9.7,1.94,6.06,10.55,9.21,16,6.27,2.89-1.56,5.79-4.43,8.91-5.45,2.37-.77,7.51,3.59,7,6.28s-3.72,6-5.09,8.33c-1.68,2.81-2.44,5.41-1.34,8.65,1.24,3.64,2.89,7,6.73,8.33a90.09,90.09,0,0,0,8.84,2.13c1.63,0.39,3.09.47,3.72,2.26,0.76,2.14.5,6.84-1.77,7.84C510.43,476.38,513,480.69,515.89,479.41Z"/><path class="cls-7" d="M482.42,470.22c-0.33,10.55-8.56,19.37-19.37,19.37a19.36,19.36,0,0,1-.69-38.72c11.07-.4,19.72,8.54,20.06,19.35,0.1,3.21,5.1,3.22,5,0C487,457,476.63,445.85,463.05,445.85a24.37,24.37,0,0,0,0,48.74c13.57,0,24-11.11,24.37-24.37C487.52,467,482.52,467,482.42,470.22Z"/><path class="cls-8" d="M560.22,152.2c3.22,0,3.22-5,0-5s-3.22,5,0,5h0Z"/><path class="cls-9" d="M409.86,217.42c10.46-11,23.29-20.88,38.58-23.59,13.8-2.45,28.64,1.65,37.53,12.82,1.25,1.57,3.65.5,4.18-1.1,4.32-13.27,10.42-31.05,22.71-39.17,14.09-9.31,26.94,4.33,35.29,14.65a2.51,2.51,0,0,0,3.93-.51c5.68-11.85,14.68-28.86,30.66-25.08,3.13,0.74,4.46-4.08,1.33-4.82-18.53-4.38-29.49,13.18-36.31,27.38l3.93-.51c-9.36-11.57-23.05-24.74-39-16.81-15.26,7.61-22.5,28.5-27.39,43.54l4.18-1.1c-9.34-11.73-25-16.43-39.55-14.54-17.27,2.24-31.91,13-43.63,25.31-2.22,2.33,1.31,5.87,3.54,3.54h0Z"/><path class="cls-9" d="M329.24,192.2c10.46-11,23.29-20.88,38.58-23.59,13.8-2.45,28.64,1.65,37.53,12.82,1.25,1.57,3.65.5,4.18-1.1,4.32-13.27,10.42-31.05,22.71-39.17,14.09-9.31,26.94,4.33,35.29,14.65a2.51,2.51,0,0,0,3.93-.51c5.68-11.85,14.68-28.86,30.66-25.08,3.13,0.74,4.46-4.08,1.33-4.82C484.91,121,474,138.57,467.14,152.77l3.93-.51c-9.36-11.57-23.05-24.74-39-16.81-15.26,7.61-22.5,28.5-27.39,43.54l4.18-1.1c-9.34-11.73-25-16.43-39.55-14.54-17.27,2.24-31.91,13-43.63,25.31-2.22,2.33,1.31,5.87,3.54,3.54h0Z"/><path class="cls-9" d="M214,198.13c10.46-11,23.29-20.88,38.58-23.59,13.8-2.45,28.64,1.65,37.53,12.82,1.25,1.57,3.65.5,4.18-1.1,4.32-13.27,10.42-31.05,22.71-39.17,14.09-9.31,26.94,4.33,35.29,14.65a2.51,2.51,0,0,0,3.93-.51c5.68-11.85,14.68-28.86,30.66-25.08,3.13,0.74,4.46-4.08,1.33-4.82-18.53-4.38-29.49,13.18-36.31,27.38l3.93-.51c-9.36-11.57-23.05-24.74-39-16.81-15.26,7.61-22.5,28.5-27.39,43.54l4.18-1.1c-9.34-11.73-25-16.43-39.55-14.54-17.27,2.24-31.91,13-43.63,25.31-2.22,2.33,1.31,5.87,3.54,3.54h0Z"/><path class="cls-7" d="M198.18,366c-6-9.63-11.06-21.13-11.66-32.63-0.29-5.61.95-11.6,5.43-15.37,4.31-3.62,11.85-3.45,14.09,2.53l4.18-2.43c-5.85-6.66-4.28-18.72,3.76-23,8.62-4.64,19.59,1.81,21.45,10.88l4.82-1.33c-4.23-13.3,4.85-26.5,18.92-26.91,3.21-.09,3.22-5.1,0-5a25.36,25.36,0,0,0-23.74,33.24,2.5,2.5,0,0,0,4.82-1.33c-2.51-12.23-17.54-20.11-28.8-13.87-10.92,6.05-12.74,21.83-4.77,30.89,1.6,1.82,5.05-.1,4.18-2.43-5-13.4-21.89-9.5-27.12,1.53-7,14.83,2.18,35.11,10.12,47.79,1.7,2.72,6,.22,4.32-2.52h0Z"/><path class="cls-7" d="M114.77,419.19a21.94,21.94,0,0,0-22.46-16.89c-5,.32-7.72,2.08-8.22,7.34a13.06,13.06,0,0,0,5.68,12l2.52-4.32c-6.9-4.26-16.93-9.59-24.35-3.39-4.7,3.93-6.6,11.28-1.74,15.81L68,425.53c-9.29.43-17.64,6.95-18.74,16.5a19.54,19.54,0,0,0,3.52,13.67c2.9,4,7.39,6.15,10.79,9.61,5.49,5.59.06,11.67-1.31,17.91-1,4.67-1,9.65,1.3,14,3.8,7.26,13.78,10,20,4.3,2.4-2.17-1.14-5.67-3.54-3.54-5.75,5.11-3.09,14.26,3.65,17,9.4,3.81,17.67-3.76,23.48-10.16,2.16-2.38-1.37-5.92-3.54-3.54-3.34,3.67-6.94,7.91-11.94,9.24-3,.79-6.86.61-8.84-2.17a5,5,0,0,1,.72-6.82L80,498c-3.67,3.31-9.44,1.27-11.83-2.6s-1.83-9-.55-13.09c2-6.4,5.85-11.77,1.43-18.15-3.68-5.3-10.65-7.47-13.55-13.41C50.95,441.31,57.81,431,68,430.53c2.06-.1,3.43-2.72,1.77-4.27-3.35-3.12-.07-8.47,3.59-9.66,5.67-1.85,11.83,2.23,16.44,5.09,2.79,1.72,5.08-2.47,2.52-4.32-2.11-1.52-4.77-6.15-2.93-8.82,1.53-2.22,6.3-1.3,8.55-.67a16.73,16.73,0,0,1,12,12.65c0.67,3.15,5.49,1.81,4.82-1.33h0Z"/><path class="cls-6" d="M125.12,480.19c28.24,34.86,79.41,49,121.55,33.65,4.66-1.7,9.29-3.74,14.23-4.15,5.62-.47,11.17,1.2,16.56,2.85L311.69,523c4.23,1.29,8.73,2.59,13,1.44s7.9-5.81,6.28-9.92c-1.48-3.76-6.11-5-10.09-5.64l-33.26-5.75c-3-.52-6.43-1.35-7.76-4.09-1.14-2.35-.23-5.12.57-7.6a77.06,77.06,0,0,0-54.2-98.19A456.65,456.65,0,0,1,149,477.36c-4.1,3.47-8.55,7.35-9.34,12.66"/><path class="cls-7" d="M144.09,505.42a437.07,437.07,0,0,0,91-90.5c1.93-2.58-2.41-5.08-4.32-2.52a429.12,429.12,0,0,1-89.22,88.71c-2.56,1.89-.07,6.23,2.52,4.32h0Z"/><path class="cls-7" d="M126.35,478c16.23,19.73,39.42,33.06,64.39,38.16a114.24,114.24,0,0,0,38.3,1.35,103.23,103.23,0,0,0,18.56-4.26c8.18-2.72,15.13-6.15,24-4.47,8.55,1.62,17,4.9,25.31,7.44,7.78,2.38,15.86,5.75,23.93,6.92,5.44,0.79,11.16-.36,14.35-5.24a8.89,8.89,0,0,0-2.1-12.28c-5.35-4.05-13.95-4-20.29-5.14l-12.72-2.2c-3.74-.65-8.91-0.67-12.36-2.42-4.92-2.5-1.49-8.63-.53-12.48A80.19,80.19,0,0,0,289,472.93a81.42,81.42,0,0,0-.59-22.07c-5-30.89-28.49-56-58.55-64a2.59,2.59,0,0,0-2.82,1.15,458,458,0,0,1-44.21,53.08Q171.33,452.94,159,464c-6.77,6-16.72,11.91-18.77,21.39-0.68,3.14,4.14,4.48,4.82,1.33,1.1-5.1,4.91-8.31,8.7-11.56,4.31-3.69,8.58-7.4,12.77-11.22q12.23-11.15,23.63-23.18a467.25,467.25,0,0,0,41.27-50.22l-2.82,1.15c26.17,7,47.18,27.65,53.74,54.06,3.41,13.72,2.63,27.57-1.28,41.06-1.3,4.48-2.11,9.21,2.17,12.34,5.27,3.86,14.27,3.72,20.46,4.79,7,1.2,14,2.13,20.91,3.63,3.81,0.83,10.12,3.4,5.89,8.33-3.39,3.95-9.22,2.4-13.49,1.2-14.9-4.19-29.7-10.61-44.95-13.35-12.94-2.32-24.5,5.07-36.87,7.65A106.36,106.36,0,0,1,200,512.62c-27.15-3.49-52.65-17-70.07-38.19-2-2.49-5.56,1.07-3.54,3.54h0Z"/><path class="cls-6" d="M185.89,350.16c-4.26-33-36.17-60.07-69.45-58.85-3.88.14-7.9,0.67-11.15,2.79-8.26,5.39-7.6,17.48-6,27.2,7.21,43.28,14.47,86.78,28.45,128.38a99.15,99.15,0,0,1,12.32-38.41,242.56,242.56,0,0,0,18,35.54,58.89,58.89,0,0,0,0-30.15,101.09,101.09,0,0,0,25.57,27.68l-4.05-35.83,23.74,30.27a106.41,106.41,0,0,0-10.49-36.43,201.18,201.18,0,0,0,28.74,32.79q-18.37-42.23-38.93-83.46"/><path class="cls-7" d="M106.65,48.76L99.34,45.1c-1.53-.77-4,0.13-3.76,2.16,7.33,77.37,14.38,154.77,22,232.12,0.7,7.12,1.57,15.3,7.23,20.39,4.56,4.1,11.59,5.45,16.7,1.64,2.55-1.9.06-6.24-2.52-4.32-7.56,5.64-14-3.77-15.41-10.35-1.77-8.17-1.9-16.9-2.69-25.22L116,209.94l-9.86-104.15-5.54-58.53-3.76,2.16,7.31,3.67c2.87,1.44,5.4-2.87,2.52-4.32h0Z"/><path class="cls-7" d="M95.73,341.15l41-14,20.48-7c5.79-2,14.06-6.41,20.05-3.28L176,314.74c-0.44,6.53-10.85,9-15.69,10.94q-9.87,3.94-19.84,7.62Q120.51,340.67,100.2,347l3.16,2.41,0-4.65c0-3.22-5-3.22-5,0l0,4.65a2.52,2.52,0,0,0,3.16,2.41q24.9-7.76,49.29-17.07c7-2.68,14.28-5.15,21-8.48,4.83-2.39,8.77-5.88,9.14-11.51a2.45,2.45,0,0,0-1.24-2.16c-5.16-2.7-10.4-1.74-15.74,0-7.72,2.51-15.38,5.24-23.06,7.87L94.4,336.32c-3,1-1.73,5.87,1.33,4.82h0Z"/><path class="cls-7" d="M191.3,345.49c-4.47-31.65-32.46-57.55-64.16-60.46-7.54-.69-16.86-0.74-22.65,4.93-5.35,5.25-6,13.38-5.54,20.45,0.71,9.78,2.94,19.55,4.59,29.2,1.88,11,3.83,21.95,6,32.88,4.88,25,10.79,49.71,18.84,73.85,0.93,2.8,4.6,2.09,4.91-.66a99.56,99.56,0,0,1,12-37.15l-4.57-.6A257.67,257.67,0,0,0,159,444.07a2.53,2.53,0,0,0,4.57-.6,64.31,64.31,0,0,0,0-31.48l-4.57,1.93a108.25,108.25,0,0,0,26.47,28.58,2.51,2.51,0,0,0,3.76-2.16l-4.05-35.83-4.27,1.77,23.74,30.27c1.29,1.65,4.5.31,4.27-1.77A114.47,114.47,0,0,0,198,397.09l-4.32,2.52A212.07,212.07,0,0,0,222.8,432.9c2.2,2,5-.5,3.93-3q-18.4-42.22-38.93-83.46c-1.43-2.88-5.75-.35-4.32,2.52Q204,390.16,222.41,432.4l3.93-3A205.93,205.93,0,0,1,198,397.09a2.5,2.5,0,0,0-4.32,2.52,107.28,107.28,0,0,1,10.15,35.17l4.27-1.77-23.74-30.27c-1.29-1.65-4.5-.31-4.27,1.77l4.05,35.83,3.76-2.16a101.53,101.53,0,0,1-24.67-26.78,2.51,2.51,0,0,0-4.57,1.93,58.58,58.58,0,0,1,0,28.82l4.57-.6a249.64,249.64,0,0,1-17.78-34.94c-0.76-1.85-3.43-2.66-4.57-.6a105.93,105.93,0,0,0-12.66,39.67l4.91-.66c-12.29-36.86-19.47-75.08-25.93-113.32-1.45-8.58-3.69-17.45-3.41-26.2,0.12-3.6.73-7.62,3-10.58,3.31-4.41,8.92-5.07,14.06-5.14,14.76-.2,29.32,5.4,40.81,14.55a66.48,66.48,0,0,1,24.83,42.5c0.45,3.17,5.27,1.82,4.82-1.33h0Z"/><path class="cls-7" d="M109.86,44q13.63,102.63,23.42,205.72c0.89,9.38,1.84,18.75,2.59,28.14,0.65,8.14,1,17.29-4.77,23.78-2.13,2.4,1.39,5.95,3.54,3.54,9.6-10.79,6.32-26.6,5.11-39.68q-2.45-26.64-5.16-53.25-5.47-53.72-12-107.32Q118.91,74.46,114.86,44c-0.42-3.14-5.42-3.18-5,0h0Z"/><path class="cls-10" d="M399.63,499.19l0.18,0.08Z"/><path class="cls-10" d="M399.86,497.65h0l0,0Z"/><path class="cls-10" d="M399.8,497.67l-0.24.07A0.57,0.57,0,0,0,399.8,497.67Z"/><path class="cls-10" d="M401.09,500a1.55,1.55,0,0,0,.23.2Z"/><path class="cls-10" d="M402.16,500.05l0.13,0Z"/><path class="cls-10" d="M398.9,499l0-.09Z"/><path class="cls-10" d="M398.95,499.42s0,0,0,0v0.05C399,499.54,399,499.46,398.95,499.42Z"/><path class="cls-10" d="M399,499.73v0S399,499.75,399,499.73Z"/><path class="cls-10" d="M397.91,502.56l-0.07.24A2.34,2.34,0,0,0,397.91,502.56Z"/><path class="cls-10" d="M398.82,498.73l0.06,0.21Z"/><path class="cls-10" d="M399.52,499.15l0.11,0Z"/><path class="cls-10" d="M401,500.09h0S401,500.07,401,500.09Z"/><path class="cls-10" d="M399.44,496.94l-0.11,0C399.29,497,399.34,497,399.44,496.94Z"/><path class="cls-10" d="M399.24,499.45a6.47,6.47,0,0,1,.32.68c0-.16-0.09-0.27.11,0.06a3.78,3.78,0,0,0,.19.55l-0.06-.24c0.18,0.25.37,0.71,0.38,0.64-0.38-.76.36,0.17,0.37,0l0,0.08,0.34,0.24,0,0-0.09-.13c0.29,0.3.58,0.45,0.62,0.29-0.28-.37.19-0.41-0.09-0.72,0.06,0.11,0,.16-0.1.12l-0.42-.4c0.07-.06.4,0.35,0.2,0.05-0.6-.51-0.08.09-0.19,0.09a2.37,2.37,0,0,1-.24-0.36c-0.09.08-.35-0.09,0.1,0.57a1.85,1.85,0,0,1-.36-0.45c0.23,0.41-.32-0.32-0.11.05a4.23,4.23,0,0,1-.37-0.73c0.46,0.38.13-.1,0.08-0.2,0.43,0.32.73,0.68,1,.84s-0.14-.28-0.36-0.49a2.4,2.4,0,0,0,.85.38l0.24,0.28c0.7,0.31-.2-0.25,0-0.23-0.18-.08-0.35-0.17-0.37-0.1a0.82,0.82,0,0,1-.33-0.28h0c-0.3-.21-0.65-0.41-0.46-0.37a0.88,0.88,0,0,0,.53.18l0.08,0.06a1.25,1.25,0,0,1-.09-0.21l0.1,0a2.59,2.59,0,0,1-.55-0.31,2.4,2.4,0,0,0,.7.24c0.32,0.11.32,0.22,0.18,0.25a0.91,0.91,0,0,1,.66.25c0.41,0.12-.14-0.17.07-0.16-0.13,0-.26-0.1-0.39-0.14,0.55,0.18.11-.2-0.28-0.29l0.28,0.18c-0.45-.13-0.71-0.31-1-0.34,0.72,0.14-.3-0.24.3-0.16l-0.37,0c0.23-.12-0.59-0.28-0.77-0.32,0.24,0,1,0,.75.09a5.55,5.55,0,0,1,1.2-.09c0.29-.16-0.75,0-1-0.07L401,499c-0.47,0-.43-0.08-0.34-0.16s0.21-.18-0.08-0.19a0.24,0.24,0,0,1,.23,0c0.46-.16-0.1,0-0.29,0a1.19,1.19,0,0,1,.82-0.32,1.3,1.3,0,0,0-.53.09l0.12,0-0.66.07a4.29,4.29,0,0,1,1-.43,9.53,9.53,0,0,0-1.52.25,2.16,2.16,0,0,1,.65-0.17l-0.09-.08a8.84,8.84,0,0,0,1.07-.2,1.89,1.89,0,0,1-.76,0l-0.06,0c-0.51.11-.2-0.11-0.32-0.14a0.87,0.87,0,0,1,.49,0c0.22-.15-0.09-0.27-0.74-0.09a1.2,1.2,0,0,1,.59-0.3c0-.19-0.92.29-0.78,0.1l0.48-.19c0.62-.42-0.72,0-0.16-0.39l-0.57.26c0.23-.14.31-0.24,0.53-0.36l0.22,0c0.45-.28-0.48.15-0.18-0.07-0.17.08-.53,0.32-0.72,0.41,0.45,0.1-.28.69,0.4,0.71a1.38,1.38,0,0,1,.26-0.11,0.4,0.4,0,0,1-.28.18h0a1.89,1.89,0,0,1-.53.36c0.41-.11-0.13.18,0.56-0.06l-0.43.18c0.26-.06.6-0.18,0.74-0.19a1,1,0,0,1-.51.16,0.28,0.28,0,0,0-.1.3,0.66,0.66,0,0,0,.28.27l-0.35,0c-0.14.11,0.6,0-.25,0.13a1.52,1.52,0,0,0,.66,0c-0.86.1-.38,0.07-0.26,0.15a0.84,0.84,0,0,1,.57.15c-0.59-.1-0.61-0.15-1-0.19,0.47,0.07.3,0.09,0.2,0.06s-0.11,0,.62.25l-0.17-.06a2.33,2.33,0,0,1-.32-0.1,2.93,2.93,0,0,1,.45.2,6.75,6.75,0,0,1-.63-0.27,8.14,8.14,0,0,1,.92.63,3.74,3.74,0,0,1-.54-0.34c0.35,0.34-.11,0,0.08.24a1.61,1.61,0,0,1-.27-0.3c-0.34-.27-0.31-0.25-0.25-0.17s0.13,0.19,0,0l0.34,0.44a2,2,0,0,1-.41-0.49c-0.22-.26,0,0-0.05,0L399,499h0l0.34,0.71C399.21,499.46,399.12,499.28,399.24,499.45Z"/><path class="cls-10" d="M399.34,499.75l0,0.06h0Z"/><path class="cls-10" d="M401.9,500.53l-0.23-.07A0.8,0.8,0,0,0,401.9,500.53Z"/><path class="cls-10" d="M398.55,500.87c-0.08.85,0.1-.13,0.13,0.11a3.45,3.45,0,0,0-.1.87c0.15-1.09.1,0.23,0.31,0,0,0.36-.08.42-0.1,0.82a1.62,1.62,0,0,0,.26-1.05,0.55,0.55,0,0,0,.39.05,11.15,11.15,0,0,0,.1,1.15,7.58,7.58,0,0,0-.12-2.5c0.25,0.63.29,0.69,0.49,1.27,0.36,0.34-.18-0.6.05-0.48l-0.12-.08a6.06,6.06,0,0,0-.47-1.2l-0.05.12a1.67,1.67,0,0,1-.14-0.49c-0.23-.51-0.19-0.36-0.36-0.76a1.79,1.79,0,0,1,.14.38l-0.09-.23c-0.09-.25.11,0.36,0.08,0.35l0-.16a5.05,5.05,0,0,1,.15.71v0a10.55,10.55,0,0,0,.26,1.6s-0.22-.14-0.22-0.15c-0.05-.64-0.17-1.64-0.16-1.72l0-.27a3.91,3.91,0,0,0,.1,1.07c0.07,0.78,0,.8-0.08.7s-0.13-.3-0.21,0c0-.43.08-0.59,0.09-0.89,0-.05,0-0.06,0,0.3,0.09-.24-0.06-1.35,0-1.2a6.75,6.75,0,0,0,.08.74l0-.59-0.07-.59a2.63,2.63,0,0,1,0,.36c0,0.41-.1.41-0.11,0.35a0.65,0.65,0,0,1,0-.23,0.39,0.39,0,0,1-.15.14,0.22,0.22,0,0,0-.07,0,0.13,0.13,0,0,1,0,.08c0,0.11-.14-0.1-0.12-0.07-0.23-.09-0.22-0.17-1.3.29a0.91,0.91,0,0,1-.43.34c0.4-.18.64-0.22,0.65-0.12-0.38.2-.22,0-0.3,0.08l0,0a0.83,0.83,0,0,1-.36.12c-0.54.37-.31,0.54,0.46,0.19a1.59,1.59,0,0,1-1,.38,1.24,1.24,0,0,0,.22.72,4.11,4.11,0,0,0,.48.47,6.59,6.59,0,0,1,.64-0.77l-0.12.25a5.37,5.37,0,0,0,.41-0.7c-0.15.59,0.66-.79,0.8-1.08l-0.16.36a0.44,0.44,0,0,0,.18-0.24,4.61,4.61,0,0,1-.41,1l0.09-.14a7.44,7.44,0,0,1-.57,1.17c0.4-.53.21,0.33,0.55-0.08a1.12,1.12,0,0,1-.5.71c0.08,0.07.31-.19,0.22,0.2l0.14-.53a2,2,0,0,1-.16.84,1,1,0,0,0,.38-0.9A4.22,4.22,0,0,1,398.55,500.87Z"/><path class="cls-10" d="M400.67,500.38c-0.05,0-.05,0,0,0.08A0.07,0.07,0,0,0,400.67,500.38Z"/><path class="cls-10" d="M400.95,501.52l0.11,0.17A0.67,0.67,0,0,0,400.95,501.52Z"/><path class="cls-10" d="M401.34,502.17a2.82,2.82,0,0,1-.29-0.49A0.6,0.6,0,0,0,401.34,502.17Z"/><path class="cls-10" d="M399.86,492.89a2.14,2.14,0,0,0-.36.28l0.21-.06Z"/><path class="cls-10" d="M399.59,493.47l-0.08.22,0.58-.46C400,493.15,399.68,493.54,399.59,493.47Z"/><path class="cls-10" d="M399.49,494l-0.15.11A0.57,0.57,0,0,0,399.49,494Z"/><path class="cls-10" d="M399.72,493.74l0.42-.34-0.38.17,0,0.11a3,3,0,0,0-.23.27l0.32-.23S399.68,493.8,399.72,493.74Z"/><path class="cls-10" d="M399.81,493.81l0.11-.12Z"/><path class="cls-10" d="M399.22,494.65a5.47,5.47,0,0,1,.56-0.44c0.09-.21-0.51.31-0.37,0.08a0.72,0.72,0,0,0,.41-0.49,2.8,2.8,0,0,0-.63.79l0.26-.21A0.89,0.89,0,0,1,399.22,494.65Z"/><path class="cls-10" d="M400.17,494.52l-0.44.24a3.25,3.25,0,0,1,.52-0.57,2.71,2.71,0,0,0-.39.2c0.18-.19.32-0.34,0-0.14a3.54,3.54,0,0,0-.31.62c-0.09.07-.09,0-0.08,0l-0.16.24A3.81,3.81,0,0,0,400.17,494.52Z"/><path class="cls-10" d="M400,494.87a1.47,1.47,0,0,0-.72.43l0.42-.11S399.54,495.14,400,494.87Z"/><path class="cls-10" d="M400,495c-0.19.18-.64,0.55-0.18,0.29C399.72,495.24,400.37,494.83,400,495Z"/><path class="cls-10" d="M399.93,495.71l0.2-.31c0.54-.38.22,0,0.49-0.16,0-.19-0.12,0-0.52.1a1.29,1.29,0,0,0-.48.15C400.19,495.36,398.82,496.24,399.93,495.71Z"/><polygon class="cls-10" points="400.33 495.08 400.09 495.22 400.31 495.17 400.33 495.08"/><path class="cls-10" d="M399.48,496.38c-0.65.45,0.47-.07,0.21,0.18l-0.19.07,0.11,0-0.16.08a5.46,5.46,0,0,1,1-.35c0.41-.3-0.54.22-0.09-0.09L401,496a5.18,5.18,0,0,0-.74.27,0.56,0.56,0,0,1,.33-0.22,1.72,1.72,0,0,1-.78.23c0.33-.25.59-0.28,0.39-0.29-0.63.41,0-.15-0.38,0a2.41,2.41,0,0,1,.69-0.55,5.28,5.28,0,0,1-1.13.54l0.48-.14-0.56.39c0.31-.1.29,0,0.25,0.07h0Z"/><path class="cls-10" d="M401,496l0.12,0S401.06,496,401,496Z"/><polygon class="cls-10" points="400.64 495.39 400.78 495.35 400.93 495.23 400.64 495.39"/><path class="cls-10" d="M401.45,495.88a0.39,0.39,0,0,0-.2.09l0.3-.11Z"/><polygon class="cls-10" points="401.1 496.15 400.77 496.37 401.06 496.26 401.1 496.15"/><path class="cls-10" d="M401.41,498.16c0.22-.11-0.23,0-0.56.07A1.61,1.61,0,0,0,401.41,498.16Z"/><path class="cls-10" d="M402.06,499.58c0.31,0-.13-0.21-0.11-0.29C401.71,499.35,401.84,499.46,402.06,499.58Z"/><path class="cls-10" d="M403.26,500.94c-0.12-.1-0.17-0.17-0.26-0.13l-0.35-.23-0.36-.22C402,500.39,402.93,500.8,403.26,500.94Z"/><path class="cls-10" d="M402.67,502.06l-0.12-.35-0.08.06c-0.22-.25-0.33-0.37-0.51-0.58A2,2,0,0,0,402.67,502.06Z"/><path class="cls-10" d="M401.93,501a0.44,0.44,0,0,0,0,.07C402,501.11,402.13,501.17,401.93,501Z"/><path class="cls-10" d="M401.91,501.11l0.06,0.07a0.75,0.75,0,0,1,0-.13C401.87,501,401.81,501,401.91,501.11Z"/><path class="cls-10" d="M402.27,501.9s-0.15.3-.16,0.29l0.2,0C402,501.85,402.64,502.31,402.27,501.9Z"/><path class="cls-10" d="M400.79,502.49l-0.25-.43c-0.16,0,0,1-.34.33a1.09,1.09,0,0,0,.31.64C400.43,502.57,400.63,502.45,400.79,502.49Z"/><path class="cls-10" d="M400,502a1.33,1.33,0,0,0-.15-0.36c-0.06,0,0,.2,0,0.39C399.7,501.43,400,502.44,400,502Z"/><path class="cls-10" d="M399.34,502.24s0.09-.08,0-0.19a3.22,3.22,0,0,0,0,1C399.48,503.28,399.46,502.49,399.34,502.24Z"/><path class="cls-10" d="M398.79,498.88v0Z"/><polygon class="cls-10" points="398.33 502.12 398.35 502.23 398.47 501.58 398.33 502.12"/><path class="cls-10" d="M397.46,502.26l-0.27.34h0.19Z"/><path class="cls-10" d="M397.36,502.09l-0.14,0,0,0.17C397.2,502.38,397.31,502.08,397.36,502.09Z"/><path class="cls-10" d="M396.94,502s0,0,0,.1l0.25-.18Z"/><path class="cls-10" d="M398,499.16l0.19-.1,0,0h0l0.07,0.15h0s-0.06,0,0,0l-0.29.14a0.12,0.12,0,0,0-.07.05h0l-0.05-.11h0Z"/><path class="cls-6" d="M524,354.86a5.94,5.94,0,0,1-4.66,6.9L373.12,390.7a5.82,5.82,0,0,1-6.84-4.62l-6.43-34a5.94,5.94,0,0,1,4.66-6.9l146.21-28.94a5.82,5.82,0,0,1,6.84,4.62Z"/><path class="cls-7" d="M519.26,359.51c0.38,5.33-4.74,5.58-8.39,6.3l-14.45,2.86-45.11,8.93-47.79,9.46c-8.5,1.68-17.22,4.16-25.84,5.12-6.29.7-6.35-7.76-7.16-12-1.38-7.27-3-14.55-4.14-21.87-0.45-3,.08-5.27,3.45-6.77a12.9,12.9,0,0,1,2.58-.51l12.5-2.47L477,330.28c9.87-2,19.74-4.25,29.67-5.87a10.67,10.67,0,0,1,1.59-.32c4.84,0,5.07,4.11,5.71,7.5l4.32,22.84,1,5.4c0.3,1.58,2.71.91,2.41-.66l-3.59-19c-0.9-4.74-.85-14.46-5.43-17.49-2.83-1.87-6-.81-9.05-0.21l-15,3L389,345.16l-15.72,3.11c-2.86.57-6.14,0.77-8.14,3.18-3.51,4.22-.11,12.93.77,17.57,1.26,6.69,1.94,13.85,3.85,20.39,2.66,9.07,15.71,3.78,22.08,2.51l47.48-9.4,51.49-10.19c8.4-1.66,17.37-2.64,25.59-5.07a7.08,7.08,0,0,0,5.38-7.76C521.65,357.92,519.15,357.9,519.26,359.51Z"/><path class="cls-7" d="M513,356.64c0.25,4.75-4.64,4.77-7.51,5.34l-12.69,2.52-40.39,8-43,8.54c-8.74,1.74-17.67,4.23-26.53,5.27-4.18.49-5.83-2.24-6.54-6-1.18-6.22-3.44-13-3.65-19.31-0.26-7.74,10.74-7.34,16.29-8.44l81.93-16.28c10.42-2.07,21.06-5,31.62-6.28,5.57-.66,6.16,4,7,8.29L513,357c0.3,1.58,2.71.91,2.41-.66L512,338.09c-1-5.07-1.39-11.53-8.29-10.83-7.21.73-14.55,2.89-21.65,4.3l-90.1,17.9-13.63,2.71c-2.64.53-5.54,0.73-7.29,3.09-2.93,4,.35,12.31,1.14,16.53s0.79,13.74,5,16.48c2.46,1.61,5.25.71,7.87,0.19l13.29-2.64,44-8.74,46-9.14c7.31-1.45,15.25-2.23,22.39-4.45a6.32,6.32,0,0,0,4.74-6.84C515.39,355,512.89,355,513,356.64Z"/><circle class="cls-7" cx="392.93" cy="368.26" r="5.75" transform="translate(-61.58 79.42) rotate(-10.71)"/><circle class="cls-7" cx="412.04" cy="364.65" r="5.75" transform="translate(-60.58 82.9) rotate(-10.71)"/><circle class="cls-7" cx="431.16" cy="361.04" r="5.75" transform="translate(-59.57 86.39) rotate(-10.71)"/><circle class="cls-7" cx="450.27" cy="357.42" r="5.75" transform="translate(-58.57 89.88) rotate(-10.71)"/><circle class="cls-7" cx="469.39" cy="353.81" r="5.75" transform="translate(-57.56 93.37) rotate(-10.71)"/></g></g></g></svg>