<svg xmlns="http://www.w3.org/2000/svg" xmlns:xlink="http://www.w3.org/1999/xlink" viewBox="0 0 580 580"><defs><style>.cls-1{fill:none;}.cls-2{isolation:isolate;}.cls-3{clip-path:url(#clip-path);}.cls-4{fill:#fdea8b;}.cls-5{fill:#014e7f;}.cls-6{fill:#fff;}.cls-7{mix-blend-mode:multiply;fill:url(#radial-gradient);}.cls-8{fill:#da1f47;}</style><clipPath id="clip-path"><rect class="cls-1" x="-1.04" width="580" height="580"/></clipPath><radialGradient id="radial-gradient" cx="300.62" cy="288.39" r="217.89" gradientUnits="userSpaceOnUse"><stop offset="0" stop-color="#ffd459"/><stop offset="0.16" stop-color="#ffcd31"/><stop offset="1" stop-color="#fff"/></radialGradient></defs><title>iiLAB -U1-concepts-04-DEVICE SEIZED</title><g class="cls-2"><g id="Layer_2" data-name="Layer 2"><g class="cls-3"><rect class="cls-4" x="-28.78" y="-42.04" width="645" height="645"/><path class="cls-5" d="M523.85,588.35c0.27,0.88,0-.76,0-1.44,0-1.58,0-3.16,0-4.74,0.09-5.33.25-10.67,0.42-16,0.53-17,1.17-34.07,1.82-51.11q2.17-56.68,4.59-113.34,0.54-12.85,1.09-25.69a2.51,2.51,0,0,0-2.5-2.5l-34.73,3a2.55,2.55,0,0,0-2.5,2.5V589c0,3.22,5,3.22,5,0V379l-2.5,2.5,34.73-3-2.5-2.5q-1.54,35.9-3,71.81c-1.55,38-3.13,76-4.35,113.95-0.21,6.53-.42,13.06-0.54,19.59,0,2.51-.62,5.84.13,8.3,0.94,3.07,5.76,1.76,4.82-1.33h0Z"/><path class="cls-5" d="M156.9,601.56c0.51,1.09-.08-0.81-0.16-1.27q-0.35-2.06-.66-4.12c-0.71-4.7-1.36-9.4-2-14.11-2-14.82-3.94-29.66-5.86-44.5q-6.35-49.3-12.48-98.63-1.42-11.34-2.82-22.69a2.55,2.55,0,0,0-3.16-2.41l-34,7.62A2.56,2.56,0,0,0,94,424.53l10.71,61.72,17.07,98.33,3.91,22.51c0.55,3.16,5.37,1.82,4.82-1.33L119.8,544l-17.07-98.33L98.82,423.2l-1.75,3.08,34-7.62-3.16-2.41q3.89,31.39,7.85,62.77c4.23,33.57,8.45,67.15,13,100.69,0.77,5.68,1.54,11.35,2.38,17,0.35,2.36.41,5.18,1.44,7.37,1.36,2.92,5.67.38,4.32-2.52h0Z"/><polygon class="cls-6" points="602.43 409.81 492.62 253.51 130.22 302.02 20.07 470.75 29.42 498.54 584.01 439.79 592.64 410.84 602.43 409.81"/><circle class="cls-7" cx="300.62" cy="288.39" r="217.89"/><path class="cls-5" d="M128.64,231.62c3.62,9.63,13.38,16.23,21.38,22,9.23,6.66,20.12,12.48,27.67,21.15,2.12,2.43,5.64-1.12,3.54-3.54-6.68-7.68-16.1-13.08-24.36-18.87-8-5.59-19.79-12.44-23.41-22.09-1.12-3-6-1.69-4.82,1.33h0Z"/><path class="cls-5" d="M184.35,202.66c-6.93,8.62-3.15,22.22,7.45,25.75,3.06,1,4.37-3.81,1.33-4.82-6.78-2.26-9.79-11.74-5.24-17.4,2-2.48-1.52-6-3.54-3.54h0Z"/><path class="cls-5" d="M229.66,157.11a161.22,161.22,0,0,0,7.44,54.53c1,3.06,5.8,1.75,4.82-1.33a157,157,0,0,1-7.26-53.2c0.11-3.22-4.89-3.21-5,0h0Z"/><path class="cls-5" d="M287.19,155.31v32.35c0,3.22,5,3.22,5,0V155.31c0-3.22-5-3.22-5,0h0Z"/><path class="cls-5" d="M366.74,132.55a160.33,160.33,0,0,0-13.4,40c-0.61,3.14,4.21,4.49,4.82,1.33a155.4,155.4,0,0,1,12.9-38.8c1.4-2.88-2.91-5.42-4.32-2.52h0Z"/><path class="cls-5" d="M395.36,182.8l-12.58,18c-1.85,2.64,2.48,5.14,4.32,2.52l12.58-18c1.85-2.64-2.48-5.14-4.32-2.52h0Z"/><path class="cls-5" d="M424.08,209.73a82.53,82.53,0,0,0-12.77,25.8c-0.91,3.09,3.91,4.41,4.82,1.33a78.62,78.62,0,0,1,12.26-24.6c1.91-2.59-2.43-5.09-4.32-2.52h0Z"/><path class="cls-5" d="M436.5,261.32a12.84,12.84,0,0,0-9.61,15.22c0.68,3.14,5.5,1.81,4.82-1.33a7.8,7.8,0,0,1,6.12-9.07c3.15-.67,1.81-5.49-1.33-4.82h0Z"/><path class="cls-5" d="M122.57,295.47L136.95,308c2.41,2.11,6-1.41,3.54-3.54l-14.38-12.58c-2.41-2.11-6,1.41-3.54,3.54h0Z"/><path class="cls-5" d="M136.2,343.12l9,1.81c3.14,0.63,4.49-4.19,1.33-4.82l-9-1.81c-3.14-.63-4.49,4.19-1.33,4.82h0Z"/><path class="cls-8" d="M131.62,76.41c-2.34-5.2-7.41-6-11.27-1.81L17.18,187.21c-3.85,4.21-2.39,8.31,3.26,9.11L186.67,220c5.65,0.8,8.35-2.79,6-8Z"/><path class="cls-5" d="M126.41,90.66c-4.14-6.88-10.68-5.28-15.22-.11l-11.06,12.62L62.77,145.82c-8.82,10.07-17.86,20-26.49,30.23-4.39,5.21-4.1,11.66,3.39,13.48,3.19,0.77,6.51,1.17,9.74,1.75l104.36,18.79,16.65,3c4.09,0.74,9.6,2.08,11.83-2.61,1.79-3.77-1-7.95-2.64-11.32l-8.35-17L127.4,92.68l-1-2c-1.7-3.47-6.88-.43-5.18,3l35.23,71.83,18.15,37c0.84,1.72,3.27,4.88.48,5.31s-6.89-1.24-9.52-1.71L68.12,188.58l-18.68-3.36c-2.31-.42-6.1-0.35-8.2-1.48-3.65-1.95.85-5.22,2.48-7.09l12.31-14,35.26-40.24c8.17-9.33,16-19.16,24.61-28.09,1.6-1.66,3.22-4.09,5.33-.58C123.22,97,128.41,94,126.41,90.66Z"/><path class="cls-5" d="M110.53,120.79l-5.15,35.67c-0.55,3.78,5.24,5.41,5.79,1.6l5.15-35.67c0.55-3.78-5.24-5.41-5.79-1.6h0Z"/><path class="cls-5" d="M111.93,178.49a6.64,6.64,0,1,0-.11.8,3.08,3.08,0,0,0-2.1-3.69,3,3,0,0,0-3.69,2.1c-0.11.57-.28,1.09-0.89,1a0.69,0.69,0,0,1-.56-0.82,0.68,0.68,0,0,1,.81-0.56c0.62,0.13.58,0.62,0.53,1.21a3,3,0,0,0,3,3A3.06,3.06,0,0,0,111.93,178.49Z"/><path class="cls-5" d="M125.6,294.7l35.93-4.81,86.81-11.62,104.55-14,90.41-12.1,29.84-4,9.38-1.26c1.28-.17,3.7,0,4.84-0.65a2.28,2.28,0,0,1,.65-0.09L485.85,245,523,297.79,582.11,382l13.55,19.29,2.16-3.76-58.17,6.09L401,418.09,232.35,435.74l-145,15.17-48.11,5-15,1.57c-2.38.25-5.56,0-7.83,0.82a4.71,4.71,0,0,1-1,.1l2.16,3.76,37.1-56.84,59.45-91.08,13.59-20.82c1.76-2.7-2.56-5.21-4.32-2.52l-37.1,56.84L26.89,438.86,13.3,459.67c-1,1.49.28,4,2.16,3.76l58.17-6.09,138.65-14.51,168.65-17.65,145-15.17c23.57-2.47,47.47-4,70.92-7.42,0.32,0,.65-0.07,1-0.1,1.7-.18,3.36-2.05,2.16-3.76L562.86,345.9l-59.14-84.18-13.55-19.29a2.49,2.49,0,0,0-2.16-1.24L452.08,246l-86.81,11.62-104.55,14-90.41,12.1-29.84,4c-4.69.63-9.6,0.9-14.23,1.9-0.21,0-.43.06-0.65,0.09C122.46,290.12,122.42,295.13,125.6,294.7Z"/><path class="cls-5" d="M13.05,461.6l9.34,27.79a2.54,2.54,0,0,0,2.41,1.84l55.53-5.88,132.27-14,159.86-16.94L511.12,439.7c22.37-2.37,45.09-3.8,67.35-7.13,0.31,0,.62-0.07.93-0.1a2.61,2.61,0,0,0,2.41-1.84l9.2-30.85c0.43-1.43-.79-3.34-2.41-3.16l-57.08,6.16L394.46,417.56,228.72,435.44,85.93,450.84c-23.09,2.49-46.5,4.07-69.47,7.49-0.33,0-.67.07-1,0.11-3.17.34-3.2,5.35,0,5l57.08-6.16L209.6,442.5l165.74-17.87,142.79-15.4,47.18-5.09,14.61-1.58c2.32-.25,5.47,0,7.68-0.83a4.69,4.69,0,0,1,1-.11l-2.41-3.16L577,429.31l2.41-1.84-55.53,5.88-132.27,14L231.73,464.3,93.09,479l-45.58,4.83-14.29,1.51c-2.21.23-5.38,0-7.47,0.79a4.09,4.09,0,0,1-.93.1l2.41,1.84-9.34-27.79C16.85,457.24,12,458.54,13.05,461.6Z"/><path class="cls-6" d="M474.45,319.83c-11.76-7.82-28.86-2-37.19,9.37s-9.63,26.51-8.41,40.58c0.15,1.69.37,3.5,1.49,4.78s3.27,1.84,5.15,2.11a102.54,102.54,0,0,0,28.7.06c4.24-.59,8.57-1.5,12.09-3.94,8-5.54,9.18-16.72,9.44-26.45,0.14-5.29.2-10.81-2.1-15.58s-7.71-8.47-12.81-7L470.42,319"/><path class="cls-5" d="M475.71,317.67c-11.2-6.93-25.3-3.84-35,4.27-11.86,9.89-15,26.59-14.7,41.28,0.13,5.57-.32,13,6,15.23,7.88,2.75,18.29,2.07,26.45,1.4,7.36-.6,15.46-1.45,21.18-6.59,4.83-4.32,6.9-10.8,7.8-17,1.76-12.17,2-38.62-17.3-34.93l3.16,2.41L472.92,319c-0.26-3.18-5.27-3.21-5,0l0.39,4.67a2.55,2.55,0,0,0,3.16,2.41c16.6-3.17,12.6,30.49,8.28,38.83-3.86,7.47-11.7,8.93-19.38,9.72a101.35,101.35,0,0,1-12.46.49c-3.88-.08-9.48.21-13.18-1.17-6.17-2.29-3.89-16.72-3.26-22,0.87-7.13,3-14.27,7-20.27,7.37-10.87,22.81-17.16,34.7-9.8,2.74,1.7,5.26-2.63,2.52-4.32h0Z"/><path class="cls-5" d="M437.4,339.89c0.21-1.92,48.05,2.37,52.69,2.68,3.21,0.22,3.2-4.78,0-5L452.57,335c-5.59-.38-19.23-3.88-20.17,4.86-0.34,3.2,4.66,3.17,5,0h0Z"/><path class="cls-5" d="M457.47,320.54a48.21,48.21,0,0,1-1.14,17.37c-0.79,3.12,4,4.45,4.82,1.33a52.08,52.08,0,0,0,1.32-18.7c-0.35-3.16-5.36-3.2-5,0h0Z"/><path class="cls-5" d="M463.93,308.06c4.58-2.11,6-7.39,4.67-12-1.53-5.29-6.47-8.16-11.54-9.38-7.32-1.77-15.22-1.72-22.7-2.36-5.06-.43-29.56-1.05-21.92-11.91,1.19-1.69-.45-3.62-2.16-3.76a52,52,0,0,0-41.78,15.84c-2.23,2.32,1.3,5.86,3.54,3.54a47.15,47.15,0,0,1,38.25-14.38l-2.16-3.76c-3,4.28-1.9,10,1.71,13.6,4.42,4.43,11.27,4.7,17.11,5.2,7.89,0.68,15.81,1.21,23.69,2,3.78,0.39,8.71.93,11.51,3.88,2.48,2.61,3,7.47-.74,9.18-2.92,1.34-.38,5.66,2.52,4.32h0Z"/><path class="cls-5" d="M358.1,284.08a11.19,11.19,0,0,1,11.57-.11c3.57,2,7.86,7.45,5.09,11.78-3.6,5.62-10.56-1.32-12.55-4.67-2.28-3.83-4.06-7.78-7-11.14-2.14-2.41-5.67,1.13-3.54,3.54,5.25,5.92,6.71,14.75,14.63,18.09,5.95,2.5,12.58.28,14-6.48,2.67-13.16-14.31-21.77-24.63-15.33-2.72,1.7-.22,6,2.52,4.32h0Z"/></g></g></g></svg>