<svg xmlns="http://www.w3.org/2000/svg" xmlns:xlink="http://www.w3.org/1999/xlink" viewBox="0 0 580 580"><defs><style>.cls-1{fill:none;}.cls-2{isolation:isolate;}.cls-3{clip-path:url(#clip-path);}.cls-4{fill:#fdea8b;}.cls-5{opacity:0.82;mix-blend-mode:multiply;fill:url(#radial-gradient);}.cls-6{fill:#fff;}.cls-7{fill:#014e7f;}.cls-8{fill:#f6b319;}.cls-9{fill:#eb6f24;}.cls-10{fill:#ffec8d;}.cls-11{fill:#f9d467;}.cls-12{fill:#fffbcc;}</style><clipPath id="clip-path"><rect class="cls-1" width="580" height="580"/></clipPath><radialGradient id="radial-gradient" cx="291.58" cy="422.87" r="306.26" gradientUnits="userSpaceOnUse"><stop offset="0" stop-color="#ffd459"/><stop offset="0.16" stop-color="#ffcd31"/><stop offset="1" stop-color="#fff"/></radialGradient></defs><title>iiLAB -U1-concepts-04-DEVICE SEIZED</title><g class="cls-2"><g id="Layer_2" data-name="Layer 2"><g class="cls-3"><rect class="cls-4" x="-28.78" y="-34.94" width="645" height="645"/><circle class="cls-5" cx="291.58" cy="422.87" r="306.26"/><circle class="cls-6" cx="104.68" cy="313.61" r="28.21" transform="translate(-220.19 252.21) rotate(-60.84)"/><circle class="cls-6" cx="102.66" cy="369.39" r="17.99" transform="translate(-269.93 279.05) rotate(-60.84)"/><circle class="cls-6" cx="119.61" cy="414.53" r="12.67" transform="translate(-300.66 316.98) rotate(-60.84)"/><path class="cls-6" d="M104.1-61.72A198.8,198.8,0,0,0,32.52-43.19c-6.86,3.23-13.91,7.24-17.43,14-4.21,8-2.28,18,1.43,26.23C27.2,20.87,52.67,37.35,78.83,37.32a109.81,109.81,0,0,0-66,31.54C9.78,72,6.71,75.69,6.67,80.07c-0.06,6.34,6,10.8,11.6,13.82a183.4,183.4,0,0,0,63.44,20.62,37.82,37.82,0,0,0-15.19,62.27c17.24,17.72,46,14.56,70.33,10.09-14.66,11.53-12.42,36.33.81,49.47s33.43,16.58,52,15.39c-5.57,6.72-11.26,13.65-14.05,21.92s-2.11,18.31,4,24.57c3.93,4,9.5,6,14.95,7.43,39.68,10.46,84.41-.91,114.29-29a114.5,114.5,0,0,0,69.84,1.16c7.4-2.26,14.79-5.42,20.13-11s8.2-14.09,5.41-21.31c21.69,0.13,44.73-1.41,62.49-13.86s26.92-39.45,13.54-56.52c19-.88,38.28-5.39,53.91-16.23s27.07-28.7,27-47.72-13.34-38.12-32-41.85C541.5,63.83,554.29,58,562.49,47.36c13.66-17.71,10.16-44.21-2.36-62.73s-32.18-30.81-51.49-42.11c-5.94-3.47-11.94-6.93-17.2-11.37-4.5-3.79-8.4-8.24-12.89-12C467.09-90.6,452.44-95.57,438-99.78c-19.37-5.66-39.44-10.38-59.56-8.79s-40.53,10.33-52,26.93c-50.06-44.67-132.59-47.09-185.18-5.44-8.43-4.68-14.57-12.59-22.47-18.13s-19.48-8.22-26.74-1.88C86.2-102,85.58-92.73,88.49-85.53s8.62,12.86,14.18,18.3"/><path class="cls-7" d="M112.75,351.42C105.67,347.89,97,349.82,93,357a14.53,14.53,0,1,0,25.33,14.25c4-7.12,1.16-15.62-5.54-19.79-2.74-1.7-5.25,2.62-2.52,4.32,10.38,6.46,1.6,22.6-9.2,16.7s-1.73-22.13,9.2-16.7C113.1,357.16,115.64,352.85,112.75,351.42Z"/><path class="cls-7" d="M116.22,301.24c-9.89-5-22.22-2.18-27.81,7.82a20.43,20.43,0,0,0,35.63,20c5.54-10,1.7-22-7.82-27.81-2.75-1.68-5.27,2.64-2.52,4.32,7.18,4.37,10.22,13.42,6,21a15.43,15.43,0,1,1-27-14.95c4.19-7.52,13.46-9.84,21-6C116.56,307,119.1,302.7,116.22,301.24Z"/><path class="cls-7" d="M124.91,405.12c-5.27-2.62-11.69-1.19-14.71,4.1a10.8,10.8,0,1,0,14.71-4.1c-2.74-1.7-5.25,2.62-2.52,4.32,6.3,3.92,1,13.74-5.56,10.17s-1.1-13.48,5.56-10.17C125.26,410.87,127.79,406.56,124.91,405.12Z"/><path class="cls-7" d="M90.38-50.41a200.06,200.06,0,0,0-46,8.59C31.89-37.88,16.86-33.16,6.88-24.25-14.06-5.57,9,26.11,26.05,38.18a70.19,70.19,0,0,0,39.71,12.9v-5A111.51,111.51,0,0,0,24.7,58.85,109.9,109.9,0,0,0,6.87,71c-5.1,4.26-11.7,9.51-13.48,16.23-3.67,13.93,16.5,21.25,26,25.38A183.8,183.8,0,0,0,67.9,126.19v-4.82c-25.42,9-35.4,40.56-18.35,62,17.32,21.82,49.3,17.66,73.39,13.28l-2.43-4.18c-14,11.62-13,33.53-2.91,47.37,12.61,17.22,36.21,21.21,56.17,20.08L172,255.69c-8.12,9.82-16.88,20.89-15.88,34.42,0.94,12.73,10.22,19.23,21.73,22.29,25.42,6.75,53.1,4.4,77.34-5.61a121.69,121.69,0,0,0,36.44-23.32l-2.43.64a115.13,115.13,0,0,0,65,2.36c15.89-4.12,37.68-15.7,31-35.79l-2.41,3.16c23.28,0.09,50.67-1.52,68.24-18.93,13.67-13.54,20.33-36.89,8-53.4l-2.16,3.76c30.9-1.61,64-13.72,77-44.17,10.56-24.76-.46-57.54-28.65-63.8l0.6,4.57c11.07-4.92,22.65-10.16,30.91-19.35A45.36,45.36,0,0,0,547.93,34C549,9.72,534.59-11.06,516.38-25.67c-9.57-7.68-20.07-14.07-30.63-20.27-6.1-3.58-12.22-7.13-17.55-11.81-5.1-4.48-9.56-9.57-15.07-13.6C442.69-79,430.25-83.28,418-86.93c-13.53-4-27.3-7.54-41.38-8.88-26.61-2.55-55.52,4.49-71.76,27.23l3.93-.51c-39.15-34.53-97.09-43.9-145.91-26.33a136.61,136.61,0,0,0-38,21l3-.39c-9.18-5.38-15.58-14.45-24.93-19.54C96-98.07,86.82-100,79.63-95.86c-6.93,4-9.45,12.29-8.32,19.88,1.49,10.08,8.95,17.65,15.91,24.47,2.3,2.25,5.84-1.28,3.54-3.54-5.64-5.53-12-11.53-14.07-19.44-2.13-8.19,1.25-17.68,10.61-18.64,15.8-1.62,25.9,15.55,38,22.67a2.6,2.6,0,0,0,3-.39c39.24-30.71,95.09-36.21,140.7-17.26a130.19,130.19,0,0,1,36.16,22.55,2.55,2.55,0,0,0,3.93-.51c13.73-19.22,38.18-26.13,60.83-25.2,13.44,0.55,26.63,3.52,39.54,7.11,11.88,3.3,24,6.8,34.76,13,10.36,6,17.53,15.54,27.27,22.3s20.13,11.93,29.86,18.42C520.09-18,537.53-1.57,542,21.36c2.29,11.78.81,24.62-6.31,34.54-7.75,10.8-20.61,16.41-32.38,21.65-2,.88-1.39,4.13.6,4.57,12.12,2.69,21.54,11.68,26.21,23,5,12.26,3.55,26-2.5,37.59-13.57,26.1-43,36.08-70.74,37.52-1.69.09-3.38,2.13-2.16,3.76,11.61,15.51,4.39,37.32-9.15,49.16-16.8,14.7-41.59,15.73-62.76,15.64a2.52,2.52,0,0,0-2.41,3.16c6.68,20.14-20.15,28.5-34.62,31.23a110.3,110.3,0,0,1-55.23-4,2.51,2.51,0,0,0-2.43.64,118.75,118.75,0,0,1-79.19,31.29,112.73,112.73,0,0,1-21.47-1.8c-6.88-1.27-15.16-2.7-20.62-7.4-14.38-12.37,0-32.25,8.73-42.79,1.26-1.53.58-4.4-1.77-4.27-17.68,1-38.46-1.81-50.66-16.12C113,226.93,111.24,206.66,124,196c2.11-1.75-.24-4.58-2.43-4.18-20.62,3.75-47.54,7.94-64.54-7.7-19.11-17.58-12-49.39,12.15-58,2-.73,2.68-4.45,0-4.82a182.55,182.55,0,0,1-40.38-10.23,169.77,169.77,0,0,1-19.23-8.74C3.77,99.27-4.57,94.52-1,86.69c2.52-5.59,9-10.27,13.7-14A105,105,0,0,1,65.76,51.08c3.12-.35,3.3-5,0-5A65.52,65.52,0,0,1,25.57,31.59C14.62,22.79,3.91,8.6,3.84-6,3.76-23.67,26.24-30.27,39.73-35A194.21,194.21,0,0,1,90.38-45.41c3.19-.23,3.22-5.23,0-5h0Z"/><path class="cls-7" d="M289.78,553.93l0.32,8.81c0.1,2.74.19,4.06,2.8,5.29,3.76,1.78,8.5,2,12-.41,6.55-4.52,3.09-16.1-5.21-14.85-3.17.48-1.82,5.3,1.33,4.82,2.44-.37,2.81,4,1.78,5.26-2.11,2.68-6.5,1.53-8.89,0l1.24,2.16-0.41-11.12c-0.12-3.21-5.12-3.22-5,0h0Z"/><path class="cls-6" d="M411.49,426.5c1.86-7.16-.49-15.46-6.36-20s-15.09-4.35-20.3.9c5.77-5.21-7.54-16.1-9.38-23.65,9.21-3.43,19.58-10.22,18.59-20C393,353,379.43,349,368.64,348.67c-19.29-.6-41.78,4.42-50,21.87,2.39-4.17.4-9.76-3.26-12.87s-8.56-4.27-13.28-5.13c-12.79-2.32-26.23-3-38.58,1-12.11,4-23,13.25-26.43,25.5,1.83-7.32-7-13.36-14.57-15.22-18.45-4.52-47-3.31-58.28,14.37-4.09,6.39-5.24,14.63-9.54,21.39-5.82,9.15-15,14.73-2,23.7A59.94,59.94,0,0,0,176.87,433c-4.2,6.35-14.64,6.82-17.65,13.81-2.7,6.25,2.57,13.06,8.16,16.94a53.47,53.47,0,0,0,28,9.41c-5.41,3.12-12.92,3.1-16.53,8.2-3.75,5.31-.43,13.22,5.12,16.62s12.42,3.51,18.92,3.54L219,501.6a112.23,112.23,0,0,1-.11-27.09c1.39-12.44,5.49-32.45,10.23-44,10.91,9.24,27.34,10.23,42.06,10.47,7.69,0.12,17.92-1.9,18.48-9.58A46.74,46.74,0,0,0,323,452.15a45.71,45.71,0,0,0,15.77-.94l-0.7-1.92c10.53,28.61,12.79,42.13,5.89,68.48l8.41,1.11c29.09-7.59,42.34-35.7,34.71-54.45a12.57,12.57,0,0,0,18.61-15.9,7.24,7.24,0,0,0-6.13,3.31,6.62,6.62,0,0,0-1.88-9.49C404.23,439.28,409.67,433.51,411.49,426.5Z"/><path class="cls-7" d="M267.88,446.87a41.55,41.55,0,0,0-25.82,15.47c-2,2.51,1.56,6.07,3.54,3.54a37.49,37.49,0,0,1,23.62-14.18c3.16-.55,1.82-5.37-1.33-4.82h0Z"/><path class="cls-7" d="M336.06,463.16a42,42,0,0,0-26.14-16.09c-3.15-.56-4.5,4.26-1.33,4.82a37.05,37.05,0,0,1,23.15,13.8c1.94,2.51,6.28,0,4.32-2.52h0Z"/><path class="cls-7" d="M264.58,465.44c3.4-1.68,7.32,3.48,3,5.19-3.84,1.53-3.52-4.43-.38-4.08a2.52,2.52,0,0,0,2.5-2.5,2.56,2.56,0,0,0-2.5-2.5c-4.4-.49-7.74,4-7.49,8.12,0.29,4.7,5.05,7.23,9.32,5.73s6.94-6.22,4.76-10.51a8.91,8.91,0,0,0-11.74-3.77c-2.89,1.42-.35,5.74,2.52,4.32h0Z"/><path class="cls-7" d="M307.8,461c1.9-.94,4-2.08,6.23-2,1.21,0,3.6.93,3.47,2.59-0.11,1.5-2.16,1.39-3.19,1-1.81-.71-3.1-2.76-4.15-4.26-1.83-2.62-6.17-.12-4.32,2.52,2.24,3.21,4.92,6.63,9.13,7,3.3,0.26,6.66-1.52,7.4-4.93s-1.58-6.58-4.43-8c-4.17-2.1-8.85,0-12.67,1.86-2.88,1.43-.35,5.74,2.52,4.32h0Z"/><path class="cls-7" d="M287.43,476.76c0.64,8.49,4.63,15.6,9.37,22.5,5.8,8.44,11.75,16.78,17.62,25.16l1.49-3.67a77.11,77.11,0,0,1-36.84,4.1c-3.18-.41-3.15,4.59,0,5a80.26,80.26,0,0,0,38.17-4.28c1.39-.51,2.49-2.25,1.49-3.67L303,499.51c-4.83-6.91-10-14.06-10.62-22.74-0.24-3.19-5.24-3.21-5,0h0Z"/><path class="cls-7" d="M327.09,529.54c3.22,0,3.22-5,0-5s-3.22,5,0,5h0Z"/><path class="cls-7" d="M354.31,480.22c1.86-5.68,9.14-9.14,11.67-2,1.35,3.81,1.81,12.86-.69,14.92a31.19,31.19,0,0,1-6.24,3.54,32.56,32.56,0,0,1-3.19,1.38c-0.53.19-2.17,0.51-1.72,0.61-3.13-.72-4.47,4.1-1.33,4.82,2.53,0.58,5.33-.92,7.57-1.94a35.08,35.08,0,0,0,8.71-5.06c2.66-2.34,2.55-6.3,2.73-9.63a25.48,25.48,0,0,0-1.51-11.28c-4.72-11.14-17.7-6.16-20.81,3.3-1,3.06,3.82,4.38,4.82,1.33h0Z"/><path class="cls-7" d="M338.09,454c15.37,25.49,19.59,57.06,10.59,85.55a105.73,105.73,0,0,1-50.85,60.8h2.52c-22.51-14.23-46.57-29.54-60.19-53.21-16-27.89-12.28-63.09-.75-91.89,0.62-1.54-.93-3.17-2.41-3.16-13.85.06-23.3,16.18-16.77,28.33,1.52,2.84,5.84.31,4.32-2.52C219.81,469,227,457.09,237,457l-2.41-3.16c-11.84,29.57-15.37,65.62.51,94.42,13.86,25.15,39.1,41.39,62.73,56.33a2.52,2.52,0,0,0,2.52,0,110.82,110.82,0,0,0,53.15-63.78c9.38-29.7,4.93-62.82-11.1-89.4-1.66-2.75-6-.24-4.32,2.52h0Z"/><path class="cls-7" d="M228.31,491.7A49.22,49.22,0,0,0,201.48,506c-6.6,6.92-12.65,17.18-8.86,26.94,3.07,7.92,11.35,12.73,19.48,13.75,11.38,1.43,22.2-4.42,31.68-9.95,2.78-1.62.26-5.94-2.52-4.32-7.84,4.57-16.47,9.51-25.83,9.49-7.37,0-16.05-4-18.42-11.51-2.76-8.82,4.58-18.06,10.74-23.5a44.85,44.85,0,0,1,21.89-10.38c3.16-.57,1.82-5.39-1.33-4.82h0Z"/><path class="cls-7" d="M398.33,462.34c11.81-5.62,19.71-18.86,14.42-31.74-4.9-11.94-20.06-16.14-29.85-7.28l3.54,3.54c4.36-4.56,3.17-12.62,2.43-18.26a202.43,202.43,0,0,0-4.52-21.85c-0.35-1.42-2.39-2.48-3.67-1.49l-0.07.05a2.68,2.68,0,0,0-1.15,2.82c0.37,2.33,4.28,4.69,5.79,6.22,1.34,1.35,3.35,3.07,4,4.93,0.83,2.47-.56,2.6-3,3.1-3.15.65-1.82,5.47,1.33,4.82,5.48-1.13,8.87-5,6-10.45a27.94,27.94,0,0,0-5.32-6.5c-0.85-.84-1.74-1.63-2.6-2.45a7.2,7.2,0,0,0-1.18-1.1c-0.64-.28-0.37-1.2-0.16.1l-1.15,2.82,0.07-.05-3.67-1.49c1.41,5.74,2.83,11.48,3.83,17.3,0.76,4.42,3.15,14.16-.45,17.93-2.24,2.34,1.15,5.69,3.54,3.54,8.29-7.49,20.19-1.63,22.57,8.32s-4.59,18.75-13.19,22.85c-2.9,1.38-.37,5.7,2.52,4.32h0Z"/><path class="cls-7" d="M352.85,538.93c23.6-6.49,46.4-31.73,36.46-57.53l-3.67,2.82c13.29,8.54,28.2-5.29,22-19.32a2.41,2.41,0,0,0-2.16-1.24,10.41,10.41,0,0,0-7.9,4l3.93,3a9.25,9.25,0,0,0-3-13c-2.72-1.74-5.23,2.59-2.52,4.32,2.31,1.48,2.61,4,1.18,6.19s2.14,5.27,3.93,3a5.29,5.29,0,0,1,4.36-2.57l-2.16-1.24c4.33,9.85-6.54,18-15.19,12.48-1.73-1.11-4.47.77-3.67,2.82,9,23.25-11.79,45.56-33,51.38-3.1.85-1.78,5.68,1.33,4.82h0Z"/><path class="cls-7" d="M221.38,516.76c-6.22,0-12.44,0-18.65-.06s-13.31.11-18.45-3.79c-4.8-3.64-6.86-11-1-14.69,4-2.49,9-3,13.18-5.22,2.33-1.22,1.07-4.52-1.26-4.66-11.12-.65-28.64-5.29-33.49-16.76-2.77-6.55,2.46-9.75,7.53-12.36,3.75-1.94,7.06-3.85,9.61-7.28a2.51,2.51,0,0,0-1.49-3.67,59.47,59.47,0,0,1-22.16-8.5c-3-1.92-7.56-4.84-6.69-9,0.46-2.19,2.21-4.18,3.52-5.93a63.06,63.06,0,0,0,9.13-16.15c2.44-6.54,4.73-12.76,10.19-17.41,8.86-7.55,21.47-9.6,32.75-9.49a75.89,75.89,0,0,1,16.44,1.88c5.8,1.35,15.69,5.53,13.71,13.11-0.81,3.12,4,4.43,4.82,1.33,4.22-15.15,18.58-24.18,33.46-26.53,8.89-1.41,18.1-.76,26.94.74,6.54,1.11,21.45,4.68,16.8,14.64-1.34,2.88,2.86,5.43,4.32,2.52,8.45-16.88,29.28-21,46.53-20.66,7.62,0.14,18.76,1.54,23,8.92C396,388.09,382.48,396,374.62,399c-3,1.15-1.68,6,1.33,4.82,9.4-3.64,21.4-10.66,20.43-22.41-0.87-10.49-11.7-15.36-20.82-16.9-20.71-3.5-49.07,2-59.29,22.39l4.32,2.52c3.64-7.81-1.17-15.56-8.48-18.93-9.65-4.46-22.76-5.16-33.22-4.61-19.3,1-39.14,11.09-44.64,30.85l4.82,1.33c3.1-11.89-10.59-18.08-20-19.85a78.36,78.36,0,0,0-33,.51c-10.67,2.64-20.72,8.59-25.76,18.69-3.32,6.66-4.76,14-9.08,20.22-2.74,3.92-6.86,7.76-7.69,12.68-1,5.67,3.47,9.82,7.72,12.77a62.7,62.7,0,0,0,24.82,10l-1.49-3.67c-3.79,5.08-11,5.91-15.33,10.43-3.89,4-4.17,9.74-1.68,14.61,6.53,12.78,24.46,18.1,37.68,18.88L194,488.68c-5.58,2.92-13,3.19-17,8.6-3.51,4.7-2.64,10.89.48,15.56,3.69,5.51,10,7.71,16.32,8.46,9.09,1.07,18.52.44,27.66,0.47,3.22,0,3.22-5,0-5h0Z"/><path class="cls-7" d="M357.54,424.35a44.14,44.14,0,0,1-66.66-7.77c-1-1.57-4.25-1.72-4.57.6-1.53,10.94-21.9,7.8-29.33,7.15a64.09,64.09,0,0,1-17.81-3.79c-1.62-.64-16.68-9.36-13.53-11.55h-2.52c5.51,3.21,4,11.21,0,15-4.92,4.69-12.78,5.24-19.18,5.74-3.19.25-3.21,5.25,0,5,8.93-.7,20.24-1.94,25.34-10.46,3.87-6.47,3.28-15.61-3.64-19.64a2.47,2.47,0,0,0-2.52,0c-6.38,4.45.27,11.71,4.42,15,7,5.47,15.67,7.93,24.35,9.12,10.37,1.42,37,5.43,39.24-10.24l-4.57.6a49.24,49.24,0,0,0,74.52,8.79c2.37-2.19-1.18-5.72-3.54-3.54h0Z"/><path class="cls-8" d="M162.49,358.94a16.45,16.45,0,0,1-7.34-14"/><path class="cls-9" d="M164,356.35a13.65,13.65,0,0,1-5.86-11.42c0-3.86-6-3.87-6,0a19.91,19.91,0,0,0,8.83,16.6c3.19,2.2,6.19-3,3-5.18h0Z"/><path class="cls-8" d="M190.33,340.46l-3-9"/><path class="cls-9" d="M193.22,339.66l-3-9c-1.22-3.65-7-2.08-5.79,1.6l3,9c1.22,3.65,7,2.08,5.79-1.6h0Z"/><path class="cls-8" d="M226.21,328.45l1.41-16.51"/><path class="cls-9" d="M229.21,328.45l1.41-16.51c0.33-3.85-5.67-3.82-6,0l-1.41,16.51c-0.33,3.85,5.67,3.82,6,0h0Z"/><path class="cls-8" d="M283.35,324a65.36,65.36,0,0,1,11.94-21"/><path class="cls-9" d="M286.25,324.77a64.55,64.55,0,0,1,11.17-19.71c2.45-3-1.78-7.22-4.24-4.24a72.92,72.92,0,0,0-12.71,22.36c-1.29,3.65,4.5,5.22,5.79,1.6h0Z"/><path class="cls-8" d="M326.48,324.49a26.11,26.11,0,0,1,7.95-20.63"/><path class="cls-9" d="M329,324.49a24.27,24.27,0,0,1,7.22-18.86c2.28-2.28-1.26-5.81-3.54-3.54a29.29,29.29,0,0,0-8.68,22.4c0.16,3.2,5.16,3.22,5,0h0Z"/><path class="cls-8" d="M355.33,326.12a59.34,59.34,0,0,1,24.83-24.91"/><path class="cls-9" d="M357.49,327.38a58.69,58.69,0,0,1,23.93-24c2.83-1.54.31-5.85-2.52-4.32a63.45,63.45,0,0,0-25.73,25.8c-1.53,2.83,2.79,5.36,4.32,2.52h0Z"/><path class="cls-8" d="M397.08,338a72.15,72.15,0,0,1,39-13.33"/><path class="cls-9" d="M398.35,340.17a71.68,71.68,0,0,1,37.73-13c3.2-.16,3.22-5.16,0-5a76.55,76.55,0,0,0-40.25,13.67c-2.62,1.83-.12,6.16,2.52,4.32h0Z"/><path class="cls-8" d="M422.44,363.07a76.21,76.21,0,0,1,37.66-1.26"/><path class="cls-9" d="M423.11,365.48a76.15,76.15,0,0,1,36.33-1.26c3.14,0.65,4.48-4.16,1.33-4.82a81.78,81.78,0,0,0-39,1.26c-3.09.86-1.78,5.69,1.33,4.82h0Z"/><path class="cls-7" d="M433.77,144.06c-4.15-1.73-8.94.83-10.72,4.76-1.87,4.12.27,8.65,4.19,10.6A9.07,9.07,0,0,0,438.66,157a10.57,10.57,0,0,0,0-12.32c-1.67-2.26-5.5-.06-3.81,2.23,2.77,3.76.64,10.75-4.89,8.93-2-.65-3.79-2.51-3.13-4.73a4.3,4.3,0,0,1,5.71-2.76c2.62,1.09,3.76-3.18,1.17-4.26h0Z"/><path class="cls-7" d="M419.83,33.52a113.67,113.67,0,0,1,22.4-1c6.29,0.35,14.25.51,20,3.3,5,2.44,2.43,7.44.24,11.19a54.62,54.62,0,0,1-5.13,7.21c-3.73,4.5-7.93,8.59-11.87,12.91-15.08,16.56-22.18,38-18.78,60.24l1.54-2.71c-7.43,2.25-6.8-20-6.21-23.44a64.79,64.79,0,0,1,9.07-22.84c8.59-14,20.32-25.73,28.28-40.13a2.24,2.24,0,0,0-1.91-3.32,122,122,0,0,0-64.6,11.54l3.24,1.32c-1.51-3.93-.16-8.41,3.95-10.13,2.58-1.08,1.45-5.35-1.17-4.26-6.14,2.57-9.49,9.16-7,15.56a2.25,2.25,0,0,0,3.24,1.32,117.73,117.73,0,0,1,62.37-10.94L455.58,36c-10,18.09-26.21,32.25-34.1,51.56-3.37,8.25-5.31,17.34-4.05,26.26,0.81,5.76,3.83,17.55,12,15.07a2.28,2.28,0,0,0,1.54-2.71,66.5,66.5,0,0,1,7.12-41.49c6.32-11.7,16.8-19.8,24.7-30.28,5.54-7.34,12-19.13-.31-23.28-13.57-4.58-29.89-3.88-43.82-1.89-2.8.4-1.61,4.65,1.17,4.26h0Z"/><rect class="cls-10" x="118.98" y="30.38" width="120.96" height="120.96" rx="9.71" ry="9.71" transform="translate(-7.49 16.62) rotate(-5.19)"/><path class="cls-9" d="M215.14,145.82c-0.73-8.75-7.89-15.86-15.94-19.34s-17-4.1-25.73-5.07c-1.21-.14-2.67-0.46-3.05-1.62s0.51-2.23,1.37-3c5.57-5.16,13.21-8.16,17.45-14.46A18.53,18.53,0,0,0,190.4,84a6.67,6.67,0,0,1-1-3c0.06-4.08,7.51-3.9,8.61-7.82,0.72-2.57-2.19-5-4.86-4.84s-4.93,1.9-7,3.58a29.17,29.17,0,0,0,.3-16.42c-2.06-8.8.66-7.65-5.47-12.13-5.62-4.11-16.32-6.22-23-4.35-9,2.53-11.75,2.13-18.93,8.16-4.14,3.48-6.23,7-5.65,14.81,0.4,5.39-2.53,10.89,0,15.66-2.21.69-4.62-.05-6.9,0.34s-4.48,3.1-3,4.86a3.89,3.89,0,0,0,1.73,1,19.24,19.24,0,0,0,12,.21c0.13,5.95.28,12,2.32,17.6s6.34,10.7,12.12,12.09c1.73,0.42,3.62.52,5.09,1.52,3.11,2.11,2.6,7.12.17,10s-6.08,4.32-9.3,6.25a32.76,32.76,0,0,0-14.3,18.31l-0.79-1.3,0.93,7.16L214,148.44a1.85,1.85,0,0,0,.61-0.39A2.78,2.78,0,0,0,215.14,145.82Z"/><path class="cls-11" d="M218.74,137.05a75.69,75.69,0,0,0,1,10,1,1,0,0,0,1.1.81l23.26-2.11a1,1,0,0,0,.93-1.11l-2.74-30.18a1,1,0,0,0-1.18-.92q-11.45,1.79-22.8,4.13a1,1,0,0,0-.82,1.08Q218.2,127.87,218.74,137.05Z"/><path class="cls-12" d="M236.54,50.78L234.3,26.17a1,1,0,0,0-1.11-.93l-24.32,2.21a1,1,0,0,0-.92,1.16q1.66,11.84,3.11,23.7a1,1,0,0,0,1.06.9q11.75-.47,23.48-1.32A1,1,0,0,0,236.54,50.78Z"/><path class="cls-11" d="M211.31,54.35q1.58,13.07,2.9,26.16a1,1,0,0,0,1.11.92l22.8-2A1,1,0,0,0,239,78.3l-2.32-25.47a1,1,0,0,0-1.09-.93q-11.67.85-23.36,1.31A1,1,0,0,0,211.31,54.35Z"/><path class="cls-12" d="M218.6,117.56q11.29-2.32,22.68-4.1a1,1,0,0,0,.86-1.1l-2.91-32a1,1,0,0,0-1.11-.93l-22.78,2a1,1,0,0,0-.93,1.12q1.7,17,3,34.1A1,1,0,0,0,218.6,117.56Z"/><path class="cls-7" d="M225.1,138.76l-91.9,8.35c-3.77.34-9.64,1.84-13.22,0.11-5-2.43-4.4-9.46-4.83-14.19l-5-55.18c-1.12-12.31-3.19-24.93-3.39-37.3-0.13-8.24,7.1-8.14,13-8.67l23.12-2.1L200,24.58c4.58-.42,9.24-1.12,13.84-1.26,7.44-.22,8.29,5.41,8.8,11,2.89,31.81,6.41,63.62,8.68,95.48,0.34,4.74-1.94,8.26-6.87,9-3.17.5-1.82,5.32,1.33,4.82,8.6-1.37,11-8.7,10.33-16.24l-2-22.06-5.57-61.26c-0.44-4.79-.74-9.62-1.31-14.41-1-7.95-7.3-11.87-14.83-11.25-17.1,1.42-34.18,3.11-51.27,4.66-15.78,1.43-31.62,2.59-47.37,4.31-7.43.81-12.46,6.2-11.94,13.82,0.4,5.73,1,11.46,1.56,17.18L109,120.15c0.6,6.58,1.17,13.16,1.79,19.74,0.7,7.45,5.22,13.34,13.33,13,14.65-.53,29.42-2.67,44-4l53.71-4.88,3.28-.3C228.28,143.47,228.31,138.46,225.1,138.76Z"/><path class="cls-10" d="M360.83,219.29a8.32,8.32,0,0,1-8.29,8.26H268.16a8.21,8.21,0,0,1-8.2-8.26L260.9,96.82a8.36,8.36,0,0,1,8.32-8.26h57.5a80.34,80.34,0,0,1,16.27,2,20,20,0,0,1,9.46,6c6.75,8.18,7.12,10,7.12,10a97,97,0,0,1,1.62,16.35Z"/><path class="cls-7" d="M280,123.2c23.46-1.82,47-1.06,70.41-2.28a1.86,1.86,0,0,0,0-3.72l-1.14,0c-2.39,0-2.39,3.68,0,3.72l1.14,0V117.2c-23.45,1.22-47,.46-70.41,2.28-2.37.18-2.39,3.9,0,3.72h0Z"/><path class="cls-7" d="M280,137.18c23.46-1.82,47-1.06,70.41-2.28a1.86,1.86,0,0,0,0-3.72l-1.14,0c-2.39,0-2.39,3.68,0,3.72l1.14,0v-3.72c-23.45,1.22-47,.46-70.41,2.28-2.37.18-2.39,3.9,0,3.72h0Z"/><path class="cls-7" d="M280,151.15c23.46-1.82,47-1.06,70.41-2.28a1.86,1.86,0,0,0,0-3.72l-1.14,0c-2.39,0-2.39,3.68,0,3.72l1.14,0v-3.72c-23.45,1.22-47,.46-70.41,2.28-2.37.18-2.39,3.9,0,3.72h0Z"/><path class="cls-7" d="M280,165.13c23.46-1.82,47-1.06,70.41-2.28a1.86,1.86,0,0,0,0-3.72l-1.14,0c-2.39,0-2.39,3.68,0,3.72l1.14,0v-3.72c-23.45,1.22-47,.46-70.41,2.28-2.37.18-2.39,3.9,0,3.72h0Z"/><path class="cls-7" d="M280,179.11c23.46-1.82,47-1.06,70.41-2.28a1.86,1.86,0,0,0,0-3.72l-1.14,0c-2.39,0-2.39,3.68,0,3.72l1.14,0v-3.72c-23.45,1.22-47,.46-70.41,2.28-2.37.18-2.39,3.9,0,3.72h0Z"/><path class="cls-7" d="M280,193.09c23.46-1.82,47-1.06,70.41-2.28a1.86,1.86,0,0,0,0-3.72l-1.14,0c-2.39,0-2.39,3.68,0,3.72l1.14,0V187.1c-23.45,1.22-47,.46-70.41,2.28-2.37.18-2.39,3.9,0,3.72h0Z"/><path class="cls-7" d="M364.2,212.87c-0.66,7.76-9.63,6.19-15.07,6.19H276.44c-1.84,0-3.88.2-5.59-.64-2.8-1.38-3.32-4.19-3.38-6.93-0.11-4.6.07-9.22,0.11-13.81l0.41-53L268.34,97c0-4-.89-10.06,3.56-12.2,1.92-.92,4.42-0.64,6.48-0.64h10.74c14.34,0,28.69-.2,43,0,5.68,0.08,12.09.42,17.43,2.54s10.7,8.17,13.17,13.46c2.17,4.66,1.82,12.78,1.8,18.66l-0.34,91.31v2.7c0,2.66,4.12,2.66,4.13,0l0.34-92.05c0-6.9.52-14.66-1.68-21.21-1-3-3.48-5.66-5.4-8.1-3.7-4.69-7.88-8.23-13.78-9.62-7.58-1.79-15.3-1.82-23-1.82H296c-7,0-14-.25-20.94,0-6.8.25-10.69,5.08-10.85,11.58-0.35,14.23-.22,28.48-0.33,42.72l-0.45,59c-0.07,9.44-3.91,29,10.13,29.84s28.55,0,42.68,0h29.07c4.38,0,8.93.36,13.3-.05,5.65-.53,9.22-4.78,9.69-10.27C368.55,210.22,364.42,210.24,364.2,212.87Z"/><path class="cls-7" d="M337.28,82.14l-1.76,26.57a2.08,2.08,0,0,0,2.06,2.06l29.07-.46c2.65,0,2.66-4.17,0-4.13l-29.07.46,2.06,2.06,1.76-26.57c0.18-2.65-4-2.64-4.13,0h0Z"/></g></g></g></svg>