<?xml version="1.0" encoding="UTF-8"?>
<svg xmlns="http://www.w3.org/2000/svg" xmlns:xlink="http://www.w3.org/1999/xlink" viewBox="0 0 580 580">
  <defs>
    <style>.cls-1{fill:none;}.cls-2{isolation:isolate;}.cls-3{clip-path:url(#clip-path);}.cls-4{clip-path:url(#clip-path-2);}.cls-5{fill:#fdea8b;}.cls-6{opacity:0.82;mix-blend-mode:multiply;fill:url(#radial-gradient);}.cls-7{fill:#46408a;}.cls-8{fill:#014e7f;}.cls-9{fill:#716552;}.cls-10{fill:#eb6f24;}.cls-11{fill:#f68d3d;}.cls-12{fill:#fff;}.cls-13{fill:#ffec8d;}.cls-14{fill:#8c8272;}.cls-15{fill:#fffbcc;}.cls-16{fill:#675890;}.cls-17{fill:#a1979b;}.cls-18{fill:#eb8f4d;}.cls-19{fill:#f6b319;}</style>
    <clipPath id="clip-path">
      <rect class="cls-1" y="3527.47" width="580" height="580"/>
    </clipPath>
    <clipPath id="clip-path-2">
      <rect class="cls-1" width="580" height="580"/>
    </clipPath>
    <radialGradient id="radial-gradient" cx="296.5" cy="309.92" r="306.26" gradientUnits="userSpaceOnUse">
      <stop offset="0" stop-color="#ffd459"/>
      <stop offset="0.16" stop-color="#ffcd31"/>
      <stop offset="1" stop-color="#fff"/>
    </radialGradient>
  </defs>
  <title>iiLAB -U1-concepts-04-DEVICE SEIZED</title>
  <g class="cls-2">
    <g id="Layer_2" data-name="Layer 2">
      <g class="cls-4">
        <path class="cls-7" d="M336.2,372.32c9.39,7,16.68,14.93,23.79,24.15,6.83,8.87,15.56,15.22,25.13,20.92,2.77,1.65,5.29-2.67,2.52-4.32-10-5.93-18.39-12.51-25.35-21.79A114.74,114.74,0,0,0,338.72,368c-2.58-1.93-5.07,2.41-2.52,4.32h0Z"/>
        <path class="cls-7" d="M356.79,428.5c11.15,4.68,24.25,9.11,35.27,1.62,8.86-6,13-16.82,16.36-26.51,1.07-3-3.76-4.35-4.82-1.33-3,8.38-6.44,18.2-14.06,23.52-9.7,6.77-21.67,2-31.41-2.13-3-1.24-4.26,3.59-1.33,4.82h0Z"/>
        <path class="cls-8" d="M301.88,194a370.9,370.9,0,0,1,41.31-67.15c1.52-2,.17-4.69-2.43-4.18a141.35,141.35,0,0,0-23.4,6.73l1.33,4.82a82.44,82.44,0,0,1,23-5.62c2.21-.19,3.34-0.85,4.38,1s-0.33,4.18-.82,6l-3.33,12.42c-0.83,3.11,4,4.44,4.82,1.33,1.63-6.1,4.06-12.45,4.93-18.7,0.43-3.09-.64-5.75-3.65-6.86-3.9-1.43-9.31,0-13.29.67a85.75,85.75,0,0,0-17.37,4.91c-3,1.16-1.69,6,1.33,4.82a141.35,141.35,0,0,1,23.4-6.73l-2.43-4.18a376.51,376.51,0,0,0-42.09,68.16c-1.38,2.89,2.93,5.43,4.32,2.52h0Z"/>
        <path class="cls-9" d="M152.68,208.72c-2.64-2.2-19.66-19.74-8.59-20.1,6.88-.22,14.14,4,19.84,7.41,6.14,3.65,11.86,8,18.1,11.5a2.53,2.53,0,0,0,3.67-2.82c-0.44-1.61-2.76-2.63-4.17-3.2-3-1.22-4.27,3.62-1.33,4.82,1.65,0.68,1.28,1.88.68-.29l3.67-2.82c-8.7-4.87-16.44-11.29-25.54-15.48-5.41-2.49-14-6.22-19.9-3-11.63,6.25,4.84,23.25,10,27.56,2.46,2,6-1.48,3.54-3.54h0Z"/>
        <path class="cls-9" d="M166.87,168.41a76.34,76.34,0,0,0-28.09,14c-2.53,2,1,5.5,3.54,3.54a70.35,70.35,0,0,1,25.89-12.71c3.11-.81,1.79-5.63-1.33-4.82h0Z"/>
        <path class="cls-10" d="M180.33,410.54c-5,2.8-10.74,5.41-16.58,5.55-5.49.13-6.56-2.52-3.89-7.15,6.82-11.81,20.18-18.09,30.32-26.54,1.84-1.53.16-4.08-1.77-4.27-1.34-.13-3.16,1.59-4,2.47-2.2,2.34,1.33,5.89,3.54,3.54,0.9-1,2-.86.46-1l-1.77-4.27c-7.23,6-15.47,10.72-22.38,17.15-4.55,4.24-11.56,11.13-11,18.06,1.07,13.71,23.73,4.07,29.61.77,2.81-1.57.29-5.89-2.52-4.32h0Z"/>
        <path class="cls-11" d="M148,383a75.34,75.34,0,0,0,2.9,30.65c0.94,3.07,5.77,1.76,4.82-1.33A71.75,71.75,0,0,1,153,383c0.36-3.19-4.65-3.17-5,0h0Z"/>
        <path class="cls-12" d="M508,269c-5.48-26.2-14-55.55-22.34-59.35s-13.18-.55-31.07,0-33.08,3.8-35.83,10.44S443,355.59,452.38,360.52s63.63-4.93,67.31-10.36S513.51,295.21,508,269Zm-61.56,50.55L432,233.24c2,0,48.21-7,48.21-7l21.23,83.61Z"/>
        <path class="cls-8" d="M441.35,212.91c12.68-4,26.64-8.49,39.75-3.66,13.45,5,16.52,18.77,20.2,31.13a450,450,0,0,1,16.27,81.45c0.56,5.4,2.77,13.57-1.16,18.11s-11.92,6.71-17.41,8.56a109.48,109.48,0,0,1-19,4.57c-6.58,1-14.86,2.37-21-.82-10.13-5.21-12.07-20.22-14.4-30.1q-4.78-20.27-8.3-40.81-4-23.49-6.37-47.23c-0.64-6.53-3.2-16.65,2.63-21.52,4.63-3.87,12-3.79,17.63-3.73,3.65,0,3.65-5.63,0-5.66-10-.1-23.13,1.37-26.23,12.88-2,7.39.1,16.34,0.9,23.81q1.28,11.93,3,23.82,3.61,25.41,9.15,50.5c2.74,12.44,4.51,28.4,13.37,38.32,9.26,10.38,25.23,7.41,37.32,4.91a112.59,112.59,0,0,0,21.85-6.93c5.38-2.33,11.25-5,13.58-10.78,2.51-6.23.58-14.3-.14-20.71q-1.29-11.62-3.16-23.18A454.68,454.68,0,0,0,509.11,247c-4-14.47-7.18-33.4-21.71-41.14-15.12-8.05-32.25-3.3-47.55,1.55-3.46,1.1-2,6.57,1.51,5.46h0Z"/>
        <path class="cls-8" d="M507.26,309.19l-58.48,8.38c-3.59.52-2.07,6,1.51,5.46l58.48-8.38c3.59-.52,2.07-6-1.51-5.46h0Z"/>
        <path class="cls-13" d="M468.2,319.83c-0.18,1.13,1.51,11.57,1.33,12.7"/>
        <path class="cls-8" d="M465.36,319.83c-0.37,4.21,1.7,8.49,1.33,12.7-0.32,3.63,5.35,3.61,5.66,0,0.37-4.21-1.7-8.49-1.33-12.7,0.32-3.63-5.35-3.61-5.66,0h0Z"/>
        <path class="cls-13" d="M489.23,315.28c0.14,5-.44,5.19.89,10"/>
        <path class="cls-8" d="M486.4,315.28c0.08,3.74,0,7.13,1,10.79s6.41,2,5.46-1.51c-0.85-3.16-.71-6-0.79-9.29-0.08-3.64-5.75-3.65-5.66,0h0Z"/>
        <path class="cls-8" d="M433.35,232.66q7.15,39.24,14.32,78.47l4,22.07c0.3,1.61,2.09,2.21,3.48,2l56.91-9.47c1.58-.26,2.26-2.12,2-3.48l-17.16-82.55-2.44-11.75c-0.34-1.63-2.05-2.19-3.48-2l-58.52,8.63c-3.59.53-2.07,6,1.51,5.46l58.52-8.63-3.48-2L506.17,312l2.44,11.75,2-3.48-56.91,9.47,3.48,2q-7.43-40.53-14.81-81.07l-3.55-19.48c-0.65-3.58-6.11-2.06-5.46,1.51h0Z"/>
        <path class="cls-8" d="M511.13,200.28a79.4,79.4,0,0,0,12.25-27c0.77-3.12-4.05-4.46-4.82-1.33a75.63,75.63,0,0,1-11.75,25.76c-1.86,2.64,2.48,5.14,4.32,2.52h0Z"/>
        <path class="cls-8" d="M487.11,189.26a30.1,30.1,0,0,0-5-29.77c-2-2.51-5.53,1-3.54,3.54a25.07,25.07,0,0,1,3.69,24.9c-1.14,3,3.69,4.32,4.82,1.33h0Z"/>
        <path class="cls-8" d="M444.22,192a46.6,46.6,0,0,0-18.48-34.24c-2.55-2-5,2.39-2.52,4.32a41.17,41.17,0,0,1,16,29.92c0.22,3.19,5.22,3.22,5,0h0Z"/>
        <rect class="cls-12" x="29.04" y="38.12" width="120.96" height="120.96" rx="9.71" ry="9.71" transform="translate(-8.56 8.51) rotate(-5.19)"/>
        <path class="cls-14" d="M125.2,153.57c-0.73-8.75-7.89-15.86-15.94-19.34s-17-4.1-25.73-5.07c-1.21-.14-2.67-0.46-3.05-1.62s0.51-2.23,1.37-3C87.41,119.34,95,116.34,99.29,110a18.53,18.53,0,0,0,1.18-18.27,6.67,6.67,0,0,1-1-3C99.5,84.74,107,84.91,108,81c0.72-2.57-2.19-5-4.86-4.84s-4.93,1.9-7,3.58a29.17,29.17,0,0,0,.3-16.42c-2.06-8.8.66-7.65-5.47-12.13C85.39,47.06,74.69,45,68,46.83,59,49.36,56.23,49,49.05,55c-4.14,3.48-6.23,7-5.65,14.81,0.4,5.39-2.53,10.89,0,15.66-2.21.69-4.62-.05-6.9,0.34s-4.48,3.1-3,4.86a3.89,3.89,0,0,0,1.73,1,19.24,19.24,0,0,0,12,.21c0.13,5.95.28,12,2.32,17.6s6.34,10.7,12.12,12.09c1.73,0.42,3.62.52,5.09,1.52,3.11,2.11,2.6,7.12.17,10s-6.08,4.32-9.3,6.25a32.76,32.76,0,0,0-14.3,18.31l-0.79-1.3,0.93,7.16,80.55-7.32a1.85,1.85,0,0,0,.61-0.39A2.78,2.78,0,0,0,125.2,153.57Z"/>
        <path class="cls-14" d="M128.81,144.8a75.69,75.69,0,0,0,1,10,1,1,0,0,0,1.1.81l23.26-2.11a1,1,0,0,0,.93-1.11l-2.74-30.18a1,1,0,0,0-1.18-.92q-11.45,1.79-22.8,4.13a1,1,0,0,0-.82,1.08Q128.26,135.62,128.81,144.8Z"/>
        <path class="cls-15" d="M146.61,58.53l-2.24-24.61a1,1,0,0,0-1.11-.93L118.93,35.2a1,1,0,0,0-.92,1.16q1.66,11.84,3.11,23.7a1,1,0,0,0,1.06.9q11.75-.47,23.48-1.32A1,1,0,0,0,146.61,58.53Z"/>
        <path class="cls-14" d="M121.37,62.1q1.58,13.07,2.9,26.16a1,1,0,0,0,1.11.92l22.8-2a1,1,0,0,0,.93-1.11l-2.32-25.47a1,1,0,0,0-1.09-.93Q134,60.49,122.35,61A1,1,0,0,0,121.37,62.1Z"/>
        <path class="cls-15" d="M128.67,125.31q11.29-2.32,22.68-4.1a1,1,0,0,0,.86-1.1l-2.91-32a1,1,0,0,0-1.11-.93l-22.78,2a1,1,0,0,0-.93,1.12q1.7,17,3,34.1A1,1,0,0,0,128.67,125.31Z"/>
        <path class="cls-9" d="M135.17,146.5l-91.9,8.35c-3.77.34-9.64,1.84-13.22,0.11-5-2.43-4.4-9.46-4.83-14.19l-5-55.18C19.08,73.29,17,60.66,16.81,48.3c-0.13-8.24,7.1-8.14,13-8.67l23.12-2.1,57.15-5.2c4.58-.42,9.24-1.12,13.84-1.26,7.44-.22,8.29,5.41,8.8,11,2.89,31.81,6.41,63.62,8.68,95.48,0.34,4.74-1.94,8.26-6.87,9-3.17.5-1.82,5.32,1.33,4.82,8.6-1.37,11-8.7,10.33-16.24l-2-22.06-5.57-61.26c-0.44-4.79-.74-9.62-1.31-14.41-1-7.95-7.3-11.87-14.83-11.25-17.1,1.42-34.18,3.11-51.27,4.66C55.4,32.3,39.56,33.45,23.81,35.17,16.38,36,11.35,41.37,11.87,49c0.4,5.73,1,11.46,1.56,17.18L19,127.89c0.6,6.58,1.17,13.16,1.79,19.74,0.7,7.45,5.22,13.34,13.33,13,14.65-.53,29.42-2.67,44-4l53.71-4.88,3.28-.3C138.35,151.21,138.38,146.21,135.17,146.5Z"/>
        <rect class="cls-12" x="385.31" y="20.22" width="120.96" height="120.96" rx="9.71" ry="9.71" transform="translate(1.3 -6.87) rotate(0.88)"/>
        <path class="cls-8" d="M475.45,139.13c0.2-8.78-6.16-16.6-13.81-20.92s-16.48-5.87-25.05-7.77c-1.19-.26-2.6-0.74-2.86-1.94s0.74-2.16,1.68-2.86c6.08-4.55,14-6.72,18.88-12.53a18.53,18.53,0,0,0,3.1-18,6.67,6.67,0,0,1-.71-3.06c0.49-4,7.88-3.08,9.39-6.87,1-2.48-1.65-5.18-4.32-5.33s-5.11,1.36-7.35,2.82a29.17,29.17,0,0,0,2-16.3c-1.12-9,1.46-7.53-4.15-12.64-5.15-4.69-15.57-7.92-22.44-6.76-9.25,1.56-11.91.87-19.69,6.11-4.48,3-6.93,6.26-7.18,14.13-0.17,5.4-3.67,10.56-1.65,15.58-2.27.45-4.59-.54-6.9-0.4S389.65,65,391,66.88a3.89,3.89,0,0,0,1.61,1.19,19.24,19.24,0,0,0,11.94,1.48c-0.5,5.93-1,12,.44,17.75s5.17,11.31,10.78,13.31c1.68,0.6,3.54.9,4.9,2.05,2.87,2.43,1.83,7.35-.88,9.95s-6.5,3.65-9.91,5.23a32.76,32.76,0,0,0-16.16,16.69L393,133.16l0.17,7.22,80.87,1.25a1.85,1.85,0,0,0,.65-0.33A2.78,2.78,0,0,0,475.45,139.13Z"/>
        <path class="cls-8" d="M480,130.8a75.69,75.69,0,0,0,0,10,1,1,0,0,0,1,.93l23.35,0.36a1,1,0,0,0,1-1l0.47-30.3a1,1,0,0,0-1.08-1q-11.57.57-23.11,1.69a1,1,0,0,0-.92,1Q480.39,121.61,480,130.8Z"/>
        <path class="cls-15" d="M506.8,46.9l0.38-24.71a1,1,0,0,0-1-1l-24.42-.38a1,1,0,0,0-1,1.06q0.4,11.95.58,23.9a1,1,0,0,0,1,1q11.73,0.78,23.48,1.18A1,1,0,0,0,506.8,46.9Z"/>
        <path class="cls-8" d="M481.33,47.77q0.19,13.16.12,26.32a1,1,0,0,0,1,1l22.88,0.41a1,1,0,0,0,1-1l0.39-25.58a1,1,0,0,0-1-1q-11.69-.39-23.36-1.17A1,1,0,0,0,481.33,47.77Z"/>
        <path class="cls-15" d="M481.89,111.4q11.47-1.11,23-1.67a1,1,0,0,0,1-1l0.5-32.16a1,1,0,0,0-1-1l-22.86-.41a1,1,0,0,0-1,1q-0.12,17.11-.66,34.22A1,1,0,0,0,481.89,111.4Z"/>
        <path class="cls-8" d="M485.85,133.15l-92-1.42c-3.74-.06-9.79.87-13.18-1.21-4.7-2.87-3.38-10-3.31-14.67l0.85-55.21,0.4-26.15c0.06-3.86-.24-7.92.18-11.77,0.88-8,8-7.08,13.81-7l23,0.36L473.13,17c4.71,0.07,9.49-.11,14.19.22,7.3,0.51,7.46,6.43,7.38,11.89l-0.79,51.2c-0.23,14.86.06,29.82-.69,44.66-0.22,4.43-2.48,7.93-7.38,8.19-3.2.17-3.22,5.17,0,5,8.79-.46,12.28-7.14,12.4-15l0.33-21.65,1-61.65c0.08-5,.36-10.09.23-15.1-0.21-8-6.17-12.41-13.69-12.59-16.87-.4-33.75-0.52-50.62-0.78-16.14-.25-32.32-0.83-48.47-0.75-7.56,0-12.85,5.09-13.17,12.67-0.24,5.64-.17,11.31-0.26,17l-1,61.94c-0.1,6.7-.25,13.39-0.31,20.09-0.06,7.57,4,13.83,12.15,14.29,14.67,0.83,29.51.46,44.19,0.68l53.93,0.83,3.29,0.05C489.06,138.2,489.06,133.2,485.85,133.15Z"/>
        <rect class="cls-12" x="439.23" y="438.64" width="120.96" height="120.96" rx="9.71" ry="9.71" transform="translate(-72.54 85.17) rotate(-9.09)"/>
        <path class="cls-16" d="M539,551.54c-1.32-8.68-8.94-15.28-17.22-18.22s-17.25-2.93-26-3.32c-1.22-.05-2.69-0.28-3.16-1.41s0.35-2.26,1.16-3.11c5.2-5.53,12.62-9,16.43-15.61a18.53,18.53,0,0,0-.07-18.31,6.67,6.67,0,0,1-1.23-2.89c-0.21-4.07,7.23-4.4,8.06-8.39,0.54-2.61-2.52-4.82-5.17-4.5s-4.79,2.23-6.75,4a29.17,29.17,0,0,0-.82-16.4c-2.65-8.64.14-7.67-6.28-11.73-5.89-3.72-16.71-5.1-23.27-2.77-8.84,3.13-11.58,2.92-18.33,9.43-3.89,3.75-5.74,7.37-4.63,15.16,0.77,5.35-1.79,11,1.07,15.63-2.16.84-4.61,0.26-6.86,0.8s-4.26,3.4-2.64,5.05a3.89,3.89,0,0,0,1.79.89,19.24,19.24,0,0,0,12-.61c0.53,5.92,1.1,12,3.51,17.4s7.05,10.25,12.92,11.24c1.76,0.3,3.64.27,5.18,1.17,3.24,1.9,3.08,6.93.85,10s-5.77,4.72-8.86,6.87a32.76,32.76,0,0,0-13,19.23l-0.88-1.24,1.42,7.08,79.87-12.77a1.85,1.85,0,0,0,.58-0.43A2.78,2.78,0,0,0,539,551.54Z"/>
        <path class="cls-17" d="M542,542.54a75.69,75.69,0,0,0,1.71,9.86,1,1,0,0,0,1.15.74L568,549.45a1,1,0,0,0,.85-1.17L564,518.35a1,1,0,0,0-1.24-.84q-11.3,2.56-22.47,5.67a1,1,0,0,0-.74,1.13Q540.87,533.42,542,542.54Z"/>
        <path class="cls-15" d="M553.94,455.27l-3.9-24.4a1,1,0,0,0-1.17-.85l-24.12,3.86a1,1,0,0,0-.84,1.22q2.46,11.7,4.71,23.44a1,1,0,0,0,1.12.83q11.69-1.26,23.33-2.91A1,1,0,0,0,553.94,455.27Z"/>
        <path class="cls-17" d="M529,460.54q2.46,12.93,4.67,25.9a1,1,0,0,0,1.17.84l22.61-3.56a1,1,0,0,0,.85-1.17l-4-25.26a1,1,0,0,0-1.15-.85q-11.58,1.64-23.21,2.89A1,1,0,0,0,529,460.54Z"/>
        <path class="cls-15" d="M540.58,523.11q11.11-3.08,22.35-5.63a1,1,0,0,0,.78-1.16l-5.08-31.76a1,1,0,0,0-1.17-.85l-22.59,3.56a1,1,0,0,0-.85,1.18q2.85,16.87,5.27,33.82A1,1,0,0,0,540.58,523.11Z"/>
        <path class="cls-16" d="M548,543.89l-90.82,14.52c-3.87.62-10,2.69-13.69,0.7-4.43-2.35-4.42-9.39-5.12-13.77l-8.72-54.52L425.53,465c-0.61-3.81-1.63-7.77-1.86-11.62-0.47-7.89,7.09-8.2,12.68-9.1l22.73-3.63,56.76-9.08c4.62-.74,9.35-1.86,14-2.24,7.23-.59,8.29,5.36,9.14,10.72l8.09,50.57c2.34,14.63,5.47,29.37,7.05,44.11,0.48,4.48-1.41,8.08-6.13,9.16-3.13.72-1.81,5.54,1.33,4.82,8.63-2,10.56-9.44,9.34-17.08l-3.42-21.38-9.74-60.88c-0.79-5-1.35-10-2.39-14.92-1.66-7.9-8.46-10.9-15.85-9.74-16.67,2.61-33.33,5.33-50,8-15.94,2.55-32,4.77-47.86,7.65-15.7,2.85-9.52,21-7.82,31.68l9.78,61.17c1.06,6.61,2.07,13.23,3.17,19.84,1.25,7.51,6.58,12.76,14.62,11.68,32.39-4.32,64.63-10.34,96.9-15.5l3.25-.52C552.51,548.21,551.16,543.39,548,543.89Z"/>
        <rect class="cls-12" x="38.68" y="431.5" width="120.96" height="120.96" rx="9.71" ry="9.71" transform="translate(-44.14 11) rotate(-5.19)"/>
        <path class="cls-10" d="M134.84,546.95c-0.73-8.75-7.89-15.86-15.94-19.34s-17-4.1-25.73-5.07c-1.21-.14-2.67-0.46-3.05-1.62s0.51-2.23,1.37-3c5.57-5.16,13.21-8.16,17.45-14.46a18.53,18.53,0,0,0,1.18-18.27,6.67,6.67,0,0,1-1-3c0.06-4.08,7.51-3.9,8.61-7.82,0.72-2.57-2.19-5-4.86-4.84s-4.93,1.9-7,3.58a29.17,29.17,0,0,0,.3-16.42c-2.06-8.8.66-7.65-5.47-12.13-5.62-4.11-16.32-6.22-23-4.35-9,2.53-11.75,2.13-18.93,8.16-4.14,3.48-6.23,7-5.65,14.81,0.4,5.39-2.53,10.89,0,15.66-2.21.69-4.62-.05-6.9,0.34s-4.48,3.1-3,4.86a3.89,3.89,0,0,0,1.73,1,19.24,19.24,0,0,0,12,.21c0.13,5.95.28,12,2.32,17.6s6.34,10.7,12.12,12.09c1.73,0.42,3.62.52,5.09,1.52,3.11,2.11,2.6,7.12.17,10s-6.08,4.32-9.3,6.25A32.76,32.76,0,0,0,53,551l-0.79-1.3,0.93,7.16,80.55-7.32a1.85,1.85,0,0,0,.61-0.39A2.78,2.78,0,0,0,134.84,546.95Z"/>
        <path class="cls-18" d="M138.45,538.18a75.69,75.69,0,0,0,1,10,1,1,0,0,0,1.1.81l23.26-2.11a1,1,0,0,0,.93-1.11L162,515.53a1,1,0,0,0-1.18-.92q-11.45,1.79-22.8,4.13a1,1,0,0,0-.82,1.08Q137.9,529,138.45,538.18Z"/>
        <path class="cls-15" d="M156.24,451.91L154,427.3a1,1,0,0,0-1.11-.93l-24.32,2.21a1,1,0,0,0-.92,1.16q1.66,11.84,3.11,23.7a1,1,0,0,0,1.06.9q11.75-.47,23.48-1.32A1,1,0,0,0,156.24,451.91Z"/>
        <path class="cls-18" d="M131,455.48q1.58,13.07,2.9,26.16a1,1,0,0,0,1.11.92l22.8-2a1,1,0,0,0,.93-1.11l-2.32-25.47a1,1,0,0,0-1.09-.93q-11.67.85-23.36,1.31A1,1,0,0,0,131,455.48Z"/>
        <path class="cls-15" d="M138.3,518.69q11.29-2.32,22.68-4.1a1,1,0,0,0,.86-1.1l-2.91-32a1,1,0,0,0-1.11-.93l-22.78,2a1,1,0,0,0-.93,1.12q1.7,17,3,34.1A1,1,0,0,0,138.3,518.69Z"/>
        <path class="cls-10" d="M144.81,539.88l-91.9,8.35c-3.77.34-9.64,1.84-13.22,0.11-5-2.43-4.4-9.46-4.83-14.19l-5-55.18c-1.12-12.31-3.19-24.93-3.39-37.3-0.13-8.24,7.1-8.14,13-8.67l23.12-2.1,57.15-5.2c4.58-.42,9.24-1.12,13.84-1.26,7.44-.22,8.29,5.41,8.8,11,2.89,31.81,6.41,63.62,8.68,95.48,0.34,4.74-1.94,8.26-6.87,9-3.17.5-1.82,5.32,1.33,4.82,8.6-1.37,11-8.7,10.33-16.24l-2-22.06-5.57-61.26c-0.44-4.79-.74-9.62-1.31-14.41-1-7.95-7.3-11.87-14.83-11.25-17.1,1.42-34.18,3.11-51.27,4.66-15.78,1.43-31.62,2.59-47.37,4.31-7.43.81-12.46,6.2-11.94,13.82,0.4,5.73,1,11.46,1.56,17.18l5.61,61.72c0.6,6.58,1.17,13.16,1.79,19.74,0.7,7.45,5.22,13.34,13.33,13,14.65-.53,29.42-2.67,44-4l53.71-4.88,3.28-.3C148,544.59,148,539.59,144.81,539.88Z"/>
        <path class="cls-8" d="M270.2,365l0.24,6.52c0.07,2,.14,3,2.07,3.92,2.78,1.32,6.3,1.5,8.92-.31,4.85-3.35,2.29-11.93-3.86-11-2.35.35-1.35,3.92,1,3.57,1.8-.27,2.08,2.94,1.32,3.9-1.56,2-4.82,1.13-6.59,0l0.92,1.6L273.9,365c-0.09-2.38-3.79-2.39-3.7,0h0Z"/>
        <path class="cls-12" d="M360.37,276.79c1.38-5.31-.36-11.45-4.71-14.79s-11.18-3.22-15,.66c4.28-3.86-5.59-11.92-6.95-17.52,6.82-2.54,14.51-7.57,13.77-14.81-0.81-8-10.82-10.94-18.82-11.19-14.29-.44-31,3.28-37.07,16.2,1.77-3.09.3-7.23-2.42-9.53s-6.34-3.17-9.84-3.8c-9.48-1.72-19.43-2.25-28.58.76-9,3-17,9.82-19.58,18.89,1.36-5.42-5.16-9.89-10.79-11.27-13.67-3.35-34.8-2.45-43.18,10.64-3,4.73-3.88,10.83-7.07,15.85-4.31,6.78-11.15,10.91-1.48,17.56a44.41,44.41,0,0,0,17.94,7.2c-3.11,4.7-10.85,5.06-13.08,10.23-2,4.63,1.9,9.68,6,12.55a39.61,39.61,0,0,0,20.75,7c-4,2.31-9.57,2.3-12.24,6.08-2.78,3.93-.32,9.8,3.79,12.31s9.2,2.6,14,2.62l11.92,0a83.14,83.14,0,0,1-.09-20.07c1-9.22,4.07-24,7.58-32.62,8.08,6.84,20.25,7.58,31.16,7.75,5.7,0.09,13.27-1.41,13.69-7.1a34.63,34.63,0,0,0,24.7,15.4,33.87,33.87,0,0,0,11.69-.7L306,293.67c7.8,21.2,9.47,31.21,4.36,50.73l6.23,0.82c21.55-5.62,31.37-26.44,25.72-40.34a9.32,9.32,0,0,0,13.79-11.78,5.37,5.37,0,0,0-4.54,2.45,4.9,4.9,0,0,0-1.4-7A18.5,18.5,0,0,0,360.37,276.79Z"/>
        <path class="cls-8" d="M254,287.9a30.78,30.78,0,0,0-19.13,11.46c-1.45,1.86,1.15,4.5,2.62,2.62A27.77,27.77,0,0,1,255,291.47c2.34-.41,1.35-4-1-3.57h0Z"/>
        <path class="cls-8" d="M298.71,290.31a30.78,30.78,0,0,0-19.13,11.46c-1.45,1.86,1.15,4.5,2.62,2.62a27.77,27.77,0,0,1,17.5-10.51c2.34-.41,1.35-4-1-3.57h0Z"/>
        <path class="cls-8" d="M251.53,310.55c2.52-1.24,5.42,2.57,2.23,3.84-2.84,1.13-2.61-3.28-.28-3a1.87,1.87,0,0,0,1.85-1.85,1.89,1.89,0,0,0-1.85-1.85c-3.26-.36-5.74,3-5.55,6a5,5,0,0,0,6.9,4.25c3.19-1.12,5.14-4.61,3.53-7.79a6.6,6.6,0,0,0-8.7-2.79c-2.14,1.06-.26,4.25,1.87,3.2h0Z"/>
        <path class="cls-8" d="M292.44,307.24a10.49,10.49,0,0,1,4.62-1.51c0.9,0,2.66.69,2.57,1.92s-1.6,1-2.36.73c-1.34-.52-2.3-2-3.07-3.16-1.36-1.94-4.57-.09-3.2,1.87,1.66,2.38,3.64,4.91,6.77,5.16a5,5,0,0,0,5.48-3.65c0.53-2.44-1.17-4.87-3.28-5.93-3.09-1.56-6.56,0-9.38,1.38-2.14,1.06-.26,4.25,1.87,3.2h0Z"/>
        <path class="cls-8" d="M282,290.71c-8.66,2.9-14.67,11.4-13.33,20.66,0.8,5.49,3.77,10.28,6.85,14.76,4.25,6.2,8.63,12.32,12.94,18.47l1.11-2.72a57.7,57.7,0,0,1-27.29,3c-2.36-.3-2.34,3.41,0,3.7a60.18,60.18,0,0,0,28.28-3.17,1.87,1.87,0,0,0,1.11-2.72c-5.49-7.83-11.81-15.52-16.41-23.92C270.16,309.55,272,298,283,294.29c2.25-.75,1.28-4.33-1-3.57h0Z"/>
        <path class="cls-8" d="M297.84,346.92a1.85,1.85,0,0,0,0-3.7,1.85,1.85,0,0,0,0,3.7h0Z"/>
        <path class="cls-8" d="M318,310.39c1.38-4.21,6.77-6.77,8.64-1.47,1,2.82,1.34,9.53-.51,11a23.1,23.1,0,0,1-4.63,2.62,24.12,24.12,0,0,1-2.37,1c-0.39.14-1.6,0.38-1.28,0.45-2.32-.53-3.31,3-1,3.57,1.88,0.43,3.95-.68,5.61-1.43a26,26,0,0,0,6.45-3.75c2-1.73,1.89-4.67,2-7.14a18.88,18.88,0,0,0-1.12-8.36c-3.5-8.25-13.11-4.57-15.41,2.44-0.74,2.27,2.83,3.24,3.57,1h0Z"/>
        <path class="cls-8" d="M306,290.94c17.39,29,14.27,66.5-8.45,91.72a77.35,77.35,0,0,1-17.45,14.48c-1.68,1-2.27,1.55-4,1-1.55-.52-3.22-2.05-4.62-3-3.31-2.15-6.6-4.34-9.81-6.62-13.19-9.37-26-20.89-31.91-36.34-7.45-19.32-4.3-41.53,3.18-60.32a1.86,1.86,0,0,0-1.79-2.34c-10.33.19-17.16,11.85-12.43,21,1.1,2.12,4.3.25,3.2-1.87-3.45-6.65,1.79-15.27,9.23-15.41l-1.79-2.34c-8.63,21.69-11.35,48,0,69.23,10.15,19,29.15,31.25,46.86,42.45a1.87,1.87,0,0,0,1.87,0,82.29,82.29,0,0,0,39.32-47.09c7-22.07,3.68-46.62-8.17-66.39-1.22-2-4.43-.18-3.2,1.87h0Z"/>
        <path class="cls-8" d="M224.66,318.89c-12.21,2.29-32,15.31-26.53,30.33,2.12,5.81,8.12,9.46,14,10.35,8.59,1.29,16.8-3.14,24-7.31a1.85,1.85,0,0,0-1.87-3.2c-5.63,3.27-11.64,6.69-18.31,7-5.86.26-13.12-2.82-14.63-9.07s3.49-12.69,7.84-16.59a33.63,33.63,0,0,1,16.5-7.94c2.34-.44,1.35-4-1-3.57h0Z"/>
        <path class="cls-8" d="M350.62,297.14c8.81-4.3,14.75-14.16,10.56-23.83a13.89,13.89,0,0,0-22-5.08l2.62,2.62c3.16-3.46,2.35-9.18,1.81-13.42a146.8,146.8,0,0,0-3.36-16.29,1.86,1.86,0,0,0-3.1-.82l-0.05.06a2,2,0,0,0-.29,2.24c1.18,2.69,11.58,8.62,4.83,10.09-2.33.51-1.34,4.08,1,3.57,3.86-.84,6.43-3.35,4.62-7.35-1.5-3.29-6-5.4-7.24-8.18L339.73,243l0.05-.06-3.1-.82c1,4,2,8.1,2.73,12.2,0.6,3.42,2.49,10.92-.23,13.9a1.85,1.85,0,0,0,2.62,2.62c6.32-5.52,15.17-1.12,16.79,6.5,1.56,7.35-3.63,13.55-9.85,16.59-2.14,1-.27,4.24,1.87,3.2h0Z"/>
        <path class="cls-8" d="M316.92,353.88c17.56-4.91,34.27-23.41,27-42.62l-2.72,2.09c9.54,5.86,20.89-3.34,16.51-13.87a1.9,1.9,0,0,0-1.79-1.36,7.94,7.94,0,0,0-5.85,3l2.91,2.24c2.1-3.56,1.12-7.32-2.21-9.65-2-1.37-3.81,1.84-1.87,3.2l0.88,4.58c-1,1.76,1.52,3.89,2.91,2.24l3.23-1.91-1.79-1.36c3,7.32-4.17,13.93-11.07,9.69-1.29-.8-3.3.55-2.72,2.09,6.54,17.31-8.67,33.65-24.42,38.06-2.29.64-1.32,4.22,1,3.57h0Z"/>
        <path class="cls-8" d="M219.53,337.46c-4.61,0-9.21,0-13.82,0-4.3,0-9.32.09-13.08-2.37-5.14-3.36-5.25-9.93.78-12.3,2.56-1,5.2-1.63,7.67-2.89,1.75-.89.77-3.34-0.93-3.45-8.14-.53-20.31-3.7-24.47-11.67-4.29-8.22,8.31-10.08,12.07-14.92,0.76-1,.71-2.82-0.82-3.1a44.87,44.87,0,0,1-15.45-5.7c-2.43-1.48-6.38-3.67-6-7,0.2-1.67,1.7-3.32,2.67-4.63a46.05,46.05,0,0,0,6.36-10.89c1.9-4.9,3.36-9.7,7.31-13.39,6.25-5.84,15.58-7.54,23.84-7.61,6.13,0,25.81,1,23.39,11.11a1.85,1.85,0,0,0,3.57,1c3.11-10.82,13-17.45,23.67-19.46,6.23-1.17,39.1-1.8,33.53,11.19-0.91,2.13,2.09,4,3.2,1.87,6.2-12.17,20.86-15.35,33.45-15.31,5.66,0,13.31.73,17.19,5.46,6.34,7.74-4.34,14.48-10.61,16.95-2.19.86-1.24,4.45,1,3.57,7-2.74,15.83-7.87,15.13-16.6-0.6-7.46-8.11-11.1-14.61-12.36-15.56-3-37,1.18-44.74,16.43l3.2,1.87c6.9-16.08-20.77-17.84-30.08-17.48-14.67.57-29.59,7.93-33.89,22.89l3.57,1c2.7-11.33-12.43-14.73-20.61-15.51-10.55-1-22.7.29-31.27,7.09-4.43,3.52-6.77,8.14-8.71,13.35a42.07,42.07,0,0,1-5.18,10.5c-1.55,2.13-3.5,4.17-4.48,6.66-4.4,11.23,16,17.28,23.55,18.65l-0.82-3.1c-4.82,6.2-17.72,7.22-13.3,18.06,4.14,10.16,18.5,14.21,28.32,14.85l-0.93-3.45c-4.15,2.12-9.62,2.39-12.62,6.37-2.39,3.17-2.06,7.41-.16,10.74,6,10.42,23.29,7.37,33.09,7.4,2.38,0,2.39-3.7,0-3.7h0Z"/>
        <path class="cls-8" d="M320.39,275.66A32.73,32.73,0,0,1,271,269.91c-0.8-1.17-3.11-1.26-3.39.44-1.28,7.87-15.25,5.81-20.8,5.37a51.82,51.82,0,0,1-12.53-2.31c-1.26-.43-14.45-6.71-11.23-9.42l-2.24.29c4.68,2.88,2.55,9.17-1,11.87-3.71,2.81-8.72,3.17-13.2,3.52-2.36.19-2.38,3.89,0,3.7,6.76-.54,15.2-1.51,18.93-8.06,2.76-4.86,2.08-11.2-2.86-14.24a1.9,1.9,0,0,0-2.24.29c-4.17,3.5.79,8.56,3.72,10.85,5.15,4,11.58,5.82,18,6.7,7.82,1.08,27.2,4,29.08-7.59l-3.39.44a36.51,36.51,0,0,0,55.2,6.51c1.76-1.61-.86-4.22-2.62-2.62h0Z"/>
        <path class="cls-19" d="M175.9,220.54a12.19,12.19,0,0,1-5.44-10.38"/>
        <path class="cls-10" d="M177,218.62a10.11,10.11,0,0,1-4.34-8.46c0-2.86-4.44-2.86-4.44,0a14.75,14.75,0,0,0,6.54,12.29c2.36,1.63,4.59-2.22,2.24-3.84h0Z"/>
        <path class="cls-19" d="M196.53,206.85l-2.22-6.67"/>
        <path class="cls-10" d="M198.67,206.26l-2.22-6.67c-0.9-2.7-5.19-1.54-4.29,1.18l2.22,6.67c0.9,2.7,5.19,1.54,4.29-1.18h0Z"/>
        <path class="cls-19" d="M223.1,198l1-12.23"/>
        <path class="cls-10" d="M225.33,198l1-12.23c0.24-2.85-4.2-2.83-4.44,0l-1,12.23c-0.24,2.85,4.2,2.83,4.44,0h0Z"/>
        <path class="cls-19" d="M265.44,194.63A48.42,48.42,0,0,1,274.28,179"/>
        <path class="cls-10" d="M267.58,195.22a47.82,47.82,0,0,1,8.27-14.6c1.81-2.19-1.32-5.35-3.14-3.14A54,54,0,0,0,263.3,194c-1,2.7,3.34,3.86,4.29,1.18h0Z"/>
        <path class="cls-8" d="M454.46,251.57c-4.49,7.06-4.4,16.39-1.19,24.11s9.2,14,15.85,19.09c5.44,4.16,12.35,7.77,18.89,5.73,3.64-1.14,8-7.66,8-7.66L483.5,280.6s-5.22,11-11.52,8.85a9.17,9.17,0,0,1-3-1.94A48.16,48.16,0,0,1,457.71,273a3,3,0,0,1-.42-2.29,3,3,0,0,1,1.67-1.42l15.16-7.45c-2.8-1.57-3.94-4.91-5.51-7.7s-7.1-6.72-7.1-6.72Z"/>
      </g>
    </g>
  </g>
</svg>
