<svg xmlns="http://www.w3.org/2000/svg" xmlns:xlink="http://www.w3.org/1999/xlink" viewBox="0 0 580 580"><defs><style>.cls-1{fill:none;}.cls-2{isolation:isolate;}.cls-3{clip-path:url(#clip-path);}.cls-4{fill:#fdea8b;}.cls-5,.cls-6{opacity:0.82;}.cls-10,.cls-5,.cls-6{mix-blend-mode:multiply;}.cls-5{fill:url(#linear-gradient);}.cls-6,.cls-9{fill:#ffec8d;}.cls-7{fill:#fff;}.cls-8{fill:#014e7f;}.cls-10{fill:url(#linear-gradient-2);}</style><clipPath id="clip-path"><rect class="cls-1" y="1" width="580" height="580"/></clipPath><linearGradient id="linear-gradient" x1="-50.29" y1="187.73" x2="414.7" y2="187.73" gradientUnits="userSpaceOnUse"><stop offset="0" stop-color="#fff"/><stop offset="0.84" stop-color="#ffcd31"/><stop offset="1" stop-color="#ffd459"/></linearGradient><linearGradient id="linear-gradient-2" x1="317.49" y1="141.9" x2="568.16" y2="141.9" gradientUnits="userSpaceOnUse"><stop offset="0" stop-color="#fff"/><stop offset="0.92" stop-color="#da1f47"/></linearGradient></defs><title>iiLAB -U1-concepts-04-DEVICE SEIZED</title><g class="cls-2"><g id="Layer_2" data-name="Layer 2"><g class="cls-3"><rect class="cls-4" x="-28.78" y="-36.4" width="645" height="645"/><path class="cls-5" d="M342.58,132.3s-17.13-60.94-93.07-93.57S55.91-8.21,0,49.19-77.33,212.84,0,247.52s55.51,11.54,107.79,69.55,88.53,54.18,146.9,37.34,71.85-23.5,71.85-23.5,126.36-50.81,76.52-135S342.58,132.3,342.58,132.3Z"/><circle class="cls-6" cx="446.27" cy="129.01" r="119.4"/><path class="cls-7" d="M367.59,149.79s-142.36-36.2-156.93,31.54,8.53,117.36,52.92,131.84,37.68,27,37.68,27S287,395.53,243.79,410.8,96.69,470,142.58,511.56s45.89,58.5,72.19,49.5-38.37-45-14.28-61.5S358.77,410.8,358.77,410.8s78.22-22.23,87.51,22.77-58.21,114.8,7.79,120.4,86.54-4.13,61.34-13.9-49.34-18-43.34-45,15.74-75-6.38-115.49-30-55.76-30-55.76,37.87,76.69,114.37,41.48,73.5-117.77,73.5-117.77S593.44,280.35,580,273s-23.44-32.83-23.13-33.17,7.87,66.88-41.47,62.83-69.13-35.3-69.13-35.3l-3.44-19.84Z"/><path class="cls-8" d="M351.95,62.54a88.21,88.21,0,0,1,14.87-25.59l-4.27-1.77-2.24,28.73c-0.31,3.92-.36,12.74,6.16,10.71,3.06-1,1.76-5.78-1.33-4.82,0.44-.14.93-15.64,1.07-17.38l1.34-17.24c0.16-2.08-2.91-3.4-4.27-1.77a95.46,95.46,0,0,0-16.15,27.8c-1.13,3,3.7,4.32,4.82,1.33h0Z"/><path class="cls-8" d="M350.93,64.58a97.75,97.75,0,0,0-32.69-28c-2.35-1.24-4.41,1.19-3.42,3.42l13.7,31c1.3,2.94,5.61.4,4.32-2.52l-13.7-31-3.42,3.42a92.22,92.22,0,0,1,30.9,26.21c1.91,2.54,6.25.05,4.32-2.52h0Z"/><path class="cls-8" d="M357.67,69.19c-7.4-5.59-18.57-10-25.59-1.35-6.24,7.69,0,15.67,8.25,17.57,7.15,1.65,18.17.44,20.56-8,1.9-6.69-3.21-14.14-10.36-12.91-3.16.54-1.82,5.36,1.33,4.82,2.27-.39,3.78,1.89,4.22,3.8a5.72,5.72,0,0,1-2.58,6.11c-3.61,2.53-9.24,2.26-13.24,1-3-.94-5.89-2.83-5.65-6.3,0.17-2.49,2.69-4.69,4.88-5.49,5.61-2.05,11.35,1.83,15.66,5.08,2.57,1.94,5.06-2.4,2.52-4.32h0Z"/><path class="cls-8" d="M451.4,266c-5.38,5,1.91,13.82,5,18.08a84.34,84.34,0,0,0,18.27,18.56,82.78,82.78,0,0,0,23.19,12.1c7.6,2.53,16.71,4.82,24.55,2,11.35-4,13.77-18.66,16.86-28.9,3.75-12.41,7.49-25.09,13.32-36.71,1.95-3.89,4.92-10.63,9.43-12.22,4.89-1.73,8,6.18,9.74,9.49A169.28,169.28,0,0,1,580,267a2.54,2.54,0,0,0,4.18,1.1A134.48,134.48,0,0,0,604.69,245l-4.57-.6a61.9,61.9,0,0,0,6.2,18.79,2.55,2.55,0,0,0,3.42.9,18.29,18.29,0,0,0,8.53-8.65l-4.57-1.93c-6.88,35.31-19.44,73.24-49.39,95.72-13.48,10.12-29.91,17-46.89,17.41-17.34.45-33.47-6.45-46.42-17.74-14.51-12.65-25-29.15-34.34-45.81-1.57-2.81-5.89-.29-4.32,2.52,16.7,29.83,40,62.22,76.91,65.75s70-21.8,87.44-52.52c11.21-19.75,17.5-41.84,21.82-64,0.51-2.6-3.26-4.64-4.57-1.93a14.15,14.15,0,0,1-6.74,6.86l3.42,0.9a57.76,57.76,0,0,1-5.7-17.59c-0.37-2.34-3.47-2.15-4.57-.6a128.91,128.91,0,0,1-19.75,22.09l4.18,1.1c-3.39-9-7.1-19-12.84-26.81-3-4-7.66-6.64-12.5-4.25-8.37,4.13-12.53,16.21-15.72,24.21-4.47,11.23-7.83,22.84-11.34,34.39-1.46,4.78-2.83,10-5.7,14.18-6.15,8.86-19.05,5.35-27.55,2.51a78.88,78.88,0,0,1-37.58-27.15c-1.39-1.86-8.87-11.17-6.64-13.24s-1.17-5.72-3.54-3.54h0Z"/><path class="cls-8" d="M251.64,415.43a691,691,0,0,0-70.7,63.39q-8.27,8.52-16.25,17.33c-4.41,4.88-8.89,9.86-9.7,16.66-1.42,11.9,6.68,24.58,15.11,32.26,5.69,5.18,21.86,17.23,28.67,8.18,3.24-4.3,3.41-11.4,5.19-16.44a85.11,85.11,0,0,1,9-18c15-23.09,38.71-38.94,62.22-52.38,27.6-15.78,56.82-30.06,78.6-53.87,2.17-2.37-1.36-5.92-3.54-3.54-34.86,38.12-88.11,51.09-124.82,87A112.79,112.79,0,0,0,204.17,524a86.77,86.77,0,0,0-6,14.33c-0.88,2.81-1.2,5.9-2.19,8.65-2.18,6.08-5.94,4.4-10.46,2.38C174,544.16,164,533.53,160.71,521.1c-2.22-8.35.91-14,6.3-20s10.7-11.68,16.2-17.38a690.83,690.83,0,0,1,72-64.71c2.53-2-1-5.49-3.54-3.54h0Z"/><path class="cls-8" d="M300.58,395.61l69.81,14c18.81,3.78,41.67,5.89,56,20.1,14.49,14.38,15.78,36.61,14.2,55.77-1,11.63-2.89,23.16-3.53,34.82-0.42,7.63-1.47,17.7,5.9,22.54,3.54,2.33,8.05,3.19,12.1,4.13A164.53,164.53,0,0,0,471.59,550c8.74,1.11,19.56,3,28.16.26,5.34-1.7,9.61-7,6.71-12.64-3-5.91-10.92-6.9-16.12-10-14.94-9-9.28-33.54-8.7-47.75A216.82,216.82,0,0,0,449.4,357.45c-9.67-15.54-24.76-32.64-45-29.31-3.17.52-1.82,5.34,1.33,4.82,19.22-3.16,33.09,16.39,41.59,30.71a212,212,0,0,1,29.46,110.92c-0.23,14.86-4.21,31.54,1.59,45.82a23.35,23.35,0,0,0,12.15,12.8c2.78,1.29,5.77,2.26,8.4,3.87,5.25,3.22,3.22,7.65-2.28,8.79-4.41.91-9.26,0.39-13.71,0.14a153.64,153.64,0,0,1-17.24-1.94c-4.67-.8-9.34-1.76-13.91-3-6.39-1.75-9.59-4.73-9.92-11.53-1-20.57,5.23-40.86,4.16-61.47-0.82-15.87-5.57-32.52-17.79-43.43-14.52-13-35.26-15.51-53.6-19.2l-72.72-14.62c-3.14-.63-4.49,4.19-1.33,4.82h0Z"/><path class="cls-8" d="M341.19,119.71A399,399,0,0,0,194.61,29.65C143.42,11.93,76.1-3.45,29.74,33.77,7.41,51.69-7.61,78.11-18.93,104c-11.93,27.28-18.94,57.52-12.19,87.09C-25,217.75-7.33,240,18.26,250.3a79.67,79.67,0,0,0,19.33,5c6.42,0.84,17.4-1.41,18.78,7.06,0.94,5.8-.74,11.72,0,17.57a40,40,0,0,0,5.72,16.18A41,41,0,0,0,89.94,315c3.81,0.7,7,1.59,9,5.24,1.61,3,2.19,6.46,3.56,9.56A30.79,30.79,0,0,0,113,342.27c10.48,7.5,23.87,9.83,36.33,11.65a279.51,279.51,0,0,0,49.48,2.84c8.32-.27,16.61-0.95,24.88-1.94,3.15-.38,3.19-5.38,0-5a280.85,280.85,0,0,1-47.91,1.73c-14.84-.76-30.26-2.15-44.58-6.35-5.85-1.72-11.65-4.09-16.48-7.86-5.4-4.22-7.6-9.38-9.83-15.66-1.74-4.9-4.27-8.78-9.38-10.5-6-2-11.78-2.24-17.37-5.71a36.06,36.06,0,0,1-17-31.75c0.42-9.24,1.61-21-10.52-22.52-6.74-.82-13.33-0.61-20-2.21a76.31,76.31,0,0,1-18.77-7.22,74.51,74.51,0,0,1-29-28.21c-14.92-26-14-57.62-5.5-85.5C-14.33,100.71-.06,72.57,19,51,38.35,29.12,64.07,17.67,93.18,16.3c28.23-1.33,56.64,4.86,83.56,12.85a392.49,392.49,0,0,1,145.69,80.08q7.8,6.8,15.22,14c2.31,2.24,5.85-1.29,3.54-3.54h0Z"/><path class="cls-8" d="M303,140.05c-35.3-.94-68.8,19.57-83.06,52s-7.2,68.46,14.8,95.43c23.25,28.51,59.63,42.81,95.5,46.29,18.12,1.76,36.67-.22,51.78-11.13a69.19,69.19,0,0,0,25.82-37c9.92-35-12.66-71.59-45.91-83.61-1.91-.69-3.45,1.36-3.08,3.08L365.09,234l4.18-2.43a173.69,173.69,0,0,0-28.36-18.6,2.54,2.54,0,0,0-3.76,2.16,53,53,0,0,0,2.21,21.19l3.67-2.82c-5.67-3.83-14.21-7.75-20.25-2.38-4,3.57-5.19,9.79-1.2,13.77a2.51,2.51,0,0,0,3.93-3l-4-7c-1.18-2.1-4.8-1.25-4.66,1.26l0.87,15.82c0.14,2.46.8,5.49,0.43,7.91-0.53,3.49-2.26,4.58-5.55,4.08a36.5,36.5,0,0,1-19.59-10.12c-10.71-10.37-15.84-26.13-11.15-40.54,1-3.07-3.83-4.38-4.82-1.33-5.84,17.93,2,38,16.84,49.15,5.89,4.42,17.21,10.51,24.86,7.69,3.88-1.43,4.49-5.27,4.42-8.93-0.16-7.9-.87-15.84-1.3-23.73l-4.66,1.26,4,7,3.93-3c-2.61-2.6.07-6.65,3-7.61,4.27-1.4,9,1.79,12.39,4.07,1.81,1.22,4.3-.8,3.67-2.82a49.3,49.3,0,0,1-2-19.86l-3.76,2.16a167.3,167.3,0,0,1,27.34,17.81,2.52,2.52,0,0,0,4.18-2.43l-6.26-28.82-3.08,3.08c28.14,10.17,48.9,40.21,44,70.53a64.29,64.29,0,0,1-20.09,36.87c-12.73,11.61-29,15.65-45.95,15.07-33.3-1.13-68.38-13.06-92.4-36.74-23.26-22.93-34.75-56-25.46-88,10.52-36.2,44.8-60.56,82.33-59.56,3.22,0.09,3.22-4.91,0-5h0Z"/><path class="cls-8" d="M291,140.87c3.22,0,3.22-5,0-5s-3.22,5,0,5h0Z"/><path class="cls-8" d="M509.07,106.14a36.9,36.9,0,0,0-31.71-4.5c-4.36,1.42-9.51,3.71-12.18,7.63-3.15,4.64-2.1,11.48-1.46,16.7,1.59,13,6.63,25.23,13.35,36.39,3.58,5.94,7.92,12.08,8,19.29s-6.55,15.51-13.85,10c-2.57-1.93-5.07,2.41-2.52,4.32,7.71,5.79,18.14.17,20.62-8.33,3.67-12.58-5.9-23.47-11.38-33.8a87.58,87.58,0,0,1-7.79-20.17c-1.39-5.69-4.56-17.38-.25-22.39,3.87-4.5,11.93-6.22,17.54-6.4a32,32,0,0,1,19,5.54c2.68,1.79,5.19-2.53,2.52-4.32h0Z"/><path class="cls-8" d="M352.6,134.31a11.66,11.66,0,0,0-12.17,5.16,2.5,2.5,0,0,0,.39,3c7.58,6,17.3,5,25.51,9.45,9.17,4.94,13.49,16.95,18.47,25.48,10.73,18.36,22.83,37.2,38.22,52,13.29,12.82,30.13,21.57,49,20.39a62.69,62.69,0,0,0,45.33-23.74c13-16.83,16.85-39.38,11.62-59.83-0.8-3.12-5.62-1.79-4.82,1.33,4.52,17.68,1.79,37-8.44,52.28A57.56,57.56,0,0,1,469.78,245c-19.09.47-35.08-10-47.65-23.55-13.52-14.53-24.56-31.76-34.41-48.93-4.6-8-8.51-17.38-16.14-23.06-8.09-6-19.4-4.26-27.23-10.47l0.39,3a6.34,6.34,0,0,1,6.52-2.86c3.15,0.5,4.5-4.32,1.33-4.82h0Z"/><path class="cls-8" d="M517.56,88.81c-12.92-24.68-34-45.3-60.77-54.11-24.73-8.13-61.36-7.39-76.05,17.89-8.88,15.27-7.8,33.45-4.34,50.13,0.65,3.15,5.47,1.82,4.82-1.33-3.6-17.4-4.54-37.71,7.91-52C400.44,36.36,420.86,34,437,35.6c33.65,3.29,60.94,26.57,76.2,55.74,1.49,2.85,5.81.33,4.32-2.52h0Z"/><path class="cls-8" d="M435.32,142a84.71,84.71,0,0,1,17.29,7.73c2.95,1.75,8.65,5,6.11,8.7-1.59,2.34-6.45,2.63-8.93,2.69-5.64.12-12-2.12-15.07-7.1s-2.83-11.65,1.4-15.88c2.28-2.28-1.26-5.82-3.54-3.54-5.64,5.64-6.41,14.49-2.5,21.37,4.45,7.82,14.08,11,22.64,9.93,6.28-.75,15.46-5.49,11.19-13.22-2.32-4.2-7.73-6.79-11.74-9a92.2,92.2,0,0,0-15.52-6.55c-3.07-1-4.38,3.83-1.33,4.82h0Z"/><path class="cls-8" d="M502.84,141.12c-0.28,7.74-8.89,15.18-15.79,8.58-2.73-2.61-3.64-6.69-.86-9.58,2.2-2.28,6.18-3.21,8.8-1.13s6.06-1.54,3.54-3.54c-10-7.89-24.21,4.33-17,15.32,8.6,13.16,25.86,3.89,26.35-9.66,0.12-3.22-4.88-3.21-5,0h0Z"/><path class="cls-8" d="M528.95,81.94c-4.11,16.23-23.78,25.11-38,30.54a127.58,127.58,0,0,1-49.15,8.35c-32.62-1-63.86-15.29-86.49-38.68a2.54,2.54,0,0,0-3.93.51c-12.52,17.84,2.73,37.37,16.31,48.81,17.69,14.9,36,30,56.77,40.48,19.17,9.63,41.13,15.1,62.55,11.31,9.69-1.71,19.57-5.39,26.75-12.35,7.74-7.5,11.42-18.61,15-28.5,4.33-11.86,9.48-25.29,10-38,0.39-9.81-5-20.14-15.7-20.72-3.22-.17-3.21,4.83,0,5,12.89,0.69,11,17.3,9,25.78a248.15,248.15,0,0,1-8.73,28.37c-3.37,9-6.78,19.06-14.23,25.6-6.88,6-16.19,9-25.11,10.29-40.21,6-75.57-20.34-104.82-44.26-13.42-11-37.19-29.72-23.45-49.28l-3.93.51c39.3,40.63,101.38,51.65,152.15,26.54,12.44-6.15,26.24-14.61,29.87-29,0.79-3.12-4-4.45-4.82-1.33h0Z"/><path class="cls-7" d="M211.21,143.14q7.26-43.21,14.11-86.48Q169.09,57.58,113,62c-2,.16-4.26.43-5.57,2a7.78,7.78,0,0,0-1.37,4.45,590.31,590.31,0,0,0-1.89,80.93l3.63,62.93,7.48,4,123.52-16.85,5-4.47Zm-98.39,6.23L117.08,70l97.21-3.73-14,73.47Z"/><path class="cls-7" d="M96.13,235.92c-5.48-26.2-14-55.55-22.34-59.35s-13.18-.55-31.07,0S9.63,180.37,6.88,187,31.13,322.5,40.48,327.43s63.63-4.93,67.31-10.36S101.61,262.12,96.13,235.92ZM34.57,286.47l-14.5-86.33c2,0,48.21-7,48.21-7L89.5,276.72Z"/><path class="cls-8" d="M219.34,136.33q7.25-43.21,14.11-86.48A2.54,2.54,0,0,0,231,46.69q-41.43.7-82.81,3.27-9.85.62-19.69,1.34c-4.69.35-11.65-.45-15.78,2.28C109,56,109.26,61,108.93,64.9q-0.88,10.34-1.4,20.7c-1.6,31.85.27,63.39,2.1,95.15l1,17.53c0.12,2-.37,5.6.59,7.51,1.29,2.55,7.73,5.45,10.48,5.44a39.84,39.84,0,0,0,5.1-.7l68.92-9.4,38.68-5.28c3.13-.43,6.45-0.59,9.53-1.3s5-3.19,7.34-5.28a2.52,2.52,0,0,0,.39-3L219.09,134.4c-1.71-2.72-6-.21-4.32,2.52l32.58,51.85,0.39-3c-1.54,1.37-3.1,3.37-4.88,4.37,1.86-1,.53-0.35-0.25-0.37-2.53-.05-5.33.73-7.83,1.07L203,195.14,131.1,205c-3.13.43-6.46,0.58-9.53,1.3-2.51.59,0.47-.59,0.57,0.35-0.1-1-6.24-3.33-7.36-3.93l1.24,2.16-3.25-56.39q-1.27-22-.88-44.08,0.34-18.77,1.88-37.49c0.29-3.58-.11-8.32,4.06-9.71,2.58-.86,6-0.52,8.76-0.72q9.84-.74,19.69-1.36,42.34-2.7,84.77-3.39l-2.41-3.16Q221.77,91.79,214.52,135C214,138.15,218.81,139.5,219.34,136.33Z"/><path class="cls-8" d="M122.81,65.06l84.9-3.26L220,61.33l-2.41-3.16-14,73.47L206,129.8l-76.47,8.39-11,1.21,2.5,2.5,4.27-79.34c0.17-3.22-4.83-3.21-5,0L116,141.9a2.51,2.51,0,0,0,2.5,2.5L195,136l11-1.21a2.58,2.58,0,0,0,2.41-1.84l14-73.47A2.53,2.53,0,0,0,220,56.33l-84.9,3.26-12.31.47C119.6,60.18,119.58,65.18,122.81,65.06Z"/><path class="cls-8" d="M198.8,146.64L219.89,176c1.86,2.59,6.2.1,4.32-2.52l-21.09-29.38c-1.86-2.59-6.2-.1-4.32,2.52h0Z"/><path class="cls-8" d="M124.42,160.24c25.79-3.79,51.41-8.66,77.2-12.45,3.17-.47,1.82-5.28-1.33-4.82-25.79,3.79-51.41,8.66-77.2,12.45-3.17.47-1.82,5.28,1.33,4.82h0Z"/><path class="cls-8" d="M137.35,173.63c12-3,23.92-6.16,36.08-8.25s24.79-3.1,37.22-4.18c3.18-.28,3.21-5.28,0-5-12.51,1.09-25.06,2.11-37.45,4.18s-24.87,5.32-37.18,8.44c-3.12.79-1.8,5.61,1.33,4.82h0Z"/><path class="cls-8" d="M222,172.25c-27.18,1.13-53.55,3.28-80.14,9.36-3.14.72-1.81,5.54,1.33,4.82,26.15-6,52.07-8.07,78.81-9.18,3.21-.13,3.22-5.13,0-5h0Z"/><path class="cls-8" d="M177.24,146.64L198.33,176c1.86,2.59,6.2.1,4.32-2.52l-21.09-29.38c-1.86-2.59-6.2-.1-4.32,2.52h0Z"/><path class="cls-8" d="M161,150.18l23.75,33.08c1.86,2.59,6.2.1,4.32-2.52l-23.75-33.08c-1.86-2.59-6.2-.1-4.32,2.52h0Z"/><path class="cls-8" d="M144.63,151.53l21.09,29.38c1.86,2.59,6.2.1,4.32-2.52L148.95,149c-1.86-2.59-6.2-.1-4.32,2.52h0Z"/><path class="cls-8" d="M130.09,157.72L150.39,186c1.86,2.59,6.2.1,4.32-2.52l-20.3-28.28c-1.86-2.59-6.2-.1-4.32,2.52h0Z"/><path class="cls-8" d="M29.15,178.73c12.89-4.09,27-8.54,40.35-3.66,13.91,5.1,17.18,19.12,21,31.92a451.62,451.62,0,0,1,16.31,81.75c0.6,5.79,2.76,14.07-1.49,18.91s-12.2,6.93-17.91,8.85a110,110,0,0,1-19,4.57c-6.89,1-15.45,2.43-21.91-.93C36,314.71,34,299.62,31.59,289.36q-4.78-20.27-8.3-40.81Q19.23,224.91,16.87,201c-0.69-7-3.18-17.11,3-22.32,4.86-4.12,12.43-4.12,18.43-4.06,2.19,0,2.19-3.38,0-3.4-9.5-.1-22.19,1.09-25.13,12-2,7.27.15,16.17,0.94,23.51q1.27,11.78,2.94,23.52,3.61,25.41,9.15,50.5c2.69,12.2,4.39,28.07,13.08,37.82,9,10,24.54,7,36.21,4.62A111.6,111.6,0,0,0,97,316.44c5.16-2.22,11-4.76,13.17-10.37,2.33-6,.4-14-0.29-20.14q-1.27-11.47-3.12-22.88a454.68,454.68,0,0,0-10.67-48.8c-3.92-14.15-7-32.89-21.19-40.46-14.82-7.89-31.71-3.08-46.68,1.66-2.08.66-1.19,3.94,0.9,3.28h0Z"/><path class="cls-8" d="M95.67,277.19L38.6,288.35c-2.14.42-1.24,3.7,0.9,3.28l57.07-11.16c2.14-.42,1.24-3.7-0.9-3.28h0Z"/><path class="cls-9" d="M56.3,286.74c-0.18,1.13,1.51,11.57,1.33,12.7"/><path class="cls-8" d="M54.6,286.74c-0.37,4.21,1.7,8.49,1.33,12.7-0.19,2.18,3.21,2.17,3.4,0,0.37-4.21-1.7-8.49-1.33-12.7,0.19-2.18-3.21-2.17-3.4,0h0Z"/><path class="cls-9" d="M77.33,282.19c0.14,5-.44,5.19.89,10"/><path class="cls-8" d="M75.63,282.19c0.08,3.65,0,6.93.95,10.49a1.7,1.7,0,0,0,3.28-.9c-0.87-3.27-.75-6.24-0.83-9.59,0-2.18-3.45-2.19-3.4,0h0Z"/><path class="cls-8" d="M22.54,199.27q7.15,39.24,14.32,78.47l4,22.07A1.74,1.74,0,0,0,43,301l56.91-9.47a1.73,1.73,0,0,0,1.19-2.09L83.93,206.9l-2.44-11.75A1.74,1.74,0,0,0,79.39,194l-58.52,8.63c-2.16.32-1.24,3.59,0.9,3.28l58.52-8.63L78.21,196,95.37,278.6l2.44,11.75L99,288.26l-56.91,9.47,2.09,1.19q-7.43-40.53-14.81-81.07l-3.55-19.48c-0.39-2.15-3.67-1.24-3.28.9h0Z"/><circle class="cls-10" cx="442.83" cy="141.9" r="125.34"/></g></g></g></svg>