<?xml version="1.0" encoding="UTF-8"?>
<svg xmlns="http://www.w3.org/2000/svg" xmlns:xlink="http://www.w3.org/1999/xlink" viewBox="0 0 580 580">
  <defs>
    <style>.cls-1{fill:none;}.cls-2{isolation:isolate;}.cls-3{fill:#eb6f24;}.cls-4{clip-path:url(#clip-path);}.cls-5{fill:#ffec8d;}.cls-6{mix-blend-mode:multiply;fill:url(#linear-gradient);}.cls-7{fill:#fff;}.cls-8{fill:#014e7f;}</style>
    <clipPath id="clip-path">
      <rect class="cls-1" y="1" width="580" height="580"/>
    </clipPath>
    <linearGradient id="linear-gradient" x1="-24.83" y1="212.29" x2="478.06" y2="212.29" gradientUnits="userSpaceOnUse">
      <stop offset="0" stop-color="#fff"/>
      <stop offset="0.92" stop-color="#da1f47"/>
    </linearGradient>
  </defs>
  <title>iiLAB -U1-concepts-02-SEEKING REMOTE HELP v1</title>
  <g class="cls-2">
    <g id="Layer_2" data-name="Layer 2">
      <path class="cls-3" d="M505.88,135.48a306.38,306.38,0,0,0-40.18,7.15,4.09,4.09,0,0,0-2.61,1.42,4.85,4.85,0,0,0-.33,3.3A230.16,230.16,0,0,1,464,197.61a183.94,183.94,0,0,0,40.69-8.81,5.51,5.51,0,0,0,2.16-1.12c1.28-1.24,1.25-3.37,1.13-5.21q-1.48-21.85-3-43.7"/>
      <g class="cls-4">
        <circle class="cls-6" cx="226.62" cy="212.29" r="251.44"/>
        <path class="cls-7" d="M28.69,127.91S184,110.74,239.54,97.13,394.63,82.84,427.92,83.95,519,82.49,539,79.46s19.8,259.07,19.8,259.07-123.48,2.92-201.6,21.5-150.25,20.59-199,26.74S40.23,414.49,40.23,414.49Z"/>
        <path class="cls-8" d="M54.65,153.08Q61.3,278.87,56,404.89a2.52,2.52,0,0,0,3.16,2.41c59.8-18.47,122.7-19.74,184.65-23.63,64.29-4,128.22-12.1,192.3-18.52,36.68-3.68,73.42-6.77,110.25-8.28a2.55,2.55,0,0,0,2.5-2.5l4.48-206.71,1.28-58.92a2.52,2.52,0,0,0-3.16-2.41c-69.76,19.42-143.74,11.5-215.22,15.36-73.18,4-145.84,14.25-218.11,26.08Q87.52,132.77,57,138c-4.92.84-18.27,0.61-19.13,7.72-0.52,4.29,4.62,7.29,7.81,4.27,2.34-2.21-1.2-5.75-3.54-3.54,2.56-2.42,9-2.4,12.31-3L68,141.21q12.6-2.15,25.21-4.27,24.73-4.16,49.5-8.11c34.08-5.39,68.25-10.32,102.53-14.28,33.48-3.86,67.08-6.81,100.75-8.36,32.89-1.52,65.8-1,98.7-1.76,36.35-.79,72.88-3.5,108-13.29l-3.16-2.41L545.1,295.44l-1.28,58.92,2.5-2.5c-65.81,2.7-131.24,10.53-196.7,17.45-32.09,3.39-64.2,6.55-96.4,8.74-31.27,2.13-62.6,3.31-93.82,6.1-34.35,3.06-68.6,8.14-101.62,18.34L61,404.89Q66.3,279,59.65,153.08c-0.17-3.2-5.17-3.22-5,0h0Z"/>
        <path class="cls-8" d="M514.85,123.4c-11.87,1.24-23.7,2.87-35.45,5q-9.61,1.72-19.13,3.84c-3.58.8-8.18,1.23-9.58,5.2-1.64,4.61.65,11.13,1.15,15.9q0.94,9.12,1.31,18.28a295.3,295.3,0,0,1-1,37.59,2.51,2.51,0,0,0,2.5,2.5,294.2,294.2,0,0,0,33.87-5.2q9.13-2,18.11-4.54c3.67-1.05,9.07-1.72,11.74-4.76,2.5-2.84,2.07-6.74,1.82-10.25-0.44-6.19-.9-12.37-1.36-18.55q-1.4-19-2.83-38.08c-0.24-3.19-5.24-3.21-5,0q1.17,15.62,2.32,31.24,0.58,7.81,1.15,15.62c0.32,4.32,2.33,11.85.23,15.73-1.91,3.55-10.05,4.43-13.91,5.47q-7.21,1.94-14.52,3.49a282.64,282.64,0,0,1-31.62,4.83l2.5,2.5a293,293,0,0,0-1.24-63.54c-0.39-3-1.56-6,1.86-7.74,2.08-1.06,5.33-1.2,7.62-1.69q7.63-1.63,15.32-3,17-3,34.12-4.8c3.17-.33,3.2-5.33,0-5h0Z"/>
        <path class="cls-8" d="M278.44,121.12q6.16,115.77.94,231.74c-0.15,3.22,4.86,3.21,5,0q5.23-115.81-.94-231.74c-0.17-3.2-5.17-3.22-5,0h0Z"/>
        <path class="cls-8" d="M343.76,243.36q48.45-.32,96.75-4.33c3.18-.26,3.21-5.27,0-5q-48.28,4-96.75,4.33c-3.22,0-3.22,5,0,5h0Z"/>
        <path class="cls-8" d="M362,277.41L401.5,275l18.76-1.13c2.13-.13,20.52,0,20.9-2l1.75-1.75-0.61.1c-3.17.52-1.82,5.34,1.33,4.82l0.61-.1a2.42,2.42,0,0,0,1.75-1.75c0.84-4.32-3.57-5.63-7-5.49-8.56.37-17.12,1-25.68,1.54L362,272.41c-3.2.19-3.22,5.19,0,5h0Z"/>
        <path class="cls-8" d="M358.47,317a660.67,660.67,0,0,1,90.68-14.25c3.18-.27,3.21-5.28,0-5a670.44,670.44,0,0,0-92,14.43c-3.14.72-1.81,5.54,1.33,4.82h0Z"/>
        <path class="cls-8" d="M94.06,179.72a354.39,354.39,0,0,1-6.51,65.43c-0.61,3.14,4.21,4.49,4.82,1.33a361.73,361.73,0,0,0,6.69-66.76c0-3.22-5-3.22-5,0h0Z"/>
        <path class="cls-8" d="M105.31,177.68l2.16,34.23,1,16.62,0.49,7.82,0.31,4.89,0.12,2q-0.36,2,2.1,1.12l0.39,3,0.28-.63c1.3-2.91-3-5.46-4.32-2.52l-0.28.63a2.65,2.65,0,0,0,.39,3c2.37,2.84,5.64,1.15,6.41-2,0.7-2.88-.22-6.54-0.41-9.49l-0.74-11.73-3-46.94c-0.2-3.2-5.2-3.22-5,0h0Z"/>
        <path class="cls-8" d="M88.28,225.86a190.26,190.26,0,0,1,29.94-13.12c3-1,1.73-5.86-1.33-4.82a197.92,197.92,0,0,0-31.13,13.63c-2.83,1.54-.31,5.86,2.52,4.32h0Z"/>
        <path class="cls-8" d="M130.56,206.4q-0.09,12,.88,23.92a2.57,2.57,0,0,0,1.84,2.41c3.74,0.85,7.19-1,7.94-4.93,0.6-3.14-4.22-4.49-4.82-1.33l-1.79,1.44,1.84,2.41q-1-11.94-.88-23.92c0-3.22-5-3.22-5,0h0Z"/>
        <path class="cls-8" d="M125.64,185a4.34,4.34,0,0,0,5.83,1.37c1.78-.9,3.1-3.14,2.29-5.12a2.57,2.57,0,0,0-3.08-1.75c-1.16.38-2.28,1.78-1.75,3.08,0.25,0.62.06-.36,0,0a0.72,0.72,0,1,0,0-.29,0.86,0.86,0,1,0,.09-0.24c-0.24.43,0.37-.48,0-0.09s0.49-.35-0.06,0c-0.32.22,0.57-.13-0.06,0-0.46.1,0.61,0,.12,0a1.14,1.14,0,1,0,.27,0,0.7,0.7,0,1,0,.23.12,0.79,0.79,0,1,0,.19.16,1.48,1.48,0,1,0,.13.17,2.5,2.5,0,1,0-4.32,2.52h0Z"/>
        <path class="cls-8" d="M174.13,153.34l-6.78,60.76c-0.36,3.19,4.65,3.17,5,0l6.78-60.76c0.36-3.19-4.65-3.17-5,0h0Z"/>
        <path class="cls-8" d="M173,250.36l-0.09-3.46a2.5,2.5,0,0,0-5,0l0.09,3.46a2.5,2.5,0,0,0,5,0h0Z"/>
      </g>
    </g>
  </g>
</svg>
