<svg xmlns="http://www.w3.org/2000/svg" xmlns:xlink="http://www.w3.org/1999/xlink" viewBox="0 0 580 580"><defs><style>.cls-1{fill:none;}.cls-2{isolation:isolate;}.cls-3{clip-path:url(#clip-path);}.cls-4{fill:#ffec8d;}.cls-5{opacity:0.46;mix-blend-mode:multiply;fill:url(#linear-gradient);}.cls-6{opacity:0.97;}.cls-7{fill:#fff;}.cls-8{fill:#014e7f;}.cls-9{fill:#9acd72;}</style><clipPath id="clip-path"><rect class="cls-1" x="0.73" y="0.89" width="580" height="580"/></clipPath><linearGradient id="linear-gradient" x1="25.82" y1="292.69" x2="554.18" y2="292.69" gradientUnits="userSpaceOnUse"><stop offset="0" stop-color="#fff"/><stop offset="0.31" stop-color="#ffcd31"/><stop offset="1" stop-color="#9acd72"/></linearGradient></defs><title>iiLAB -U1-concepts-02-SEEKING REMOTE HELP v1</title><g class="cls-2"><g id="Layer_2" data-name="Layer 2"><g class="cls-3"><rect class="cls-4" x="-35.58" y="-25.17" width="645" height="645"/><circle class="cls-5" cx="290" cy="292.69" r="264.18"/><g class="cls-6"><path class="cls-7" d="M189.12,520.41c-4.87,7.19-76.73,20.25-89.11,13.72S51.88,357,55.52,348.23s23.76-13.1,47.44-13.82,30.09-5,41.13,0S166.42,378.3,173.67,413,194,513.22,189.12,520.41Z"/></g><path class="cls-8" d="M415.71,190.82C357.15,261.11,292.17,327.56,220,384a656.44,656.44,0,0,1-60.87,42.64c-2.74,1.68-.23,6,2.52,4.32,38.17-23.42,73.46-51.43,107-81a1386.54,1386.54,0,0,0,102-100.23q25-27.06,48.57-55.35c2-2.46-1.47-6-3.54-3.54h0Z"/><path class="cls-8" d="M431.78,204.73C373.22,275,308.23,341.47,236.08,397.88a656.44,656.44,0,0,1-60.87,42.64c-2.74,1.68-.23,6,2.52,4.32,38.17-23.42,73.46-51.43,107-81a1386.54,1386.54,0,0,0,102-100.23q25-27.06,48.57-55.35c2-2.46-1.47-6-3.54-3.54h0Z"/><path class="cls-8" d="M71.84,342.93c16.93-5.37,35.4-11.17,52.93-5,18.35,6.45,22.83,24.26,27.88,41.1a598.59,598.59,0,0,1,22,110c0.84,8.08,3.7,19.35-3.1,25.58-6.26,5.75-16.22,8.61-24.13,11.18a143.66,143.66,0,0,1-27.57,6.07c-8.61,1-18.73,2.29-26.45-2.54-13.17-8.23-15.63-28.13-18.85-41.9q-6.37-27.28-11-54.93-5.4-32.1-8.43-64.53c-0.84-8.93-3-20.19,5.65-26.07,6.55-4.45,15.49-4.5,23.1-4.41,2.9,0,2.9-4.47,0-4.5-13-.16-30.53,1.76-33.61,17.27-1.9,9.58.58,20.63,1.62,30.2q1.69,15.67,3.92,31.27,4.64,32.52,11.67,64.64c2.2,10.08,4.38,20.22,7.2,30.15,2,7.18,4.73,14.46,9.44,20.35,11.67,14.58,32.75,10.7,48.83,7.4A147.45,147.45,0,0,0,161,525.54c7-3,15.34-6.41,18.17-14.14,3.09-8.43.35-19.36-.62-28q-1.74-15.4-4.27-30.69a600.57,600.57,0,0,0-13.9-63c-3.08-11.1-6.06-22.52-10.5-33.17-3.54-8.47-9-15.56-17.2-20-19.65-10.67-42.17-4.26-62.07,2.05-2.75.87-1.58,5.22,1.2,4.34h0Z"/><path class="cls-8" d="M159.9,473.29L84.35,488.07c-2.84.56-1.64,4.89,1.2,4.34l75.56-14.77c2.84-.56,1.64-4.89-1.2-4.34h0Z"/><path class="cls-4" d="M107.78,485.93c-0.24,1.5,2,15.31,1.76,16.81"/><path class="cls-8" d="M105.53,485.93c-0.49,5.57,2.25,11.24,1.76,16.81-0.25,2.88,4.25,2.87,4.5,0,0.49-5.57-2.25-11.24-1.76-16.81,0.25-2.88-4.25-2.87-4.5,0h0Z"/><path class="cls-4" d="M135.63,479.91c0.19,6.66-.59,6.87,1.17,13.29"/><path class="cls-8" d="M133.38,479.91c0.11,4.83,0,9.17,1.25,13.89,0.75,2.79,5.09,1.61,4.34-1.2-1.16-4.32-1-8.26-1.09-12.69-0.06-2.89-4.56-2.9-4.5,0h0Z"/><path class="cls-8" d="M63.09,370.13Q72.55,422.08,82,474l5.35,29.22a2.3,2.3,0,0,0,2.77,1.57l75.34-12.53a2.29,2.29,0,0,0,1.57-2.77L144.31,380l-3.18-15.31a2.31,2.31,0,0,0-2.77-1.57L60.87,374.53c-2.85.42-1.64,4.76,1.2,4.34l77.48-11.43-2.77-1.57L159.55,475.4l3.18,15.31,1.57-2.77L89,500.48,91.74,502q-9.84-53.69-19.63-107.4l-4.68-25.72c-0.52-2.84-4.86-1.64-4.34,1.2h0Z"/><g class="cls-6"><path class="cls-7" d="M426.45,225.29c4.91,7.25,77.34,20.41,89.83,13.83S564.79,60.58,561.12,51.72s-23.95-13.2-47.82-13.93-30.33-5.07-41.46,0S449.33,82,442,117,421.54,218,426.45,225.29Z"/></g><path class="cls-8" d="M525.93,46.43c-17.9-5.68-37.58-11.57-56-4.76a38.33,38.33,0,0,0-18.67,14c-5.35,7.77-7.81,17.41-10.54,26.31A583.89,583.89,0,0,0,416.4,207.14c-0.64,8.14.59,15.28,7.57,20.31,7.36,5.29,17.08,8.44,25.65,11.11a149.47,149.47,0,0,0,28.84,5.89c8.79,0.92,18.4,1.59,26.36-3,14-8.06,17.2-26.89,20.6-41.18q7.61-32,12.85-64.41,2.82-17.47,5-35c1.43-11.76,3.25-23.77,3.53-35.63,0.2-8.44-2.6-16.07-10.32-20.23-7.17-3.87-15.82-4.18-23.77-4.09-2.89,0-2.9,4.54,0,4.5,6.7-.08,13.83.05,20.07,2.79,8.92,3.92,10,12.3,9.27,21.1-1.51,19-3.88,38-6.73,56.8s-6.3,37.48-10.33,56c-2,9-4,18.06-6.32,27-1.74,6.84-3.78,13.78-7.56,19.8-10.25,16.38-32,12-48,8.51a143.85,143.85,0,0,1-26.88-8.67c-8.74-3.82-15.76-7.88-15.44-18.5,0.57-18.66,3.9-37.66,7.16-56q4.82-27.11,12.11-53.71c2.71-9.89,5.57-19.78,8.92-29.48,3.3-9.53,8.11-17.85,17.21-22.81,18.45-10,40-3.39,58.61,2.51,2.77,0.88,4-3.47,1.2-4.34h0Z"/><path class="cls-8" d="M435.47,185.47L511,200.24c2.83,0.55,4-3.78,1.2-4.34l-75.56-14.77c-2.83-.55-4,3.78-1.2,4.34h0Z"/><path class="cls-4" d="M488.79,193.77c0.24,1.5-2,15.31-1.76,16.81"/><path class="cls-8" d="M486.54,193.77c0.49,5.57-2.25,11.24-1.76,16.81,0.25,2.86,4.76,2.89,4.5,0-0.49-5.57,2.25-11.24,1.76-16.81-0.25-2.86-4.76-2.89-4.5,0h0Z"/><path class="cls-4" d="M460.95,187.75c-0.19,6.66.59,6.87-1.17,13.29"/><path class="cls-8" d="M458.7,187.75c-0.1,4.43.06,8.37-1.09,12.69-0.75,2.8,3.59,4,4.34,1.2,1.26-4.72,1.15-9.06,1.25-13.89,0.06-2.9-4.44-2.9-4.5,0h0Z"/><path class="cls-8" d="M529.15,76.77q-9.46,51.95-19,103.89l-5.35,29.22,2.77-1.57-75.34-12.53,1.57,2.77L456.6,89l3.18-15.31L457,75.27,534.5,86.7c2.83,0.42,4.06-3.92,1.2-4.34L458.22,70.93a2.3,2.3,0,0,0-2.77,1.57L432.68,182l-3.18,15.31a2.28,2.28,0,0,0,1.57,2.77l75.34,12.53a2.29,2.29,0,0,0,2.77-1.57q9.84-53.69,19.63-107.4L533.49,78c0.52-2.83-3.82-4-4.34-1.2h0Z"/><path class="cls-9" d="M372.89,294.76c-1.54-2.24-4.5-2.9-7.18-3.35a523.7,523.7,0,0,0-91.78-7.48c2.29-4,2.83-9,3.46-13.64a157.19,157.19,0,0,1,18.13-54.74c2.33-4.21,4.95-8.42,8.85-11.24s9.38-3.93,13.56-1.56c5.29,3,6.56,10,7,16a188.38,188.38,0,0,1-4.45,54.8c-0.86,3.72-1.49,8.45,1.65,10.63,1.53,1.06,3.52,1.13,5.38,1.15l11.26,0.14c1.76,0,3.67,0,5.06-1.08s1.94-3.16,2.26-5a136.08,136.08,0,0,0-5.68-68c-3.24-9.22-8.13-18.76-17-23-13.17-6.27-28.73,2.05-39.13,12.28-21.94,21.58-33.58,53.15-31.13,83.79-7.11.33-.09,0.42-7.18,1h0L233,345c-2.43,11.17-4.88,22.43-5,33.87,0,2,.1,4.18,1.48,5.62a8.15,8.15,0,0,0,4,1.88l52.11,13.81c14,3.72,28.18,7.46,42.68,8.16,3.14,0.15,6.51.1,9.14-1.62,2.94-1.93,4.28-5.49,5.45-8.81l23.27-66.44c3.47-9.92,7-20,7.83-30.45C374.1,298.88,374.11,296.54,372.89,294.76Z"/><path class="cls-8" d="M250.11,291.88c-3.35-28.45,5.14-57.89,23.66-79.85,9-10.68,23.71-23.88,39-20.1s20.35,22.77,23.54,36a133.6,133.6,0,0,1,2.4,50.18c-0.4,2.78-.38,4.59-2.62,6.51s-3.19,1.52-5.92,1.49c-4-.05-12.31,1.21-13.8-3.45-1-3.13,1.08-8.1,1.7-11.17q1.15-5.75,1.94-11.55a191.46,191.46,0,0,0,1.79-25c0-6.93.25-14.41-1.55-21.18-2.9-10.86-13.95-15.13-23.21-8.19-6.36,4.76-10,12.77-13.35,19.75a161.59,161.59,0,0,0-9,23.34,172.79,172.79,0,0,0-5.42,25.73c-0.59,4.18-1.13,8.81-3.65,12.34s-8.69,5.63-11.47,1.42c-1.59-2.41-5.48-.16-3.89,2.27,2.86,4.34,7.93,5.39,12.72,3.7,6.09-2.15,8.76-8.27,9.94-14.19,1.77-8.89,2.69-17.8,5.1-26.58A154.6,154.6,0,0,1,288.35,226c3.64-7.4,9.28-20.46,19.47-19.3,9.91,1.13,9.22,15.29,9.4,22.57a187.82,187.82,0,0,1-1.45,28.47c-0.66,5.15-1.55,10.26-2.65,15.34-0.72,3.36-1.87,7-1.24,10.51,1.28,7,7.78,6.88,13.57,7,6.11,0.08,14.18,1.75,16.51-5.57,2.56-8,2.57-17.83,2.54-26.17a139.88,139.88,0,0,0-2.7-26.75c-2.8-14.09-7.3-32.17-19.89-40.86s-28.1-2.79-39,5.58c-28,21.62-41.42,60.65-37.36,95.12,0.33,2.84,4.84,2.88,4.5,0h0Z"/><path class="cls-8" d="M240.23,290.65a421.25,421.25,0,0,1,79.27.16c13.57,1.39,28,2.56,41.22,5.89,5.5,1.38,5.47,5.82,4.82,10.59a85,85,0,0,1-2.22,10.56c-2,7.27-4.6,14.35-7.08,21.45L342,379.91c-2.37,6.76-4.6,13.59-7.11,20.3-1.59,4.26-3,7.72-8,8.64-3.83.7-8.15,0-12-.48-14.35-1.67-28.34-5.81-42.27-9.5-14.76-3.91-29.8-7.27-44.39-11.77-5-1.53-3.84-6.84-3.54-11a131.76,131.76,0,0,1,2-14.49c1.4-7.6,3.15-15.13,4.8-22.68L242.4,289c0.61-2.82-3.72-4-4.34-1.2l-10.87,49.91c-1.85,8.48-3.84,16.94-5.3,25.49-1.16,6.8-3.05,15.05-1.62,21.88,1.31,6.25,8.42,6.77,13.59,8.14L259,399.88c16.46,4.36,32.95,9.47,49.8,12.13,6.47,1,14.19,2.71,20.64,1,5.66-1.5,8-6.53,9.86-11.6,5.87-16.24,11.42-32.61,17.13-48.9,5.22-14.9,11.82-30,13.76-45.82,0.69-5.58.49-11-5.29-13.45-6.76-2.9-15.75-3-23-4.11a438.86,438.86,0,0,0-101.63-3c-2.86.25-2.89,4.75,0,4.5h0Z"/><path class="cls-7" d="M319.55,309c-17-1.58-34.81-5.32-50.77.81-22.47,8.63-34.06,37.63-24.73,59.82s37,34.26,60,27.08,38.73-31.84,36.78-55.83c-0.61-7.46-2.9-15.1-8.15-20.42s-6.55-15-13.12-11.46"/><path class="cls-8" d="M319.55,306.7c-24.4-2.36-52-7.36-69.54,14.2-12.29,15.1-15.44,37.43-5.54,54.57,10.18,17.64,31.74,27.58,51.78,25.13C317.57,398,334.71,381.1,340.82,361c3.53-11.64,3.79-25.79-2.39-36.62-1.71-3-4.21-5.23-6.15-8-1.56-2.25-2.65-4.8-4.33-7-2.62-3.35-5.68-4.1-9.53-2.36-2.63,1.2-.35,5.08,2.27,3.89,3.79-1.72,6.42,5.88,8.06,8.22,3.05,4.34,6.39,7.6,8.09,12.83,3.13,9.61,2.23,20.4-1,29.84-6.19,17.94-22.2,32.86-41.55,34.52-17.89,1.54-36.83-7.38-45.91-23.11-8.87-15.36-6.07-35.5,4.84-49.12,16.49-20.59,43.4-15.1,66.36-12.88,2.88,0.28,2.86-4.22,0-4.5h0Z"/><path class="cls-8" d="M263.41,346.95A77.72,77.72,0,0,0,266,374.66a2.28,2.28,0,0,0,3.76,1l54.51-46.06c2.21-1.87-1-5-3.18-3.18l-54.51,46.06,3.76,1a74.1,74.1,0,0,1-2.46-26.52c0.25-2.89-4.26-2.87-4.5,0h0Z"/></g></g></g></svg>