<svg xmlns="http://www.w3.org/2000/svg" xmlns:xlink="http://www.w3.org/1999/xlink" viewBox="0 0 580 580"><defs><style>.cls-1{fill:none;}.cls-2{isolation:isolate;}.cls-3{clip-path:url(#clip-path);}.cls-4{font-size:18px;fill:#404041;font-family:Myriad Pro;font-weight:700;}.cls-5{fill:#ffec8d;}.cls-6{fill:#fdea8b;}.cls-7,.cls-8{mix-blend-mode:multiply;}.cls-7{fill:url(#linear-gradient);}.cls-8{opacity:0.82;}.cls-9{fill:#ffd459;}.cls-10{fill:#fff;}.cls-11{fill:#014e7f;}.cls-12{clip-path:url(#clip-path-2);}.cls-13{fill:#eb6f24;}</style><clipPath id="clip-path"><rect class="cls-1" x="0.58" width="580" height="580"/></clipPath><linearGradient id="linear-gradient" x1="167.74" y1="180.07" x2="744.62" y2="180.07" gradientUnits="userSpaceOnUse"><stop offset="0" stop-color="#fff"/><stop offset="0.6" stop-color="#9acd72"/></linearGradient><clipPath id="clip-path-2"><polygon class="cls-1" points="155.74 408.22 -29.24 286.88 320.5 156.91 505.48 278.25 155.74 408.22"/></clipPath></defs><title>iiLAB -U1-concepts-02-SEEKING REMOTE HELP v1</title><g class="cls-2"><g id="Layer_2" data-name="Layer 2"><g class="cls-3"><text class="cls-4" transform="translate(302.75 571.37)">x</text><rect class="cls-5" x="-20.51" y="-32.7" width="645" height="645"/><rect class="cls-6" x="0.58" width="580" height="580"/><circle class="cls-7" cx="456.18" cy="180.07" r="288.44"/><g class="cls-8"><path class="cls-9" d="M139.68,182.45c-0.64-8.37,9.12-89.26,9.12-89.26l372.38,99.45v186.5L133.07,212.39Z"/></g><path class="cls-10" d="M26.71,319.46s122.08-73,150.5-96.31S286.41,161,286.41,161l119.26,59.35L458,246.58s-170.29,99.54-198.33,122.3-68,50.79-68,50.79Z"/><path class="cls-11" d="M139.73,69.17c-1,.27-0.1,0,0.49.16-0.66-.15,1.46.23,2.07,0.33,3,0.5,6,1.06,8.92,1.63,10.33,2,20.63,4.05,30.93,6.15Q231.77,87.52,281.31,98q59.59,12.51,119.15,25.18,50.86,10.8,101.72,21.66L536,152.07l10.44,2.23c1.54,0.33,4,1.38,5.55,1.19a2.57,2.57,0,0,1,.69.15l-1.84-2.41-1.89,92.34-3,147.13-0.69,33.71,3.16-2.41-45.65-18L393.59,362.86,261.14,310.55,147.05,265.49l-37.63-14.86L97.69,246c-1.83-.72-4.21-2.21-6.17-2.44a3.75,3.75,0,0,1-.8-0.32l1.75,3.08L102.21,186l15.55-96.3,3.6-22.28-2.41,1.84,20.12,0c3.22,0,3.22-5,0-5l-20.12,0a2.52,2.52,0,0,0-2.41,1.84l-9.75,60.33-15.55,96.3L87.64,245a2.6,2.6,0,0,0,1.75,3.08l45.65,18L244.18,309.2l132.45,52.31,114.09,45.06,37.63,14.86c5.84,2.3,11.84,5.43,17.91,7.07a7.88,7.88,0,0,1,.8.32c1.57,0.62,3.13-.94,3.16-2.41l1.89-92.34,3-147.13,0.69-33.71a2.53,2.53,0,0,0-1.84-2.41L512.83,142Q463.44,131.47,414,121q-59.54-12.65-119.1-25.2Q243.15,84.88,191.31,74.21c-11.39-2.33-22.79-4.65-34.21-6.86-5.46-1.06-11.56-3-17.17-3.05a5.25,5.25,0,0,0-1.54.05C135.29,65.15,136.61,70,139.73,69.17Z"/><path class="cls-11" d="M128.05,188c-0.36-5.82.63-11.92,1.17-17.69,0.95-10,2-20.06,3.15-30.08q2.3-20.76,4.8-41.49L134,101.15,171,111l88.9,23.74L367.49,163.5l93,24.84,30.67,8.19,9.49,2.54c1.37,0.37,3.65,1.49,5.08,1.36a2.36,2.36,0,0,1,.64.17l-1.84-2.41v186.5l3.76-2.16-38.73-16.64-92.53-39.75L265.16,278,168,236.3l-32-13.75-10-4.28c-1.45-.62-3.56-2.06-5.15-2.21a2.85,2.85,0,0,1-.69-0.29l1.15,2.82L128,188.66c0.69-3.14-4.13-4.47-4.82-1.33l-6.61,29.93a2.54,2.54,0,0,0,1.15,2.82l38.73,16.64,92.53,39.75,111.9,48.08L458,366.31c15.65,6.72,31.17,14.21,47.1,20.24,0.23,0.09.46,0.2,0.69,0.29,1.68,0.72,3.76-.09,3.76-2.16V198.18a2.55,2.55,0,0,0-1.84-2.41l-37-9.89-88.9-23.74L274.24,133.42l-93-24.84-30.67-8.19c-4.79-1.28-9.69-3-14.58-3.89-0.22,0-.43-0.12-0.64-0.17a2.54,2.54,0,0,0-3.16,2.41q-2.5,20.73-4.8,41.49c-1.11,10-2.2,20-3.15,30.08-0.54,5.78-1.54,11.87-1.17,17.69C123.25,191.19,128.25,191.21,128.05,188Z"/><g class="cls-2"><g class="cls-12"><path class="cls-10" d="M99.23,322q4.58,2.44,8.91,5l0.73-.84L99.23,322M301.42,197.09l0.92,0.86,19.37,8c0.82,0.33,1.7.75,1.6,1.29a1.52,1.52,0,0,1-.56.72A94.76,94.76,0,0,1,307.11,219a122.43,122.43,0,0,0-21.22-9.67,2,2,0,0,1-1.2-.73,1.11,1.11,0,0,1,.65-0.88,171.4,171.4,0,0,1,16.07-10.62M298,192.36q-6.16,3.81-11.93,7.77-3.84,2.64-7.5,5.34c-1,.75-2,1.62-3.1,2.33l-0.4.37,2,0.72A239.51,239.51,0,0,1,310,224c3.72-2.3,7.26-4.67,10.61-7.1q3.12-2.26,6-4.6c1.06-.85,2.08-1.72,3.08-2.59,0.49-.43,2.64-1.91,2.67-2.39,0.07-1.27-6.09-3.08-7.83-3.81l-9.47-4L298,192.36m17.72,93.27c-3.8,1.41-9.7-1.21-6.6-3.59a411.54,411.54,0,0,1,44.34-29.48,6,6,0,0,1,.93-0.43c4.32-1.61,10.82,1.08,6.9,3.36A410,410,0,0,0,317,285a4.71,4.71,0,0,1-1.23.67M173.23,320.49a9.3,9.3,0,0,1-2.52.52,8.93,8.93,0,0,1-3.61-.46l-2-.91a3.48,3.48,0,0,1-1.56-1l-0.3-.61a1.8,1.8,0,0,1,1.07-1.78,4.19,4.19,0,0,1,.9-0.44,9.29,9.29,0,0,1,2.51-.52,9,9,0,0,1,3.61.46l2,0.91a3.47,3.47,0,0,1,1.56,1c0.11,0.21.2,0.41,0.3,0.61a1.79,1.79,0,0,1-1.07,1.78,4.08,4.08,0,0,1-.9.44m123.28-47.08c-4.42,1.64-11-1.07-7-3.3l28-15.38c4.65-2.56,9.21-5.17,14-7.69a13.63,13.63,0,0,1,1.6-.71c2.65-1,6.1-1.41,8.9-.25,2.25,0.93,2.27,2.23.8,3.42l-0.29.23a4.47,4.47,0,0,1-1.26.71,7.09,7.09,0,0,1-3.2.33l-0.58.23-0.15.06-2.66,1.46-5.32,2.93-10.65,5.86L297.36,273a6.31,6.31,0,0,1-.85.39M141.67,325.14l-0.56.19a9.72,9.72,0,0,1-6.06,0c-5.13-2.12-10-4.36-14.69-6.69-1.86-.92-0.89-2.69,1.06-3.42h0a9.22,9.22,0,0,1,7,.43c2.54,1.26,5.17,2.48,7.87,3.66l0.21-.08c2-.75,4.92-0.86,6.69.43,2.4,1.75,2.07,4.12-1.55,5.47m125.71-55.94c-4.59,1.71-11.53-1-7.17-3.2q27.55-13.67,53-28.29a6.11,6.11,0,0,1,.92-0.43c4.34-1.61,10.85,1.08,6.91,3.35q-25.43,14.61-53,28.29a6.73,6.73,0,0,1-.65.28m-162.55,41.9a1.79,1.79,0,0,1,.42-1,3.89,3.89,0,0,1,1.66-1,7.8,7.8,0,0,1,1.15-.33,10.37,10.37,0,0,1,3.77,0,5.68,5.68,0,0,1,3.37,1.69,1.83,1.83,0,0,1-.14,2.38,5.36,5.36,0,0,1-2.36,1.52,10.6,10.6,0,0,1-4.67.59,8.25,8.25,0,0,1-2.34-.46l-0.93-.46a1.61,1.61,0,0,1-.89-1.81,2.13,2.13,0,0,1,1-1.11M90,318c-1.71-1.2-.59-2.77,1.49-3.54a7.75,7.75,0,0,1,5.6.09l16.22,7a4.71,4.71,0,0,1,1.31-.72c3.71-1.38,10.13.3,7.61,2.74L121,324.74l5.94,2.55c3.7,1.59,11,3.6,12.1,6.12,0.53,1.21-.38,2.21-2,2.83a12.68,12.68,0,0,1-4.72.64,5.47,5.47,0,0,1-3.9-1.49l-0.19-.25a1.37,1.37,0,0,1-.32-1c-1.35-.49-3.22-1.19-3.53-1.32L120,330.9l-3.28-1.41q-0.75.91-1.46,1.83,5.41,3.46,10.37,7.1c1.75,1.29.61,2.69-1.41,3.44s-4.92.86-6.68-.43q-3.24-2.38-6.68-4.68l-0.21.08c-3.21,1.19-9.16-.5-7.59-3q0.47-.75,1-1.49-9.09-5.59-19.37-10.69c-2.21-1.1-1.3-2.39.72-3.13A11.12,11.12,0,0,1,90,318m62.65-7.19c-2,.75-5,0.9-7-0.31l-29.81-18.36c-2-1.22-.94-2.57,1.08-3.32s5-.9,7,0.32l29.81,18.36c2,1.22.94,2.57-1.08,3.32M294,316.85a9.64,9.64,0,0,1-7.25-.2Q226,284,158.64,254.58c-2.83-1.24-1.7-3.15.66-4a7.63,7.63,0,0,1,5.57.11q68.22,29.86,130,63c2.13,1.14,1.18,2.46-.84,3.21m19-87.16a9,9,0,0,1-7-.41,207.12,207.12,0,0,0-21.32-10.87q-5.64-2.47-11.6-4.75c-2.89-1.11-7.19-2.17-8.27-4s0.95-3.25,2.88-4.75c2.7-2.09,5.54-4.14,8.42-6.16,5.78-4.06,11.9-8,18.28-11.83a5.89,5.89,0,0,1,1-.47c3.16-1.18,7.52,0,8,1.63l23.08,9.67c3.39,1.43,6.81,2.84,10.19,4.28,2.87,1.22,6.19,2.54,6.27,4.6s-2.93,4-4.93,5.69-4.2,3.5-6.44,5.21A178.09,178.09,0,0,1,314,229.25a5.87,5.87,0,0,1-.95.45m-13.19-57.86C285.76,183,268.26,193,249.68,202.52c-18.2,9.31-37.09,18.29-54.9,27.78-18.58,9.9-36.31,20.16-53.46,30.64-17.37,10.62-34.15,21.48-50.62,32.43q-12.21,8.13-24.24,16.32l-12.59,8.58-6.28,4.3-2.28,1.56-0.7.48a3.24,3.24,0,0,1,1.13.71l1.19-.28c-0.92-1.13.16-2.43,2-3.11a7.63,7.63,0,0,1,5.57.11q71.33,31.25,136.38,65.69c12.75-10.9,28.17-21,44.72-30.6,16-9.29,32.85-18.2,49.21-27.32,17.74-9.88,34.84-20,51.81-30.22,32.59-19.6,64.71-39.41,99.6-58.06L299.83,171.84"/><path class="cls-11" d="M296.16,166a5.8,5.8,0,0,0-1.74,1c-29,24.6-75.59,43.08-114.07,64-40.29,21.89-76.66,45.41-112,69.22q-15,10.11-29.78,20.28c-3.23,2.21-9.27,5.5-4.42,8.08a12.49,12.49,0,0,0,9.21.36,4.08,4.08,0,0,0,2.63-2.16,1.29,1.29,0,0,0-.32-1.38,3.24,3.24,0,0,0-1.13-.71l0.7-.48,2.28-1.56,6.28-4.3,12.59-8.58q12-8.19,24.24-16.32c16.47-11,33.24-21.81,50.62-32.43,17.16-10.48,34.89-20.74,53.46-30.64,17.81-9.49,36.7-18.47,54.9-27.78,18.57-9.52,36.07-19.49,50.15-30.68l136.38,69.69c-34.89,18.65-67,38.47-99.6,58.06-17,10.2-34.07,20.34-51.81,30.22-16.36,9.13-33.24,18-49.21,27.32-16.55,9.63-32,19.7-44.72,30.6q-65-34.4-136.38-65.69a7.63,7.63,0,0,0-5.57-.11c-1.84.68-2.92,2-2,3.11a3.53,3.53,0,0,0,1.34.92q73.08,32,139.47,67.4a9,9,0,0,0,6.92.4,5.24,5.24,0,0,0,1.7-1c23.8-21.56,59-39.4,92-57.65,34.9-19.3,67.32-39.6,100.77-59.47,18.74-11.14,37.84-22.14,57.84-32.74,1.35-.72,1.51-2.26.13-3l-144-73.59a9,9,0,0,0-6.89-.39"/><path class="cls-11" d="M275.11,208.18l0.4-.37c1.13-.71,2.08-1.58,3.1-2.33q3.66-2.7,7.5-5.34,5.76-4,11.93-7.77l17.06,7.15,9.47,4c1.74,0.73,7.89,2.54,7.83,3.81,0,0.48-2.18,2-2.67,2.39-1,.87-2,1.73-3.08,2.59q-2.88,2.34-6,4.6c-3.34,2.44-6.89,4.8-10.61,7.1a239.51,239.51,0,0,0-33-15.07l-2-.72m20.27-21.75a5.89,5.89,0,0,0-1,.47c-6.38,3.84-12.51,7.78-18.28,11.83-2.89,2-5.72,4.07-8.42,6.16-1.93,1.49-3.92,2.94-2.88,4.75s5.38,2.93,8.27,4q6,2.28,11.6,4.75A207.12,207.12,0,0,1,306,229.29a9,9,0,0,0,7,.41,5.87,5.87,0,0,0,.95-0.45,178.09,178.09,0,0,0,17.56-11.74q3.35-2.57,6.44-5.21c2-1.7,5-3.66,4.93-5.69s-3.4-3.38-6.27-4.6c-3.38-1.44-6.79-2.86-10.19-4.28l-23.08-9.67c-0.46-1.62-4.81-2.8-8-1.63"/><path class="cls-13" d="M301.42,197.09a171.4,171.4,0,0,0-16.07,10.62,1.11,1.11,0,0,0-.65.88,2,2,0,0,0,1.2.73A122.43,122.43,0,0,1,307.11,219a94.76,94.76,0,0,0,15.63-11.06,1.52,1.52,0,0,0,.56-0.72c0.1-.54-0.79-1-1.6-1.29l-19.37-8-0.92-.86"/><path class="cls-11" d="M159.31,250.55c-2.37.88-3.49,2.79-.66,4Q225.89,284,286.77,316.65a9.64,9.64,0,0,0,7.25.2c2-.75,3-2.06.84-3.21q-61.68-33.08-130-63a7.63,7.63,0,0,0-5.57-.11"/><path class="cls-11" d="M314.11,237.28a6.11,6.11,0,0,0-.92.43q-25.41,14.62-53,28.29c-4.36,2.17,2.57,4.91,7.17,3.2a6.73,6.73,0,0,0,.65-0.28q27.55-13.67,53-28.29c3.94-2.27-2.57-5-6.91-3.35"/><path class="cls-11" d="M333.07,246.34a13.63,13.63,0,0,0-1.6.71c-4.77,2.51-9.32,5.13-14,7.69l-28,15.38c-4.07,2.24,2.56,4.95,7,3.3a6.31,6.31,0,0,0,.85-0.39l21.3-11.71,10.65-5.86,5.32-2.93,2.66-1.46,0.15-.06,0.58-.23a7.09,7.09,0,0,0,3.2-.33,4.47,4.47,0,0,0,1.26-.71l0.29-.23c1.47-1.19,1.45-2.5-.8-3.42-2.8-1.16-6.25-.74-8.9.25"/><path class="cls-11" d="M354.43,252.13a6,6,0,0,0-.93.43A411.54,411.54,0,0,0,309.17,282c-3.11,2.39,2.8,5,6.6,3.59A4.71,4.71,0,0,0,317,285a410,410,0,0,1,44.33-29.48c3.93-2.27-2.57-5-6.9-3.36"/><path class="cls-11" d="M115.25,331.33q-1.65,2.15-3,4.34a2.92,2.92,0,0,1-1.36,1.08q3.43,2.3,6.68,4.68c1.76,1.29,4.66,1.18,6.68.43s3.17-2.15,1.41-3.44q-5-3.64-10.37-7.1M85.38,318.54c-2,.75-2.93,2-0.72,3.13q10.28,5.1,19.37,10.69a63.08,63.08,0,0,1,4.11-5.39q-4.33-2.54-8.91-5l-8.33-3.57A4.77,4.77,0,0,1,90,318a11.12,11.12,0,0,0-4.66.58"/><path class="cls-11" d="M121,324.74q-2.31,2.35-4.3,4.75L120,330.9l4.37,1.87c0.31,0.13,2.18.83,3.53,1.32a1.37,1.37,0,0,0,.32,1l0.19,0.25a5.47,5.47,0,0,0,3.9,1.49,12.68,12.68,0,0,0,4.72-.64c1.65-.61,2.56-1.62,2-2.83-1.1-2.52-8.4-4.53-12.1-6.12L121,324.74M91.54,314.41c-2.09.78-3.2,2.35-1.49,3.54a4.77,4.77,0,0,0,.86.47L99.23,322l9.64,4.13q2-2.26,4.25-4.46l0.24-.21-16.22-7a7.75,7.75,0,0,0-5.6-.09"/><path class="cls-11" d="M114.67,320.74a4.71,4.71,0,0,0-1.31.72l-0.24.21q-2.27,2.2-4.25,4.46l-0.73.84a63.08,63.08,0,0,0-4.11,5.39q-0.5.74-1,1.49c-1.57,2.48,4.39,4.17,7.59,3l0.21-.08a2.92,2.92,0,0,0,1.36-1.08q1.39-2.2,3-4.34,0.71-.92,1.46-1.83,2-2.41,4.3-4.75l1.26-1.25c2.53-2.44-3.89-4.12-7.61-2.74"/><path class="cls-11" d="M121.42,315.25c-2,.72-2.92,2.5-1.06,3.42,4.7,2.34,9.56,4.57,14.69,6.69a9.72,9.72,0,0,0,6.06,0l0.56-.19c3.62-1.34,3.95-3.72,1.55-5.47-1.77-1.29-4.67-1.18-6.69-.43l-0.21.08c-2.7-1.18-5.33-2.4-7.87-3.66a9.22,9.22,0,0,0-7-.43h0"/><path class="cls-11" d="M106.92,309.08a3.89,3.89,0,0,0-1.66,1,1.79,1.79,0,0,0-.42,1,2.13,2.13,0,0,0-1,1.11,1.61,1.61,0,0,0,.89,1.81l0.93,0.46a8.25,8.25,0,0,0,2.34.46,10.6,10.6,0,0,0,4.67-.59,5.36,5.36,0,0,0,2.36-1.52,1.83,1.83,0,0,0,.14-2.38,5.68,5.68,0,0,0-3.37-1.69,10.37,10.37,0,0,0-3.77,0,7.8,7.8,0,0,0-1.15.33"/><path class="cls-11" d="M117,288.76c-2,.75-3.05,2.11-1.08,3.32l29.81,18.36c2,1.21,5,1.07,7,.31s3.06-2.11,1.08-3.32L124,289.08c-2-1.21-5-1.07-7-.32"/><path class="cls-11" d="M165.24,315.77a4.19,4.19,0,0,0-.9.44,1.8,1.8,0,0,0-1.07,1.78l0.3,0.61a3.48,3.48,0,0,0,1.56,1l2,0.91a8.93,8.93,0,0,0,3.61.46,9.3,9.3,0,0,0,2.52-.52,4.08,4.08,0,0,0,.9-0.44,1.79,1.79,0,0,0,1.07-1.78c-0.09-.2-0.19-0.41-0.3-0.61a3.47,3.47,0,0,0-1.56-1l-2-.91a9,9,0,0,0-3.61-.46,9.29,9.29,0,0,0-2.51.52"/></g></g><path class="cls-10" d="M384.75,360a562.57,562.57,0,0,1,126.2,4.55c2.53,0.38,5.32.92,6.77,2.77,1.16,1.47,1.14,3.41,1,5.19-0.81,8.65-4.11,17-7.38,25.16-7.31,18.29-15.23,90.42-22.54,108.72-1.1,2.74-3.38,10.64-6.15,12.24-2.48,1.43-3.1,18.19-6.06,18.06-13.66-.58-43.72,2.75-56.95-0.32-16.38-3.8-23.58,4.12-40,.32-1.35-.31-38.81,0-27.16-19,0.92-1.5,13.15-22.74,13.17-24.39,0.12-9.44,17.91-75.26,20.2-84.48l12.22-49.16"/><path class="cls-10" d="M399.66,347.07a562.57,562.57,0,0,1,126.2,4.55c2.53,0.38,5.32.92,6.77,2.77,1.16,1.47,1.14,3.41,1,5.19-0.81,8.65-4.11,17-7.38,25.16C518.9,403,511,475.16,503.67,493.46c-1.1,2.74-3.38,10.64-6.15,12.24-2.48,1.43-3.1,18.19-6.06,18.06-13.66-.58-43.72,2.75-56.95-0.32-16.38-3.8-23.58,4.12-40,.32-1.35-.31-19.86,1.06-23.16-19-0.29-1.73,9.15-22.74,9.17-24.39,0.12-9.44,17.91-75.26,20.2-84.48L413,346.77"/><path class="cls-11" d="M399.66,348.95a568.34,568.34,0,0,1,95.32.8q12.33,1.15,24.61,2.85c2.67,0.37,5.78.38,8.32,1.31,6.14,2.26,3.41,9.69,2.17,14.33-2.39,9-6.55,17.29-8.73,26.34-4.42,18.36-7,37.18-10.21,55.78-2.61,15.21-4.92,30.65-10.22,45.19-0.88,2.41-1.65,5.15-3.19,7.24-0.85,1.15-1.9,1.8-2.62,3-1.67,2.83-1.81,6.84-2.44,10-0.27,1.34-.38,4.16-1.29,5.23-1.1,1.3-3.08.76-4.92,0.77-5.53,0-11.06.33-16.59,0.56-10.57.44-21.56,1.35-32.07-.23-5.26-.79-10.13-1.93-15.51-1.52-5.22.39-10.3,1.79-15.52,2.19-4.49.34-8.65-.55-13.07-1a37.73,37.73,0,0,1-6.87-1c-7.26-2.11-15.6-10.46-12.79-18.53,2.36-6.75,6.06-13.19,8-20.08,1.1-3.94,1.32-8.28,2.17-12.31,3.88-18.37,8.75-36.54,13.49-54.7,5.89-22.58,11.47-45.24,17.1-67.89,0.58-2.34-3-3.34-3.62-1-9.84,39.59-20.92,79-29.78,118.85-1.12,5-1.61,10.35-2.72,15.27-1.56,6.94-5.69,13.76-8.12,20.51-2.5,7,1.75,15,7.29,19.45,4.86,3.86,10.25,4.51,16.15,5.23,4.59,0.56,10.15,1.37,15.43.71,5.7-.71,11.29-2.18,17.08-2,5.46,0.15,10.79,1.77,16.25,2.12,5.73,0.37,11.49.27,17.22,0.11,6-.17,12-0.48,18-0.7,2.63-.1,5.27-0.19,7.9-0.22,1.8,0,4.33.5,6.05,0,5.92-1.74,3.88-13.39,6.34-17.74,0.74-1.31,2.13-2.27,3-3.63a37.78,37.78,0,0,0,2.9-6.57c1.17-3.18,2.35-6.34,3.25-9.6,2.3-8.32,3.84-16.86,5.37-25.35,3.68-20.36,6.56-40.9,10.86-61.15,1.8-8.47,4.51-16.11,7.47-24.23,2.2-6,5.36-14.08,4.35-20.67-0.86-5.56-6.34-6.4-11-7.09a560.31,560.31,0,0,0-99.49-5.7q-12.65.4-25.28,1.36c-2.39.18-2.41,3.93,0,3.75h0Z"/><path class="cls-11" d="M516,370.12q-28.64-1.45-57.33-1.47-6.92,0-13.84.09c-3.15,0-7.79-.73-10.62,1.17-1.83,1.23-2.43,3.25-3,5.26-1.19,4.22-2.06,8.56-3.08,12.82-0.94,3.91-4.88,12.41-.89,15.71,2.34,1.94,6.49,1.23,9.23,1.29l14.94,0.3,57.76,1.17L508.22,403l-3,1.66c-2.11,1.17-.22,4.41,1.89,3.24l3-1.66a1.89,1.89,0,0,0-.95-3.49l-45.81-.93-23.9-.48c-3.87-.08-9.72,1.4-9.69-4.07,0-3.36,1.85-7.71,2.64-11,0.73-3,1-7.36,2.42-10.07,2.4-4.47,7.46-3.65,12-3.69q11.37-.12,22.74,0,23.24,0.22,46.45,1.42c2.41,0.12,2.41-3.63,0-3.75h0Z"/><path class="cls-11" d="M501.27,417.86q-27.27-.26-54.52.67-6.33.22-12.65,0.51c-3.38.15-7.55-.29-10.8,0.68-5.5,1.65-4.7,11.6-4.94,16.07a70.86,70.86,0,0,0,.13,13c0.26,1.94.47,4,2.18,5.25s4.3,1,6.45.92c4.63-.19,9.26-0.44,13.89-0.66l27.78-1.31,13.89-.66,6-.28c0.91,0,6.83.3,7.25-.43-1.2,2.1,2,4,3.24,1.89,1.86-3.24-1.63-5.22-4.53-5.49-3.84-.36-8.06.38-11.9,0.56l-12.9.61L445,450.32l-12.9.61c-1.92.09-5.13,0.89-6.94,0.33-2.27-.7-2.66-1.9-3-4.37a58,58,0,0,1,0-11.1c0.22-4.19-.48-11.32,4.21-12.62,3.69-1,8.78-.43,12.65-0.59s7.78-.31,11.68-0.43q25.31-.81,50.63-0.54c2.41,0,2.42-3.73,0-3.75h0Z"/><path class="cls-11" d="M486.46,475a263.55,263.55,0,0,0-56.66-.92c-4.74.44-15.08-.44-17.23,5-1.14,2.88-.78,6.78-1,9.87l-1.07,14c-0.38,5-.4,9.69,5.46,10.75,3.43,0.62,7.09-.31,10.48-0.76l13.48-1.78,27-3.56c4-.53,12.91.07,13.14-5.78,0.09-2.41-3.66-2.41-3.75,0-0.07,1.84-18,3.17-20,3.43L436,508l-9.63,1.27c-2.54.34-5.55,1.22-8.13,0.95-5.19-.54-4.26-4.53-4-8.12l0.79-10.27c0.23-3,0-6.46.71-9.34,1.12-4.43,5.22-3.64,9.13-4.08q10.22-1.15,20.5-1.49a264.75,264.75,0,0,1,41,1.91c2.39,0.29,2.37-3.46,0-3.75h0Z"/><path class="cls-11" d="M457,369c-1.63,8.25-3.6,16.51-4.91,24.81-0.51,3.25,0,7.33,4.16,6.73,2.38-.34,1.37-4-1-3.62,0.72-.1,2.49-12.43,2.82-14.07L460.57,370c0.47-2.36-3.15-3.37-3.62-1h0Z"/><path class="cls-11" d="M486.93,373.75L480.71,402c-0.52,2.35,3.1,3.36,3.62,1l6.21-28.23c0.52-2.35-3.1-3.36-3.62-1h0Z"/><path class="cls-11" d="M450.9,425.13A38.16,38.16,0,0,0,448.19,450c0.52,2.35,4.14,1.36,3.62-1A33.91,33.91,0,0,1,454.14,427c1-2.18-2.22-4.08-3.24-1.89h0Z"/><path class="cls-11" d="M477.31,424.15l-6,23.37c-0.6,2.34,3,3.34,3.62,1l6-23.37c0.6-2.34-3-3.34-3.62-1h0Z"/><path class="cls-11" d="M440.95,479.27c-1.4,5.11-2.63,10.26-3.62,15.46-0.58,3-2.28,7.29-.29,10a1.92,1.92,0,0,0,2.12.86,2.56,2.56,0,0,0,2-2.19,1.91,1.91,0,0,0-.86-2.12l-0.41-.18c-2.18-1-4.09,2.25-1.89,3.24l0.41,0.18-0.86-2.12,0.6-.43,2.12,0.86c-1.57-2.16,1.08-9.29,1.6-11.71,0.79-3.66,1.71-7.28,2.69-10.88a1.88,1.88,0,0,0-3.62-1h0Z"/><path class="cls-11" d="M471.41,475.81a137,137,0,0,0-5.28,29.91c-0.16,2.41,3.59,2.4,3.75,0A132.23,132.23,0,0,1,475,476.81c0.68-2.32-2.94-3.31-3.62-1h0Z"/><path class="cls-11" d="M435.53,381.67v13.51a1.88,1.88,0,0,0,3.75,0V381.67a1.88,1.88,0,0,0-3.75,0h0Z"/><path class="cls-11" d="M463.92,385.78c0.58-.55,1.94-1.78,2.82-1.56,0.6,0.15-.5,3-0.71,3.77l-2.58,9.27a1.9,1.9,0,0,0,1.81,2.37,18.94,18.94,0,0,0,8.67-1.7c2.21-1,.3-4.2-1.89-3.24a14.8,14.8,0,0,1-6.77,1.18l1.81,2.37,2.58-9.27c0.59-2.11,1.91-4.92.53-7-2.18-3.24-6.78-.92-8.91,1.11-1.75,1.67.9,4.32,2.65,2.65h0Z"/><path class="cls-11" d="M491.45,384.74l12.22,0.14-1.81-2.37a2.68,2.68,0,0,1-2.29,2.2c-1.79.27-1.79,3.34,0,3.62,2.72,0.42,2.34,3.61,1,5.23s-3.44,2.5-5.29,3.38c-2.18,1-.28,4.26,1.89,3.24,3.47-1.64,7.48-3.86,8.15-8,0.53-3.27-1.29-6.89-4.74-7.43v3.62a5.77,5.77,0,0,0,4.91-4.82,1.9,1.9,0,0,0-1.81-2.37L491.45,381c-2.41,0-2.42,3.72,0,3.75h0Z"/><path class="cls-11" d="M428.81,431.45l10.95,0.18-1.87-1.87a75.61,75.61,0,0,1,0,15.77c-0.25,2.4,3.5,2.38,3.75,0a75.61,75.61,0,0,0,0-15.77,1.92,1.92,0,0,0-1.87-1.87l-10.95-.18c-2.41,0-2.41,3.71,0,3.75h0Z"/><path class="cls-11" d="M426.36,439.93a78.38,78.38,0,0,0,20.21-.8c2.37-.4,1.37-4-1-3.62a74.6,74.6,0,0,1-19.21.67c-2.4-.22-2.39,3.53,0,3.75h0Z"/><path class="cls-11" d="M470,425a24.3,24.3,0,0,0-10.69,4.94,1.88,1.88,0,0,0-.29,2.27,11.88,11.88,0,0,0,2.82,3.13c1.24,1,3.61,2.08,4.15,3.68,0.35,1-.77,3.13-0.2.83a11.22,11.22,0,0,1,1.4-2.52l3.35-5.84c1.2-2.1-2-4-3.24-1.89-1.3,2.27-2.62,4.53-3.91,6.81a10.64,10.64,0,0,0-1.77,4.36,3.82,3.82,0,0,0,4.94,4,4.92,4.92,0,0,0,3.22-6.43c-1.26-3.84-5.55-4.83-7.54-8L462,432.56a20.52,20.52,0,0,1,9-4c2.37-.44,1.37-4.06-1-3.62h0Z"/><path class="cls-11" d="M498,424.36a19.83,19.83,0,0,0-19,5.28,1.91,1.91,0,0,0,0,2.65c4,4.3,11.22,2.5,13.2-2.85l-3.43.45a11.41,11.41,0,0,1,.6,12c-1.14,2.13,2.1,4,3.24,1.89A15.18,15.18,0,0,0,492,428a1.9,1.9,0,0,0-3.43.45c-1.05,2.85-5,3.28-6.93,1.2v2.65A16,16,0,0,1,497,428c2.34,0.58,3.34-3,1-3.62h0Z"/><path class="cls-11" d="M419.64,489.74c1.08-.67,6.78-3.76,7.25-1.81,0,0.13-1.72,2.86-1.79,3.43a10.34,10.34,0,0,0,.84,4.63c0.15,0.42,1.82,5.56-.11,5.05-2.33-.62-3.33,3-1,3.62,2.6,0.69,4.59-.9,5.37-3.37a7.75,7.75,0,0,0,.07-4.36c-0.8-3.1-1.94-3.82-.09-7,1.35-2.3,1.87-4.67-1.17-6-3.55-1.49-8.27.63-11.26,2.5-2,1.27-.16,4.52,1.89,3.24h0Z"/><path class="cls-11" d="M455.25,483.12c-1.92,2.43-4,5.16-3.94,8.42a6.21,6.21,0,0,0,3.41,5.42c5.42,2.84,8.89-3.57,6.31-8.06-1.2-2.09-4.44-.21-3.24,1.89,0.42,0.73.93,2.58-.14,3.09-0.66.31-1.73-.5-2.11-1-1.69-2.15,1.08-5.5,2.37-7.13,1.48-1.87-1.16-4.54-2.65-2.65h0Z"/><path class="cls-11" d="M456.16,486.43a70.06,70.06,0,0,1,0,19.26c-0.32,2.38,3.43,2.36,3.75,0a73.37,73.37,0,0,0-.15-20.26c-0.34-2.38-4-1.37-3.62,1h0Z"/><path class="cls-11" d="M478.1,483a15.52,15.52,0,0,0-6.62,6.92,1.9,1.9,0,0,0,1.12,2.75,33.72,33.72,0,0,1,8.32,3.3c1.64,0.93,3.48,2.59,1.77,4.44-1,1-2.69,1.44-4,1.79-2.33.62-1.34,4.24,1,3.62,3.67-1,9.27-3.77,7.85-8.49-1.47-4.87-9.64-7.14-13.94-8.26l1.12,2.75a12.11,12.11,0,0,1,5.28-5.57c2.11-1.17.22-4.41-1.89-3.24h0Z"/><path class="cls-11" d="M475.48,488h9.83a1.88,1.88,0,0,0,0-3.75h-9.83a1.88,1.88,0,0,0,0,3.75h0Z"/><path class="cls-5" d="M418.48,345a94.32,94.32,0,0,1,27-77.77c9.16-9,22.87-16.34,34.46-10.81,7.77,3.7,12.07,12.11,14.93,20.23a119.84,119.84,0,0,1,5,59.9c-0.28,1.63-.69,3.4-2,4.42s-2.91,1-4.45,1l-9.92-.12a8.35,8.35,0,0,1-4.74-1c-2.76-1.92-2.21-6.08-1.45-9.36a165.9,165.9,0,0,0,3.92-48.26c-0.35-5.35-1.46-11.48-6.13-14.12-3.69-2.08-8.51-1.1-11.94,1.37s-5.74,6.19-7.79,9.9a138.43,138.43,0,0,0-16,48.21c-0.67,4.94-1.21,10.25-4.46,14s-10.34,4.57-12.7.18"/><path class="cls-11" d="M420.35,345c-3-25.75,4.93-52.34,22.13-71.86,8-9.12,21-19.94,34.16-16s17.34,20.77,20,32.37a116.65,116.65,0,0,1,1.7,44.72c-0.52,3.26-.27,4.66-4.94,5.81-1.68.41-4.22-.05-6-0.07-2.78,0-3.83,0-6.37-1.34-3-1.62-2.79-2.19-2.25-5.45,1.12-6.75,2.73-13.36,3.52-20.17a165.35,165.35,0,0,0,1.09-20.52c-0.05-6,.15-12.82-2.11-18.53-3.59-9-13.82-10-20.74-3.9-5,4.45-8,11.18-10.86,17.13a139.35,139.35,0,0,0-12.18,41.07c-0.5,3.61-.81,7.63-2.59,10.9-1.93,3.56-8,7.25-11.11,2.62-1.35-2-4.6-.11-3.24,1.89,2.5,3.69,6.81,4.71,11,3.26,4.92-1.71,7.38-6.4,8.51-11.2,1.8-7.63,2.35-15.49,4.35-23.12A136,136,0,0,1,453,289.07c3.24-6.88,7.46-17.54,15.86-19.15,10.78-2.07,10.64,13,10.81,19.75a165.49,165.49,0,0,1-1.26,25.17c-0.61,4.78-1.46,9.52-2.48,14.23-0.56,2.61-1.34,5.32-1,8,0.83,6.78,7.11,6.54,12.56,6.61,5.25,0.07,11.76,1.3,13.78-4.83,2.26-6.86,2.22-15.36,2.23-22.49a123,123,0,0,0-2.42-24.28c-2.44-12.17-6.35-27.87-17.14-35.5-11.08-7.84-25-2.66-34.67,4.85-24.58,19-36.19,53.33-32.67,83.54,0.28,2.37,4,2.4,3.75,0h0Z"/><path class="cls-5" d="M494.89,276.62a119.84,119.84,0,0,1,5,59.9c-0.28,1.63-.69,3.4-2,4.42"/><path class="cls-11" d="M493.08,277.12a118.14,118.14,0,0,1,6.48,45.69c-0.13,2.45-.34,4.9-0.63,7.34-0.33,2.74-.33,7.27-2.36,9.47-1.64,1.77,1,4.43,2.65,2.65,2.78-3,2.87-7.31,3.36-11.2a120.3,120.3,0,0,0,.83-19.29,124.2,124.2,0,0,0-6.71-35.65c-0.78-2.27-4.4-1.29-3.62,1h0Z"/><path class="cls-5" d="M529.56,211.81c-20.93-4-44.45-3.69-61.25,9.41-14.07,11-20.76,28.77-25.65,45.92-2.34,8.22-4.39,17.23-1.07,25.11,4.91,11.65,19.1,15.81,31.6,17.67,11.34,1.69,23.07,2.64,34.12-.4s21.39-10.74,24.85-21.66a134,134,0,0,1-45.23.49c-5.8-.93-11.67-2.3-16.67-5.38s-9.08-8.15-9.69-14c-0.71-6.81,3.22-13.16,7.22-18.72,6-8.32,13-16.56,22.54-20.29,8.77-3.42,18.56-2.58,27.89-1.36,5.78,0.76,12.69,1.23,16.35-3.31,4.57-5.66.31-13.93-3.95-19.83a12.82,12.82,0,0,0-6.49,7.77"/><path class="cls-11" d="M530.23,209.4c-16.87-3.14-35.09-4-51.24,2.79s-26.4,20.79-32.85,36.72c-5.82,14.36-14.54,35.75-3.68,49.66,9.92,12.71,30.32,14.74,45.18,15.35,18.95,0.79,40.15-5.85,46.94-25.4,0.68-2-1.35-3.38-3.08-3.08A134.91,134.91,0,0,1,502,287.4c-9-.41-19.06-1.14-27.38-4.93-9.78-4.46-14.28-13.67-9.3-23.62a71.14,71.14,0,0,1,14.74-19.22,34.57,34.57,0,0,1,24-9.58c7.69-.12,15.48,2.26,23.12,1.38,5.37-.61,10.27-3.58,11.55-9.13,1.5-6.45-2.42-13-6-18.09a2.56,2.56,0,0,0-3.42-.9,16.62,16.62,0,0,0-7.64,9.27c-1.09,3,3.74,4.34,4.82,1.33a11.27,11.27,0,0,1,5.34-6.28l-3.42-.9c2.49,3.56,5.34,7.73,5.56,12.23,0.29,6.06-5.3,7.71-10.28,7.63-8.64-.14-16.91-2.27-25.61-1.11C482,227.63,470.21,240.65,462.28,254c-3.69,6.22-5.76,13.46-2.79,20.4S469,285.89,476,288.34c17.62,6.16,38.8,5.11,56.87,1.94l-3.08-3.08c-5.53,15.94-23,21.79-38.49,21.81-13.45,0-32.18-1.49-42.66-11.11-12.27-11.26-3.68-31.76,1.22-44.78,5.35-14.2,13.66-27.55,27.52-34.7,15.71-8.1,34.65-7.34,51.54-4.2,3.15,0.58,4.49-4.23,1.33-4.82h0Z"/><path class="cls-5" d="M481.52,256.4c7.77,3.7,12.07,12.11,14.93,20.23a119.84,119.84,0,0,1,5,59.9c-0.28,1.63-.69,3.4-2,4.42s-2.91,1-4.45,1l-9.92-.12a8.35,8.35,0,0,1-4.74-1c-2.76-1.92-2.21-6.08-1.45-9.36a165.9,165.9,0,0,0,3.92-48.26c-0.35-5.35-1.46-11.48-6.13-14.12-3.69-2.08-8.51-1.1-11.94,1.37"/><path class="cls-11" d="M480.41,258.3c7,3.64,10.75,10.42,13.43,17.55a113.07,113.07,0,0,1,6.26,25.82,119.34,119.34,0,0,1,.37,25.73c-0.24,2.54,0,6.27-1.14,8.54-1.38,2.84-3.45,3.39-6.31,3.73a28.52,28.52,0,0,1-7.94-.1c-5.35-1.21-4.94-3-4.2-7,3.09-16.68,5.5-33.11,4.08-50.15-0.43-5.18-1.47-11.06-5.85-14.44-4.69-3.63-10.8-2.54-15.48.47-2.37,1.53-.17,5.34,2.22,3.8,18.13-11.67,15.32,24.51,14.71,33.25A169.7,169.7,0,0,1,477,329.9c-0.89,4.06-2,9.44,1.81,12.42,1.81,1.42,4.09,1.57,6.3,1.66a77.34,77.34,0,0,0,11.78.06c6-.7,6.61-5.79,7.32-10.85a122.65,122.65,0,0,0-1.81-43.88c-2.85-12.69-7.32-28.32-19.75-34.81-2.51-1.31-4.74,2.49-2.22,3.8h0Z"/></g></g></g></svg>