<svg xmlns="http://www.w3.org/2000/svg" xmlns:xlink="http://www.w3.org/1999/xlink" viewBox="0 0 580 580"><defs><style>.cls-1{fill:none;}.cls-2{isolation:isolate;}.cls-3{clip-path:url(#clip-path);}.cls-4{fill:#ffec8d;}.cls-5{fill:#fff9d8;opacity:0.53;}.cls-6{fill:#fff;}.cls-7{fill:#014e7f;}.cls-8{mix-blend-mode:multiply;}.cls-9{fill:#ffd459;}.cls-10{fill:#2c285d;}</style><clipPath id="clip-path"><rect class="cls-1" width="580" height="580"/></clipPath></defs><title>iiLAB -U1-concepts-02-SEEKING REMOTE HELP v1</title><g class="cls-2"><g id="Layer_2" data-name="Layer 2"><g class="cls-3"><rect class="cls-4" x="-36.31" y="-36.8" width="645" height="645"/><circle class="cls-5" cx="491.65" cy="106.79" r="337.91"/><circle class="cls-6" cx="294" cy="241.59" r="28.21"/><circle class="cls-6" cx="257.39" cy="266.35" r="18.76" transform="translate(-94.52 150.79) rotate(-27.8)"/><circle class="cls-6" cx="218.15" cy="301.65" r="15.08"/><path class="cls-6" d="M323.74-58.54A198.8,198.8,0,0,0,252.16-40c-6.86,3.23-13.91,7.24-17.43,14-4.21,8-2.28,18,1.43,26.23,10.69,23.88,36.16,40.36,62.32,40.33a109.81,109.81,0,0,0-66,31.54c-3.09,3.11-6.16,6.82-6.2,11.21-0.06,6.34,6,10.8,11.6,13.82a183.4,183.4,0,0,0,63.44,20.62A37.82,37.82,0,0,0,286.16,180c17.24,17.72,46,14.56,70.33,10.09-14.66,11.53-12.42,36.33.81,49.47s33.43,16.58,52,15.39c-5.57,6.72-11.26,13.65-14.05,21.92s-2.11,18.31,4,24.57c3.93,4,9.5,6,14.95,7.43,39.68,10.46,84.41-.91,114.29-29A114.5,114.5,0,0,0,598.35,281c7.4-2.26,14.79-5.42,20.13-11s8.2-14.09,5.41-21.31c21.69,0.13,44.73-1.41,62.49-13.86s26.92-39.45,13.54-56.52c19-.88,38.28-5.39,53.91-16.23s27.07-28.7,27-47.72-13.34-38.12-32-41.85c12.27-5.44,25.06-11.29,33.26-21.92,13.66-17.71,10.16-44.21-2.36-62.73S747.58-43,728.28-54.3c-5.94-3.47-11.94-6.93-17.2-11.37-4.5-3.79-8.4-8.24-12.89-12-11.46-9.71-26.12-14.68-40.54-18.89-19.37-5.66-39.44-10.38-59.56-8.79s-40.53,10.33-52,26.93C496-123.13,413.5-125.55,360.91-83.9c-8.43-4.68-14.57-12.59-22.47-18.13s-19.48-8.22-26.74-1.88c-5.86,5.11-6.48,14.35-3.57,21.56s8.62,12.86,14.18,18.3"/><circle class="cls-6" cx="131.86" cy="444.94" r="111.89"/><path class="cls-7" d="M264.92,267c-0.42-7.88-6.31-14.53-14.53-14.53a14.52,14.52,0,0,0-.66,29c8.48,0.37,14.75-6.35,15.19-14.5,0.17-3.22-4.83-3.21-5,0-0.66,12.21-19.06,12.32-19.06,0s18.41-12.21,19.06,0C260.09,270.21,265.09,270.23,264.92,267Z"/><path class="cls-7" d="M310.43,245.59c-0.41-11.1-9-20.43-20.43-20.43A20.43,20.43,0,1,0,290,266c11.42,0,20-9.33,20.43-20.43,0.12-3.22-4.88-3.21-5,0C305.12,254,298.65,261,290,261a15.43,15.43,0,1,1,0-30.86c8.65,0,15.12,7,15.43,15.43C305.55,248.8,310.55,248.82,310.43,245.59Z"/><path class="cls-7" d="M223.94,303.8c-0.32-5.85-4.69-10.8-10.8-10.8a10.79,10.79,0,0,0-.45,21.57c6.28,0.26,10.92-4.73,11.25-10.77,0.17-3.22-4.83-3.21-5,0-0.4,7.43-11.59,7.49-11.59,0s11.19-7.43,11.59,0C219.12,307,224.12,307,223.94,303.8Z"/><path class="cls-7" d="M80.25,370.36c5.39-12.41,18.87-16.82,31.28-18.83,15.23-2.47,33.11-3.57,46.92,4.42,29.85,17.27,29.73,56.66,28.9,86.68a2.94,2.94,0,0,0,2.92,2.92c6.86-.51,18.18-1.39,20.45,7.32,1.8,6.91-6.66,8.08-11.38,9.36-4.09,1.11-8.47,2.67-10.68,6.58-2.9,5.13-.74,12-0.94,17.55-1.06,29.68-25.43,55.68-56.11,53.48-26.5-1.91-43.83-25.93-50-49.79A90.24,90.24,0,0,1,78.75,471c-0.24-6-.78-11.62-6-15.44s-11.62-3.76-16.87-6.93c-2.75-1.66-7.06-5.92-3.74-9.1,2.15-2.05,6.31-2,9.07-2.47,13.2-2.09,18.95-13.85,18.06-26.49-0.59-8.39-3.68-16.46-3.67-24.9,0-8.16,6.23-19.88,16.06-16.27,3.54,1.3,5.06-4.35,1.55-5.64-6.42-2.35-12.91.25-17.37,5.16-5.12,5.63-6.57,12.84-5.92,20.25,1.13,12.86,10.89,38.45-9,42.05-5.51,1-12.17,1.17-14.94,7s1.06,11.43,5.72,14.68c5.89,4.12,17.76,3.63,20.47,11.24,1.32,3.7.67,8.44,1.06,12.36a100.89,100.89,0,0,0,1.56,10.38c5.45,26.61,23.53,54,52.22,58.32C159,550,187.58,526,192.67,495a65.81,65.81,0,0,0,.87-13.31c-0.17-4.22-1.85-9.57,2.58-12.11,5.35-3.07,12.22-2.31,17-6.67,5.06-4.6,4.46-12,.35-17-5.66-6.92-15.09-6.76-23.22-6.16l2.92,2.92c0.77-27.82.82-58.3-18.46-80.59-17.69-20.45-46.9-20.83-71.46-14.81-11.6,2.84-23.09,8.72-28.07,20.17-1.48,3.42,3.55,6.4,5,3h0Z"/><path class="cls-7" d="M169,424.45a38.5,38.5,0,0,0-29.57-12.59c-3.76.09-3.77,5.94,0,5.85a32.81,32.81,0,0,1,25.43,10.87c2.54,2.78,6.67-1.36,4.13-4.13h0Z"/><path class="cls-7" d="M127.92,412.21a128.29,128.29,0,0,0-30.7,10c-3.4,1.6-.44,6.64,3,5a122.33,122.33,0,0,1,29.3-9.44c3.69-.7,2.13-6.34-1.55-5.64h0Z"/><path class="cls-7" d="M154.41,446.95l-0.35,4.93,3.7-2.82a9.71,9.71,0,0,1-3.84-2.89v4.13a4.17,4.17,0,0,1,.44-0.42q-0.27.25,0.16,0c-0.41.14,0.47-.14,0.58-0.16h0a4.69,4.69,0,0,1,.6,0c-0.47-.06.56,0.22,0.68,0.27,1.46,0.61,3.21-.65,3.6-2a3,3,0,0,0-2-3.6,7.58,7.58,0,0,0-8.12,1.85,3,3,0,0,0,0,4.13,15.46,15.46,0,0,0,6.42,4.4c1.9,0.73,3.58-1.1,3.7-2.82l0.35-4.93a2.92,2.92,0,0,0-5.85,0h0Z"/><path class="cls-7" d="M121.17,450.35a11.49,11.49,0,0,1,1.47,7.47l2.92-2.92c-2.73-.24-3.55-4.51-1.76-6.16,2.76-2.57-1.38-6.69-4.13-4.13-5.79,5.38-1.62,15.49,5.9,16.14,1.7,0.15,2.75-1.47,2.92-2.92a16.67,16.67,0,0,0-2.27-10.42c-1.9-3.25-7-.31-5,3h0Z"/><path class="cls-7" d="M141.15,423.39a170.16,170.16,0,0,1,3.42,48.86l2.15-2.82-12.41,2.16c-3.7.64-2.13,6.28,1.55,5.64l12.41-2.16a3,3,0,0,0,2.15-2.82,175.74,175.74,0,0,0-3.63-50.41c-0.8-3.67-6.44-2.12-5.64,1.55h0Z"/><path class="cls-7" d="M164.63,502.17c-12.08.11-23.75,3.39-35.83,3.51-3.76,0-3.77,5.88,0,5.85,12.08-.11,23.75-3.39,35.83-3.51,3.76,0,3.77-5.88,0-5.85h0Z"/><path class="cls-7" d="M227.17,359L214,364.11c-3.47,1.35-2,7,1.55,5.64l13.17-5.12c3.47-1.35,2-7-1.55-5.64h0Z"/><path class="cls-7" d="M207,325.38L200.87,334a3,3,0,0,0,1,4,3,3,0,0,0,4-1l6.16-8.59a3,3,0,0,0-1-4,3,3,0,0,0-4,1h0Z"/><path class="cls-7" d="M155.5,298.86a29.42,29.42,0,0,1-2.83,13.43c-1.61,3.38,3.42,6.35,5,3a36,36,0,0,0,3.63-16.38c-0.07-3.76-5.92-3.77-5.85,0h0Z"/><path class="cls-7" d="M97.66,298.86a31,31,0,0,0,3.7,16.36c1.77,3.32,6.82.37,5-3a25.11,25.11,0,0,1-2.91-13.41c0.2-3.76-5.65-3.75-5.85,0h0Z"/><path class="cls-7" d="M426.82,146.67c3.22,0,3.22-5,0-5s-3.22,5,0,5h0Z"/><path class="cls-7" d="M310-47.23a200.06,200.06,0,0,0-46,8.59C251.52-34.7,236.5-30,226.51-21.07c-20.93,18.68,2.14,50.36,19.18,62.43a70.19,70.19,0,0,0,39.71,12.9v-5A111.51,111.51,0,0,0,244.34,62,109.9,109.9,0,0,0,226.5,74.18c-5.1,4.26-11.7,9.51-13.48,16.23-3.67,13.93,16.5,21.25,26,25.38a183.8,183.8,0,0,0,48.54,13.57v-4.82c-25.42,9-35.4,40.56-18.35,62,17.32,21.82,49.3,17.66,73.39,13.28l-2.43-4.18c-14,11.62-13,33.53-2.91,47.37,12.61,17.22,36.21,21.21,56.17,20.08l-1.77-4.27c-8.12,9.82-16.88,20.89-15.88,34.42C376.7,306,386,312.52,397.49,315.58c25.42,6.75,53.1,4.4,77.34-5.61a121.69,121.69,0,0,0,36.44-23.32l-2.43.64a115.13,115.13,0,0,0,65,2.36c15.89-4.12,37.68-15.7,31-35.79L602.42,257c23.28,0.09,50.67-1.52,68.24-18.93,13.67-13.54,20.33-36.89,8-53.4l-2.16,3.76c30.9-1.61,64-13.72,77-44.17,10.56-24.76-.46-57.54-28.65-63.8l0.6,4.57c11.07-4.92,22.65-10.16,30.91-19.35a45.36,45.36,0,0,0,11.21-28.52C768.66,12.9,754.23-7.88,736-22.49c-9.57-7.68-20.07-14.07-30.63-20.27-6.1-3.58-12.22-7.13-17.55-11.81-5.1-4.48-9.56-9.57-15.07-13.6-10.44-7.63-22.88-11.93-35.16-15.58-13.53-4-27.3-7.54-41.38-8.88-26.61-2.55-55.52,4.49-71.76,27.23l3.93-.51c-39.15-34.53-97.09-43.9-145.91-26.33a136.61,136.61,0,0,0-38,21l3-.39C338.31-77,331.91-86,322.56-91.13c-6.91-3.76-16.1-5.71-23.29-1.55-6.93,4-9.45,12.29-8.32,19.88,1.49,10.08,8.95,17.65,15.91,24.47,2.3,2.25,5.84-1.28,3.54-3.54-5.64-5.53-12-11.53-14.07-19.44-2.13-8.19,1.25-17.68,10.61-18.64,15.8-1.62,25.9,15.55,38,22.67a2.6,2.6,0,0,0,3-.39c39.24-30.71,95.09-36.21,140.7-17.26a130.19,130.19,0,0,1,36.16,22.55,2.55,2.55,0,0,0,3.93-.51C542.52-82.1,567-89,589.62-88.08c13.44,0.55,26.63,3.52,39.54,7.11,11.88,3.3,24,6.8,34.76,13,10.36,6,17.53,15.54,27.27,22.3s20.13,11.93,29.86,18.42c18.67,12.45,36.11,28.85,40.56,51.78,2.29,11.78.81,24.62-6.31,34.54-7.75,10.8-20.61,16.41-32.38,21.65-2,.88-1.39,4.13.6,4.57,12.12,2.69,21.54,11.68,26.21,23,5,12.26,3.55,26-2.5,37.59-13.57,26.1-43,36.08-70.74,37.52-1.69.09-3.38,2.13-2.16,3.76,11.61,15.51,4.39,37.32-9.15,49.16-16.8,14.7-41.59,15.73-62.76,15.64a2.52,2.52,0,0,0-2.41,3.16c6.68,20.14-20.15,28.5-34.62,31.23a110.3,110.3,0,0,1-55.23-4,2.51,2.51,0,0,0-2.43.64,118.75,118.75,0,0,1-79.19,31.29,112.73,112.73,0,0,1-21.47-1.8c-6.88-1.27-15.16-2.7-20.62-7.4-14.38-12.37,0-32.25,8.73-42.79,1.26-1.53.58-4.4-1.77-4.27-17.68,1-38.46-1.81-50.66-16.12-10.15-11.91-11.87-32.18.94-42.8,2.11-1.75-.24-4.58-2.43-4.18-20.62,3.75-47.54,7.94-64.54-7.7-19.11-17.58-12-49.39,12.15-58,2-.73,2.68-4.45,0-4.82a182.55,182.55,0,0,1-40.38-10.23,169.77,169.77,0,0,1-19.23-8.74c-5.85-3.12-14.19-7.87-10.66-15.7,2.52-5.59,9-10.27,13.7-14A105,105,0,0,1,285.4,54.26c3.12-.35,3.3-5,0-5a65.52,65.52,0,0,1-40.19-14.49c-11-8.8-21.66-23-21.73-37.64-0.08-17.62,22.4-24.22,35.89-29A194.21,194.21,0,0,1,310-42.23c3.19-.23,3.22-5.23,0-5h0Z"/><g class="cls-8"><path class="cls-9" d="M326,55.71c-1.86-7.16.49-15.46,6.36-20s15.09-4.35,20.3.9c-5.77-5.21,7.54-16.1,9.38-23.65-9.21-3.43-19.58-10.22-18.59-20,1.09-10.75,14.61-14.77,25.41-15.11,19.29-.6,41.78,4.42,50,21.87-2.39-4.17-.4-9.76,3.26-12.87s8.56-4.27,13.28-5.13c12.79-2.32,26.23-3,38.58,1,12.11,4,23,13.25,26.43,25.5-1.83-7.32,7-13.36,14.57-15.22,18.45-4.52,47-3.31,58.28,14.37,4.09,6.39,5.24,14.63,9.54,21.39,5.82,9.15,15,14.73,2,23.7a59.94,59.94,0,0,1-24.22,9.72c4.2,6.35,14.64,6.82,17.65,13.81,2.7,6.25-2.57,13.06-8.16,16.94a53.47,53.47,0,0,1-28,9.41c5.41,3.12,12.92,3.1,16.53,8.2,3.75,5.31.43,13.22-5.12,16.62s-12.42,3.51-18.92,3.54l-16.09.05a112.23,112.23,0,0,0,.11-27.09c-1.39-12.44-5.49-32.45-10.23-44-10.91,9.24-27.34,10.23-42.06,10.47-7.69.12-17.92-1.9-18.48-9.58a46.74,46.74,0,0,1-33.34,20.79,45.71,45.71,0,0,1-15.77-.94l0.7-1.92c-10.53,28.61-12.79,42.13-5.89,68.48l-8.41,1.11c-29.09-7.59-42.34-35.7-34.71-54.45a12.57,12.57,0,0,1-18.61-15.9A7.24,7.24,0,0,1,338,81a6.62,6.62,0,0,1,1.88-9.49C333.29,68.49,327.85,62.72,326,55.71Z"/></g><path class="cls-7" d="M479.8,67.87a37,37,0,0,1,24,12.26c2.16,2.39,5.69-1.15,3.54-3.54a42.15,42.15,0,0,0-27.5-13.73c-3.2-.32-3.18,4.68,0,5h0Z"/><path class="cls-7" d="M491.54,90.22a8.89,8.89,0,0,0-11,6c-1.19,4.38,2.11,8.44,6.36,9.22s8.71-2.12,8.42-6.8c-0.27-4.44-4.34-8.22-8.84-7.12-3.12.76-1.8,5.58,1.33,4.82,2.61-.64,3.91,5.39-0.36,4.1-4.45-1.35-.83-6.58,2.78-5.37,3.06,1,4.37-3.8,1.33-4.82h0Z"/><path class="cls-7" d="M436.21,93.07c-3.82-1.3-8.41-2.55-12.15-.31-2.9,1.73-4.83,5.48-3.66,8.79s4.9,4.62,8.15,3.84c3.89-.95,6.07-4.45,7.79-7.77,1.48-2.85-2.84-5.39-4.32-2.52-0.87,1.68-1.79,3.8-3.42,4.88-1,.63-3.08,1.24-3.53-0.26s1.64-2.9,2.86-3.13c2.32-.43,4.79.56,6.95,1.29,3.05,1,4.36-3.79,1.33-4.82h0Z"/><path class="cls-7" d="M419.46,85.67c8.3-16.16,32.23-14.89,37.63,3,2.78,9.19-2.16,18.19-6.68,25.89-5.07,8.63-10.26,17.18-15.4,25.76a2.53,2.53,0,0,0,1.49,3.67,81.45,81.45,0,0,0,39,1.46c3.15-.64,1.82-5.46-1.33-4.82a75.89,75.89,0,0,1-36.38-1.46l1.49,3.67c6.7-11.21,14.5-22.31,19.93-34.2,4.18-9.17,5.28-19.31-.5-28.06C448.06,64.35,424,66,415.14,83.14c-1.47,2.86,2.85,5.39,4.32,2.52h0Z"/><path class="cls-7" d="M401.05,97.95c-3.73-9.08-16.91-13.64-21-2.13a24.51,24.51,0,0,0-.81,10.79c0.36,3.33.45,7.69,3.22,10,2.53,2.07,5.93,3.31,8.94,4.48,2.26,0.87,5.43,2.34,7.9,1.58,3.07-.94,1.76-5.77-1.33-4.82-0.85.26-3.39-.9-4.42-1.27a40.36,40.36,0,0,1-6.81-3.12c-3.58-2.13-3.28-11.08-2.28-14.91,1.88-7.23,9.43-4.91,11.77.79,1.21,2.94,6,1.65,4.82-1.33h0Z"/><path class="cls-7" d="M400.33,125.43a49.28,49.28,0,0,0-30,7.42c-7.64,4.87-15.44,12.66-15,22.43,0.39,8.48,7,15.59,14.41,18.9C380.65,179,393.08,176,404,172.92c3.09-.87,1.78-5.7-1.33-4.82-9.06,2.56-19.38,5.45-28.7,2.39-7-2.29-14-8.64-13.68-16.56,0.37-8.38,8.52-14.7,15.26-18.37a44.67,44.67,0,0,1,24.75-5.13c3.21,0.23,3.2-4.77,0-5h0Z"/><path class="cls-7" d="M433,176.56a104.14,104.14,0,0,0,51,3.39c3.16-.57,1.82-5.39-1.33-4.82a98.8,98.8,0,0,1-48.32-3.39c-3.07-1-4.38,3.83-1.33,4.82h0Z"/><path class="cls-7" d="M346,63.39c-8.61-4.1-15.57-12.83-13.19-22.85s14.29-15.8,22.57-8.32c2.38,2.15,5.77-1.2,3.54-3.54-3.61-3.78-1.21-13.49-.45-17.93,1-5.83,2.42-11.56,3.83-17.3l-3.67,1.49L358.69-5l-1.15-2.82c0.18-1.14-.32,0-1.12.8s-1.9,1.75-2.82,2.65a27.89,27.89,0,0,0-5.32,6.5c-2.88,5.45.5,9.32,6,10.45,3.14,0.65,4.48-4.17,1.33-4.82-2.44-.5-3.83-0.63-3-3.1,0.62-1.85,2.64-3.58,4-4.93,1.51-1.53,5.42-3.89,5.79-6.22a2.68,2.68,0,0,0-1.15-2.82l-0.07-.05c-1.28-1-3.32.07-3.67,1.49A203.14,203.14,0,0,0,353,14c-0.74,5.64-1.93,13.7,2.43,18.26l3.54-3.54C349.13,19.83,334,24,329.07,36c-5.29,12.88,2.61,26.11,14.42,31.74,2.89,1.38,5.43-2.93,2.52-4.32h0Z"/><path class="cls-7" d="M390.31,139.48c-21.18-5.82-41.93-28.13-33-51.38,0.79-2-1.93-3.94-3.67-2.82-8.6,5.53-19.55-2.56-15.19-12.48L336.32,74a5.29,5.29,0,0,1,4.36,2.57c1.77,2.22,5.46-.67,3.93-3-1.43-2.2-1.13-4.71,1.18-6.19,2.7-1.73.2-6.06-2.52-4.32a9.25,9.25,0,0,0-3,13l3.93-3a10.41,10.41,0,0,0-7.9-4,2.41,2.41,0,0,0-2.16,1.24c-6.17,14,8.74,27.87,22,19.32l-3.67-2.82c-9.94,25.79,12.86,51,36.46,57.53,3.11,0.85,4.43-4,1.33-4.82h0Z"/><path class="cls-7" d="M520.44,127.13c8.89,0,18,.52,26.85-0.37,6.59-.66,13.28-2.81,17.13-8.56,3.05-4.56,4-10.62.67-15.3-4-5.64-11.57-5.89-17.23-8.85l-1.26,4.66c13.22-.77,31.14-6.1,37.68-18.88,2.5-4.88,2.22-10.56-1.68-14.61-4.35-4.53-11.54-5.35-15.33-10.43l-1.49,3.67a64,64,0,0,0,21.11-7.63c4.61-2.69,10.67-6.45,11.48-12.27,0.64-4.58-2.42-8.46-5-11.88-4.64-6.11-7.1-12.39-9.91-19.49C574.51-15.4,548.72-20,526.95-17.06c-10.23,1.39-27.79,6.77-24.2,20.52l4.82-1.33c-5.51-19.79-25.33-29.8-44.64-30.85-10.43-.57-23.25.21-32.92,4.48-7.46,3.29-12.48,11.13-8.78,19.06l4.32-2.52C415.32-28.14,387-33.57,366.26-30.09c-9.12,1.53-20,6.41-20.82,16.9-1,11.75,11,18.77,20.43,22.41,3,1.16,4.3-3.67,1.33-4.82-7.74-3-20.92-10.52-15.77-20.82,3.91-7.81,15.58-9.27,23.27-9.41,17.25-.31,38.08,3.78,46.53,20.66,1.45,2.9,5.66.36,4.32-2.52-4.63-9.93,10.23-13.53,16.8-14.64,8.84-1.49,18-2.15,26.94-.74,14.89,2.36,29.24,11.38,33.46,26.53,0.86,3.1,5.64,1.79,4.82-1.33-2-7.58,7.89-11.76,13.71-13.11a75.89,75.89,0,0,1,16.44-1.88C549-13,561.62-10.93,570.47-3.38c5.46,4.66,7.74,10.86,10.19,17.41a62.93,62.93,0,0,0,9.13,16.15c1.3,1.74,3.06,3.74,3.52,5.93,0.88,4.21-3.71,7.06-6.69,9a59,59,0,0,1-22.16,8.5A2.51,2.51,0,0,0,563,57.31c2.55,3.42,5.87,5.35,9.61,7.28,5,2.6,10.34,5.82,7.53,12.36-4.93,11.46-22.32,16.11-33.49,16.76-2.33.14-3.59,3.44-1.26,4.66,4,2.1,8.71,2.68,12.62,4.89,6.32,3.58,4.72,11.12-.42,15-4.93,3.73-11.73,3.74-17.64,3.78-6.49.05-13,0-19.47,0.07-3.22,0-3.22,5,0,5h0Z"/><path class="cls-7" d="M380.75,58.3a49.24,49.24,0,0,0,74.52-8.79l-4.57-.6c2.19,15.67,28.87,11.67,39.24,10.24,8.42-1.16,16.92-3.49,23.79-8.7,4.25-3.22,11.62-10.75,5-15.39a2.47,2.47,0,0,0-2.52,0c-6.9,4-7.54,13.19-3.64,19.64,5.14,8.51,16.39,9.75,25.34,10.46,3.21,0.25,3.19-4.75,0-5-6.44-.5-14.21-1.05-19.18-5.74-4-3.81-5.5-11.84,0-15h-2.52c3.14,2.19-11.9,10.92-13.53,11.55a64.56,64.56,0,0,1-17.81,3.79c-7.42.66-27.8,3.78-29.33-7.15C455.2,45.27,452,45.41,451,47a44.14,44.14,0,0,1-66.66,7.77c-2.36-2.18-5.9,1.34-3.54,3.54h0Z"/><path class="cls-7" d="M406.15,69.72c-14.17,27.88-16.26,61.47-4.49,90.59a110.7,110.7,0,0,0,57.27,59.22,2.53,2.53,0,0,0,2.52,0c22.85-16.88,47.33-35.19,59.13-61.94,13.18-29.88,6.86-65.06-7-93.52l-2.16,3.76c9.8-.65,18.33,10.38,14.19,19.68-1.3,2.91,3,5.46,4.32,2.52,5.56-12.48-4.54-28.13-18.51-27.2a2.54,2.54,0,0,0-2.16,3.76c13.49,27.67,19.65,62.56,5.72,91.27-11.89,24.52-34.66,41.54-56,57.34h2.52c-24.61-10.95-44.8-31.19-55-56.23-11.31-27.86-9.6-60,4-86.74,1.45-2.86-2.86-5.4-4.32-2.52h0Z"/><path class="cls-10" d="M75.81,328.83A103.82,103.82,0,0,1,46.3,302.39c-1.92-2.54-6.26,0-4.32,2.52a110.15,110.15,0,0,0,31.3,28.24c2.77,1.66,5.28-2.66,2.52-4.32h0Z"/><path class="cls-10" d="M52.84,353a37.39,37.39,0,0,1-18.14-2.54c-3-1.2-4.28,3.64-1.33,4.82A40.49,40.49,0,0,0,52.84,358c3.17-.33,3.2-5.33,0-5h0Z"/></g></g></g></svg>