<svg xmlns="http://www.w3.org/2000/svg" xmlns:xlink="http://www.w3.org/1999/xlink" viewBox="0 0 580 580"><defs><style>.cls-1{fill:none;}.cls-2{isolation:isolate;}.cls-3{clip-path:url(#clip-path);}.cls-4{fill:#ffec8d;}.cls-5{opacity:0.82;fill:url(#linear-gradient);}.cls-5,.cls-6{mix-blend-mode:multiply;}.cls-6{fill:url(#linear-gradient-2);}.cls-7{fill:#fff;}.cls-8{fill:#014e7f;}.cls-9{fill:#ffd459;}.cls-10{opacity:0.85;}.cls-11{fill:#262261;}</style><clipPath id="clip-path"><rect class="cls-1" x="-0.16" width="580" height="580"/></clipPath><linearGradient id="linear-gradient" x1="258.1" y1="430.28" x2="733.98" y2="430.28" gradientUnits="userSpaceOnUse"><stop offset="0" stop-color="#fff"/><stop offset="0.84" stop-color="#ffcd31"/><stop offset="1" stop-color="#ffd459"/></linearGradient><linearGradient id="linear-gradient-2" x1="246.92" y1="317.64" x2="456.13" y2="317.64" gradientUnits="userSpaceOnUse"><stop offset="0" stop-color="#fff"/><stop offset="0.92" stop-color="#da1f47"/></linearGradient></defs><title>iiLAB -U1-concepts-02-SEEKING REMOTE HELP v1</title><g class="cls-2"><g id="Layer_2" data-name="Layer 2"><g class="cls-3"><rect class="cls-4" x="-38.31" y="-23.7" width="645" height="645"/><circle class="cls-5" cx="496.04" cy="430.28" r="237.94"/><circle class="cls-6" cx="351.52" cy="317.64" r="104.6"/><circle class="cls-7" cx="125.66" cy="421.06" r="111.89"/><path class="cls-8" d="M177.89,321.94c50.59-39.66,97.91-84.56,154.61-115.65a327.41,327.41,0,0,1,51-22.68c3-1,1.73-5.87-1.33-4.82-62.07,21.32-113.35,62.3-163.35,103.52-14.74,12.15-29.47,24.32-44.51,36.1-2.53,2,1,5.5,3.54,3.54h0Z"/><path class="cls-8" d="M163.09,310.65c53.29-41.75,104.6-87.21,164.46-119.59a349.34,349.34,0,0,1,52.67-23.35c3-1,1.73-5.87-1.33-4.82-64.95,22.31-120.19,65-173.21,107.43C190.32,282.6,175,295,159.56,307.12c-2.53,2,1,5.5,3.54,3.54h0Z"/><path class="cls-8" d="M65.1,342.7c5.43-12.5,19-17,31.53-19,15.34-2.49,33.33-3.58,47.24,4.46,30,17.35,29.94,56.85,29.11,87a2.52,2.52,0,0,0,2.5,2.5c7.09-.53,18.52-1.31,20.86,7.63,1.89,7.24-6.69,8.53-11.68,9.88-4,1.08-8.28,2.57-10.43,6.39-2.84,5-.69,11.84-0.88,17.33-1.07,29.89-25.62,56.12-56.53,53.9-26.7-1.92-44.19-26-50.44-50.1a90.8,90.8,0,0,1-2.84-19.17c-0.24-5.88-.73-11.37-5.81-15.1s-11.59-3.74-16.83-6.9c-3-1.81-7.38-6.35-3.82-9.76,2.22-2.13,6.4-2.13,9.26-2.58,13-2.06,18.62-13.61,17.75-26.08-0.59-8.39-3.68-16.46-3.67-24.9S66.9,337.84,77,341.54c3,1.11,4.33-3.72,1.33-4.82-6.28-2.3-12.59.24-17,5-5,5.55-6.44,12.65-5.8,19.95,1.15,13.1,10.9,38.8-9.27,42.46-5.35,1-12,1.09-14.67,6.74-2.63,5.49,1.07,11,5.54,14.15,6,4.24,17.88,3.62,20.67,11.49,1.33,3.75.68,8.51,1.07,12.47a99.79,99.79,0,0,0,1.54,10.26c5.42,26.46,23.37,53.72,51.92,58,31.74,4.78,60.06-19.12,65.1-49.91a65.31,65.31,0,0,0,.85-13.19c-0.18-4.41-1.83-9.83,2.79-12.47,5.31-3,12.17-2.3,16.93-6.61,4.92-4.45,4.28-11.51.35-16.4-5.52-6.86-15-6.63-22.92-6l2.5,2.5c0.76-27.69.86-58.1-18.33-80.29C142.06,314.57,113,314.22,88.6,320.2c-11.5,2.82-22.88,8.62-27.81,20-1.27,2.92,3,5.47,4.32,2.52h0Z"/><path class="cls-8" d="M153.75,399.48a38.79,38.79,0,0,0-28.1-16.94c-3.73-.44-3.7,5.41,0,5.85a32.45,32.45,0,0,1,23,14c2.11,3.09,7.17.17,5-3h0Z"/><path class="cls-8" d="M110.87,381.64a127.75,127.75,0,0,0-27.44,17c-2.93,2.36,1.23,6.48,4.13,4.13a122.14,122.14,0,0,1,26.25-16.1c3.42-1.55.45-6.59-3-5h0Z"/><path class="cls-8" d="M139.64,419.5l-0.35,4.93,3.7-2.82a9.71,9.71,0,0,1-3.84-2.89v4.13a4.17,4.17,0,0,1,.44-0.42q-0.27.25,0.16,0c-0.41.14,0.47-.14,0.58-0.16h0a4.69,4.69,0,0,1,.6,0c-0.47-.06.56,0.22,0.68,0.27,1.46,0.61,3.21-.65,3.6-2a3,3,0,0,0-2-3.6,7.58,7.58,0,0,0-8.12,1.85,3,3,0,0,0,0,4.13,15.46,15.46,0,0,0,6.42,4.4c1.9,0.73,3.58-1.1,3.7-2.82l0.35-4.93a2.92,2.92,0,0,0-5.85,0h0Z"/><path class="cls-8" d="M106.39,422.9a11.49,11.49,0,0,1,1.47,7.47l2.92-2.92c-2.73-.24-3.55-4.51-1.76-6.16,2.76-2.57-1.38-6.69-4.13-4.13-5.79,5.38-1.62,15.49,5.9,16.14,1.7,0.15,2.75-1.47,2.92-2.92A16.67,16.67,0,0,0,111.44,420c-1.9-3.25-7-.31-5,3h0Z"/><path class="cls-8" d="M126.37,395.94a170.16,170.16,0,0,1,3.42,48.86l2.15-2.82-12.41,2.16c-3.7.64-2.13,6.28,1.55,5.64l12.41-2.16a3,3,0,0,0,2.15-2.82A175.74,175.74,0,0,0,132,394.38c-0.8-3.67-6.44-2.12-5.64,1.55h0Z"/><path class="cls-8" d="M149.85,474.73c-12.08.11-23.75,3.39-35.83,3.51-3.76,0-3.77,5.88,0,5.85,12.08-.11,23.75-3.39,35.83-3.51,3.76,0,3.77-5.88,0-5.85h0Z"/><path class="cls-8" d="M494.8,176.9C482.72,177,471,180.3,459,180.41c-3.76,0-3.77,5.88,0,5.85,12.08-.11,23.75-3.39,35.83-3.51,3.76,0,3.77-5.88,0-5.85h0Z"/><path class="cls-8" d="M212.39,331.55l-13.17,5.12c-3.47,1.35-2,7,1.55,5.64l13.17-5.12c3.47-1.35,2-7-1.55-5.64h0Z"/><path class="cls-8" d="M192.25,297.93l-6.16,8.59a3,3,0,0,0,1,4,3,3,0,0,0,4-1l6.16-8.59a3,3,0,0,0-1-4,3,3,0,0,0-4,1h0Z"/><path class="cls-8" d="M140.72,271.41a29.42,29.42,0,0,1-2.83,13.43c-1.61,3.38,3.42,6.35,5,3a36,36,0,0,0,3.63-16.38c-0.07-3.76-5.92-3.77-5.85,0h0Z"/><path class="cls-8" d="M82.88,271.41a31,31,0,0,0,3.7,16.36c1.77,3.32,6.82.37,5-3a25.11,25.11,0,0,1-2.91-13.41c0.2-3.76-5.65-3.75-5.85,0h0Z"/><path class="cls-8" d="M63.39,291.6a269.44,269.44,0,0,1-26.06-11c-2.88-1.4-5.42,2.91-2.52,4.32a281.94,281.94,0,0,0,27.25,11.51c3,1.1,4.34-3.73,1.33-4.82h0Z"/><path class="cls-8" d="M30.64,315.49a100.32,100.32,0,0,1-17.08-12.86c-2.35-2.2-5.89,1.33-3.54,3.54A106.51,106.51,0,0,0,28.12,319.8c2.77,1.66,5.28-2.66,2.52-4.32h0Z"/><path class="cls-8" d="M496,86.52a33.06,33.06,0,0,1,21.42,11c1.94,2.13,5.09-1,3.16-3.16A37.75,37.75,0,0,0,496,82.06c-2.86-.29-2.84,4.18,0,4.47h0Z"/><path class="cls-8" d="M506.53,106.5a7.94,7.94,0,0,0-9.86,5.33c-1.06,3.92,1.89,7.54,5.68,8.25s7.78-1.89,7.53-6.07c-0.24-4-3.88-7.34-7.9-6.36-2.79.68-1.61,5,1.19,4.31,2.33-.57,3.49,4.82-0.32,3.66-4-1.2-.75-5.89,2.49-4.8,2.73,0.92,3.91-3.4,1.19-4.31h0Z"/><path class="cls-8" d="M457.08,109.05c-3.42-1.16-7.51-2.27-10.86-.27-2.59,1.55-4.32,4.9-3.27,7.86s4.38,4.13,7.28,3.43c3.48-.84,5.43-4,7-6.95,1.32-2.55-2.53-4.81-3.86-2.26-0.78,1.5-1.6,3.39-3.06,4.37-0.85.57-2.75,1.11-3.15-.23s1.47-2.59,2.56-2.79c2.07-.38,4.28.5,6.21,1.16,2.73,0.93,3.9-3.39,1.19-4.31h0Z"/><path class="cls-8" d="M442.11,102.43c7.5-14.49,29.63-13.36,33.81,3.26,2,8-2.15,15.7-6.09,22.43-4.54,7.74-9.21,15.42-13.82,23.12a2.26,2.26,0,0,0,1.34,3.28,73.11,73.11,0,0,0,34.9,1.31c2.82-.57,1.62-4.88-1.19-4.31a68.12,68.12,0,0,1-32.52-1.31l1.34,3.28c6.1-10.21,13.29-20.33,18.1-31.23,3.59-8.14,4.23-17.05-.92-24.69-9.66-14.31-31-12.52-38.8,2.6-1.32,2.55,2.53,4.81,3.86,2.26h0Z"/><path class="cls-9" d="M356.52,62.41c-1.66-6.4.43-13.82,5.68-17.84s13.49-3.89,18.15.8c-5.16-4.65,6.74-14.39,8.38-21.14-8.23-3.07-17.5-9.14-16.62-17.87,1-9.61,13.06-13.21,22.71-13.51,17.24-.54,37.35,4,44.73,19.54-2.14-3.72-.36-8.73,2.92-11.5s7.65-3.82,11.87-4.59c11.43-2.08,23.45-2.72,34.49.91C499.66,0.78,509.39,9.06,512.45,20c-1.64-6.54,6.23-11.94,13-13.6,16.49-4,42-3,52.09,12.84,3.66,5.71,4.69,13.07,8.53,19.12,5.2,8.18,13.45,13.17,1.78,21.18a53.58,53.58,0,0,1-21.65,8.69c3.75,5.67,13.09,6.1,15.78,12.34,2.41,5.58-2.29,11.68-7.29,15.14a47.79,47.79,0,0,1-25,8.41c4.84,2.79,11.55,2.77,14.77,7.33,3.35,4.75.38,11.82-4.57,14.85s-11.1,3.14-16.91,3.16l-14.38,0a100.31,100.31,0,0,0,.1-24.21c-1.24-11.12-9.07-26.07-13.3-36.43-9.75,8.26-20.27,6.22-33.43,6.43-6.88.11-16-1.7-16.52-8.56a41.78,41.78,0,0,1-29.8,18.58,40.86,40.86,0,0,1-14.1-.84l4.53,0.22c-9.41,25.57-15.34,35.72-9.17,59.27l-7.51,1c-26-6.79-37.85-31.91-31-48.67a11.24,11.24,0,0,1-16.64-14.21,6.48,6.48,0,0,1,5.48,3,5.91,5.91,0,0,1,1.68-8.48C363,73.83,358.15,68.67,356.52,62.41Z"/><path class="cls-8" d="M376.46,82.52c-7.69-3.68-13.79-11.29-11.83-20.25s12.72-14.33,20.21-7.61A2.24,2.24,0,0,0,388,51.5c-3.25-3.46-1.06-12.26-.36-16.27C388.53,30.1,389.78,25.06,391,20l-3.73,1L387.35,21l-0.57-2.17c0.26-1-.62.38-1.16,0.86-0.9.78-1.76,1.62-2.61,2.46A23.07,23.07,0,0,0,378.35,28c-2.37,4.84.76,8.07,5.49,9.06,2.81,0.59,4-3.72,1.19-4.31-2.44-.51-3.48-0.8-2.5-3.1,0.69-1.62,2.41-3.12,3.63-4.34,1.46-1.46,4.35-3.18,4.92-5.29a2.22,2.22,0,0,0-.57-2.17l-0.06-.05a2.26,2.26,0,0,0-3.73,1,179.43,179.43,0,0,0-4.06,19.71c-0.65,5-1.64,12.06,2.19,16.14L388,51.5c-8.67-7.78-22.19-4.3-26.62,6.34-4.83,11.59,2.2,23.44,12.83,28.53,2.58,1.24,4.85-2.62,2.26-3.86h0Z"/><path class="cls-8" d="M416.05,150.53c-19-5.24-37.44-25.11-29.47-45.92,0.7-1.84-1.72-3.52-3.28-2.52-7.75,4.92-17.42-2.3-13.58-11.16L367.79,92a4.73,4.73,0,0,1,3.9,2.3c1.58,2,4.85-.59,3.51-2.71a3.81,3.81,0,0,1,1.06-5.53c2.4-1.57.16-5.44-2.26-3.86a8.28,8.28,0,0,0-2.66,11.64l3.51-2.71a9.3,9.3,0,0,0-7.06-3.61,2.15,2.15,0,0,0-1.93,1.11c-5.45,12.59,7.75,24.85,19.69,17.27l-3.28-2.52c-8.85,23.09,11.47,45.58,32.59,51.42,2.78,0.77,4-3.54,1.19-4.31h0Z"/><path class="cls-8" d="M532.36,139.49c8.15,0,16.55.53,24.66-.4,5.69-.66,11.46-2.69,14.74-7.68,2.73-4.15,3.44-9.66.34-13.8-3.61-4.82-10.24-5.09-15.22-7.68l-1.13,4.16c11.85-.72,27.94-5.45,33.72-17,2.15-4.28,1.94-9.2-1.41-12.8-3.88-4.18-10.37-4.91-13.84-9.49l-1.34,3.28c9.09-1.63,33.75-9,28.42-22.5-1.1-2.8-3.2-5.09-5-7.47a44.85,44.85,0,0,1-6.07-11.57c-2.49-6.72-5.08-12.89-10.79-17.52-10.13-8.23-24.54-9.95-37.15-8.89C532.44,11,513,15,516.55,29l4.31-1.19C515.94,10.28,498.59,1.27,481.46.23c-11.1-.68-46.56,1.22-37.77,21L447.55,19C438.31,0.62,412.71-4.29,394.08-.95c-8,1.43-17.37,5.84-18.12,15-0.86,10.5,9.86,16.76,18.26,20,2.68,1,3.84-3.28,1.19-4.31-7-2.73-19-9.62-13.93-18.91,3.67-6.76,13.91-8,20.76-8.12,15.41-.25,33.9,3.43,41.47,18.47,1.31,2.61,5,.32,3.86-2.26-4.36-9.81,10.9-12.49,17.08-13.41,7.73-1.15,15.76-1.52,23.48-.06,12.8,2.42,24.78,10.44,28.44,23.45,0.78,2.77,5,1.61,4.31-1.19-3-12.1,20.61-13.43,27.95-13.4,10.24,0,21.65,2.16,29.33,9.45,4.49,4.26,6.21,9.86,8.36,15.47,2,5.28,4.87,9.51,8.19,14,1.14,1.56,2.78,3.5,2.87,5.51,0.17,3.47-3.62,5.8-6.16,7.44A53.13,53.13,0,0,1,571.7,73.8a2.24,2.24,0,0,0-1.34,3.28A21,21,0,0,0,577.79,83c4.64,2.45,10.49,5,8,11.44-4.1,10.4-20.1,14.58-30,15.18-2.07.13-3.22,3.08-1.13,4.16,3.49,1.81,7.53,2.35,11,4.21,6.08,3.29,4.48,10.78-.76,14.12-4.38,2.79-10,2.81-15,2.85-5.82.05-11.65,0-17.47,0.06-2.88,0-2.88,4.48,0,4.47h0Z"/><path class="cls-8" d="M409.95,78a44,44,0,0,0,66.6-7.85l-4.08-.53c2.08,14.09,26,10.43,35.39,9.11,7.5-1.06,15.06-3.19,21.15-7.87,3.94-3,9.91-9.34,4.25-13.61a2.19,2.19,0,0,0-2.26,0c-6,3.58-6.72,11.43-3.44,17.23,4.45,7.88,14.75,9,22.84,9.67,2.87,0.23,2.85-4.24,0-4.47-5.68-.45-12.78-0.92-17.14-5.13-3.58-3.45-4.91-10.53,0-13.45H531c2.81,2.12-11.12,10-12.64,10.54a59.81,59.81,0,0,1-16,3.23c-6.64.55-24.13,3.17-25.55-6.44-0.3-2.07-3.13-2-4.08-.53a39.47,39.47,0,0,1-59.58,6.95C411,72.87,407.82,76,409.95,78h0Z"/><path class="cls-8" d="M430.22,88.18c-12.72,25.1-14.54,55.23-3.83,81.4a99,99,0,0,0,51,52.5,2.26,2.26,0,0,0,2.26,0c20.44-15.1,42.33-31.48,52.88-55.42,11.76-26.7,6.07-58.11-6.3-83.53l-1.93,3.36c8.78-.53,16.34,9.25,12.69,17.59-1.14,2.61,2.71,4.89,3.86,2.26,4.92-11.21-4-25.08-16.55-24.32a2.27,2.27,0,0,0-1.93,3.36c12.09,24.85,17.57,56.06,5,81.8-10.64,21.8-30.95,37-50,51h2.26a94.84,94.84,0,0,1-49-49.83c-10.34-25-8.8-53.93,3.38-78,1.3-2.56-2.56-4.82-3.86-2.26h0Z"/><path class="cls-8" d="M425,138A44.09,44.09,0,0,0,397.54,145c-6.64,4.42-13.25,11.3-12.73,19.87,0.45,7.47,6.29,13.71,12.87,16.64,9.76,4.33,20.84,1.64,30.63-1.13,2.76-.78,1.59-5.09-1.19-4.31-8,2.26-16.85,4.7-25.11,2.28-6.39-1.87-13-7.62-12.76-14.82,0.24-7.39,7.44-13.1,13.33-16.37A40.11,40.11,0,0,1,425,142.44c2.87,0.2,2.86-4.27,0-4.47h0Z"/><path class="cls-8" d="M425.65,113.41c-3.33-8.12-15.12-12.19-18.77-1.91a21.91,21.91,0,0,0-.72,9.64c0.32,3,.41,6.88,2.88,8.9,2.26,1.85,5.3,3,8,4,2,0.78,4.85,2.09,7.06,1.41,2.74-.84,1.57-5.15-1.19-4.31-0.76.23-3-.8-3.95-1.14a36.08,36.08,0,0,1-6.09-2.79c-3.2-1.91-2.93-9.9-2-13.33,1.68-6.46,8.43-4.39,10.52.71,1.08,2.62,5.4,1.48,4.31-1.19h0Z"/><g class="cls-10"><path class="cls-7" d="M227.13,126.92c12-3.82,24.27-7.68,36.89-7.77s25.89,4.16,33.79,14c4.56,5.67,7,12.72,9.24,19.65a601.57,601.57,0,0,1,26.7,131.89c0.41,4.63.71,9.55-1.45,13.68-2.32,4.45-7,7.06-11.56,9.19A146.33,146.33,0,0,1,268.6,321c-5.88.39-12,.39-17.4-1.93-11.87-5.08-16.59-19.14-19.71-31.67a895.11,895.11,0,0,1-23.23-139c-0.47-5.37-.83-11.05,1.57-15.88,5-10.09,18.68-11.27,30-11.08"/></g><path class="cls-8" d="M233.85,121.2c16.93-5.37,35.4-11.17,52.93-5,18.35,6.45,22.83,24.26,27.88,41.1a598.59,598.59,0,0,1,22,110c0.84,8.08,3.7,19.35-3.1,25.58-6.26,5.75-16.22,8.61-24.13,11.18a143.66,143.66,0,0,1-27.57,6.07c-8.61,1-18.73,2.29-26.45-2.54-13.17-8.23-15.63-28.13-18.85-41.9q-6.37-27.28-11-54.93-5.4-32.1-8.43-64.53c-0.84-8.93-3-20.19,5.65-26.07,6.55-4.45,15.49-4.5,23.1-4.41,2.9,0,2.9-4.47,0-4.5-13-.16-30.53,1.76-33.61,17.27-1.9,9.58.58,20.63,1.62,30.2q1.69,15.67,3.92,31.27,4.64,32.52,11.67,64.64c2.2,10.08,4.38,20.22,7.2,30.15,2,7.18,4.73,14.46,9.44,20.35,11.67,14.58,32.75,10.7,48.83,7.4A147.45,147.45,0,0,0,323,303.8c7-3,15.34-6.41,18.17-14.14,3.09-8.43.35-19.36-.62-28q-1.74-15.4-4.27-30.69a600.57,600.57,0,0,0-13.9-63c-3.08-11.1-6.06-22.52-10.5-33.17-3.54-8.47-9-15.56-17.2-20-19.65-10.67-42.17-4.26-62.07,2.05-2.75.87-1.58,5.22,1.2,4.34h0Z"/><path class="cls-8" d="M321.91,251.56l-75.56,14.77c-2.84.56-1.64,4.89,1.2,4.34l75.56-14.77c2.84-.56,1.64-4.89-1.2-4.34h0Z"/><path class="cls-4" d="M269.79,264.2c-0.24,1.5,2,15.31,1.76,16.81"/><path class="cls-8" d="M267.54,264.2c-0.49,5.57,2.25,11.24,1.76,16.81-0.25,2.88,4.25,2.87,4.5,0,0.49-5.57-2.25-11.24-1.76-16.81,0.25-2.88-4.25-2.87-4.5,0h0Z"/><path class="cls-4" d="M297.64,258.18c0.19,6.66-.59,6.87,1.17,13.29"/><path class="cls-8" d="M295.39,258.18c0.11,4.83,0,9.17,1.25,13.89,0.75,2.79,5.09,1.61,4.34-1.2-1.16-4.32-1-8.26-1.09-12.69-0.06-2.89-4.56-2.9-4.5,0h0Z"/><path class="cls-8" d="M225.09,148.4q9.46,51.95,19,103.89l5.35,29.22a2.3,2.3,0,0,0,2.77,1.57l75.34-12.53a2.29,2.29,0,0,0,1.57-2.77L306.32,158.25l-3.18-15.31a2.31,2.31,0,0,0-2.77-1.57L222.88,152.8c-2.85.42-1.64,4.76,1.2,4.34l77.48-11.43-2.77-1.57,22.77,109.54L324.75,269l1.57-2.77L251,278.75l2.77,1.57q-9.84-53.69-19.63-107.4l-4.68-25.72c-0.52-2.84-4.86-1.64-4.34,1.2h0Z"/><path class="cls-7" d="M464.89,349.1c1.8-17.78-14.08-32-29.3-41.41-9.41-5.79-19.4-11.07-30.29-12.93s-22.9.15-31.14,7.51c-15.37,13.74-11.77,38-11.14,58.59,0.16,5.32-1.85,12.54-7.16,12.12-2.52-.2-4.45-2.23-6.11-4.12l-35.29-40c-9.41,18.6,1.75,40.94,14.87,57.14,6.11,7.55,13,15.29,14.37,24.91,1,7.3-1.27,14.61-3.55,21.61L318.87,497.8c13.72-1.82,25.36-16,38.74-12.44,11.48,3,17.65,18.16,29.51,18.75,9.65,0.49,17-9.13,26.52-10.74,4.47-.76,9,0.33,13.45,1.29a250,250,0,0,0,60.39,5.54A411.49,411.49,0,0,1,458.75,411c-0.75-3.77-1.44-7.78-.1-11.38,1.74-4.68,6.38-7.49,10.57-10.21a125.11,125.11,0,0,0,39.2-40.77c3.44-5.78,6.47-12.06,6.8-18.77s-2.6-14-8.57-17.06c-6.33,9.09-12.85,18.38-22,24.7s-21.45,9.15-31.38,4.24"/><path class="cls-11" d="M371.64,342.53c-7.89,6-3,19.48,7.34,17a9.22,9.22,0,0,0,7.28-9.46,10,10,0,0,0-9.53-9.08c-3.22-.13-3.21,4.87,0,5,5.12,0.2,6.2,7.59.92,8.72-4.47,1-7.09-5.12-3.49-7.85,2.53-1.92,0-6.26-2.52-4.32h0Z"/><circle class="cls-7" cx="413.1" cy="353.57" r="12.58"/><path class="cls-11" d="M428.18,353.57c-0.44-8.18-6.55-15.08-15.08-15.08a15.07,15.07,0,0,0-.69,30.12c8.8,0.39,15.31-6.58,15.77-15,0.17-3.22-4.83-3.21-5,0-0.7,12.91-20.16,13-20.16,0s19.47-12.92,20.16,0C423.36,356.77,428.36,356.79,428.18,353.57Z"/><path class="cls-8" d="M458.38,345.9c1.18-15.9-9.78-28.54-21.72-37.56-13.47-10.18-30.57-19.92-47.91-19.93-15.4,0-29,8.06-34.56,22.67s-3,30.7-2.7,45.88c0.09,4.62-1.72,14.17-7.95,8.08-4.1-4-7.7-8.69-11.49-13l-24.84-28.16a2.51,2.51,0,0,0-3.93.51c-5.68,11.95-4.28,24.78.74,36.71a91,91,0,0,0,10.17,17.79c4.29,6,9.44,11.3,13.34,17.53,4.83,7.7,5.79,15.43,3.57,24.23-2,8.06-5,16-7.57,23.85l-16.11,49.44c-0.65,2,1.33,3.36,3.08,3.08,6.85-1.12,12.8-4.58,18.83-7.81,6.6-3.53,14-7.12,21.38-3.58,10.45,5,16.22,18.78,29.4,17.74,6.32-.5,11.46-4.39,16.79-7.41,4-2.3,8-3.79,12.76-3.44,4.48,0.33,8.92,1.67,13.32,2.52a257.23,257.23,0,0,0,55.47,4.49,2.54,2.54,0,0,0,2.16-3.76,413.53,413.53,0,0,1-17.52-45.85q-3.52-11.19-6.41-22.58c-2-7.86-4.68-16.3-5.25-24.41-0.64-9,7-12.34,13.38-16.78a128.83,128.83,0,0,0,15.6-12.8c9.65-9.28,18.56-20.39,24.34-32.53,5.29-11.13,6.18-26.24-5.88-33.31a2.56,2.56,0,0,0-3.42.9c-5.24,7.52-10.57,15.2-17.63,21.16-3.87,3.27-8.22,6.11-12.37,9-1.86,1.31-6.4,5.45-8.93,4.91-3.14-.67-4.48,4.15-1.33,4.82s5.85-.92,8.4-2.48c5.06-3.08,9.92-6.74,14.67-10.28,8.85-6.59,15.26-15.67,21.5-24.63l-3.42.9c18.49,10.83-1.22,37.28-10,47.85a124.5,124.5,0,0,1-18.65,18.17c-5.9,4.64-13.89,8.06-18.41,14.19-4.83,6.54-2.37,14.75-.82,22q3.15,14.69,7.37,29.12a422.57,422.57,0,0,0,20.48,55.13l2.16-3.76a251.49,251.49,0,0,1-57.87-5.05c-7.19-1.49-14.12-3.19-21.2-.31-6.74,2.75-13,9.3-20.61,9.27-6.94,0-11.91-6-16.59-10.37-4.3-4-9-7.77-14.93-8.69-14-2.17-24.86,10.67-38.07,12.82l3.08,3.08,15.81-48.5c4.35-13.35,12.47-29.37,8.14-43.63-3.94-13-15.4-22.32-22.27-33.68-7.66-12.66-13.08-28.33-6.33-42.54l-3.93.51,20.92,23.71L335.05,363c2.63,3,5.29,7,9.1,8.63,14.71,6.1,12.08-20.2,11.79-26.94-0.64-14.89-1.19-33,11-43.84,15-13.35,37-6.39,52.37,2.25,15.63,8.79,35.59,22.47,34.08,42.81-0.24,3.21,4.76,3.19,5,0h0Z"/></g></g></g></svg>