<svg xmlns="http://www.w3.org/2000/svg" xmlns:xlink="http://www.w3.org/1999/xlink" viewBox="0 0 580 580"><defs><style>.cls-1,.cls-8{fill:none;}.cls-2{isolation:isolate;}.cls-3{clip-path:url(#clip-path);}.cls-4{fill:#fdea8b;}.cls-11,.cls-5{opacity:0.98;}.cls-5{mix-blend-mode:multiply;fill:url(#linear-gradient);}.cls-6{fill:url(#linear-gradient-2);}.cls-7{fill:#004f7f;}.cls-8{stroke:#004f7f;stroke-miterlimit:10;stroke-width:5px;}.cls-11,.cls-9{fill:#fff;}.cls-10{clip-path:url(#clip-path-2);}</style><clipPath id="clip-path"><rect class="cls-1" x="1" y="0.96" width="580" height="580"/></clipPath><linearGradient id="linear-gradient" x1="107.35" y1="161.38" x2="730.45" y2="161.38" gradientTransform="translate(775.96 335.09) rotate(180)" gradientUnits="userSpaceOnUse"><stop offset="0" stop-color="#f7931e"/><stop offset="0.44" stop-color="#fadb86"/></linearGradient><linearGradient id="linear-gradient-2" x1="50.96" y1="425.01" x2="530.69" y2="425.01" gradientUnits="userSpaceOnUse"><stop offset="0" stop-color="#fff"/><stop offset="0.31" stop-color="#ffcd31"/><stop offset="1" stop-color="#f15a24"/></linearGradient><clipPath id="clip-path-2"><rect class="cls-1" x="1" y="-881" width="580" height="580"/></clipPath></defs><title>iiLAB -U1-concepts-07-AFTER EMERGENCY</title><g class="cls-2"><g id="Layer_2" data-name="Layer 2"><g class="cls-3"><rect class="cls-4" x="-35.41" y="-40.27" width="645" height="645"/><rect class="cls-4" x="0.82" y="-1.41" width="580" height="580"/><circle class="cls-5" cx="357.06" cy="173.71" r="311.55" transform="translate(77.31 455.5) rotate(-71.15)"/><ellipse class="cls-6" cx="290.82" cy="425.01" rx="239.87" ry="85.63"/><path class="cls-7" d="M310.18,96.38c-5-11.28-17-16.12-28.4-18.17-14.11-2.54-30.45-3.59-43.57,3.11C209.37,96,208.5,132.77,209.27,160.72l2.5-2.5c-6-.44-12.95-0.75-17.9,3.32-3.69,3-6,8.3-4.16,13,1.75,4.33,6.23,6,10.4,7.13,2.34,0.63,5.29.94,7.25,2.48,3.23,2.53,1.65,7.59,1.59,11.22-0.45,27.18,19.62,51.88,47.39,53.54,25.74,1.54,44.65-19.11,52-42a82.92,82.92,0,0,0,3.57-17.72c0.3-3.21-.25-7.06.86-10.1,1.52-4.14,6.22-5.21,10-6.35,5-1.51,10.43-3.91,12.54-9.11,1.83-4.51-.44-9.07-4.76-11-6.58-2.89-13.75-.68-17.21-8.68-3.64-8.4-.21-17.36,1-25.88,1-6.77.69-13.58-3.65-19.17-3.82-4.93-9.76-7.89-15.9-5.69-3,1.08-1.71,5.91,1.33,4.82,6.39-2.29,12,3.65,13.33,9.52C311.17,115,308,123,307,130.34c-1.12,8.22.27,18.58,8,23.34,4,2.47,8.61,1.56,12.75,3.29,5,2.1,2.76,6.28-.55,8.54-2.73,1.87-6.1,2.38-9.17,3.45-3.73,1.3-7.41,3.18-9.32,6.82-2.37,4.51-1.46,10.56-2.06,15.48-2.52,20.71-14.07,43.61-35,50.63-24.42,8.18-49.53-8.53-55.94-32.41-2-7.36-1.16-13.85-1.31-21.25a9.91,9.91,0,0,0-6-9.25c-3.8-1.81-11.29-1.68-13.7-5.61-2-3.33.85-7.36,3.76-8.93,4-2.13,9-1.54,13.31-1.22a2.52,2.52,0,0,0,2.5-2.5c-0.7-25.47-.87-58.54,23.95-73.68,11.79-7.19,27-6.36,40.18-4.36,10.87,1.66,22.7,5.38,27.48,16.22,1.29,2.94,5.6.4,4.32-2.52h0Z"/><path class="cls-7" d="M233.45,148.7a28.05,28.05,0,0,1,21.75-9.3c3.22,0.07,3.22-4.93,0-5a33,33,0,0,0-25.29,10.76c-2.17,2.37,1.35,5.91,3.54,3.54h0Z"/><path class="cls-7" d="M263.75,139.52a105.38,105.38,0,0,1,25.06,8.07c2.9,1.36,5.44-3,2.52-4.32a110.57,110.57,0,0,0-26.26-8.57c-3.14-.6-4.49,4.22-1.33,4.82h0Z"/><path class="cls-7" d="M237.43,164.41l0.3,4.21c0.1,1.47,1.54,3,3.16,2.41a13.22,13.22,0,0,0,5.49-3.76,2.56,2.56,0,0,0,0-3.54,6.49,6.49,0,0,0-6.94-1.58,2.58,2.58,0,0,0-1.75,3.08,2.52,2.52,0,0,0,3.08,1.75c0.1,0,1-.28.58-0.23a4,4,0,0,1,.52,0h0c0.09,0,.84.26,0.5,0.14q0.37,0.25.14,0a3.57,3.57,0,0,1,.37.36v-3.54a8.31,8.31,0,0,1-3.29,2.47l3.16,2.41-0.3-4.21a2.56,2.56,0,0,0-2.5-2.5,2.52,2.52,0,0,0-2.5,2.5h0Z"/><path class="cls-7" d="M266.54,164.8a14.25,14.25,0,0,0-1.94,8.91c0.15,1.25,1,2.63,2.5,2.5,6.43-.56,10-9.2,5-13.8-2.36-2.19-5.9,1.34-3.54,3.54,1.52,1.41.83,5.07-1.51,5.27l2.5,2.5a9.83,9.83,0,0,1,1.26-6.39c1.63-2.78-2.69-5.3-4.32-2.52h0Z"/><path class="cls-7" d="M249,142.93a151,151,0,0,0-3.1,43.12,2.55,2.55,0,0,0,1.84,2.41l10.61,1.85c3.15,0.55,4.5-4.27,1.33-4.82L249,183.64l1.84,2.41a146.21,146.21,0,0,1,2.92-41.79c0.68-3.14-4.14-4.48-4.82-1.33h0Z"/><path class="cls-7" d="M233.69,216.64c10.33,0.11,20.31,2.89,30.64,3,3.22,0,3.22-5,0-5-10.33-.11-20.31-2.89-30.64-3-3.22,0-3.22,5,0,5h0Z"/><path class="cls-7" d="M447.57,132.47c-8.33-12.83-26.2-18.14-39.9-10.74S388.85,147.11,395,161.05l3.42-3.42c-13.16-7.45-31.61-1.39-35.79,13.74-2,7.32-.3,15.74,5.72,20.7a17.62,17.62,0,0,0,20,1.81c2.58-1.5.75-5-1.93-4.57-11.12,1.91-23.15,9.27-22.37,22.09,0.59,9.78,11.45,16.76,20.2,11.34,2.73-1.69.22-6-2.52-4.32-7.92,4.91-14.35-4.57-12.1-11.81,2.46-7.94,10.64-11.19,18.13-12.48l-1.93-4.57a12.68,12.68,0,0,1-15.21-2.12c-4.79-4.77-4.76-12.68-1.76-18.36,5-9.54,17.95-12.27,27-7.14,2.35,1.33,4.38-1.24,3.42-3.42-5-11.45-.33-26.54,10.89-32.48s26.2-1.63,33.06,8.94c1.75,2.69,6.08.19,4.32-2.52h0Z"/><path class="cls-7" d="M443.65,140.76C445.5,129.52,459,121.25,469.6,127c9.51,5.18,11.64,19.55,4.71,27.57l3-.39c-1.35-.68,6-6,6.79-6.38a24.21,24.21,0,0,1,9.43-2.73c3.42-.25,7.63-0.31,9.52,2.82,1.8,3,0,6.46-1.07,9.51a95,95,0,0,1-20.33,32.37c-1,1-1,3.26.51,3.93,7.37,3.18,12.23,11.37,10,19.41S481,226.07,473,224.4c-3.14-.65-4.48,4.17-1.33,4.82,10.25,2.13,21.48-3.33,25-13.5s-2.1-22.07-11.94-26.32l0.51,3.93A100.94,100.94,0,0,0,503.38,167c3-6.3,9.62-18.25,2.62-24.09-6.35-5.3-17.82-2.88-24.39.6-3.83,2-14.81,10.95-6.79,15a2.56,2.56,0,0,0,3-.39c9-10.45,6.67-28.49-5.72-35.42-13.14-7.35-30.93,2.3-33.29,16.74-0.52,3.15,4.3,4.5,4.82,1.33h0Z"/><path class="cls-7" d="M394.8,173.45c-14.1,26.42-13.32,59.43,1.36,85.47,3.25,5.77,7.83,13.73,13.44,17.55s12-3.63,15.83-7.17a124.32,124.32,0,0,0,39.44-92.59c-0.05-3.21-5.05-3.22-5,0a119.59,119.59,0,0,1-28.75,79.5,111,111,0,0,1-14.54,14.17c-2.55,2-3.55,2.3-5.88.2a29.23,29.23,0,0,1-2.86-3.3,75.51,75.51,0,0,1-6.27-9,85.13,85.13,0,0,1-11.75-38,82.44,82.44,0,0,1,9.3-44.33c1.51-2.84-2.8-5.37-4.32-2.52h0Z"/><path class="cls-7" d="M455.18,213.57c12.2-12.95,28.63,14.16,26.23,24.93-3.17,14.22-33.44,22-34.78,3.2-0.23-3.19-5.23-3.22-5,0,1.72,24.14,38.18,18.14,44.22-.51,3-9.37-3.51-22.47-9.87-29.25s-17.49-9.16-24.34-1.9c-2.21,2.34,1.32,5.88,3.54,3.54h0Z"/><path class="cls-7" d="M401.13,190.27c2.67-1.93,4.51-5.45,7.29-7a16.52,16.52,0,0,1,5.28-1.21c2.2-.28,5.37-0.71,6.14,1.82,0.41,1.35-.05,4.45-0.26,5.87-0.48,3.26-2.87,5.94-4.67,8.58l-8.46,12.4c-1.69,2.48-4.06,5.3-3.19,8.54,1.52,5.65,9.26,5,13.5,3.51,3-1.06,1.72-5.89-1.33-4.82-1.48.52-4.34,1.66-5.8,0.75-2.31-1.45-.09-3.68,1.13-5.46l9.51-14c2.59-3.8,4.12-6.51,4.34-11.12,0.13-2.88.73-6-1.17-8.43-2.68-3.44-7.56-3-11.39-2.48-1.94.26-4,.39-5.79,1.33-3.16,1.7-4.77,5.25-7.66,7.34-2.58,1.87-.09,6.21,2.52,4.32h0Z"/><path class="cls-7" d="M432.78,200.07a8.47,8.47,0,0,0-2.66,11,2.56,2.56,0,0,0,3.42.9,11.33,11.33,0,0,0,4.24-3.33c1.07-1.36,2.65-3.74,2.15-5.56-1.11-4-6.9-3.27-8.06.25-1,3.06,3.82,4.38,4.82,1.33-0.15.46-1,1-1.33,0.35l-0.25-1.93a7,7,0,0,1-4.08,4.58l3.42,0.9a3.34,3.34,0,0,1,.87-4.15c2.6-1.85.1-6.19-2.52-4.32h0Z"/><path class="cls-7" d="M433.91,175.37a22.68,22.68,0,0,1,11.32,12.12c1.15,3,6,1.68,4.82-1.33a27.76,27.76,0,0,0-13.62-15.11c-2.88-1.42-5.41,2.89-2.52,4.32h0Z"/><path class="cls-7" d="M401.45,205a4.31,4.31,0,0,0,4.94-1.91,5.3,5.3,0,0,0,.44-3.93A5,5,0,0,0,404.6,196a4.37,4.37,0,0,0-5.28.73,3.67,3.67,0,1,0,5.18,5.18l0.12-.1-0.74.57,0.17-.1-0.88.37,0.16,0-1,.13h0.16l-1-.13,0.1,0-0.88-.37a0.88,0.88,0,0,1,.18.11l-0.74-.57a1.36,1.36,0,0,1,.16.17l-0.57-.74a2,2,0,0,1,.23.4l-0.37-.88a2.65,2.65,0,0,1,.15.55l-0.13-1a2.12,2.12,0,0,1,0,.54l0.13-1a1.34,1.34,0,0,1-.08.29l0.37-.88-0.08.14,0.57-.74-0.11.11,0.74-.57-0.09.05,0.88-.37-0.16,0,1-.13h-0.19l1,0.13-0.22-.05a3.67,3.67,0,0,0-1.95,7.07h0Z"/><path class="cls-7" d="M420.16,247.63l-13.79-.06c-3.22,0-3.22,5,0,5l13.79,0.06c3.22,0,3.22-5,0-5h0Z"/><path class="cls-7" d="M446.33,287.18c10.19-2.16,20.4,2.17,27.43,9.56,8.07,8.49,11,20.6,11,32,0.07,22.15-9.11,44-23.53,60.62-2.1,2.42,1.42,6,3.54,3.54,16.56-19,27.29-45.38,24.64-70.91-1.22-11.75-5.64-23.42-14.75-31.31-8.23-7.12-18.89-10.62-29.65-8.34-3.15.67-1.81,5.49,1.33,4.82h0Z"/><path class="cls-7" d="M325.42,356.81c-3.15-10.52.43-20.95,5.09-30.43a194.48,194.48,0,0,1,14.25-24.61c10.54-15.3,25.69-28.82,44.91-30.66,3.18-.3,3.21-5.31,0-5-20.53,2-36.69,15.44-48.25,31.74a176.93,176.93,0,0,0-16.78,29.3c-4.44,9.83-7.22,20.38-4,31,0.92,3.07,5.75,1.76,4.82-1.33h0Z"/><path class="cls-7" d="M299.53,238.38a80.44,80.44,0,0,1,23.93,18c4.82,5.4,5.9,10.09,4,17.16-1.38,5-3,10-4.66,14.91q-5,14.9-11.4,29.3c-1.11,2.51-14,28.83-14.75,28.23-2.56-1.95-5.05,2.39-2.52,4.32,3.48,2.65,6.82-.77,8.58-3.72,3.43-5.74,6.31-11.93,9.18-18A356.2,356.2,0,0,0,327,291.48c3.6-10.49,10.43-24.13,3.42-34.47-6.72-9.91-17.81-17.64-28.35-23-2.87-1.45-5.4,2.87-2.52,4.32h0Z"/><path class="cls-7" d="M181.92,221.12c-23.89,13.5-39,40.31-50.25,64.43-12.43,26.52-1.22,60.1,16.45,81.69a2.51,2.51,0,0,0,3,.39,4.82,4.82,0,0,0,2.29-5.87c-0.93-3.07-5.76-1.76-4.82,1.33v0.22l3,0.39A92,92,0,0,1,133.83,327c-1.79-7.32-3-14.91-2.45-22.46s3.44-14.49,6.94-21.19c11.39-21.79,24-45.44,46.12-58,2.8-1.58.28-5.9-2.52-4.32h0Z"/><ellipse class="cls-8" cx="277.28" cy="429.49" rx="239.87" ry="85.63"/><path class="cls-9" d="M79.57,291l2.29,55.21c0.64,15.4-2.63,37.73,2.26,52.27,7.5,22.31,56.78,17.09,78.45,23.83,4.19,1.3,8.42,2.77,12.81,2.74,6.44,0,12.71-3.33,19.09-2.41q0.38-56.05,4.61-112l-62.26-4.67c-7-.52-14-1.05-20.77-2.85-5.89-1.56-11.49-4-17.32-5.8a71.73,71.73,0,0,0-20.07-3"/><path class="cls-7" d="M77.07,291c0.86,20.66,2.63,41.51,2.36,62.19-0.2,15.12-3.23,33,2.82,47.36,4,9.52,14.52,13.68,23.87,16,12.36,3,25.19,3.67,37.8,5a102,102,0,0,1,18,3.16c5,1.48,9.93,3.17,15.23,2.75,5.89-.47,11.36-2.85,17.34-2.32a2.53,2.53,0,0,0,2.5-2.5q0.41-56.06,4.61-112a2.54,2.54,0,0,0-2.5-2.5q-31.13-2.34-62.26-4.67a113.33,113.33,0,0,1-30.5-6.21,86.11,86.11,0,0,0-27.65-5.45c-3.22-.06-3.22,4.94,0,5,10.56,0.21,19.9,3.06,29.76,6.51,9.28,3.25,18.63,4.4,28.39,5.15q31.13,2.37,62.26,4.67l-2.5-2.5q-4.2,55.9-4.61,112l2.5-2.5c-4.11-.36-7.92.44-11.91,1.32a30.6,30.6,0,0,1-16.62-.73,98,98,0,0,0-15.14-3.35c-11.82-1.62-23.79-2.13-35.57-4.12-9.36-1.58-22.36-3.95-27.56-13-3.39-5.9-3.55-13.88-3.74-20.48-0.22-7.88.25-15.77,0.44-23.65,0.53-21.65-1.4-43.53-2.3-65.16-0.13-3.21-5.13-3.22-5,0h0Z"/><path class="cls-7" d="M194.23,368.5q38.75,2.34,77.31,6.94l-1.77-4.27C244.83,394,216.35,411.64,185.32,425c-2.95,1.27-.4,5.57,2.52,4.32,31.42-13.48,60.21-31.43,85.45-54.57,1.77-1.62.21-4-1.77-4.27q-38.55-4.6-77.31-6.94c-3.21-.19-3.2,4.81,0,5h0Z"/><path class="cls-7" d="M178.87,94l11.26,4.38c3,1.17,4.3-3.67,1.33-4.82L180.2,89.18c-3-1.17-4.3,3.67-1.33,4.82h0Z"/><path class="cls-7" d="M193.1,63l5.27,7.35a2.57,2.57,0,0,0,3.42.9,2.52,2.52,0,0,0,.9-3.42l-5.27-7.35a2.57,2.57,0,0,0-3.42-.9,2.52,2.52,0,0,0-.9,3.42h0Z"/><path class="cls-7" d="M236.5,37.75a30.77,30.77,0,0,0,3.11,14c1.39,2.9,5.7.37,4.32-2.52a25.16,25.16,0,0,1-2.42-11.48c0.06-3.22-4.94-3.22-5,0h0Z"/><path class="cls-7" d="M286,37.74a21.47,21.47,0,0,1-2.49,11.47c-1.51,2.84,2.8,5.37,4.32,2.52a26.52,26.52,0,0,0,3.17-14c-0.17-3.2-5.17-3.22-5,0h0Z"/><path class="cls-7" d="M325.24,54.39c3.22,0,3.22-5,0-5s-3.22,5,0,5h0Z"/><path class="cls-7" d="M399.13,72.37L402,80.85c1,3,5.85,1.73,4.82-1.33L404,71c-1-3-5.85-1.73-4.82,1.33h0Z"/><path class="cls-7" d="M453.14,66.85l-2.88,8.47c-1,3.05,3.79,4.36,4.82,1.33L458,68.18c1-3.05-3.79-4.36-4.82-1.33h0Z"/><path class="cls-7" d="M498.29,82.37a13,13,0,0,1-6,6.91c-2.82,1.55-.3,5.87,2.52,4.32a18.26,18.26,0,0,0,8.35-9.9c1.1-3-3.73-4.33-4.82-1.33h0Z"/></g><g class="cls-10"><ellipse class="cls-11" cx="306.65" cy="100.15" rx="731.54" ry="683.82"/></g></g></g></svg>