<svg xmlns="http://www.w3.org/2000/svg" xmlns:xlink="http://www.w3.org/1999/xlink" viewBox="0 0 580 580"><defs><style>.cls-1,.cls-7{fill:none;}.cls-2{isolation:isolate;}.cls-3{clip-path:url(#clip-path);}.cls-4{fill:#fdea8b;}.cls-5{opacity:0.98;mix-blend-mode:multiply;fill:url(#linear-gradient);}.cls-6{fill:#ffec8d;}.cls-7{stroke:#004f7f;stroke-miterlimit:10;stroke-width:4px;}.cls-8{fill:#fff;}.cls-9{fill:#004f7f;}.cls-10{fill:#9acd72;}</style><clipPath id="clip-path"><rect class="cls-1" width="580" height="580"/></clipPath><linearGradient id="linear-gradient" x1="382.7" y1="-1335.47" x2="919.63" y2="-1335.47" gradientTransform="translate(892.4 -1138.37) rotate(180)" gradientUnits="userSpaceOnUse"><stop offset="0" stop-color="#fff"/><stop offset="1" stop-color="#9acd72"/></linearGradient></defs><title>iiLAB -U1-concepts-07-AFTER EMERGENCY</title><g class="cls-2"><g id="Layer_2" data-name="Layer 2"><g class="cls-3"><rect class="cls-4" width="580" height="580"/><circle class="cls-5" cx="241.24" cy="197.09" r="268.47" transform="translate(-2.83 390.67) rotate(-77.67)"/><path class="cls-6" d="M543.76,86.3c-2.88-1.44-135.4-17.5-135.4-17.5-5.46-.66-13.54,1.49-17.94,4.77l-63.1,47c-4.41,3.29-3.57,6.69,1.86,7.56L533.89,161a8.27,8.27,0,0,0,9.87-8.42V86.3Z"/><path class="cls-7" d="M543.76,86.3c-2.88-1.44-135.4-17.5-135.4-17.5-5.46-.66-13.54,1.49-17.94,4.77l-63.1,47c-4.41,3.29-3.57,6.69,1.86,7.56L533.89,161a8.27,8.27,0,0,0,9.87-8.42V86.3Z"/><path class="cls-8" d="M362.35,448.45a12.66,12.66,0,0,1-11-10.84l-31-301.07c-0.56-5.47,3.42-9.24,8.85-8.36L533.89,161a11.47,11.47,0,0,1,9.4,11.57L529.85,453.4a9.54,9.54,0,0,1-10.44,9.1Z"/><path class="cls-7" d="M362.35,448.45a12.66,12.66,0,0,1-11-10.84l-31-301.07c-0.56-5.47,3.42-9.24,8.85-8.36L533.89,161a11.47,11.47,0,0,1,9.4,11.57L529.85,453.4a9.54,9.54,0,0,1-10.44,9.1Z"/><path class="cls-6" d="M344.43,154.9c-5.45-.73-9.41,3.14-8.79,8.6L347,264.42a13.21,13.21,0,0,0,11,11.09l145.6,16.87a10.31,10.31,0,0,0,11.31-8.75L528,189.73a10,10,0,0,0-8.53-11.24Z"/><path class="cls-7" d="M344.43,154.9c-5.45-.73-9.41,3.14-8.79,8.6L347,264.42a13.21,13.21,0,0,0,11,11.09l145.6,16.87a10.31,10.31,0,0,0,11.31-8.75L528,189.73a10,10,0,0,0-8.53-11.24Z"/><path class="cls-6" d="M348.08,299.7c5.76-1.88,162.73,17,162.73,17a11.6,11.6,0,0,1,9.93,11.2v86.5a8.88,8.88,0,0,1-9.95,9S363.9,408.61,363.9,404.29,348.08,299.7,348.08,299.7Z"/><path class="cls-7" d="M348.08,299.7c5.76-1.88,162.73,17,162.73,17a11.6,11.6,0,0,1,9.93,11.2v86.5a8.88,8.88,0,0,1-9.95,9S363.9,408.61,363.9,404.29,348.08,299.7,348.08,299.7Z"/><path class="cls-6" d="M336.82,174.07c2.88,1.44,190.15,23,190.15,23"/><path class="cls-7" d="M336.82,174.07c2.88,1.44,190.15,23,190.15,23"/><path class="cls-6" d="M352.53,323.55c2.94,1.32,163.41,16.16,163.41,16.16"/><path class="cls-7" d="M352.53,323.55c2.94,1.32,163.41,16.16,163.41,16.16"/><path class="cls-6" d="M97.33,595.16l-14-124.9c-0.61-5.47-5.15-8-10.09-5.54L70.69,466a15.41,15.41,0,0,0-7.95,14.34L74.68,595.16"/><path class="cls-7" d="M97.33,595.16l-14-124.9c-0.61-5.47-5.15-8-10.09-5.54L70.69,466a15.41,15.41,0,0,0-7.95,14.34L74.68,595.16"/><path class="cls-6" d="M448.4,595.16l28-125.08c1.2-5.37,6.23-7.78,11.17-5.36l2.56,1.25a13.32,13.32,0,0,1,6.79,14.15L471,595.16"/><path class="cls-7" d="M448.4,595.16l28-125.08c1.2-5.37,6.23-7.78,11.17-5.36l2.56,1.25a13.32,13.32,0,0,1,6.79,14.15L471,595.16"/><path class="cls-6" d="M533.65,493c-1.58,5.14-7.38,9.35-12.88,9.35H28.47A15.66,15.66,0,0,1,14.91,493v0c-2-5.14.94-9.34,6.44-9.34H526.53C532,483.65,535.23,487.85,533.65,493Z"/><path class="cls-7" d="M533.65,493c-1.58,5.14-7.38,9.35-12.88,9.35H28.47A15.66,15.66,0,0,1,14.91,493v0c-2-5.14.94-9.34,6.44-9.34H526.53C532,483.65,535.23,487.85,533.65,493Z"/><path class="cls-8" d="M526.53,483.65c5.5,0,7.58-3.79,4.62-8.43l-54-84.57c-3-4.64-9.88-8.37-15.38-8.29l-375.31,5c-5.5.07-12.67,3.76-15.94,8.18l-59,80c-3.26,4.43-1.44,8,4.06,8H526.53Z"/><path class="cls-7" d="M526.53,483.65c5.5,0,7.58-3.79,4.62-8.43l-54-84.57c-3-4.64-9.88-8.37-15.38-8.29l-375.31,5c-5.5.07-12.67,3.76-15.94,8.18l-59,80c-3.26,4.43-1.44,8,4.06,8H526.53Z"/><path class="cls-6" d="M85.5,405.07a12.71,12.71,0,0,1,11.78-10l134-2.19c5.5-.09,7.19,3.35,3.76,7.65l-27.13,33.95c-3.43,4.3-10.74,7.81-16.24,7.81H88.77a8.08,8.08,0,0,1-8.22-9.84Z"/><path class="cls-7" d="M85.5,405.07a12.71,12.71,0,0,1,11.78-10l134-2.19c5.5-.09,7.19,3.35,3.76,7.65l-27.13,33.95c-3.43,4.3-10.74,7.81-16.24,7.81H88.77a8.08,8.08,0,0,1-8.22-9.84Z"/><path class="cls-6" d="M64.16,328.29a8.4,8.4,0,0,0-7.86,10.44l20.35,93.78a13,13,0,0,0,12.12,9.77H191.62a11.24,11.24,0,0,0,10.94-10s11.55-122,6.4-117.73S64.16,328.29,64.16,328.29Z"/><path class="cls-7" d="M64.16,328.29a8.4,8.4,0,0,0-7.86,10.44l20.35,93.78a13,13,0,0,0,12.12,9.77H191.62a11.24,11.24,0,0,0,10.94-10s11.55-122,6.4-117.73S64.16,328.29,64.16,328.29Z"/><path class="cls-9" d="M315.42,36.62A86,86,0,0,0,330.5,62.16c2.09,2.45,5.61-1.1,3.54-3.54a78.79,78.79,0,0,1-13.79-23.33c-1.13-3-6-1.69-4.82,1.33h0Z"/><path class="cls-9" d="M352.86,16.46L365.81,51c1.12,3,6,1.69,4.82-1.33L357.68,15.14c-1.12-3-6-1.69-4.82,1.33h0Z"/><path class="cls-9" d="M400.25,8.61a161.72,161.72,0,0,0,0,30.22c0.3,3.18,5.3,3.21,5,0a161.72,161.72,0,0,1,0-30.22c0.3-3.2-4.7-3.18-5,0h0Z"/><path class="cls-9" d="M456.15-20.44l-11.2,67.23c-0.52,3.15,4.29,4.5,4.82,1.33L461-19.11c0.52-3.15-4.29-4.5-4.82-1.33h0Z"/><path class="cls-9" d="M518.33-7.17L493.87,54c-1.19,3,3.64,4.29,4.82,1.33L523.15-5.84c1.19-3-3.64-4.29-4.82-1.33h0Z"/><path class="cls-6" d="M432.32,170A48.16,48.16,0,0,1,429,128.08c2.44-6.09,7.35-12.32,13.9-12.11,4.39,0.14,8.13,3.19,11.12,6.4a61.19,61.19,0,0,1,14.6,27,3.48,3.48,0,0,1,0,2.47,3.57,3.57,0,0,1-1.89,1.36l-4.67,2a4.27,4.27,0,0,1-2.42.5c-1.69-.33-2.28-2.39-2.6-4.08a84.7,84.7,0,0,0-8-23.37c-1.26-2.43-3-5.07-5.76-5.35a5.83,5.83,0,0,0-5.3,3.09,14.77,14.77,0,0,0-1.62,6.22,70.68,70.68,0,0,0,2.4,25.82c0.7,2.45,1.53,5,.79,7.48s-3.9,4.25-5.9,2.68"/><path class="cls-9" d="M434.48,168.73a46.52,46.52,0,0,1-6.23-25c0.29-7.86,2.54-18.93,9.6-23.71,8.64-5.85,17.11,6.4,21,12.61a58.76,58.76,0,0,1,5.49,11.11c0.43,1.18,2.34,5.06,1.9,6.25-0.57,1.53-3.7,2.62-5.18,2.26q-1.82.54-1.6-1.37-0.33-1.74-.72-3.47-0.8-3.45-1.88-6.83a90,90,0,0,0-4.13-10.49c-2.28-4.89-6.06-11.82-12.62-9.22s-6.5,11.09-6.57,16.85a73.52,73.52,0,0,0,.83,11.8q0.55,3.69,1.47,7.3c0.14,0.54,3.16,11.1-1,9.14-2.89-1.38-5.43,2.93-2.52,4.32,5.18,2.46,9.93-1.64,9.92-7.07,0-3.83-1.7-7.62-2.45-11.34a68,68,0,0,1-1.24-16c0.09-2.36,0-5.32,1.07-7.48,2.29-4.5,5.61-1.76,7.19,1.06a69.83,69.83,0,0,1,5.71,14.17c1.35,4.52,1.41,15.66,8.65,14.42a20.72,20.72,0,0,0,8.37-3.63c2.34-2,1.77-4.63,1.07-7.31a61.74,61.74,0,0,0-10.75-21.65c-3.85-5-8.84-11-15.53-11.85-6.27-.85-11.49,3.12-14.83,8.1-9.66,14.39-7.64,35.11.61,49.53,1.6,2.79,5.92.28,4.32-2.52h0Z"/><path class="cls-10" d="M414.29,168.63a386.3,386.3,0,0,1,65.48-19.08,7.74,7.74,0,0,1,4.08-.07,3.08,3.08,0,0,1,1.66,1.79c1.52,3.39,1.69,7.06,1.85,10.69,0.36,8.09,5.44,40,5.8,48.1a4.35,4.35,0,0,1-1,3.59c-0.95.95,2.24,5.75,0.7,6.19a305.18,305.18,0,0,1-30.4,6.49c-9.22,1.27-9.37,3-18.58,4.22-0.76.1-10.1,3-10.79,2.78-0.93-.23,1.63-10.73,1.27-11.35-2-3.58-7.68-31.28-8.57-35.14L421,166.32"/><path class="cls-9" d="M415,171a386.21,386.21,0,0,1,38.27-12.67q9.88-2.7,19.89-4.89c3.16-.69,8.09-2.93,10.64.16,1.55,1.88,1,7,1.18,9.41,1.09,15,4.34,29.88,5.58,44.91,0.25,3-1.38,5.3-.66,8.27,0.22,0.9.74,1.75,0.89,2.67-0.24-1.49,1.73-.73-0.41-1-2-.22-5.1,1.28-7.08,1.74-9.33,2.17-19.12,3.06-28.32,5.61-4,1.11-7.89,2-12,2.9-1.77.37-8.06,1.24-9.22,2.51-0.86.95,1,2.07,1.67,1.33a8.8,8.8,0,0,0,.27-2.15c0.23-1.56.56-3.1,0.81-4.65a10.37,10.37,0,0,0-.57-6.08c-2.59-7.5-4-15.55-5.63-23.29-2.19-10.09-4.51-20.15-6.84-30.21-0.73-3.13-5.55-1.81-4.82,1.33,2.33,10.06,4.66,20.12,6.84,30.21,1.71,7.91,3.07,16.22,5.82,23.86,0.88,2.45.11,4.06-.43,7.5-0.33,2.07-1.35,5.59,1,6.93s6.63-.85,8.79-1.46c4.22-1.19,8.55-1.76,12.75-3,10.12-3.06,20.9-4.1,31.21-6.49,2.79-.65,8.48-0.95,10.4-3.2,1-1.11.81-2.38,0.59-3.73-0.15-.87-0.87-1.81-0.89-2.67,0-1.07.87-2.48,1-3.61,0.31-3.14-.47-6.64-0.85-9.75-0.58-4.79-1.24-9.58-1.89-14.37-1.11-8.2-2.49-16.43-3-24.7-0.3-4.65.08-13.37-5.37-15.42-2.76-1-6.39.26-9.07,0.82q-6.4,1.34-12.75,2.88a387.83,387.83,0,0,0-49.06,15.46c-3,1.16-1.68,6,1.33,4.82h0Z"/><path class="cls-9" d="M34.53,221.78a238,238,0,0,1,21,19.39c2.23,2.33,5.77-1.21,3.54-3.54a238,238,0,0,0-21-19.39c-2.47-2-6,1.5-3.54,3.54h0Z"/><path class="cls-9" d="M63.88,197.4a148.92,148.92,0,0,0,18.71,31.65c1.94,2.51,6.28,0,4.32-2.52A148.92,148.92,0,0,1,68.2,194.88c-1.28-2.94-5.59-.4-4.32,2.52h0Z"/><path class="cls-9" d="M99.6,178.1a186.65,186.65,0,0,1,4.23,31c0.17,3.2,5.17,3.22,5,0a194.81,194.81,0,0,0-4.41-32.32c-0.7-3.14-5.52-1.81-4.82,1.33h0Z"/><path class="cls-9" d="M125.41,176v21.58c0,3.22,5,3.22,5,0V176c0-3.22-5-3.22-5,0h0Z"/><path class="cls-9" d="M149.87,184.63l-1.44,20.14c-0.23,3.21,4.77,3.2,5,0l1.44-20.14c0.23-3.21-4.77-3.2-5,0h0Z"/><path class="cls-9" d="M169.93,189.69l-5.4,31.71c-0.54,3.15,4.28,4.5,4.82,1.33l5.4-31.71c0.54-3.15-4.28-4.5-4.82-1.33h0Z"/><path class="cls-6" d="M277.39,410.83a12.71,12.71,0,0,1,11.78-10l134-2.19c5.5-.09,7.19,3.35,3.76,7.65l-27.13,33.95c-3.43,4.3-10.74,7.81-16.24,7.81H280.66a8.08,8.08,0,0,1-8.22-9.84Z"/><path class="cls-7" d="M277.39,410.83a12.71,12.71,0,0,1,11.78-10l134-2.19c5.5-.09,7.19,3.35,3.76,7.65l-27.13,33.95c-3.43,4.3-10.74,7.81-16.24,7.81H280.66a8.08,8.08,0,0,1-8.22-9.84Z"/><path class="cls-6" d="M256.05,334a8.4,8.4,0,0,0-7.86,10.44l20.35,93.78A13,13,0,0,0,280.66,448H383.51a11.24,11.24,0,0,0,10.94-10s11.55-122,6.4-117.73S256.05,334,256.05,334Z"/><path class="cls-7" d="M256.05,334a8.4,8.4,0,0,0-7.86,10.44l20.35,93.78A13,13,0,0,0,280.66,448H383.51a11.24,11.24,0,0,0,10.94-10s11.55-122,6.4-117.73S256.05,334,256.05,334Z"/><path class="cls-6" d="M303.58,322a48.16,48.16,0,0,1-3.29-41.91c2.44-6.09,7.35-12.32,13.9-12.11,4.39,0.14,8.13,3.19,11.12,6.4a61.19,61.19,0,0,1,14.6,27,3.48,3.48,0,0,1,0,2.47,3.57,3.57,0,0,1-1.89,1.36l-4.67,2a4.27,4.27,0,0,1-2.42.5c-1.69-.33-2.28-2.39-2.6-4.08a84.7,84.7,0,0,0-8-23.37c-1.26-2.43-3-5.07-5.76-5.35a5.83,5.83,0,0,0-5.3,3.09,14.77,14.77,0,0,0-1.62,6.22A70.68,70.68,0,0,0,310,310c0.7,2.45,1.53,5,.79,7.48s-3.9,4.25-5.9,2.68"/><path class="cls-9" d="M305.74,320.74a46.52,46.52,0,0,1-6.23-25c0.29-7.86,2.54-18.93,9.6-23.71,8.64-5.85,17.11,6.4,21,12.61a58.76,58.76,0,0,1,5.49,11.11c0.43,1.18,2.34,5.06,1.9,6.25-0.57,1.53-3.7,2.62-5.18,2.26q-1.82.54-1.6-1.37-0.33-1.74-.72-3.47-0.8-3.45-1.88-6.83A90,90,0,0,0,324,282.15c-2.28-4.89-6.06-11.82-12.62-9.22s-6.5,11.09-6.57,16.85a73.52,73.52,0,0,0,.83,11.8q0.55,3.69,1.47,7.3c0.14,0.54,3.16,11.1-1,9.14-2.89-1.38-5.43,2.93-2.52,4.32,5.18,2.46,9.93-1.64,9.92-7.07,0-3.83-1.7-7.62-2.45-11.34a68,68,0,0,1-1.24-16c0.09-2.36,0-5.32,1.07-7.48,2.29-4.5,5.61-1.76,7.19,1.06a69.83,69.83,0,0,1,5.71,14.17c1.35,4.52,1.41,15.66,8.65,14.42a20.72,20.72,0,0,0,8.37-3.63c2.34-2,1.77-4.63,1.07-7.31a61.74,61.74,0,0,0-10.75-21.65c-3.85-5-8.84-11-15.53-11.85-6.27-.85-11.49,3.12-14.83,8.1-9.66,14.39-7.64,35.11.61,49.53,1.6,2.79,5.92.28,4.32-2.52h0Z"/><path class="cls-10" d="M285.55,320.65A386.3,386.3,0,0,1,351,301.57a7.74,7.74,0,0,1,4.08-.07,3.08,3.08,0,0,1,1.66,1.79c1.52,3.39,1.69,7.06,1.85,10.69,0.36,8.09,5.44,40,5.8,48.1a4.35,4.35,0,0,1-1,3.59c-0.95.95,2.24,5.75,0.7,6.19a305.18,305.18,0,0,1-30.4,6.49c-9.22,1.27-9.37,3-18.58,4.22-0.76.1-10.1,3-10.79,2.78-0.93-.23,1.63-10.73,1.27-11.35-2-3.58-7.68-31.28-8.57-35.14l-4.75-20.52"/><path class="cls-9" d="M286.22,323.06a386.21,386.21,0,0,1,38.27-12.67q9.88-2.7,19.89-4.89c3.16-.69,8.09-2.93,10.64.16,1.55,1.88,1,7,1.18,9.41,1.09,15,4.34,29.88,5.58,44.91,0.25,3-1.38,5.3-.66,8.27,0.22,0.9.74,1.75,0.89,2.67-0.24-1.49,1.73-.73-0.41-1-2-.22-5.1,1.28-7.08,1.74-9.33,2.17-19.12,3.06-28.32,5.61-4,1.11-7.89,2-12,2.9-1.77.37-8.06,1.24-9.22,2.51-0.86.95,1,2.07,1.67,1.33a8.8,8.8,0,0,0,.27-2.15c0.23-1.56.56-3.1,0.81-4.65a10.37,10.37,0,0,0-.57-6.08c-2.59-7.5-4-15.55-5.63-23.29-2.19-10.09-4.51-20.15-6.84-30.21-0.73-3.13-5.55-1.81-4.82,1.33,2.33,10.06,4.66,20.12,6.84,30.21,1.71,7.91,3.07,16.22,5.82,23.86,0.88,2.45.11,4.06-.43,7.5-0.33,2.07-1.35,5.59,1,6.93s6.63-.85,8.79-1.46c4.22-1.19,8.55-1.76,12.75-3,10.12-3.06,20.9-4.1,31.21-6.49,2.79-.65,8.48-0.95,10.4-3.2,1-1.11.81-2.38,0.59-3.73-0.15-.87-0.87-1.81-0.89-2.67,0-1.07.87-2.48,1-3.61,0.31-3.14-.47-6.64-0.85-9.75-0.58-4.79-1.24-9.58-1.89-14.37-1.11-8.2-2.49-16.43-3-24.7-0.3-4.65.08-13.37-5.37-15.42-2.76-1-6.39.26-9.07,0.82q-6.4,1.34-12.75,2.88a387.83,387.83,0,0,0-49.06,15.46c-3,1.16-1.68,6,1.33,4.82h0Z"/><path class="cls-6" d="M113.7,317.34a48.16,48.16,0,0,1-3.29-41.91c2.44-6.09,7.35-12.32,13.9-12.11,4.39,0.14,8.13,3.19,11.12,6.4a61.19,61.19,0,0,1,14.6,27,3.48,3.48,0,0,1,0,2.47,3.57,3.57,0,0,1-1.89,1.36l-4.67,2a4.27,4.27,0,0,1-2.42.5c-1.69-.33-2.28-2.39-2.6-4.08a84.7,84.7,0,0,0-8-23.37c-1.26-2.43-3-5.07-5.76-5.35a5.83,5.83,0,0,0-5.3,3.09,14.77,14.77,0,0,0-1.62,6.22,70.68,70.68,0,0,0,2.4,25.82c0.7,2.45,1.53,5,.79,7.48s-3.9,4.25-5.9,2.68"/><path class="cls-9" d="M115.86,316.08a46.52,46.52,0,0,1-6.23-25c0.29-7.86,2.54-18.93,9.6-23.71,8.64-5.85,17.11,6.4,21,12.61a58.76,58.76,0,0,1,5.49,11.11c0.43,1.18,2.34,5.06,1.9,6.25-0.57,1.53-3.7,2.62-5.18,2.26q-1.82.54-1.6-1.37-0.33-1.74-.72-3.47-0.8-3.45-1.88-6.83a90,90,0,0,0-4.13-10.49c-2.28-4.89-6.06-11.82-12.62-9.22s-6.5,11.09-6.57,16.85a73.52,73.52,0,0,0,.83,11.8q0.55,3.69,1.47,7.3c0.14,0.54,3.16,11.1-1,9.14-2.89-1.38-5.43,2.93-2.52,4.32,5.18,2.46,9.93-1.64,9.92-7.07,0-3.83-1.7-7.62-2.45-11.34a68,68,0,0,1-1.24-16c0.09-2.36,0-5.32,1.07-7.48,2.29-4.5,5.61-1.76,7.19,1.06A69.83,69.83,0,0,1,133.95,291c1.35,4.52,1.41,15.66,8.65,14.42a20.72,20.72,0,0,0,8.37-3.63c2.34-2,1.77-4.63,1.07-7.31a61.74,61.74,0,0,0-10.75-21.65c-3.85-5-8.84-11-15.53-11.85-6.27-.85-11.49,3.12-14.83,8.1-9.66,14.39-7.64,35.11.61,49.53,1.6,2.79,5.92.28,4.32-2.52h0Z"/><path class="cls-10" d="M95.67,316a386.3,386.3,0,0,1,65.48-19.08,7.74,7.74,0,0,1,4.08-.07,3.08,3.08,0,0,1,1.66,1.79c1.52,3.39,1.69,7.06,1.85,10.69,0.36,8.09,5.44,40,5.8,48.1a4.35,4.35,0,0,1-1,3.59c-0.95.95,2.24,5.75,0.7,6.19a305.18,305.18,0,0,1-30.4,6.49c-9.22,1.27-9.37,3-18.58,4.22-0.76.1-10.1,3-10.79,2.78-0.93-.23,1.63-10.73,1.27-11.35-2-3.58-7.68-31.28-8.57-35.14l-4.75-20.52"/><path class="cls-9" d="M96.33,318.4a386.21,386.21,0,0,1,38.27-12.67q9.88-2.7,19.89-4.89c3.16-.69,8.09-2.93,10.64.16,1.55,1.88,1,7,1.18,9.41,1.09,15,4.34,29.88,5.58,44.91,0.25,3-1.38,5.3-.66,8.27,0.22,0.9.74,1.75,0.89,2.67-0.24-1.49,1.73-.73-0.41-1-2-.22-5.1,1.28-7.08,1.74-9.33,2.17-19.12,3.06-28.32,5.61-4,1.11-7.89,2-12,2.9-1.77.37-8.06,1.24-9.22,2.51-0.86.95,1,2.07,1.67,1.33a8.8,8.8,0,0,0,.27-2.15c0.23-1.56.56-3.1,0.81-4.65a10.37,10.37,0,0,0-.57-6.08c-2.59-7.5-4-15.55-5.63-23.29-2.19-10.09-4.51-20.15-6.84-30.21-0.73-3.13-5.55-1.81-4.82,1.33,2.33,10.06,4.66,20.12,6.84,30.21,1.71,7.91,3.07,16.22,5.82,23.86,0.88,2.45.11,4.06-.43,7.5-0.33,2.07-1.35,5.59,1,6.93s6.63-.85,8.79-1.46c4.22-1.19,8.55-1.76,12.75-3,10.12-3.06,20.9-4.1,31.21-6.49,2.79-.65,8.48-0.95,10.4-3.2,1-1.11.81-2.38,0.59-3.73-0.15-.87-0.87-1.81-0.89-2.67,0-1.07.87-2.48,1-3.61,0.31-3.14-.47-6.64-0.85-9.75-0.58-4.79-1.24-9.58-1.89-14.37-1.11-8.2-2.49-16.43-3-24.7-0.3-4.65.08-13.37-5.37-15.42-2.76-1-6.39.26-9.07,0.82q-6.4,1.34-12.75,2.88A387.83,387.83,0,0,0,95,313.58c-3,1.16-1.68,6,1.33,4.82h0Z"/><path class="cls-8" d="M367,326.38c-10.16-.94-20.78-3.18-30.31.48C323.32,332,316.4,349.32,322,362.57s22.1,20.45,35.82,16.17C373,374,382.93,356.36,379,340.7a18.91,18.91,0,0,0-4.4-7.82c-2.88-3.23-3.73-8.56-7.52-6.5"/><path class="cls-9" d="M367,323.38c-15.36-1.52-32.39-4.19-43.14,9.55-7.78,9.95-9.38,24.49-2.32,35.27s21,16.53,33.73,14.22c13-2.35,23.25-13.5,26.42-26,1.74-6.89,1.7-15.06-1.92-21.36a69.87,69.87,0,0,0-6.56-9.5c-1.9-2.26-4.18-3.13-7-2-3.57,1.37-2,7.18,1.6,5.79,1.05-.41,3.6,4.47,4.6,5.73a18.6,18.6,0,0,1,4.35,11.12A30.1,30.1,0,0,1,371.93,364c-7.69,12-22.67,16.36-35.4,9.7-12.19-6.38-16.92-20.58-10.61-32.91,8.25-16.13,26.06-13,41.12-11.46,3.84,0.38,3.81-5.62,0-6h0Z"/><path class="cls-9" d="M331.87,349.06c-0.46,5.93-.45,24.23,9.49,15.9s19.79-16.73,29.69-25.09c3-2.5-1.31-6.72-4.24-4.24L351.22,348.8l-7.42,6.27c-1.85,1.56-5.54,5.88-7.93,6.34l2.92,0.77c-2.11-2.3-1.14-10.22-.92-13.12,0.3-3.85-5.71-3.83-6,0h0Z"/><path class="cls-8" d="M180.22,325c-10.16-.94-20.78-3.18-30.31.48-13.41,5.15-20.33,22.46-14.76,35.71s22.1,20.45,35.82,16.17c15.23-4.76,25.14-22.38,21.17-38a18.91,18.91,0,0,0-4.4-7.82c-2.88-3.23-3.73-8.56-7.52-6.5"/><path class="cls-9" d="M180.22,322c-15.36-1.52-32.39-4.19-43.14,9.55-7.78,9.95-9.38,24.49-2.32,35.27s21,16.53,33.73,14.22c13-2.35,23.25-13.5,26.42-26,1.74-6.89,1.7-15.06-1.92-21.36a69.87,69.87,0,0,0-6.56-9.5c-1.9-2.26-4.18-3.13-7-2-3.57,1.37-2,7.18,1.6,5.79,1.05-.41,3.6,4.47,4.6,5.73A18.6,18.6,0,0,1,190,344.77a30.1,30.1,0,0,1-4.86,17.92c-7.69,12-22.67,16.36-35.4,9.7-12.19-6.38-16.92-20.58-10.61-32.91,8.25-16.13,26.06-13,41.12-11.46,3.84,0.38,3.81-5.62,0-6h0Z"/><path class="cls-9" d="M145.05,347.71c-0.46,5.93-.45,24.23,9.49,15.9s19.79-16.73,29.69-25.09c3-2.5-1.31-6.72-4.24-4.24L164.4,347.45,157,353.72c-1.85,1.56-5.54,5.88-7.93,6.34l2.92,0.77c-2.11-2.3-1.14-10.22-.92-13.12,0.3-3.85-5.71-3.83-6,0h0Z"/><path class="cls-8" d="M507.23,178.75c-10.16-.94-20.78-3.18-30.31.48-13.41,5.15-20.33,22.46-14.76,35.71s22.1,20.45,35.82,16.17c15.23-4.76,25.14-22.38,21.17-38a18.91,18.91,0,0,0-4.4-7.82c-2.88-3.23-3.73-8.56-7.52-6.5"/><path class="cls-9" d="M507.23,175.75c-15.36-1.52-32.39-4.19-43.14,9.55-7.78,9.95-9.38,24.49-2.32,35.27s21,16.53,33.73,14.22c13-2.35,23.25-13.5,26.42-26,1.74-6.89,1.7-15.06-1.92-21.36a69.87,69.87,0,0,0-6.56-9.5c-1.9-2.26-4.18-3.13-7-2-3.57,1.37-2,7.18,1.6,5.79,1.05-.41,3.6,4.47,4.6,5.73A18.6,18.6,0,0,1,517,198.49a30.1,30.1,0,0,1-4.86,17.92c-7.69,12-22.67,16.36-35.4,9.7-12.19-6.38-16.92-20.58-10.61-32.91,8.25-16.13,26.06-13,41.12-11.46,3.84,0.38,3.81-5.62,0-6h0Z"/><path class="cls-9" d="M472.06,201.43c-0.46,5.93-.45,24.23,9.49,15.9s19.79-16.73,29.69-25.09c3-2.5-1.31-6.72-4.24-4.24L491.4,201.17,484,207.44c-1.85,1.56-5.54,5.88-7.93,6.34l2.92,0.77c-2.11-2.3-1.14-10.22-.92-13.12,0.3-3.85-5.71-3.83-6,0h0Z"/></g></g></g></svg>