<svg id="Layer_1" data-name="Layer 1" xmlns="http://www.w3.org/2000/svg" xmlns:xlink="http://www.w3.org/1999/xlink" viewBox="0 0 580 580"><defs><style>.cls-1,.cls-7{fill:none;}.cls-2{fill:#fdea8b;}.cls-3{clip-path:url(#clip-path);}.cls-4{fill:#9acd72;opacity:0.28;}.cls-5{fill:url(#linear-gradient);}.cls-6{fill:#004f7f;}.cls-7{stroke:#004f7f;stroke-miterlimit:10;stroke-width:4px;}.cls-8{fill:#fff;}.cls-9{fill:#aa91ab;}</style><clipPath id="clip-path"><rect class="cls-1" width="580" height="580"/></clipPath><linearGradient id="linear-gradient" x1="52.19" y1="442.27" x2="531.92" y2="442.27" gradientUnits="userSpaceOnUse"><stop offset="0" stop-color="#fff"/><stop offset="0.13" stop-color="#f9fcf6"/><stop offset="0.35" stop-color="#e7f3dd"/><stop offset="0.62" stop-color="#cae5b5"/><stop offset="0.93" stop-color="#a3d17e"/><stop offset="1" stop-color="#9acd72"/></linearGradient></defs><title>iiLAB -U1-concepts-07-AFTER EMERGENCY</title><rect class="cls-2" width="580" height="580"/><g class="cls-3"><circle class="cls-4" cx="325.81" cy="169.79" r="311.55" transform="translate(59.86 423.26) rotate(-71.15)"/><ellipse class="cls-5" cx="292.05" cy="442.27" rx="239.87" ry="85.63"/><path class="cls-6" d="M138.76,152.41c4.68-10.61,16.12-14.39,26.79-16.11,13.33-2.15,28.91-3,40.86,4.25,24.82,15.14,24.65,48.21,23.95,73.68a2.52,2.52,0,0,0,2.5,2.5c5.69-.42,16-1.18,17.53,6.34,1.36,6.58-7.27,7-11.56,8.43-3,1-6,2.48-7.5,5.45-2.37,4.62-.42,10.81-0.71,15.84-1.49,25.82-24,48.19-50.71,44.29-22.21-3.25-36-24.34-40.6-44.73a82,82,0,0,1-1.84-14.44c-0.23-4.93-.78-9.3-4.9-12.48s-9.47-3.24-13.91-5.66c-2.88-1.57-7.34-5.49-3.29-8.64,1.94-1.51,5.42-1.36,7.74-1.76,10.45-1.8,15.09-11.07,14.91-21.09-0.14-7.72-3.32-15.1-3.22-22.83,0.09-7,5.28-16.89,13.75-13.86,3,1.09,4.34-3.74,1.33-4.82-12-4.31-20.32,9.23-20,19.6,0.3,11.39,10.26,34.61-7.42,38.07-4.62.9-10.26,0.94-12.78,5.7-2.44,4.61.38,9.5,4.11,12.36,5,3.83,14.13,3.34,17.45,8.91,1.81,3,1.22,7.16,1.51,10.61a85.46,85.46,0,0,0,1.22,8.92c4.4,23.12,19.84,47,44.67,51,27.38,4.36,52.05-16.39,56.35-43a56.88,56.88,0,0,0,.76-10.87c-0.13-4.08-1.65-9,2.81-11.1,4.84-2.32,10.91-1.92,14.75-6.22,3.49-3.91,2.71-9.51-.28-13.44-4.72-6.21-13.05-6.1-20.09-5.58l2.5,2.5c0.77-28-.1-64.69-28.94-79.41-13-6.62-28.94-5.61-42.89-3.23-11.64,2-24,6.78-29.09,18.29-1.29,2.92,3,5.46,4.32,2.52h0Z"/><path class="cls-6" d="M213.11,202.12a32.81,32.81,0,0,0-21.39-17.22c-3.12-.79-4.45,4-1.33,4.82a28,28,0,0,1,18.4,14.92c1.43,2.88,5.75.35,4.32-2.52h0Z"/><path class="cls-6" d="M175.15,183.4a108.59,108.59,0,0,0-19.38,19.67c-2,2.55,2.38,5,4.32,2.52a104,104,0,0,1,18.59-18.66c2.53-2-1-5.49-3.54-3.54h0Z"/><path class="cls-6" d="M207.12,216.37c-0.08,1.07-.22,2.14-0.3,3.21l3.16-2.41c-0.71-.25-1.43-0.46-2.15-0.68a2.43,2.43,0,0,1-1.13-.8v3.54a3.57,3.57,0,0,1,.37-0.36q-0.23.21,0.14,0c-0.35.12,0.4-.12,0.5-0.14h0a4,4,0,0,1,.52,0c-0.4-.05.48,0.19,0.58,0.23a2.52,2.52,0,0,0,3.08-1.75,2.56,2.56,0,0,0-1.75-3.08,6.48,6.48,0,0,0-6.94,1.58,2.56,2.56,0,0,0,0,3.54c1.46,1.66,3.5,2.06,5.49,2.76,1.64,0.58,3.05-.91,3.16-2.41,0.08-1.07.22-2.14,0.3-3.21a2.52,2.52,0,0,0-2.5-2.5,2.55,2.55,0,0,0-2.5,2.5h0Z"/><path class="cls-6" d="M171.31,219.35a9.38,9.38,0,0,1,.76,1.48,3.93,3.93,0,0,1,.16.48,0.39,0.39,0,1,0,0-.08s0.17-.43,0,0c0-.11.42-0.61,0.11-0.27,0.14-.16.27-0.15,0,0a0.54,0.54,0,1,0-.15,0l0.27-.05q-0.36,0-.06,0c0.18,0,.53.27,0.2,0,0.07,0.05.33,0.35,0.34,0.35a5,5,0,0,1-.23-1.06,2.41,2.41,0,0,1,.84-2.18c2.38-2.17-1.16-5.7-3.54-3.54A7.43,7.43,0,0,0,167.8,221c0.3,2.28,1.48,4.41,3.94,4.78a4.84,4.84,0,0,0,4.88-2.28c1.25-2.23.2-4.66-1-6.66-1.65-2.76-6-.25-4.32,2.52h0Z"/><path class="cls-6" d="M190.85,197.76a146.21,146.21,0,0,1,2.92,41.79l1.84-2.41L185,239c-3.16.55-1.82,5.37,1.33,4.82L196.94,242a2.53,2.53,0,0,0,1.84-2.41,151,151,0,0,0-3.1-43.12c-0.68-3.14-5.5-1.81-4.82,1.33h0Z"/><path class="cls-6" d="M428.1,146.52c-9.77-12-28.86-15-41.41-5.5-12,9.06-15.12,26.73-7.72,39.61l3.42-3.42c-14-6-31.77,1.66-34.35,17.39-1.15,7,1.07,14.75,6.86,19.21a17.62,17.62,0,0,0,20.93.54c2.15-1.58,1-5.4-1.93-4.57-11,3.12-22.26,11.62-20.12,24.45,1.68,10.06,13.39,15.24,21.56,8.86,2.54-2-1-5.49-3.54-3.54a8,8,0,0,1-9.18,0c-3.81-2.43-4.7-7.17-3.71-11.33,1.83-7.71,9.28-11.67,16.3-13.67L373.31,210a12.65,12.65,0,0,1-15.59-.39c-4.82-3.89-5.91-10.78-4.24-16.49,3.14-10.78,16.4-15.94,26.39-11.63,2.16,0.93,4.77-1.06,3.42-3.42-6.23-10.85-3.55-26.23,7-33.54,10.82-7.5,26.19-4.46,34.3,5.48,2,2.49,5.55-1.06,3.54-3.54h0Z"/><path class="cls-6" d="M425.37,155.07c0.66-11.73,14.72-21.35,25.63-15.4,9.24,5,12,18.07,6.09,26.56l2.82-1.15c-0.88-.33,5.86-6.56,6.2-6.79a24.42,24.42,0,0,1,8.24-3.64c3.24-.75,7.66-1.42,10.28,1,2.89,2.63,1.41,6.56.53,10a96.4,96.4,0,0,1-17,34.8c-1,1.35.12,3.24,1.49,3.67,7.63,2.37,13.17,10.41,11.66,18.49-1.58,8.44-10.12,13.63-18.3,12.85-3.2-.31-3.18,4.7,0,5,10.87,1,21.81-6.77,23.33-17.83,1.43-10.39-5.54-20.29-15.36-23.33L472.5,203a100.8,100.8,0,0,0,15.56-29.37c2.23-6.74,7-19.15-1.71-23.35-7.37-3.56-17.89,0-24,4.6-3.86,2.89-12,12-3.8,15.06a2.54,2.54,0,0,0,2.82-1.15c7.81-11.29,3.06-28.9-9.76-34.3-14.19-6-30.45,5.88-31.28,20.61-0.18,3.21,4.82,3.2,5,0h0Z"/><path class="cls-6" d="M380.14,193.56C369,221.12,373.47,254,390.79,278c4,5.51,8.82,11.88,14.62,15.58,6.33,4,11.68-3.91,15.41-8.19a124.14,124.14,0,0,0,23.83-41.56,122.81,122.81,0,0,0,5.66-54.65c-0.39-3.15-5.4-3.19-5,0a120.12,120.12,0,0,1-19.83,82.05c-3.75,5.51-8.19,12.25-13.54,16.34-5.61,4.29-13.82-7.9-16.83-12.09a86.37,86.37,0,0,1-14.95-36.21,82.41,82.41,0,0,1,4.81-44.4c1.2-3-3.63-4.28-4.82-1.33h0Z"/><path class="cls-6" d="M444.82,226.31c5.1-6.73,14.45-2.76,19.06,2.21s10.78,14.19,9.31,21.2c-2.94,14-30.81,23.82-34.14,5.38-0.57-3.16-5.39-1.82-4.82,1.33,4.35,24.08,41.19,12.82,44-6.77,1.39-9.6-6.76-21.95-14.06-27.64s-17.86-5.9-23.67,1.77c-1.94,2.56,2.4,5.06,4.32,2.52h0Z"/><path class="cls-6" d="M420,199.21A8.39,8.39,0,0,0,418.67,210a2.55,2.55,0,0,0,3.42.9,12.08,12.08,0,0,0,4.19-4.05c0.89-1.44,2.08-4,1.39-5.66-1.47-3.56-7.12-2.7-7.89.89-0.67,3.14,4.15,4.48,4.82,1.33-0.19.9-1.14,0.37-1.38,0L423,201.43a7,7,0,0,1-3.4,5.1l3.42,0.9a3.43,3.43,0,0,1,.55-4.69c2.4-2.15-1.14-5.67-3.54-3.54h0Z"/><path class="cls-6" d="M388.16,213.82a4.85,4.85,0,0,0,3.29-.38,4,4,0,0,0,1.61-1.6,5.07,5.07,0,0,0,.32-3.92,5.38,5.38,0,0,0-2.32-3.05,4.25,4.25,0,0,0-5.24.81,3.91,3.91,0,0,0-1.07,2.58,3.71,3.71,0,0,0,1.07,2.58,3.67,3.67,0,0,0,2.58,1.07,3.59,3.59,0,0,0,2.58-1.07l0.16-.17-0.74.57,0.16-.1-0.87.37,0.16,0-1,.13H389l-1-.13,0.15,0-0.87-.37a1,1,0,0,1,.2.12l-0.74-.57a1.57,1.57,0,0,1,.22.23l-0.57-.74a2.34,2.34,0,0,1,.25.43l-0.37-.87a2.51,2.51,0,0,1,.17.63l-0.13-1a1.74,1.74,0,0,1,0,.39l0.13-1a1.15,1.15,0,0,1-.06.22l0.37-.87-0.08.14,0.57-.74-0.07.07,0.74-.57-0.14.08,0.87-.37-0.11,0,1-.13a1.14,1.14,0,0,1-.28,0l1,0.13H390.1a3.93,3.93,0,0,0-2.81.37,3.65,3.65,0,0,0-1.31,5,3.58,3.58,0,0,0,2.18,1.68h0Z"/><path class="cls-6" d="M400.68,264.15l11.51-2.55c3.14-.7,1.81-5.52-1.33-4.82l-11.51,2.55c-3.14.7-1.81,5.52,1.33,4.82h0Z"/><path class="cls-6" d="M450,292.75c10.15-3.32,21-.15,28.9,6.79,8.5,7.46,12.66,18.72,14,29.72,2.65,22.4-4.3,45.4-17.06,63.73-1.84,2.65,2.49,5.15,4.32,2.52,14.48-20.8,22-48.2,16.6-73.34-4.6-21.45-24.56-41.94-48.05-34.25-3,1-1.74,5.83,1.33,4.82h0Z"/><path class="cls-6" d="M324.65,378.84c-5.53-8.42-5.58-18.46-4.15-28.12a187.11,187.11,0,0,1,6.63-28.56c5.74-18.21,16.43-36.31,34.94-43.71,3-1.18,1.66-6-1.33-4.82-19.68,7.87-31.45,26-37.89,45.51a177.06,177.06,0,0,0-7.49,32.5c-1.33,10.28-.87,20.82,5,29.72,1.76,2.68,6.09.18,4.32-2.52h0Z"/><path class="cls-6" d="M131.64,256.79c-11.35,3-23.12,8-32,15.93-9.56,8.51-6,22.57-4.69,33.79a354.15,354.15,0,0,0,7.1,40.48c1.59,6.7,2.9,14.06,5.5,20.46,1.43,3.53,4,6.28,7.87,4.46,2.91-1.37.37-5.68-2.52-4.32,0,0-7.3-27.54-7.9-30.39q-3.5-16.64-5.35-33.56c-0.54-4.94-1.09-9.93-1.27-14.9-0.23-6.51,2.21-10.76,7.44-14.55A81,81,0,0,1,133,261.61c3.11-.81,1.79-5.64-1.33-4.82h0Z"/><path class="cls-6" d="M252,384.13c3.22,0,3.22-5,0-5s-3.22,5,0,5h0Z"/><path class="cls-6" d="M248.25,257.37c13.77,12.21,21.3,29,26.95,46.21,2.89,8.81,5.9,17.84,7.75,26.92,2.34,11.46-.06,22.12-4.51,32.75-1.24,3,3.6,4.26,4.82,1.33,4.2-10,6.79-20.43,5.22-31.35-1.51-10.49-5.16-20.93-8.46-31-5.9-17.95-13.84-35.66-28.23-48.42-2.4-2.13-5.95,1.4-3.54,3.54h0Z"/><ellipse class="cls-7" cx="283.58" cy="434.67" rx="239.87" ry="85.63"/><path class="cls-8" d="M205.22,412.18c18-.41,26.72.85,43,8.38-3.17,5.55-25.94,27-32.15,28.45-22.48,5.41-28.61,4.81-54.16,1.37-17.55-2.36-24.61-2.71-41.57-7.8-3.27-1-7.12-3.16-6.75-6.55,0.22-2.07,2-3.58,3.69-4.79a73.49,73.49,0,0,1,32-12.89"/><path class="cls-6" d="M205.22,414.68c15-.3,28,1.77,41.77,8l-0.9-3.42c-4.2,6.91-11.6,12.74-17.62,18a72.56,72.56,0,0,1-10.52,8.1c-4.15,2.43-9.65,2.93-14.33,3.77-11,2-21.87,1.27-32.94-.12-13.57-1.71-27.36-3-40.65-6.36-3-.77-9.18-1.35-11.48-3.54-4.82-4.59,3.58-8.26,7-10.17A73.61,73.61,0,0,1,150,420.76c3.17-.5,1.82-5.32-1.33-4.82a77.52,77.52,0,0,0-24.15,7.92c-4.73,2.49-14.13,6.69-13.34,13.38s10.1,8.29,15.26,9.66a176,176,0,0,0,21.9,4.2c14.83,2,30.2,5.16,45.22,4.29,11.24-.65,22.93-2.31,32-9.28a167,167,0,0,0,14.64-12.84c3.59-3.49,7.59-7.14,10.22-11.46a2.52,2.52,0,0,0-.9-3.42c-6.92-3.16-14-6-21.49-7.42s-15.17-1.45-22.8-1.3c-3.21.06-3.22,5.06,0,5h0Z"/><path class="cls-8" d="M215,384.69c0,9.21-2.92,18.15-6,26.82-2.07,5.77-4.45,11.79-9.23,15.63-5.8,4.67-13.82,5.11-21.27,5.36-4.55.15-9.24,0.28-13.49-1.36-7.44-2.86-11.9-10.43-14.94-17.8a107,107,0,0,1-7.52-29.95"/><path class="cls-6" d="M212.48,384.69c-0.23,10.83-3.74,22.22-8.28,32-5.12,11-14.55,12.92-25.76,13.28-5.29.17-10.88,0.31-15.49-2.7-4.05-2.64-6.77-6.84-8.9-11.09-5.07-10.1-7.82-21.64-9.05-32.82-0.35-3.16-5.35-3.2-5,0,1.41,12.77,4.47,26.06,10.81,37.36,2.48,4.43,5.79,8.66,10.24,11.26,5.3,3.11,11.44,3.18,17.4,3,11.15-.36,22.05-2.08,28.3-12.35,3.22-5.3,5.14-11.59,7-17.46a72.34,72.34,0,0,0,3.73-20.49c0.07-3.22-4.93-3.22-5,0h0Z"/><path class="cls-6" d="M145.4,394.23c-6.27-4-13.64-8.27-21.22-5.26-6.92,2.75-8.69,10.1-5.17,16.38,3.63,6.45,10.86,9.71,17.87,11,5.75,1,13.93,2.31,17.8-3.15a1.51,1.51,0,0,0-.9-2.2L141,409c-4.12-.63-9.49-0.83-13-3.35-4.89-3.54-1-8.1,3.68-9a23.46,23.46,0,0,1,8.65.56l2.18,0.75a6,6,0,0,1,1.72,5.88,5.88,5.88,0,0,0,.7,2c2.5,3.53,5.27,0,5.93-2.7,1.23-5.1-1-10.26-6.33-11.44-1.88-.42-2.68,2.47-0.8,2.89q5.72,1.65,4.24,7.75-1.36-.33-0.34-2a6.51,6.51,0,0,0-1.07-3c-1.24-1.73-3.44-2.6-5.42-3.11-4.45-1.16-15.19-2.42-18.41,2.22s0.91,10.23,5,12.4c3.25,1.71,7,2.09,10.6,2.64L153,413.86l-0.9-2.2c-2.86,4-11.07,2.44-15.11,1.65-4.83-.95-9.66-2.82-13.12-6.43-5.31-5.55-4.58-14.25,3.72-15.73,6-1.07,11.51,2.62,16.3,5.69,1.63,1,3.14-1.55,1.51-2.59h0Z"/><path class="cls-8" d="M349.4,427.48c-17.81,2.38-20.11-1.09-35.05,8.88,4,5,19.18,17.82,25.55,18.34,23,1.86,23.16.49,46.26-.38,17.69-.67,35.82-2.27,51.78-9.93,3.08-1.48,6.55-4.22,5.66-7.52-0.54-2-2.53-3.23-4.38-4.16a73.49,73.49,0,0,0-33.64-7.78"/><path class="cls-6" d="M349.4,425c-6.39.81-12.9,0.7-19.26,1.68s-11.78,4.08-17.05,7.53a2.55,2.55,0,0,0-.51,3.93c5.93,7.15,14.95,14.8,23.68,18.16,5.33,2.05,12,1.59,17.65,1.76,4.74,0.15,9.47,0,14.21-.29,14.79-.88,29.72-0.93,44.37-3.26a99.07,99.07,0,0,0,23.2-6.4c4.38-1.85,10.95-4.86,10.48-10.65-0.51-6.37-9.33-8.83-14.29-10.61a77.93,77.93,0,0,0-26.3-4.43c-3.22,0-3.22,5,0,5A73.27,73.27,0,0,1,431.36,432c3.29,1.23,13.59,4.33,7.62,8.9-3.23,2.48-7.7,3.75-11.53,5-16.18,5.27-33.12,5.42-49.93,6.33-11.39.61-22.49,1.11-33.9,0.28-10.58-.77-20.94-10-27.51-17.89l-0.51,3.93c5-3.26,10-6.22,16-7s11.9-.75,17.81-1.49c3.15-.4,3.19-5.4,0-5h0Z"/><path class="cls-8" d="M345.74,392.39c0,9.21,2.92,18.15,6,26.82,2.07,5.77,4.45,11.79,9.23,15.63,5.8,4.67,13.82,5.11,21.27,5.36,4.55,0.15,9.24.28,13.49-1.36,7.44-2.86,11.9-10.43,14.94-17.8a107,107,0,0,0,7.52-29.95"/><path class="cls-6" d="M343.24,392.39a82.77,82.77,0,0,0,10.36,37.28c6.15,10.77,17.2,12.65,28.68,13,12,0.39,21-2.86,27.27-13.58,6.65-11.37,9.75-25.07,11.18-38,0.35-3.19-4.65-3.17-5,0-1.21,11-3.9,22.16-8.72,32.13-2.06,4.26-4.68,8.6-8.62,11.38-4.76,3.36-10.54,3.27-16.11,3.09-10.83-.35-20.25-2-25.44-12.58-4.83-9.84-8.37-21.77-8.6-32.72-0.07-3.21-5.07-3.22-5,0h0Z"/><path class="cls-6" d="M416.83,404.53c4.53-2.9,9.63-6.3,15.26-5.87,8.93,0.68,10.42,10,4.77,15.92-3.3,3.45-7.85,5.29-12.44,6.29-4.12.89-12.83,2.68-15.79-1.5l-0.9,2.2,14.63-2.23c3.56-.55,7.35-0.93,10.6-2.64,4.11-2.17,8.24-7.78,5-12.4s-13.93-3.39-18.41-2.22c-2,.52-4.2,1.38-5.42,3.11a6.64,6.64,0,0,0-1.07,3q1,1.65-.34,2-1.48-6.1,4.24-7.75c1.88-.42,1.09-3.31-0.8-2.89-5.33,1.18-7.57,6.34-6.33,11.44,0.65,2.68,3.39,6.28,5.93,2.7a5.87,5.87,0,0,0,.7-2,3.74,3.74,0,0,1,.76-3.8,2.92,2.92,0,0,1,3.13-2.83,23.4,23.4,0,0,1,8.65-.56c4.65,0.86,8.58,5.42,3.68,9-3.51,2.54-8.85,2.73-13,3.35l-12.8,2a1.51,1.51,0,0,0-.9,2.2c3.75,5.29,11.49,4.21,17.11,3.28,7.24-1.2,14.8-4.42,18.56-11.1,3.41-6.07,1.92-13.13-4.6-16.13-7.65-3.52-15.41.93-21.79,5-1.62,1-.12,3.64,1.51,2.59h0Z"/><path class="cls-6" d="M168.27,281.49a12.52,12.52,0,0,1,15.25-8.83c3.11,0.85,4.44-4,1.33-4.82a17.59,17.59,0,0,0-21.4,12.32c-0.82,3.11,4,4.44,4.82,1.33h0Z"/><path class="cls-6" d="M87.95,125a63.11,63.11,0,0,0,9.92,14.8c2.15,2.4,5.67-1.14,3.54-3.54a58.53,58.53,0,0,1-9.14-13.78c-1.39-2.9-5.7-.37-4.32,2.52h0Z"/><path class="cls-6" d="M113.29,105.37a27.11,27.11,0,0,0,5.57,11.53c2,2.51,5.53-1,3.54-3.54a21.78,21.78,0,0,1-4.28-9.32c-0.66-3.15-5.48-1.82-4.82,1.33h0Z"/><path class="cls-6" d="M142.86,92.3a41.12,41.12,0,0,0,2.95,15.91c1.18,2.95,6,1.66,4.82-1.33a37.45,37.45,0,0,1-2.77-14.58c0-3.22-5-3.22-5,0h0Z"/><path class="cls-6" d="M172.74,104.38a25.53,25.53,0,0,0-2.28,10.78c0,3.21,5,3.22,5,0a19.63,19.63,0,0,1,1.6-8.26c1.29-2.92-3-5.46-4.32-2.52h0Z"/><path class="cls-6" d="M205.12,105.33l-1,1.91a2.5,2.5,0,0,0,4.32,2.52l1-1.91a2.5,2.5,0,1,0-4.32-2.52h0Z"/><path class="cls-6" d="M155.84,235.07a41.79,41.79,0,0,0,.75,13.59c0.55,2.54,4.1,2.21,4.82,0l5-15.35-4.91-.66,0.16,14.4a2.51,2.51,0,0,0,4.91.66l3.4-10.87-4.91-.66,0.52,8.6a2.52,2.52,0,0,0,4.66,1.26l3.17-5.14c1.69-2.75-2.63-5.26-4.32-2.52l-3.17,5.14,4.66,1.26-0.52-8.6a2.51,2.51,0,0,0-4.91-.66l-3.4,10.87,4.91,0.66-0.16-14.4a2.51,2.51,0,0,0-4.91-.66l-5,15.35h4.82a37.55,37.55,0,0,1-.57-12.26c0.36-3.19-4.65-3.17-5,0h0Z"/><path class="cls-6" d="M211.3,229.7a92.21,92.21,0,0,0-7,12.75,2.5,2.5,0,0,0,4.32,2.52l9.11-12.92-4.66-1.26a24.36,24.36,0,0,1-2.41,10.89l4.57,1.93a32.53,32.53,0,0,1,5.83-9.23L216.92,232l-5.07,13.52c-1.07,2.86,3,4,4.57,1.93l6.23-8.49L218.09,237l-0.95,5.93c-0.5,3.15,4.31,4.5,4.82,1.33l0.95-5.93a2.51,2.51,0,0,0-4.57-1.93l-6.23,8.49,4.57,1.93,5.07-13.52c0.88-2.34-2.57-4.24-4.18-2.43a39.63,39.63,0,0,0-7.11,11.44c-1.07,2.6,3.34,4.47,4.57,1.93a30,30,0,0,0,3.09-13.42c0-2.62-3.28-3.21-4.66-1.26l-9.11,12.92,4.32,2.52a92.21,92.21,0,0,1,7-12.75c1.76-2.7-2.56-5.21-4.32-2.52h0Z"/><path class="cls-6" d="M414.24,192.28a18,18,0,0,1,20.45,8.28c1.62,2.78,5.95.26,4.32-2.52a23.09,23.09,0,0,0-26.1-10.57c-3.1.86-1.78,5.69,1.33,4.82h0Z"/><path class="cls-6" d="M230.9,135.9a237.13,237.13,0,0,1,19.91-24.25c2.2-2.35-1.33-5.89-3.54-3.54a246.85,246.85,0,0,0-20.7,25.27c-1.87,2.62,2.46,5.12,4.32,2.52h0Z"/><path class="cls-6" d="M228.06,113l12-16c1.93-2.57-2.41-5.07-4.32-2.52l-12,16c-1.93,2.57,2.41,5.07,4.32,2.52h0Z"/><path class="cls-6" d="M177.26,151.82l2.22,18c0.39,3.15,5.39,3.19,5,0l-2.22-18c-0.39-3.15-5.39-3.19-5,0h0Z"/><path class="cls-6" d="M377.28,199a17.69,17.69,0,0,1,19.83-7.42c3.1,0.88,4.42-3.94,1.33-4.82A22.82,22.82,0,0,0,373,196.52c-1.74,2.72,2.58,5.22,4.32,2.52h0Z"/><path class="cls-6" d="M402.9,205.41a134.48,134.48,0,0,0-5.82,33.05,2.52,2.52,0,0,0,1.84,2.41,8.7,8.7,0,0,1,4.41,2.07c2.49,2,6.06-1.54,3.54-3.54a16.38,16.38,0,0,0-6.61-3.36l1.84,2.41a129,129,0,0,1,5.64-31.72c1-3.08-3.87-4.4-4.82-1.33h0Z"/><path class="cls-8" d="M146.17,380.24c11.86-3.14,24.24-3.56,36.5-4,5.42-.18,10.92-0.35,16.19.93s10.24,4,15,6.71a131.47,131.47,0,0,1-47.19,9.84c-8,.17-17.1-0.91-22.07-7.23a2.36,2.36,0,0,1-.68-1.89c0.16-.67,1.21-1,1.55-0.44"/><path class="cls-6" d="M146.83,382.65c11.14-2.82,22.55-3.43,34-3.81,5.49-.18,11.07-0.51,16.49.59s10.46,3.92,15.33,6.64l0.6-4.57a132.19,132.19,0,0,1-36.29,9.13,87.89,87.89,0,0,1-16,.48,29.64,29.64,0,0,1-7.77-1.58c-1.1-.41-6.39-4.17-6.73-3.83l-2.43.64,0.84,0.26c3.08,0.95,4.4-3.88,1.33-4.82l-0.84-.26a2.5,2.5,0,0,0-2.43.64c-3.8,3.76,1.31,8.12,4.6,10.16,5.23,3.25,11.76,3.93,17.78,3.95a132,132,0,0,0,49.28-9.94c1.87-.75,2.64-3.43.6-4.57-4.74-2.65-9.57-5.33-14.84-6.74-5.76-1.54-11.75-1.41-17.66-1.23-12.49.39-25,1-37.16,4.05-3.12.79-1.8,5.61,1.33,4.82h0Z"/><path class="cls-8" d="M414.55,387.94c-11.86-3.14-24.24-3.56-36.5-4-5.42-.18-10.92-0.35-16.19.93s-10.24,4-15,6.71A131.47,131.47,0,0,0,394,401.45c8,0.17,17.1-.91,22.07-7.23a2.36,2.36,0,0,0,.68-1.89c-0.16-.67-1.21-1-1.55-0.44"/><path class="cls-6" d="M415.21,385.53c-12.16-3.08-24.67-3.66-37.16-4.05-5.62-.17-11.35-0.33-16.86,1s-10.67,4.18-15.64,7c-2.05,1.15-1.28,3.81.6,4.57A132,132,0,0,0,395.43,404c6,0,12.55-.69,17.78-3.95,3.28-2,8.4-6.39,4.6-10.16a2.5,2.5,0,0,0-2.43-.64l-0.84.26c-3.07.94-1.76,5.77,1.33,4.82l0.84-.26-2.43-.64c-0.29-.29-6,3.55-6.73,3.83a29.33,29.33,0,0,1-7.77,1.58,88.24,88.24,0,0,1-16-.48,132.18,132.18,0,0,1-36.29-9.13l0.6,4.57c4.59-2.57,9.27-5.24,14.44-6.45,5.68-1.33,11.59-1,17.37-.78,11.44,0.39,22.85,1,34,3.81,3.12,0.79,4.45-4,1.33-4.82h0Z"/><path class="cls-9" d="M369.8,389c-1.64-2.81-5.57-5.51-6.2-8.69-0.75-3.71,4.66-8.26,6.08-11.48a13.11,13.11,0,0,0,1.07-8.07c-0.78-3.86-4.26-7.52-3.32-11.59,0.72-3.13-4.1-4.47-4.82-1.33-0.79,3.45.1,6.16,1.48,9.32,1.26,2.9,2.53,5.47,1.45,8.66-0.82,2.43-2.56,4.57-4.07,6.59-2.11,2.81-3.73,5.6-2.7,9.23,1.13,4,4.71,6.45,6.71,9.88,1.62,2.78,5.94.26,4.32-2.52h0Z"/><path class="cls-9" d="M384.55,391.3a18.34,18.34,0,0,0-.92-3.57c-0.88-3.13-.63-4.24,1-6.8a16.37,16.37,0,0,0,2.79-8.87c0.26-8.51-2.25-17.55-3.55-25.93-0.49-3.17-5.31-1.82-4.82,1.33l2,12.84c0.68,4.4,2,9.22,1.16,13.67-0.68,3.59-3.68,5.67-4.61,9.07-1,3.56,1.59,5,1.91,8.25s5.31,3.21,5,0h0Z"/><path class="cls-9" d="M394.59,390.73c0-5.09-.16-10.62,3.23-14.8,2-2.51,4.77-4.36,6.5-7.16a11.17,11.17,0,0,0,1.79-7.31c-0.49-3.75-3.59-6.54-4-10.26-0.32-3.17-5.33-3.2-5,0s2,5.47,3.2,8.49c2.07,5.26-1.67,8-5,11.59-5.17,5.52-5.8,12.14-5.73,19.46,0,3.22,5,3.22,5,0h0Z"/><path class="cls-9" d="M407.61,388.17l8.14-20.36c1.19-3-3.64-4.29-4.82-1.33l-8.14,20.36c-1.19,3,3.64,4.29,4.82,1.33h0Z"/><path class="cls-9" d="M195.24,383.79c1.9-3.26,5.14-5.6,6.45-9.23,1.4-3.89-.1-6.78-2.43-9.89-3.62-4.83-5.54-8.66-2.93-14.57,1.49-3.37,2.64-6.31,1.79-10-0.72-3.13-5.54-1.81-4.82,1.33,0.9,3.91-2.25,7.27-3.18,10.88a13.19,13.19,0,0,0,.93,8.78c1.49,3.36,5.05,6.11,5.67,9.7,0.72,4.17-3.78,7-5.79,10.46-1.63,2.78,2.69,5.3,4.32,2.52h0Z"/><path class="cls-9" d="M181.17,383.6c0.28-2.91,2.68-4.45,2.1-7.64-0.67-3.67-4.09-5.94-4.8-9.68-0.8-4.17.38-8.64,1-12.76l2.14-13.75c0.49-3.15-4.33-4.5-4.82-1.33-1.3,8.38-3.82,17.42-3.55,25.93a16.37,16.37,0,0,0,2.79,8.87c1.68,2.56,1.93,3.68,1,6.8a18.34,18.34,0,0,0-.92,3.57c-0.31,3.2,4.69,3.18,5,0h0Z"/><path class="cls-9" d="M171.13,383c0.07-7.33-.55-13.92-5.73-19.46-3.35-3.58-7.16-6.19-5-11.59,1.2-3,2.86-5.15,3.2-8.49s-4.68-3.18-5,0c-0.38,3.72-3.48,6.51-4,10.26a11.2,11.2,0,0,0,1.79,7.31c1.73,2.81,4.47,4.63,6.5,7.16,3.37,4.22,3.28,9.68,3.23,14.8,0,3.22,5,3.22,5,0h0Z"/><path class="cls-9" d="M157.93,379.14l-8.14-20.36c-1.18-3-6-1.66-4.82,1.33l8.14,20.36c1.18,3,6,1.66,4.82-1.33h0Z"/></g></svg>