<svg id="Layer_2" data-name="Layer 2" xmlns="http://www.w3.org/2000/svg" xmlns:xlink="http://www.w3.org/1999/xlink" viewBox="0 0 580 580"><defs><style>.cls-1{fill:none;}.cls-2{clip-path:url(#clip-path);}.cls-3{fill:#fdea8b;}.cls-4{fill:#fff;opacity:0.98;}.cls-5{fill:url(#linear-gradient);}.cls-6{fill:url(#linear-gradient-2);}.cls-7{fill:#004f7f;}.cls-8{fill:url(#linear-gradient-3);}.cls-9{fill:url(#linear-gradient-4);}.cls-10{fill:url(#linear-gradient-5);}.cls-11{fill:url(#linear-gradient-6);}.cls-12{fill:url(#linear-gradient-7);}.cls-13{fill:url(#linear-gradient-8);}</style><clipPath id="clip-path"><rect class="cls-1" x="1" width="580" height="580"/></clipPath><linearGradient id="linear-gradient" x1="111.12" y1="502.26" x2="521.12" y2="242.26" gradientUnits="userSpaceOnUse"><stop offset="0" stop-color="#557c3e"/><stop offset="0.02" stop-color="#66904b"/><stop offset="0.06" stop-color="#7dab5c"/><stop offset="0.1" stop-color="#8dbe68"/><stop offset="0.14" stop-color="#97c970"/><stop offset="0.18" stop-color="#9acd72"/><stop offset="0.26" stop-color="#9cce75"/><stop offset="0.32" stop-color="#a2d17e"/><stop offset="0.36" stop-color="#add78d"/><stop offset="0.4" stop-color="#bddea2"/><stop offset="0.44" stop-color="#d0e8be"/><stop offset="0.48" stop-color="#e8f4e0"/><stop offset="0.51" stop-color="#fff"/><stop offset="0.52" stop-color="#f6faf2"/><stop offset="0.57" stop-color="#daedcb"/><stop offset="0.63" stop-color="#c3e1ab"/><stop offset="0.69" stop-color="#b1d892"/><stop offset="0.74" stop-color="#a4d280"/><stop offset="0.81" stop-color="#9cce75"/><stop offset="0.88" stop-color="#9acd72"/><stop offset="1" stop-color="#557c3e"/></linearGradient><linearGradient id="linear-gradient-2" x1="133.42" y1="207.87" x2="493.42" y2="383.87" xlink:href="#linear-gradient"/><linearGradient id="linear-gradient-3" x1="295.58" y1="302.93" x2="175.58" y2="20.93" gradientUnits="userSpaceOnUse"><stop offset="0.07" stop-color="#aa91ab"/><stop offset="0.47" stop-color="#d5bf9c"/><stop offset="0.81" stop-color="#f3e091"/><stop offset="1" stop-color="#ffec8d"/></linearGradient><linearGradient id="linear-gradient-4" x1="336.38" y1="285.57" x2="216.38" y2="3.57" xlink:href="#linear-gradient-3"/><linearGradient id="linear-gradient-5" x1="375.84" y1="268.77" x2="255.84" y2="-13.23" xlink:href="#linear-gradient-3"/><linearGradient id="linear-gradient-6" x1="403.74" y1="256.9" x2="283.74" y2="-25.1" xlink:href="#linear-gradient-3"/><linearGradient id="linear-gradient-7" x1="85.3" y1="281.75" x2="534.32" y2="281.75" gradientUnits="userSpaceOnUse"><stop offset="0" stop-color="#557c3e"/><stop offset="0.02" stop-color="#66904b"/><stop offset="0.06" stop-color="#7dab5c"/><stop offset="0.1" stop-color="#8dbe68"/><stop offset="0.14" stop-color="#97c970"/><stop offset="0.18" stop-color="#9acd72"/><stop offset="0.22" stop-color="#a9d587"/><stop offset="0.31" stop-color="#cee7ba"/><stop offset="0.4" stop-color="#e9f4e0"/><stop offset="0.46" stop-color="#f9fcf7"/><stop offset="0.51" stop-color="#fff"/><stop offset="0.56" stop-color="#fafdf8"/><stop offset="0.63" stop-color="#edf6e6"/><stop offset="0.71" stop-color="#d7ebc7"/><stop offset="0.8" stop-color="#b9dc9d"/><stop offset="0.88" stop-color="#9acd72"/><stop offset="1" stop-color="#557c3e"/></linearGradient><linearGradient id="linear-gradient-8" x1="370.85" y1="287.54" x2="466.86" y2="287.54" xlink:href="#linear-gradient"/></defs><title>iiLAB -U1-concepts-07-AFTER EMERGENCY</title><g class="cls-2"><rect class="cls-3" x="-35.41" y="-34.64" width="645" height="645"/><ellipse class="cls-4" cx="306.65" cy="981.15" rx="731.54" ry="683.82"/><path class="cls-5" d="M223.93,341.51c-51.71,4.13-130.54,20.83-123.28,43.24s35,25.9,53.28,28.36c66.16,8.9,105.13,10.37,171.89,11.37,51.11,0.76,103.63-1.07,150.82-20.72,9.11-3.79,19.52-11.17,17.46-20.82-1.25-5.87-6.79-9.69-12-12.66a212.17,212.17,0,0,0-95.79-27.57"/><path class="cls-6" d="M397.61,237.21a4.47,4.47,0,0,0,0-2.7c-0.65-1.89-9-12.61-17.23-13.76S319.32,219.49,284,222c-15.62,1.09-31.47,2.23-46.24,7.44-15,5.29-28.21,14.55-41.22,23.7,2.45,0.73,4.92,1.42,7.39,2.09l-7.39.69c2.74,26.45,10.91,51,22.42,75,7.66,16,16.27,32.53,31.13,42.15,18,11.69,41.21,10.6,62.66,9.11,13.11-.92,26.62-1.94,38.34-7.89,20.52-10.42,31.1-33.48,37.65-55.54,8.49-28.59,9.14-51.72,9.1-81.54Z"/><path class="cls-7" d="M372.47,221.73c-6.78-.88-13.8-0.68-20.62-0.75-11.89-.11-23.78,0-35.66.26-12.93.28-25.87,0.74-38.77,1.6-15,1-30.34,2-44.81,6.49-16.68,5.16-31.11,15.15-45.24,25.09A2.54,2.54,0,0,0,188,259a384.83,384.83,0,0,0,115.5,15.6c28.1-.53,65.45-1.58,84.4-26,3.91-5,6.11-9.58,1.95-15s-9.86-10.49-16.67-11.8c-3.14-.61-4.49,4.21-1.33,4.82,5.78,1.12,10.78,5.6,14.23,10.23,1.9,2.54,1.17,3.89-.65,6.66a39.73,39.73,0,0,1-6.41,7.32c-9.85,9-23.19,13.19-36.07,15.53-15.11,2.75-30.75,3.25-46.07,3.28a378.05,378.05,0,0,1-50.59-3.31,382,382,0,0,1-57-12.18l0.6,4.57c12.53-8.81,25.29-17.87,39.79-23.15,14.86-5.41,30.76-6.58,46.4-7.66,24.21-1.67,48.54-2.12,72.8-2,7.8,0,15.84-.23,23.59.77C375.65,227.14,375.62,222.14,372.47,221.73Z"/><path class="cls-7" d="M186.12,259.36c3,27.78,11.92,54.06,24.12,79.1,5.34,10.95,11.19,21.91,19.57,30.88A59.81,59.81,0,0,0,261,386.83c12.73,2.81,25.92,2.45,38.85,1.64,13.14-.82,26.9-1.39,39.31-6.22,21.89-8.52,34-29.74,41.35-50.91,10.22-29.41,11.93-59.81,11.91-90.67,0-3.22-5-3.22-5,0,0,25.78-.88,51.35-7.72,76.36-5.72,20.91-14.64,44.45-34,56.42-10.74,6.65-23.39,8.34-35.74,9.32s-24.65,1.9-36.92.84c-12.54-1.08-25-4.75-34.69-13-8.81-7.48-15-17.46-20.26-27.61-13.63-26.14-23.78-54.2-27-83.62-0.34-3.16-5.35-3.2-5,0h0Z"/><path class="cls-7" d="M212.53,346.31a467.63,467.63,0,0,0-64.14,9.64c-17.25,3.86-36.34,8.29-51.3,18.2-4.18,2.77-8.64,6.4-10.22,11.37-2,6.33,1.94,13.24,5.8,18,11.52,14.26,31.83,17,48.82,19.24,51.2,6.89,102.4,10.23,154,11.2,56,1.05,114.1,1.86,167-19.14,9.16-3.63,21.72-9.51,22.82-20.77,1.23-12.62-13.53-19-22.75-23.65a217,217,0,0,0-87.72-22.9c-3.22-.15-3.21,4.85,0,5a211.12,211.12,0,0,1,74.82,17.33q8.09,3.54,15.85,7.76c5,2.69,11.38,5.67,13.91,11.07,5.57,11.9-12.64,19.21-20.77,22.32-48.38,18.5-100.94,19-152,18.17-46.25-.75-92.34-2.61-138.31-8-11.29-1.32-22.6-2.65-33.84-4.39-8.44-1.31-17.06-3-24.84-6.65s-15.64-10-18-18.74c-1.19-4.34,1.48-7.74,4.65-10.47,5.92-5.08,13.67-8.23,20.91-10.9a242.59,242.59,0,0,1,28.42-8.31,451.09,451.09,0,0,1,66.89-10.4c3.18-.26,3.21-5.26,0-5h0Z"/><path class="cls-8" d="M250.64,205.84c-4.42-6.61-10.7-11.1-16-16.86-2.57-2.78-5.07-6.13-5.78-9.95-0.88-4.75,1.87-8.88,4.23-12.73,7.18-11.72,17.72-28.48,11.29-42.75-3.68-8.16-13.45-12.89-20.82-17.08-3.7-2.11-19-9.06-18-14,1.24-6.29-8.4-9-9.64-2.66-1.93,9.79,7,16,14.33,20.53,4.84,3,9.88,5.61,14.73,8.58,3.37,2.06,7.7,4.42,9.82,7.89,3.62,5.91.1,15.18-2.56,20.85-3.75,8-10.21,15.09-12.68,23.62-2.23,7.69.43,15.22,5.15,21.38,5.13,6.71,12.64,11.23,17.34,18.27,3.56,5.32,12.22.32,8.63-5h0Z"/><path class="cls-9" d="M293,207.2c-0.5-6.59-4.78-9.7-7.39-15.3-3.13-6.72,3.74-13.46,6.5-19.22,6.38-13.29,3.62-29-.39-42.63-3-10.14-11-17.8-18.51-24.86s-17.85-14.74-20.86-25.07c-1.79-6.17-11.45-3.54-9.64,2.66,2.95,10.14,11.06,17.82,18.51,24.86,7.3,6.9,17.19,14.25,20.57,24.1a76.39,76.39,0,0,1,4.09,21.94c0.22,8.11-2.39,14.1-6.38,20.95-3.21,5.51-6.1,11.7-4.29,18.21,1.42,5.1,7.39,9.21,7.78,14.37,0.49,6.38,10.49,6.43,10,0h0Z"/><path class="cls-10" d="M321.71,202.58c-1.29-11.15-2.74-22.89.1-33.92,3-11.76,12.32-19.08,18.74-28.86,5.72-8.72,8.39-19.29,4.21-29.2-3.7-8.76-11.87-15.44-13.25-25.12-0.91-6.35-10.54-3.65-9.64,2.66C323.2,97.5,330,104,334.36,112c6.06,11-.76,21.3-7.89,29.79-7,8.29-12.95,16.49-15,27.37-2.1,11.09-1,22.31.24,33.43,0.73,6.32,10.74,6.39,10,0h0Z"/><path class="cls-11" d="M358.22,190.79l17.37-60.88c1.77-6.2-7.88-8.85-9.64-2.66l-17.37,60.88c-1.77,6.2,7.88,8.85,9.64,2.66h0Z"/><path class="cls-7" d="M369.37,260.48s4.14-11.4-69.36-12.67-83.72,15.84-83.72,15.84,27.49,8.08,77.45,8.52C348.94,272.65,369.37,260.48,369.37,260.48Z"/><path class="cls-12" d="M396.68,256.95c11.22-9,22.18-11.45,36.21-14.55s31,2,36.79,15.13c3.79,8.6,2.08,18.8-2.17,27.18-11.93,23.52-40.27,33.51-66.44,36.76-9.13,1.13-20.11.91-25.3-6.69l46.53-12.06c8.14-2.11,16.43-4.29,23.51-8.83s12.86-11.93,13.28-20.32c0.26-5.11-1.86-10.65-6.36-13.08-2.58-1.39-5.61-1.61-8.53-1.71a122.81,122.81,0,0,0-33.34,3.51c-8.42,2.08-18.25,7.31-17.78,16,0.18,3.34,2,6.44,2.16,9.78s-2.75,7.29-5.87,6.07a6.34,6.34,0,0,1-3-3.31c-3.13-6.11-4.79-13.22-3.24-19.91s6.79-12.74,13.54-14"/><path class="cls-13" d="M391.76,262.74c11.22-9,22.18-11.45,36.21-14.55s31,2,36.79,15.13c3.79,8.6,2.08,18.8-2.17,27.18C450.66,314,422.33,324,396.15,327.26c-9.13,1.13-20.11.91-25.3-6.69l46.53-12.06c8.14-2.11,16.43-4.29,23.51-8.83s12.86-11.93,13.28-20.32c0.26-5.11-1.86-10.65-6.36-13.08-2.58-1.39-5.61-1.61-8.53-1.71a122.81,122.81,0,0,0-33.34,3.51c-8.42,2.08-18.25,7.31-17.78,16,0.18,3.34,2,6.44,2.16,9.78s-2.75,7.29-5.87,6.07a6.34,6.34,0,0,1-3-3.31c-3.13-6.11-4.79-13.22-3.24-19.91s6.79-12.74,13.54-14"/><path class="cls-7" d="M393.53,264.51c10.82-8.42,26-13.45,39.65-14.58,12.22-1,26.62,4.37,30.29,17.16,4,13.86-4.84,28.43-14.89,37.32-9.59,8.48-21.79,13.6-34,16.83a125,125,0,0,1-21,3.81c-7.07.61-15.81,0.49-20.49-5.73L371.51,323c18.46-4.79,37.24-8.93,55.47-14.52,13.16-4,27.91-12.41,29.55-27.63,0.63-5.84-1.25-12.5-6.3-16-6.45-4.43-16.72-3.05-24-2.51-12.35.92-32.5,2.44-39.08,15.12a13.56,13.56,0,0,0-1.17,8.9c0.45,2.39,1.94,5,1.86,7.47-0.1,2.84-2.17,3.13-4.19,1.5-1.15-.93-1.64-3.69-2.06-5-3.21-9.89-.58-22.58,10.86-25.22,3.13-.73,1.81-5.55-1.33-4.82-14.45,3.34-18.47,19.6-14.09,32.19,1.65,4.74,5.14,12.63,11.45,9.31,6.72-3.53,3.37-11,2.45-16.47C388,268,424.4,267.08,434.61,267c5.11,0,11.79-.55,15,4.24,2.45,3.64,2.5,8.41,1.22,12.48-2.83,9-11.21,14.74-19.61,18-9.15,3.55-19,5.52-28.48,8l-32.57,8.44c-1.42.37-2.48,2.37-1.49,3.67,8.91,11.84,26.1,8.62,38.71,6.15,15-2.93,30-8.25,42.08-17.84s21.71-24.71,19.59-40.53c-1.9-14.21-14.43-22.84-27.92-24.49-9-1.09-17.9,1.3-26.47,3.67A69.65,69.65,0,0,0,390,261c-2.54,2,1,5.49,3.54,3.54h0Z"/></g></svg>