<svg xmlns="http://www.w3.org/2000/svg" xmlns:xlink="http://www.w3.org/1999/xlink" viewBox="0 0 580 580"><defs><style>.cls-1{fill:none;}.cls-2{isolation:isolate;}.cls-3{clip-path:url(#clip-path);}.cls-4{fill:#fdea8b;}.cls-5{fill:#fbb03b;opacity:0.28;}.cls-6{opacity:0.98;mix-blend-mode:multiply;fill:url(#linear-gradient);}.cls-7{fill:#9acd72;}.cls-8{fill:url(#linear-gradient-2);}.cls-9{fill:#004f7f;}.cls-10{fill:#ffec8d;}.cls-11{fill:url(#linear-gradient-3);}.cls-12{fill:#fff;}</style><clipPath id="clip-path"><rect class="cls-1" width="580" height="580"/></clipPath><linearGradient id="linear-gradient" x1="3592.6" y1="-2033.55" x2="4179.04" y2="-2033.55" gradientTransform="translate(-1904.88 -3816.3) rotate(90)" gradientUnits="userSpaceOnUse"><stop offset="0" stop-color="#fff"/><stop offset="1" stop-color="#9acd72"/></linearGradient><linearGradient id="linear-gradient-2" x1="197.8" y1="411.53" x2="558.81" y2="411.53" gradientUnits="userSpaceOnUse"><stop offset="0" stop-color="#f9d467"/><stop offset="0.41" stop-color="#f9d265"/><stop offset="0.65" stop-color="#f9cb5c"/><stop offset="0.83" stop-color="#fac04f"/><stop offset="1" stop-color="#fbb03b"/><stop offset="1" stop-color="#fbb03b"/></linearGradient><linearGradient id="linear-gradient-3" x1="110.31" y1="466.19" x2="167.51" y2="466.19" xlink:href="#linear-gradient-2"/></defs><title>iiLAB -U1-concepts-07-AFTER EMERGENCY</title><g class="cls-2"><g id="Layer_2" data-name="Layer 2"><g class="cls-3"><rect class="cls-4" width="580" height="580"/><circle class="cls-5" cx="523.58" cy="504.05" r="236.99" transform="translate(-122.59 836.69) rotate(-71.15)"/><circle class="cls-6" cx="128.67" cy="69.52" r="293.22" transform="translate(-13.15 105.23) rotate(-42.51)"/><path class="cls-7" d="M86.39,93.13a287.23,287.23,0,0,1,60.23-23c1.26-.33,2.68-0.63,3.73,0a3.63,3.63,0,0,1,1.49,2.24c1.35,4.23,1.45,8.79,1.54,13.3,0.21,10.06,4.4,49.76,4.61,59.82a6.84,6.84,0,0,1-1,4.44c-0.88,1.17,2,7.17.55,7.7a217.49,217.49,0,0,1-27.93,7.74c-8.46,1.48-8.62,3.57-17.07,5-0.7.12-9.29,3.57-9.92,3.34-0.84-.3,1.65-13.31,1.33-14.09-1.82-4.46-6.58-38.94-7.34-43.74L92.6,90.33"/><path class="cls-8" d="M209.21,445.63A87.37,87.37,0,0,1,252.86,390c26.47-13.88,58.11-13.15,86.49-22.53,39.17-12.94,69.24-43.93,97.65-73.84A801.87,801.87,0,0,1,558.81,353c-15.54,28.76-33.89,57.62-61.86,74.53-45.9,27.74-108.67,18-151.49,50.25a92.75,92.75,0,0,0-32.14,45.05c-0.8,2.46-1.76,5.26-4.14,6.26-1.89.79-4,.16-6-0.5A285.78,285.78,0,0,1,210,475.05c-5.19-4.44-10.5-9.51-12-16.18s3-15,9.86-14.82"/><path class="cls-9" d="M211.62,446.3a86,86,0,0,1,27.93-44.43c14.88-12.52,33.5-18,52.26-21.65s38-6,55.93-13.21c16.66-6.7,31.73-16.54,45.61-27.85,16.33-13.31,30.94-28.56,45.43-43.8l-2.43.64a808.66,808.66,0,0,1,121.22,59.17l-0.9-3.42c-14.56,26.88-31.49,54.36-57.57,71.49-24.6,16.16-54.4,20.47-82.72,25.89-27,5.17-54.86,11.77-76.44,29.89a95,95,0,0,0-25.94,35c-1.3,3-2,6.43-3.49,9.36-2.72,5.52-9.52,1.79-13.9.16q-11.75-4.38-23.05-9.86a288,288,0,0,1-46.15-28c-7.34-5.45-15.23-11.12-21.41-17.9-3-3.25-5.82-7.39-5.66-12,0.14-4.34,2.9-9.07,7.61-9.3,3.2-.16,3.22-5.16,0-5-5.69.28-10,4.09-11.75,9.42-2.13,6.32.11,12.61,4,17.72,5,6.58,12.21,11.75,18.7,16.8q10.41,8.11,21.49,15.3A286.15,286.15,0,0,0,286.49,525q5.95,2.46,12,4.63c3.28,1.17,7.08,3,10.63,2.09,6.5-1.72,7.51-11.38,9.83-16.56a90.87,90.87,0,0,1,33.34-39.06c13.5-8.76,28.86-13.91,44.41-17.67,30.57-7.39,62.79-9.68,91.54-23.33,34.13-16.21,55.31-48.61,72.74-80.78a2.55,2.55,0,0,0-.9-3.42,816.37,816.37,0,0,0-122.41-59.67,2.45,2.45,0,0,0-2.43.64c-26.26,27.63-54,56.91-90.35,71-35.45,13.72-76.82,9.54-107.7,34.57A90.44,90.44,0,0,0,206.79,445c-0.8,3.12,4,4.45,4.82,1.33h0Z"/><path class="cls-9" d="M399.67,366.58c-13.87-1.21-27.51,2.68-40.69,6.54-11.58,3.38-23.25,7.58-33,14.83-16,11.83-26.61,33.11-16.2,52.13,10.63,19.44,38.38,18.09,56.91,13.53,19.73-4.85,39.06-17,48.59-35.44,2.71-5.25,4.23-11,2.23-16.8-2.07-6-6.94-11.43-10.95-16.24-7.85-9.44-18.88-17.26-31.71-14-3.12.79-1.8,5.62,1.33,4.82,11.37-2.89,20.67,5.14,27.36,13.34,3.25,4,7.36,8.5,9.15,13.4,2.2,6-.86,11.92-4.07,16.94-9.4,14.73-25.19,24.39-41.85,28.78-16,4.21-41.92,6.74-52-9.67-10.85-17.69.93-38,16.22-48.26,9.39-6.3,20.21-10,31-13,12.29-3.51,24.78-7,37.69-5.87,3.21,0.28,3.19-4.72,0-5h0Z"/><path class="cls-9" d="M202.69,495.23c12.54,16.31,32,23.05,50.45,30.46a319.65,319.65,0,0,1,65.2,35.65,2.51,2.51,0,0,0,3.67-1.49c3.82-20.46,11.33-43.43,26.17-58.68,7.86-8.08,18.13-12.55,28.58-16.29,10.19-3.65,20.51-6.91,30.85-10.1,20.41-6.3,41-12.22,61-19.73,18.6-7,37.72-15,53.69-27.07,7.57-5.7,14.47-12.48,19.13-20.8,2.53-4.51,7.49-15.32-.69-17.31-3.13-.76-4.46,4.06-1.33,4.82,5.31,1.29-9.84,20.26-11.48,21.9-6.36,6.37-13.9,11.43-21.71,15.85-17.66,10-36.72,17.36-55.93,23.78s-38.58,11.87-57.79,18.07c-17.78,5.74-37.29,11.12-50,25.71C328.58,515.93,321,538,317.2,558.51l3.67-1.49a322.36,322.36,0,0,0-61.07-34c-18.53-7.8-40-13.7-52.8-30.35-1.93-2.52-6.28,0-4.32,2.52h0Z"/><path class="cls-9" d="M329.55,432.57c3.12,4,7.39,12.33,13.25,12.77,4.78,0.36,7.22-4.28,8.44-8.26,3.08-10-1.4-21.18-10.14-26.72-2.73-1.73-5.24,2.6-2.52,4.32a18.67,18.67,0,0,1,8.6,16c0,2.91-.47,7.64-3.55,8.69-2.85,1-4-1.86-5.66-4-1.37-1.76-2.73-3.53-4.09-5.3-1.94-2.51-6.28,0-4.32,2.52h0Z"/><path class="cls-9" d="M358,390.91A24.55,24.55,0,0,0,352.15,414c0.5,2,2.78,2.23,4.18,1.1l5.59-4.52c2.19-1.77,5.23-4.65,4.37.94a16.6,16.6,0,0,1-3.1,6.56c-0.42.61-3,4.68-4.1,4.73l2.41,1.84-0.19-.6-0.64,2.43,0.44-.53-3,.39,0.4,0.21c2.85,1.5,5.38-2.82,2.52-4.32l-0.4-.21a2.54,2.54,0,0,0-3,.39c-1,1.19-1.38,2-.89,3.56a2.55,2.55,0,0,0,2.41,1.84c4-.21,6.33-4.16,8.42-7.21,2.56-3.73,4.5-8.18,3.7-12.79-2.17-12.54-13.85.06-18.42,3.75l4.18,1.1a19.31,19.31,0,0,1,4.53-18.21c2.17-2.37-1.36-5.92-3.54-3.54h0Z"/><path class="cls-9" d="M362.74,391a72.63,72.63,0,0,0,19,16.06c2.37,1.4,5.26-2.06,3-3.93-2.63-2.19-4.46-5.94-2.15-9a4.54,4.54,0,0,1,7.64.32c1.6,2.79,5.92.28,4.32-2.52a9.82,9.82,0,0,0-14.79-2.38c-5.32,4.66-3.48,13,1.45,17.12l3-3.93a68.64,68.64,0,0,1-18-15.27c-2.07-2.47-5.59,1.08-3.54,3.54h0Z"/><path class="cls-9" d="M213.76,525.28c0.08-.59,13.78,5.66,14.72,6.11l14.38,6.8,30.55,14.44,60.2,28.46c1.51,0.72,4-.1,3.76-2.16-3.89-34.86,19.18-65.93,47.18-84.16,32.75-21.32,72.87-27.07,110.16-35.94,18.51-4.4,38.55-9,52.22-23.21a2.51,2.51,0,0,0,.64-2.43c-1.46-4.72-5.41-6.95-10.21-6.3-3.17.43-1.82,5.25,1.33,4.82q3.28-.16,4.06,2.8l0.64-2.43c-13.43,14-33.59,18.06-51.74,22.33-19.83,4.66-39.86,8.55-59.41,14.31-34,10-66.76,26.85-86.47,57.52-10.07,15.67-15.5,34-13.41,52.68l3.76-2.16-72.78-34.41-35.94-17c-4.44-2.1-17.39-9.83-18.65-.09-0.41,3.18,4.59,3.15,5,0h0Z"/><path class="cls-10" d="M82.15,98.43a48.16,48.16,0,0,1-2.8-41.94c2.51-6.06,7.49-12.24,14-12,4.39,0.19,8.09,3.28,11,6.53a61.19,61.19,0,0,1,14.29,27.16,3.48,3.48,0,0,1-.06,2.47,3.57,3.57,0,0,1-1.9,1.34L112.09,84a4.27,4.27,0,0,1-2.43.47c-1.68-.35-2.25-2.42-2.55-4.11a84.7,84.7,0,0,0-7.78-23.46c-1.23-2.44-3-5.1-5.69-5.42a5.83,5.83,0,0,0-5.34,3,14.77,14.77,0,0,0-1.69,6.2,70.68,70.68,0,0,0,2.1,25.84c0.67,2.45,1.47,5.06.7,7.49s-3.95,4.21-5.93,2.61"/><path class="cls-9" d="M84.31,97.17a46.54,46.54,0,0,1-5.93-25c0.38-7.85,2.78-18.91,9.9-23.58,8.71-5.72,17,6.64,20.86,12.89a58.53,58.53,0,0,1,5.35,11.17c0.4,1.12,2.3,5.17,1.83,6.27-0.56,1.3-4.45,3-5.71,2.36-2.16-1-2.79-9.38-3.58-11.93a90,90,0,0,0-4-10.53c-2.22-4.92-5.93-11.89-12.53-9.34s-6.6,11-6.74,16.79a72.82,72.82,0,0,0,.7,11.81c0.34,2.46.8,4.9,1.38,7.32,0.13,0.53,3,11.11-1.09,9.08-2.88-1.41-5.42,2.9-2.52,4.32,5.15,2.53,9.95-1.58,10-7,0-3.83-1.62-7.63-2.33-11.37a68.21,68.21,0,0,1-1-16c0.12-2.36,0-5.32,1.17-7.46,2.36-4.46,5.64-1.63,7.18,1.19a70.15,70.15,0,0,1,5.54,14.24c1.31,4.57,1.22,15.64,8.51,14.48a21.1,21.1,0,0,0,8.4-3.55c2.36-2,1.78-4.64,1.13-7.3a61.62,61.62,0,0,0-10.51-21.77c-3.8-5.08-8.72-11-15.41-12-6.26-.91-11.52,3-14.9,8-9.8,14.31-8,35,.06,49.53,1.57,2.81,5.89.29,4.32-2.52h0Z"/><path class="cls-9" d="M75,105.33a288,288,0,0,1,55.18-21.57c2.26-.62,5.36-2.16,6.82.07,1.06,1.62.92,4.85,1.05,6.76,0.2,2.84.17,5.7,0.33,8.54,0.29,5.15.75,10.3,1.19,15.44,1,11.95,2.25,23.89,3,35.86a42.43,42.43,0,0,1,.25,5c-0.18,3.21-1.92,5.46-.52,8.68,0.81,1.86,1.06,1.06.07,1.72-1.19.8-3.24,1.08-4.6,1.5q-5.38,1.67-10.83,3.11c-7.12,1.88-14.15,3.18-21.06,5.75-2.75,1-5.64,1.44-8.41,2.37-2.24.75-5.11,2.59-7.49,2.64l2.16,1.24c0.33,0.45.38-2.37,0.48-3.13,0.23-1.91.54-3.8,0.8-5.7a15,15,0,0,0,.09-5.29c-1.17-5.93-2.39-11.82-3.33-17.81C87.49,133.61,85,116.64,82.33,99.7c-0.5-3.17-5.32-1.82-4.82,1.33,3.29,20.74,5.92,41.68,9.79,62.33,0.42,2.25,1.42,5.41,1.52,7.12,0.21,3.87-1.46,7.85-1.48,11.75,0,3,1.34,4.36,4.35,3.72,4.06-.87,8-2.77,12.06-3.81,5.24-1.34,10-3.57,15.35-4.65,5.87-1.19,11.68-2.79,17.42-4.51,3-.89,10.13-1.74,11.17-5.31,0.53-1.81-.51-3.6-0.68-5.36-0.24-2.38.87-4.83,0.82-7.37-0.37-18.76-3.45-37.46-4.47-56.19-0.32-5.84.53-13-2.3-18.33-3.19-6-11.85-1.63-16.65-.23A295.35,295.35,0,0,0,72.46,101c-2.86,1.47-.34,5.79,2.52,4.32h0Z"/><path class="cls-7" d="M56.38,177a287.23,287.23,0,0,1,60.23-23c1.26-.33,2.68-0.63,3.73,0a3.63,3.63,0,0,1,1.49,2.24c1.35,4.23,1.45,8.79,1.54,13.3,0.21,10.06,4.4,49.76,4.61,59.82a6.84,6.84,0,0,1-1,4.44c-0.88,1.17,2,7.17.55,7.7a217.49,217.49,0,0,1-27.93,7.74c-8.46,1.48-8.62,3.57-17.07,5-0.7.12-9.29,3.57-9.92,3.34-0.84-.3,1.65-13.31,1.33-14.09-1.82-4.46-6.58-38.94-7.34-43.74l-4.05-25.54"/><path class="cls-10" d="M52.14,182.31a48.16,48.16,0,0,1-2.8-41.94c2.51-6.06,7.49-12.24,14-12,4.39,0.19,8.09,3.28,11,6.53a61.19,61.19,0,0,1,14.29,27.16,3.48,3.48,0,0,1-.06,2.47,3.57,3.57,0,0,1-1.9,1.34l-4.69,1.92a4.27,4.27,0,0,1-2.43.47c-1.68-.35-2.25-2.42-2.55-4.11a84.7,84.7,0,0,0-7.78-23.46c-1.23-2.44-3-5.1-5.69-5.42a5.83,5.83,0,0,0-5.34,3,14.77,14.77,0,0,0-1.69,6.2,70.68,70.68,0,0,0,2.1,25.84c0.67,2.45,1.47,5.06.7,7.49s-3.95,4.21-5.93,2.61"/><path class="cls-9" d="M54.3,181.05a46.54,46.54,0,0,1-5.93-25c0.38-7.85,2.78-18.91,9.9-23.58,8.71-5.72,17,6.64,20.86,12.89a58.53,58.53,0,0,1,5.35,11.17c0.4,1.12,2.3,5.17,1.83,6.27-0.56,1.3-4.45,3-5.71,2.36-2.16-1-2.79-9.38-3.58-11.93a90,90,0,0,0-4-10.53c-2.22-4.92-5.93-11.89-12.53-9.34s-6.6,11-6.74,16.79a72.82,72.82,0,0,0,.7,11.81c0.34,2.46.8,4.9,1.38,7.32,0.13,0.53,3,11.11-1.09,9.08-2.88-1.41-5.42,2.9-2.52,4.32,5.15,2.53,9.95-1.58,10-7,0-3.83-1.62-7.63-2.33-11.37a68.21,68.21,0,0,1-1-16c0.12-2.36,0-5.32,1.17-7.46,2.36-4.46,5.64-1.63,7.18,1.19a70.15,70.15,0,0,1,5.54,14.24c1.31,4.57,1.22,15.64,8.51,14.48a21.1,21.1,0,0,0,8.4-3.55c2.36-2,1.78-4.64,1.13-7.3a61.62,61.62,0,0,0-10.51-21.77c-3.8-5.08-8.72-11-15.41-12-6.26-.91-11.52,3-14.9,8-9.8,14.31-8,35,.06,49.53,1.57,2.81,5.89.29,4.32-2.52h0Z"/><path class="cls-9" d="M45,189.21a288,288,0,0,1,55.18-21.57c2.26-.62,5.36-2.16,6.82.07,1.06,1.62.92,4.85,1.05,6.76,0.2,2.84.17,5.7,0.33,8.54,0.29,5.15.75,10.3,1.19,15.44,1,11.95,2.25,23.89,3,35.86a42.43,42.43,0,0,1,.25,5c-0.18,3.21-1.92,5.46-.52,8.68,0.81,1.86,1.06,1.06.07,1.72-1.19.8-3.24,1.08-4.6,1.5q-5.38,1.67-10.83,3.11c-7.12,1.88-14.15,3.18-21.06,5.75-2.75,1-5.64,1.44-8.41,2.37-2.24.75-5.11,2.59-7.49,2.64l2.16,1.24c0.33,0.45.38-2.37,0.48-3.13,0.23-1.91.54-3.8,0.8-5.7a15,15,0,0,0,.09-5.29c-1.17-5.93-2.39-11.82-3.33-17.81-2.68-16.94-5.15-33.91-7.84-50.84-0.5-3.17-5.32-1.82-4.82,1.33,3.29,20.74,5.92,41.68,9.79,62.33,0.42,2.25,1.42,5.41,1.52,7.12,0.21,3.87-1.46,7.85-1.48,11.75,0,3,1.34,4.36,4.35,3.72,4.06-.87,8-2.77,12.06-3.81,5.24-1.34,10-3.57,15.35-4.65,5.87-1.19,11.68-2.79,17.42-4.51,3-.89,10.13-1.74,11.17-5.31,0.53-1.81-.51-3.6-0.68-5.36-0.24-2.38.87-4.83,0.82-7.37-0.37-18.76-3.45-37.46-4.47-56.19-0.32-5.84.53-13-2.3-18.33-3.19-6-11.85-1.63-16.65-.23a295.35,295.35,0,0,0-51.94,20.82c-2.86,1.47-.34,5.79,2.52,4.32h0Z"/><path class="cls-9" d="M382.06,306.22c9.71-15,14.22-32.41,16.09-50A187.3,187.3,0,0,0,396.43,203c-6-33-23.7-64-54.18-79.83-15.71-8.15-33.39-11.45-50.86-8.21l3.08,3.08a18.46,18.46,0,0,1,6.79-8.81c2.6-1.85.11-6.18-2.52-4.32a24.4,24.4,0,0,0-9.09,11.8c-0.73,1.94,1.39,3.39,3.08,3.08,30.43-5.65,61.31,10.85,78.92,35.27,19.28,26.74,24.25,61.25,22.16,93.45-1.25,19.34-5.41,38.71-16.05,55.17-1.75,2.71,2.57,5.22,4.32,2.52h0Z"/><path class="cls-7" d="M308.85,81.77a411.77,411.77,0,0,1-45.5,47.66l62,10.26Q317,113.44,306.09,88.09"/><path class="cls-9" d="M307.09,80a423.08,423.08,0,0,1-45.5,47.66c-1.32,1.18-.74,3.87,1.1,4.18l62,10.26c1.76,0.29,3.71-1.1,3.08-3.08q-8.51-26.55-19.47-52.19c-1.26-3-5.57-.41-4.32,2.52q10.68,25,19,51l3.08-3.08L264,127l1.1,4.18a423.08,423.08,0,0,0,45.5-47.66c2-2.47-1.5-6-3.54-3.54h0Z"/><path class="cls-9" d="M24.64,260.19C15.55,301.58,16.3,346,32.77,385.5c14,33.64,40,62.74,73.27,78.21a122.84,122.84,0,0,0,28.65,9.36c3.49,0.67,7.16,1.64,10.26-.69,2.23-1.68,3-4.37.74-6.37-2.38-2.16-5.93,1.37-3.54,3.54-1.35-1.23-4.28-.94-6.13-1.3s-3.87-.79-5.79-1.26q-5.74-1.41-11.33-3.38a123.6,123.6,0,0,1-21.46-10.06,141.82,141.82,0,0,1-36.25-30.79c-23.08-27.29-34.85-62.32-37-97.73a230.84,230.84,0,0,1,5.28-63.51c0.69-3.14-4.13-4.48-4.82-1.33h0Z"/><path class="cls-11" d="M127.54,425.28l40,55.57a114.31,114.31,0,0,1-57.2,26.24"/><path class="cls-9" d="M125.38,426.54l40,55.57,0.39-3a114,114,0,0,1-56.1,25.6c-3.17.5-1.82,5.32,1.33,4.82a118.72,118.72,0,0,0,58.31-26.88,2.5,2.5,0,0,0,.39-3l-40-55.57c-1.86-2.59-6.2-.1-4.32,2.52h0Z"/><path class="cls-9" d="M109.56,505.49l16.3-79.94c0.64-3.14-4.18-4.48-4.82-1.33l-16.3,79.94c-0.64,3.14,4.18,4.48,4.82,1.33h0Z"/><path class="cls-12" d="M156,88.25c-10.16-.94-20.78-3.18-30.31.48-13.41,5.15-20.33,22.46-14.76,35.71s22.1,20.45,35.82,16.17c15.23-4.76,25.14-22.38,21.17-38a18.91,18.91,0,0,0-4.4-7.82c-2.88-3.23-3.73-8.56-7.52-6.5"/><path class="cls-9" d="M156,85.25c-15.36-1.52-32.39-4.19-43.14,9.55-7.78,9.95-9.38,24.49-2.32,35.27s21,16.53,33.73,14.22c13-2.35,23.25-13.5,26.42-26,1.74-6.89,1.7-15.06-1.92-21.36a69.87,69.87,0,0,0-6.56-9.5c-1.9-2.26-4.18-3.13-7-2-3.57,1.37-2,7.18,1.6,5.79,1.05-.41,3.6,4.47,4.6,5.73A18.6,18.6,0,0,1,165.76,108a30.1,30.1,0,0,1-4.86,17.92c-7.69,12-22.67,16.36-35.4,9.7-12.19-6.38-16.92-20.58-10.61-32.91,8.25-16.13,26.06-13,41.12-11.46,3.84,0.38,3.81-5.62,0-6h0Z"/><path class="cls-9" d="M120.84,110.93c-0.46,5.93-.45,24.23,9.49,15.9S150.12,110.1,160,101.74c3-2.5-1.31-6.72-4.24-4.24l-15.59,13.17-7.42,6.27c-1.85,1.56-5.54,5.88-7.93,6.34l2.92,0.77c-2.11-2.3-1.14-10.22-.92-13.12,0.3-3.85-5.71-3.83-6,0h0Z"/><path class="cls-12" d="M121.27,189.62c-10.16-.94-20.78-3.18-30.31.48-13.41,5.15-20.33,22.46-14.76,35.71S98.31,246.26,112,242c15.23-4.76,25.14-22.38,21.17-38a18.91,18.91,0,0,0-4.4-7.82c-2.88-3.23-3.73-8.56-7.52-6.5"/><path class="cls-9" d="M121.27,186.62c-15.36-1.52-32.39-4.19-43.14,9.55-7.78,9.95-9.38,24.49-2.32,35.27s21,16.53,33.73,14.22c13-2.35,23.25-13.5,26.42-26,1.74-6.89,1.7-15.06-1.92-21.36a69.87,69.87,0,0,0-6.56-9.5c-1.9-2.26-4.18-3.13-7-2-3.57,1.37-2,7.18,1.6,5.79,1.05-.41,3.6,4.47,4.6,5.73A18.6,18.6,0,0,1,131,209.37a30.1,30.1,0,0,1-4.86,17.92c-7.69,12-22.67,16.36-35.4,9.7-12.19-6.38-16.92-20.58-10.61-32.91,8.25-16.13,26.06-13,41.12-11.46,3.84,0.38,3.81-5.62,0-6h0Z"/><path class="cls-9" d="M86.1,212.3c-0.46,5.93-.45,24.23,9.49,15.9s19.79-16.73,29.69-25.09c3-2.5-1.31-6.72-4.24-4.24L105.45,212,98,218.31c-1.85,1.56-5.54,5.88-7.93,6.34L93,225.42c-2.11-2.3-1.14-10.22-.92-13.12,0.3-3.85-5.71-3.83-6,0h0Z"/><path class="cls-7" d="M167.71,142.78a287.23,287.23,0,0,1,60.23-23c1.26-.33,2.68-0.63,3.73,0a3.63,3.63,0,0,1,1.49,2.24c1.35,4.23,1.45,8.79,1.54,13.3,0.21,10.06,4.4,49.76,4.61,59.82a6.84,6.84,0,0,1-1,4.44c-0.88,1.17,2,7.17.55,7.7A217.49,217.49,0,0,1,211,215c-8.46,1.48-8.62,3.57-17.07,5-0.7.12-9.29,3.57-9.92,3.34-0.84-.3,1.65-13.31,1.33-14.09-1.82-4.46-6.58-38.94-7.34-43.74L173.91,140"/><path class="cls-10" d="M163.46,148.08a48.16,48.16,0,0,1-2.8-41.94c2.51-6.06,7.49-12.24,14-12,4.39,0.19,8.09,3.28,11,6.53A61.19,61.19,0,0,1,200,127.88a3.48,3.48,0,0,1-.06,2.47,3.57,3.57,0,0,1-1.9,1.34l-4.69,1.92a4.27,4.27,0,0,1-2.43.47c-1.68-.35-2.25-2.42-2.55-4.11a84.7,84.7,0,0,0-7.78-23.46c-1.23-2.44-3-5.1-5.69-5.42a5.83,5.83,0,0,0-5.34,3,14.77,14.77,0,0,0-1.69,6.2,70.68,70.68,0,0,0,2.1,25.84c0.67,2.45,1.47,5.06.7,7.49s-3.95,4.21-5.93,2.61"/><path class="cls-9" d="M165.62,146.82a46.54,46.54,0,0,1-5.93-25c0.38-7.85,2.78-18.91,9.9-23.58,8.71-5.72,17,6.64,20.86,12.89a58.53,58.53,0,0,1,5.35,11.17c0.4,1.12,2.3,5.17,1.83,6.27-0.56,1.3-4.45,3-5.71,2.36-2.16-1-2.79-9.38-3.58-11.93a90,90,0,0,0-4-10.53c-2.22-4.92-5.93-11.89-12.53-9.34s-6.6,11-6.74,16.79a72.82,72.82,0,0,0,.7,11.81c0.34,2.46.8,4.9,1.38,7.32,0.13,0.53,3,11.11-1.09,9.08-2.88-1.41-5.42,2.9-2.52,4.32,5.15,2.53,9.95-1.58,10-7,0-3.83-1.62-7.63-2.33-11.37a68.21,68.21,0,0,1-1-16c0.12-2.36,0-5.32,1.17-7.46,2.36-4.46,5.64-1.63,7.18,1.19A70.15,70.15,0,0,1,184,122c1.31,4.57,1.22,15.64,8.51,14.48a21.1,21.1,0,0,0,8.4-3.55c2.36-2,1.78-4.64,1.13-7.3a61.62,61.62,0,0,0-10.51-21.77c-3.8-5.08-8.72-11-15.41-12-6.26-.91-11.52,3-14.9,8-9.8,14.31-8,35,.06,49.53,1.57,2.81,5.89.29,4.32-2.52h0Z"/><path class="cls-9" d="M156.29,155a288,288,0,0,1,55.18-21.57c2.26-.62,5.36-2.16,6.82.07,1.06,1.62.92,4.85,1.05,6.76,0.2,2.84.17,5.7,0.33,8.54,0.29,5.15.75,10.3,1.19,15.44,1,11.95,2.25,23.89,3,35.86a42.43,42.43,0,0,1,.25,5c-0.18,3.21-1.92,5.46-.52,8.68,0.81,1.86,1.06,1.06.07,1.72-1.19.8-3.24,1.08-4.6,1.5q-5.38,1.67-10.83,3.11c-7.12,1.88-14.15,3.18-21.06,5.75-2.75,1-5.64,1.44-8.41,2.37-2.24.75-5.11,2.59-7.49,2.64l2.16,1.24c0.33,0.45.38-2.37,0.48-3.13,0.23-1.91.54-3.8,0.8-5.7a15,15,0,0,0,.09-5.29c-1.17-5.93-2.39-11.82-3.33-17.81-2.68-16.94-5.15-33.91-7.84-50.84-0.5-3.17-5.32-1.82-4.82,1.33,3.29,20.74,5.92,41.68,9.79,62.33,0.42,2.25,1.42,5.41,1.52,7.12,0.21,3.87-1.46,7.85-1.48,11.75,0,3,1.34,4.36,4.35,3.72,4.06-.87,8-2.77,12.06-3.81,5.24-1.34,10-3.57,15.35-4.65,5.87-1.19,11.68-2.79,17.42-4.51,3-.89,10.13-1.74,11.17-5.31,0.53-1.81-.51-3.6-0.68-5.36-0.24-2.38.87-4.83,0.82-7.37-0.37-18.76-3.45-37.46-4.47-56.19-0.32-5.84.53-13-2.3-18.33-3.19-6-11.85-1.63-16.65-.23a295.35,295.35,0,0,0-51.94,20.82c-2.86,1.47-.34,5.79,2.52,4.32h0Z"/><path class="cls-12" d="M235.8,145.35c-10.16-.94-20.78-3.18-30.31.48-13.41,5.15-20.33,22.46-14.76,35.71s22.1,20.45,35.82,16.17c15.23-4.76,25.14-22.38,21.17-38a18.91,18.91,0,0,0-4.4-7.82c-2.88-3.23-3.73-8.56-7.52-6.5"/><path class="cls-9" d="M235.8,142.35c-15.36-1.52-32.39-4.19-43.14,9.55-7.78,9.95-9.38,24.49-2.32,35.27s21,16.53,33.73,14.22c13-2.35,23.25-13.5,26.42-26,1.74-6.89,1.7-15.06-1.92-21.36a69.87,69.87,0,0,0-6.56-9.5c-1.9-2.26-4.18-3.13-7-2-3.57,1.37-2,7.18,1.6,5.79,1.05-.41,3.6,4.47,4.6,5.73a18.6,18.6,0,0,1,4.35,11.12A30.1,30.1,0,0,1,240.69,183c-7.69,12-22.67,16.36-35.4,9.7-12.19-6.38-16.92-20.58-10.61-32.91,8.25-16.13,26.06-13,41.12-11.46,3.84,0.38,3.81-5.62,0-6h0Z"/><path class="cls-9" d="M200.63,168c-0.46,5.93-.45,24.23,9.49,15.9s19.79-16.73,29.69-25.09c3-2.5-1.31-6.72-4.24-4.24L220,167.77,212.56,174c-1.85,1.56-5.54,5.88-7.93,6.34l2.92,0.77c-2.11-2.3-1.14-10.22-.92-13.12,0.3-3.85-5.71-3.83-6,0h0Z"/></g></g></g></svg>