<svg xmlns="http://www.w3.org/2000/svg" xmlns:xlink="http://www.w3.org/1999/xlink" viewBox="0 0 580 580"><defs><style>.cls-1{fill:none;}.cls-2{isolation:isolate;}.cls-3{clip-path:url(#clip-path);}.cls-4{fill:#fdea8b;}.cls-5{opacity:0.98;mix-blend-mode:multiply;fill:url(#linear-gradient);}.cls-6{opacity:0.81;}.cls-7{fill:#fff;}.cls-8{fill:#004f7f;}.cls-9{fill:#9acd72;}.cls-10{fill:#ffec8d;}.cls-11{fill:#c2e1a9;}.cls-12{fill:url(#linear-gradient-2);}.cls-13{fill:url(#linear-gradient-3);}</style><clipPath id="clip-path"><rect class="cls-1" x="0.08" y="1.27" width="580" height="580"/></clipPath><linearGradient id="linear-gradient" x1="257.83" y1="281.78" x2="794.77" y2="281.78" gradientTransform="translate(244.52 808.08) rotate(-90)" gradientUnits="userSpaceOnUse"><stop offset="0" stop-color="#fff"/><stop offset="1" stop-color="#fbb03b"/></linearGradient><linearGradient id="linear-gradient-2" x1="3.01" y1="242.93" x2="214.25" y2="444.55" gradientUnits="userSpaceOnUse"><stop offset="0" stop-color="#557c3e"/><stop offset="0.02" stop-color="#66904b"/><stop offset="0.06" stop-color="#7dab5c"/><stop offset="0.1" stop-color="#8dbe68"/><stop offset="0.14" stop-color="#97c970"/><stop offset="0.18" stop-color="#9acd72"/><stop offset="0.26" stop-color="#9cce75"/><stop offset="0.32" stop-color="#a2d17e"/><stop offset="0.36" stop-color="#add78d"/><stop offset="0.4" stop-color="#bddea2"/><stop offset="0.44" stop-color="#d0e8be"/><stop offset="0.48" stop-color="#e8f4e0"/><stop offset="0.51" stop-color="#fff"/><stop offset="0.52" stop-color="#f6faf2"/><stop offset="0.57" stop-color="#daedcb"/><stop offset="0.63" stop-color="#c3e1ab"/><stop offset="0.69" stop-color="#b1d892"/><stop offset="0.74" stop-color="#a4d280"/><stop offset="0.81" stop-color="#9cce75"/><stop offset="0.88" stop-color="#9acd72"/><stop offset="1" stop-color="#557c3e"/></linearGradient><linearGradient id="linear-gradient-3" x1="-9.61" y1="256.15" x2="201.64" y2="457.77" xlink:href="#linear-gradient-2"/></defs><title>iiLAB -U1-concepts-07-AFTER EMERGENCY</title><g class="cls-2"><g id="Layer_2" data-name="Layer 2"><g class="cls-3"><rect class="cls-4" x="-0.29" y="1.27" width="580" height="580"/><rect class="cls-4" x="-35.41" y="-33.17" width="645" height="645"/><rect class="cls-4" x="0.08" y="1.27" width="580" height="580"/><circle class="cls-5" cx="526.3" cy="281.78" r="268.47" transform="translate(133.8 731.6) rotate(-77.06)"/><g class="cls-6"><path class="cls-7" d="M242.2,12.66C298.51,34.79,332.11,91.5,361.48,144.4c15.86,28.56,31.82,57.33,42,88.38l53.33,4.36s-32.21,16-46.79,19.61l0.07,0s9.78,82.92,7.48,124.57c-4,71.52-19.28,148.79-73.44,195.67-6.15,5.32-12.72,10.17-18.44,15.95-5.54,5.6-10.22,12-15.81,17.57-19.87,19.7-49,26.43-76.86,29.56-58.83,6.62-123.35-1-167.54-40.36-19-16.93-33-38.68-45.41-60.9A623.55,623.55,0,0,1-58.63,234.17c0.11-29,2.34-58.38,12.13-85.65C-38.06,125-24.22,103.74-8.58,84.25c18.94-23.6,40.95-45.14,67-60.48C119.42-12.07,183.75-19.93,242.2,12.66Z"/></g><path class="cls-8" d="M550.56,158.5c-8.33-12.83-26.2-18.14-39.9-10.74S491.84,173.14,498,187.08l3.42-3.42c-13.16-7.45-31.61-1.39-35.79,13.74-2,7.32-.3,15.74,5.72,20.7a17.62,17.62,0,0,0,20,1.81c2.58-1.5.75-5-1.93-4.57-11.12,1.91-23.15,9.27-22.37,22.09,0.59,9.78,11.45,16.76,20.2,11.34,2.73-1.69.22-6-2.52-4.32-7.92,4.91-14.35-4.57-12.1-11.81,2.46-7.94,10.64-11.19,18.13-12.48l-1.93-4.57a12.68,12.68,0,0,1-15.21-2.12c-4.79-4.77-4.76-12.68-1.76-18.36,5-9.54,17.95-12.27,27-7.14,2.35,1.33,4.38-1.24,3.42-3.42-5-11.45-.33-26.54,10.89-32.48s26.2-1.63,33.06,8.94c1.75,2.69,6.08.19,4.32-2.52h0Z"/><path class="cls-8" d="M546.65,166.79C548.49,155.55,562,147.27,572.6,153c9.51,5.18,11.64,19.55,4.71,27.57l3-.39c-1.35-.68,6-6,6.79-6.38a24.21,24.21,0,0,1,9.43-2.73c3.42-.25,7.63-0.31,9.52,2.82,1.8,3,0,6.46-1.07,9.51a95,95,0,0,1-20.33,32.37c-1,1-1,3.26.51,3.93,7.37,3.18,12.23,11.37,10,19.41S584,252.1,576,250.43c-3.14-.65-4.48,4.17-1.33,4.82,10.25,2.13,21.48-3.33,25-13.5s-2.1-22.07-11.94-26.32l0.51,3.93A100.94,100.94,0,0,0,606.37,193c3-6.3,9.62-18.25,2.62-24.09-6.35-5.3-17.82-2.88-24.39.6-3.83,2-14.81,10.95-6.79,15a2.56,2.56,0,0,0,3-.39c9-10.45,6.67-28.49-5.72-35.42-13.14-7.35-30.93,2.3-33.29,16.74-0.52,3.15,4.3,4.5,4.82,1.33h0Z"/><path class="cls-8" d="M497.8,199.48c-14.1,26.42-13.32,59.43,1.36,85.47,3.25,5.77,7.83,13.73,13.44,17.55s12-3.63,15.83-7.17a124.32,124.32,0,0,0,39.44-92.59c-0.05-3.21-5.05-3.22-5,0a119.59,119.59,0,0,1-28.75,79.5,111,111,0,0,1-14.54,14.17c-2.55,2-3.55,2.3-5.88.2a29.23,29.23,0,0,1-2.86-3.3,75.51,75.51,0,0,1-6.27-9,85.13,85.13,0,0,1-11.75-38,82.44,82.44,0,0,1,9.3-44.33c1.51-2.84-2.8-5.37-4.32-2.52h0Z"/><path class="cls-8" d="M558.18,239.6c12.2-12.95,28.63,14.16,26.23,24.93-3.17,14.22-33.44,22-34.78,3.2-0.23-3.19-5.23-3.22-5,0,1.72,24.14,38.18,18.14,44.22-.51,3-9.37-3.51-22.47-9.87-29.25s-17.49-9.16-24.34-1.9c-2.21,2.34,1.32,5.88,3.54,3.54h0Z"/><path class="cls-8" d="M504.13,216.29a30.07,30.07,0,0,1,11.4-4.25c1.67-.24,4-0.76,5.68-0.18,3.33,1.18,2.2,4.09.79,6.44-4,6.62-8.76,12.84-13.09,19.23-2.1,3.11-4.46,7.14-1.11,10.37,3,2.93,8.38,2.16,11.95.91,3-1.06,1.72-5.89-1.33-4.82s-7.85,2.18-6.25-2.38c1.12-3.2,4.4-6.46,6.34-9.3,3.44-5,9.58-11.21,10.21-17.55,1.38-14-21.33-6.29-27.11-2.79-2.75,1.67-.24,6,2.52,4.32h0Z"/><path class="cls-8" d="M535.78,226.09a8.47,8.47,0,0,0-2.66,11,2.56,2.56,0,0,0,3.42.9,11.33,11.33,0,0,0,4.24-3.33c1.07-1.36,2.65-3.74,2.15-5.56-1.11-4-6.9-3.27-8.06.25-1,3.06,3.82,4.38,4.82,1.33-0.15.46-1,1-1.33,0.35l-0.25-1.93a7,7,0,0,1-4.08,4.58l3.42,0.9a3.34,3.34,0,0,1,.87-4.15c2.6-1.85.1-6.19-2.52-4.32h0Z"/><path class="cls-8" d="M535.49,216.3c3.22,0,3.22-5,0-5s-3.22,5,0,5h0Z"/><path class="cls-8" d="M534.43,213.23a22.85,22.85,0,0,1,16.22-3.17c3.15,0.56,4.5-4.25,1.33-4.82a28.15,28.15,0,0,0-20.07,3.67c-2.74,1.68-.23,6,2.52,4.32h0Z"/><path class="cls-8" d="M504.82,233.53a2.94,2.94,0,0,0,3.36-1.28,3.73,3.73,0,0,0-1.23-4.86,3,3,0,0,0-3.58.51,2.52,2.52,0,0,0,0,3.54,2.55,2.55,0,0,0,3.54,0,0.89,0.89,0,1,0-.33.26,2.15,2.15,0,0,1-1.66.21,2,2,0,0,1-.92-0.54l0,0c-0.55-.58-0.34-0.49-0.21-0.24-0.38-.74-0.21-0.54-0.15-0.3,0.11,0.42-.05-0.72,0-0.35s0.12-.58.06-0.38a2.06,2.06,0,0,1,1-1.2,2.11,2.11,0,0,1,1.05-.28q0.82,0.15.45,0.05a2.5,2.5,0,1,0-1.33,4.82h0Z"/><path class="cls-8" d="M505.36,268.63h23.79c3.22,0,3.22-5,0-5H505.36c-3.22,0-3.22,5,0,5h0Z"/><path class="cls-8" d="M549.32,313.2c10.19-2.16,20.4,2.17,27.43,9.56,8.07,8.49,11,20.6,11,32,0.07,22.15-9.11,44-23.53,60.62-2.1,2.42,1.42,6,3.54,3.54,16.56-19,27.29-45.38,24.64-70.91-1.22-11.75-5.64-23.42-14.75-31.31-8.23-7.12-18.89-10.62-29.65-8.34-3.15.67-1.81,5.49,1.33,4.82h0Z"/><path class="cls-8" d="M428.42,382.84c-3.15-10.52.43-20.95,5.09-30.43a194.48,194.48,0,0,1,14.25-24.61c10.54-15.3,25.69-28.82,44.91-30.66,3.18-.3,3.21-5.31,0-5-20.53,2-36.69,15.44-48.25,31.74a176.93,176.93,0,0,0-16.78,29.3c-4.44,9.83-7.22,20.38-4,31,0.92,3.07,5.75,1.76,4.82-1.33h0Z"/><path class="cls-9" d="M141.82,288.59l28.87-20.28c2.49-1.75,5.25-4,5.26-7a9.57,9.57,0,0,0-1.78-4.76c-12.23-20.39-26.17-44-18.11-66.41s35.2-32.08,59-31.3c15.37,0.51,31,4.3,43.55,13.16a60.83,60.83,0,0,1-1.84,100.7c-8.54,5.56-18.35,8.89-28.29,11.1-13.38,3-13.23,5.43-26.69,2.84-5.08-1-19.56-5.76-19.56-5.76s-25.59,5.93-40.42,7.73"/><path class="cls-8" d="M143.08,290.75l24.86-17.46c4.76-3.35,12.08-7.34,10.15-14.34-0.94-3.41-3.52-6.58-5.29-9.6-2.52-4.28-5-8.61-7.23-13-4.26-8.38-8-17.39-9.09-26.81-4.1-35.53,33.41-50.12,62.87-47.95,17.81,1.31,35.6,7.67,47.66,21.31,11.16,12.62,16.79,30.12,14.35,46.86a59.6,59.6,0,0,1-25.84,40.8c-7.43,4.84-15.82,7.93-24.39,10.07-6.35,1.58-13.37,4.48-20,4.61-7.12.15-14.24-2.32-21-4.41-3-.94-6.22-2.66-9.39-2.17-13.08,2-25.84,5.81-39,7.47-3.15.4-3.19,5.4,0,5,13.09-1.65,26.06-4.43,38.92-7.33l1.74-.4c1.08-.26-1.32-0.23-0.6,0,2.15,0.72,4.31,1.4,6.47,2.07,6.29,2,12.56,3.89,19.14,4.56s12-1.42,18.17-3c9.11-2.32,18.07-4.47,26.5-8.79a64.57,64.57,0,0,0,31.5-36.86c11-32.73-7.74-67.79-39.44-79.65C217.12,151.58,177,154,158.78,179.56c-11.64,16.34-7.94,36.64-.19,53.75,2.17,4.8,4.66,9.45,7.26,14,1.43,2.52,2.91,5,4.39,7.51,2.09,3.51,4.64,6.4.8,10.07-4.13,3.95-9.78,7-14.46,10.25l-16,11.27c-2.61,1.84-.12,6.17,2.52,4.32h0Z"/><path class="cls-10" d="M352.26,295.3a99.25,99.25,0,0,1-43.65-18,70.68,70.68,0,0,0,21.81-47.46A29.47,29.47,0,0,0,329.27,219c-1.61-4.73-5.06-8.62-8.85-11.87-18.27-15.65-45.19-18.16-68.28-11.39-9.12,2.67-18,6.76-24.94,13.28-13.92,13.13-17.44,36-8.11,52.68,5,9,13.08,15.91,21.51,21.83,12.77,9,19.44,16.27,34.83,13.74,9.68-1.6,26.29-10.42,26.29-10.42s36.75,14.08,50.53,8.5"/><path class="cls-8" d="M352.92,292.89a100.35,100.35,0,0,1-43.06-17.71l0.51,3.93A73.83,73.83,0,0,0,332,238.36c1.19-7.18,1.95-15.23-1.1-22.06-2.94-6.59-8.8-11.58-14.69-15.5-24.61-16.35-63.13-14.83-86.68,3a46.48,46.48,0,0,0-18.08,35.05c-0.7,15.1,6.14,28.31,17.14,38.33,5.74,5.22,12.25,9.59,18.53,14.12,5.43,3.92,11.11,7.55,17.86,8.58,12.14,1.85,24.12-4,34.72-9.22a12.41,12.41,0,0,0,2.41-1.22c1.74-1.46-.53,1.62-1-0.18,0.07,0.29,2.47.9,2.71,1q7,2.47,14.1,4.46c10.48,2.92,24.27,7,35,3,3-1.11,1.7-5.95-1.33-4.82-8.31,3.09-18.63.42-26.9-1.6-7.28-1.77-14.21-4.66-21.41-6.57a4.85,4.85,0,0,0-3.94.5c-4.14,1.95-8.2,4-12.45,5.77-5.45,2.22-11.08,4.18-17,4.23-6.5.05-12-2.59-17.29-6.18-11.67-8-24.83-16.48-31.66-29.26-6.28-11.76-5.89-26.65.15-38.43,13-25.4,51-31.13,76.06-23.85a58.23,58.23,0,0,1,20.94,10.87c7.55,6.26,10.44,13.29,9.75,23.08a68.67,68.67,0,0,1-21,44.12,2.54,2.54,0,0,0,.51,3.93,103.54,103.54,0,0,0,44.25,18.22c3.15,0.5,4.5-4.32,1.33-4.82h0Z"/><path class="cls-8" d="M258.6,220.22a18.89,18.89,0,0,1,25.05-5.16l-1.15-2.82-11.93,37.5c-1,3.07,3.85,4.39,4.82,1.33l11.93-37.5a2.54,2.54,0,0,0-1.15-2.82,24,24,0,0,0-31.89,7c-1.84,2.65,2.49,5.15,4.32,2.52h0Z"/><path class="cls-8" d="M275.44,272.11a4,4,0,0,0,0-7.92,2.5,2.5,0,0,0,0,5c0.33,0-.37-0.07-0.38-0.08,0.36,0.09-.49-0.26-0.31-0.15a1.81,1.81,0,0,1-.53-0.54c0.2,0.32-.11-0.26-0.11-0.31s0,0.12.06,0.18a1.43,1.43,0,0,0,0-.38,1.52,1.52,0,0,1,0,.24c0,0.43.17-.59,0-0.19a1.21,1.21,0,0,0-.07.22s0.28-.62.13-0.35,0.23-.3.23-0.3c-0.21.22,0.32-.24,0.31-0.23a0.61,0.61,0,1,0,.14-0.05,0.82,0.82,0,0,1,.46-0.12c0.49-.06.16,0,0,0a2.52,2.52,0,0,0-2.5,2.5,2.55,2.55,0,0,0,2.5,2.5h0Z"/><path class="cls-8" d="M233.3,1.82c31.72,12.67,56.62,36.92,76.63,64,21,28.39,37.9,59.86,54.52,90.91,10.95,20.46,21.06,41.38,28.36,63.44a2.61,2.61,0,0,0,2.41,1.84l53.33,4.36-1.26-4.66c-14.78,7.31-30.18,15.19-46.19,19.36-3.12.82-1.8,5.52,1.33,4.82l0.07,0-3.16-2.41c3.19,27.12,5.61,54.39,7,81.66,2.13,41.65-.86,83.68-10.39,124.35-10.58,45.16-30.91,87-67.19,116.94A164,164,0,0,0,315,578.57c-4.85,5-9.05,10.61-13.91,15.62-8.7,9-19.53,15.53-31.17,20-22.16,8.55-46.66,11.09-70.23,12-46.88,1.8-97.22-6.53-134.81-36.53-20.07-16-34.82-37.29-47.52-59.35A600.84,600.84,0,0,1-18.42,456.9,623.73,623.73,0,0,1-59.56,299.79a614.93,614.93,0,0,1-4.8-78.87c0.11-28.06,2.18-56.54,11.42-83.24,8.81-25.45,24.09-48.25,41.14-68.9C4.76,48.73,23.65,30.29,45.65,16.26c44.17-28.16,99-43.57,150.65-29.59A164.54,164.54,0,0,1,232.71,1.57c2.82,1.55,5.35-2.76,2.52-4.32A164.84,164.84,0,0,0,160.6-23.61c-26.66-.8-53.22,5.07-77.81,15.15a234.9,234.9,0,0,0-68,42.05A303.23,303.23,0,0,0-36.45,93.72,192.3,192.3,0,0,0-66,170.38c-4.19,27.62-4,55.93-2.62,83.77A627,627,0,0,0-6.93,494.94c11.71,24.21,24.55,48.48,41,69.87,15.14,19.74,34,35.82,56.41,46.67,21.39,10.34,44.72,16,68.29,18.48a308.31,308.31,0,0,0,72.35-1.43c23.48-3.11,47.65-9.12,66.45-24.28,10.48-8.45,17.88-19.92,28.07-28.71,9.7-8.36,19.47-16.2,27.94-25.88,14.67-16.77,25.78-36.25,34.11-56.85,31-76.69,26.28-161.35,17.53-241.79-0.27-2.51-.55-5-0.84-7.53a2.55,2.55,0,0,0-3.16-2.41l-0.07,0,1.33,4.82c16.4-4.28,32.24-12.37,47.38-19.86,2.41-1.19,1-4.47-1.26-4.66L395.22,217l2.41,1.84c-12.71-38.41-33.33-74-53.47-108.92C326.89,80,307.72,50.2,281.89,26.85A157.87,157.87,0,0,0,234.63-3C231.65-4.19,230.35.64,233.3,1.82Z"/><path class="cls-8" d="M405.08,381.41c17.22,1.37,34,8.19,50.33,13.34,15.91,5,31.88,9.88,47.71,15.14,31.64,10.5,61.2,24.55,87.16,45.71,2.47,2,6-1.5,3.54-3.54-26.14-21.3-55.71-35.73-87.56-46.4-17-5.71-34.24-10.93-51.37-16.32-16.26-5.12-32.69-11.58-49.81-12.93-3.21-.25-3.19,4.75,0,5h0Z"/><path class="cls-9" d="M230.43,352.31C233.66,354.63,349,365,349,365s-16.2,63.64-18.07,66.2S285.49,557.9,285.49,557.9l-40.16-13.48Z"/><polygon class="cls-11" points="240.16 515.06 203.31 537.2 179.84 399.07 230.43 348.92 240.16 515.06"/><path class="cls-8" d="M268.13,543.84a4.06,4.06,0,0,0,6.65,1.63c2.46-2.35.57-6.26-1.42-8.23s-5.15,1.12-3.13,3.13a4.76,4.76,0,0,1,1,1.39c0,0.1.32,1.1,0.33,1.1a0.83,0.83,0,0,1,0-.44c-0.06.38,0.15-.16,0,0a0.62,0.62,0,0,0,.2-0.2,0.22,0.22,0,1,0-.1.05,0.9,0.9,0,0,1,.19-0.07l0.2,0.06a0.6,0.6,0,0,0,.19.17c0.19,0.22-.2-0.56.1,0.22a2.27,2.27,0,0,0-2.72-1.54,2.23,2.23,0,0,0-1.54,2.72h0Z"/><path class="cls-7" d="M186.81,399.12l147,35.32a1.8,1.8,0,0,1,1.26,2.4l-44,113.5a1.8,1.8,0,0,1-2,1.13l-84.89-13.66a1.8,1.8,0,0,1-1.5-1.54L184.6,401.11A1.8,1.8,0,0,1,186.81,399.12Z"/><path class="cls-7" d="M186.22,401.25l103.34,24.83,28,6.73c4.51,1.08,10.67,1.47,14.84,3.56,1.15,0.58.49-.6,0.24,0.68-0.39,2-1.56,4-2.28,5.89l-9.63,24.83-24.57,63.37-4.25,11c-0.78,2-2.12,4.33-2.51,6.47a3.34,3.34,0,0,1-.43,1.12c0.68-.74.87-0.2-0.21-0.5a72.18,72.18,0,0,0-8-1.29l-63.58-10.23-9.94-1.6a9.2,9.2,0,0,1-2.17-.35c-0.66-.31.33,0.93-0.17,0.15-0.66-1-.5-3.73-0.66-4.93l-1.3-9.69L187.2,404.06c-0.09-.69-0.33-2.73-0.4-2.72,2.81-.26,2.84-4.68,0-4.42-6.31.58-4,7.33-3.43,11.55L186.94,435l9.62,71.68,3.29,24.49c0.49,3.67.23,7.8,4.53,8.91,7.29,1.87,15.19,2.44,22.61,3.64l36.41,5.86c8,1.29,16,2.9,24.08,3.87,5,0.6,5.86-2.8,7.35-6.64l22.38-57.72,12.53-32.31c2.35-6.06,5.2-12.13,7.11-18.35,1.4-4.53-1.64-5.91-5.34-6.8l-20.24-4.86-121-29.06-2.92-.7C184.63,396.33,183.45,400.59,186.22,401.25Z"/><path class="cls-8" d="M295.51,447l-17.8-5.24c-2.11-.62-4.49-1.41-6.23.56-1.43,1.62-1.07,4.17-1.23,6.16a93.58,93.58,0,0,1-2.17,13.56c-0.64,2.77,3.62,4,4.26,1.18s1.25-5.84,1.67-8.8q0.29-2.07.5-4.15c0.1-1-.22-3.67.11-4.21,0.51-.84-0.13-0.37,1.34-0.19a25.13,25.13,0,0,1,3.87,1.14l14.49,4.27c2.73,0.81,3.9-3.46,1.18-4.26h0Z"/><path class="cls-8" d="M234.93,510.37c18.74,1.21,37.19-8.33,46.18-25A49.2,49.2,0,0,0,287,459c-0.16-2.42-.14-6.44-3-7.45-2.34-.83-4.17,1-4.26,3.21-0.13,2.84,4.29,2.84,4.42,0l0-.69L283.11,456c-1.66,1.17-.42,7.4-0.57,9.36a45.1,45.1,0,0,1-11.84,27,45.11,45.11,0,0,1-35.77,13.62c-2.84-.18-2.83,4.24,0,4.42h0Z"/><path class="cls-8" d="M191.21,478.39l13,4.27c3.73,1.22,8.48,3.78,12.41,4a4.25,4.25,0,0,0,4.21-2.25c2.16-3.31,2.78-8.7,3.92-12.47,0.82-2.73-3.44-3.9-4.26-1.18-0.89,3-1.52,6.27-2.74,9.11-0.81,1.88-.22,1.82-2.12,1.94-1.14.07-3.66-1.2-4.65-1.53l-18.61-6.1c-2.71-.89-3.87,3.38-1.18,4.26h0Z"/><path class="cls-8" d="M256.63,439.23c-15.1-2.64-32.51-4.33-45,6.52-10.28,8.93-11.75,24.64-4.18,35.73,1.6,2.33,5.43.13,3.82-2.23-7.07-10.35-5-24.62,5.46-31.89,11.33-7.87,25.93-6.1,38.72-3.86,2.78,0.49,4-3.77,1.18-4.26h0Z"/><path class="cls-8" d="M334.28,429.34c-15.87,43.09-35,84.89-50.92,128-1,2.67,3.29,3.83,4.26,1.18,15.87-43.09,35-84.89,50.92-128,1-2.67-3.29-3.83-4.26-1.18h0Z"/><path class="cls-8" d="M182.6,393.5q5.73,50.58,12.53,101,1.73,12.78,3.52,25.56,0.9,6.39,1.81,12.77c0.34,2.35.16,5.6,2.21,7.23s5.89,1.51,8.33,1.92q5.59,0.94,11.18,1.83,10.93,1.75,21.86,3.41c8.18,1.26,16.36,2.5,24.53,3.8q5.66,0.9,11.31,1.83l6.18,1c0.85,0.15,4.35.54,4.35,0.54l0.45-3.47a0.4,0.4,0,0,1,.58.14l0.45,3.47c1.23-1.48,3.38-1.74,4.58-3.68a7.57,7.57,0,0,0,.91-5.81c-0.5-2.8-4.76-1.61-4.26,1.18,0.35,2-2.54,3.54-3.44,4.52-0.24.26-.67,0.36-0.92,0.67-0.84,1-.94,2.79.45,3.47a4,4,0,0,0,3.88-.14,2.24,2.24,0,0,0,.45-3.47c-1.9-1.65-5.45-1.53-7.82-1.94q-6.34-1.08-12.69-2.09c-9-1.44-18-2.81-27-4.19s-17.86-2.74-26.78-4.19l-6.34-1c-1.59-.27-4.76-0.2-6.11-1-2.46-1.53-2.19-5.62-2.54-8.09s-0.75-5.24-1.11-7.86q-9-63.58-16.17-127.39c-0.32-2.79-4.74-2.83-4.42,0h0Z"/><path class="cls-8" d="M228.87,347.36l-26.31,20.88-18.78,14.88c-3,2.34-13,8.47-5.86,12.18,2.27,1.17,5.41,1.4,7.87,2q4.58,1.14,9.15,2.33,10,2.62,20,5.41c13.32,3.7,26.6,7.54,39.93,11.22,13,3.6,26.08,7.05,39.24,10.08q9.66,2.22,19.39,4.11c6,1.16,12.67,3.17,18.84,3.08,5.65-.08,7.4-4.29,8.49-9.11,1.59-7,2.71-14.15,3.67-21.28,1.94-14.47,3.36-28.94,6.59-43.2a2.24,2.24,0,0,0-2.13-2.8c-39.59-2.4-79.11-6.44-118.56-10.45-2.83-.29-2.81,4.14,0,4.42,39.45,4,79,8.05,118.56,10.45l-2.13-2.8a323.58,323.58,0,0,0-5.32,33c-0.69,5.7-1.36,11.4-2.24,17.07q-0.62,4-1.36,8c-0.44,2.34-.68,8-2.15,9.92-3.56,4.68-14.14.82-19.21-.14q-9.28-1.75-18.48-3.84c-11.64-2.62-23.21-5.6-34.73-8.72-23.66-6.42-47.15-13.49-70.9-19.57q-4.12-1.05-8.25-2.07c-0.51-.12-3.8-0.69-3.8-1a7.88,7.88,0,0,1,1.11-.88c1.61-2.11,4.83-3.82,6.92-5.47l16.78-13.3L232,350.48C234.22,348.71,231.08,345.6,228.87,347.36Z"/><path class="cls-9" d="M162.19,117.26c-1.27-1.86-3.73-2.4-5.95-2.78a433.84,433.84,0,0,0-76-6.2c1.89-3.32,2.34-7.43,2.87-11.3a130.22,130.22,0,0,1,15-45.35c1.93-3.49,4.1-7,7.33-9.31s7.77-3.25,11.23-1.29c4.39,2.48,5.43,8.25,5.76,13.28a156.05,156.05,0,0,1-3.69,45.39c-0.72,3.09-1.23,7,1.37,8.81a7.86,7.86,0,0,0,4.46,1l9.33,0.12c1.46,0,3,0,4.19-.9s1.61-2.62,1.87-4.15a112.73,112.73,0,0,0-4.7-56.35c-2.69-7.64-6.73-15.54-14-19C110.3,24,97.4,30.86,88.79,39.33A88.84,88.84,0,0,0,63,108.75c-5.89.27-.07,0.34-5.95,0.86h0L46.32,158.9c-2,9.25-4,18.59-4.15,28.06,0,1.65.09,3.46,1.22,4.65a6.75,6.75,0,0,0,3.28,1.55l43.17,11.44c11.62,3.08,23.35,6.18,35.35,6.76,2.6,0.13,5.39.09,7.57-1.35,2.44-1.6,3.55-4.55,4.51-7.3l19.28-55c2.88-8.22,5.78-16.55,6.49-25.23C163.19,120.67,163.21,118.74,162.19,117.26Z"/><path class="cls-8" d="M60.48,114.87C57.69,90.81,65,65.91,81,47.61c7.45-8.51,19.18-18.51,31.45-15.49,12.46,3.06,16.72,18.73,19.35,29.55a109.76,109.76,0,0,1,1.86,42.94c-0.43,2.69-.08,2.7-2.55,4.24-2.29,1.43-3.14,1.25-5.75,1.21-3.84,0-9.49.35-10.13-4.3-0.4-2.89,1.33-6.86,1.86-9.7q0.92-4.93,1.53-9.9a156.93,156.93,0,0,0,1.2-19.95c0-5.56.14-11.59-1.54-16.95-2.71-8.65-11.74-11.15-19-5.87-4.77,3.48-7.54,9.27-10.1,14.41a134.07,134.07,0,0,0-7.59,18.55,129.69,129.69,0,0,0-4.88,20.76,64.12,64.12,0,0,1-1.65,9.52c-1.22,4-7.39,10.88-11.34,5.16-1.35-2-4.59-.1-3.22,1.88,2.33,3.38,6.18,4.44,10.09,3.23,4.88-1.5,7.34-6.12,8.45-10.8,1.72-7.25,2.22-14.7,4.13-21.94a127.88,127.88,0,0,1,8.43-22.89c3-6.21,7.57-17.35,16-17.07,9.6,0.32,8.43,15.44,8.46,22a153.34,153.34,0,0,1-2.09,26c-0.85,5.06-4,12.29-1.91,17.43s8.84,4,13.27,4.1c5,0.06,9.8.43,11.36-5.21,3.82-13.83,2.37-30.45-.52-44.3-2.37-11.35-6.13-26-16.41-32.93s-23.12-2.17-32.11,4.71c-23.3,17.84-34.28,50.3-31,78.82,0.27,2.35,4,2.38,3.73,0h0Z"/><path class="cls-8" d="M52.3,113.86a349.6,349.6,0,0,1,65.43.11,325.2,325.2,0,0,1,33.93,4.83c11,2.33-.63,27.86-2.95,34.46L136.51,188.1c-1.92,5.5-3.7,11.07-5.78,16.51-1.71,4.46-3.34,7.21-8.71,7.32a65.41,65.41,0,0,1-10.51-.92c-12-1.73-23.65-5.22-35.32-8.31l-16.89-4.48-7.51-2c-3-.79-7.69-1.22-10.32-2.81-4.86-2.92-1.26-15.9-.42-20.5,1.21-6.59,2.73-13.13,4.16-19.68l8.88-40.76c0.51-2.34-3.08-3.34-3.59-1L41,155.1c-1.42,6.53-2.94,13-4,19.64-0.88,5.37-2.57,12.21-1.18,17.6,1.15,4.47,5.48,5,9.38,6l21.59,5.72c13.85,3.67,27.72,8,41.89,10.26,5.36,0.86,11.65,2.22,17,1,4.41-1,6.6-4.4,8.17-8.34,5.44-13.66,9.77-27.87,14.63-41.75,4.38-12.5,10-25.28,11.51-38.54,0.46-4.11.41-8.08-3.6-10.34-4.78-2.69-12.07-2.6-17.41-3.4a367.28,367.28,0,0,0-86.67-2.83c-2.37.2-2.39,3.93,0,3.73h0Z"/><path class="cls-7" d="M118,129c-14.11-1.31-28.84-4.41-42.06.67-18.61,7.15-28.22,31.17-20.49,49.55s30.67,28.38,49.71,22.44,32.08-26.38,30.47-46.25c-0.5-6.18-2.4-12.51-6.75-16.92S123.45,126.06,118,129"/><path class="cls-8" d="M118,126.52c-20.41-2-43.43-6-58.09,12-10.54,12.95-13.07,32.19-4.21,46.7s26.9,22.55,43.66,20.29c18.37-2.47,33-17.71,37.45-35.31,2.5-9.9,2.24-21.95-3.81-30.58-1.31-1.87-3-3.42-4.25-5.32a63.88,63.88,0,0,0-3.44-5.48c-2.42-2.93-5.13-3.44-8.57-1.94-2.94,1.28-.4,5.59,2.52,4.32,2.37-1,5.18,5.75,6.24,7.17,2.66,3.56,5.23,6.43,6.49,10.85,2.21,7.76,1.43,16.2-1.24,23.74-5.14,14.55-18.29,26.62-34,27.84-14.44,1.12-29.62-6-37-18.67S54.6,153.18,63.46,142c13.48-17,35.74-12.35,54.55-10.52,3.2,0.31,3.18-4.69,0-5h0Z"/><path class="cls-8" d="M70.86,160.49a65.9,65.9,0,0,0,2.2,23.13,2.53,2.53,0,0,0,4.18,1.1l45.16-38.16c2.46-2.08-1.09-5.6-3.54-3.54L73.7,181.19l4.18,1.1a61.85,61.85,0,0,1-2-21.8c0.26-3.21-4.74-3.19-5,0h0Z"/><path class="cls-8" d="M125.76,305A51.28,51.28,0,0,0,34.6,272.69a51.29,51.29,0,0,0,50.12,82.53C108.44,350.45,125.59,329,125.76,305Z"/><path class="cls-8" d="M149.22,398c-8.06-10.86-13.33-23.33-19.55-35.26-1.52-2.92-3.1-5.8-4.8-8.62-1.31-2.17-2.66-5.11-4.74-6.67s-4.44-.79-6.35.71c-2.91,2.28-5.55,5-8.28,7.51a1.24,1.24,0,0,0-.28.37l-0.61.18a1.3,1.3,0,0,0-.9,1.59,187.28,187.28,0,0,0,22.57,42.6c4.81,6.76,10.06,13.21,15.36,19.59,1.58,1.9,3.69,5.7,6.69,4.43a16.65,16.65,0,0,0,6.44-5.83C159.37,411.48,153.44,403.63,149.22,398Z"/><circle class="cls-12" cx="66.41" cy="303.45" r="50"/><path class="cls-8" d="M117.7,303.45a51.93,51.93,0,0,0-33-47.93,51.3,51.3,0,1,0-9,98.38c24.3-4.37,41.7-26,42-50.45a1.29,1.29,0,0,0-2.58,0c-0.28,20.41-13,39-32.37,45.9a48.72,48.72,0,1,1-7.1-93.74c22.88,4.42,39.15,24.75,39.47,47.84A1.29,1.29,0,0,0,117.7,303.45Z"/><circle class="cls-7" cx="66.41" cy="303.45" r="34.48"/><path class="cls-8" d="M103.38,303.45a37,37,0,0,0-65.7-23.26,37,37,0,0,0,35.51,59.59C90.74,336.64,103,321,103.38,303.45c0.06-3.22-4.94-3.22-5,0-0.27,13.43-8.51,25.71-21.37,30.18A32,32,0,1,1,72.53,272c15.06,2.94,25.56,16.25,25.86,31.4C98.45,306.66,103.45,306.67,103.38,303.45Z"/><path class="cls-10" d="M95.3,346.16a12.22,12.22,0,0,1,8,7.29"/><path class="cls-8" d="M95,347.4a11.07,11.07,0,0,1,7.1,6.38c0.62,1.52,3.12.86,2.49-.69a13.83,13.83,0,0,0-8.9-8.19A1.29,1.29,0,0,0,95,347.4h0Z"/><path class="cls-13" d="M105.71,353.29L96.89,356A184.33,184.33,0,0,0,119,397.86c5.56,7.87,11.73,15.28,17.9,22.69a2.91,2.91,0,0,0,2.2,1.38,2.87,2.87,0,0,0,1.45-.72c2.24-1.71,4.57-3.52,5.71-6.1,2.72-6.11-2.25-12.63-6.27-18-11.14-14.82-16.87-33-27.25-48.41a5,5,0,0,0-2.6-2.34c-1.64-.43-3.22.8-4.47,1.95l-7.37,6.74"/><path class="cls-8" d="M105.36,352l-8.82,2.67a1.3,1.3,0,0,0-.9,1.59,189.48,189.48,0,0,0,19.3,37.85c4.06,6.11,8.52,11.93,13.12,17.63,2.42,3,4.8,6,7.35,8.93,1.11,1.25,2.2,2.65,4.07,2.46,3.86-.4,8-6.41,8.69-9.84,1-5.53-2.51-10.72-5.6-14.94-8.35-11.43-14.13-24-20.61-36.48-1.81-3.49-3.7-6.95-5.77-10.29-1.25-2-2.58-5-4.83-6.08-4.93-2.44-11,5.93-13.93,8.63-1.23,1.12.6,2.95,1.83,1.83,2.48-2.27,8.32-9.84,12.42-6.61,2.18,1.72,3.93,6.24,5.26,8.63,3,5.41,5.7,11,8.45,16.54a185.7,185.7,0,0,0,9.7,17.72c3.42,5.34,9.37,10.87,10.43,17.31a8.46,8.46,0,0,1-1,6.11c-0.59.95-3.23,4.13-4.59,4.41-3,.61-6.57-5.86-8.23-7.89-4.92-6-9.71-12.16-14-18.62a186.45,186.45,0,0,1-19.54-38l-0.9,1.59,8.82-2.67a1.29,1.29,0,0,0-.69-2.49h0Z"/></g></g></g></svg>