<svg xmlns="http://www.w3.org/2000/svg" xmlns:xlink="http://www.w3.org/1999/xlink" viewBox="0 0 580 580"><defs><style>.cls-1{fill:none;}.cls-2{isolation:isolate;}.cls-3{clip-path:url(#clip-path);}.cls-4{fill:#231f20;}.cls-5{fill:#feeb8d;}.cls-6{mix-blend-mode:multiply;fill:url(#linear-gradient);}.cls-7{fill:url(#linear-gradient-2);}.cls-8{fill:#004f7f;}.cls-9{fill:#feeb8c;}</style><clipPath id="clip-path"><rect class="cls-1" width="580" height="580"/></clipPath><linearGradient id="linear-gradient" x1="382.64" y1="528.9" x2="382.64" y2="-166.22" gradientTransform="translate(495.72 -253.82) rotate(90)" gradientUnits="userSpaceOnUse"><stop offset="0" stop-color="#fff"/><stop offset="0.6" stop-color="#9acd72"/></linearGradient><linearGradient id="linear-gradient-2" x1="297.42" y1="525.29" x2="297.42" y2="34.1" gradientUnits="userSpaceOnUse"><stop offset="0" stop-color="#fff"/><stop offset="0.34" stop-color="#fcfefc"/><stop offset="0.59" stop-color="#f4faf3"/><stop offset="0.8" stop-color="#e5f3e3"/><stop offset="0.99" stop-color="#d0e9ce"/><stop offset="1" stop-color="#cfe8cc"/></linearGradient></defs><title>iiLAB -U1-concepts-03-HIJACKED ACCOUNT</title><g class="cls-2"><g id="Layer_3" data-name="Layer 3"><g class="cls-3"><path class="cls-4" d="M567.6,163.56c3.22,0,3.22-5,0-5s-3.22,5,0,5h0Z"/><rect class="cls-5" x="-33.8" y="-34.12" width="645" height="645"/><circle class="cls-6" cx="311.27" cy="128.81" r="364.11" transform="translate(148.54 423.77) rotate(-83.59)"/><path class="cls-7" d="M432.19,474.23c3.27-18.5,13.26-35.06,19.1-52.92,11.48-35.1,5.82-75.38-14.9-106-13.18-19.45-32.1-35.28-41.05-57-20.92-50.74,20.34-106.07,21.85-160.48a35.87,35.87,0,0,0,14.48-12.82c8.82-14.2,4.31-34-7.34-45.95C417.4,32,407.83,27,397.89,27.2a26.29,26.29,0,0,0-9.18,1.92c-54.4-4.2-163.8-7.89-212.84.64-9.53,1.66-19.3,3.92-27.07,9.68s-13,15.9-10.42,25.21c2.94,10.42,14.14,16.08,24.6,18.86,9.5,2.52,20.67,3.36,28.17-3,13.94,55.45-6.71,104.09-19.9,128.66-8.72,16.25-19.58,31.41-26.65,48.44s-10,36.92-2.42,53.73c8.32,18.4,27.52,29.74,37.24,47.44,15.07,27.45,3.69,61.44-9.2,90s-27.46,60.12-17.79,89.91c81,2.29,220-3.2,299.94-16.39C435,515.08,428.93,492.73,432.19,474.23Z"/><path class="cls-8" d="M373.49,42.2c-14,11.46-30,25.59-28.68,45.48,0.49,7.58,3.53,15.11,9.7,19.79,7.41,5.63,17.34,5.9,26.22,5,16.45-1.72,34.7-8.78,41-25.46s-1.4-36.29-15-46.9c-15.14-11.78-40.47-11.5-47.82,9.08-0.81,2.28,2.81,3.26,3.62,1,6.64-18.6,30-17,42.79-6.44,11.4,9.41,18,25.77,13.52,40.28-4.7,15.32-20.79,22.26-35.43,24.36-8,1.15-17.28,1.65-24.54-2.52-6.49-3.74-9.75-10.9-10.24-18.16-1.28-18.82,14.38-32.06,27.58-42.83,1.87-1.53-.8-4.17-2.65-2.65h0Z"/><path class="cls-8" d="M175.06,87.52c8,32.63,4.8,66.44-6.55,97.86a222.47,222.47,0,0,1-14.88,32.48c-8.41,15.14-18.38,29.47-25,45.53-6.05,14.61-9.28,31.27-5.33,46.87,3.61,14.24,13.63,24.8,23.51,35.09,11.75,12.24,21.49,24.91,23.29,42.36,1.75,16.93-2.82,34-8.72,49.69-12.9,34.41-36.83,70-25,108.26a1.93,1.93,0,0,0,1.81,1.38A1921,1921,0,0,0,379,538.14c19.93-2,39.83-4.32,59.59-7.55a1.89,1.89,0,0,0,.45-3.43c-14.38-6.35-20.23-22.31-20.08-37.17,0.18-18.32,9.57-35.15,16.22-51.75,12.86-32.1,12.68-67.9-1.55-99.57-7-15.61-17.75-28.47-28.68-41.45-11.23-13.34-21.78-27.27-25.82-44.57-7.38-31.61,5.69-64,14.81-93.85,5.17-16.93,9.91-34.24,10.77-52,0.54-11.11,1.43-36.11-14.22-37.61-2.4-.23-2.38,3.52,0,3.75,9,0.86,9.89,14.65,10.37,21.39a115.41,115.41,0,0,1-1.06,24.48c-2.28,15.81-7,31.15-11.75,46.35-8.89,28.44-19.65,59.17-12.37,89.2,8,33,38.48,52.94,53,82.54A122.58,122.58,0,0,1,441,389.36c0.19,18.42-4.27,35.68-11.36,52.55s-15.84,34.53-14.22,53.45c1.23,14.4,7.92,28.94,21.73,35l0.45-3.43c-37.95,6.22-76.4,9.45-114.74,12q-62.09,4.06-124.35,4.75c-20.11.22-40.24,0.17-60.35-.39l1.81,1.38c-11-35.57,10.38-69.55,23.15-101.44,11.42-28.53,18-61.71-2.36-87.86-9.24-11.86-21.72-21.21-29.18-34.44-8.93-15.84-7.2-34.88-1.31-51.45,6-16.94,16.48-31.86,25.31-47.39a233.15,233.15,0,0,0,15.17-31.93c12.66-33.09,16.42-69,8-103.64-0.57-2.34-4.19-1.35-3.62,1h0Z"/><path class="cls-8" d="M381,34.26a1459.69,1459.69,0,0,0-153.56-4.8c-22.88.48-46.16,1.2-68.71,5.41C145,37.44,130,42.53,123.8,56.27c-5.6,12.46.51,24.38,11.88,30.66,10.63,5.88,26.38,9.85,37.89,4.4,1.14-.54,2.35-1.72,3.48-2.09,1.92-.62,4.55.21,6.55,0.37C188.73,90,193.88,90.11,199,90c6.75-.08,13.5-0.42,20.25-0.66,23.29-.82,46.59-1.31,69.89-1.83,26.18-.59,52.36-1.14,78.54-1.83,9.95-.26,19.9-0.53,29.84-0.92,4.73-.19,10.47-0.41,12.75-5.37C412.5,74.66,410.1,69,406,66.27c-9.66-6.46-26.53-2.45-32.85,7-7,10.52-1.31,23.89,11.27,25.49,11.31,1.44,23.31-7.1,22.64-19.12-0.61-10.85-11.13-19.18-21.55-14.18a14.38,14.38,0,0,0-8.39,12.13c-0.17,2.41,3.58,2.4,3.75,0,0.52-7.17,9-12.11,15.5-9s8.72,11.95,5.54,18.06c-6.82,13.14-32.29,10.34-27.57-7,1.88-6.94,8.53-10.86,15.22-12.08,5.67-1,20.6-.08,17.69,9.48-1.58,5.19-10.33,4-14.7,4.19q-6.3.22-12.61,0.4c-41.78,1.23-83.58,1.94-125.37,3-19.44.49-39,1.71-58.39,1.7-3.54,0-7.08-.09-10.62-0.32-2.71-.17-6.53-1.35-9.14-0.79a12.76,12.76,0,0,0-2.8,1.88,19.13,19.13,0,0,1-4.79,2,30.13,30.13,0,0,1-11.22.67c-11.58-1.19-28.11-6.52-31.64-19.15C121.47,54.78,138.1,44,151,40.44c9.17-2.52,18.75-3.69,28.19-4.64,20.6-2.06,41.36-2.61,62-2.79,46.56-.4,93.34,1.08,139.75,5,2.4,0.2,2.39-3.55,0-3.75h0Z"/><path class="cls-9" d="M322.33,132.06c-6.28-3.87-15.65-1.1-18.81,5.57a24.3,24.3,0,0,0-1.82,8.4c-1,11.46-.82,23.64-6.78,33.48-3.43,5.65-8.6,10-13.67,14.23a16.88,16.88,0,0,1,11.43.71c3.56,1.56,7.55,4.38,10.89,2.4,2.84-1.69,3.93-6.4,7.23-6.27,1.83,0.07,3.42,1.8,5.21,1.45,1-.2,1.79-1,2.72-1.46a8.3,8.3,0,0,1,3.53-.51c10.92-.08,12.6-0.25,23.93-5,1.64-.69,2.12.52,2.17,0.06a0.6,0.6,0,0,0-.8-0.62c-4.95,1.79-8.17-4-11.2-9-5.08-8.49-9.11-12.68-10.44-20.47-0.84-4.92.25-9.93,0.7-14.9,0.2-2.19.24-4.53-.88-6.43s-3.77-3-5.6-1.83"/><path class="cls-8" d="M323.27,130.44a15.74,15.74,0,0,0-14.75-.28c-6,3-8,8.67-8.62,15-0.88,8.59-.74,17.34-3.25,25.68-2.81,9.34-9.49,15.5-16.74,21.56-1.52,1.27.13,3.54,1.82,3.13,5.57-1.34,9.21.41,14.12,2.48,2.17,0.91,4.54,1.79,6.93,1.15,2-.53,3.26-1.91,4.51-3.42,1.76-2.11,1.68-3.31,5.17-2.69,0.76,0.13,1.43.65,2.23,0.76,3,0.39,5.35-1.87,8.4-1.91,2.81,0,5.63,0,8.43-.34a34.63,34.63,0,0,0,6.73-1.45c1.79-.57,7.78-4,9-3.32a1.86,1.86,0,0,0,1.89,0l0.13-.09a2,2,0,0,0,.67-2.57c-0.62-1.44-1.35-1.25-2.67-1.51-3.5-.69-4-0.21-6.18-3.16-0.89-1.17-1.62-2.47-2.39-3.72-3.47-5.68-8.06-11.29-10.12-17.68-2.41-7.48.93-14.44-.14-21.85-0.63-4.39-4.25-8-8.84-6.25-2.22.87-1.26,4.49,1,3.62,6-2.33,3.52,11.41,3.37,13a32.93,32.93,0,0,0,.1,8.86c0.86,5,3.25,9.34,6,13.57,2.9,4.54,5.45,9.73,9,13.83a11.06,11.06,0,0,0,4.17,3.29c0.62,0.25,4.08,1.14,3.54-.11l0.67-2.57q2.29,0.14,1-.3a5.53,5.53,0,0,0-1.15-.23,18.38,18.38,0,0,0-4.8,1.64,52.94,52.94,0,0,1-8.33,2.8,44.23,44.23,0,0,1-8.66.75,33,33,0,0,0-8.31,1.21c-2.75.7-5.51-1.34-8.29-.28-2.42.93-3.1,3.36-4.91,5-4.06,3.56-8.2-.68-12.31-2a19.93,19.93,0,0,0-10.86-.12l1.82,3.13c5.16-4.32,10.45-8.78,14-14.61,3.23-5.37,4.76-11.49,5.6-17.64,1-7,.33-14.59,2.09-21.43a11.8,11.8,0,0,1,17.16-7.71c2.12,1.15,4-2.08,1.89-3.24h0Z"/><path class="cls-9" d="M317.1,141.78c-0.67,1.29-1.22,3.15,0,4a2.73,2.73,0,0,0,2.77-.24c1.67-.9,3.23-2.65,2.76-4.48s-2.62-2.56-4.33-2.07-0.23,1.3-1.17,2.82"/><path class="cls-8" d="M315.48,140.83c-1.21,2.45-1.65,6.28,1.85,7,2.93,0.61,6.38-2.22,7.08-5,0.77-3-1.56-5.54-4.46-5.87a4.54,4.54,0,0,0-3.75,1,2.6,2.6,0,0,0-.68,1.66,2.65,2.65,0,0,1,0,1.14c-1.12,2.14,2.12,4,3.24,1.89a4.53,4.53,0,0,0,.59-1.89,2.39,2.39,0,0,0,0-.63q0-.11,0-0.22,0-.66-0.5.78a11.45,11.45,0,0,1,1.17,0,1.19,1.19,0,0,1,.83.65c0.36,1-1.15,2.09-1.87,2.44a3.33,3.33,0,0,1-.74.3s0.2,0.18.1-.08a2.69,2.69,0,0,1,.47-1.38c1.06-2.16-2.17-4.06-3.24-1.89h0Z"/><path class="cls-9" d="M309.16,142.25a2,2,0,1,0,2,1.19l-0.93-.37"/><path class="cls-8" d="M309.16,140.38A4.06,4.06,0,0,0,305.4,144a3.9,3.9,0,0,0,2.89,4,3.8,3.8,0,0,0,4.41-2,4,4,0,0,0,.35-2.71,2.3,2.3,0,0,0-1-1.5,10.11,10.11,0,0,0-1.38-.56,1.89,1.89,0,0,0-2.31,1.31,1.92,1.92,0,0,0,1.31,2.31l0.93,0.37-1.31-1.31c0.08,0.22.07,0.53,0.12,0.17q-0.11.32,0,.12-0.18.29,0,.11c0,0.16-.23.13,0.11,0.06-0.18,0-.17,0-0.25,0a0.55,0.55,0,0,1-.2-0.19c0.21,0.28-.06.15,0.09,0a0.13,0.13,0,0,1,0,.14,1.22,1.22,0,1,0,.08-0.14c0.15-.23.2-0.11,0-0.08a1.93,1.93,0,0,0,1.88-1.87,1.89,1.89,0,0,0-1.87-1.87h0Z"/><path class="cls-9" d="M324.06,152.46a10,10,0,0,0,8.07-12.37c-0.24-.93-0.47-2.19.39-2.59,0.7-.32,1.46.28,2,0.87a15.25,15.25,0,0,1-7.21,24.37"/><path class="cls-8" d="M324.56,154.27c5.91-1.39,10.34-6.47,9.69-12.79-0.3-2.89-.35-1.53.28,0.31,0.91,2.68,1.84,4.8,1.55,7.75a13.69,13.69,0,0,1-9.32,11.39c-2.25.81-1.28,4.44,1,3.62,9.44-3.4,14.76-13.48,10.74-23.07-1-2.3-3.77-7.56-7.12-5.45-1.3.82-1.22,2-1.3,3.32-0.13,2.2.65,4.29-.31,6.47a8.25,8.25,0,0,1-6.21,4.83c-2.35.55-1.35,4.17,1,3.62h0Z"/><path class="cls-9" d="M303.59,152.46a10,10,0,0,1-8.07-12.37c0.24-.93.47-2.19-0.39-2.59-0.7-.32-1.46.28-2,0.87a15.25,15.25,0,0,0,7.21,24.37"/><path class="cls-8" d="M304.09,150.66a9.09,9.09,0,0,1-5.65-3.54c-1.72-2.56-.78-4.78-0.91-7.52-0.06-1.33.14-2.49-1.07-3.42-3.33-2.56-6.37,3-7.31,5.3-4,9.57,1.31,19.67,10.74,23.07,2.27,0.82,3.25-2.8,1-3.62a13.69,13.69,0,0,1-9.32-11.39c-0.29-2.94.64-5.07,1.55-7.75,0.63-1.84.58-3.2,0.28-.31-0.65,6.31,3.78,11.4,9.69,12.79,2.35,0.55,3.35-3.06,1-3.62h0Z"/><path class="cls-8" d="M230.11,266.91c-0.6,6.59-8.47,5.15-13.06,5.15H200.61c-4.58,0-8.67-.41-9-6.21-0.29-4.8,0-9.72,0-14.53,0-4.06-.47-8.43,0-12.46,0.72-6.21,6.41-5.33,10.93-5.33h16.68c4.58,0,10.26-.84,10.93,5.44,1,9.1,0,18.78,0,27.94a1.88,1.88,0,0,0,3.75,0V251.32c0-4.68.92-10.41-.34-15-1.68-6.1-7.21-6.55-12.43-6.55H200.61c-5,0-10.25.37-12.26,6-1.63,4.53-.51,10.91-0.51,15.58,0,5.13-.39,10.42,0,15.54,0.49,6.31,5.09,8.95,10.9,8.95h21.63c6.51,0,12.78-.92,13.5-8.9C234.08,264.51,230.33,264.52,230.11,266.91Z"/><path class="cls-8" d="M262,255.42c15.77-2.34,32-2.63,47.86-3.67l47.8-3.14c2.4-.16,2.41-3.91,0-3.75l-49.79,3.28c-15.59,1-31.4,1.38-46.86,3.68-2.38.35-1.37,4,1,3.62h0Z"/><path class="cls-8" d="M254.34,332.61c-0.6,6.59-8.47,5.15-13.06,5.15H224.84c-4.58,0-8.67-.41-9-6.21-0.29-4.8,0-9.72,0-14.53,0-4.06-.47-8.43,0-12.46,0.72-6.21,6.41-5.33,10.93-5.33h16.68c4.58,0,10.26-.84,10.93,5.44,1,9.1,0,18.78,0,27.94a1.88,1.88,0,0,0,3.75,0V317c0-4.68.92-10.41-.34-15-1.68-6.1-7.21-6.55-12.43-6.55H224.84c-5,0-10.25.37-12.26,6-1.63,4.53-.51,10.91-0.51,15.58,0,5.13-.39,10.42,0,15.54,0.49,6.31,5.09,8.95,10.9,8.95h21.63c6.51,0,12.78-.92,13.5-8.9C258.31,330.21,254.56,330.23,254.34,332.61Z"/><path class="cls-8" d="M286.25,321.12c15.77-2.34,32-2.63,47.86-3.67l47.8-3.14c2.4-.16,2.41-3.91,0-3.75l-49.79,3.28c-15.59,1-31.4,1.38-46.86,3.68-2.38.35-1.37,4,1,3.62h0Z"/><path class="cls-8" d="M244.48,397.25c-0.6,6.59-8.47,5.15-13.06,5.15H215c-4.58,0-8.67-.41-9-6.21-0.29-4.8,0-9.72,0-14.53,0-4.06-.47-8.43,0-12.46,0.72-6.21,6.41-5.33,10.93-5.33h16.68c4.58,0,10.26-.84,10.93,5.44,1,9.1,0,18.78,0,27.94a1.88,1.88,0,0,0,3.75,0V381.66c0-4.68.92-10.41-.34-15-1.68-6.1-7.21-6.55-12.43-6.55H215c-5,0-10.25.37-12.26,6-1.63,4.53-.51,10.91-0.51,15.58,0,5.13-.39,10.42,0,15.54,0.49,6.31,5.09,8.95,10.9,8.95h21.63c6.51,0,12.78-.92,13.5-8.9C248.44,394.85,244.69,394.86,244.48,397.25Z"/><path class="cls-8" d="M254.34,178c-0.6,6.59-8.47,5.15-13.06,5.15H224.84c-4.58,0-8.67-.41-9-6.21-0.29-4.8,0-9.72,0-14.53,0-4.06-.47-8.43,0-12.46,0.72-6.21,6.41-5.33,10.93-5.33h16.68c4.58,0,10.26-.84,10.93,5.44,1,9.1,0,18.78,0,27.94a1.88,1.88,0,0,0,3.75,0V162.44c0-4.68.92-10.41-.34-15-1.68-6.1-7.21-6.55-12.43-6.55H224.84c-5,0-10.25.37-12.26,6-1.63,4.53-.51,10.91-0.51,15.58,0,5.13-.39,10.42,0,15.54,0.49,6.31,5.09,8.95,10.9,8.95h21.63c6.51,0,12.78-.92,13.5-8.9C258.31,175.62,254.56,175.64,254.34,178Z"/><path class="cls-8" d="M276.38,385.76c15.77-2.34,32-2.63,47.86-3.67l47.8-3.14c2.4-.16,2.41-3.91,0-3.75l-49.79,3.28c-15.59,1-31.4,1.38-46.86,3.68-2.38.35-1.37,4,1,3.62h0Z"/><path class="cls-8" d="M266,467c-0.6,6.59-8.47,5.15-13.06,5.15H236.51c-4.58,0-8.67-.41-9-6.21-0.29-4.8,0-9.72,0-14.53,0-4.06-.47-8.43,0-12.46,0.72-6.21,6.41-5.33,10.93-5.33h16.68c4.58,0,10.26-.84,10.93,5.44,1,9.1,0,18.78,0,27.94a1.88,1.88,0,0,0,3.75,0V451.43c0-4.68.92-10.41-.34-15-1.68-6.1-7.21-6.55-12.43-6.55H236.51c-5,0-10.25.37-12.26,6-1.63,4.53-.51,10.91-0.51,15.58,0,5.13-.39,10.42,0,15.54,0.49,6.31,5.09,8.95,10.9,8.95h21.63c6.51,0,12.78-.92,13.5-8.9C270,464.62,266.23,464.63,266,467Z"/><path class="cls-8" d="M297.92,455.53c15.77-2.34,32-2.63,47.86-3.67l47.8-3.14c2.4-.16,2.41-3.91,0-3.75l-49.79,3.28c-15.59,1-31.4,1.38-46.86,3.68-2.38.35-1.37,4,1,3.62h0Z"/><path class="cls-8" d="M209.14,254.06a28.49,28.49,0,0,0,6.34,8.86,1.91,1.91,0,0,0,2.94-.38A409.7,409.7,0,0,0,242,224.74c1.2-2.18-1.81-3.76-3.24-1.89l-3,3.85c-1.47,1.92,1.79,3.79,3.24,1.89l3-3.85-3.24-1.89a409.7,409.7,0,0,1-23.59,37.8l2.94-.38a26,26,0,0,1-5.76-8.1c-1-2.19-4.24-.29-3.24,1.89h0Z"/><path class="cls-8" d="M215.73,376.8a226.64,226.64,0,0,0,19.41,17.53,57.71,57.71,0,0,0,5.59,4.23c0.83,0.52,1.68,1,2.51,1.53,1.35,0.84,1.58,1.77,1.46.08l1.88-1.87a4.34,4.34,0,0,0-1-.42c-2.25-.87-3.23,2.75-1,3.62a7.58,7.58,0,0,0,2,.55,1.88,1.88,0,0,0,1.88-1.87c-0.19-2.83-5.9-4.79-7.88-6.25a186.84,186.84,0,0,1-22.2-19.77c-1.69-1.73-4.34.92-2.65,2.65h0Z"/><path class="cls-8" d="M221.23,394.27L235,373.74c1.35-2-1.9-3.89-3.24-1.89L218,392.38c-1.35,2,1.9,3.89,3.24,1.89h0Z"/><path class="cls-8" d="M228.22,320.34l6.82,10.3A1.89,1.89,0,0,0,238,331a285.39,285.39,0,0,0,22.62-31.13c1.29-2-2-3.93-3.24-1.89a278.23,278.23,0,0,1-22,30.37l2.94,0.38-6.82-10.3c-1.33-2-4.58-.13-3.24,1.89h0Z"/><path class="cls-8" d="M243.77,449.44l16.73,16.4c1.72,1.69,4.38-1,2.65-2.65l-16.73-16.4c-1.72-1.69-4.38,1-2.65,2.65h0Z"/><path class="cls-8" d="M248.91,462.13A203.43,203.43,0,0,0,267.29,439c1.36-2-1.88-3.88-3.24-1.89a196.77,196.77,0,0,1-17.79,22.38c-1.63,1.77,1,4.43,2.65,2.65h0Z"/></g></g></g></svg>