<svg xmlns="http://www.w3.org/2000/svg" xmlns:xlink="http://www.w3.org/1999/xlink" viewBox="0 0 580 580"><defs><style>.cls-1{fill:none;}.cls-2{isolation:isolate;}.cls-3{clip-path:url(#clip-path);}.cls-4{clip-path:url(#clip-path-2);}.cls-5{fill:#feeb8d;}.cls-6{fill:#231f20;}.cls-7{fill:#fff799;}.cls-8{fill:#004f7f;}.cls-9{fill:url(#radial-gradient);}.cls-10{fill:#feeb8c;}.cls-11{fill:#fff;}.cls-12{mix-blend-mode:multiply;}.cls-13{fill:#ffd459;}.cls-14{clip-path:url(#clip-path-3);}.cls-15{fill:url(#radial-gradient-2);}.cls-16{fill:#ffcd31;}.cls-17{fill:#da1f47;}.cls-18{fill:#282560;}</style><clipPath id="clip-path"><rect class="cls-1" y="1772.02" width="580" height="580"/></clipPath><clipPath id="clip-path-2"><rect class="cls-1" width="580" height="580"/></clipPath><radialGradient id="radial-gradient" cx="294.34" cy="327.33" r="193.51" gradientUnits="userSpaceOnUse"><stop offset="0.25" stop-color="#fbb040"/><stop offset="0.49" stop-color="#faad40"/><stop offset="0.63" stop-color="#f8a541"/><stop offset="0.74" stop-color="#f49743"/><stop offset="0.84" stop-color="#ee8346"/><stop offset="0.93" stop-color="#e76949"/><stop offset="1" stop-color="#e0504c"/></radialGradient><clipPath id="clip-path-3"><polygon class="cls-1" points="522.44 202.15 105.84 176.14 66.24 456.63 503.3 478.53 522.44 202.15"/></clipPath><radialGradient id="radial-gradient-2" cx="296.93" cy="299.69" r="187.63" xlink:href="#radial-gradient"/></defs><title>iiLAB -U1-concepts-03-HIJACKED ACCOUNT</title><g class="cls-2"><g id="Layer_3" data-name="Layer 3"><g class="cls-4"><rect class="cls-5" x="-29.46" y="-32.84" width="645" height="645"/><path class="cls-6" d="M350,465.62c3.22,0,3.22-5,0-5s-3.22,5,0,5h0Z"/><path class="cls-7" d="M559.69,56.48C421.17,45.13,252,40.35,113,38.44c-6.61-.09-14.49.5-17.82,6.22-1.79,3.07-1.7,6.85-1.59,10.4,4.62,141.41-30.69,280.85-42.37,421.85C207,478,362.78,484,517.85,498.57l24.58-356.69c2-29.61.9-54.82,17.26-85.4"/><path class="cls-8" d="M559.69,54C444.57,44.57,329,40.42,213.59,37.77q-42-1-84.07-1.59c-6.38-.1-12.8-0.41-19.18-0.23-5,.14-10.44.81-14.39,4.09-3.64,3-4.74,7.37-4.87,11.94-0.23,8.09.41,16.27,0.45,24.37C91.87,140,84.74,203.45,76,266.43,66.29,336.5,54.65,406.36,48.75,476.91a2.53,2.53,0,0,0,2.5,2.5c121.28,0.87,242.57,4.68,363.56,13.21q51.56,3.63,103,8.45a2.54,2.54,0,0,0,2.5-2.5c8.19-118.9,16.6-237.78,24.58-356.69,0.91-13.63,1.16-27.35,3.06-40.89a131.24,131.24,0,0,1,13.86-43.24c1.5-2.85-2.82-5.38-4.32-2.52-11.94,22.69-15.34,46.64-16.73,71.91-1.61,29.18-3.87,58.33-5.88,87.49l-12.5,181.34-7.07,102.62,2.5-2.5c-120.76-11.31-242-17.49-363.21-20.17Q103,474.75,51.25,474.41l2.5,2.5C64.06,353.59,92.23,232.16,96.1,108.24q0.71-22.71.24-45.44c-0.15-6.54-2.39-16.59,4.76-20.16,5.38-2.68,12.69-1.69,18.49-1.61q40.86,0.58,81.71,1.47Q287,44.36,372.72,47.85c62.38,2.63,124.74,6,187,11.13,3.21,0.26,3.19-4.74,0-5h0Z"/><polygon class="cls-9" points="522.44 202.15 105.84 176.14 66.24 456.63 503.3 478.53 522.44 202.15"/><path class="cls-10" d="M76.21,154.58l8.6-.21"/><path class="cls-8" d="M508.16,45.66a184.6,184.6,0,0,0-59.58,7.42c-5,1.46-10.11,3.32-13.37,7.32-3.54,4.33-4.13,10.3-4.42,15.88a276.88,276.88,0,0,0,7.11,77.78c1,4.22,2.28,8.71,5.65,11.44s7.89,3,12.16,3.14a185.76,185.76,0,0,0,51.53-6.07c3.66-1,7.44-2.12,10.22-4.69,4.49-4.14,5.31-10.83,5.65-16.93A271.79,271.79,0,0,0,513.52,53c-0.87-3.1-2-6.47-4.73-8.16s-7.39-.17-7.27,3.05"/><path class="cls-10" d="M449.15,108.23a357.78,357.78,0,0,1,43.9-1.44"/><path class="cls-11" d="M449.15,111.1a373.67,373.67,0,0,1,43.9-1.44c3.69,0.1,3.69-5.64,0-5.74a373.67,373.67,0,0,0-43.9,1.44c-3.65.33-3.68,6.08,0,5.74h0Z"/><path class="cls-11" d="M495.64,82.74c-5.38-4.5-12.24-8.67-19.57-7.12-5.68,1.2-9.62,5.47-11.86,10.64-2.77,6.4-3,13.55-3.2,20.42a207.63,207.63,0,0,0,1.61,30.15,3,3,0,0,0,2.87,2.87,3.75,3.75,0,0,0,4.19-4.27c-0.47-3.61-6.21-3.66-5.74,0l1.55-1.47,2.87,2.87c-1.61-12.94-2.74-26.69-1.09-39.69,0.61-4.82,1.93-10.77,5.92-14,5.93-4.78,13.48-.48,18.39,3.63,2.81,2.36,6.89-1.68,4.06-4.06h0Z"/><path class="cls-10" d="M502.23,54.9a155.72,155.72,0,0,0-37,3.12c-8.91,1.86-21.66,3.66-25.87,13-1.93,4.31-2,9.2-2.2,13.84q-0.38,10.08.15,20.17a228.11,228.11,0,0,0,5,36.77c1,4.4,1.79,9.55,5,13s7.5,4,11.81,4.23a145.49,145.49,0,0,0,37.49-3.62c9.88-2.2,17.87-5,19.63-16,1.84-11.45,1-23.87.08-35.37a203.54,203.54,0,0,0-7.42-41.53c-1-3.48-2.59-7.6-6.49-8.67a6.08,6.08,0,0,0-7.73,4.53c-0.52,2.94,4,4.2,4.5,1.24,0.28-1.58,2.21-1.12,3-.65s1.19,1.88,1.48,2.57a39.8,39.8,0,0,1,1.73,5.87q1.91,7.32,3.31,14.77A215.61,215.61,0,0,1,512,110.71c0.48,9.09,1,18.8-.44,27.83-0.85,5.33-3.23,8.66-8.49,10.42a97.3,97.3,0,0,1-13.44,3.14,140.27,140.27,0,0,1-29.88,2.33c-5.43-.19-9.57-1.58-11.38-7.15a110.27,110.27,0,0,1-3.15-14.23,219.57,219.57,0,0,1-3.32-29c-0.44-9-1.33-19.4.75-28.28,2.5-10.68,17.49-12.16,26.55-13.87a150.53,150.53,0,0,1,33-2.4c3,0.1,3-4.57,0-4.67h0Z"/><path class="cls-8" d="M144.2,133.6c3.22,0,3.22-5,0-5s-3.22,5,0,5h0Z"/><path class="cls-8" d="M244.82,74.57l-3.3,17.36c-0.38,2,1.7,4.07,3.67,2.82a68.39,68.39,0,0,0,19.27-18.21l-4.57-1.93a61.73,61.73,0,0,0-1.12,22.15c0.22,1.69,2,3.36,3.76,2.16L286,82.84l-3.76-2.16-0.17,11.46a2.53,2.53,0,0,0,3.16,2.41,73,73,0,0,0,23.23-10.42L304.7,82l0.53,12.55A2.52,2.52,0,0,0,309,96.68L330.74,83,327,80.84l-0.24,15.59a2.52,2.52,0,0,0,3.76,2.16q10-6.78,20.66-12.63l-3.67-2.82a66.64,66.64,0,0,0-1.64,17.38,2.53,2.53,0,0,0,3.76,2.16A130.34,130.34,0,0,0,371,89.13L366.85,88a20,20,0,0,1-.58,11.18c-0.86,2.6,2.41,3.85,4.18,2.43l19.63-15.76-3.93-.51a7.94,7.94,0,0,1-.5,9.28c-1.88,2.62,2.46,5.12,4.32,2.52a12.72,12.72,0,0,0,.5-14.32,2.54,2.54,0,0,0-3.93-.51L366.92,98.11l4.18,2.43a25,25,0,0,0,.58-13.84c-0.47-2-2.8-2.17-4.18-1.1a124.18,124.18,0,0,1-20.41,12.76l3.76,2.16a61.33,61.33,0,0,1,1.46-16.05,2.53,2.53,0,0,0-3.67-2.82Q338,87.49,328,94.27l3.76,2.16L332,80.84a2.52,2.52,0,0,0-3.76-2.16L306.48,92.36l3.76,2.16L309.7,82c-0.08-1.77-2.11-3.28-3.76-2.16a68.93,68.93,0,0,1-22,9.92l3.16,2.41,0.17-11.46a2.52,2.52,0,0,0-3.76-2.16L260,94.6l3.76,2.16a57.8,57.8,0,0,1,.94-20.82A2.51,2.51,0,0,0,260.15,74a61.91,61.91,0,0,1-17.48,16.42l3.67,2.82,3.3-17.36c0.6-3.14-4.22-4.49-4.82-1.33h0Z"/><path class="cls-8" d="M268.82,99.54L397.53,98c3.22,0,3.22-5,0-5L268.82,94.54c-3.22,0-3.22,5,0,5h0Z"/><path class="cls-8" d="M253.53,73.64Q333.94,75.05,414,84c3.19,0.36,3.17-4.65,0-5q-79.93-9-160.43-10.37c-3.22-.06-3.22,4.94,0,5h0Z"/><path class="cls-10" d="M214.89,157.1a5,5,0,0,1-4.86,5.53L82.38,165.95a5.46,5.46,0,0,1-5.58-5.28L73.12,34.51A5.42,5.42,0,0,1,78.38,29L196,25.9a6,6,0,0,1,6,5.25Z"/><path class="cls-8" d="M212.64,157.1c-0.07,5.17-11.47,3.5-14.39,3.58l-29.55.77-67.85,1.76c-5.54.14-12.15,1.32-17.65,0.46C77.94,162.84,79,158,78.87,154L77.07,92.62,75.45,37.2c-0.07-2.54-.27-4.86,2.93-6,1-.36,2.71-0.07,3.76-0.1l24.09-.63L175.1,28.7c6.44-.17,13.12-0.88,19.55-0.51,5.62,0.33,5.19,4.63,5.64,8.93l12,116.8,0.33,3.18c0.29,2.86,4.82,2.89,4.52,0L205.26,41.52c-0.45-4.41,0-11.82-3.27-15.3-3.73-4-11.32-2.44-16.17-2.31l-69.65,1.81-29.89.78c-5.51.14-13.59-.91-15.23,6.18-1,4.4,0,9.9.18,14.33l0.93,31.92,2,69.88c0.13,4.39-.78,10.66,1.05,14.83,2.62,6,10,4.5,15.25,4.36l67.12-1.74c17.28-.45,34.8-0.1,52-1.35,4.54-.33,7.43-3.2,7.49-7.8C217.19,154.19,212.68,154.19,212.64,157.1Z"/><g class="cls-12"><path class="cls-13" d="M76.29,85.76a8.94,8.94,0,0,1,1.79-9.48,7.33,7.33,0,0,1,9.33-.72c-2.93-2.06,2.55-7.78,3-11.34-4.4-1.06-9.52-3.58-9.61-8.11-0.1-5,5.86-7.57,10.77-8.32,8.78-1.35,19.35-.31,24.09,7.21-1.32-1.77-.73-4.44.77-6.06a12.78,12.78,0,0,1,5.79-3.09c5.72-1.78,11.82-2.85,17.7-1.68s11.26,4.78,13.5,10.18c-1.25-3.25,2.44-6.49,5.81-7.77,8.18-3.09,21.29-4.13,27.44,3.32,2.23,2.69,3.21,6.39,5.56,9.25,3.17,3.86,7.7,5.9,2.23,10.72a27.61,27.61,0,0,1-10.53,5.79c2.27,2.67,7.07,2.3,8.84,5.33,1.58,2.71-.44,6.11-2.79,8.2a24.62,24.62,0,0,1-12.28,5.86c2.65,1.12,6.08.7,8,2.83s0.93,6-1.41,7.88-5.48,2.3-8.45,2.67l-7.35.92A51.69,51.69,0,0,0,167,97c-1.33-5.61-4.32-14.53-7.13-19.56-4.47,4.83-11.93,6.2-18.64,7.13-3.51.49-8.3,0.13-9-3.35a21.53,21.53,0,0,1-14.08,11.36,21.05,21.05,0,0,1-7.26.45l0.21-.92c-3.22,13.67-3.5,20,1.13,31.63l-3.78,1c-13.72-1.85-21.35-14-18.9-23a5.79,5.79,0,0,1-9.4-6.23,3.34,3.34,0,0,1,3,1.17,3,3,0,0,1,.33-4.44A11.5,11.5,0,0,1,76.29,85.76Z"/></g><path class="cls-8" d="M147.12,82.76a17,17,0,0,1,11.67,4.17c1.12,1,2.75-.66,1.63-1.63a19.51,19.51,0,0,0-13.3-4.84,1.15,1.15,0,0,0,0,2.3h0Z"/><path class="cls-8" d="M154,92.34a4.08,4.08,0,0,0-4.85,3.41,3.52,3.52,0,0,0,3.41,3.76,3.13,3.13,0,0,0,3.51-3.35c-0.23-2-2.3-3.79-4.33-3-1.38.51-.78,2.74,0.61,2.22s2.17,2.11.27,1.87c-2.08-.27-1-3,0.76-2.66,1.45,0.29,2.07-1.93.61-2.22h0Z"/><path class="cls-8" d="M128.87,96.73c-1.81-.38-3.91-0.74-5.54.39a3.65,3.65,0,0,0-1.48,4,3,3,0,0,0,3.94,1.65c1.87-.64,2.67-2.46,3.31-4.18,0.52-1.39-1.71-2-2.22-.61a5.09,5.09,0,0,1-1.36,2.38c-0.47.35-1.46,0.57-1.54-.22a1.54,1.54,0,0,1,1.17-1.39,6.32,6.32,0,0,1,3.11.17c1.45,0.3,2.06-1.92.61-2.22h0Z"/><path class="cls-8" d="M120.72,94.1a9.28,9.28,0,0,1,17.88,4.56c-0.72,6.67-5,13.47-7.72,19.56a1.17,1.17,0,0,0,.69,1.69,39.08,39.08,0,0,0,17.93-1.43c1.41-.45.81-2.67-0.61-2.22a36.54,36.54,0,0,1-16.71,1.43l0.69,1.69c3.69-8.32,13-21.8,5-30.19-6.24-6.52-16.09-3.56-19.35,4.3-0.57,1.37,1.66,2,2.22.61h0Z"/><path class="cls-8" d="M112.86,100.74c-2.3-4.1-8.67-4.89-9.69.59a12.06,12.06,0,0,0,.36,5.11c0.39,1.54.67,3.29,2.14,4.11,1.88,1,5.86,2.59,8,1.64,1.35-.6.18-2.59-1.16-2,0.25-.11-0.54-0.12-0.71-0.15a15,15,0,0,1-1.49-.32,18.6,18.6,0,0,1-3.06-1c-1.73-.77-2.1-5-1.84-6.78,0.53-3.54,4.15-2.43,5.48-.06a1.15,1.15,0,0,0,2-1.16h0Z"/><path class="cls-8" d="M114.27,113.48c-7.66.51-20.67,6.43-19,16.12,1.89,11.27,16,8.41,23.11,5.44,1.35-.56.76-2.79-0.61-2.22-6,2.47-17.73,6.07-20-3.15-2-8.33,10.09-13.46,16.5-13.88,1.47-.1,1.48-2.4,0-2.3h0Z"/><path class="cls-8" d="M131.77,135a49.35,49.35,0,0,0,23.5-1.22,1.15,1.15,0,0,0-.61-2.22,46.75,46.75,0,0,1-22.27,1.22c-1.45-.27-2.07,1.95-0.61,2.22h0Z"/><path class="cls-8" d="M85.7,88.1c-4-1.47-7.74-4.87-7.06-9.57s5.44-7.86,9.89-5.06a1.16,1.16,0,0,0,1.4-1.81c-3.3-3.12-1-12.54-.51-16.56l-2.26.31c-0.27-.78-1.41,1.07-2,1.81a8.52,8.52,0,0,0-2,3.68c-0.28,2.54,1.5,3.3,3.74,3.58,1.47,0.18,1.45-2.13,0-2.3-3.65-.45,2.93-5.88,2.41-7.37a1.16,1.16,0,0,0-2.26.31C86.52,60,84.18,69.39,88.29,73.29l1.4-1.81a8.61,8.61,0,0,0-12.9,4.46c-2.27,6.57,2.39,12.19,8.3,14.38,1.39,0.52,2-1.71.61-2.22h0Z"/><path class="cls-8" d="M110.48,120.5c-10.07-1.65-20.69-10.24-18.1-21.54,0.2-.88-0.83-1.94-1.69-1.3q-1.72,1.88-4.18,0-4.8.45-2.46-3.21c0.93,0.8,2.59-.24,1.81-1.4l0.24-3.11a1.15,1.15,0,0,0-1.63-1.63,4.31,4.31,0,0,0-.6,5.9l1.81-1.4a5.32,5.32,0,0,0-3.8-1.51,1.16,1.16,0,0,0-1.11.85c-1.62,6.82,5.3,11.77,11.09,7.53l-1.69-1.3c-2.86,12.49,8.3,22.51,19.71,24.37,1.45,0.24,2.07-2,.61-2.22h0Z"/><path class="cls-8" d="M169,107.58c6.1-.76,17.62-0.16,20.15-7.49,2.42-7-4.78-7.63-9.46-9.22v2.22c5.89-1.17,13.62-4.44,15.92-10.54,2.76-7.31-5.47-7.31-9.18-10.78l-0.51,1.92c4.39-1.41,15.21-5.81,13.77-12-0.77-3.31-4.84-6-6.52-8.78-2-3.35-3.24-6.78-6.48-9.18-5.68-4.2-13.51-4.26-20.17-3-5.33,1-14.46,4-12.39,11.16l2.1-.89C152.13,41.8,142,38.6,132.53,39.69c-5.92.69-20.78,3.55-16.19,12.81l2-1.16C112,42.29,97.6,40.91,87.93,45c-3.77,1.59-7.32,4.75-6.47,9.23,0.9,4.78,6.16,6.92,10.31,8A1.15,1.15,0,0,0,92.38,60c-4.15-1.11-12-4.9-7.45-10.38,2.45-3,7.39-3.78,11-4.12,7.43-.68,15.83.4,20.42,7a1.15,1.15,0,0,0,2-1.16c-3.92-7.92,15.57-9.79,19.72-9.55,6.93,0.41,13.31,3.89,16.19,10.37,0.53,1.2,2.46.34,2.1-.89-2-7,11.54-8.71,15.72-8.93,4.74-.25,10.09.46,13.8,3.66s4.9,8.25,8.12,11.88a14.92,14.92,0,0,1,2.4,2.58c1.26,2.45-1.08,5.71-3.2,7.2a28.86,28.86,0,0,1-7.88,3.8,1.16,1.16,0,0,0-.51,1.92c2.77,2.58,9.7,3.05,8.85,7.92-1,5.56-10,8.65-14.56,9.55-1.19.24-1,1.88,0,2.22,1.28,0.43,3.83.43,4.88,1.17l2.69,5.86a7.72,7.72,0,0,1-5,3.35c-4,1.17-8.53,1.28-12.68,1.8-1.45.18-1.47,2.49,0,2.3h0Z"/><path class="cls-8" d="M101.57,84A22.69,22.69,0,0,0,135,75.85l-2.1-.28c2.64,7.42,14.93,3.84,20.3,2.14,3.21-1,16-7.57,10.19-12.06a1.16,1.16,0,0,0-1.4.18c-2.65,2.35-2.64,6.08-.56,8.87,2.77,3.73,7.95,3.74,12.14,3.58,1.48-.06,1.48-2.36,0-2.3a30.67,30.67,0,0,1-4.47,0,5.67,5.67,0,0,1-4.3-1.69,3.86,3.86,0,0,1-2.6-3.89q0.14-2.34-1-.29a10.28,10.28,0,0,1-2.64,2.52,20.6,20.6,0,0,1-4.66,2.4C150,76.5,137,80.49,135.07,75a1.17,1.17,0,0,0-2.1-.28A20.44,20.44,0,0,1,102.74,82c-1.22-.84-2.37,1.15-1.16,2h0Z"/><path class="cls-8" d="M113.64,87.85a50.81,50.81,0,0,0,32.68,65.45,1.16,1.16,0,0,0,1.12-.3c9.7-9.18,20.09-19.2,23.75-32.5,3.89-14.12-1-29.29-8.63-41.25l-0.69,1.69a6.83,6.83,0,0,1,7.37,8.39,1.15,1.15,0,0,0,2.22.61,9.11,9.11,0,0,0-10.2-11.22,1.16,1.16,0,0,0-.69,1.69c7.43,11.65,12.31,26.51,8.19,40.23-1.89,6.31-5.49,11.95-9.64,17-2,2.47-4.21,4.8-6.45,7.07-1.58,1.61-4.27,5.27-6.43,5.74-2.46.54-6.38-2.08-8.58-3.29a47.76,47.76,0,0,1-21.8-58.7c0.49-1.4-1.73-2-2.22-.61h0Z"/><g class="cls-14"><g class="cls-12"><path class="cls-15" d="M228.91,210.06C225,192.57,215,177.08,209,160.21s2.73-45.89,2.73-45.89a3.79,3.79,0,0,1,6.07-2.17L296,179.77c2,2.21,4.67,1.82,5.94-.88l23.53-44.76a4.34,4.34,0,0,1,6.83-1.14s17.57,15.19,20.32,29.41,9,36.62,9,36.62c0.8,2.87,3.42,3.78,5.82,2,0,0,36.28-26.7,57.62-40.14,6-3.76,13.13-1.31,13.13-1.31a3.92,3.92,0,0,1,2.08,6.23l-29.31,37.28c-2,2.21-1.2,4.16,1.78,4.32,0,0,24.51,1.37,38.38,6.81,5.91,2.32,12.33,6.09,13.32,12.36s-4,11.88-8.78,16.11C443,253.83,418.5,268.14,418.5,268.14c-2.57,1.5-2.43,3.68.32,4.83l63.35,37.69a3.71,3.71,0,0,1-.3,6.37l-72.38,34.2a3.86,3.86,0,0,0-2.19,6.14l33.92,71.32a3.62,3.62,0,0,1-3.41,5.28l-35.2-7.32a4.35,4.35,0,0,0-6.32,2.84l-23.93,56.09a4.94,4.94,0,0,1-7.19,1.54l-52.93-48.54a4.22,4.22,0,0,0-6.78-.72s-31.16,31.07-54.26,38.09-52.66-.89-61.67-23.29c-5.73-14.25-8.37-39.57-8.37-39.57-0.31-3-2.64-4.11-5.18-2.55l-57.59,11.95c-3,0-3.65-1.64-1.48-3.69L204.19,352c2.69-1.28,2.73-3.43.07-4.79l-92-55.28a5.12,5.12,0,0,1-1.13-7.39l49.94-37a6,6,0,0,0,3.55-7.12s-7.43-25.44,5.88-33.73,30.28-6.59,45.83-4.61c7,0.89,16.18,4.51,14.91,11.46"/></g></g><path class="cls-16" d="M352.76,144.65c-15.64-1.1-21.28-2.2-36.92-3.29-2.89-.2-6-0.34-8.44,1.81-7.69,6.67-1.73,23.72-2.89,36.57-1.65,18.18-17.82,24.8-30.43,22.7S248,194,236.66,202.36c-9.26,6.81-14.17,21.57-17.86,35.6-17.21,65.38-21.82,137.57-13.2,206.39,90.81,16.89,63.83,13.69,147.22,13.21,11-.06,23.78-1.67,29.94-14.84,3.15-6.74,3.82-15.19,4.38-23.28q6.13-89.06,7.78-178.6c0.14-7.58.23-15.4-1.69-22.45-5.83-21.41-25.51-24.67-41.44-24.5l-0.54-50.23"/><path class="cls-8" d="M352.76,142.15c-6.61-.48-13.2-1.11-19.79-1.78s-13.46-1.86-20.05-1.61c-11.57.44-12.45,12.86-11.82,21.77,0.83,11.9,3.67,25.94-6.95,34.54-10.07,8.16-21.66,4.35-33,2-12.24-2.56-23.74-1.27-31.81,9.17s-11.18,24-14.3,36.34a539.7,539.7,0,0,0-14.7,92.64,560.85,560.85,0,0,0,2.77,109.15,2.58,2.58,0,0,0,1.84,2.41c24.66,4.59,49.45,10.49,74.45,13,20.4,2,41.19.61,61.65,0.42,13.64-.13,30.25,1.46,40-10.18,5.16-6.13,6.91-14,7.82-21.82,1.22-10.43,1.59-21,2.24-31.48q4.11-65.93,5.77-132c0.29-11.71,1.08-23.58.44-35.28-0.47-8.64-2.42-17.33-7.87-24.25-9-11.4-24-13.86-37.68-13.78l2.5,2.5-0.54-50.23c0-3.22-5-3.22-5,0l0.54,50.23a2.54,2.54,0,0,0,2.5,2.5c12.24-.07,26.2,1.8,34.11,12.28,5.05,6.69,6.33,15.22,6.54,23.38,0.26,9.87-.23,19.8-0.47,29.67q-1.48,61.08-5.06,122.08Q386,398.64,385,413.49c-0.64,9.48-.53,19.92-4.79,28.64-7.35,15.08-26,12.88-40,13-19.24.19-38.73,1.4-57.94-.16-25.53-2.07-50.93-8.38-76.05-13.06l1.84,2.41a552.36,552.36,0,0,1,8-184.49c3-14,5.93-28.8,12-41.84,2.25-4.83,5.08-9.72,9.3-13.1,6.77-5.44,15.26-4.58,23.2-2.88,10.25,2.2,19.86,5.15,30,.87a26.56,26.56,0,0,0,15.9-19.66c1.2-6.34.42-12.79-.14-19.15-0.47-5.31-2.11-14.1,2-18.43,3.06-3.21,9-1.71,12.86-1.39,3.45,0.28,6.91.61,10.35,1,7,0.71,14.07,1.41,21.13,1.92,3.21,0.23,3.2-4.77,0-5h0Z"/><polygon class="cls-8" points="299.08 335.34 299.08 335.49 299.21 335.11 299.08 335.34"/><path class="cls-8" d="M298.84,336.82l0.11-.14a7.92,7.92,0,0,0,.43-1.65,3.51,3.51,0,0,0-.43,1s0.21-.46.22-0.3c-0.12.32-.15,0.26-0.3,0.69s0.12-.27.14-0.08Z"/><path class="cls-8" d="M299.29,335.72l-0.2.54A3.13,3.13,0,0,0,299.29,335.72Z"/><path class="cls-8" d="M299.38,335.62a1.9,1.9,0,0,1-.16.48l0.31-.71Z"/><path class="cls-8" d="M299.56,335.74l0-.06C299.64,335.57,299.6,335.66,299.56,335.74Z"/><path class="cls-8" d="M299.69,335.69c0.08-.25,0-0.11-0.08,0v0a1.2,1.2,0,0,1-.27.57c-0.08.1,0.11-.4-0.05-0.08l-0.11.43A9.24,9.24,0,0,0,299.69,335.69Z"/><path class="cls-8" d="M299.56,335.74l0,0C299.5,335.85,299.52,335.8,299.56,335.74Z"/><polygon class="cls-8" points="299.48 335.65 299.42 335.74 299.34 335.96 299.48 335.65"/><path class="cls-8" d="M299.86,335.72c-0.31.68-.08-0.13-0.32,0.4a2.09,2.09,0,0,1-.28.89l0.15-.19A7.71,7.71,0,0,0,299.86,335.72Z"/><path class="cls-8" d="M299.19,337.49l0.07-.11Z"/><path class="cls-8" d="M300,336.49l-0.25.3-0.24.3a2.93,2.93,0,0,1,.3-0.48,1.46,1.46,0,0,0-.25.21c0.29-.63.11,0,0.36-0.57,0,0-.12,0-0.4.52l0.14-.45-0.3.7c-0.07.21,0.3-.52,0.08,0a1.69,1.69,0,0,1-.23.41c0.1-.12-0.18.57-0.08,0.51S299.82,336.78,300,336.49Z"/><polygon class="cls-8" points="299.65 337.22 299.52 337.49 299.7 337.13 299.65 337.22"/><path class="cls-8" d="M300.28,336.45l-0.31.37,0.16-.33-0.32.53c-0.31.62,0.18-.14,0.29-0.22a4,4,0,0,1-.5.89s0.07-.17.06-0.23c-0.35.7,0.07,0.12,0.22,0a0.42,0.42,0,0,0,.09-0.21l0.16-.17C300.39,336.58,300.43,336.43,300.28,336.45Z"/><path class="cls-8" d="M300.15,336.37c0.05,0,0,0,0,.11C300.23,336.31,300.28,336.19,300.15,336.37Z"/><path class="cls-8" d="M299.92,337.44s0,0,0,0S299.88,337.48,299.92,337.44Z"/><path class="cls-8" d="M300.32,336.73v0.09l0.16-.28A0.66,0.66,0,0,0,300.32,336.73Z"/><path class="cls-8" d="M301.13,338.87c0.22-.18.32-0.27,0.25-0.27a1.69,1.69,0,0,1,.46-0.25,4.51,4.51,0,0,1,.63-0.5,2,2,0,0,1-.39.08,3.81,3.81,0,0,0,.31-0.26c-0.25.07-.6,0.19-0.42-0.09s-0.12-.1-0.31,0c-0.09-.35-0.56-0.29-0.6-0.75l-0.48.55a2.14,2.14,0,0,1,.24-0.41c0,0.08,0,0,0,0,0.33-.55-0.18-0.07-0.1-0.31a8,8,0,0,1-.51.71c0.47-.66-0.08,0,0.42-0.81,0.06-.24-0.4.59-0.39,0.43a3.66,3.66,0,0,0-.26.54,0.81,0.81,0,0,0-.24.25c0,0.24.69-.44,1-0.52l-0.3.34c0.27-.19.43-0.1,0,0.5a1.76,1.76,0,0,0,.59-0.46,0.55,0.55,0,0,0-.14.24l0.22-.21s-0.31.37-.24,0.39a4.34,4.34,0,0,1,.64-0.61c-0.28.38-.51,0.71-0.76,1,0.09-.09.2-0.2,0.32-0.34a0.63,0.63,0,0,0,.32-0.23,3.55,3.55,0,0,1-.56.56c-0.08.16,0.7-.5,0.48-0.23l0.31-.3a1.18,1.18,0,0,0,0,.32,1.74,1.74,0,0,1-.65.41,2.26,2.26,0,0,1-.23.27c0.25-.17.6-0.39,0.85-0.53C301.06,338.78,301.15,338.83,301.13,338.87Z"/><path class="cls-8" d="M300.76,338.91l-0.19.13s0.07,0,.05,0Z"/><path class="cls-8" d="M301.13,338.87l-0.05,0A0.1,0.1,0,0,0,301.13,338.87Z"/><path class="cls-8" d="M302,337.55l0,0a0.12,0.12,0,0,1,0,0Z"/><path class="cls-8" d="M300.49,338.81l0.3-.35A1.7,1.7,0,0,0,300.49,338.81Z"/><path class="cls-8" d="M300.54,338.17c-0.06,0-.14.15-0.24,0.24A0.51,0.51,0,0,0,300.54,338.17Z"/><polygon class="cls-8" points="300.73 339.04 300.87 338.99 300.97 338.94 300.73 339.04"/><path class="cls-8" d="M303.28,338.88c0.42-.3.09-0.24,0.14-0.36-0.3,0-1,.54-1.09.46l0.92-.52c-0.12-.09,0-0.39-0.88,0a1.45,1.45,0,0,1,.37-0.24,6.74,6.74,0,0,1-1,.52,7.13,7.13,0,0,0,1-.74l0.07,0a1.82,1.82,0,0,1-.43,0,2.46,2.46,0,0,1-.59.41,4.14,4.14,0,0,1-.5.39,2.6,2.6,0,0,0,.45-0.18c-0.27.23-.1,0-0.37,0.28l0.29-.15a3.4,3.4,0,0,0-.34.26,0.47,0.47,0,0,1,.37-0.15l-0.11.06a0.73,0.73,0,0,0,.49-0.26l-0.46.35,0.33-.23c-0.08.17-.86,0.69-0.39,0.53a1.32,1.32,0,0,1,.36-0.2c0.21-.19-0.29.11-0.35,0.1a8.61,8.61,0,0,0,1-.58,2,2,0,0,1-.72.61c0,0.09.42-.13,0.25,0.06l-0.13.07c0.58-.31-0.23.19,0.39-0.08l0.11-.11a0.46,0.46,0,0,1,.31-0.11l-0.2.11a2.24,2.24,0,0,1,.67-0.22,1.06,1.06,0,0,0-.45.08A1.81,1.81,0,0,1,303.28,338.88Z"/><path class="cls-8" d="M301.37,339.09l0.2-.11Z"/><path class="cls-8" d="M302.67,339.53c-0.09.07-.39,0.13-0.58,0.22,0.33-.07.63-0.25,1.12-0.38-0.26.12,0.23,0,.25,0-0.28.05-.89,0.25-1,0.28,0.18,0-.12.07-0.13,0.09,0.37-.14.26,0,0.66-0.16s0.68-.06.41,0-0.23,0-.25,0c-0.52.09-.26,0.1-0.73,0.18,0.74-.09.8,0.18,1.94,0,0.22-.05-0.08-0.07-0.14-0.1a2.22,2.22,0,0,1-.83.07c0.18-.05-0.22-0.07.21-0.11l0.45,0a0.65,0.65,0,0,0-.35-0.76l0,0.11a1.67,1.67,0,0,1-.48.08l-0.68.32s-0.07,0,.18-0.11a6.4,6.4,0,0,0-.71.3c-0.13,0,.13-0.1-0.32.1s0.48-.18,0,0.07Z"/><polygon class="cls-8" points="302.23 339.55 302.57 339.4 302.39 339.45 302.23 339.55"/><path class="cls-8" d="M303.74,338.87c-0.15.07-.23,0.08-0.38,0.16S303.5,339,303.74,338.87Z"/><path class="cls-8" d="M302.39,339.88l0.15,0,0.14,0Z"/><path class="cls-8" d="M304.6,340.27c-0.12-.14-0.5-0.18-0.15-0.33-0.53,0-.94.06-1.43,0.05-0.1,0,.8,0,1,0.09-0.43,0,.13.09,0,0.15A4.49,4.49,0,0,1,304.6,340.27Z"/><path class="cls-8" d="M302.91,340.38s0.39,0.15.16,0.12-0.43-.12-0.35-0.12a0.84,0.84,0,0,0-.35,0l0.35,0.08c-0.15,0,.6.21,0.21,0.19a7.19,7.19,0,0,0,.68.26c-0.59-.14-0.59-0.17-1.12-0.32l1.52,0.56c-0.79-.18.16,0.22-0.46,0,0,0-.19-0.11-0.11-0.09-0.86-.38.16,0.13,0,0.11l-0.74-.37c0.12,0.08.62,0.41,0.08,0.15l-0.37-.22a2,2,0,0,1,.61.58l-0.47-.3c0.58,0.51.26,0.09,1.39,1-1.39-1,.46.4-0.09,0.09s-0.29-.29-0.92-0.72c0.71,0.54.21,0.18,0.42,0.38-0.67-.53-0.09,0-0.85-0.63l0.63,0.55,0.63,0.59c-0.38-.3-0.32-0.22-0.23-0.1a3,3,0,0,1,.52.43,2.8,2.8,0,0,0,.56.44c-0.22-.37-0.41-0.73-0.13-0.75-0.73-.5,0-0.11-0.6-0.53l0.68,0.4a2.8,2.8,0,0,0-.68-0.42,1.49,1.49,0,0,1,.62.28,1.9,1.9,0,0,0-.62-0.41l0.82,0.4c-0.26-.48-0.88-1-0.48-1.17l-0.54-.11c0.29-.08-1.33-0.42-0.12-0.32l-0.5-.09c0.29,0.05.85,0.08,1.21,0.16-0.19-.06,0-0.08-0.18-0.14l-0.23,0c-0.47-.09-0.2-0.1.18-0.1a9,9,0,0,0-1.4,0c1.09,0.22-1-.06-0.56,0A7.05,7.05,0,0,0,302.91,340.38Z"/><path class="cls-8" d="M304.41,340.46l-0.15,0Z"/><path class="cls-8" d="M303.51,342.11a0.12,0.12,0,0,0,0,.06C303.71,342.34,303.6,342.22,303.51,342.11Z"/><polygon class="cls-8" points="304.03 340.23 304.02 340.23 304.03 340.23 304.03 340.23"/><polygon class="cls-8" points="302.67 340.1 302.66 340.13 302.91 340.13 302.67 340.1"/><path class="cls-8" d="M302.7,341.61L303,342Z"/><path class="cls-8" d="M302.42,341.89h0C302.38,341.83,302.39,341.85,302.42,341.89Z"/><path class="cls-8" d="M301.74,342.42l0.17,1,0-.14-0.05-.2a7.1,7.1,0,0,0,.15,1.12l0-.24c0-.37.14,0.51,0.25,0.75a4.3,4.3,0,0,1,0-.84,2.13,2.13,0,0,1,.13.49,3.16,3.16,0,0,0-.08-0.78c0.3,1.12.32,1,.31,0.79s-0.06-.53.22,0.23c0-.14.16,0.12,0.08-0.28,0.17,0.55.09,0.1,0.32,0.74-0.5-1.35.5,0.78-.2-0.95a2.6,2.6,0,0,0,.25.38,0.52,0.52,0,0,1,.07.21c0.21,0.4-.26-0.7.14,0.13,0.08,0.1,0,0-.06-0.21l-0.41-.87,0.18,0.31,0.18,0.32,0.43,0.83a4.14,4.14,0,0,1-.33-0.81,8.27,8.27,0,0,1-.48-0.89,8.8,8.8,0,0,0-.56-1.22,2.77,2.77,0,0,1,.4.77s-0.08-.12.29,0.53l0.62,1.35c0.06,0.06.1,0.07,0.11,0a3.06,3.06,0,0,0-.17-0.58c0.09,0.06.24,0.47,0.3,0.51,0.28,0.27-.5-1.11-0.23-0.79l0.27,0.47c-0.36-.65.15-0.08,0-0.51l-0.2-.27-0.25-.36a2.56,2.56,0,0,0,.37.5,0.83,0.83,0,0,0-.11-0.23c-0.19-.33-0.43-0.71,0-0.19-0.77-1-1.19-1.65-1.27-1.78l0.74,0.92c-0.24-.25,0,0,0.28.46a9.88,9.88,0,0,1,.66,1,2.92,2.92,0,0,0-.29-0.69l0.38,0.5a2,2,0,0,0-.35-0.55c-0.22-.29-0.49-0.62-0.17-0.31l0.34,0.4c0-.24.58,0.05-0.12-0.79l-1.56-1.41c0.32,0.35,1,1.06,1.31,1.47L303,342c0.25,0.26.44,0.49,0.62,0.7l0.27,0.3,0.19,0.19c0.12,0.16,0,.06-0.09,0s-0.25-.24-0.07,0l-1.44-1.61,0.37,0.44-0.54-.6c0.9,1.08-.36-0.33,0,0.18l0.14,0.13a5,5,0,0,1,.48.63c-0.58-.69-0.5-0.59-0.76-0.88,0.32,0.43,1,1.4,1,1.45-0.76-1-.43-0.49-1.07-1.38a11.69,11.69,0,0,1,.69,1.08c0.15,0.25.05,0.16-.34-0.44l-0.12-.21,0,0-0.16-.25s0.51,0.82.15,0.27l-0.26-.43c-0.13-.19,1.08,1.84.41,0.8,0.34,0.57.35,0.69,1.1,2-0.27-.43-0.87-1.48-0.78-1.25,0.62,1.15-.25-0.36.14,0.4-0.63-1.24-.18-0.34-0.79-1.51-0.25-.44.54,1.08,0.37,0.82l-0.46-.88c0.2,0.39.65,1.29,0.15,0.35l0.41,0.79c-0.24-.43-0.16-0.22-0.62-1.09l0.68,1.44c-0.41-.8-0.45-0.86-0.34-0.57l0.27,0.65c0.1,0.25.28,0.66,0.32,0.8l-0.11-.18c0-.08-0.13-0.26-0.19-0.4l-0.2-.49c-0.06-.08-0.44-0.9,0,0.24,0.11,0.32-.37-0.81-0.47-1,0.31,0.78.12,0.44,0,.22s-0.18-.32.25,0.84c0,0,.09.15,0.16,0.28a0.35,0.35,0,0,0,.13.17c0,0.18.16,0.49,0.14,0.51a1.14,1.14,0,0,0-.27-0.38l0-.15a3.44,3.44,0,0,0-.13-0.39l-0.27-.74c-0.33-.78-0.17-0.3-0.08.08S302.1,343.45,301.74,342.42Z"/><path class="cls-8" d="M302.45,343l-0.41-.84,0.32,0.69C302.32,342.71,302.33,342.71,302.45,343Z"/><path class="cls-8" d="M302.36,342.81l0.12,0.31s0,0,0-.14Z"/><path class="cls-8" d="M301.65,342.54c0-.06-0.07-0.18,0,0S301.7,342.73,301.65,342.54Z"/><polygon class="cls-8" points="301.71 342.9 301.79 343.13 301.75 342.98 301.71 342.9"/><path class="cls-8" d="M300.18,342.65l-0.23.42c0.05-.26-0.15,0,0-0.44-0.24.54-.2-0.11-0.43,0.75,0.41-.08.81,0.72,1.27,0.16l-0.09.32c0.23-.6.25,1,0.44-0.38l0,0.73c0.1,0.27.15-1,.26-0.12l0-.31s0,0.16.06,0.18l0-.14c0-.27.08-0.21,0.15,0s0,0.08,0,.14c0,0.27.05-.22,0.1-0.19a1.6,1.6,0,0,1,0,.45c0.1-.25.29,0.61,0.21-0.49a2.39,2.39,0,0,1-.06-0.49c-0.07-.23-0.11-0.24-0.11-0.12l0,0.38h0c0.06,1.08-.07-0.28-0.12.13,0-.43,0-0.4,0-0.63-0.33-1.24,0,.8-0.31-0.74v0c0-.16,0,0.11,0,0.23s0.09,0.34.1,0.44,0,0.56,0,.75c0-.5,0,0.21-0.09-0.06a2.44,2.44,0,0,1,0-.61l0,0.26a0.6,0.6,0,0,1,0-.29v-0.25l-0.05-.3a3.56,3.56,0,0,1,0,.78c-0.05-.58-0.24-0.57-0.39-0.23a1.54,1.54,0,0,1,.09-0.35c0-.11-0.08.08-0.12,0.4s-0.19,0-.21-0.38l0,0.34c-0.16.5-.08-0.5-0.25-0.26h0a1.29,1.29,0,0,1-.31.58A5.28,5.28,0,0,0,300.18,342.65Z"/><path class="cls-8" d="M299.55,343.1l0.19-.39a1.51,1.51,0,0,0-.35.66c0.07-.07,0,0.14.13-0.1C299.53,343.2,299.59,343.05,299.55,343.1Z"/><path class="cls-8" d="M298.67,342.64c-0.07.08-.15,0.23-0.23,0.34,0.23,0.07.54,0,.47,0.41a2.18,2.18,0,0,0,.44-0.54l-0.14.44c0.15-.24.1,0.3,0.33-0.42,0-.06-0.16.3-0.15,0.16l0.1-.23-0.11,0,0.15-.28c0.09-.48-0.46.83-0.48,0.48l0.28-.58c-0.06-.09-0.21.08-0.09-0.31a0.39,0.39,0,0,0-.08.18,2.19,2.19,0,0,1-.21.45c-0.38.36,0.2-.33,0.24-0.62-0.31.33-.75,0.5-0.52,0a0.92,0.92,0,0,1-.54.6,2.5,2.5,0,0,1,.37-0.47c0-.08.08-0.23,0-0.17a2.71,2.71,0,0,1-.7.86C297.75,343.41,298.57,342.48,298.67,342.64Z"/><path class="cls-8" d="M298.33,343.08a0.29,0.29,0,0,0,.11-0.11l-0.08,0Z"/><path class="cls-17" d="M349.17,251.52c-16.39-15.24-39.72-20.26-62-22.44-11.68-1.14-23.6-1.65-35,1-24.91,5.82-44.89,27.19-51.32,52s-0.06,52,14.71,72.88,37.35,35.6,61.77,43.23c17.53,5.48,36.39,7.47,54.39,3.79s35-13.34,46-28.11c7.68-10.4,12.1-22.88,15-35.49,2.74-12,4.15-24.5,2.6-36.75-3.87-30.52-27.81-57.49-57.66-64.95l-3,7.72"/><path class="cls-8" d="M350.94,249.75c-15.4-13.95-35.59-19.62-55.78-22.26-21.45-2.81-43.7-3.5-62.83,8.09-35.51,21.52-44.49,66.92-28.55,103.52,16.87,38.76,58.47,63.22,99.64,66.81,21.38,1.87,43.58-2.76,61.07-15.61s26.48-32.27,31-53.09c5-23.14,3.76-46.79-9.07-67.22a81.71,81.71,0,0,0-48.13-35.74,2.57,2.57,0,0,0-3.08,1.75l-3,7.72c-1.16,3,3.67,4.3,4.82,1.33l3-7.72-3.08,1.75a76.12,76.12,0,0,1,42,28.75c11.2,15.3,15.68,33.43,14.17,52.24-1.62,20.08-7.71,42.35-21.65,57.46-13.65,14.8-33.43,22.6-53.31,23.67-38.72,2.08-80.76-17.53-102.22-50.21-21-32-20.78-76.42,8.58-103.25,17.42-15.92,39.13-18.36,61.81-16.22,21.7,2,44.52,6.73,61.15,21.79,2.38,2.16,5.93-1.37,3.54-3.54h0Z"/><path class="cls-11" d="M309.75,292.57c-7.79-4.67-17.36-5.61-26.37-4.47-7.13.9-14.89,3.68-17.94,10.18-3.47,7.4.64,16,4.77,23s8.53,15.37,5.57,23c-1.67,4.31-5.57,7.77-6,12.37,6.8,2.1,14.33,4.17,20.83,1.27,6.88-3.07,10.41-10.73,16.34-15.36,5-3.88,11.6-5.63,15.59-10.5,3.77-4.6,4.35-11.19,2.88-17s-4.74-10.88-8.08-15.81c-1.93-2.84-4-5.76-7-7.41s-7.25-1.59-9.45,1.05"/><path class="cls-8" d="M311,290.41c-13-7.29-41.62-9.51-48.28,7.95-3.65,9.58,2.52,19,7,27.1,3.09,5.61,6.3,12.52,3.36,18.85-1.88,4-4.92,7.16-5.68,11.7a2.57,2.57,0,0,0,1.75,3.08c11.7,3.56,22.07,4.25,30.85-5.4,4-4.38,7.28-8.73,12.54-11.71,4.58-2.6,9.48-4.81,12.63-9.22,7.12-10,2.22-22.54-3.66-31.71-4.56-7.11-13.51-18.27-22.37-9.84-2.34,2.22,1.2,5.75,3.54,3.54,7.79-7.41,18.2,14.13,19.87,19.35,1.47,4.59,1.79,9.89-.5,14.28-2,3.84-5.8,5.89-9.45,7.88-6.79,3.69-11,8.26-16.13,13.9-3.32,3.65-6.94,6.4-12.06,6.7-4.74.28-9.44-1.22-13.92-2.59l1.75,3.08c0.68-4.06,3.4-6.93,5.18-10.51a18.14,18.14,0,0,0,1.7-10.31c-1-8.82-7.08-15.69-10.39-23.65-10.23-24.63,25.45-26.21,39.8-18.15,2.81,1.58,5.33-2.74,2.52-4.32h0Z"/><path class="cls-11" d="M284.76,300.87c-3.48-.61-7,1.76-8.63,4.87s-1.87,6.79-1.72,10.32a10,10,0,0,0,.73,3.88c1.29,2.73,4.66,3.9,7.67,3.7a12.71,12.71,0,0,0,9.9-19.5c-0.47-.74-1.36-1.52-2.12-1.08s0.69,1.73.72,0.85"/><path class="cls-8" d="M284.76,298.37c-10.05-.73-13.47,10.15-12.81,18.35s8.77,11.3,15.94,8.19A15.29,15.29,0,0,0,296,305.22c-1-2.4-3.54-6.28-6.7-4.33-2.23,1.38-1.56,4.35.49,5.47a2.59,2.59,0,0,0,3.42-.9l0.23-.3c2-2.55-2.38-5-4.32-2.52l-0.23.3,3.42-.9,0.2,0.19v2.52l0.21-.44-2.16,1.24c1-.11,1.55,4.79,1.55,5.44a10,10,0,0,1-1.31,5c-1.74,3-5.54,5.46-9.16,5.14-8.54-.77-5.52-18.39,3.09-17.77,3.21,0.23,3.2-4.77,0-5h0Z"/><path class="cls-10" d="M310.7,315.83c-1.15-3.76-6.48-4.7-9.88-2.74s-5.28,5.72-6.94,9.29c-0.57,1.23-1.1,2.81-.22,3.84a3.07,3.07,0,0,0,2.73.73,9.9,9.9,0,0,0,8.4-10.37l-3.43.19"/><path class="cls-8" d="M313.11,315.16c-1.73-4.34-6.19-6.34-10.73-5.32-5.53,1.24-8.69,6.76-10.78,11.56-2.53,5.81,2.07,9.48,7.67,7.36a12.57,12.57,0,0,0,8-12.21,2.53,2.53,0,0,0-2.5-2.5l-3.43.19c-3.2.18-3.22,5.18,0,5l3.43-.19-2.5-2.5a7.58,7.58,0,0,1-2.74,6.37c-0.42.34-3.18,2.32-3.66,1.08-0.2-.51,1.39-2.95,1.69-3.49,1.15-2.12,2.61-4.47,4.93-5.46,1.81-.78,4.91-0.76,5.78,1.43,1.18,3,6,1.67,4.82-1.33h0Z"/><path class="cls-10" d="M279.35,332.64l-4.69,9.23,6.24-4.94a12.38,12.38,0,0,1-.67,5.63,14.32,14.32,0,0,0,6.39-6.29"/><polygon class="cls-8" points="286.78 336.36 286.61 336.37 286.96 336.58 286.78 336.36"/><path class="cls-8" d="M285.27,336l0.08,0.21a4.52,4.52,0,0,0,1.59.64,2.13,2.13,0,0,0-.82-0.72c0,0.07.38,0.37,0.2,0.38-0.28-.2-0.2-0.26-0.58-0.51-0.39-.05.22,0.22,0,0.27Z"/><path class="cls-8" d="M286.23,336.76c-0.17-.11-0.34-0.23-0.49-0.31A1.53,1.53,0,0,0,286.23,336.76Z"/><path class="cls-8" d="M286.28,336.91a1,1,0,0,1-.44-0.24l0.61,0.48Z"/><path class="cls-8" d="M286,337.23l0,0.08C286.18,337.36,286.1,337.3,286,337.23Z"/><path class="cls-8" d="M286,337.46c0.25,0.11.14,0,.07-0.14l0,0c-0.22-.07-0.66-0.41-0.49-0.4-0.06-.14.4,0.14,0.13-0.11l-0.44-.14A3.85,3.85,0,0,0,286,337.46Z"/><path class="cls-8" d="M286,337.23a0.08,0.08,0,0,1,0-.06C285.94,337.14,286,337.19,286,337.23Z"/><polygon class="cls-8" points="286.19 337.09 286.12 336.99 285.91 336.88 286.19 337.09"/><path class="cls-8" d="M285.85,337.76c-0.61-.43.2-0.16-0.27-0.5a1.12,1.12,0,0,1-.88-0.34l0.12,0.24A4,4,0,0,0,285.85,337.76Z"/><path class="cls-8" d="M284.14,336.92l0.09,0.1A0.34,0.34,0,0,0,284.14,336.92Z"/><path class="cls-8" d="M284.76,338.23l-0.4-.71a1.47,1.47,0,0,1,.39.41,1.33,1.33,0,0,0-.08-0.41c0.58,0.38-.08.2,0.46,0.51,0-.08.09-0.21-0.36-0.6l0.46,0.16-0.65-.4c-0.21-.08.43,0.43,0,0.15a0.75,0.75,0,0,1-.34-0.33c0.08,0.16-.61-0.17-0.62,0A11.09,11.09,0,0,0,284.76,338.23Z"/><polygon class="cls-8" points="284.09 337.73 283.84 337.56 284.17 337.8 284.09 337.73"/><path class="cls-8" d="M284.64,338.63l-0.26-.43a3.19,3.19,0,0,1,.31.2c-0.14-.1-0.34-0.33-0.46-0.41-0.58-.37,0,0.29.07,0.44a2.21,2.21,0,0,1-.82-0.61,0.52,0.52,0,0,0,.26,0,0.78,0.78,0,0,0-.33-0.13s0,0,0,.05a3.7,3.7,0,0,1,.27.35,0.35,0.35,0,0,0,.18.13l0.12,0.21C284.4,338.82,284.56,338.86,284.64,338.63Z"/><path class="cls-8" d="M284.83,338.38c0,0.08-.05.07-0.13,0C284.86,338.5,285,338.56,284.83,338.38Z"/><path class="cls-8" d="M283.69,338.15s0,0,0,0S283.66,338.1,283.69,338.15Z"/><path class="cls-8" d="M284.28,338.72l-0.11,0,0.24,0.22A0.43,0.43,0,0,0,284.28,338.72Z"/><path class="cls-8" d="M282.58,338.74a1.46,1.46,0,0,0-.31.74,10.77,10.77,0,0,1-.6,1.14c-0.16.45-.46,1-0.77,1.65,0.07,0.07.59-1,.61-0.86s-0.26.61-.31,0.74c0.14-.19.38-0.6,0.52-0.79s0.23-.27.21,0,0.27-.23.46-0.62a1.26,1.26,0,0,0,.63-0.46,1,1,0,0,1,.67-0.4l-0.07-.45-0.08-.44a2.48,2.48,0,0,1,.22.46c-0.05-.08,0,0-0.07.06,0.31,0.62.21-.29,0.4-0.14a6.68,6.68,0,0,1-.43-0.83c0.4,0.76.06-.08,0.61,0.7,0.24,0.08-.41-0.61-0.25-0.59-0.29-.39-0.21-0.12-0.42-0.42a0.85,0.85,0,0,0-.17-0.32c-0.09-.08,0,0.1.06,0.41a2.47,2.47,0,0,1,0,1l-0.08-.57c0,0.46-.25.7-0.25-0.33,0,0.62,0-.28-0.18,1.19a1,1,0,0,0,0-.36l-0.07.5c-0.06,0,.07-0.74,0-0.65a11.93,11.93,0,0,1-.29,1.48,11.65,11.65,0,0,1,.29-2c-0.06.24-.13,0.51-0.2,0.81a3.65,3.65,0,0,0-.23.73,12.09,12.09,0,0,1,.37-1.4,9,9,0,0,1-.43,1l-0.25.8c-0.19.28,0.08-.59-0.12-0.26,0.45-1.16.48-1.06,0.69-1.57,0.08-.24.09-0.29,0.25-0.68-0.24.6-.63,1.46-0.94,2.07A6.68,6.68,0,0,0,282.58,338.74Z"/><path class="cls-8" d="M282.93,338.07l0.19-.46,0,0.09Z"/><path class="cls-8" d="M282.58,338.74l0.07-.14Z"/><path class="cls-8" d="M281.93,341.39v-0.05a0,0,0,0,1,0,0v0.07Z"/><path class="cls-8" d="M283.08,337.77c-0.08.27-.15,0.54-0.21,0.82Z"/><path class="cls-8" d="M283.08,338.46l0-.52A4.13,4.13,0,0,0,283.08,338.46Z"/><polygon class="cls-8" points="283.01 337.86 282.87 338.15 282.76 338.39 283.01 337.86"/><path class="cls-8" d="M280.31,341.45L280,342c-0.47.76,0,.26-0.16,0.57a5.14,5.14,0,0,0,.46-0.6l0.51-.77a6.92,6.92,0,0,1,.58-0.83L280,342.43a0.46,0.46,0,0,0,0,.2,3.54,3.54,0,0,0,.75-1.09c-0.17.29-.41,0.73-0.56,1s1.94-3.31,1.56-2.53-0.67,1.12-.83,1.45l-0.28.55c-0.11.21-.27,0.52-0.41,0.75l-0.1.14a5.52,5.52,0,0,0,.42-0.48,1.78,1.78,0,0,1,.33-0.4c0.29-.58.7-1.46,0.8-1.57s0.37-.77.66-1.35c-0.37.68-.19,0.29-0.65,1.09l0.55-1-0.44.76c0.08-.18.47-0.82,0.52-1a6.39,6.39,0,0,1-.55.89l0.16-.27c-0.17.29,0.07-.16-0.7,1.17l0.77-1.33-0.52.88a12.13,12.13,0,0,0,.85-1.5l-0.5.79c-0.35.59,0.35-.53,0.41-0.62-0.5.84-1.06,1.68-1.38,2.25,0.62-1,0-.11,1.2-2,0.09-.17-0.47.66-0.18,0.17l0.17-.25a3.6,3.6,0,0,1-.4.49l-0.18.29a1.33,1.33,0,0,1-.35.45l0.26-.38-0.19.26a5.83,5.83,0,0,1-.56.63c-0.09.14,0,0,.09-0.05l0.26-.29,0.1-.11-0.69.93C280.31,341.49,280.25,341.56,280.31,341.45Z"/><path class="cls-8" d="M282.29,339l-0.31.53Z"/><path class="cls-8" d="M281.51,339.39c0.12-.2.43-0.47,0.66-0.77-0.34.31-.72,0.88-1.23,1.38,0.31-.4-0.19.07-0.25,0.08,0.24-.23.42-0.41,0.65-0.66l0.48-.52c-0.18.16,0.15-.22,0.17-0.27-0.42.5-.23,0.13-0.69,0.66-0.36.35-.7,0.49-0.34,0.11s0.21-.14.22-0.11c0.52-.44.29-0.34,0.76-0.76-0.73.55-.59-0.07-1.85,0.84-0.25.24,0,.12,0.08,0.17a2.21,2.21,0,0,1,.9-0.6c-0.2.21,0.19,0-.26,0.36l-0.47.22a3.67,3.67,0,0,0-.41,2l0.11-.34a6.83,6.83,0,0,1,.74-0.72l0.83-1.06a0.9,0.9,0,0,1-.24.35c0.34-.37.55-0.66,0.83-1,0.14-.13-0.19.3,0.34-0.37,0.68-.9-0.54.63,0.05-0.15Z"/><polygon class="cls-8" points="281.9 339.16 281.49 339.66 281.69 339.45 281.9 339.16"/><path class="cls-8" d="M279.68,342l0.72-.89C280.62,340.7,280.22,341.2,279.68,342Z"/><path class="cls-8" d="M282,338.45l-0.13,0-0.15.17A2,2,0,0,1,282,338.45Z"/><path class="cls-8" d="M280,338.61c0.06,0.28.43,0.17,0,.72a15.23,15.23,0,0,0,1.44-.83c0.12-.14-0.72.32-0.9,0.27,0.44-.25-0.09-0.15,0-0.33A2.22,2.22,0,0,1,280,338.61Z"/><path class="cls-8" d="M281.65,337.57c0-.1-0.34-0.17-0.14-0.25s0.37,0,.3.1c0.6-.08-0.1-0.1.29-0.23a0.71,0.71,0,0,1-.3,0c0.11-.25-0.4-0.12-0.26-0.37l0.17-.3-1.24-.14h-0.1a1.17,1.17,0,0,0,.29.49,6.25,6.25,0,0,0-.83-0.56c0.15,0.18.54,0.56,0.85,1-0.68-.37-0.18.27-0.66,0,0,0-.06-0.15,0-0.13-0.46-.54,0,0.2-0.22.16l-0.37-.48c0,0.14.1,0.55-.28,0.28l-0.17-.25a1.51,1.51,0,0,1-.3.84l-0.32-.22c0.05,0.54.36,0,.75,0.82-0.71-.85.11,0.38-0.3,0.14s0-.29-0.39-0.63c0.32,0.47,0,.18.06,0.37a3.3,3.3,0,0,1-.52-0.45l0.37,1c-0.23-.21-0.27-0.11-0.27,0,0.14-.1.46,0.66,0.76,0.73a0.84,0.84,0,0,1,.76-0.8c-0.43-.6.18-0.13-0.15-0.64l0.45,0.5a0.91,0.91,0,0,0-.42-0.53c0-.14.35,0.16,0.51,0.38,0.15-.07-0.11-0.17-0.29-0.53l0.59,0.57a2.63,2.63,0,0,1,.74-1.23l-0.41-.17a0.71,0.71,0,0,1-.13.39l0.5-.08c-0.13.14,0.16,0.23,0.34,0.32s0.27,0.12-.27.32l0.43,0c-0.25,0-.76.22-1.1,0.21a2.25,2.25,0,0,1,.13.23l0.24-.22c0.43,0,.17.13-0.21,0.31a4.51,4.51,0,0,0,1.3-.55c-0.47,0-.24-0.09.05-0.17s0.66-.11.46-0.19A1.14,1.14,0,0,0,281.65,337.57Z"/><path class="cls-8" d="M280.28,338.08l0.14,0Z"/><path class="cls-8" d="M278.11,338.68a0.11,0.11,0,0,0,0,.07C278.13,338.86,278.11,338.77,278.11,338.68Z"/><polygon class="cls-8" points="280.58 338.44 280.58 338.43 280.58 338.43 280.58 338.44"/><polygon class="cls-8" points="281.81 338.08 281.83 338.03 281.6 338.12 281.81 338.08"/><path class="cls-8" d="M277.12,338.65l0.16,0.21A1.51,1.51,0,0,0,277.12,338.65Z"/><path class="cls-8" d="M275.41,339.8l0,0S275.41,339.78,275.41,339.8Z"/><path class="cls-8" d="M276.59,339.41a1.51,1.51,0,0,0-.49-0.71l0.23,0.13a1.33,1.33,0,0,0-.85-0.61l0.19,0.14c0.28,0.33-.45-0.09-0.66,0,0,0.2.89,0.74,0.61,0.76a0.58,0.58,0,0,1-.41-0.17,2.33,2.33,0,0,0,.57.62c-1.81-.88.29,0.64-0.95,0.25a0.78,0.78,0,0,0,.12.6c-0.41-.31-0.11.12-0.6-0.17,1,0.57-.69.2,0.61,0.9-0.47,0,.08.05-0.35,0.13a0.21,0.21,0,0,1-.15-0.14c-0.32,0,.49.43-0.15,0.2-0.2.14,0.34,0.21,0.63,0.51a0.65,0.65,0,0,1-.55,0l0.39,0.32c0.09,0.09.2,0.19,0.35,0.32a1,1,0,0,1-.25-0.73,0.39,0.39,0,0,1-.33-0.29c0.27-.07-0.13-0.49-0.05-0.79,0.58,0.53-.18.17,0.37,0.52a2.15,2.15,0,0,0,.28.92,0.72,0.72,0,0,0,.28-0.74,2.66,2.66,0,0,1,.3.32c0.39,0.13-.22-0.83.13-0.67l0.22,0.34c-0.25-.48.38-0.15,0.36-0.51a1.44,1.44,0,0,1-.3-0.36c0.62,0.79-.1-0.59.5-0.16a1.29,1.29,0,0,1-.42-1,2.78,2.78,0,0,1,.4.45c-0.39-.17.28,0.67,0.33,1-0.1-.34.29-0.21,0.09-0.65l0.27,0.42c0.19-.06-0.58-1-0.12-0.73l0.21,0.3c0.28-.28,1-0.05.78-0.9a12.19,12.19,0,0,0-.89-0.89,10.26,10.26,0,0,0,.31,1.1l-0.36-.45a2.55,2.55,0,0,0,.5.8c0.09,0.3-.38-0.34-0.28,0-0.37-.48-0.34-0.58-0.65-1l0.09,0.31c-0.12-.21-0.18-0.12-0.3-0.32,0.28,0.71-.41,0-0.38.36h0.16a0.44,0.44,0,0,1,.15.39,1,1,0,0,0-.55-0.35,2.24,2.24,0,0,1,.31.85,3.57,3.57,0,0,0-.74-0.54c0.37,0.51-.06.34,0.15,0.64,0,0.15-.1.15-0.3-0.11a0.73,0.73,0,0,1,0-.12l-0.07,0a0.84,0.84,0,0,1-.08-0.12c-0.06,0,.23.39,0,0.2a0.29,0.29,0,0,1-.08-0.23c-0.2,0,.36.94-0.1,0.57a2.38,2.38,0,0,0,.48.9c-0.19-.15-0.5-0.58-0.56-0.42,0.29,0.5-.26-0.07-0.11.29-0.26-.56-0.1-0.13-0.36-0.65-0.22-.13.14,0.56-0.06,0.58l-0.3-.32c0.07,0.2.31,0.61,0,.27l0.26,0.31a0.41,0.41,0,0,0-.24,0l1.31,1.07a0.54,0.54,0,0,1,.42,0l-0.62-.48c0.81,0.2.28-.37-0.27-0.82a0.41,0.41,0,0,1,.39,0l0.21,0.2c0.07-.08.52,0,0-0.34-0.12-.18.43,0.13,0.56,0.11-0.7-.6.88-0.27-0.31-1a0.83,0.83,0,0,0-.39.28,1.84,1.84,0,0,1-.38-0.28c0-.18.51,0,0.39-0.28l0.77,0.41C277.09,340.22,275.37,339,276.59,339.41Z"/><path class="cls-8" d="M275.58,341.34l0.45,0.09-0.34-.16C275.73,341.33,275.71,341.37,275.58,341.34Z"/><path class="cls-8" d="M275.69,341.27a0.77,0.77,0,0,0-.13-0.14s0,0.05,0,.1Z"/><path class="cls-8" d="M276.67,338.9s0.13,0,.07-0.12S276.57,338.82,276.67,338.9Z"/><polygon class="cls-8" points="276.51 338.66 276.36 338.65 276.44 338.7 276.51 338.66"/><path class="cls-8" d="M277.46,335.1l-0.38-.42c0.25,0.09.07-.26,0.45,0-0.51-.39.15-0.34-0.7-0.67,0,0.66-.82,1.13-0.41,2.1l-0.28-.26c0.49,0.64-.92.07,0.23,1l-0.64-.37c-0.26,0,.81.75,0,0.55l0.28,0.12s-0.15,0-.17,0l0.13,0c0.21,0.24.15,0.29-.09,0.3s-0.06-.09-0.1-0.15c-0.24-.06.17,0.25,0.12,0.32a0.77,0.77,0,0,1-.39-0.21c0.17,0.39-.58.14,0.32,0.81a0.86,0.86,0,0,1,.41.24c0.39,0,.06-0.33-0.13-0.61l0,0c-0.89-.6.26,0-0.06-0.37a4.39,4.39,0,0,1,.51.46c0.84,0.16-.4-0.58.6-0.25l0,0c0.11,0,0-.13-0.1-0.22a1.23,1.23,0,0,0-.32,0,4.09,4.09,0,0,0-.64-0.44c0.45,0.16-.17-0.18.09-0.16a1.26,1.26,0,0,1,.51.39l-0.21-.24a1.52,1.52,0,0,1,.71.18c-0.25-.23-0.23-0.06-0.62-0.34,0.53,0.14.62-.36,0.35-0.76a1,1,0,0,1,.3.29c0.11,0,0-.2-0.34-0.35s0.09-.36.43-0.36l-0.32-.11c-0.45-.37.52-0.1,0.33-0.44h0c0-.1-0.73-0.52-0.52-0.56A4.59,4.59,0,0,0,277.46,335.1Z"/><path class="cls-8" d="M277.13,334.05l0.38,0.28a1.14,1.14,0,0,0-.64-0.51c0.06,0.09-.15.06,0.08,0.19C277,334,277.17,334.11,277.13,334.05Z"/><path class="cls-8" d="M277.74,332.68a3.11,3.11,0,0,0-.35-0.22c-0.09.31-.1,0.74-0.49,0.69a2.44,2.44,0,0,0,.53.56l-0.45-.16c0.23,0.2-.32.17,0.4,0.45,0.06,0-.3-0.22-0.15-0.22l0.23,0.13,0-.17,0.28,0.19c0.51,0-.83-0.58-0.45-0.65l0.6,0.31c0.11-.13-0.06-0.3.37-0.24,0,0-.3-0.15-0.19-0.07a1.41,1.41,0,0,1-.47-0.19c-0.36-.45.34,0.22,0.66,0.19-0.32-.39-0.48-0.92.05-0.78a0.72,0.72,0,0,1-.64-0.51,1.64,1.64,0,0,1,.51.32c0.09,0,.26,0,0.19-0.07a2,2,0,0,1-.94-0.59C276.94,331.72,277.94,332.47,277.74,332.68Z"/><path class="cls-8" d="M277.27,332.35a0.25,0.25,0,0,0,.11.11,0.71,0.71,0,0,1,0-.1h-0.15Z"/><path class="cls-11" d="M277,291.95a62.43,62.43,0,0,1-11.54-17.17c3.94-2.08,7.33-5.7,8-10.11s-2.3-9.37-6.71-10c-3.31-.43-6.56,1.59-8.5,4.3s-2.83,6-3.63,9.26a4.4,4.4,0,0,1-1.15,2.4,4,4,0,0,1-2.49.72c-3.44.14-6.92-.49-10.29,0.19s-6.76,3.26-6.76,6.7,3.29,5.92,6.59,6.23,6.51-1.11,9.39-2.76c3.09-1.77,6.79-3.89,9.95-2.26a9.19,9.19,0,0,1,2.63,2.34,73.13,73.13,0,0,1,7.59,10.69"/><path class="cls-8" d="M278.8,290.18a65.16,65.16,0,0,1-11.15-16.67l-0.9,3.42c4.53-2.64,8.66-6.78,9.2-12.27,0.45-4.59-1.84-9.5-6.09-11.54s-9.29-.37-12.49,3a19.67,19.67,0,0,0-4.06,7.44c-0.57,1.72-.57,4.32-2.34,5.32-1.08.61-4-.09-5.17-0.11-4.91-.06-10.33.75-13.12,5.31a8,8,0,0,0,2,10.59c4.46,3.64,10.24,2.41,15,0,4-2,6.92-4.38,11-1.11,2.92,2.33,5.31,7,7.2,10.18,1.65,2.76,6,.25,4.32-2.52-2.9-4.85-7.45-13.88-13.77-14.75-3.64-.5-6.74,1.5-9.83,3.08-2.54,1.3-5.67,3.17-8.7,2.28-4.74-1.38-3.94-5.94.14-7.54s8.73,0.52,12.87-.7c3.14-.92,3.66-3.54,4.46-6.33,1.25-4.33,7-15.57,12.4-7.8,3.6,5.21-1.26,10.57-5.6,13.1a2.57,2.57,0,0,0-.9,3.42,69.46,69.46,0,0,0,11.94,17.68c2.19,2.37,5.71-1.17,3.54-3.54h0Z"/><path class="cls-11" d="M310.08,342.22l13.3,16.62c2.71,3.38,6.28,7.13,10.56,6.45,2.57-.4,4.86-2.41,7.44-2.1,3.13,0.38,4.86,4.44,3.57,7.32s-4.71,4.36-7.86,4.21-6.08-1.66-8.73-3.38a64.27,64.27,0,0,1-14.77,14.76c-2.83-2.24-3.3-6.41-2.62-10s2.29-6.88,2.79-10.45c1.1-7.75-3-15.18-7-21.92"/><path class="cls-8" d="M308.31,344l10.27,12.84c2.76,3.44,5.45,7.5,9.43,9.66,3.56,1.94,5.91,1,9.57.21,1.4-.3,4.25-0.66,5.21,1,0.78,1.34-2.44,4.06-3.67,4.35-3.38.81-6.76-1.16-9.52-2.86a2.56,2.56,0,0,0-3.42.9,65,65,0,0,1-13.87,13.86l3,0.39c-5.62-5.47,1.48-15.95,1-22.75s-4-13.19-7.46-19.06c-1.63-2.77-6-.26-4.32,2.52,5.14,8.77,8.27,15.94,5.16,26.09C308,377,307,383.21,311.82,387.87a2.53,2.53,0,0,0,3,.39,72.72,72.72,0,0,0,15.67-15.66l-3.42.9c4.87,3,11.08,5.44,16.47,2.09,4.19-2.6,5.77-8.09,2.63-12.18-4.93-6.43-11.64,1.85-17.16-2.29-3.24-2.43-5.61-6.2-8.11-9.33l-9.07-11.33c-2-2.51-5.53,1-3.54,3.54h0Z"/><path class="cls-11" d="M319.23,296.66L340,279.58a4.82,4.82,0,0,0,1.51-1.71c0.82-1.92-1-3.83-2.36-5.4-3-3.37-4.16-9.2-.65-12a5.51,5.51,0,0,1,8.63,6.15c3.85,1.38,7.78,3.08,10.4,6.22s3.46,8.12.86,11.27-6.91,3.31-10.81,3.62a88.79,88.79,0,0,0-40.44,13.58"/><path class="cls-8" d="M321,298.43l11.88-9.76c3.15-2.59,7.45-5.13,10-8.35a5.65,5.65,0,0,0,.48-6.54c-0.92-1.7-2.54-2.89-3.42-4.62a8.71,8.71,0,0,1-1-3.51q-0.31-4.92,5.85.31a2.58,2.58,0,0,0,1.75,3.08c2.89,1.07,6,2.27,8.26,4.47,3.1,3,4.14,8.19-.38,10.48s-11.07,1.58-16,2.47a92.45,92.45,0,0,0-32.49,12.72c-2.72,1.7-.22,6,2.52,4.32A89,89,0,0,1,333,292.76a91,91,0,0,1,14.6-2.51c2.83-.27,5.77-0.39,8.43-1.5,5.26-2.2,7.54-7.48,5.9-12.94-1.93-6.42-8.31-9.43-14.11-11.59l1.75,3.08c2.26-11.07-13.74-14.49-15.55-3.49a11.89,11.89,0,0,0,.78,6.14,32.57,32.57,0,0,0,1.65,3.07l1,1.23q2.49,3.34-.64,4.79c-2,2.82-6.19,5.08-8.91,7.32l-10.39,8.54c-2.49,2,1.07,5.56,3.54,3.54h0Z"/><path class="cls-11" d="M265.33,338.21a68.71,68.71,0,0,1-24.21,15l-5-12.45a5,5,0,0,0-1.65-2.48c-1.68-1.08-3.91.2-5.15,1.75a11.91,11.91,0,0,0-.54,13.7c1.5,2.23,3.79,3.94,4.84,6.42,1,2.26.77,4.84,1.28,7.25s2.22,5,4.68,4.94c2.26,0,4-2.33,4.13-4.58s-0.76-4.42-1.68-6.49q13.73-6.79,27.18-14.13L268,348.28"/><path class="cls-8" d="M263.56,336.44a68.86,68.86,0,0,1-23.11,14.4l3.08,1.75c-1.87-4.63-3.25-10.57-6.13-14.68a5.43,5.43,0,0,0-7.22-1.71c-6.94,3.38-7.13,13.81-3.2,19.39,1.16,1.64,2.81,3,3.82,4.7,1.27,2.17,1,4.72,1.53,7.1,0.61,3,2.21,6.26,5.38,7.23a6.47,6.47,0,0,0,7.24-3c2.36-3.7.76-7.95-.8-11.59l-0.9,3.42q13.73-6.81,27.18-14.13l-3-3.93-1.18,1.09c-2.37,2.18,1.17,5.71,3.54,3.54l1.18-1.09c2.14-2-.59-5.25-3-3.93q-13.46,7.32-27.18,14.13a2.56,2.56,0,0,0-.9,3.42q2.71,3.61-1.92,6a9.62,9.62,0,0,1-.94-4,27.88,27.88,0,0,0-.52-3.58c-0.65-2.5-2.17-4.36-3.8-6.3-2-2.43-5.72-9-2-12.08s7.42,9.7,8.1,11.37c0.47,1.16,1.69,2.26,3.08,1.75A75.3,75.3,0,0,0,267.1,340c2.35-2.21-1.19-5.74-3.54-3.54h0Z"/><path class="cls-11" d="M58,400.58c-1.8-17.78,14.08-32,29.3-41.41,9.41-5.79,19.4-11.07,30.29-12.93s22.9,0.15,31.14,7.51c15.37,13.74,11.77,38,11.14,58.59-0.16,5.32,1.85,12.54,7.16,12.12,2.52-.2,4.45-2.23,6.11-4.12l35.29-40c9.41,18.6-1.75,40.94-14.87,57.14-6.11,7.55-13,15.29-14.37,24.91-1,7.3,1.27,14.61,3.55,21.61l21.28,65.29c-13.72-1.82-25.36-16-38.74-12.44-11.48,3-17.65,18.16-29.51,18.75-9.65.49-17-9.13-26.52-10.74-4.47-.76-9,0.33-13.45,1.29a250,250,0,0,1-60.39,5.54A411.49,411.49,0,0,0,64.2,462.53c0.75-3.77,1.44-7.78.1-11.38-1.74-4.68-6.38-7.49-10.57-10.21a125.11,125.11,0,0,1-39.2-40.77c-3.44-5.78-6.47-12.06-6.8-18.77s2.6-14,8.57-17.06c6.33,9.09,12.85,18.38,22,24.7s21.45,9.15,31.38,4.24"/><path class="cls-18" d="M87.5,398.33c3.6,2.73,1,8.81-3.49,7.85-5.27-1.13-4.2-8.52.92-8.72,3.21-.13,3.22-5.13,0-5a10,10,0,0,0-9.48,8.75A9.18,9.18,0,0,0,82.68,411C93,413.5,97.92,400,90,394c-2.56-1.95-5.06,2.39-2.52,4.32h0Z"/><circle class="cls-11" cx="122.42" cy="405.06" r="12.58"/><path class="cls-18" d="M112.34,405.06c0.7-12.91,20.16-13,20.16,0s-19.47,12.92-20.16,0c-0.17-3.2-5.17-3.22-5,0,0.44,8.18,6.55,15.08,15.08,15.08a15.07,15.07,0,0,0,.69-30.12c-8.8-.39-15.31,6.58-15.77,15C107.17,408.27,112.17,408.26,112.34,405.06Z"/><path class="cls-8" d="M63.57,397.38c-1.33-17.88,14.29-30.74,28.06-39.25,15.31-9.47,35.09-18.6,52.76-9.63,15.52,7.88,17.14,26.36,16.82,41.79-0.15,7.34-1.53,15.15-.57,22.44,0.62,4.72,2.91,10.49,8.37,11,3.76,0.36,6.61-2.26,9-4.83,3.79-4.12,7.41-8.4,11.11-12.6l24.18-27.42-3.93-.51c6.75,14.19,1.34,29.91-6.33,42.54-6.89,11.34-18.34,20.72-22.27,33.68-4.33,14.27,3.78,30.27,8.14,43.63l15.81,48.5,3.08-3.08c-13-2.12-23.61-14.59-37.41-12.92-6,.73-10.79,4.36-15.13,8.35-4.82,4.43-9.91,10.77-17.05,10.8-7.4,0-13.49-6.22-20-9-7-3-13.72-1.68-20.91-.16A251.68,251.68,0,0,1,38.48,546l2.16,3.76a422.57,422.57,0,0,0,20.48-55.13q4.22-14.42,7.37-29.12c1.56-7.25,4-15.46-.82-22-4.52-6.13-12.52-9.55-18.41-14.19a124.5,124.5,0,0,1-18.65-18.17c-8.81-10.58-28.51-37-10-47.85l-3.42-.9c6.25,9,12.65,18,21.5,24.63,4.57,3.41,9.26,6.89,14.09,9.92,2.69,1.69,5.69,3.54,9,2.83s1.81-5.49-1.33-4.82c-2.53.54-7.07-3.6-8.93-4.91-4.15-2.91-8.49-5.75-12.37-9-7.06-6-12.39-13.64-17.63-21.16a2.56,2.56,0,0,0-3.42-.9c-10.14,5.94-11.53,18.59-7.77,28.83,4.5,12.28,13.27,23.56,22.2,33a127.49,127.49,0,0,0,14.77,13.28c5.19,4,13.53,7.45,16.92,13.18C68,453.7,63.6,464.73,62,471.51q-2.78,11.88-6.26,23.59a413.36,413.36,0,0,1-19.44,52.13A2.54,2.54,0,0,0,38.48,551,257.24,257.24,0,0,0,94,546.51c4.4-.85,8.84-2.19,13.32-2.52,4.74-.35,8.71,1.14,12.76,3.44,5.33,3,10.47,6.92,16.79,7.41,13.18,1,19-12.72,29.4-17.74,7.38-3.54,14.78,0,21.38,3.58,6,3.23,12,6.69,18.83,7.81,1.75,0.28,3.72-1.09,3.08-3.08l-15.81-48.5c-2.58-7.92-5.51-15.83-7.64-23.89-2.41-9.12-1.71-17.09,3.34-25.13,3.76-6,8.68-11.17,12.86-16.87a92,92,0,0,0,10.53-18.15c5.13-12,6.6-25,.87-37a2.51,2.51,0,0,0-3.93-.51l-22.22,25.2-9.8,11.12c-1.57,1.79-3.23,4.28-5.21,5.64-3.53,2.43-5.44.6-6.45-2.84-2.14-7.33,0-16.63.15-24.18,0.16-7.32,0-14.77-1.7-21.93-3.48-15-14.49-25.84-29.92-28-17.55-2.47-34.42,6.1-48.65,15.49S57.2,379,58.57,397.38c0.24,3.19,5.24,3.22,5,0h0Z"/></g></g></g></svg>