<svg xmlns="http://www.w3.org/2000/svg" xmlns:xlink="http://www.w3.org/1999/xlink" viewBox="0 0 580 580"><defs><style>.cls-1{fill:none;}.cls-2{isolation:isolate;}.cls-3{clip-path:url(#clip-path);}.cls-4{clip-path:url(#clip-path-2);}.cls-5{fill:#feeb8d;}.cls-6{fill:#fff;}.cls-7{fill:#004f7f;}.cls-8{fill:#feeb8c;}.cls-9{fill:#da2148;}.cls-10{mix-blend-mode:multiply;}.cls-11{fill:#ffd459;}</style><clipPath id="clip-path"><rect class="cls-1" y="2655.28" width="580" height="580"/></clipPath><clipPath id="clip-path-2"><rect class="cls-1" x="3.04" y="1.18" width="580" height="580"/></clipPath></defs><title>iiLAB -U1-concepts-03-HIJACKED ACCOUNT</title><g class="cls-2"><g id="Layer_3" data-name="Layer 3"><g class="cls-4"><rect class="cls-5" x="-29.46" y="-37.68" width="645" height="645"/><circle class="cls-6" cx="369.01" cy="240.49" r="29.72"/><circle class="cls-6" cx="360.87" cy="305.07" r="21.93"/><path class="cls-6" d="M197.91,65.35c4.14-18.2,11.92-38.31,29.4-44.86,18.74-7,42,9.19,42,29.21,7.89-8.1,16.08-16.4,26.48-20.84s23.71-4.07,31.72,3.91,6.77,24.21-3.73,28.42a69.13,69.13,0,0,1,52.43,1.34c6.36,2.84,12.74,7.24,14.62,13.94,2,7.16-1.9,14.93-7.66,19.63s-13.07,7-20.18,9.17a84.93,84.93,0,0,1,48.89,15.83c10.41,7.48,19.62,21.38,13,32.37-2.34,3.92-6.3,6.58-10.34,8.69a67.6,67.6,0,0,1-43,6.54c4.71,7.65,9.52,15.61,10.66,24.52s-2.47,19.09-10.66,22.79c-4.61,2.08-9.93,1.84-14.91,1a66.05,66.05,0,0,1-43-27.83A53.62,53.62,0,0,1,221,208.53c-11,24.21-44,35.34-67.34,22.71-6.18-3.34-11.89-8.45-13.71-15.24s1.62-15.2,8.42-17c-11.47,2-23.1,4-34.7,3s-23.36-5.41-30.91-14.28S73,165,79.56,155.37s22.35-12.13,30.11-3.45C93,140,87.86,114.66,98.61,97.23S134.35,73,152.45,82.58C151.66,73.67,150.9,64.43,154,56s11.12-15.69,20-14.83c11.3,1.09,17.46,13.52,20.71,24.39"/><path class="cls-7" d="M412.71,406.36c3.22,0,3.22-5,0-5s-3.22,5,0,5h0Z"/><path class="cls-7" d="M235.26,189.15c-4.15-1.73-8.94.83-10.72,4.76-1.87,4.12.27,8.65,4.19,10.6a9.07,9.07,0,0,0,11.43-2.46,10.57,10.57,0,0,0,0-12.32c-1.67-2.26-5.5-.06-3.81,2.23,2.77,3.76.64,10.75-4.89,8.93-2-.65-3.79-2.51-3.13-4.73a4.3,4.3,0,0,1,5.71-2.76c2.62,1.09,3.76-3.18,1.17-4.26h0Z"/><path class="cls-7" d="M221.32,78.61a113.67,113.67,0,0,1,22.4-1c6.29,0.35,14.25.51,20,3.3,5,2.44,2.43,7.44.24,11.19a54.62,54.62,0,0,1-5.13,7.21c-3.73,4.5-7.93,8.59-11.87,12.91-15.08,16.56-22.18,38-18.78,60.24l1.54-2.71c-7.43,2.25-6.8-20-6.21-23.44a64.79,64.79,0,0,1,9.07-22.84c8.59-14,20.32-25.73,28.28-40.13A2.24,2.24,0,0,0,259,80a122,122,0,0,0-64.6,11.54l3.24,1.32c-1.51-3.93-.16-8.41,3.95-10.13,2.58-1.08,1.45-5.35-1.17-4.26-6.14,2.57-9.49,9.16-7,15.56a2.25,2.25,0,0,0,3.24,1.32A117.73,117.73,0,0,1,259,84.43l-1.91-3.32c-10,18.09-26.21,32.25-34.1,51.56-3.37,8.25-5.31,17.34-4.05,26.26,0.81,5.76,3.83,17.55,12,15.07a2.28,2.28,0,0,0,1.54-2.71,66.5,66.5,0,0,1,7.12-41.49c6.32-11.7,16.8-19.8,24.7-30.28,5.54-7.34,12-19.13-.31-23.28-13.57-4.58-29.89-3.88-43.82-1.89-2.8.4-1.61,4.65,1.17,4.26h0Z"/><path class="cls-7" d="M361.06,287.86c-7,1.14-15.17,3.41-17.21,11.19-1.61,6.15,2.94,11.25,8.78,12.36,12.84,2.44,22.1-12.53,17.64-23.72-1.18-3-6-1.66-4.82,1.33,2.69,6.73-.7,16-8.43,17.5-4.49.87-9.76-1.88-8-7s8.72-6.06,13.35-6.82c3.17-.52,1.82-5.34-1.33-4.82h0Z"/><path class="cls-7" d="M387.21,228.75c-10.47-.94-21.86.83-30.18,7.7-6.74,5.56-12.65,17.42-3.25,23.56,8.33,5.44,20.67,1.87,27.94-3.72,8.62-6.63,11.86-18.23,6.8-28-1.48-2.86-5.8-.33-4.32,2.52,4.41,8.51.23,18.11-7.51,22.92-5.34,3.33-15,6.24-20.57,1.79-7.8-6.24,4.35-16.25,9.85-18.8,6.62-3.06,14.07-3.6,21.24-3,3.2,0.29,3.18-4.71,0-5h0Z"/><path class="cls-7" d="M185.5,70c3.91-16.84,11.22-38.86,30.07-43.88,17.09-4.55,36,10.09,36.37,27.57a2.53,2.53,0,0,0,4.27,1.77C267.6,43.79,281.86,29.57,299.8,33,307.13,34.35,313.54,39,315,46.65c1.27,6.55-1,13.52-7.37,16.38-2.56,1.16-.73,5.56,1.93,4.57,17.3-6.42,38.25-6.29,54.54,3.13,8.57,5,12.8,13.57,7,22.52-5.2,8-15,10.95-23.68,13.61a2.51,2.51,0,0,0,.66,4.91,83.64,83.64,0,0,1,34.58,7.82c9.8,4.62,19.67,11.07,24.72,21,2.49,4.9,3.37,10.7.47,15.62s-8.75,7.68-13.77,9.83a65.79,65.79,0,0,1-36.74,4.25c-2-.34-4.06,1.66-2.82,3.67,4.94,8,10.56,16.87,10.51,26.65C365,211,358.52,219.33,347.7,219.11c-18.5-.38-36.48-12.37-46.74-27.2a2.54,2.54,0,0,0-4.57.6C291,210,276.31,224,258.35,228c-18.47,4.14-38.13-3.09-50.37-17.27a2.51,2.51,0,0,0-3.93.51c-7.55,16-24.34,26.08-41.89,26.7a42.53,42.53,0,0,1-24.64-6.42c-4.85-3.15-9.61-8-10.28-14-0.56-5.05,2-10.49,7-12.13a2.5,2.5,0,0,0-1.33-4.82c-21,3.65-51.06,8-65-13.06-5.49-8.34-6.89-21.07.49-28.8,6.36-6.66,18-7.86,24.61-1l3-3.93C80.7,142.35,75.8,118.93,85.94,102.49s33.35-22.38,50.43-13.75c1.54,0.78,3.94-.14,3.76-2.16C139,73.43,137.88,53.39,153.7,48.28c13.41-4.33,20.67,11.92,23.76,22,0.94,3.07,5.77,1.76,4.82-1.33-3.88-12.61-12.61-29.4-28.59-25.82C134.21,47.47,133.75,71,135.13,86.58l3.76-2.16C119.36,74.55,93.28,81.08,81.63,100s-5.59,45.12,12,58.12c2.34,1.73,4.95-2,3-3.93-7.31-7.53-19.27-7.71-27.84-2.12-10.11,6.6-12.4,20-8.6,30.86,4.22,12,14.9,19.87,26.81,23.41,15.46,4.59,31.74,1.82,47.27-.89l-1.33-4.82c-10.37,3.4-13.13,15.8-8.25,24.79,5.48,10.07,17.74,15.55,28.62,17.08,22,3.08,45.51-8.4,55.07-28.69l-3.93.51c13.41,15.55,35.1,23.08,55.23,18.56,19.65-4.41,35.64-19.92,41.53-39l-4.57.6a69.78,69.78,0,0,0,24.93,22.26c9.21,4.83,21.31,9,31.81,6.95,9.53-1.89,15.31-10.34,16.45-19.61,1.47-11.94-5-22.81-11-32.59L356,175.12a71.52,71.52,0,0,0,41.87-5.3c10.62-4.87,19.41-13.36,16.1-26-3.17-12.07-13.84-20.57-24.29-26.31a88.89,88.89,0,0,0-41.6-10.8l0.66,4.91c9.77-3,20.17-6.46,26.24-15.28,5.53-8,5.13-18.1-1.84-25.1-7.45-7.49-19.33-10.93-29.48-12.38a72.4,72.4,0,0,0-35.45,3.86l1.93,4.57c7.12-3.22,10.55-10.87,10.13-18.45A21.71,21.71,0,0,0,307,30c-21.22-9.44-40.62,7.84-54.36,21.92l4.27,1.77c-0.41-19.52-19.71-35.61-39-33.09-23,3-32.72,28.55-37.25,48.08-0.73,3.13,4.09,4.47,4.82,1.33h0Z"/><path class="cls-7" d="M328.89,396.52a27.36,27.36,0,0,0,4.53-7.82c1.48-3.69,3.12-9.78,7.67-10.94,3.84-1,6.48,3.16,9.73,4.33a13.2,13.2,0,0,0,8.46,0c14.48-4.52,14.7-21.86,25.32-30.33,2.51-2-1-5.52-3.54-3.54-5.44,4.34-8.08,10.47-11.15,16.52-3.22,6.36-10.6,16.77-19,11.75-5.14-3.07-8.71-5.89-14.45-1.91-6.44,4.46-6.33,12.74-11.11,18.35-2.07,2.44,1.45,6,3.54,3.54h0Z"/><polygon class="cls-6" points="431.26 319.36 525.85 409.62 508.56 537.65 318.07 521.01 329.1 384.19 431.26 319.36"/><polygon class="cls-6" points="495.03 530.49 321.25 504.4 333.27 389.95 515.62 409.1 495.03 530.49"/><path class="cls-7" d="M495.69,528.08L437,519.27,343.4,505.22,321.92,502l1.84,2.41,10.53-100.31L335.77,390l-2.5,2.5,61.44,6.45,98.12,10.3,22.78,2.39-2.41-3.16-18,106.15-2.59,15.24c-0.53,3.15,4.28,4.5,4.82,1.33l18-106.15L518,409.76a2.55,2.55,0,0,0-2.41-3.16l-61.44-6.45-98.12-10.3-22.78-2.39c-1.44-.15-2.37,1.28-2.5,2.5L320.24,490.26l-1.48,14.14a2.49,2.49,0,0,0,1.84,2.41l58.71,8.82,93.58,14.05,21.48,3.22C497.51,533.38,498.87,528.56,495.69,528.08Z"/><polyline class="cls-6" points="515.62 409.1 435.93 323.76 333.27 389.95"/><path class="cls-7" d="M517.39,407.33L447.7,332.71l-10-10.71a2.53,2.53,0,0,0-3-.39l-89.92,58L332,387.79c-2.7,1.74-.19,6.07,2.52,4.32l89.92-58,12.73-8.21-3-.39,69.69,74.62,10,10.71c2.2,2.36,5.73-1.18,3.54-3.54h0Z"/><path class="cls-8" d="M476.49,423.06a310.24,310.24,0,0,0-57.87,30.82c-1.3.88-2.76,1.81-4.31,1.59s-2.68-1.49-3.69-2.68a230.57,230.57,0,0,0-62.89-51.62l2.42-1.76A563.61,563.61,0,0,0,361,270.07C396,281.61,433.25,284.3,470,286.9l64.84,4.59a141,141,0,0,0-19.75,35.07"/><path class="cls-7" d="M475.82,420.65a322.24,322.24,0,0,0-35.16,16.74q-8.77,4.88-17.22,10.31c-2.66,1.71-6.94,6.22-10.27,4.22-2.11-1.27-4.21-4.83-5.86-6.64A235.12,235.12,0,0,0,349,399v4.32c2.7-2,3.45-2.63,4.13-6.11q1.78-9,3.26-18.15,2.86-17.58,4.62-35.31a570.67,570.67,0,0,0,2.48-73.68l-3.16,2.41c27.33,8.87,55.89,12.61,84.42,15,30,2.53,60.09,4.37,90.13,6.5l-2.16-3.76a148.89,148.89,0,0,0-20,35.66c-1.18,3,3.65,4.29,4.82,1.33A144.44,144.44,0,0,1,537,292.75c1.25-1.64-.49-3.64-2.16-3.76-29.42-2.08-58.87-3.92-88.26-6.34-28.74-2.37-57.45-6.05-85-15a2.52,2.52,0,0,0-3.16,2.41A571.22,571.22,0,0,1,356.55,338Q355,355,352.47,372q-1.31,8.64-2.89,17.23c-0.45,2.44-.62,5.29-1.46,7.63l0.52,0.59-1,.7a7.1,7.1,0,0,1-1.21.88,2.53,2.53,0,0,0,0,4.32c24,13.53,43.86,31,62.38,51.23,3.13,3.42,6.21,4.26,10.35,1.9,6-3.43,11.66-7.62,17.65-11.14a312,312,0,0,1,40.3-19.86c2.94-1.2,1.66-6-1.33-4.82h0Z"/><path class="cls-7" d="M399.1,440.29c-12.12,11.32-25.74,21.23-38.84,31.37C346.93,482,333.57,492.26,320,502.24c-2.57,1.89-.07,6.23,2.52,4.32,13.59-10,27-20.29,40.3-30.61s27.39-20.53,39.81-32.12c2.36-2.2-1.18-5.73-3.54-3.54h0Z"/><path class="cls-7" d="M436.31,444.77c8,15,19,28.71,28.69,42.66,5.9,8.52,11.78,17,17.39,25.76,3.66,5.68,7.85,11.59,10.23,18,1.12,3,6,1.69,4.82-1.33-2.43-6.51-6.46-12.49-10.18-18.3-5.55-8.67-11.39-17.15-17.25-25.62-9.88-14.28-21.19-28.3-29.38-43.66-1.52-2.84-5.83-.32-4.32,2.52h0Z"/><path class="cls-7" d="M375.5,304c19.41,4.35,39.44,6.44,59.18,8.66,21.38,2.39,42.83,4.53,64.32,5.62,3.22,0.16,3.21-4.84,0-5-21-1.07-42-3.14-62.92-5.47-19.77-2.2-39.81-4.28-59.25-8.63-3.13-.7-4.47,4.12-1.33,4.82h0Z"/><path class="cls-7" d="M385.13,324.08c14.92,4.55,30.53,4.73,45.69,8,6.27,1.37,12.29,3,18.61,4.12,7.63,1.36,15.26,2.69,22.92,3.9,2.93,0.46,5.87.93,8.82,1.29,1.27,0.15,3.47.72,4.64-.14,2.57-1.89.07-6.23-2.52-4.32,1.15-.85.68-0.13-0.62-0.37-1-.18-2-0.24-3-0.38-3.22-.45-6.43-1-9.65-1.5q-10.85-1.78-21.68-3.75c-6.41-1.16-12.58-3-19-4.26-14.29-2.75-28.89-3.18-42.89-7.45-3.08-.94-4.4,3.88-1.33,4.82h0Z"/><path class="cls-7" d="M376.38,344.63l81.79,16.82c3.14,0.65,4.48-4.17,1.33-4.82l-81.79-16.82c-3.14-.65-4.48,4.17-1.33,4.82h0Z"/><path class="cls-7" d="M374.7,365.22c30.19,5.46,60.87,7.84,91.06,13.3,3.15,0.57,4.5-4.25,1.33-4.82-30.19-5.46-60.87-7.84-91.06-13.3-3.15-.57-4.5,4.25-1.33,4.82h0Z"/><path class="cls-7" d="M379.68,388c12.68,1.64,25.41,2.85,38.1,4.47,7.81,1,15.63,2.06,23.39,3.42,4.83,0.85,10.48,1.41,14.93,3.62,2.87,1.43,5.41-2.89,2.52-4.32-4.5-2.23-9.82-3-14.71-3.88-7.9-1.43-15.86-2.52-23.82-3.55-13.45-1.75-27-3-40.41-4.77-3.18-.41-3.15,4.59,0,5h0Z"/><path class="cls-7" d="M373.32,406c28.1,8.4,57.81,9.9,86.36,16.29,3.13,0.7,4.47-4.12,1.33-4.82-28.55-6.39-58.27-7.88-86.36-16.29-3.09-.92-4.41,3.9-1.33,4.82h0Z"/><path class="cls-9" d="M513.9,311.63c-1.74-3.86-5.5-4.46-8.36-1.34L429,393.79c-2.86,3.12-1.77,6.16,2.42,6.76l123.26,17.54c4.19,0.6,6.19-2.07,4.46-5.93Z"/><path class="cls-7" d="M510,322.2c-6.19-9.71-14.62,3.73-18.75,8.44l-28.11,32.08c-6.62,7.56-13.47,15-19.89,22.7-3.27,3.93-3.18,8.53,2.35,10.07,2,0.55,4.13.74,6.15,1.11l77.87,14,12.84,2.31c2.81,0.51,6.28,1.5,8.38-1.06s0.23-6-1.07-8.6L544,391.34,510,322.2c-1.26-2.57-5.1-.32-3.84,2.25l26.14,53.29L545.7,405c0.73,1.48,2.38,3.39.23,4.06-1.66.51-5.63-1-7.29-1.31l-72.43-13L453,392.31c-1.47-.27-4.84-0.21-6.1-1.1-2.53-1.77.88-4.14,2.05-5.48L458,375.36l28.8-32.87,11.72-13.37c0.81-.92,5.51-8.07,7.68-4.68C507.73,326.85,511.59,324.62,510,322.2Z"/><path class="cls-7" d="M498.26,344.54L494.44,371c-0.4,2.8,3.88,4,4.29,1.18l3.82-26.45c0.4-2.8-3.88-4-4.29-1.18h0Z"/><path class="cls-7" d="M499.3,387.32a4.93,4.93,0,1,0-.08.59,2.28,2.28,0,0,0-1.55-2.74,2.25,2.25,0,0,0-2.74,1.55c-0.08.42-.21,0.81-0.66,0.71a0.51,0.51,0,0,1-.42-0.6,0.5,0.5,0,0,1,.6-0.42c0.46,0.09.43,0.46,0.39,0.9a2.24,2.24,0,0,0,2.22,2.22A2.27,2.27,0,0,0,499.3,387.32Z"/><g class="cls-10"><path class="cls-11" d="M56.83,345.78c-1.86-7.16.49-15.46,6.36-20s15.09-4.35,20.3.9c-5.77-5.21,7.54-16.1,9.38-23.65-9.21-3.43-19.58-10.22-18.59-20,1.09-10.75,14.61-14.77,25.41-15.11,19.29-.6,41.78,4.42,50,21.87-2.39-4.17-.4-9.76,3.26-12.87s8.56-4.27,13.28-5.13c12.79-2.32,26.23-3,38.58,1,12.11,4,23,13.25,26.43,25.5-1.83-7.32,7-13.36,14.57-15.22,18.45-4.52,47-3.31,58.28,14.37,4.09,6.39,5.24,14.63,9.54,21.39,5.82,9.15,15,14.73,2,23.7a59.94,59.94,0,0,1-24.22,9.72c4.2,6.35,14.64,6.82,17.65,13.81,2.7,6.25-2.57,13.06-8.16,16.94a53.47,53.47,0,0,1-28,9.41c5.41,3.12,12.92,3.1,16.53,8.2,3.75,5.31.43,13.22-5.12,16.62s-12.42,3.51-18.92,3.54l-16.09.05a112.23,112.23,0,0,0,.11-27.09c-1.39-12.44-5.49-32.45-10.23-44C228.32,359,211.9,360,197.17,360.22c-7.69.12-17.92-1.9-18.48-9.58a46.74,46.74,0,0,1-33.34,20.79,45.71,45.71,0,0,1-15.77-.94l0.7-1.92c-10.53,28.61-12.79,42.13-5.89,68.48L116,438.15c-29.09-7.59-42.34-35.7-34.71-54.45a12.57,12.57,0,0,1-18.61-15.9,7.24,7.24,0,0,1,6.13,3.31,6.62,6.62,0,0,1,1.88-9.49C64.09,358.56,58.65,352.79,56.83,345.78Z"/></g><path class="cls-7" d="M210.6,357.94a37,37,0,0,1,24,12.26c2.16,2.39,5.69-1.15,3.54-3.54a42.15,42.15,0,0,0-27.5-13.73c-3.2-.32-3.18,4.68,0,5h0Z"/><path class="cls-7" d="M232.34,380.29a8.89,8.89,0,0,0-11,6c-1.19,4.38,2.11,8.44,6.36,9.22s8.71-2.12,8.42-6.8c-0.27-4.44-4.34-8.22-8.84-7.12-3.12.76-1.8,5.58,1.33,4.82,2.61-.64,3.91,5.39-0.36,4.1-4.45-1.35-.83-6.58,2.78-5.37,3.06,1,4.37-3.8,1.33-4.82h0Z"/><path class="cls-7" d="M177,383.14c-3.82-1.3-8.41-2.55-12.15-.31-2.9,1.73-4.83,5.48-3.66,8.79s4.9,4.62,8.15,3.84c3.89-.95,6.07-4.45,7.79-7.77,1.48-2.85-2.84-5.39-4.32-2.52-0.87,1.68-1.79,3.8-3.42,4.88-1,.63-3.08,1.24-3.53-0.26s1.64-2.9,2.86-3.13c2.32-.43,4.79.56,6.95,1.29,3.05,1,4.36-3.79,1.33-4.82h0Z"/><path class="cls-7" d="M150.26,375.74c8.3-16.16,32.23-14.89,37.63,3,2.78,9.19-2.16,18.19-6.68,25.89-5.07,8.63-10.26,17.18-15.4,25.76a2.53,2.53,0,0,0,1.49,3.67,81.45,81.45,0,0,0,39,1.46c3.15-.64,1.82-5.46-1.33-4.82a75.89,75.89,0,0,1-36.38-1.46l1.49,3.67c6.7-11.21,14.5-22.31,19.93-34.2,4.18-9.17,5.28-19.31-.5-28.06-10.69-16.18-34.8-14.56-43.61,2.61-1.47,2.86,2.85,5.39,4.32,2.52h0Z"/><path class="cls-7" d="M131.85,388c-3.73-9.08-16.91-13.64-21-2.13a24.51,24.51,0,0,0-.81,10.79c0.36,3.33.45,7.69,3.22,10,2.53,2.07,5.93,3.31,8.94,4.48,2.26,0.87,5.43,2.34,7.9,1.58,3.07-.94,1.76-5.77-1.33-4.82-0.85.26-3.39-.9-4.42-1.27a40.36,40.36,0,0,1-6.81-3.12c-3.58-2.13-3.28-11.08-2.28-14.91,1.88-7.23,9.43-4.91,11.77.79,1.21,2.94,6,1.65,4.82-1.33h0Z"/><path class="cls-7" d="M131.13,415.5a49.28,49.28,0,0,0-30,7.42c-7.64,4.87-15.44,12.66-15,22.43,0.39,8.48,7,15.59,14.41,18.9,10.91,4.86,23.34,1.84,34.28-1.26,3.09-.87,1.78-5.7-1.33-4.82-9.06,2.56-19.38,5.45-28.7,2.39-7-2.29-14-8.64-13.68-16.56,0.37-8.38,8.52-14.7,15.26-18.37a44.67,44.67,0,0,1,24.75-5.13c3.21,0.23,3.2-4.77,0-5h0Z"/><path class="cls-7" d="M76.82,353.46c-8.61-4.1-15.57-12.83-13.19-22.85s14.29-15.8,22.57-8.32c2.38,2.15,5.77-1.2,3.54-3.54-3.61-3.78-1.21-13.49-.45-17.93,1-5.83,2.42-11.56,3.83-17.3L89.43,285l0.07,0.05-1.15-2.82c0.18-1.14-.32,0-1.12.8s-1.9,1.75-2.82,2.65a27.89,27.89,0,0,0-5.32,6.5c-2.88,5.45.5,9.32,6,10.45,3.14,0.65,4.48-4.17,1.33-4.82-2.44-.5-3.83-0.63-3-3.1,0.62-1.85,2.64-3.58,4-4.93,1.51-1.53,5.42-3.89,5.79-6.22A2.68,2.68,0,0,0,92,280.75L92,280.7c-1.28-1-3.32.07-3.67,1.49A203.14,203.14,0,0,0,83.76,304c-0.74,5.64-1.93,13.7,2.43,18.26l3.54-3.54c-9.79-8.85-25-4.66-29.85,7.28-5.29,12.88,2.61,26.11,14.42,31.74,2.89,1.38,5.43-2.93,2.52-4.32h0Z"/><path class="cls-7" d="M121.11,429.55c-21.18-5.82-41.93-28.13-33-51.38,0.79-2-1.93-3.94-3.67-2.82-8.6,5.53-19.55-2.56-15.19-12.48l-2.16,1.24a5.29,5.29,0,0,1,4.36,2.57c1.77,2.22,5.46-.67,3.93-3-1.43-2.2-1.13-4.71,1.18-6.19,2.7-1.73.2-6.06-2.52-4.32a9.25,9.25,0,0,0-3,13l3.93-3a10.41,10.41,0,0,0-7.9-4A2.41,2.41,0,0,0,65,360.34c-6.17,14,8.74,27.87,22,19.32l-3.67-2.82c-9.94,25.79,12.86,51,36.46,57.53,3.11,0.85,4.43-4,1.33-4.82h0Z"/><path class="cls-7" d="M251.24,417.2c8.89,0,18,.52,26.85-0.37,6.59-.66,13.28-2.81,17.13-8.56,3.05-4.56,4-10.62.67-15.3-4-5.64-11.57-5.89-17.23-8.85l-1.26,4.66c13.22-.77,31.14-6.1,37.68-18.88,2.5-4.88,2.22-10.56-1.68-14.61-4.35-4.53-11.54-5.35-15.33-10.43l-1.49,3.67a64,64,0,0,0,21.11-7.63c4.61-2.69,10.67-6.45,11.48-12.27,0.64-4.58-2.42-8.46-5-11.88-4.64-6.11-7.1-12.39-9.91-19.49-8.94-22.59-34.73-27.21-56.49-24.25-10.23,1.39-27.79,6.77-24.2,20.52l4.82-1.33c-5.51-19.79-25.33-29.8-44.64-30.85-10.43-.57-23.25.21-32.92,4.48-7.46,3.29-12.48,11.13-8.78,19.06l4.32-2.52C146.12,261.93,117.78,256.5,97.06,260c-9.12,1.53-20,6.41-20.82,16.9-1,11.75,11,18.77,20.43,22.41,3,1.16,4.3-3.67,1.33-4.82-7.74-3-20.92-10.52-15.77-20.82,3.91-7.81,15.58-9.27,23.27-9.41,17.25-.31,38.08,3.78,46.53,20.66,1.45,2.9,5.66.36,4.32-2.52-4.63-9.93,10.23-13.53,16.8-14.64,8.84-1.49,18-2.15,26.94-.74,14.89,2.36,29.24,11.38,33.46,26.53,0.86,3.1,5.64,1.79,4.82-1.33-2-7.58,7.89-11.76,13.71-13.11a75.89,75.89,0,0,1,16.44-1.88c11.28-.11,23.91,1.93,32.75,9.49,5.46,4.66,7.74,10.86,10.19,17.41a62.93,62.93,0,0,0,9.13,16.15c1.3,1.74,3.06,3.74,3.52,5.93,0.88,4.21-3.71,7.06-6.69,9a59,59,0,0,1-22.16,8.5,2.51,2.51,0,0,0-1.49,3.67c2.55,3.42,5.87,5.35,9.61,7.28,5,2.6,10.34,5.82,7.53,12.36-4.93,11.46-22.32,16.11-33.49,16.76-2.33.14-3.59,3.44-1.26,4.66,4,2.1,8.71,2.68,12.62,4.89,6.32,3.58,4.72,11.12-.42,15-4.93,3.73-11.73,3.74-17.64,3.78-6.49.05-13,0-19.47,0.07-3.22,0-3.22,5,0,5h0Z"/><path class="cls-7" d="M111.55,348.37a49.24,49.24,0,0,0,74.52-8.79l-4.57-.6c2.19,15.67,28.87,11.67,39.24,10.24,8.42-1.16,16.92-3.49,23.79-8.7,4.25-3.22,11.62-10.75,5-15.39a2.47,2.47,0,0,0-2.52,0c-6.9,4-7.54,13.19-3.64,19.64,5.14,8.51,16.39,9.75,25.34,10.46,3.21,0.25,3.19-4.75,0-5-6.44-.5-14.21-1.05-19.18-5.74-4-3.81-5.5-11.84,0-15H247c3.14,2.19-11.9,10.92-13.53,11.55a64.56,64.56,0,0,1-17.81,3.79c-7.42.66-27.8,3.78-29.33-7.15-0.32-2.32-3.51-2.18-4.57-.6a44.14,44.14,0,0,1-66.66,7.77c-2.36-2.18-5.9,1.34-3.54,3.54h0Z"/><path class="cls-7" d="M137,359.8c-14.17,27.88-16.26,61.47-4.49,90.59a110.7,110.7,0,0,0,57.27,59.22,2.53,2.53,0,0,0,2.52,0c22.85-16.88,47.33-35.19,59.13-61.94,13.18-29.88,6.86-65.06-7-93.52l-2.16,3.76c9.8-.65,18.33,10.38,14.19,19.68-1.3,2.91,3,5.46,4.32,2.52,5.56-12.48-4.54-28.13-18.51-27.2a2.54,2.54,0,0,0-2.16,3.76c13.49,27.67,19.65,62.56,5.72,91.27-11.89,24.52-34.66,41.54-56,57.34h2.52c-24.61-10.95-44.8-31.19-55-56.23-11.31-27.86-9.6-60,4-86.74,1.45-2.86-2.86-5.4-4.32-2.52h0Z"/><path class="cls-7" d="M202.2,466.8c-0.42-7.78-6.23-14.35-14.35-14.35a14.34,14.34,0,0,0-.65,28.66c8.37,0.37,14.57-6.26,15-14.31,0.16-3-4.51-3-4.67,0-0.67,12.39-19.35,12.5-19.35,0s18.68-12.4,19.35,0C197.69,469.79,202.37,469.81,202.2,466.8Z"/></g></g></g></svg>