<?xml version="1.0" encoding="UTF-8"?>
<svg xmlns="http://www.w3.org/2000/svg" xmlns:xlink="http://www.w3.org/1999/xlink" viewBox="0 0 580 580">
  <defs>
    <style>.cls-1{fill:none;}.cls-2{isolation:isolate;}.cls-3{clip-path:url(#clip-path);}.cls-4{fill:#231f20;}.cls-5{fill:#feeb8d;}.cls-10,.cls-11,.cls-6{mix-blend-mode:multiply;}.cls-6{fill:url(#linear-gradient);}.cls-7{fill:#939598;}.cls-8{fill:#004f7f;}.cls-9{fill:#fff;}.cls-10{fill:#e6e7e8;}.cls-12{fill:#a7a9ac;}</style>
    <clipPath id="clip-path">
      <rect class="cls-1" y="1" width="580" height="580"/>
    </clipPath>
    <linearGradient id="linear-gradient" x1="489.67" y1="421.63" x2="925.5" y2="421.63" gradientTransform="translate(-8.77 1155.31) rotate(-90)" gradientUnits="userSpaceOnUse">
      <stop offset="0" stop-color="#fff"/>
      <stop offset="0.6" stop-color="#9acd72"/>
    </linearGradient>
  </defs>
  <title>iiLAB -U1-concepts-03-HIJACKED ACCOUNT</title>
  <g class="cls-2">
    <g id="Layer_3" data-name="Layer 3">
      <g class="cls-3">
        <path class="cls-4" d="M571.89,155.88c3.22,0,3.22-5,0-5s-3.22,5,0,5h0Z"/>
        <circle class="cls-6" cx="412.87" cy="447.72" r="217.92" transform="translate(-194.94 409.13) rotate(-43.69)"/>
        <path class="cls-7" d="M421.54,221.1c10.46-11,23.29-20.88,38.58-23.59,13.8-2.45,28.64,1.65,37.53,12.82,1.25,1.57,3.65.5,4.18-1.1,4.32-13.27,10.42-31.05,22.71-39.17,14.09-9.31,26.94,4.33,35.29,14.65a2.51,2.51,0,0,0,3.93-.51c5.68-11.85,14.68-28.86,30.66-25.08,3.13,0.74,4.46-4.08,1.33-4.82-18.53-4.38-29.49,13.18-36.31,27.38l3.93-.51c-9.36-11.57-23.05-24.74-39-16.81C509.14,172,501.9,192.86,497,207.9l4.18-1.1c-9.34-11.73-25-16.43-39.55-14.54-17.27,2.24-31.91,13-43.63,25.31-2.22,2.33,1.31,5.87,3.54,3.54h0Z"/>
        <path class="cls-8" d="M202.37,391.73c-6-9.63-11.06-21.13-11.66-32.63-0.29-5.61.95-11.6,5.43-15.37,4.31-3.62,11.85-3.45,14.09,2.53l4.18-2.43c-5.85-6.66-4.28-18.72,3.76-23,8.62-4.64,19.59,1.81,21.45,10.88l4.82-1.33c-4.23-13.3,4.85-26.5,18.92-26.91,3.21-.09,3.22-5.1,0-5a25.36,25.36,0,0,0-23.74,33.24,2.5,2.5,0,0,0,4.82-1.33c-2.51-12.23-17.54-20.11-28.8-13.87-10.92,6.05-12.74,21.83-4.77,30.89,1.6,1.82,5.05-.1,4.18-2.43-5-13.4-21.89-9.5-27.12,1.53-7,14.83,2.18,35.11,10.12,47.79,1.7,2.72,6,.22,4.32-2.52h0Z"/>
        <path class="cls-8" d="M119,445A21.94,21.94,0,0,0,96.5,428.09c-5,.32-7.72,2.08-8.22,7.34a13.06,13.06,0,0,0,5.68,12l2.52-4.32c-6.9-4.26-16.93-9.59-24.35-3.39-4.7,3.93-6.6,11.28-1.74,15.81l1.77-4.27c-9.29.43-17.64,6.95-18.74,16.5a19.54,19.54,0,0,0,3.52,13.67c2.9,4,7.39,6.15,10.79,9.61,5.49,5.59.06,11.67-1.31,17.91-1,4.67-1,9.65,1.3,14,3.8,7.26,13.78,10,20,4.3,2.4-2.17-1.14-5.67-3.54-3.54-5.75,5.11-3.09,14.26,3.65,17,9.4,3.81,17.67-3.76,23.48-10.16,2.16-2.38-1.37-5.92-3.54-3.54-3.34,3.67-6.94,7.91-11.94,9.24-3,.79-6.86.61-8.84-2.17a5,5,0,0,1,.72-6.82l-3.54-3.54c-3.67,3.31-9.44,1.27-11.83-2.6s-1.83-9-.55-13.09c2-6.4,5.85-11.77,1.43-18.15-3.68-5.3-10.65-7.47-13.55-13.41-4.59-9.39,2.28-19.71,12.43-20.17,2.06-.1,3.43-2.72,1.77-4.27-3.35-3.12-.07-8.47,3.59-9.66,5.67-1.85,11.83,2.23,16.44,5.09,2.79,1.72,5.08-2.47,2.52-4.32-2.11-1.52-4.77-6.15-2.93-8.82,1.53-2.22,6.3-1.3,8.55-.67a16.73,16.73,0,0,1,12,12.65c0.67,3.15,5.49,1.81,4.82-1.33h0Z"/>
        <path class="cls-9" d="M129.3,506c28.24,34.86,79.41,49,121.55,33.65,4.66-1.7,9.29-3.74,14.23-4.15,5.62-.47,11.17,1.2,16.56,2.85l34.23,10.47c4.23,1.29,8.73,2.59,13,1.44s7.9-5.81,6.28-9.92c-1.48-3.76-6.11-5-10.09-5.64l-33.26-5.75c-3-.52-6.43-1.35-7.76-4.09-1.14-2.35-.23-5.12.57-7.6A77.06,77.06,0,0,0,230.42,419a456.65,456.65,0,0,1-77.28,84.11c-4.1,3.47-8.55,7.35-9.34,12.66"/>
        <path class="cls-8" d="M148.27,531.21a437.07,437.07,0,0,0,91-90.5c1.93-2.58-2.41-5.08-4.32-2.52a429.12,429.12,0,0,1-89.22,88.71c-2.56,1.89-.07,6.23,2.52,4.32h0Z"/>
        <path class="cls-8" d="M130.53,503.74c16.23,19.73,39.42,33.06,64.39,38.16a114.24,114.24,0,0,0,38.3,1.35A103.23,103.23,0,0,0,251.79,539c8.18-2.72,15.13-6.15,24-4.47,8.55,1.62,17,4.9,25.31,7.44,7.78,2.38,15.86,5.75,23.93,6.92,5.44,0.79,11.16-.36,14.35-5.24a8.89,8.89,0,0,0-2.1-12.28c-5.35-4.05-13.95-4-20.29-5.14L304.28,524c-3.74-.65-8.91-0.67-12.36-2.42-4.92-2.5-1.49-8.63-.53-12.48a80.19,80.19,0,0,0,1.84-10.41,81.42,81.42,0,0,0-.59-22.07c-5-30.89-28.49-56-58.55-64a2.59,2.59,0,0,0-2.82,1.15A458,458,0,0,1,187,466.85q-11.53,11.88-23.9,22.9c-6.77,6-16.72,11.91-18.77,21.39-0.68,3.14,4.14,4.48,4.82,1.33,1.1-5.1,4.91-8.31,8.7-11.56,4.31-3.69,8.58-7.4,12.77-11.22q12.23-11.15,23.63-23.18a467.25,467.25,0,0,0,41.27-50.22l-2.82,1.15c26.17,7,47.18,27.65,53.74,54.06,3.41,13.72,2.63,27.57-1.28,41.06-1.3,4.48-2.11,9.21,2.17,12.34,5.27,3.86,14.27,3.72,20.46,4.79,7,1.2,14,2.13,20.91,3.63,3.81,0.83,10.12,3.4,5.89,8.33-3.39,3.95-9.22,2.4-13.49,1.2-14.9-4.19-29.7-10.61-44.95-13.35-12.94-2.32-24.5,5.07-36.87,7.65a106.36,106.36,0,0,1-35.18,1.24c-27.15-3.49-52.65-17-70.07-38.19-2-2.49-5.56,1.07-3.54,3.54h0Z"/>
        <path class="cls-9" d="M190.07,375.94c-4.26-33-36.17-60.07-69.45-58.85-3.88.14-7.9,0.67-11.15,2.79-8.26,5.39-7.6,17.48-6,27.2,7.21,43.28,14.47,86.78,28.45,128.38A99.15,99.15,0,0,1,144.27,437a242.56,242.56,0,0,0,18,35.54,58.89,58.89,0,0,0,0-30.15,101.09,101.09,0,0,0,25.57,27.68l-4.05-35.83,23.74,30.27A106.41,106.41,0,0,0,197,428.13a201.18,201.18,0,0,0,28.74,32.79q-18.37-42.23-38.93-83.46"/>
        <path class="cls-8" d="M110.84,74.55l-7.31-3.67c-1.53-.77-4,0.13-3.76,2.16,7.33,77.37,14.38,154.77,22,232.12,0.7,7.12,1.57,15.3,7.23,20.39,4.56,4.1,11.59,5.45,16.7,1.64,2.55-1.9.06-6.24-2.52-4.32-7.56,5.64-14-3.77-15.41-10.35-1.77-8.17-1.9-16.9-2.69-25.22l-4.88-51.58L110.3,131.56,104.76,73,101,75.2l7.31,3.67c2.87,1.44,5.4-2.87,2.52-4.32h0Z"/>
        <path class="cls-8" d="M99.91,366.93l41-14,20.48-7c5.79-2,14.06-6.41,20.05-3.28l-1.24-2.16c-0.44,6.53-10.85,9-15.69,10.94q-9.87,3.94-19.84,7.62-19.94,7.36-40.24,13.67l3.16,2.41,0-4.65c0-3.22-5-3.22-5,0l0,4.65a2.52,2.52,0,0,0,3.16,2.41q24.9-7.76,49.29-17.07c7-2.68,14.28-5.15,21-8.48,4.83-2.39,8.77-5.88,9.14-11.51a2.45,2.45,0,0,0-1.24-2.16c-5.16-2.7-10.4-1.74-15.74,0-7.72,2.51-15.38,5.24-23.06,7.87L98.58,362.11c-3,1-1.73,5.87,1.33,4.82h0Z"/>
        <path class="cls-8" d="M195.48,371.27C191,339.62,163,313.72,131.32,310.81c-7.54-.69-16.86-0.74-22.65,4.93-5.35,5.25-6,13.38-5.54,20.45,0.71,9.78,2.94,19.55,4.59,29.2,1.88,11,3.83,21.95,6,32.88,4.88,25,10.79,49.71,18.84,73.85,0.93,2.8,4.6,2.09,4.91-.66a99.56,99.56,0,0,1,12-37.15l-4.57-.6a257.67,257.67,0,0,0,18.28,36.14,2.53,2.53,0,0,0,4.57-.6,64.31,64.31,0,0,0,0-31.48l-4.57,1.93a108.25,108.25,0,0,0,26.47,28.58,2.51,2.51,0,0,0,3.76-2.16l-4.05-35.83L185,432.05l23.74,30.27c1.29,1.65,4.5.31,4.27-1.77a114.47,114.47,0,0,0-10.83-37.69l-4.32,2.52A212.07,212.07,0,0,0,227,458.68c2.2,2,5-.5,3.93-3q-18.4-42.22-38.93-83.46c-1.43-2.88-5.75-.35-4.32,2.52q20.53,41.23,38.93,83.46l3.93-3a205.93,205.93,0,0,1-28.35-32.28,2.5,2.5,0,0,0-4.32,2.52A107.28,107.28,0,0,1,208,460.56l4.27-1.77-23.74-30.27c-1.29-1.65-4.5-.31-4.27,1.77l4.05,35.83,3.76-2.16a101.53,101.53,0,0,1-24.67-26.78,2.51,2.51,0,0,0-4.57,1.93,58.58,58.58,0,0,1,0,28.82l4.57-.6a249.64,249.64,0,0,1-17.78-34.94c-0.76-1.85-3.43-2.66-4.57-.6a105.93,105.93,0,0,0-12.66,39.67l4.91-.66c-12.29-36.86-19.47-75.08-25.93-113.32C110,348.9,107.74,340,108,331.28c0.12-3.6.73-7.62,3-10.58,3.31-4.41,8.92-5.07,14.06-5.14,14.76-.2,29.32,5.4,40.81,14.55a66.48,66.48,0,0,1,24.83,42.5c0.45,3.17,5.27,1.82,4.82-1.33h0Z"/>
        <path class="cls-8" d="M114.05,69.79q13.63,102.63,23.42,205.72c0.89,9.38,1.84,18.75,2.59,28.14,0.65,8.14,1,17.29-4.77,23.78-2.13,2.4,1.39,5.95,3.54,3.54,9.6-10.79,6.32-26.6,5.11-39.68q-2.45-26.64-5.16-53.25-5.47-53.72-12-107.32-3.71-30.49-7.76-60.93c-0.42-3.14-5.42-3.18-5,0h0Z"/>
        <path class="cls-10" d="M387.26,261.41l129.47,5.08a2.31,2.31,0,0,1,2.13,2.93l-25,89.61a2.31,2.31,0,0,1-3,1.57L466,352.32a2.31,2.31,0,0,1-1-.63l-79.61-86.41A2.31,2.31,0,0,1,387.26,261.41Z"/>
        <g class="cls-11">
          <path class="cls-12" d="M334.33,275c-17.32,14.09-27.41,19.36-43.74,32.25a2.31,2.31,0,0,0,.9,4.06c65.23,15.52,128.12,38.37,194.64,48.5,2.45,0.37,5.21,0,7-1.68,1.46-1.34,2-3.4,2.43-5.33,7.24-31.26,6.46-53.82,13.69-85.08h0c-49.52-3-49.06-5.72-98.57-8.69"/>
        </g>
        <path class="cls-8" d="M411.3,502.87l0.18,0.08Z"/>
        <path class="cls-8" d="M411.54,501.33h0l0,0Z"/>
        <path class="cls-8" d="M411.47,501.35l-0.24.07A0.57,0.57,0,0,0,411.47,501.35Z"/>
        <path class="cls-8" d="M412.76,503.64a1.54,1.54,0,0,0,.23.2Z"/>
        <path class="cls-8" d="M413.83,503.73l0.13,0Z"/>
        <path class="cls-8" d="M410.57,502.7l0-.09Z"/>
        <path class="cls-8" d="M410.62,503.1s0,0,0,0v0.05C410.63,503.22,410.63,503.14,410.62,503.1Z"/>
        <path class="cls-8" d="M410.71,503.41v0S410.72,503.43,410.71,503.41Z"/>
        <path class="cls-8" d="M409.58,506.24l-0.07.24A2.25,2.25,0,0,0,409.58,506.24Z"/>
        <path class="cls-8" d="M410.49,502.41l0.06,0.21Z"/>
        <path class="cls-8" d="M411.19,502.84l0.11,0Z"/>
        <path class="cls-8" d="M412.64,503.77h0S412.64,503.75,412.64,503.77Z"/>
        <path class="cls-8" d="M411.11,500.62l-0.11,0C411,500.68,411,500.66,411.11,500.62Z"/>
        <path class="cls-8" d="M410.92,503.14a6.52,6.52,0,0,1,.32.68c0-.16-0.09-0.27.11,0.06a3.79,3.79,0,0,0,.19.55l-0.06-.24c0.18,0.25.37,0.7,0.38,0.64-0.38-.76.36,0.17,0.37,0l0,0.08,0.34,0.24,0,0-0.09-.13c0.29,0.3.58,0.45,0.62,0.29-0.28-.37.19-0.41-0.09-0.72,0.06,0.11,0,.16-0.1.12l-0.42-.4c0.07-.06.4,0.35,0.2,0.05-0.6-.51-0.08.09-0.19,0.09a2.4,2.4,0,0,1-.24-0.36c-0.09.08-.35-0.09,0.1,0.57a1.86,1.86,0,0,1-.36-0.45c0.23,0.41-.32-0.31-0.11.05a4.22,4.22,0,0,1-.37-0.73c0.46,0.38.13-.1,0.08-0.2,0.43,0.32.73,0.68,1,.84s-0.14-.28-0.36-0.49a2.39,2.39,0,0,0,.85.38l0.24,0.28c0.7,0.31-.2-0.25,0-0.23-0.18-.08-0.35-0.17-0.37-0.1a0.82,0.82,0,0,1-.33-0.28h0c-0.3-.21-0.65-0.41-0.46-0.37a0.88,0.88,0,0,0,.53.18l0.08,0.06a1.23,1.23,0,0,1-.09-0.21l0.1,0a2.6,2.6,0,0,1-.55-0.31,2.39,2.39,0,0,0,.7.24c0.32,0.11.32,0.22,0.18,0.25a0.91,0.91,0,0,1,.66.25c0.41,0.12-.13-0.17.07-0.16-0.13,0-.26-0.1-0.39-0.14,0.55,0.18.11-.2-0.28-0.29l0.28,0.18c-0.45-.13-0.71-0.3-1-0.34,0.72,0.14-.3-0.24.3-0.16l-0.37,0c0.23-.12-0.59-0.28-0.77-0.32,0.24,0,1,0,.75.09a5.54,5.54,0,0,1,1.2-.09c0.29-.16-0.75,0-1-0.07l0.15,0.07c-0.47,0-.43-0.08-0.34-0.16s0.21-.18-0.08-0.19a0.24,0.24,0,0,1,.23,0c0.46-.16-0.1,0-0.29,0a1.19,1.19,0,0,1,.82-0.32,1.32,1.32,0,0,0-.53.09l0.12,0L412,502a4.25,4.25,0,0,1,1-.43,9.48,9.48,0,0,0-1.52.25,2.16,2.16,0,0,1,.65-0.17l-0.09-.08a8.74,8.74,0,0,0,1.07-.2,1.88,1.88,0,0,1-.76,0l-0.06,0c-0.51.11-.2-0.11-0.32-0.14a0.87,0.87,0,0,1,.49,0c0.22-.15-0.09-0.27-0.74-0.09a1.2,1.2,0,0,1,.59-0.3c0-.19-0.92.29-0.78,0.1l0.48-.19c0.62-.42-0.72,0-0.16-0.39l-0.57.26c0.23-.14.31-0.24,0.53-0.36l0.22,0c0.45-.28-0.48.15-0.18-0.07-0.17.08-.53,0.32-0.72,0.41,0.45,0.1-.28.69,0.4,0.71a1.32,1.32,0,0,1,.26-0.11,0.4,0.4,0,0,1-.28.18h0a1.88,1.88,0,0,1-.53.36c0.41-.11-0.13.19,0.56-0.06l-0.43.18c0.26-.06.6-0.18,0.74-0.19a1,1,0,0,1-.51.16,0.28,0.28,0,0,0-.1.3,0.66,0.66,0,0,0,.28.27l-0.35,0c-0.14.11,0.6,0-.25,0.13a1.53,1.53,0,0,0,.66,0c-0.86.1-.38,0.07-0.26,0.14a0.84,0.84,0,0,1,.57.15c-0.59-.1-0.61-0.15-1-0.19,0.47,0.07.3,0.09,0.2,0.06s-0.11,0,.62.25l-0.17-.06a2.38,2.38,0,0,1-.31-0.1,2.94,2.94,0,0,1,.45.2,6.63,6.63,0,0,1-.63-0.27,8.19,8.19,0,0,1,.92.63,3.71,3.71,0,0,1-.54-0.34c0.35,0.34-.11,0,0.08.24a1.61,1.61,0,0,1-.27-0.3c-0.34-.27-0.31-0.25-0.25-0.17s0.13,0.19,0,0l0.34,0.44a2,2,0,0,1-.41-0.49c-0.22-.26,0,0-0.05,0l-0.07-.13h0l0.34,0.71C410.88,503.14,410.79,503,410.92,503.14Z"/>
        <path class="cls-8" d="M411,503.44l0,0.06h0Z"/>
        <path class="cls-8" d="M413.58,504.21l-0.23-.07A0.79,0.79,0,0,0,413.58,504.21Z"/>
        <path class="cls-8" d="M410.22,504.55c-0.08.85,0.1-.13,0.13,0.11a3.46,3.46,0,0,0-.1.87c0.15-1.09.1,0.23,0.31,0,0,0.36-.08.42-0.1,0.82a1.62,1.62,0,0,0,.26-1.05,0.55,0.55,0,0,0,.39.05,11.15,11.15,0,0,0,.1,1.15,7.58,7.58,0,0,0-.12-2.5c0.25,0.63.29,0.69,0.49,1.27,0.36,0.34-.18-0.6.05-0.48l-0.12-.08a6.07,6.07,0,0,0-.47-1.2l-0.05.12a1.67,1.67,0,0,1-.14-0.49c-0.23-.51-0.19-0.36-0.36-0.76a1.81,1.81,0,0,1,.14.38l-0.09-.23c-0.09-.25.11,0.36,0.08,0.35l0-.16a5.09,5.09,0,0,1,.15.71v0A10.6,10.6,0,0,0,411,505s-0.22-.14-0.22-0.15c-0.05-.65-0.17-1.64-0.16-1.72l0-.27a3.92,3.92,0,0,0,.1,1.07c0.07,0.78,0,.8-0.08.7s-0.13-.3-0.21,0c0-.43.08-0.59,0.09-0.89,0-.05,0-0.06,0,0.3,0.09-.24-0.06-1.35,0-1.2a6.78,6.78,0,0,0,.08.74l0-.59-0.07-.59a2.6,2.6,0,0,1,0,.36c0,0.41-.1.41-0.11,0.35a0.65,0.65,0,0,1,0-.23,0.4,0.4,0,0,1-.15.14,0.22,0.22,0,0,0-.07,0,0.13,0.13,0,0,1,0,.08c0,0.11-.14-0.1-0.12-0.07-0.23-.09-0.22-0.17-1.3.29a0.91,0.91,0,0,1-.43.34c0.4-.18.64-0.22,0.65-0.12-0.38.2-.22,0-0.3,0.08l0,0a0.83,0.83,0,0,1-.36.12c-0.54.37-.31,0.54,0.46,0.19a1.6,1.6,0,0,1-1,.38,1.24,1.24,0,0,0,.22.72,4.1,4.1,0,0,0,.48.47,6.59,6.59,0,0,1,.64-0.77L409,505a5.31,5.31,0,0,0,.41-0.7c-0.15.59,0.66-.79,0.8-1.08l-0.16.36a0.44,0.44,0,0,0,.18-0.24,4.63,4.63,0,0,1-.41,1l0.09-.14a7.42,7.42,0,0,1-.57,1.17c0.4-.53.21,0.33,0.55-0.08a1.13,1.13,0,0,1-.5.71c0.08,0.07.31-.19,0.22,0.2l0.14-.53a2,2,0,0,1-.16.84,1,1,0,0,0,.38-0.9A4.22,4.22,0,0,1,410.22,504.55Z"/>
        <path class="cls-8" d="M412.35,504.06c-0.05,0-.05,0,0,0.08A0.07,0.07,0,0,0,412.35,504.06Z"/>
        <path class="cls-8" d="M412.62,505.2l0.11,0.17A0.67,0.67,0,0,0,412.62,505.2Z"/>
        <path class="cls-8" d="M413,505.85a2.85,2.85,0,0,1-.29-0.49A0.6,0.6,0,0,0,413,505.85Z"/>
        <path class="cls-8" d="M411.53,496.57a2.17,2.17,0,0,0-.36.28l0.21-.06Z"/>
        <path class="cls-8" d="M411.26,497.15l-0.08.22,0.58-.46C411.68,496.83,411.35,497.22,411.26,497.15Z"/>
        <path class="cls-8" d="M411.16,497.64l-0.15.11A0.58,0.58,0,0,0,411.16,497.64Z"/>
        <path class="cls-8" d="M411.39,497.43l0.42-.34-0.38.17,0,0.11a3,3,0,0,0-.23.27l0.32-.23S411.35,497.48,411.39,497.43Z"/>
        <path class="cls-8" d="M411.49,497.49l0.11-.11Z"/>
        <path class="cls-8" d="M410.89,498.33a5.57,5.57,0,0,1,.56-0.44c0.09-.21-0.51.31-0.37,0.08a0.72,0.72,0,0,0,.41-0.49,2.82,2.82,0,0,0-.63.79l0.26-.21A0.89,0.89,0,0,1,410.89,498.33Z"/>
        <path class="cls-8" d="M411.84,498.2l-0.44.24a3.26,3.26,0,0,1,.52-0.57,2.77,2.77,0,0,0-.39.2c0.18-.19.32-0.34,0-0.14a3.55,3.55,0,0,0-.31.62c-0.09.07-.09,0-0.08,0l-0.16.24A3.8,3.8,0,0,0,411.84,498.2Z"/>
        <path class="cls-8" d="M411.62,498.55a1.48,1.48,0,0,0-.72.43l0.42-.11S411.21,498.83,411.62,498.55Z"/>
        <path class="cls-8" d="M411.69,498.65c-0.19.18-.64,0.55-0.18,0.29C411.4,498.92,412,498.52,411.69,498.65Z"/>
        <path class="cls-8" d="M411.61,499.39l0.2-.31c0.54-.38.22,0,0.49-0.16,0-.19-0.12,0-0.52.1a1.29,1.29,0,0,0-.48.15C411.86,499,410.5,499.92,411.61,499.39Z"/>
        <polygon class="cls-8" points="412 498.77 411.76 498.9 411.98 498.85 412 498.77"/>
        <path class="cls-8" d="M411.15,500.06c-0.65.45,0.47-.07,0.21,0.18l-0.19.07,0.11,0-0.16.08a5.53,5.53,0,0,1,1-.35c0.41-.3-0.54.22-0.09-0.09l0.66-.27a5.19,5.19,0,0,0-.74.27,0.56,0.56,0,0,1,.33-0.22,1.71,1.71,0,0,1-.78.23c0.33-.25.59-0.28,0.39-0.29-0.63.41,0-.15-0.38,0a2.42,2.42,0,0,1,.69-0.55,5.28,5.28,0,0,1-1.13.54l0.48-.14-0.56.39c0.31-.1.29,0,0.25,0.07h0Z"/>
        <path class="cls-8" d="M412.66,499.71l0.12,0S412.73,499.68,412.66,499.71Z"/>
        <polygon class="cls-8" points="412.31 499.07 412.45 499.03 412.6 498.91 412.31 499.07"/>
        <path class="cls-8" d="M413.12,499.56a0.4,0.4,0,0,0-.2.09l0.3-.11Z"/>
        <polygon class="cls-8" points="412.77 499.83 412.44 500.05 412.74 499.94 412.77 499.83"/>
        <path class="cls-8" d="M413.08,501.84c0.22-.11-0.24,0-0.56.07A1.62,1.62,0,0,0,413.08,501.84Z"/>
        <path class="cls-8" d="M413.73,503.27c0.31,0-.13-0.21-0.11-0.29C413.38,503,413.52,503.14,413.73,503.27Z"/>
        <path class="cls-8" d="M414.93,504.62c-0.12-.1-0.17-0.17-0.26-0.13l-0.35-.23L414,504C413.65,504.07,414.61,504.48,414.93,504.62Z"/>
        <path class="cls-8" d="M414.35,505.74l-0.12-.35-0.08.06c-0.22-.24-0.33-0.37-0.51-0.58A2,2,0,0,0,414.35,505.74Z"/>
        <path class="cls-8" d="M413.6,504.67a0.45,0.45,0,0,0,0,.07C413.7,504.79,413.8,504.85,413.6,504.67Z"/>
        <path class="cls-8" d="M413.58,504.8l0.06,0.07a0.73,0.73,0,0,1,0-.13C413.54,504.71,413.48,504.68,413.58,504.8Z"/>
        <path class="cls-8" d="M413.94,505.58s-0.15.3-.16,0.29l0.2,0C413.64,505.53,414.31,506,413.94,505.58Z"/>
        <path class="cls-8" d="M412.46,506.17l-0.25-.43c-0.16,0,0,1-.34.33a1.09,1.09,0,0,0,.31.64C412.11,506.25,412.3,506.13,412.46,506.17Z"/>
        <path class="cls-8" d="M411.64,505.72a1.34,1.34,0,0,0-.15-0.36c-0.06,0,0,.2,0,0.39C411.37,505.11,411.72,506.12,411.64,505.72Z"/>
        <path class="cls-8" d="M411,505.92s0.09-.08,0-0.19a3.22,3.22,0,0,0,0,1C411.16,507,411.13,506.17,411,505.92Z"/>
        <path class="cls-8" d="M410.47,502.56v0Z"/>
        <polygon class="cls-8" points="410 505.8 410.02 505.91 410.14 505.26 410 505.8"/>
        <path class="cls-8" d="M409.13,505.94l-0.27.34h0.19Z"/>
        <path class="cls-8" d="M409,505.77l-0.14,0,0,0.17C408.87,506.06,409,505.76,409,505.77Z"/>
        <path class="cls-8" d="M408.61,505.65s0,0,0,.1l0.25-.18Z"/>
        <path class="cls-8" d="M409.68,502.84l0.19-.1,0,0h0l0.07,0.15h0s-0.06,0,0,0l-0.29.14a0.12,0.12,0,0,0-.07.05h0l-0.05-.11h0Z"/>
        <path class="cls-9" d="M295.43,319.83L483.86,365.1a2.31,2.31,0,0,1,1.61,3.08L429.09,513.62a2.31,2.31,0,0,1-2.52,1.44l-108.78-17.5a2.31,2.31,0,0,1-1.92-2L292.61,322.38A2.31,2.31,0,0,1,295.43,319.83Z"/>
        <path class="cls-8" d="M440.51,380.9l-22.25-6.55c-2.33-.69-5.07-2-7.24-0.12-2.4,2-1.68,6.18-1.92,8.92a120.34,120.34,0,0,1-2.72,16.45c-0.58,2.51,3.28,3.58,3.86,1.07,0.91-3.91,1.67-7.83,2.21-11.81,0.23-1.69-.08-10.72,1.49-11.59,1-.54,6.09,1.79,7.15,2.11l18.35,5.4c2.48,0.73,3.54-3.14,1.07-3.86h0Z"/>
        <path class="cls-8" d="M363.1,460.42c22.73,1.56,45.24-9.56,57.08-29.18a62.58,62.58,0,0,0,8.94-32.12c0-3.22.6-9.7-2.45-11.93-2.47-1.81-5.18.09-5.3,2.8s3.89,2.57,4,0q-1.81.93-.61,2.92,0.17,1.55.26,3.1a57.38,57.38,0,0,1-2.28,19.47,57.3,57.3,0,0,1-12.69,22.67,58.45,58.45,0,0,1-46.95,18.27c-2.57-.18-2.56,3.83,0,4h0Z"/>
        <path class="cls-8" d="M307.3,419.48l16.41,5.38c5,1.64,10.59,4.46,15.8,5.11a4.62,4.62,0,0,0,5.06-2.88c2.31-4.6,3.23-10.44,4.71-15.36,0.75-2.47-3.12-3.53-3.86-1.07L342,422l-0.79,2.63a2.44,2.44,0,0,1-3.67.52c-1.78-.19-3.79-1.24-5.47-1.79l-23.7-7.78c-2.46-.81-3.51,3.06-1.07,3.86h0Z"/>
        <path class="cls-8" d="M390.7,370.89c-18.92-3.33-40.78-5.52-56.56,7.88-13.08,11.11-15.22,31.05-5.52,45,1.46,2.1,4.94.1,3.46-2-9.32-13.43-6.51-32.23,7-41.78,14.75-10.45,33.84-8.2,50.58-5.25,2.52,0.44,3.6-3.42,1.07-3.86h0Z"/>
        <path class="cls-8" d="M491.22,357.64c-20.33,55.22-44.93,108.77-65.25,164-0.89,2.42,3,3.47,3.86,1.07,20.33-55.22,44.93-108.77,65.25-164,0.89-2.42-3-3.47-3.86-1.07h0Z"/>
        <path class="cls-8" d="M296.88,311.5q7.25,64.05,15.85,127.94,2.24,16.64,4.57,33.26,1.1,7.82,2.22,15.64c0.45,3.14,0,8.28,2.83,10.44,2.22,1.7,6.54,1.59,9.24,2q7.25,1.23,14.52,2.39,14,2.25,28.09,4.38c10.58,1.62,21.17,3.24,31.75,4.91q7.38,1.17,14.76,2.39l7.85,1.33,3.05,0.53c1.39,0.24,3,1.41,2.67-.41l0.92-2.26a1,1,0,0,1-.52,0l1.47,1.93q-1.22,1.81,0,1.1a8.81,8.81,0,0,0,2.51-1.41,10.64,10.64,0,0,0,2.5-2.64,8.76,8.76,0,0,0,1.21-7c-0.5-2.53-4.36-1.46-3.86,1.07,0.54,2.75-1.87,5.09-3.83,6.29a8.17,8.17,0,0,0-1.54.75,2.39,2.39,0,0,0-1,1.87,2.07,2.07,0,0,0,1.47,1.93,4.66,4.66,0,0,0,3.6-.37,2.07,2.07,0,0,0,.92-2.26c-0.31-1.77-2.61-1.87-4-2.13-4.39-.82-8.8-1.52-13.2-2.25-9.18-1.52-18.37-3-27.56-4.38-18.41-2.85-36.83-5.59-55.21-8.63-3.54-.58-9.3-0.46-12.46-2.12-2.94-1.54-2.71-11-3.19-14.37q-2.22-15.64-4.36-31.3-4.51-33-8.65-66.05-4.55-36.26-8.65-72.57c-0.29-2.53-4.3-2.56-4,0h0Z"/>
        <path class="cls-8" d="M332.91,273.63c-9.15,7.4-18.78,14.07-28.39,20.84-4.24,3-8.43,6-12.53,9.21-2.51,1.94-5.82,4.36-3.5,7.81s10,3.63,13.51,4.5q10.11,2.53,20.17,5.25c12.8,3.44,25.55,7,38.3,10.64,25.47,7.21,50.95,14.45,76.73,20.45,12.92,3,25.91,5.71,39,7.94,4.54,0.77,10.35,2.68,14.93,1.26,4.74-1.47,5.84-5.71,6.82-10.06,6.21-27.44,7-55.74,13.26-83.18a2,2,0,0,0-1.93-2.54c-33-2-65.62-6.69-98.57-8.69-2.58-.16-2.57,3.85,0,4,33,2,65.62,6.69,98.57,8.69l-1.93-2.54c-4.83,21.21-6.39,42.83-9.72,64.29-0.83,5.38-1.8,10.75-2.93,16.08-0.64,3-1.1,8.7-4.64,10.07-3.09,1.2-7.79-.42-10.92-0.94-11.84-2-23.62-4.35-35.33-7-46.16-10.41-91.22-25-137.06-36.68q-4.59-1.17-9.2-2.3a24.3,24.3,0,0,1-3.69-.89c-3.55-1.58.12-2.71,1.92-4.08,4.31-3.28,8.72-6.43,13.16-9.53,9.12-6.37,18.15-12.79,26.81-19.79,2-1.62-.84-4.44-2.83-2.83h0Z"/>
        <path class="cls-9" d="M439.45,38a36.85,36.85,0,0,0-37,5c-11.18,9-17.74,25-31.79,28-21.53,4.58-43-25.64-61.77-14.19-12.16,7.41-12.5,28.15-26,32.58C264.16,95.5,248,62.53,230.13,70.66c-7.91,3.6-10.45,14.2-7.92,22.51s8.74,14.9,14.59,21.33a485.09,485.09,0,0,1,54.09,71.8c-10.34,6.8-24.12,5.92-35.73,1.65s-21.86-11.51-32.86-17.17a9.08,9.08,0,0,0-5-1.4c-4.9.53-5.67,7.42-4.38,12.17a52.22,52.22,0,0,0,28.14,33.24c20,9.22,44.25,5,64.33,14.06,10.86,4.93,19.64,13.39,29.45,20.17s21.85,12.05,33.44,9.25c18.49-4.47,26.63-28,21.66-46.33-1.75-6.48-4.7-12.73-5.07-19.43-0.75-13.68,9.12-25.27,15.36-37.47a75.69,75.69,0,0,0,8-40.88c-0.67-7.58-4.63-16.84-12.23-16.62-5.81.17-9.8,6.22-10.72,12s0.17,11.66-.76,17.4c-2,12.4-14.58,22.12-27.09,20.94a502.34,502.34,0,0,1,5.83-95.64"/>
        <path class="cls-8" d="M437.32,48.22a39.49,39.49,0,0,0-39.23,5.42c-10.16,8.11-16.4,23.55-29.64,27.26-22.25,6.23-42.84-28-64.6-13-9.7,6.68-11,19.35-18.58,27.67-8.76,9.63-20.17,2-28.36-4.12-7.5-5.57-16.38-13.45-26.5-11.69-11.9,2.07-16.36,15.53-13.58,26.09,2.12,8,7.76,14.61,13.2,20.64,6.68,7.41,13.28,14.87,19.59,22.6a487.08,487.08,0,0,1,36.32,51.11l0.9-3.42c-19.45,12-41.21-1.51-58.31-11.26-5.39-3.08-14.52-9.93-19.56-2.71-4,5.77-1,14,1.54,19.69,7.43,16.62,22.39,27.57,39.92,31.54,20.39,4.63,41.61,2.65,59.82,14.57,15.7,10.28,30.58,27.09,51.13,25.45,15.09-1.21,25.36-13.66,28.53-27.75a47.42,47.42,0,0,0,0-21.18c-1.21-5.18-3.44-10.07-4.58-15.27a29.15,29.15,0,0,1,1.11-16.18c3.29-9.42,9.68-17.4,14-26.34A79,79,0,0,0,408,139.07c0.66-8.69.6-19.1-5-26.34-4.73-6.09-13-6.69-18.31-1-7.66,8.23-3.29,19.37-5.8,29.13-2.75,10.69-13.45,17.74-24.24,17.07l2.5,2.5a508.74,508.74,0,0,1,5.75-95c0.49-3.15-4.33-4.5-4.82-1.33a515.73,515.73,0,0,0-5.92,96.3,2.56,2.56,0,0,0,2.5,2.5c13.7,0.86,27.09-9.07,29.5-22.78,1.41-8-2-19,4.54-25.35,8.79-8.49,13.95,7.36,14.39,13.69a73,73,0,0,1-3.88,28.76c-3,8.8-8.18,16.39-12.66,24.46-3.6,6.5-6.69,13.49-6.93,21-0.28,9,4.27,16.91,5.88,25.55,2.49,13.42-1.93,30.43-14.38,37.66-17.4,10.11-36.11-5.05-49.37-15.22-6.94-5.32-14.08-10.27-22.35-13.29-7.92-2.9-16.34-4-24.68-5-18.35-2.13-36.91-4-50.34-18.13-5.71-6-12.25-15.62-12.25-24.29,0-4.17,1.13-6.13,6.14-4.47,2.14,0.71,4.24,2.26,6.22,3.38,4.62,2.61,9.17,5.36,13.85,7.87,15.53,8.35,34.81,14.31,51,4.27a2.54,2.54,0,0,0,.9-3.42A497.54,497.54,0,0,0,261,155.41c-9.87-12.76-20.91-24.41-31.2-36.79-5.06-6.1-9.63-13.39-8.64-21.64,0.78-6.53,5.2-12.53,12.25-12.47C243,84.59,251.51,94,258.94,99s16.77,8.81,25.3,3.81c9.09-5.33,11.47-16.79,17-25,7.55-11.29,18.92-9,29.54-3.72,9.77,4.89,19.49,11.69,30.72,12.44,14.08,0.94,22.71-10.06,30.84-19.81,5.16-6.18,10.7-11.77,18.47-14.5A35.19,35.19,0,0,1,436,53c3,1.22,4.27-3.62,1.33-4.82h0Z"/>
        <path class="cls-8" d="M333.13,148.34c-8.41-7.94-21.46-2.18-25.39,7.55-4.27,10.58-1.73,29,7.74,36.4,10.7,8.32,24.06-2.74,28.27-12.86,5.18-12.44.37-26.21-10.51-33.74-2.65-1.84-5.15,2.5-2.52,4.32,7.87,5.45,12,15.27,9.42,24.65-2.19,8-13.21,21.1-22.1,13.28-6-5.24-7.61-16.52-7.05-24,0.37-5,2.3-10,6.74-12.62,3.76-2.23,8.54-2.63,11.87.51,2.34,2.21,5.88-1.32,3.54-3.54h0Z"/>
        <path class="cls-8" d="M318.84,208.12c-3.46,2-7.13,4.38-8.23,8.47-1,3.57.35,7.65,4,9.08,3.25,1.28,7.12,0,9.45-2.48,2.92-3.11,3.33-7.65,3.6-11.7,0.22-3.21-4.78-3.2-5,0s-0.77,10.33-5.6,9.67c-2.08-.28-2-2.7-1.24-4.2,1.11-2.14,3.57-3.37,5.57-4.52,2.79-1.6.28-5.92-2.52-4.32h0Z"/>
        <path class="cls-8" d="M358.15,199.53c-7.18-2.63-15.15,2.83-16.69,10s4.15,13,11,14c7,1,13.8-3,15-10.24a15.17,15.17,0,0,0-10.48-16.73c-3.1-.9-4.42,3.92-1.33,4.82,9.23,2.69,9.39,18-1.58,17.31-4.14-.26-8.44-3.24-7.7-7.85,0.77-4.79,6-8.23,10.54-6.56,3,1.11,4.33-3.72,1.33-4.82h0Z"/>
        <path class="cls-8" d="M398.48,241.66L456,240.23c3.21-.08,3.22-5.08,0-5l-57.55,1.43c-3.21.08-3.22,5.08,0,5h0Z"/>
        <path class="cls-8" d="M393,274.12L413.16,287c2.72,1.74,5.23-2.59,2.52-4.32L395.5,269.81c-2.72-1.74-5.23,2.59-2.52,4.32h0Z"/>
        <path class="cls-8" d="M347.36,279.12L366,309.36c1.69,2.73,6,.22,4.32-2.52L351.67,276.6c-1.69-2.73-6-.22-4.32,2.52h0Z"/>
        <path class="cls-8" d="M314.23,283l-6,24.39c-0.77,3.12,4,4.46,4.82,1.33l6-24.39c0.77-3.12-4-4.46-4.82-1.33h0Z"/>
      </g>
    </g>
  </g>
</svg>
