<?xml version="1.0" encoding="UTF-8"?>
<svg xmlns="http://www.w3.org/2000/svg" xmlns:xlink="http://www.w3.org/1999/xlink" viewBox="0 0 580 580">
  <defs>
    <style>.cls-1{fill:none;}.cls-2{isolation:isolate;}.cls-3{clip-path:url(#clip-path);}.cls-4{clip-path:url(#clip-path-2);}.cls-5{font-size:18px;fill:#414042;font-family:Myriad Pro;font-weight:700;}.cls-6{fill:#feeb8d;}.cls-7,.cls-8,.cls-9{mix-blend-mode:multiply;}.cls-7{fill:url(#linear-gradient);}.cls-8{fill:#e6e7e8;}.cls-10{fill:#a7a9ac;}.cls-11{fill:#feeb8c;}.cls-12{fill:#004f7f;}.cls-13{fill:#fff;}</style>
    <clipPath id="clip-path">
      <rect class="cls-1" y="879.05" width="580" height="580"/>
    </clipPath>
    <clipPath id="clip-path-2">
      <rect class="cls-1" x="3.04" width="580" height="580"/>
    </clipPath>
    <linearGradient id="linear-gradient" x1="-34.5" y1="394.11" x2="542.38" y2="394.11" gradientUnits="userSpaceOnUse">
      <stop offset="0" stop-color="#fff"/>
      <stop offset="0.6" stop-color="#9acd72"/>
    </linearGradient>
  </defs>
  <title>iiLAB -U1-concepts-03-HIJACKED ACCOUNT</title>
  <g class="cls-2">
    <g id="Layer_3" data-name="Layer 3">
      <g class="cls-4">
        <text class="cls-5" transform="translate(85.96 28.13)">x</text>
        <circle class="cls-7" cx="253.94" cy="394.11" r="288.44"/>
        <path class="cls-8" d="M299.14,190.6l161.55,6.34a2.88,2.88,0,0,1,2.66,3.65l-31.16,111.8a2.88,2.88,0,0,1-3.68,2L397.45,304a2.88,2.88,0,0,1-1.21-.78L296.91,195.43A2.88,2.88,0,0,1,299.14,190.6Z"/>
        <g class="cls-9">
          <path class="cls-10" d="M233.1,207.6c-21.61,17.58-34.2,24.16-54.58,40.23a2.88,2.88,0,0,0,1.12,5.07C261,272.27,339.5,300.77,422.49,313.42c3.05,0.47,6.5,0,8.78-2.1,1.83-1.67,2.47-4.24,3-6.65,9-39,8.06-67.16,17.09-106.16h0c-61.78-3.7-61.21-7.14-123-10.84"/>
        </g>
        <rect class="cls-11" x="226.68" y="5.6" width="77.53" height="361.48" rx="2.88" ry="2.88" transform="translate(-58.09 208.93) rotate(-39.06)"/>
        <path class="cls-12" d="M349.2,347.1l-31.33-38.6-70.69-87.1-74.88-92.27L127.42,73.84c-0.35-.44-2.43-2.34-2.39-2.94,0.06-.82,2.67-2.35,3.17-2.75l7.76-6.3,42.29-34.32c1.12-.91,2.23-2.44,3.44-2a3.68,3.68,0,0,1,.59.73c1.67,1.48,3,3.71,4.41,5.44l19.61,24.16L274,139.35l76.49,94.24,50.23,61.89c1.26,1.55,3.76,3.64,4.48,5.52a4.27,4.27,0,0,1,.63.77c0,0.86-2.83,2.48-3.35,2.89l-42,34.06c-1.28,1-10,9.45-11.34,8.36-2.46-2-6,1.49-3.54,3.54,5.17,4.27,9.86-1.43,13.84-4.65l22.38-18.17,21.59-17.52c3.81-3.09,9.79-6.44,5.92-12.06-2.8-4.06-6.32-7.78-9.42-11.61l-24.19-29.81-74.06-91.25L225.83,72.08l-27-33.29c-4.31-5.31-8.4-10.94-13-16-2.6-2.87-5.63-3-8.76-.68-5.48,4.08-10.66,8.65-16,13l-24,19.5c-4.89,4-10.32,7.68-14.85,12.06-5.11,4.93,1.64,10.72,4.82,14.63l21.18,26.1,70.92,87.39,77.69,95.72,46.59,57.41,2.25,2.77C347.69,353.13,351.21,349.58,349.2,347.1Z"/>
        <path class="cls-12" d="M349.44,334.06l-27.8-34.25L258.08,221.5l-69.81-86L142.7,79.33c-1.2-1.48-3.41-3.35-4.16-5.12a4.5,4.5,0,0,1-.69-0.85c0-.75,2.35-2.11,2.82-2.5l37-30c1.88-1.53,2.52-3,4.26-1.57,1.5,1.24,2.72,3.35,3.94,4.86l17.43,21.47,60.78,74.89,70.69,87.09,50.1,61.72,5.85,7.21c0.36,0.44,2.31,2.22,2.29,2.82s-2.37,2.13-2.82,2.5l-7.85,6.38-21.1,17.13c-1.35,1.1-10.48,9.84-11.81,8.74-2.46-2-6,1.49-3.54,3.54,5.18,4.27,9.85-1.41,13.83-4.64l21.19-17.2c4.92-4,10.39-7.74,15-12.14,2.79-2.68,2.25-5.76.12-8.55-11.65-15.25-24.24-29.87-36.33-44.76l-69.2-85.26L221.41,80,197.17,50.1c-3.86-4.76-7.52-9.87-11.67-14.38C183,33,180,32.79,176.95,35c-5.48,4-10.63,8.63-15.92,12.92l-20.89,17c-3.79,3.08-9.68,6.42-5.84,12,2.5,3.63,5.64,6.95,8.41,10.37l21.63,26.65,66.95,82.49,70.85,87.29,41.74,51.43,2,2.49C347.93,340.09,351.45,336.54,349.44,334.06Z"/>
        <circle class="cls-12" cx="179.86" cy="80.89" r="10.15" transform="translate(-10.77 131.42) rotate(-39.06)"/>
        <path class="cls-12" d="M188,90.53a12.87,12.87,0,1,0-.51.39c2.55-1.9.06-6.24-2.52-4.32-3.27,2.43-7.67,2.69-10.66-.44A7.64,7.64,0,1,1,185.74,76c2.87,3.49,2,8.11-1.26,11C182.07,89.13,185.62,92.66,188,90.53Z"/>
        <circle class="cls-12" cx="201.49" cy="107.54" r="10.15" transform="translate(-22.73 151.01) rotate(-39.06)"/>
        <path class="cls-12" d="M209.65,117.19a12.87,12.87,0,1,0-.51.39c2.55-1.9.06-6.24-2.52-4.32-3.27,2.43-7.67,2.69-10.66-.44a7.64,7.64,0,1,1,11.42-10.14c2.87,3.49,2,8.11-1.26,11C203.7,115.79,207.25,119.31,209.65,117.19Z"/>
        <circle class="cls-12" cx="223.12" cy="134.2" r="10.15" transform="translate(-34.69 170.61) rotate(-39.06)"/>
        <path class="cls-12" d="M231.29,143.84a12.87,12.87,0,1,0-.51.39c2.55-1.9.06-6.24-2.52-4.32-3.27,2.43-7.67,2.69-10.66-.44A7.64,7.64,0,1,1,229,129.34c2.87,3.49,2,8.11-1.26,11C225.34,142.44,228.88,146,231.29,143.84Z"/>
        <circle class="cls-12" cx="244.76" cy="160.85" r="10.15" transform="translate(-46.65 190.2) rotate(-39.06)"/>
        <path class="cls-12" d="M252.92,170.5a12.87,12.87,0,1,0-.51.39c2.55-1.9.06-6.24-2.52-4.32-3.27,2.43-7.67,2.69-10.66-.44A7.64,7.64,0,1,1,250.64,156c2.87,3.49,2,8.11-1.26,11C247,169.1,250.52,172.62,252.92,170.5Z"/>
        <circle class="cls-12" cx="266.39" cy="187.51" r="10.15" transform="translate(-58.61 209.79) rotate(-39.06)"/>
        <path class="cls-12" d="M274.55,197.15a12.87,12.87,0,1,0-.51.39c2.55-1.9.06-6.24-2.52-4.32-3.27,2.43-7.67,2.69-10.66-.44a7.64,7.64,0,1,1,11.42-10.14c2.87,3.49,2,8.11-1.26,11C268.6,195.75,272.15,199.28,274.55,197.15Z"/>
        <circle class="cls-12" cx="288.03" cy="214.16" r="10.15" transform="matrix(0.78, -0.63, 0.63, 0.78, -70.57, 229.38)"/>
        <path class="cls-12" d="M296.19,223.81a12.87,12.87,0,1,0-.51.39c2.55-1.9.06-6.24-2.52-4.32-3.27,2.43-7.67,2.69-10.66-.44a7.64,7.64,0,1,1,11.42-10.14c2.87,3.49,2,8.11-1.26,11C290.24,222.41,293.78,225.93,296.19,223.81Z"/>
        <circle class="cls-12" cx="309.66" cy="240.82" r="10.15" transform="matrix(0.78, -0.63, 0.63, 0.78, -82.53, 248.97)"/>
        <path class="cls-12" d="M317.82,250.46a12.87,12.87,0,1,0-.51.39c2.55-1.9.06-6.24-2.52-4.32-3.27,2.43-7.67,2.69-10.66-.44A7.64,7.64,0,1,1,315.54,236c2.87,3.49,2,8.11-1.26,11C311.87,249.06,315.42,252.59,317.82,250.46Z"/>
        <path class="cls-12" d="M329.14,491.87l0.23,0.09Z"/>
        <path class="cls-12" d="M329.44,489.94h0l-0.06,0Z"/>
        <path class="cls-12" d="M329.35,490l-0.3.08A0.72,0.72,0,0,0,329.35,490Z"/>
        <path class="cls-12" d="M331,492.82a1.93,1.93,0,0,0,.29.24Z"/>
        <path class="cls-12" d="M332.3,492.94l0.16,0Z"/>
        <path class="cls-12" d="M328.23,491.66l0-.11Z"/>
        <path class="cls-12" d="M328.29,492.15s0,0,0,0v0.07C328.31,492.3,328.3,492.2,328.29,492.15Z"/>
        <path class="cls-12" d="M328.41,492.54v0S328.41,492.57,328.41,492.54Z"/>
        <path class="cls-12" d="M327,496.07l-0.08.3A2.88,2.88,0,0,0,327,496.07Z"/>
        <path class="cls-12" d="M328.13,491.29l0.07,0.26Z"/>
        <path class="cls-12" d="M329,491.82l0.13,0Z"/>
        <path class="cls-12" d="M330.82,493h0S330.81,493,330.82,493Z"/>
        <path class="cls-12" d="M328.91,489.05a0.47,0.47,0,0,0-.13,0C328.72,489.13,328.78,489.11,328.91,489.05Z"/>
        <path class="cls-12" d="M328.66,492.2a8.11,8.11,0,0,1,.4.85c-0.06-.19-0.12-0.33.14,0.08a4.72,4.72,0,0,0,.24.69l-0.07-.3c0.23,0.31.46,0.88,0.48,0.8-0.47-.95.44,0.22,0.46,0l0,0.1,0.21,0.15,0.21,0.15,0,0-0.11-.16c0.36,0.38.73,0.56,0.78,0.36-0.35-.46.24-0.51-0.11-0.9,0.07,0.14,0,.2-0.12.15l-0.52-.5c0.08-.08.5,0.44,0.25,0.07-0.75-.63-0.1.12-0.24,0.11a3,3,0,0,1-.3-0.45c-0.12.1-.43-0.11,0.12,0.71a2.31,2.31,0,0,1-.45-0.56c0.28,0.51-.4-0.39-0.14.07a5.28,5.28,0,0,1-.46-0.91c0.57,0.48.17-.12,0.1-0.25,0.53,0.4.91,0.84,1.24,1s-0.18-.35-0.45-0.62a3,3,0,0,0,1.06.47l0.3,0.34c0.87,0.38-.25-0.31,0-0.29-0.23-.09-0.44-0.22-0.46-0.12a1,1,0,0,1-.41-0.35h0c-0.38-.26-0.81-0.51-0.57-0.46a1.1,1.1,0,0,0,.66.22l0.09,0.07a1.6,1.6,0,0,1-.11-0.26l0.13,0.05a3.24,3.24,0,0,1-.69-0.39,3,3,0,0,0,.87.3c0.39,0.14.39,0.28,0.22,0.31a1.13,1.13,0,0,1,.83.31c0.51,0.16-.17-0.22.09-0.2-0.16,0-.32-0.12-0.48-0.17,0.68,0.22.14-.25-0.35-0.36l0.35,0.22c-0.56-.17-0.89-0.38-1.21-0.43,0.9,0.17-.38-0.3.37-0.2l-0.47,0c0.28-.14-0.73-0.35-1-0.4,0.3,0,1.29,0,.94.11a6.92,6.92,0,0,1,1.49-.11c0.36-.2-0.93-0.06-1.25-0.09l0.19,0.08c-0.58,0-.53-0.11-0.42-0.2s0.26-.23-0.1-0.24a0.3,0.3,0,0,1,.29,0c0.57-.2-0.12,0-0.36,0a1.49,1.49,0,0,1,1-.39,1.64,1.64,0,0,0-.66.11l0.16-.06-0.82.08a5.32,5.32,0,0,1,1.23-.54c-0.19-.17-1.61.36-1.9,0.31a2.69,2.69,0,0,1,.81-0.21l-0.11-.1a11.06,11.06,0,0,0,1.34-.24,2.34,2.34,0,0,1-1,0l-0.08,0c-0.63.14-.25-0.14-0.4-0.18a1.09,1.09,0,0,1,.61,0c0.27-.19-0.11-0.33-0.92-0.11a1.5,1.5,0,0,1,.73-0.37c0.06-.23-1.15.36-1,0.12l0.59-.23c0.77-.53-0.89,0-0.2-0.48l-0.71.32c0.28-.17.39-0.3,0.66-0.45l0.28,0c0.56-.35-0.6.19-0.22-0.09-0.21.11-.66,0.4-0.89,0.51,0.56,0.13-.35.85,0.5,0.88a1.68,1.68,0,0,1,.32-0.14,0.49,0.49,0,0,1-.35.23h-0.06a2.34,2.34,0,0,1-.66.45c0.51-.13-0.16.23,0.7-0.08l-0.53.22c0.33-.08.75-0.22,0.92-0.23a1.28,1.28,0,0,1-.63.21,0.36,0.36,0,0,0-.13.37,0.82,0.82,0,0,0,.35.34l-0.43,0c-0.1,0,.11.12,0.18,0s0,0-.49.11a1.92,1.92,0,0,0,.83,0c-1.08.12-.48,0.09-0.32,0.18a1,1,0,0,1,.71.18c-0.73-.13-0.76-0.18-1.26-0.23,0.58,0.08.38,0.11,0.25,0.08s-0.13,0,.77.31l-0.22-.07a2.89,2.89,0,0,1-.39-0.12,3.64,3.64,0,0,1,.56.25,8.36,8.36,0,0,1-.79-0.34,10.22,10.22,0,0,1,1.15.79,4.62,4.62,0,0,1-.67-0.42c0.43,0.42-.14,0,0.1.3a2,2,0,0,1-.34-0.37c-0.43-.34-0.39-0.31-0.31-0.22s0.16,0.24,0,0l0.43,0.55a2.55,2.55,0,0,1-.51-0.61c-0.27-.32,0,0-0.07,0l-0.09-.16h0l0.42,0.88C328.62,492.2,328.51,492,328.66,492.2Z"/>
        <path class="cls-12" d="M328.78,492.57l0,0.08h0Z"/>
        <path class="cls-12" d="M332,493.54a1.46,1.46,0,0,0-.29-0.08A1,1,0,0,0,332,493.54Z"/>
        <path class="cls-12" d="M327.8,494c-0.1,1.06.13-.16,0.17,0.13a4.32,4.32,0,0,0-.12,1.08c0.19-1.36.13,0.29,0.38,0,0,0.45-.1.52-0.12,1a2,2,0,0,0,.32-1.31,0.69,0.69,0,0,0,.48.06,14,14,0,0,0,.12,1.43,9.46,9.46,0,0,0-.15-3.12c0.31,0.78.36,0.86,0.61,1.59,0.45,0.43-.23-0.75.06-0.59l-0.15-.1a7.56,7.56,0,0,0-.59-1.49,1.58,1.58,0,0,1-.07.15,2.09,2.09,0,0,1-.18-0.62c-0.28-.63-0.24-0.45-0.45-0.95a2.25,2.25,0,0,1,.17.47l-0.11-.29c-0.11-.31.14,0.45,0.1,0.44l-0.06-.2a6.32,6.32,0,0,1,.18.88v0a13.22,13.22,0,0,0,.32,2s-0.27-.18-0.27-0.19c-0.07-.8-0.21-2.05-0.2-2.15l-0.06-.34a4.88,4.88,0,0,0,.12,1.33c0.09,1,0,1-.1.88s-0.17-.38-0.26,0c0-.53.1-0.74,0.12-1.11,0-.06,0-0.08.06,0.37,0.11-.3-0.07-1.69,0-1.5a8.44,8.44,0,0,0,.1.93l-0.06-.73-0.09-.73a3.27,3.27,0,0,1,0,.45c0,0.51-.12.51-0.14,0.43a0.81,0.81,0,0,1,0-.29,0.49,0.49,0,0,1-.19.17,0.28,0.28,0,0,0-.09,0,0.16,0.16,0,0,1,0,.1c0,0.14-.17-0.12-0.15-0.08-0.29-.11-0.27-0.21-1.62.36a1.14,1.14,0,0,1-.54.43c0.5-.22.8-0.28,0.81-0.15-0.47.25-.28,0-0.38,0.1l0,0a1,1,0,0,1-.45.15c-0.33.24-.43,0.4-0.33,0.45a1.38,1.38,0,0,0,.91-0.21,2,2,0,0,1-1.19.47,1.55,1.55,0,0,0,.27.9,5.16,5.16,0,0,0,.6.59,8.2,8.2,0,0,1,.8-1l-0.15.31a6.63,6.63,0,0,0,.51-0.87c-0.18.73,0.83-1,1-1.34l-0.2.45a0.55,0.55,0,0,0,.23-0.3,5.77,5.77,0,0,1-.52,1.24l0.11-.17a9.26,9.26,0,0,1-.71,1.46c0.5-.66.26,0.41,0.69-0.09a1.4,1.4,0,0,1-.63.88c0.1,0.09.39-.24,0.28,0.25l0.18-.66c0.19,0-.16.61-0.2,1,0.27,0,.37-0.55.48-1.12A5.26,5.26,0,0,1,327.8,494Z"/>
        <path class="cls-12" d="M330.44,493.34c-0.07,0-.06,0,0,0.1A0.08,0.08,0,0,0,330.44,493.34Z"/>
        <path class="cls-12" d="M330.79,494.77l0.14,0.21A0.83,0.83,0,0,0,330.79,494.77Z"/>
        <path class="cls-12" d="M331.28,495.59a3.53,3.53,0,0,1-.36-0.61A0.75,0.75,0,0,0,331.28,495.59Z"/>
        <path class="cls-12" d="M329.43,484a2.71,2.71,0,0,0-.46.35l0.26-.08Z"/>
        <path class="cls-12" d="M329.09,484.73L329,485l0.72-.58C329.61,484.33,329.2,484.81,329.09,484.73Z"/>
        <path class="cls-12" d="M329,485.33l-0.18.13A0.72,0.72,0,0,0,329,485.33Z"/>
        <path class="cls-12" d="M329.25,485.07l0.53-.42-0.47.21-0.05.14a3.75,3.75,0,0,0-.29.33l0.39-.28C329.31,485.08,329.2,485.13,329.25,485.07Z"/>
        <path class="cls-12" d="M329.37,485.15l0.14-.14Z"/>
        <path class="cls-12" d="M328.63,486.2a6.86,6.86,0,0,1,.7-0.55c0.12-.26-0.64.39-0.46,0.1a0.89,0.89,0,0,0,.51-0.61,3.49,3.49,0,0,0-.79,1l0.32-.26A1.12,1.12,0,0,1,328.63,486.2Z"/>
        <path class="cls-12" d="M329.81,486l-0.55.3a4.06,4.06,0,0,1,.65-0.72,3.39,3.39,0,0,0-.49.25c0.23-.24.4-0.42,0-0.17a4.4,4.4,0,0,0-.39.77c-0.11.08-.11,0-0.1,0l-0.2.3A4.74,4.74,0,0,0,329.81,486Z"/>
        <path class="cls-12" d="M329.55,486.48a1.85,1.85,0,0,0-.9.54l0.52-.13S329,486.82,329.55,486.48Z"/>
        <path class="cls-12" d="M329.63,486.6c-0.24.22-.79,0.68-0.22,0.37C329.26,486.94,330.07,486.43,329.63,486.6Z"/>
        <path class="cls-12" d="M329.52,487.53l0.25-.39c0.68-.48.27-0.06,0.62-0.2,0.05-.24-0.15-0.05-0.65.12a1.62,1.62,0,0,0-.6.19C329.84,487.09,328.14,488.18,329.52,487.53Z"/>
        <polygon class="cls-12" points="330.01 486.74 329.72 486.91 329.99 486.85 330.01 486.74"/>
        <path class="cls-12" d="M329,488.35c-0.81.56,0.58-.09,0.27,0.22-0.06,0-.12.06-0.24,0.09l0.13,0-0.19.1a6.84,6.84,0,0,1,1.2-.44c0.51-.38-0.68.27-0.12-0.12l0.82-.34a6.5,6.5,0,0,0-.92.34,0.7,0.7,0,0,1,.41-0.28c-0.34.08-1.1,0.49-1,.29,0.41-.31.73-0.35,0.48-0.36-0.78.51,0.06-.19-0.48,0.06a3,3,0,0,1,.87-0.68,6.62,6.62,0,0,1-1.41.67l0.6-.18-0.7.48c0.39-.13.36,0,0.31,0.09Z"/>
        <path class="cls-12" d="M330.83,487.92l0.16,0S330.93,487.88,330.83,487.92Z"/>
        <polygon class="cls-12" points="330.4 487.13 330.57 487.07 330.77 486.92 330.4 487.13"/>
        <path class="cls-12" d="M331.42,487.74a0.49,0.49,0,0,0-.25.12l0.37-.14Z"/>
        <polygon class="cls-12" points="330.98 488.08 330.56 488.34 330.93 488.21 330.98 488.08"/>
        <path class="cls-12" d="M331.36,490.58c0.27-.14-0.29,0-0.7.08A2,2,0,0,0,331.36,490.58Z"/>
        <path class="cls-12" d="M332.17,492.36c0.39-.06-0.16-0.26-0.13-0.36C331.74,492.06,331.91,492.2,332.17,492.36Z"/>
        <path class="cls-12" d="M333.67,494c-0.15-.12-0.21-0.21-0.32-0.16l-0.44-.29-0.44-.27C332.07,493.36,333.26,493.87,333.67,494Z"/>
        <path class="cls-12" d="M332.94,495.44l-0.15-.44-0.1.08c-0.28-.31-0.41-0.46-0.63-0.72A2.46,2.46,0,0,0,332.94,495.44Z"/>
        <path class="cls-12" d="M332,494.11a0.57,0.57,0,0,0,0,.09C332.13,494.26,332.27,494.33,332,494.11Z"/>
        <path class="cls-12" d="M332,494.27l0.08,0.09a0.91,0.91,0,0,1,0-.16C331.93,494.16,331.86,494.12,332,494.27Z"/>
        <path class="cls-12" d="M332.44,495.25s-0.19.37-.2,0.37l0.25,0C332.06,495.18,332.9,495.76,332.44,495.25Z"/>
        <path class="cls-12" d="M330.59,496l-0.31-.53c-0.2,0,.06,1.29-0.42.41,0.23,0.33.07,0.73,0.39,0.79C330.15,496.08,330.39,495.93,330.59,496Z"/>
        <path class="cls-12" d="M329.56,495.42a1.66,1.66,0,0,0-.19-0.45c-0.07-.05,0,0.24.06,0.48C329.23,494.66,329.66,495.92,329.56,495.42Z"/>
        <path class="cls-12" d="M328.78,495.67c0.05,0,.11-0.1,0-0.24a4,4,0,0,0,0,1.19C329,497,328.93,496,328.78,495.67Z"/>
        <path class="cls-12" d="M328.1,491.47h0v0Z"/>
        <polygon class="cls-12" points="327.52 495.52 327.55 495.65 327.7 494.85 327.52 495.52"/>
        <path class="cls-12" d="M326.44,495.7l-0.16.22-0.17.21h0.24Z"/>
        <path class="cls-12" d="M326.31,495.49l-0.17,0,0,0.22C326.11,495.84,326.25,495.47,326.31,495.49Z"/>
        <path class="cls-12" d="M325.79,495.33s0,0,0,.13l0.32-.22Z"/>
        <path class="cls-12" d="M327.12,491.83l0.23-.12,0,0h0l0.08,0.19h0s-0.07,0,0-.06a3.08,3.08,0,0,0-.37.17,0.15,0.15,0,0,0-.08.07h0l-0.06-.14h0Z"/>
        <path class="cls-13" d="M184.57,263.49L419.67,320a2.88,2.88,0,0,1,2,3.84L351.33,505.27a2.88,2.88,0,0,1-3.14,1.8L212.46,485.24a2.88,2.88,0,0,1-2.4-2.46L181,266.67A2.88,2.88,0,0,1,184.57,263.49Z"/>
        <path class="cls-12" d="M365.59,339.68l-26.9-7.92c-3.08-.91-7-2.83-9.9-0.41-3.06,2.59-2.11,8.05-2.44,11.6A148.53,148.53,0,0,1,323,363c-0.73,3.13,4.09,4.47,4.82,1.33,1.16-5,2.11-10,2.79-15q0.43-3.17.73-6.36c0.12-1.32-.21-7.13,1.07-7.83s7.71,2.27,8.95,2.63l22.9,6.74c3.09,0.91,4.41-3.91,1.33-4.82h0Z"/>
        <path class="cls-12" d="M269,438.9c27.56,2,55.05-11.21,70.06-34.56a78.28,78.28,0,0,0,12.21-38.27c0.23-4.74,1.17-13.68-2.06-17.65-2.5-3.06-7.94-1.69-7.51,2.6,0.32,3.17,5.32,3.2,5,0q-1.71.66-1,2.17a16.34,16.34,0,0,1,.26,1.89c0.15,1.3.24,2.61,0.3,3.92a73.2,73.2,0,0,1,0,7.85,72.87,72.87,0,0,1-18.78,44.39C312.6,427.3,290.73,435.45,269,433.9c-3.21-.23-3.2,4.77,0,5h0Z"/>
        <path class="cls-12" d="M199.39,387.82l20.26,6.65c6.22,2,12.74,5,19.18,6.24,3.68,0.7,5.89-.65,7.34-4,2.49-5.81,3.79-12.47,5.62-18.52,0.93-3.09-3.89-4.41-4.82-1.33l-4.21,14-1.05,3.49q-1.85,2.32-4.14.79c-2.37-.25-5.1-1.67-7.37-2.42L200.71,383c-3.06-1-4.38,3.82-1.33,4.82h0Z"/>
        <path class="cls-12" d="M303.44,327.19c-23.66-4.17-50.82-6.85-70.56,9.83-16.29,13.77-19.05,38.85-6.89,56.19,1.83,2.61,6.17.12,4.32-2.52C218.8,374.29,222,351,238.37,339c18.45-13.52,42.62-10.74,63.74-7,3.15,0.56,4.5-4.26,1.33-4.82h0Z"/>
        <path class="cls-12" d="M428.86,310.66C408.8,365.17,385.49,418.44,364,472.39c-5.68,14.23-11.24,28.51-16.53,42.89-1.11,3,3.72,4.33,4.82,1.33,20.06-54.52,43.37-107.79,64.88-161.73,5.68-14.23,11.24-28.51,16.53-42.89,1.11-3-3.72-4.33-4.82-1.33h0Z"/>
        <path class="cls-12" d="M186.38,253.09q9.11,80.5,19.94,160.8Q209,434,211.85,454.1q1.38,9.8,2.78,19.6c0.59,4.15,0,11,4.09,13.4,3.53,2.06,9.71,2,13.69,2.69q8.89,1.49,17.79,2.9,17.41,2.78,34.84,5.42c13.07,2,26.15,4,39.22,6.08q9.34,1.48,18.67,3,4.65,0.78,9.3,1.58l3,0.53c1,0.18,4,1.28,3.24.39v-3.54c0.57-.73.14-0.48,0.9,0.22l0.39,3c-0.55.92,2.42-.81,2.92-1.15a13.5,13.5,0,0,0,3.47-3.41,10.79,10.79,0,0,0,1.74-9.09c-0.71-3.14-5.53-1.81-4.82,1.33,1,4.52-2.48,6.31-5.63,8.23a4.69,4.69,0,0,0-2,1.56,2.53,2.53,0,0,0,.39,3c1.4,1.29,4.9,1.41,6.17-.22a2.6,2.6,0,0,0,0-3.54c-1.88-2.21-7.36-2-10-2.46q-7.88-1.36-15.78-2.64-16.75-2.73-33.54-5.28c-22.74-3.5-45.5-6.91-68.19-10.7l-7-1.19c-2-.34-5.29-0.22-6.66-1.74-1.13-1.26-1.16-8.06-1.41-9.8q-0.77-5.39-1.53-10.78-2.78-19.6-5.45-39.22Q207,382,201.91,341.56q-5.53-44.2-10.53-88.47c-0.36-3.16-5.36-3.2-5,0h0Z"/>
        <path class="cls-12" d="M231.33,205.84c-11.1,9-22.77,17.12-34.46,25.32-5.67,4-11.27,8.05-16.76,12.29-3.07,2.37-7.39,5.85-4,10,1.78,2.18,4.92,2.36,7.48,3q6,1.45,12,3,12,3,23.87,6.25c15.87,4.27,31.69,8.75,47.5,13.22,31.6,8.94,63.2,17.9,95.2,25.33,16,3.72,32.15,7.06,48.38,9.82,5.82,1,13.4,3.52,19.19,1.13s6.65-8.18,7.84-13.61c7.42-33.81,8.52-68.59,16.23-102.35a2.54,2.54,0,0,0-2.41-3.16c-41.11-2.49-81.88-8.35-123-10.84-3.21-.19-3.2,4.81,0,5,41.11,2.49,81.88,8.35,123,10.84L449,197.85c-6.09,26.64-8,53.81-12.21,80.76-1.13,7.24-2.45,14.44-4,21.6-0.67,3.08-1,7.72-3.78,9.76-3.51,2.58-9.51.48-13.34-.14-14.38-2.36-28.67-5.19-42.89-8.34-58-12.88-114.6-31.24-172.14-46q-6.44-1.65-12.9-3.23c-1.21-.3-2.51-0.52-3.69-0.9a5.5,5.5,0,0,1-3.71-1.77q1.86-1.47,3.75-2.92c5.42-4.16,11-8.14,16.57-12.06,11.64-8.15,23.21-16.31,34.26-25.26,2.5-2-1.06-5.54-3.54-3.54h0Z"/>
      </g>
    </g>
  </g>
</svg>
