<svg id="Layer_3" data-name="Layer 3" xmlns="http://www.w3.org/2000/svg" xmlns:xlink="http://www.w3.org/1999/xlink" viewBox="0 0 580 580"><defs><style>.cls-1{fill:none;}.cls-2{clip-path:url(#clip-path);}.cls-3{clip-path:url(#clip-path-2);}.cls-4{fill:#feeb8d;}.cls-5{fill:#231f20;}.cls-6{fill:#ffd459;}.cls-7{fill:#fff;}.cls-8{fill:#004f7f;}.cls-9{fill:#feeb8c;}.cls-10{fill:#1072ba;}.cls-11{fill:#6d6e71;}.cls-12{fill:#58595b;}</style><clipPath id="clip-path"><rect class="cls-1" y="3532.36" width="580" height="580"/></clipPath><clipPath id="clip-path-2"><rect class="cls-1" x="1.89" width="580" height="580"/></clipPath></defs><title>iiLAB -U1-concepts-03-HIJACKED ACCOUNT</title><g class="cls-3"><rect class="cls-4" x="-29.46" y="-35.97" width="645" height="645"/><path class="cls-5" d="M571.89,155.88c3.22,0,3.22-5,0-5s-3.22,5,0,5h0Z"/><path class="cls-6" d="M426.47,201.55C415.26,107.68,309.72,16.37,217.21,21.7c-34.61,2-71.18-9.11-101.46,7.79C91.53,43,74.94,67,62.19,91.63c-10.86,21-19.68,43.49-21.9,67S42.95,207,57.24,225.9A78.09,78.09,0,0,0,117,256.32c3.08,0.06,6.37,0,9,1.66,5.61,3.61,4.12,11.93,3.73,18.58-1,17.69,12.43,35.09,29.82,38.5,3.32,0.65,6.9.92,9.6,3,3.85,2.91,4.55,8.28,6.35,12.76,5.6,14,22.25,19.55,37.08,22.2a275.65,275.65,0,0,0,82.22,2.19"/><path class="cls-7" d="M557.78,259.72c-1.38-4-4.11-8.58-8.32-8.28-5.24.37-6.53,7.32-7.11,12.54a54.71,54.71,0,0,1-56.89,48.68c7.07-20.7,19-39.82,28.65-59.61,5.32-10.86,10.12-22.8,8.15-34.73-1.65-10-9.92-19.42-19.5-20.65-26.29-26.79-75-28.77-102.39-2.55-11.45,10.94-19,25.28-25.86,39.53-13.17,27.2-25.33,55.75-39.9,82.39a13.78,13.78,0,0,1-2-2.37l32.27-68.57c-20-4-40.87,7.95-51.8,25.18s-13.38,38.64-12,59c0.66,9.5,2.33,19.45,7.63,27.21a192.91,192.91,0,0,1-34.81,35.58c-28.69,22.27-63.75,34.4-98.1,46.17a92.76,92.76,0,0,1,57.25,26.09c15.23,15,30.13,37.31,51.19,33.7,17.89-3.06,32.73-25.1,49.42-18,9.24,4,14,15.95,23.89,17.7,5.6,1,11.17-1.72,16.84-2.16,6.57-.51,12.95,2,19.12,4.34,56.2,21.07,65.13,23.49,132.61,21.33,9.78-.31,9.83,6.83,11,4.56a3.29,3.29,0,0,0-2.91-4.76c-28.91-.53-34.1-36.5-39.7-68.43-6-34.27-13.25-58.64-15.47-82.91,25.41-.27,50.54-12.62,66-32.83A85.3,85.3,0,0,0,557.78,259.72Z"/><path class="cls-8" d="M406.23,204.71c-7-56.51-43.89-106.37-88.53-139.87-22.89-17.18-49-30.72-76.83-37.73a158,158,0,0,0-39.83-5c-7.92.07-15.78,0.59-23.71,0.32-8.62-.29-17.22-1-25.83-1.43-16.47-.86-33.55-1-49.26,4.7C87.46,31.08,74.69,41.3,64.3,52.91c-10.7,12-19.25,25.7-26.65,39.9-8.33,16-15.52,32.82-19.59,50.45C10.86,174.5,14.21,210.11,36.14,235a80.93,80.93,0,0,0,37.74,23.83c7.24,2.12,14.46,2.82,22,3.18,5.44,0.26,8.63,2.3,9.05,7.92,0.27,3.5-.34,7-0.45,10.49-0.43,13.27,6.55,26.12,17.22,33.82,5.89,4.25,11.89,5.49,18.78,7.19,8.84,2.18,8.26,12,12.63,18.49,7.48,11.16,21.48,15.78,34,18.24a267.85,267.85,0,0,0,56.21,4.7,284.16,284.16,0,0,0,28.72-2c3.15-.38,3.19-5.38,0-5a280.23,280.23,0,0,1-54.62,1.3c-15.87-1.2-33.93-2.55-48.35-10-6.12-3.17-11.4-7.71-14-14.21-2.41-5.93-3.36-12.43-9.89-15.25-2.88-1.24-6-1.41-9.05-2.14a33.08,33.08,0,0,1-10.18-4.42A37,37,0,0,1,112.3,295c-3-6.77-2.85-13.27-2.45-20.47,0.27-5,.13-10.8-3.86-14.42-4.92-4.46-13-2.9-19-3.64a74.62,74.62,0,0,1-22.64-6.58c-30.22-14.29-45-45.69-44.76-78.14,0.28-34,15.55-67.81,33.71-95.94,8.55-13.24,18.84-25.65,31.64-35,13.54-9.88,28.79-14.37,45.44-15.07s33,1.4,49.58,1.8c13.75,0.33,27.28-1,41,.81,26.87,3.49,52.6,14,75.59,28.1,46.81,28.75,87.14,75.13,101.06,129.08a151.45,151.45,0,0,1,3.67,19.19c0.39,3.15,5.4,3.19,5,0h0Z"/><path class="cls-8" d="M500.75,207.45C485,187.33,458.62,177.74,433.51,180a74.54,74.54,0,0,0-35.27,12.2c-12.62,8.62-21.45,21.44-28.59,34.73-30,55.87-48.89,119.82-97.93,163.12-30,26.44-68.21,39.75-105.4,52.49a2.51,2.51,0,0,0,.66,4.91,91.36,91.36,0,0,1,42.94,15.13c11.74,7.88,20.29,19,30.26,28.81,8.14,8,18,15.9,30,16.24s21.93-7.49,31.67-13.53c5-3.09,10.6-6.41,16.67-6.22,6.58,0.21,11.09,5,15.36,9.41,3.7,3.84,7.66,7.89,13,9.33,7.27,2,14.15-2.12,21.39-1.83,8.26,0.33,16.44,4.54,24.08,7.39,6.1,2.27,12.2,4.51,18.35,6.64a239.9,239.9,0,0,0,29,8.42c21.92,4.62,44.52,4.16,66.79,3.58,6-.16,13.71-2,18.36,2.63,1.64,1.65,3.57,3.19,5.46.66,2.45-3.29-.21-7.68-3.66-8.6-2.41-.64-5-0.38-7.49-1a24,24,0,0,1-7.6-3.4c-9.3-6.29-13.57-18.1-16.48-28.43-3.58-12.69-5.43-25.79-7.8-38.73-5.19-28.35-13.87-56.64-15.08-85.58a136.53,136.53,0,0,1,4.42-41.52c4.32-15.85,11.85-30.54,19.49-45,11.09-21,35.27-58.68,7.5-77.33a21.26,21.26,0,0,0-16-3.3c-3.16.57-1.82,5.39,1.33,4.82,7.6-1.37,14.48,3.25,18.48,9.44,4.44,6.88,4.66,15.2,2.91,23-3.51,15.59-12.82,29.93-20.17,43.95-7,13.31-13.71,26.92-17.88,41.41a139.28,139.28,0,0,0-5.2,39c0.12,26.12,7.21,51.68,12.41,77.1,2.86,14,5,28.17,7.9,42.17,2.26,10.74,5.07,21.85,10.74,31.36,4.67,7.83,11.67,14.19,20.79,16.12,1.59,0.34,10.17,1.63,10.28,1.36,0.2-.49-2.4-2.6-2.73-2.86-4.49-3.42-10.32-2.54-15.59-2.38-22.39.65-45.28,1.52-67.39-2.78s-42.74-13.7-64.08-20.83a37.47,37.47,0,0,0-21.26-.94c-8.12,1.78-13.13.29-18.94-5.54-7.4-7.43-14.47-14.6-25.87-12.21-11,2.32-19.61,10.94-29.47,15.82-12.51,6.19-24.23,2.53-34.45-6.12-9.75-8.25-17.37-18.66-26.93-27.1a96,96,0,0,0-35.94-19.92A98,98,0,0,0,167,442.48l0.66,4.91c31.69-10.86,64.06-22,91.75-41.31,24.89-17.39,44.2-41.11,59.84-66.92,16-26.39,28.44-54.71,41.5-82.61,12.82-27.37,26-58.39,57.15-68.34,28-8.93,61-.7,79.33,22.77,2,2.53,5.49-1,3.54-3.54h0Z"/><path class="cls-8" d="M406.47,204.8l5.19,3.77c1.38,1,3.22-.1,3.67-1.49a10.77,10.77,0,0,0-7-13.38c-3.07-1-4.38,3.83-1.33,4.82a5.72,5.72,0,0,1,3.48,7.23l3.67-1.49L409,200.48c-2.61-1.89-5.11,2.44-2.52,4.32h0Z"/><path class="cls-8" d="M451.3,247c-4.66,4.28-10,10.13-10.16,16.89-0.12,5.37,3.55,9.69,8.54,11.29,10.42,3.34,25.29-1.73,31.9-10.28,7.94-10.29,2-23.5-8.9-28.62-3.89-1.82-10.35-3.76-14.29-1a7.3,7.3,0,0,0-2.58,3.85c-1.14,3.26-1.69,5.52-4.51,7.89-2.47,2.07,1.09,5.59,3.54,3.54a15.64,15.64,0,0,0,5-7.22c0.31-.93.38-2.45,1-3.24,1.24-1.68,4.11-1,5.95-.6,9,2.09,17.25,11.7,11.93,20.88-4,6.89-13.32,10.13-20.87,10.63-4.75.32-11.85-.8-11.65-7.09,0.17-5.33,5-10,8.7-13.35,2.38-2.18-1.17-5.71-3.54-3.54h0Z"/><path class="cls-8" d="M412.06,233.21c-14-3.62-23.86,14-12.4,23.53a13,13,0,0,0,16.91-.23,14.38,14.38,0,0,0,4.79-8c0.89-4.37-1.52-5.7-4.56-8.48-2.37-2.17-5.91,1.36-3.54,3.54,0.83,0.76,3,2.05,3.32,3.13,0.53,1.54-1.69,4.46-2.69,5.45a8.1,8.1,0,0,1-11.59.24c-6.69-6.39-.14-16.61,8.41-14.4,3.12,0.81,4.45-4,1.33-4.82h0Z"/><path class="cls-8" d="M467.14,319.71A58.48,58.48,0,0,0,516,307.47a58.5,58.5,0,0,0,18.94-31.11c0.89-3.91.91-8,2.06-11.87,0.49-1.66,1.31-4.27,3.26-4.74,2.75-.66,4.61,2.54,5.57,4.53,2.07,4.29,3.08,9.43,3.9,14.09a82.47,82.47,0,0,1-.28,29.42A80.64,80.64,0,0,1,521.79,355a83.47,83.47,0,0,1-57.73,18.78c-3.21-.19-3.2,4.81,0,5,39.5,2.29,76.8-23.16,88.1-61.23a89.29,89.29,0,0,0,3.61-28.86c-0.36-9-1.64-19.54-6-27.56-3.11-5.74-10.36-9.38-15.2-3.24-2,2.48-2.71,5.73-3.2,8.79-0.77,4.83-1.38,9.51-3,14.16-8.59,24.62-34.47,38.94-59.91,34-3.14-.61-4.49,4.21-1.33,4.82h0Z"/><path class="cls-7" d="M356,251.83c-20-4-40.87,7.95-51.8,25.18s-13.38,38.64-12,59c0.74,10.72,2.76,22,9.85,30.09,5.55,6.33,13.58,9.92,21.62,12.42,18.53,5.75,39.78,6.28,56.3-3.89s25.73-33.13,16.36-50.12c-5.81-10.52-17-16.74-27.58-22.41a36,36,0,0,1,6.79,12.68l-17.44-13.56-6.75,20.71-12.68-8.19-2.45,13a14.61,14.61,0,0,1-12.52-6.39"/><path class="cls-8" d="M356.69,249.42c-22.31-4-44.13,8.84-55.49,27.74-12.43,20.68-14.87,49.13-9.61,72.41,2.56,11.35,8.79,20.73,19.13,26.33s22.85,8.45,34.6,9.09c22.34,1.21,45-8.06,54-29.71,4.07-9.81,4.61-21.17-.19-30.84-5.86-11.79-18-18.53-29.1-24.5-2.64-1.41-4.74,1.77-3,3.93a36.12,36.12,0,0,1,6.15,11.57l4.18-2.43-17.44-13.56a2.54,2.54,0,0,0-4.18,1.1L349,321.27l3.67-1.49L340,311.59a2.52,2.52,0,0,0-3.67,1.49l-2.45,13,2.41-1.84a12.6,12.6,0,0,1-10.36-5.15c-1.9-2.55-6.25-.06-4.32,2.52a17.9,17.9,0,0,0,14.68,7.62,2.52,2.52,0,0,0,2.41-1.84l2.45-13-3.67,1.49,12.68,8.19a2.53,2.53,0,0,0,3.67-1.49l6.75-20.71-4.18,1.1,17.44,13.56c1.78,1.38,5,.2,4.18-2.43a43.16,43.16,0,0,0-7.44-13.78l-3,3.93c8.55,4.58,17.59,9.37,23.75,17.09s7.63,17.52,5.19,26.88c-5.39,20.7-25.14,31.42-45.47,31.85s-46.91-6.16-53.56-27.94c-3-9.91-3.34-20.82-3-31.11a94.15,94.15,0,0,1,6.21-31.65c8.61-21.47,30.43-39.53,54.67-35.15,3.15,0.57,4.5-4.25,1.33-4.82h0Z"/><rect class="cls-8" x="57.74" y="129.54" width="112.78" height="112.78" rx="8.33" ry="8.33" transform="translate(-40.35 31.87) rotate(-13.54)"/><path class="cls-7" d="M130.58,153.91c-7-6-18.48-7-27.06-3.91-8.41,3-12.24,11.31-13.45,19.62-1.57,10.77-.57,22.16.31,33,0.5,6.09,1.2,12.16,2.07,18.2,0.69,4.82.29,12.35,4.72,15.26a4.13,4.13,0,0,0,4.2,0l0.8-.47a4.34,4.34,0,0,0,1.91-4.7,4.85,4.85,0,0,0-5.25-4c-5.28.52-5.34,8.85,0,8.33l0.63-.06-2.94-1.22-0.46-.8,1.91-4.7-0.8.47h4.2l-0.78-.51,1.91,2.49a263.65,263.65,0,0,1-4.73-53.43c0.13-5.79.58-13.37,5.2-17.56,4.89-4.43,16.7-4.33,21.72,0,4.06,3.46,10-2.4,5.89-5.89h0Z"/><path class="cls-7" d="M77.4,205.71l26.94-4.41c5.75-.94,14.75-1.09,14.88-8.82,0.09-5.36-8.24-5.36-8.33,0,0-1.26-.73-0.56-2-0.32-1.6.3-3.21,0.53-4.81,0.79l-9.62,1.58-19.24,3.15c-5.28.86-3,8.89,2.21,8h0Z"/><path class="cls-9" d="M166.86,221.9c0.15,5-7.15,4.71-10.63,5.22l-20,3-47.18,7c-3.54.52-7.68,1.79-11.28,1.67-4.23-.15-4.09-5.91-4.54-9l-6.52-44.14-3.39-23c-0.6-4.08-1.78-8.47-1.86-12.6-0.09-4.35,4.22-4.32,7.42-4.8l17.8-2.63,48.53-7.17c4.68-.69,9.44-1.74,14.16-2.09,4.07-.31,4.83,2.66,5.32,6l11.94,80.85,0.35,2.38c0.47,3.17,5.29,1.82,4.82-1.33l-12-81.45c-0.71-4.79-1.18-10.13-7-11.41-3.42-.75-7.83.59-11.21,1.09l-49.83,7.36-21.84,3.23c-3.82.56-8.7,0.52-11.42,3.67-3.13,3.62-1.71,8.36-1.08,12.6l3.11,21.07,7.5,50.76c0.49,3.35.46,7.58,1.9,10.73,2.56,5.6,8.05,4.84,13,4.12l46.59-6.88c11.79-1.74,24.12-2.63,35.74-5.28a8.45,8.45,0,0,0,6.72-8.92C171.76,218.69,166.76,218.68,166.86,221.9Z"/><rect class="cls-10" x="158.91" y="39.94" width="119.77" height="119.77" rx="8.33" ry="8.33" transform="translate(-14.15 40.07) rotate(-10.14)"/><path class="cls-8" d="M273.11,139.56c0,5.73-7.74,5-11.68,5.48l-21.91,2.42-49.11,5.43c-3.57.39-7.57,1.38-11.18,1.23-5.62-.23-5-5.87-5.46-9.93l-5.14-46.55L166,73.91c-0.47-4.23-1.58-8.88-1.45-13.15,0.17-5.56,4-5.31,8.08-5.76l19.06-2.11,50.75-5.61c4.86-.54,9.84-1.46,14.73-1.63,2.52-.09,5,0,5.91,3.16a20.25,20.25,0,0,1,.36,3.29l9.39,85,0.27,2.44c0.29,2.63,4.46,2.66,4.16,0L267.81,53.9c-0.52-4.69-.51-10-5.79-12.06-3.46-1.33-8.42,0-11.94.44l-52.47,5.8L175,50.58c-3.87.43-9.4,0.2-12.34,3.14-3.42,3.43-2.12,8.32-1.65,12.56l2.47,22.32,5.85,52.94c0.39,3.56.25,7.84,1.42,11.28,2.07,6.09,7.77,5.55,12.78,5l49.3-5.45c12.28-1.36,24.84-2.05,37-4.09a8.38,8.38,0,0,0,7.42-8.71C277.29,136.88,273.12,136.88,273.11,139.56Z"/><path class="cls-7" d="M244.08,56.13A17.15,17.15,0,0,0,239,64.22a25.89,25.89,0,0,1,11.31-6.73,67.35,67.35,0,0,1-4.06,12.9,22.29,22.29,0,0,1,11.57-3.1,19.1,19.1,0,0,1-11.34,12.62c-3.37,1.31-7.69,2.15-8.81,5.59-0.7,2.14.22,4.43,1.09,6.51,3,7.17,5.75,14.67,5.87,22.46s-2.77,16-9.1,20.54c-5.63,4-12.93,4.64-19.75,5.85A95.14,95.14,0,0,0,175.93,158a57.22,57.22,0,0,1,17.57-29.4A110.16,110.16,0,0,1,161.8,126a14,14,0,0,1-6.29-2.67c-1.85-1.63-2.77-4.06-3.53-6.41a102.25,102.25,0,0,1-4.92-35.15c18,17.7,49.41,19.32,69.1,3.56l-6.79-8.43c-1-1.22-2-2.73-1.54-4.21,0.39-1.21,2.79-8.69,3.95-9.21,5.45-2.42,21.3,1.28,27.23.71"/><path class="cls-8" d="M242.61,54.66a21.89,21.89,0,0,0-5.6,9c-0.69,2,2,3.39,3.48,2a26.11,26.11,0,0,1,10.39-6.2l-2.56-2.56a76.44,76.44,0,0,1-4.06,12.9c-0.74,1.79,1.62,3.13,3.06,2.35a22.56,22.56,0,0,1,10.52-2.82l-2-2.64c-2.32,7.37-7.41,9.94-14,12.67-3.34,1.38-6.27,3.52-6.44,7.44-0.26,5.7,4.17,12.09,5.64,17.58,1.72,6.42,2.26,13.24,0,19.6-5,14.06-20.28,13.16-32.37,16.23a98.7,98.7,0,0,0-33.77,16l3.06,2.35a57,57,0,0,1,17-28.48,2.1,2.1,0,0,0-1.47-3.55,114.92,114.92,0,0,1-18.75-.41c-5.51-.6-15.89-0.84-19.27-6.1-3-4.7-3.94-11.87-4.9-17.28a103.77,103.77,0,0,1-1.44-20.94l-3.55,1.47c19.37,18.51,50.94,19.93,72,3.56,1-.74.63-2.16,0-2.94-1.89-2.34-3.8-4.66-5.66-7s-2.15-3.67-1.2-6.4c1.38-3.93,1.57-5.51,5.9-5.68,7.47-.3,14.88,2,22.34,1.53,2.66-.17,2.68-4.33,0-4.16-5.23.33-10.53-.78-15.73-1.24-3.59-.31-9.58-1.33-12.76,1-2.52,1.82-3.9,7-4.55,9.86-1.27,5.59,5.59,11.2,8.73,15.1V83.89c-19.28,15-48.58,13.24-66.16-3.56A2.11,2.11,0,0,0,145,81.8a109.47,109.47,0,0,0,1.76,23c1.12,6,2.23,14.13,6.3,19s11.82,5.18,17.44,6a116.32,116.32,0,0,0,23,.95L192,127.14a60.93,60.93,0,0,0-18.11,30.32c-0.41,1.61,1.51,3.48,3.06,2.35a95.32,95.32,0,0,1,37.7-16.65c11.41-2.24,23.23-3.21,29-14.84,5.66-11.39,2.24-24.08-2.24-35.21-0.94-2.34-2.89-5.55-1.14-8.08,0.87-1.26,3.06-1.77,4.37-2.27A31.77,31.77,0,0,0,250.8,80a22,22,0,0,0,9.05-12.19,2.1,2.1,0,0,0-2-2.64,27.37,27.37,0,0,0-12.62,3.39l3.06,2.35A76.44,76.44,0,0,0,252.33,58a2.1,2.1,0,0,0-2.56-2.56,31,31,0,0,0-12.22,7.27l3.48,2a17.15,17.15,0,0,1,4.53-7.17c1.92-1.88-1-4.82-2.94-2.94h0Z"/><rect class="cls-7" x="177.2" y="166.58" width="119.77" height="119.77" rx="8.33" ry="8.33" transform="translate(-32.4 413.2) rotate(-78.41)"/><path class="cls-11" d="M270,280.46c-0.32.81-4.15,2.75-5.3,2.75a9.06,9.06,0,0,1-1.5-.4c-2-.38-4-1.08-6-1.61L237.8,276l-45.22-12.23c-2.86-.77-7.69-1.12-10.2-2.76a29.22,29.22,0,0,1-3-5,7.17,7.17,0,0,1,.26-1,31.56,31.56,0,0,1,1.31-4.83l11.55-42.7,5.89-21.8c1-3.57,1.41-8.51,3.19-11.78a7.3,7.3,0,0,1,5.55-3.35,17.77,17.77,0,0,1,3.94,1.07l17.5,4.73,45.9,12.41c4.43,1.2,9.45,1.93,13.69,3.7,4,1.66,4.24,4.89,3.3,8.38l-21,77.48L270,280.46c-0.66,2.45,3.13,3.49,3.79,1l21.19-78.38c1.17-4.33,2.78-9.05-1.36-12.53-2.75-2.31-7.53-2.84-10.87-3.75L235,173.94l-21.07-5.7c-3.6-1-8-2.89-11.61-1.16-4.23,2-4.8,6.94-5.89,11l-5.53,20.43L177.8,246.83c-0.88,3.25-2.63,7.23-2.42,10.68,0.37,5.81,5.4,7.11,10,8.35l45.36,12.26c11,3,22.07,6.91,33.23,9,4.62,0.86,8.09-1.32,9.79-5.6C274.68,279.15,270.88,278.13,270,280.46Z"/><path class="cls-12" d="M269.27,200.44c-15.85-7-32.66-12.24-47.69-.53-12,9.38-21.58,25.91-20.95,41.52,1.42,34.73,60.76,17.65,61.54-10.09a3.83,3.83,0,0,0-3.76-3.76,175,175,0,0,1-28.72-3.77c-4.72-1-6.74,6.23-2,7.25a187.56,187.56,0,0,0,30.72,4l-3.76-3.76c-0.32,11.32-13.45,17.51-22.77,20.46-6,1.89-12.85,2.91-18.46-.61s-5.85-10.55-4.67-16.54a48.66,48.66,0,0,1,17.78-29.11c12.29-9.29,26.23-4.25,38.94,1.38,4.39,1.94,8.22-4.54,3.8-6.5h0Z"/></g></svg>