<svg xmlns="http://www.w3.org/2000/svg" xmlns:xlink="http://www.w3.org/1999/xlink" viewBox="0 0 580 580"><defs><style>.cls-1{fill:none;}.cls-2{isolation:isolate;}.cls-3{clip-path:url(#clip-path);}.cls-4{fill:#ffec8d;}.cls-5{mix-blend-mode:multiply;fill:url(#linear-gradient);}.cls-6{fill:#014e7f;}.cls-7{fill:#fff;}.cls-8{fill:#da1f47;}.cls-9{fill:#f6b319;}.cls-10{fill:#eb6f24;}.cls-11{clip-path:url(#clip-path-2);}</style><clipPath id="clip-path"><rect class="cls-1" width="580" height="580"/></clipPath><linearGradient id="linear-gradient" x1="36.84" y1="177.66" x2="734.89" y2="177.66" gradientUnits="userSpaceOnUse"><stop offset="0" stop-color="#fff"/><stop offset="1" stop-color="#ffd459"/></linearGradient><clipPath id="clip-path-2"><rect class="cls-1" x="21.25" y="2583.71" width="580" height="580"/></clipPath></defs><title>iiLAB -U1-concepts-01-STARTING</title><g class="cls-2"><g id="Layer_2" data-name="Layer 2"><g class="cls-3"><rect class="cls-4" x="-20.84" y="-18.36" width="625.21" height="625.21"/><circle class="cls-5" cx="385.87" cy="177.66" r="349.03"/><path class="cls-6" d="M169.59,490.52l0.32,8.81c0.1,2.74.19,4.06,2.8,5.29,3.76,1.78,8.5,2,12-.41,6.55-4.52,3.09-16.1-5.21-14.85-3.17.48-1.82,5.3,1.33,4.82,2.44-.37,2.81,4,1.78,5.26-2.11,2.68-6.5,1.53-8.89,0l1.24,2.16-0.41-11.12c-0.12-3.21-5.12-3.22-5,0h0Z"/><polygon class="cls-7" points="504.99 292.26 204.31 319.08 178.03 123.14 490.2 81.25 504.99 292.26"/><path class="cls-6" d="M496.12,267.59l-90.23,14.17L263.16,304.19l-33,5.19,3.08,1.75-11.87-58.49L202.5,159.86l-4.37-21.55-1.75,3.08,93.36-18.95,147.75-30,34.22-6.95-3.08-1.75,8.72,63.34,13.82,100.4,3.19,23.17c0.44,3.17,5.26,1.82,4.82-1.33L490.47,206,476.65,105.6l-3.19-23.17c-0.19-1.4-1.9-2-3.08-1.75L377,99.63l-147.75,30-34.22,6.95a2.55,2.55,0,0,0-1.75,3.08l11.87,58.49L224,290.9l4.37,21.55a2.56,2.56,0,0,0,3.08,1.75L321.68,300,464.41,277.6l33-5.19C500.62,271.92,499.27,267.1,496.12,267.59Z"/><path class="cls-6" d="M458.39,94.74l-76,94.45-10.86,13.5,2.43-.64L314,182.73l-95.86-30.85-22.19-7.14c-3.07-1-4.38,3.84-1.33,4.82l60.06,19.33,95.86,30.85,22.19,7.14a2.44,2.44,0,0,0,2.43-.64l76-94.45,10.86-13.5c2-2.48-1.52-6-3.54-3.54h0Z"/><path class="cls-6" d="M310.78,191.39c-9.45,16.8-19.92,33.07-30.35,49.28s-20.9,32.47-32.27,48c-1.9,2.6,2.44,5.1,4.32,2.52,11.38-15.57,21.84-31.83,32.27-48s20.89-32.48,30.35-49.28c1.58-2.81-2.74-5.33-4.32-2.52h0Z"/><path class="cls-6" d="M396.6,181.12c15.71,15.54,33.08,29.5,49.67,44.07,9.76,8.57,19.5,17.19,29,26.09,6.71,6.3,13.74,12.67,19.38,20,1.94,2.51,6.28,0,4.32-2.52-9.81-12.73-22.58-23.42-34.49-34.1-15.31-13.73-30.93-27.1-46.37-40.69-6.07-5.34-12.19-10.67-17.95-16.36-2.29-2.26-5.83,1.27-3.54,3.54h0Z"/><path class="cls-6" d="M506.69,392.49c3.22,0,3.22-5,0-5s-3.22,5,0,5h0Z"/><path class="cls-7" d="M291.3,371.46c1.86-7.16-.49-15.46-6.36-20s-15.09-4.35-20.3.9c5.77-5.21-7.54-16.1-9.38-23.65,9.21-3.43,19.58-10.22,18.59-20C272.77,298,259.24,294,248.45,293.64c-19.29-.6-41.78,4.42-50,21.87,2.39-4.17.4-9.76-3.26-12.87s-8.56-4.27-13.28-5.13c-12.79-2.32-26.23-3-38.58,1-12.11,4-23,13.25-26.43,25.5,1.83-7.32-7-13.36-14.57-15.22-18.45-4.52-47-3.31-58.28,14.37-4.09,6.39-5.24,14.63-9.54,21.39-5.82,9.15-15,14.73-2,23.7A59.94,59.94,0,0,0,56.68,378C52.49,384.34,42,384.81,39,391.8c-2.7,6.25,2.57,13.06,8.16,16.94a53.47,53.47,0,0,0,28,9.41c-5.41,3.12-12.92,3.1-16.53,8.2-3.75,5.31-.43,13.22,5.12,16.62s12.42,3.51,18.92,3.54l16.09,0.05a112.23,112.23,0,0,1-.11-27.09c1.39-12.44,5.49-32.45,10.23-44,10.91,9.24,27.34,10.23,42.06,10.47,7.69,0.12,17.92-1.9,18.48-9.58a46.74,46.74,0,0,0,33.34,20.79,45.71,45.71,0,0,0,15.77-.94l-0.7-1.92c10.53,28.61,12.79,42.13,5.89,68.48l8.41,1.11c29.09-7.59,42.34-35.7,34.71-54.45a12.57,12.57,0,0,0,18.61-15.9,7.24,7.24,0,0,0-6.13,3.31,6.62,6.62,0,0,0-1.88-9.49C284,384.24,289.48,378.47,291.3,371.46Z"/><path class="cls-6" d="M147.69,386.45a41.55,41.55,0,0,0-25.82,15.47c-2,2.51,1.56,6.07,3.54,3.54A37.49,37.49,0,0,1,149,391.28c3.16-.55,1.82-5.37-1.33-4.82h0Z"/><path class="cls-6" d="M208.08,389.71a41.55,41.55,0,0,0-25.82,15.47c-2,2.51,1.56,6.07,3.54,3.54a37.49,37.49,0,0,1,23.62-14.18c3.16-.55,1.82-5.37-1.33-4.82h0Z"/><path class="cls-6" d="M144.39,417c3.4-1.68,7.32,3.48,3,5.19-3.84,1.53-3.52-4.43-.38-4.08a2.52,2.52,0,0,0,2.5-2.5,2.56,2.56,0,0,0-2.5-2.5c-4.4-.49-7.74,4-7.49,8.12,0.29,4.7,5.05,7.23,9.32,5.73s6.94-6.22,4.76-10.51a8.91,8.91,0,0,0-11.74-3.77c-2.89,1.42-.35,5.74,2.52,4.32h0Z"/><path class="cls-6" d="M199.61,412.56c1.9-.94,4-2.08,6.23-2,1.21,0,3.6.93,3.47,2.59-0.11,1.5-2.16,1.39-3.19,1-1.81-.71-3.1-2.76-4.15-4.26-1.83-2.62-6.17-.12-4.32,2.52,2.24,3.21,4.92,6.63,9.13,7,3.3,0.26,6.66-1.52,7.4-4.93s-1.58-6.58-4.43-8c-4.17-2.1-8.85,0-12.67,1.86-2.88,1.43-.35,5.74,2.52,4.32h0Z"/><path class="cls-6" d="M185.5,390.25A25.89,25.89,0,0,0,167.83,420c1.52,7.39,5.92,13.79,10.16,19.87q8.09,11.6,16.23,23.16l1.49-3.67a77.11,77.11,0,0,1-36.84,4.1c-3.18-.41-3.15,4.59,0,5A80.26,80.26,0,0,0,197,464.16c1.39-.51,2.49-2.25,1.49-3.67-7.65-10.91-16.59-21.66-22.78-33.48-6.37-12.17-3.07-27.37,11.07-31.93,3-1,1.75-5.81-1.33-4.82h0Z"/><path class="cls-6" d="M206.9,466.12c3.22,0,3.22-5,0-5s-3.22,5,0,5h0Z"/><path class="cls-6" d="M234.12,416.81c1.86-5.68,9.14-9.14,11.67-2,1.35,3.81,1.81,12.86-.69,14.92a31.19,31.19,0,0,1-6.24,3.54,32.56,32.56,0,0,1-3.19,1.38c-0.53.19-2.17,0.51-1.72,0.61-3.13-.72-4.47,4.1-1.33,4.82,2.53,0.58,5.33-.92,7.57-1.94a35.08,35.08,0,0,0,8.71-5.06c2.66-2.34,2.55-6.3,2.73-9.63a25.48,25.48,0,0,0-1.51-11.28c-4.72-11.14-17.7-6.16-20.81,3.3-1,3.06,3.82,4.38,4.82,1.33h0Z"/><path class="cls-6" d="M217.9,390.56c15.37,25.49,19.59,57.06,10.59,85.55a105.73,105.73,0,0,1-50.85,60.8h2.52c-22.51-14.23-46.57-29.54-60.19-53.21-16-27.89-12.28-63.09-.75-91.89,0.62-1.54-.93-3.17-2.41-3.16C103,388.7,93.53,404.82,100,417c1.52,2.84,5.84.31,4.32-2.52-4.75-8.84,2.48-20.76,12.45-20.8l-2.41-3.16c-11.84,29.57-15.37,65.62.51,94.42,13.86,25.15,39.1,41.39,62.73,56.33a2.52,2.52,0,0,0,2.52,0,110.82,110.82,0,0,0,53.15-63.78c9.38-29.7,4.93-62.82-11.1-89.4-1.66-2.75-6-.24-4.32,2.52h0Z"/><path class="cls-6" d="M108.12,428.28a49.22,49.22,0,0,0-26.83,14.31c-6.6,6.92-12.65,17.18-8.86,26.94,3.07,7.92,11.35,12.73,19.48,13.75,11.38,1.43,22.2-4.42,31.68-9.95,2.78-1.62.26-5.94-2.52-4.32-7.84,4.57-16.47,9.51-25.83,9.49-7.37,0-16.05-4-18.42-11.51-2.76-8.82,4.58-18.06,10.74-23.5a44.85,44.85,0,0,1,21.89-10.38c3.16-.57,1.82-5.39-1.33-4.82h0Z"/><path class="cls-6" d="M278.14,398.93c11.81-5.62,19.71-18.86,14.42-31.74-4.9-11.94-20.06-16.14-29.85-7.28l3.54,3.54c4.36-4.56,3.17-12.62,2.43-18.26a202.43,202.43,0,0,0-4.52-21.85c-0.35-1.42-2.39-2.48-3.67-1.49l-0.07.05a2.68,2.68,0,0,0-1.15,2.82c0.37,2.33,4.28,4.69,5.79,6.22,1.34,1.35,3.35,3.07,4,4.93,0.83,2.47-.56,2.6-3,3.1-3.15.65-1.82,5.47,1.33,4.82,5.48-1.13,8.87-5,6-10.45a27.94,27.94,0,0,0-5.32-6.5c-0.85-.84-1.74-1.63-2.6-2.45a7.2,7.2,0,0,0-1.18-1.1c-0.64-.28-0.37-1.2-0.16.1l-1.15,2.82,0.07-.05-3.67-1.49c1.41,5.74,2.83,11.48,3.83,17.3,0.76,4.42,3.15,14.16-.45,17.93-2.24,2.34,1.15,5.69,3.54,3.54,8.29-7.49,20.19-1.63,22.57,8.32s-4.59,18.75-13.19,22.85c-2.9,1.38-.37,5.7,2.52,4.32h0Z"/><path class="cls-6" d="M232.66,475.52c23.6-6.49,46.4-31.73,36.46-57.53l-3.67,2.82c13.29,8.54,28.2-5.29,22-19.32a2.41,2.41,0,0,0-2.16-1.24,10.41,10.41,0,0,0-7.9,4l3.93,3a9.25,9.25,0,0,0-3-13c-2.72-1.74-5.23,2.59-2.52,4.32,2.31,1.48,2.61,4,1.18,6.19s2.14,5.27,3.93,3a5.29,5.29,0,0,1,4.36-2.57L283.16,404c4.33,9.85-6.54,18-15.19,12.48-1.73-1.11-4.47.77-3.67,2.82,9,23.25-11.79,45.56-33,51.38-3.1.85-1.78,5.68,1.33,4.82h0Z"/><path class="cls-6" d="M101.19,453.35c-6.22,0-12.44,0-18.65-.06s-13.31.11-18.45-3.79c-4.8-3.64-6.86-11-1-14.69,4-2.49,9-3,13.18-5.22,2.33-1.22,1.07-4.52-1.26-4.66-11.12-.65-28.64-5.29-33.49-16.76-2.77-6.55,2.46-9.75,7.53-12.36,3.75-1.94,7.06-3.85,9.61-7.28a2.51,2.51,0,0,0-1.49-3.67A59.47,59.47,0,0,1,35,376.36c-3-1.92-7.56-4.84-6.69-9,0.46-2.19,2.21-4.18,3.52-5.93A63.06,63.06,0,0,0,41,345.26c2.44-6.54,4.73-12.76,10.19-17.41,8.86-7.55,21.47-9.6,32.75-9.49a75.89,75.89,0,0,1,16.44,1.88c5.8,1.35,15.69,5.53,13.71,13.11-0.81,3.12,4,4.43,4.82,1.33,4.22-15.15,18.58-24.18,33.46-26.53,8.89-1.41,18.1-.76,26.94.74,6.54,1.11,21.45,4.68,16.8,14.64-1.34,2.88,2.86,5.43,4.32,2.52,8.45-16.88,29.28-21,46.53-20.66,7.62,0.14,18.76,1.54,23,8.92,5.94,10.37-7.63,18.27-15.48,21.31-3,1.15-1.68,6,1.33,4.82,9.4-3.64,21.4-10.66,20.43-22.41-0.87-10.49-11.7-15.36-20.82-16.9-20.71-3.5-49.07,2-59.29,22.39L200.4,326c3.64-7.81-1.17-15.56-8.48-18.93-9.65-4.46-22.76-5.16-33.22-4.61-19.3,1-39.14,11.09-44.64,30.85l4.82,1.33c3.1-11.89-10.59-18.08-20-19.85a78.36,78.36,0,0,0-33,.51C55.18,318,45.12,323.93,40.09,334c-3.32,6.66-4.76,14-9.08,20.22-2.74,3.92-6.86,7.76-7.69,12.68-1,5.67,3.47,9.82,7.72,12.77a62.7,62.7,0,0,0,24.82,10L54.36,386c-3.79,5.08-11,5.91-15.33,10.43-3.89,4-4.17,9.74-1.68,14.61,6.53,12.78,24.46,18.1,37.68,18.88l-1.26-4.66c-5.58,2.92-13,3.19-17,8.6-3.51,4.7-2.64,10.89.48,15.56,3.69,5.51,10,7.71,16.32,8.46,9.09,1.07,18.52.44,27.66,0.47,3.22,0,3.22-5,0-5h0Z"/><path class="cls-6" d="M237.35,369.94a44.14,44.14,0,0,1-66.66-7.77c-1-1.57-4.25-1.72-4.57.6-1.53,10.94-21.9,7.8-29.33,7.15A64.09,64.09,0,0,1,119,366.12c-1.62-.64-16.68-9.36-13.53-11.55h-2.52c5.51,3.21,4,11.21,0,15-4.92,4.69-12.78,5.24-19.18,5.74-3.19.25-3.21,5.25,0,5,8.93-.7,20.24-1.94,25.34-10.46,3.87-6.47,3.28-15.61-3.64-19.64a2.47,2.47,0,0,0-2.52,0c-6.38,4.45.27,11.71,4.42,15,7,5.47,15.67,7.93,24.35,9.12,10.37,1.42,37,5.43,39.24-10.24l-4.57.6a49.24,49.24,0,0,0,74.52,8.79c2.37-2.19-1.18-5.72-3.54-3.54h0Z"/><path class="cls-8" d="M440,251.3c-2.34-5.2-7.41-6-11.27-1.81L325.59,362.09c-3.85,4.21-2.39,8.31,3.26,9.11l166.23,23.65c5.65,0.8,8.35-2.79,6-8Z"/><path class="cls-6" d="M434.83,265.54c-4.14-6.88-10.68-5.28-15.22-.11l-11.06,12.62L371.19,320.7c-8.82,10.07-17.86,20-26.49,30.23-4.39,5.21-4.1,11.66,3.39,13.48,3.19,0.77,6.51,1.17,9.74,1.75L462.19,385l16.65,3c4.09,0.74,9.6,2.08,11.83-2.61,1.79-3.77-1-7.95-2.64-11.32l-8.35-17-43.86-89.43-1-2c-1.7-3.47-6.88-.43-5.18,3l35.23,71.83,18.15,37c0.84,1.72,3.27,4.88.48,5.31s-6.89-1.24-9.52-1.71l-97.46-17.54-18.68-3.36c-2.31-.42-6.1-0.35-8.2-1.48-3.65-1.95.85-5.22,2.48-7.09l12.31-14,35.26-40.24c8.17-9.33,16-19.16,24.61-28.09,1.6-1.66,3.22-4.09,5.33-.58C431.64,271.88,436.83,268.86,434.83,265.54Z"/><path class="cls-6" d="M418.94,295.67l-5.15,35.67c-0.55,3.78,5.24,5.41,5.79,1.6l5.15-35.67c0.55-3.78-5.24-5.41-5.79-1.6h0Z"/><path class="cls-6" d="M420.35,353.37a6.64,6.64,0,1,0-.11.8,3.08,3.08,0,0,0-2.1-3.69,3,3,0,0,0-3.69,2.1c-0.11.57-.28,1.09-0.89,1a0.69,0.69,0,0,1-.56-0.82,0.68,0.68,0,0,1,.81-0.56c0.62,0.13.58,0.62,0.53,1.21a3,3,0,0,0,3,3A3.06,3.06,0,0,0,420.35,353.37Z"/><path class="cls-9" d="M42.3,295.53a16.45,16.45,0,0,1-7.34-14"/><path class="cls-10" d="M43.81,292.94A13.65,13.65,0,0,1,38,281.52c0-3.86-6-3.87-6,0a19.91,19.91,0,0,0,8.83,16.6c3.19,2.2,6.19-3,3-5.18h0Z"/><path class="cls-9" d="M70.14,277l-3-9"/><path class="cls-10" d="M73,276.25l-3-9c-1.22-3.65-7-2.08-5.79,1.6l3,9c1.22,3.65,7,2.08,5.79-1.6h0Z"/><path class="cls-9" d="M106,265l1.41-16.51"/><path class="cls-10" d="M109,265l1.41-16.51c0.33-3.85-5.67-3.82-6,0L103,265c-0.33,3.85,5.67,3.82,6,0h0Z"/><path class="cls-9" d="M163.16,260.55a65.36,65.36,0,0,1,11.94-21"/><path class="cls-10" d="M166.06,261.35a64.55,64.55,0,0,1,11.17-19.71c2.45-3-1.78-7.22-4.24-4.24a72.92,72.92,0,0,0-12.71,22.36c-1.29,3.65,4.5,5.22,5.79,1.6h0Z"/></g></g></g></svg>