<svg xmlns="http://www.w3.org/2000/svg" xmlns:xlink="http://www.w3.org/1999/xlink" viewBox="0 0 580 580"><defs><style>.cls-1{fill:none;}.cls-2{isolation:isolate;}.cls-3{fill:#ffec8d;}.cls-4{clip-path:url(#clip-path);}.cls-5{fill:#fff9d8;opacity:0.53;}.cls-6{fill:#ffd459;opacity:0.82;mix-blend-mode:multiply;}.cls-7{fill:#014e7f;}.cls-8{fill:#da1f47;}.cls-9{fill:#fff;}.cls-10{clip-path:url(#clip-path-2);}</style><clipPath id="clip-path"><rect class="cls-1" x="1.76" y="0.3" width="580" height="580"/></clipPath><clipPath id="clip-path-2"><rect class="cls-1" x="21.25" y="3583.64" width="580" height="580"/></clipPath></defs><title>iiLAB -U1-concepts-01-STARTING</title><g class="cls-2"><g id="Layer_1" data-name="Layer 1"><rect class="cls-3" x="1.76" y="0.3" width="580" height="580"/></g><g id="Layer_2" data-name="Layer 2"><g class="cls-4"><rect class="cls-3" x="-30.87" y="-28.39" width="645" height="645.27"/><circle class="cls-5" cx="176.3" cy="377.22" r="337.91"/><circle class="cls-6" cx="428.27" cy="173.42" r="246.9"/><path class="cls-7" d="M410.13,340.93c3.22,0,3.22-5,0-5s-3.22,5,0,5h0Z"/><path class="cls-8" d="M228.11,92.57c-2.34-5.2-7.41-6-11.27-1.81L113.68,203.37c-3.85,4.21-2.39,8.31,3.26,9.11l166.23,23.65c5.65,0.8,8.35-2.79,6-8Z"/><path class="cls-7" d="M222.91,106.82c-4.14-6.88-10.68-5.28-15.22-.11l-11.06,12.62L159.27,162c-8.82,10.07-17.86,20-26.49,30.23-4.39,5.21-4.1,11.66,3.39,13.48,3.19,0.77,6.51,1.17,9.74,1.75l104.36,18.79,16.65,3c4.09,0.74,9.6,2.08,11.83-2.61,1.79-3.77-1-7.95-2.64-11.32l-8.35-17L223.9,108.84l-1-2c-1.7-3.47-6.88-.43-5.18,3L253,181.68l18.15,37c0.84,1.72,3.27,4.88.48,5.31s-6.89-1.24-9.52-1.71l-97.46-17.54-18.68-3.36c-2.31-.42-6.1-0.35-8.2-1.48-3.65-1.95.85-5.22,2.48-7.09l12.31-14,35.26-40.24c8.17-9.33,16-19.16,24.61-28.09,1.6-1.66,3.22-4.09,5.33-.58C219.72,113.15,224.91,110.14,222.91,106.82Z"/><path class="cls-7" d="M207,136.95l-5.15,35.67c-0.55,3.78,5.24,5.41,5.79,1.6l5.15-35.67c0.55-3.78-5.24-5.41-5.79-1.6h0Z"/><path class="cls-7" d="M208.43,194.65a6.64,6.64,0,1,0-.11.8,3.08,3.08,0,0,0-2.1-3.69,3,3,0,0,0-3.69,2.1c-0.11.57-.28,1.09-0.89,1a0.69,0.69,0,0,1-.56-0.82,0.68,0.68,0,0,1,.81-0.56c0.62,0.13.58,0.62,0.53,1.21a3,3,0,0,0,3,3A3.06,3.06,0,0,0,208.43,194.65Z"/><path class="cls-7" d="M479.45,252.45c-0.29-41.35-26.29-78.95-65.23-93.24-39.29-14.43-84.89-1.74-111.14,30.83-25.88,32.12-29.27,78.23-7.88,113.63,21.53,35.64,64,54.23,104.84,46C446,340.47,479.12,299,479.45,252.45Z"/><path class="cls-7" d="M524.84,432.46c-15.6-21-25.79-45.14-37.82-68.21-2.94-5.64-6-11.23-9.29-16.68-2.54-4.2-5.15-9.89-9.16-12.9S460,333.14,456.27,336c-5.64,4.42-10.74,9.7-16,14.53a2.4,2.4,0,0,0-.54.71l-1.18.36a2.52,2.52,0,0,0-1.75,3.08,362.32,362.32,0,0,0,43.67,82.41c9.31,13.09,19.46,25.55,29.71,37.9,3,3.67,7.13,11,12.93,8.57,4.7-2,9.71-7,12.45-11.27C544.49,458.55,533,443.35,524.84,432.46Z"/><circle class="cls-3" cx="364.63" cy="249.53" r="96.73"/><path class="cls-7" d="M463.86,249.53c-0.29-41.35-26.29-79-65.23-93.25-39.29-14.43-84.89-1.74-111.14,30.83-25.88,32.12-29.27,78.23-7.88,113.63,21.53,35.64,64,54.23,104.84,46,45.91-9.23,79.07-50.72,79.4-97.25,0-3.22-5-3.22-5,0-0.28,39.25-25,75.3-62.18,88.65a95.21,95.21,0,0,1-104.82-28.76c-25.18-30.41-28.31-74.83-7.92-108.58s60.61-51.46,99.2-43.74c43.76,8.76,75.42,48,75.73,92.42C458.88,252.75,463.88,252.76,463.86,249.53Z"/><circle class="cls-9" cx="364.63" cy="249.53" r="66.7"/><path class="cls-7" d="M433.83,249.53a70,70,0,0,0-45.33-65c-27.37-10.16-59.23-1.34-77.57,21.33-18.11,22.39-20.53,54.58-5.61,79.3a69.92,69.92,0,0,0,72.26,32.31c32.5-6.08,55.92-35.22,56.25-68,0-3.22-5-3.22-5,0-0.27,26.7-17,51.26-42.28,60.37a64.22,64.22,0,1,1-9-123.27c29.72,6.16,50.95,32.73,51.26,62.9C428.86,252.75,433.86,252.76,433.83,249.53Z"/><path class="cls-3" d="M420.53,332.16A23.65,23.65,0,0,1,436,346.26"/><path class="cls-7" d="M419.86,334.57a21.42,21.42,0,0,1,13.73,12.35c1.2,2.94,6,1.66,4.82-1.33a26.75,26.75,0,0,0-17.23-15.84c-3.09-.93-4.41,3.89-1.33,4.82h0Z"/><path class="cls-3" d="M440.66,346l-17.06,5.16a356.62,356.62,0,0,0,42.88,81.06c10.76,15.22,22.7,29.56,34.63,43.89,1.12,1.34,2.51,2.81,4.25,2.68a5.56,5.56,0,0,0,2.81-1.39c4.33-3.3,8.84-6.82,11.06-11.79,5.26-11.81-4.36-24.43-12.12-34.77-21.54-28.68-32.64-63.93-52.71-93.66-1.29-1.91-2.81-3.94-5-4.53-3.18-.84-6.23,1.55-8.66,3.77l-14.26,13"/><path class="cls-7" d="M440,343.56l-17.06,5.16a2.52,2.52,0,0,0-1.75,3.08,363.59,363.59,0,0,0,35,69.71c7.13,11,14.91,21.53,23,31.81,4,5.12,8.17,10.17,12.33,15.2,3,3.67,6.95,11,11.85,12.47,3.89,1.18,7.3-2.36,10-4.63,4.17-3.49,7.86-7.68,9.18-13.09,2.66-10.91-4.31-21.39-10.42-29.75-15-20.47-25.84-42.64-37.22-65.22-3.26-6.46-6.61-12.88-10.22-19.16-3.08-5.34-6.09-11.47-10.31-16-3.51-3.78-8.21-3.85-12.42-1-6.31,4.2-11.8,10.47-17.38,15.57-2.38,2.18,1.16,5.7,3.54,3.54,4.28-3.91,8.52-7.86,12.83-11.73,3-2.69,5.85-5.84,9.9-2.8,2,1.52,3.73,5.41,5.08,7.56,5.68,9.08,10.66,18.58,15.46,28.15,9.32,18.59,18,37.64,29.93,54.77,5.88,8.46,14,16.79,16.34,27.12a16.29,16.29,0,0,1-4,15,41.46,41.46,0,0,1-5,4.51c-4.05,3.23-5.63.85-8.27-2.33-14.45-17.38-28.71-34.92-40.92-54a357.65,357.65,0,0,1-33.56-67l-1.75,3.08,17.06-5.16c3.07-.93,1.76-5.76-1.33-4.82h0Z"/><path class="cls-8" d="M346.33,223a46.12,46.12,0,0,1,23.42-11.38c3.58-.59,8.67-2.11,9.69,2.1S378,223.08,376,226.6c-8.09,14.28-23.6,24.08-23.6,42.08,0,6.43,10,6.45,10,0,0-11.3,9-19.46,15.62-27.64s12.69-18,11.22-28.95c-0.61-4.51-2.46-9.07-7.21-10.5-4.39-1.32-9.71-.47-14.14.23a56,56,0,0,0-28.62,14.08c-4.78,4.32,2.31,11.38,7.07,7.07h0Z"/><path class="cls-8" d="M356.26,291.27a6.56,6.56,0,0,0,5-.72,7,7,0,0,0,3-4c0.86-2.8-.13-6.54-3-7.82a5.44,5.44,0,0,0-3.85-.5,5.1,5.1,0,0,0-3,2.3,5,5,0,0,0-.5,3.85,4.85,4.85,0,0,0,2.3,3,1.88,1.88,0,0,1,.33.18l-1-.78a1.75,1.75,0,0,1,.24.25L355,286a1.94,1.94,0,0,1,.16.3l-0.5-1.19a2.36,2.36,0,0,1,.09.34l-0.18-1.33a2.55,2.55,0,0,1,0,.61l0.18-1.33a3,3,0,0,1-.17.61l0.5-1.19a2.81,2.81,0,0,1-.31.54l0.78-1a2.34,2.34,0,0,1-.34.33l1-.78a2.06,2.06,0,0,1-.3.17l1.19-.5a1.78,1.78,0,0,1-.33.09l1.33-.18a1.79,1.79,0,0,1-.36,0l1.33,0.18-0.13,0a5.27,5.27,0,0,0-3.85.5,5.1,5.1,0,0,0-2.3,3c-0.58,2.54.76,5.53,3.49,6.15h0Z"/><path class="cls-7" d="M231.42,282.35c-5-11.6-15.91-18.31-27.57-22-14-4.39-30.05-5.77-44.65-4.86-15,.93-28.7,6.19-39.5,16.75-10.09,9.87-16.91,22.88-20.65,36.4-5.5,19.89-5,40.78-4.42,61.21L97.55,367c-8.47-.63-18.4-1.05-25.07,5.21-5,4.67-7.42,12.57-3.38,18.59,3.56,5.31,10.28,6.51,16,8.05,2.77,0.74,6.44,1.51,8.28,3.94,3,3.93.74,11.35,0.77,16,0.23,37.11,28.63,70.34,66.77,71,34.24,0.62,58.78-27.54,68.22-58.07a112.84,112.84,0,0,0,4.61-24c0.39-4.79-.61-11,2.19-15.16,2.5-3.7,7.33-5,11.36-6.26,7.25-2.21,15.59-5.13,18.46-13,2.37-6.5-1.59-12.37-7.78-14.45-4-1.33-8.22-1.24-12.24-2.33-5-1.37-8.42-4.89-10.36-9.66-4.19-10.28-.89-21.08,1-31.45,1.8-9.92,2.42-20.29-3.77-28.85-5-6.86-13.3-11.41-21.68-8.23-3.48,1.32-2,7,1.55,5.63,8.58-3.25,16.34,4.61,18.56,12.43,2.7,9.5-1,19.88-2.58,29.27-2,12-1.07,28,11,34.68,5.66,3.12,12.89,1.57,18.34,4.75,4.72,2.75,2.5,7.6-.74,10.49s-7.29,3.87-11.31,5.1c-5.72,1.74-12,4-15.16,9.5-3.56,6.29-2.24,14.72-3.09,21.69C224,440.28,208,471.61,179.24,481.2,145,492.58,110.21,468.53,102,435a69.27,69.27,0,0,1-2-13.87c-0.18-4.85.79-9.72,0.53-14.54-0.35-6.64-4.82-10.45-10.76-12.46-5.43-1.84-16.5-2.27-17-9.85-0.8-12.52,16.67-12.06,24.7-11.46a2.94,2.94,0,0,0,2.92-2.92c-0.81-29.41-1.5-61.65,17.08-86.36,8.47-11.27,20.38-19,34.36-21.36s29.35-1.06,43.11,1.93c12.86,2.79,25.86,8.39,31.36,21.18,1.48,3.44,6.51.47,5-2.95h0Z"/><path class="cls-7" d="M123.92,351.59a38.69,38.69,0,0,1,27.69-17.41c3.7-.51,2.13-6.13-1.55-5.63a44.18,44.18,0,0,0-31.18,20.09c-2,3.17,3,6.1,5,2.95h0Z"/><path class="cls-7" d="M171.66,333.68a141.73,141.73,0,0,1,27,24c2.48,2.83,6.59-1.31,4.13-4.13a147.66,147.66,0,0,0-28.14-24.87c-3.11-2.12-6,2.94-2.95,5h0Z"/><path class="cls-7" d="M133.06,374.94l0.4,5.75c0.12,1.71,1.79,3.54,3.69,2.81a17.54,17.54,0,0,0,7.28-5,3,3,0,0,0,0-4.13,8.37,8.37,0,0,0-9-2,3,3,0,0,0-2,3.59c0.38,1.37,2.12,2.65,3.59,2a2.66,2.66,0,0,1,3.32.53v-4.13a11.68,11.68,0,0,1-4.7,3.5l3.69,2.81-0.4-5.75A3,3,0,0,0,136,372a2.94,2.94,0,0,0-2.92,2.92h0Z"/><path class="cls-7" d="M172.73,375.72a19,19,0,0,0-2.58,11.91c0.17,1.46,1.2,3.07,2.92,2.92,8.38-.72,13-12,6.54-18-2.75-2.55-6.89,1.56-4.13,4.13,2.41,2.24,1.19,7.72-2.41,8l2.92,2.92a13.86,13.86,0,0,1,1.79-9c1.9-3.25-3.14-6.19-5-2.95h0Z"/><path class="cls-7" d="M148.77,345.75a203.48,203.48,0,0,0-4.22,58.71,3,3,0,0,0,2.14,2.81l14.48,2.52c3.67,0.64,5.25-5,1.55-5.63l-14.48-2.52,2.14,2.81a197.9,197.9,0,0,1,4-57.16c0.8-3.66-4.82-5.22-5.63-1.55h0Z"/><path class="cls-7" d="M52.79,278.38l15.37,6c3.5,1.36,5-4.28,1.55-5.63l-15.37-6c-3.5-1.36-5,4.28-1.55,5.63h0Z"/><path class="cls-7" d="M72.51,236.24l16.86,23.51c2.17,3,7.23.11,5-2.95L77.55,233.29c-2.17-3-7.23-.11-5,2.95h0Z"/><path class="cls-7" d="M131.79,202.09c-0.07,6.29,1.58,12.82,2.91,18.93s2.58,12.66,5.26,18.38c1.59,3.4,6.62.44,5-2.95-2.44-5.21-3.46-11.4-4.68-17s-2.76-11.59-2.7-17.38c0-3.76-5.79-3.76-5.84,0h0Z"/><path class="cls-7" d="M197.5,207.12c0.26,5.85-1.41,12-2.67,17.67s-2.31,12-5,17.19c-1.73,3.33,3.3,6.28,5,2.95,2.95-5.65,4.22-12.41,5.59-18.58s3.15-12.88,2.88-19.22c-0.16-3.74-6-3.76-5.84,0h0Z"/><path class="cls-7" d="M264.07,224.15c-2.23,6.65-7.25,13-11.09,18.8s-7.77,12.79-13.08,17.47c-2.82,2.49,1.32,6.6,4.13,4.13,5.66-5,9.87-12.44,14-18.66s9.26-13,11.68-20.19c1.2-3.57-4.44-5.1-5.63-1.55h0Z"/><path class="cls-7" d="M307.25,257.37c-1.69,2.27-5.54,3.88-7.94,5.23-4.14,2.33-8.39,4.48-12.66,6.58-7,3.44-14.07,6.78-21.24,9.85-3.44,1.47-.47,6.5,2.95,5,7.87-3.37,15.63-7,23.3-10.87,6.61-3.3,16.06-6.75,20.63-12.88,2.25-3-2.82-5.92-5-2.95h0Z"/><path class="cls-7" d="M143.26,446.35A44.73,44.73,0,0,1,165.57,448c3.58,1.17,5.11-4.46,1.55-5.63a51,51,0,0,0-25.42-1.64c-3.69.67-2.13,6.3,1.55,5.63h0Z"/></g></g></g></svg>