<svg xmlns="http://www.w3.org/2000/svg" xmlns:xlink="http://www.w3.org/1999/xlink" viewBox="0 0 580 580"><defs><style>.cls-1{fill:none;}.cls-2{isolation:isolate;}.cls-3{clip-path:url(#clip-path);}.cls-12,.cls-4{fill:#ffec8d;}.cls-5{fill:#9acd72;}.cls-6{fill:#014e7f;}.cls-7{fill:#fff;}.cls-8{fill:#21648f;}.cls-9{fill:#d91e47;}.cls-10{fill:url(#linear-gradient);}.cls-11{fill:url(#linear-gradient-2);}.cls-12{opacity:0.82;mix-blend-mode:multiply;}.cls-13{fill:#aa91ab;}.cls-14{clip-path:url(#clip-path-2);}</style><clipPath id="clip-path"><rect class="cls-1" width="580" height="580"/></clipPath><linearGradient id="linear-gradient" x1="116.48" y1="161.45" x2="380.67" y2="455.01" gradientUnits="userSpaceOnUse"><stop offset="0" stop-color="#f68d3d"/><stop offset="1" stop-color="#da1f47"/></linearGradient><linearGradient id="linear-gradient-2" x1="114.35" y1="163.37" x2="378.55" y2="456.92" xlink:href="#linear-gradient"/><clipPath id="clip-path-2"><rect class="cls-1" x="21.25" y="1763.43" width="580" height="580"/></clipPath></defs><title>iiLAB -U1-concepts-01-STARTING</title><g class="cls-2"><g id="Layer_1" data-name="Layer 1"><g class="cls-3"><rect class="cls-4" x="-12.49" y="-12.49" width="604.97" height="604.97"/><path class="cls-5" d="M178.05,160.53c-1.54-2.24-4.5-2.9-7.18-3.35a523.7,523.7,0,0,0-91.78-7.48c2.29-4,2.83-9,3.46-13.64a157.19,157.19,0,0,1,18.13-54.74c2.33-4.21,4.95-8.42,8.85-11.24s9.38-3.93,13.56-1.56c5.29,3,6.56,10,7,16a188.38,188.38,0,0,1-4.45,54.8c-0.86,3.72-1.49,8.45,1.65,10.63,1.53,1.06,3.52,1.13,5.38,1.15l11.26,0.14c1.76,0,3.67,0,5.06-1.08s1.94-3.16,2.26-5a136.08,136.08,0,0,0-5.68-68c-3.24-9.22-8.13-18.76-17-23-13.17-6.27-28.73,2.05-39.13,12.28C67.51,88,55.87,119.61,58.32,150.26c-7.11.33-.09,0.42-7.18,1h0l-13,59.51c-2.43,11.17-4.88,22.43-5,33.87,0,2,.1,4.18,1.48,5.62a8.15,8.15,0,0,0,4,1.88L90.73,266c14,3.72,28.18,7.46,42.68,8.16,3.14,0.15,6.51.1,9.14-1.62,2.94-1.93,4.28-5.49,5.45-8.81l23.27-66.44c3.47-9.92,7-20,7.83-30.45C179.26,164.65,179.28,162.31,178.05,160.53Z"/><path class="cls-6" d="M55.28,157.65C51.93,129.2,60.42,99.76,78.94,77.8c9-10.68,23.71-23.88,39-20.1s20.35,22.77,23.54,36a133.6,133.6,0,0,1,2.4,50.18c-0.4,2.78-.38,4.59-2.62,6.51s-3.19,1.52-5.92,1.49c-4-.05-12.31,1.21-13.8-3.45-1-3.13,1.08-8.1,1.7-11.17q1.15-5.75,1.94-11.55a191.46,191.46,0,0,0,1.79-25c0-6.93.25-14.41-1.55-21.18-2.9-10.86-13.95-15.13-23.21-8.19-6.36,4.76-10,12.77-13.35,19.75a161.59,161.59,0,0,0-9,23.34,172.79,172.79,0,0,0-5.42,25.73c-0.59,4.18-1.13,8.81-3.65,12.34s-8.69,5.63-11.47,1.42c-1.59-2.41-5.48-.16-3.89,2.27,2.86,4.34,7.93,5.39,12.72,3.7,6.09-2.15,8.76-8.27,9.94-14.19,1.77-8.89,2.69-17.8,5.1-26.58A154.6,154.6,0,0,1,93.52,91.75c3.64-7.4,9.28-20.46,19.47-19.3,9.91,1.13,9.22,15.29,9.4,22.57a187.82,187.82,0,0,1-1.45,28.47c-0.66,5.15-1.55,10.26-2.65,15.34-0.72,3.36-1.87,7-1.24,10.51,1.28,7,7.78,6.88,13.57,7,6.11,0.08,14.18,1.75,16.51-5.57,2.56-8,2.57-17.83,2.54-26.17A139.88,139.88,0,0,0,147,97.81c-2.8-14.09-7.3-32.17-19.89-40.86s-28.1-2.79-39,5.58c-28,21.62-41.42,60.65-37.36,95.12,0.33,2.84,4.84,2.88,4.5,0h0Z"/><path class="cls-6" d="M45.4,156.42a421.25,421.25,0,0,1,79.27.16c13.57,1.39,28,2.56,41.22,5.89,5.5,1.38,5.47,5.82,4.82,10.59a85,85,0,0,1-2.22,10.56c-2,7.27-4.6,14.35-7.08,21.45l-14.22,40.6c-2.37,6.76-4.6,13.59-7.11,20.3-1.59,4.26-3,7.72-8,8.64-3.83.7-8.15,0-12-.48-14.35-1.67-28.34-5.81-42.27-9.5-14.76-3.91-29.8-7.27-44.39-11.77-5-1.53-3.84-6.84-3.54-11a131.76,131.76,0,0,1,2-14.49c1.4-7.6,3.15-15.13,4.8-22.68l10.87-49.91c0.61-2.82-3.72-4-4.34-1.2L32.36,203.48c-1.85,8.48-3.84,16.94-5.3,25.49C25.9,235.78,24,244,25.44,250.86c1.31,6.25,8.42,6.77,13.59,8.14l25.09,6.65c16.46,4.36,32.95,9.47,49.8,12.13,6.47,1,14.19,2.71,20.64,1,5.66-1.5,8-6.53,9.86-11.6,5.87-16.24,11.42-32.61,17.13-48.9,5.22-14.9,11.82-30,13.76-45.82,0.69-5.58.49-11-5.29-13.45-6.76-2.9-15.75-3-23-4.11a438.86,438.86,0,0,0-101.63-3c-2.86.25-2.89,4.75,0,4.5h0Z"/><path class="cls-7" d="M124.72,174.73c-17-1.58-34.81-5.32-50.77.81-22.47,8.63-34.06,37.63-24.73,59.82s37,34.26,60,27.08S147.94,230.6,146,206.61c-0.61-7.46-2.9-15.1-8.15-20.42s-6.55-15-13.12-11.46"/><path class="cls-6" d="M124.72,172.48c-24.4-2.36-52-7.36-69.54,14.2-12.29,15.1-15.44,37.43-5.54,54.57,10.18,17.64,31.74,27.58,51.78,25.13,21.32-2.61,38.46-19.51,44.57-39.64,3.53-11.64,3.79-25.79-2.39-36.62-1.71-3-4.21-5.23-6.15-8-1.56-2.25-2.65-4.8-4.33-7-2.62-3.35-5.68-4.1-9.53-2.36-2.63,1.2-.35,5.08,2.27,3.89,3.79-1.72,6.42,5.88,8.06,8.22,3.05,4.34,6.39,7.6,8.09,12.83,3.13,9.61,2.23,20.4-1,29.84-6.19,17.94-22.2,32.86-41.55,34.52C81.54,263.62,62.6,254.7,53.53,239c-8.87-15.36-6.07-35.5,4.84-49.12,16.49-20.59,43.4-15.1,66.36-12.88,2.88,0.28,2.86-4.22,0-4.5h0Z"/><path class="cls-6" d="M68.58,212.72a77.72,77.72,0,0,0,2.62,27.72,2.28,2.28,0,0,0,3.76,1l54.51-46.06c2.21-1.87-1-5-3.18-3.18L71.78,238.24l3.76,1a74.1,74.1,0,0,1-2.46-26.52c0.25-2.89-4.26-2.87-4.5,0h0Z"/><polygon class="cls-8" points="144.68 475.9 144.68 476.06 144.81 475.67 144.68 475.9"/><path class="cls-8" d="M144.44,477.39l0.11-.14a7.93,7.93,0,0,0,.43-1.65,3.5,3.5,0,0,0-.43,1s0.21-.46.22-0.3c-0.12.32-.15,0.27-0.3,0.69s0.12-.27.14-0.08Z"/><path class="cls-8" d="M144.89,476.29l-0.2.54A3.15,3.15,0,0,0,144.89,476.29Z"/><path class="cls-8" d="M145,476.19a1.9,1.9,0,0,1-.16.48l0.31-.71Z"/><path class="cls-8" d="M145.15,476.31l0-.06C145.24,476.13,145.2,476.22,145.15,476.31Z"/><path class="cls-8" d="M145.29,476.25c0.08-.25,0-0.11-0.08,0v0a1.2,1.2,0,0,1-.27.57c-0.08.1,0.11-.4-0.05-0.08l-0.11.43A9.24,9.24,0,0,0,145.29,476.25Z"/><path class="cls-8" d="M145.15,476.31l0,0C145.1,476.42,145.12,476.37,145.15,476.31Z"/><polygon class="cls-8" points="145.08 476.21 145.01 476.31 144.94 476.53 145.08 476.21"/><path class="cls-8" d="M145.46,476.29c-0.31.68-.08-0.13-0.32,0.4a2.08,2.08,0,0,1-.28.89l0.15-.19A7.65,7.65,0,0,0,145.46,476.29Z"/><path class="cls-8" d="M144.79,478.06l0.07-.11Z"/><path class="cls-8" d="M145.65,477.05l-0.25.3-0.24.3a2.93,2.93,0,0,1,.3-0.48,1.47,1.47,0,0,0-.25.21c0.29-.63.11,0,0.36-0.57,0,0-.12,0-0.4.52l0.14-.45-0.3.7c-0.07.21,0.3-.52,0.08,0a1.69,1.69,0,0,1-.23.41c0.1-.12-0.18.57-0.08,0.51S145.42,477.35,145.65,477.05Z"/><polygon class="cls-8" points="145.25 477.79 145.12 478.05 145.3 477.7 145.25 477.79"/><path class="cls-8" d="M145.88,477l-0.31.37,0.16-.33-0.32.53c-0.31.62,0.18-.14,0.29-0.22a4,4,0,0,1-.5.9s0.07-.17.06-0.23c-0.35.7,0.07,0.12,0.22,0a0.43,0.43,0,0,0,.09-0.21l0.16-.17C146,477.15,146,477,145.88,477Z"/><path class="cls-8" d="M145.75,476.94c0.05,0,0,0,0,.11C145.83,476.88,145.88,476.75,145.75,476.94Z"/><path class="cls-8" d="M145.52,478s0,0,0,0S145.48,478,145.52,478Z"/><path class="cls-8" d="M145.92,477.29v0.09l0.16-.28A0.66,0.66,0,0,0,145.92,477.29Z"/><path class="cls-8" d="M146.73,479.44c0.22-.18.32-0.27,0.25-0.27a1.68,1.68,0,0,1,.46-0.25,4.53,4.53,0,0,1,.63-0.5,2,2,0,0,1-.39.08,3.86,3.86,0,0,0,.31-0.26c-0.25.07-.6,0.19-0.42-0.09s-0.12-.1-0.31,0c-0.09-.35-0.56-0.29-0.6-0.75l-0.48.55a2.15,2.15,0,0,1,.24-0.41c0,0.08,0,0,0,0,0.33-.55-0.18-0.07-0.1-0.31a8,8,0,0,1-.51.71c0.47-.66-0.08,0,0.42-0.81,0.06-.24-0.4.59-0.39,0.43a3.65,3.65,0,0,0-.25.54,0.81,0.81,0,0,0-.24.25c0,0.24.69-.44,1-0.52l-0.3.34c0.27-.19.43-0.1,0,0.5a1.76,1.76,0,0,0,.59-0.46,0.55,0.55,0,0,0-.14.24l0.22-.21s-0.31.37-.24,0.39a4.35,4.35,0,0,1,.64-0.61c-0.28.38-.51,0.71-0.76,1,0.09-.09.2-0.2,0.32-0.34a0.64,0.64,0,0,0,.32-0.23,3.54,3.54,0,0,1-.56.56c-0.08.16,0.7-.5,0.48-0.23l0.31-.3a1.19,1.19,0,0,0,0,.32,1.74,1.74,0,0,1-.65.41,2.24,2.24,0,0,1-.23.27c0.25-.17.6-0.39,0.85-0.53C146.66,479.34,146.75,479.39,146.73,479.44Z"/><path class="cls-8" d="M146.36,479.48l-0.19.13s0.07,0,.05,0Z"/><path class="cls-8" d="M146.73,479.44l-0.05,0A0.1,0.1,0,0,0,146.73,479.44Z"/><path class="cls-8" d="M147.58,478.12l0,0a0.15,0.15,0,0,1,0,0Z"/><path class="cls-8" d="M146.09,479.38l0.3-.35A1.69,1.69,0,0,0,146.09,479.38Z"/><path class="cls-8" d="M146.13,478.74c-0.06,0-.14.15-0.24,0.24A0.51,0.51,0,0,0,146.13,478.74Z"/><polygon class="cls-8" points="146.33 479.6 146.47 479.56 146.57 479.5 146.33 479.6"/><path class="cls-8" d="M148.88,479.44c0.42-.3.09-0.24,0.14-0.36-0.3,0-1,.54-1.09.46l0.92-.52c-0.12-.09,0-0.39-0.88,0a1.45,1.45,0,0,1,.37-0.24,6.75,6.75,0,0,1-1,.52,7.13,7.13,0,0,0,1-.74l0.07,0a1.84,1.84,0,0,1-.43,0,2.46,2.46,0,0,1-.59.41,4.13,4.13,0,0,1-.5.39,2.58,2.58,0,0,0,.45-0.18c-0.27.23-.1,0-0.37,0.28l0.3-.15a3.37,3.37,0,0,0-.34.26,0.47,0.47,0,0,1,.37-0.15l-0.11.06a0.74,0.74,0,0,0,.49-0.26l-0.46.35,0.33-.23c-0.08.17-.86,0.69-0.39,0.53a1.33,1.33,0,0,1,.36-0.2c0.21-.19-0.29.11-0.35,0.1a8.62,8.62,0,0,0,1-.58,2,2,0,0,1-.72.61c0,0.09.42-.13,0.25,0.06l-0.13.07c0.58-.31-0.23.19,0.39-0.08l0.11-.11a0.47,0.47,0,0,1,.31-0.11l-0.2.11a2.23,2.23,0,0,1,.67-0.22,1.05,1.05,0,0,0-.45.08A1.81,1.81,0,0,1,148.88,479.44Z"/><path class="cls-8" d="M147,479.65l0.2-.11Z"/><path class="cls-8" d="M148.27,480.1c-0.09.07-.39,0.13-0.58,0.22,0.33-.07.63-0.25,1.12-0.38-0.26.12,0.23,0,.25,0-0.28.05-.89,0.25-1,0.28,0.18,0-.12.07-0.13,0.09,0.37-.14.26,0,0.66-0.16s0.68-.06.41,0-0.23,0-.25,0c-0.52.09-.26,0.1-0.73,0.18,0.74-.09.8,0.18,1.94,0,0.22-.05-0.08-0.07-0.14-0.1a2.22,2.22,0,0,1-.83.07c0.18-.05-0.22-0.07.21-0.11l0.45,0a0.65,0.65,0,0,0-.35-0.76l0,0.11a1.69,1.69,0,0,1-.48.08l-0.68.32s-0.07,0,.18-0.11a6.41,6.41,0,0,0-.71.3c-0.13,0,.13-0.1-0.32.1s0.48-.18,0,0.07Z"/><polygon class="cls-8" points="147.82 480.11 148.17 479.96 148 480.02 147.82 480.11"/><path class="cls-8" d="M149.34,479.44c-0.15.07-.23,0.08-0.38,0.16S149.1,479.6,149.34,479.44Z"/><path class="cls-8" d="M148,480.45l0.15,0,0.14,0Z"/><path class="cls-8" d="M150.2,480.84c-0.12-.14-0.5-0.18-0.15-0.33-0.53,0-.94.06-1.43,0.05-0.1,0,.79,0,1,0.09-0.43,0,.13.09,0,0.15A4.45,4.45,0,0,1,150.2,480.84Z"/><path class="cls-8" d="M148.51,480.94s0.39,0.15.16,0.12-0.43-.12-0.35-0.12a0.84,0.84,0,0,0-.35,0l0.35,0.08c-0.15,0,.6.21,0.21,0.19a7.28,7.28,0,0,0,.68.26c-0.59-.14-0.59-0.17-1.12-0.32l1.52,0.56c-0.79-.18.16,0.22-0.46,0,0,0-.19-0.11-0.11-0.09-0.86-.38.16,0.13,0,0.11l-0.74-.37c0.12,0.08.62,0.41,0.08,0.15l-0.37-.22a2,2,0,0,1,.61.58l-0.47-.3c0.58,0.51.26,0.09,1.39,1-1.39-1,.46.4-0.09,0.09s-0.29-.29-0.92-0.72c0.71,0.54.21,0.18,0.42,0.38-0.67-.53-0.09,0-0.85-0.63l0.63,0.55,0.63,0.59c-0.38-.3-0.32-0.22-0.23-0.1a3,3,0,0,1,.52.43,2.79,2.79,0,0,0,.56.44c-0.22-.37-0.41-0.73-0.13-0.75-0.73-.5,0-0.11-0.6-0.53l0.68,0.4a2.8,2.8,0,0,0-.68-0.42,1.49,1.49,0,0,1,.62.28,1.9,1.9,0,0,0-.62-0.41l0.82,0.4c-0.26-.48-0.88-1-0.48-1.17l-0.54-.11c0.29-.08-1.33-0.42-0.12-0.32l-0.5-.09c0.29,0.05.85,0.08,1.21,0.16-0.19-.06,0-0.08-0.18-0.14l-0.23,0c-0.47-.09-0.2-0.1.18-0.1a9,9,0,0,0-1.4,0c1.09,0.22-1-.06-0.56,0A7.05,7.05,0,0,0,148.51,480.94Z"/><path class="cls-8" d="M150,481l-0.15,0Z"/><path class="cls-8" d="M149.11,482.68a0.12,0.12,0,0,0,0,.06C149.31,482.9,149.2,482.78,149.11,482.68Z"/><polygon class="cls-8" points="149.63 480.79 149.63 480.79 149.63 480.79 149.63 480.79"/><polygon class="cls-8" points="148.27 480.67 148.26 480.69 148.51 480.7 148.27 480.67"/><path class="cls-8" d="M148.3,482.18l0.33,0.34Z"/><path class="cls-8" d="M148,482.46h0C148,482.4,148,482.41,148,482.46Z"/><path class="cls-8" d="M147.34,483l0.17,1,0-.14-0.05-.2a7.07,7.07,0,0,0,.15,1.12l0-.24c0-.37.14,0.51,0.25,0.75a4.33,4.33,0,0,1,0-.84,2.12,2.12,0,0,1,.13.49,3.14,3.14,0,0,0-.08-0.78c0.3,1.12.32,1,.31,0.79s-0.06-.53.22,0.23c0-.14.16,0.12,0.08-0.28,0.17,0.55.09,0.1,0.32,0.74-0.5-1.35.5,0.78-.2-0.95a2.62,2.62,0,0,0,.25.38,0.52,0.52,0,0,1,.07.21c0.21,0.4-.26-0.7.14,0.13,0.08,0.1,0,0-.06-0.21l-0.41-.87,0.18,0.31,0.18,0.32,0.43,0.83A4.16,4.16,0,0,1,149,485a8.32,8.32,0,0,1-.48-0.89,8.8,8.8,0,0,0-.56-1.22,2.77,2.77,0,0,1,.4.77s-0.08-.12.29,0.53l0.62,1.35c0.06,0.06.1,0.07,0.11,0a3.1,3.1,0,0,0-.17-0.58c0.09,0.06.24,0.47,0.3,0.51,0.28,0.27-.5-1.11-0.23-0.79l0.27,0.47c-0.36-.65.15-0.08,0-0.51l-0.2-.27-0.25-.36a2.56,2.56,0,0,0,.37.5,0.84,0.84,0,0,0-.11-0.23c-0.19-.33-0.43-0.71,0-0.19-0.77-1-1.19-1.65-1.27-1.78l0.74,0.92c-0.23-.25,0,0,0.28.46a9.86,9.86,0,0,1,.66,1,2.91,2.91,0,0,0-.29-0.69l0.38,0.5a2,2,0,0,0-.35-0.55c-0.22-.29-0.49-0.62-0.17-0.31l0.34,0.4c0-.24.58,0.05-0.12-0.79L148,481.8c0.32,0.35,1,1.06,1.31,1.47l-0.72-.75c0.25,0.26.44,0.49,0.62,0.7l0.27,0.3,0.19,0.19c0.12,0.16,0,.06-0.09,0s-0.25-.24-0.07,0l-1.44-1.61,0.37,0.44-0.54-.6c0.9,1.08-.36-0.33,0,0.18l0.14,0.13a5,5,0,0,1,.48.63c-0.58-.69-0.5-0.59-0.76-0.88,0.32,0.43,1,1.4,1,1.45-0.76-1-.43-0.49-1.07-1.38a11.66,11.66,0,0,1,.69,1.08c0.15,0.25.05,0.16-.34-0.44l-0.12-.21,0,0-0.16-.25s0.51,0.82.15,0.27L147.7,482c-0.13-.19,1.08,1.84.41,0.8,0.34,0.57.35,0.69,1.1,2-0.27-.43-0.87-1.48-0.78-1.25,0.62,1.15-.25-0.36.14,0.4-0.63-1.24-.18-0.34-0.79-1.51-0.25-.44.54,1.08,0.37,0.82l-0.46-.88a3.78,3.78,0,1,1,.15.35l0.41,0.79c-0.24-.43-0.16-0.22-0.62-1.09l0.68,1.44c-0.41-.8-0.45-0.86-0.34-0.57l0.27,0.65c0.1,0.25.28,0.66,0.32,0.79l-0.11-.18c0-.08-0.13-0.26-0.19-0.4l-0.2-.49c-0.06-.08-0.44-0.9,0,0.24,0.11,0.32-.37-0.81-0.47-1,0.31,0.78.12,0.44,0,.22s-0.18-.32.25,0.84c0,0,.09.15,0.16,0.28a0.35,0.35,0,0,0,.13.17c0,0.18.16,0.49,0.14,0.51a1.14,1.14,0,0,0-.27-0.38l0-.15a3.49,3.49,0,0,0-.13-0.39l-0.27-.74c-0.33-.78-0.17-0.3-0.08.08S147.7,484,147.34,483Z"/><path class="cls-8" d="M148,483.52l-0.41-.84,0.32,0.69C147.92,483.27,147.93,483.28,148,483.52Z"/><path class="cls-8" d="M148,483.37l0.12,0.31s0,0,0-.14Z"/><path class="cls-8" d="M147.25,483.1c0-.06-0.07-0.18,0,0S147.3,483.3,147.25,483.1Z"/><polygon class="cls-8" points="147.31 483.47 147.39 483.7 147.35 483.55 147.31 483.47"/><path class="cls-8" d="M145.78,483.22l-0.23.42c0.05-.26-0.15,0,0-0.44-0.24.54-.2-0.11-0.43,0.75,0.41-.08.81,0.72,1.27,0.16l-0.09.32c0.23-.6.25,1,0.44-0.38l0,0.73c0.1,0.27.15-1,.26-0.12l0-.31s0,0.16.06,0.18l0-.14c0-.27.08-0.21,0.15,0s0,0.08,0,.14c0,0.27.05-.22,0.1-0.19a1.61,1.61,0,0,1,0,.45c0.1-.25.29,0.61,0.21-0.49a2.41,2.41,0,0,1-.06-0.49c-0.07-.23-0.11-0.24-0.11-0.12l0,0.38h0c0.06,1.08-.07-0.28-0.12.13,0-.43,0-0.4,0-0.63-0.33-1.24,0,.8-0.31-0.74v0c0-.16,0,0.11,0,0.23s0.09,0.34.1,0.44,0,0.56,0,.75c0-.5,0,0.21-0.09-0.07a2.43,2.43,0,0,1,0-.61l0,0.26a0.6,0.6,0,0,1,0-.29v-0.25l-0.05-.3a3.58,3.58,0,0,1,0,.78c-0.05-.58-0.24-0.57-0.39-0.23a1.53,1.53,0,0,1,.09-0.35c0-.11-0.08.08-0.12,0.4s-0.19,0-.21-0.38l0,0.34c-0.16.5-.08-0.5-0.25-0.26h0a1.29,1.29,0,0,1-.31.58A5.26,5.26,0,0,0,145.78,483.22Z"/><path class="cls-8" d="M145.15,483.66l0.19-.39a1.5,1.5,0,0,0-.35.66c0.07-.07,0,0.14.13-0.1C145.13,483.77,145.19,483.62,145.15,483.66Z"/><path class="cls-8" d="M144.27,483.2c-0.07.08-.15,0.23-0.23,0.34,0.23,0.07.54,0,.47,0.41a2.18,2.18,0,0,0,.44-0.54l-0.14.44c0.15-.24.1,0.3,0.33-0.42,0-.06-0.16.3-0.15,0.16l0.1-.23-0.11,0,0.15-.28c0.09-.48-0.46.83-0.48,0.48l0.28-.58c-0.06-.09-0.21.08-0.09-0.31a0.4,0.4,0,0,0-.08.18,2.17,2.17,0,0,1-.21.45c-0.38.36,0.2-.33,0.24-0.62-0.31.33-.75,0.5-0.52,0a0.92,0.92,0,0,1-.54.6,2.51,2.51,0,0,1,.37-0.47c0-.08.08-0.23,0-0.17a2.7,2.7,0,0,1-.7.86C143.35,484,144.17,483,144.27,483.2Z"/><path class="cls-8" d="M143.93,483.65a0.29,0.29,0,0,0,.11-0.11l-0.08,0Z"/><path class="cls-9" d="M194.77,392.08c-16.39-15.24-39.72-20.26-62-22.44-11.68-1.14-23.6-1.65-35,1-24.91,5.82-44.89,27.19-51.32,52s-0.06,52,14.71,72.88,37.35,35.6,61.77,43.23c17.53,5.48,36.39,7.47,54.39,3.79s35-13.34,46-28.11c7.68-10.4,12.1-22.88,15-35.49,2.74-12,4.15-24.5,2.6-36.75C237,411.66,213,384.69,183.17,377.23l-3,7.72"/><path class="cls-6" d="M196.54,390.32c-15.4-13.95-35.59-19.62-55.78-22.26-21.45-2.81-43.7-3.5-62.83,8.09-35.51,21.52-44.49,66.92-28.55,103.52,16.87,38.76,58.47,63.22,99.64,66.81,21.38,1.87,43.58-2.76,61.07-15.61s26.48-32.27,31-53.09c5-23.14,3.76-46.79-9.07-67.22a81.71,81.71,0,0,0-48.13-35.74,2.57,2.57,0,0,0-3.08,1.75l-3,7.72c-1.16,3,3.67,4.3,4.82,1.33l3-7.72-3.08,1.75a76.12,76.12,0,0,1,42,28.75c11.2,15.3,15.68,33.43,14.17,52.24C237,480.71,230.92,503,217,518.09c-13.65,14.8-33.43,22.6-53.31,23.67C125,543.83,82.91,524.22,61.46,491.54c-21-32-20.78-76.42,8.58-103.25,17.42-15.92,39.13-18.36,61.81-16.22,21.7,2,44.52,6.73,61.15,21.79,2.38,2.16,5.93-1.37,3.54-3.54h0Z"/><path class="cls-7" d="M155.35,433.14c-7.79-4.67-17.36-5.61-26.37-4.47-7.13.9-14.89,3.68-17.94,10.18-3.47,7.4.64,16,4.77,23s8.53,15.37,5.57,23c-1.67,4.31-5.57,7.77-6,12.37,6.8,2.1,14.33,4.17,20.83,1.27,6.88-3.07,10.41-10.73,16.34-15.36,5-3.88,11.6-5.63,15.59-10.5,3.77-4.6,4.35-11.19,2.88-17s-4.74-10.88-8.08-15.81c-1.93-2.84-4-5.76-7-7.41s-7.25-1.59-9.45,1.05"/><path class="cls-6" d="M156.61,431c-13-7.29-41.62-9.51-48.28,7.95-3.65,9.58,2.52,19,7,27.1,3.09,5.61,6.3,12.52,3.36,18.85-1.88,4-4.92,7.16-5.68,11.7a2.57,2.57,0,0,0,1.75,3.08c11.7,3.56,22.07,4.25,30.85-5.4,4-4.38,7.28-8.73,12.54-11.71,4.58-2.6,9.48-4.81,12.63-9.22,7.12-10,2.22-22.54-3.66-31.71-4.56-7.11-13.51-18.27-22.37-9.84-2.34,2.22,1.2,5.75,3.54,3.54,7.79-7.41,18.2,14.13,19.87,19.35,1.47,4.59,1.79,9.89-.5,14.28-2,3.84-5.8,5.89-9.45,7.88-6.79,3.69-11,8.26-16.13,13.9-3.32,3.65-6.94,6.4-12.06,6.7-4.74.28-9.44-1.22-13.92-2.59l1.75,3.08c0.68-4.06,3.4-6.93,5.18-10.51a18.14,18.14,0,0,0,1.7-10.31c-1-8.82-7.08-15.69-10.39-23.65-10.23-24.63,25.45-26.21,39.8-18.15,2.81,1.58,5.33-2.74,2.52-4.32h0Z"/><path class="cls-7" d="M130.36,441.44c-3.48-.61-7,1.76-8.63,4.87s-1.87,6.79-1.72,10.32a10,10,0,0,0,.73,3.88c1.29,2.73,4.66,3.9,7.67,3.7a12.71,12.71,0,0,0,9.9-19.5c-0.47-.74-1.36-1.52-2.12-1.08s0.69,1.73.72,0.85"/><path class="cls-6" d="M130.36,438.94c-10.05-.73-13.47,10.15-12.81,18.35s8.77,11.3,15.94,8.19a15.29,15.29,0,0,0,8.13-19.69c-1-2.4-3.54-6.28-6.7-4.33-2.23,1.38-1.56,4.35.49,5.47a2.59,2.59,0,0,0,3.42-.9l0.23-.3c2-2.55-2.38-5-4.32-2.52l-0.23.3,3.42-.9,0.2,0.19v2.52l0.21-.44-2.16,1.24c1-.11,1.55,4.79,1.55,5.44a10,10,0,0,1-1.31,5c-1.74,3-5.54,5.46-9.16,5.14-8.54-.77-5.52-18.39,3.09-17.77,3.21,0.23,3.2-4.77,0-5h0Z"/><path class="cls-4" d="M156.3,456.39c-1.15-3.76-6.48-4.7-9.88-2.74s-5.28,5.72-6.94,9.29c-0.57,1.23-1.1,2.81-.22,3.84a3.07,3.07,0,0,0,2.73.73,9.9,9.9,0,0,0,8.4-10.37l-3.43.19"/><path class="cls-6" d="M158.71,455.73c-1.73-4.34-6.19-6.34-10.73-5.32-5.53,1.24-8.69,6.76-10.78,11.56-2.53,5.81,2.07,9.48,7.67,7.36a12.57,12.57,0,0,0,8-12.21,2.53,2.53,0,0,0-2.5-2.5l-3.43.19c-3.2.18-3.22,5.18,0,5l3.43-.19-2.5-2.5a7.58,7.58,0,0,1-2.74,6.37c-0.42.34-3.18,2.32-3.66,1.08-0.2-.51,1.39-2.95,1.69-3.49,1.15-2.12,2.61-4.47,4.93-5.46,1.81-.78,4.91-0.76,5.78,1.43,1.18,3,6,1.67,4.82-1.33h0Z"/><path class="cls-4" d="M125,473.21l-4.69,9.23,6.24-4.94a12.38,12.38,0,0,1-.67,5.63,14.32,14.32,0,0,0,6.39-6.29"/><polygon class="cls-8" points="132.38 476.92 132.21 476.94 132.56 477.15 132.38 476.92"/><path class="cls-8" d="M130.87,476.6L131,476.8a4.52,4.52,0,0,0,1.59.64,2.13,2.13,0,0,0-.82-0.72c0,0.07.37,0.37,0.2,0.38-0.28-.2-0.2-0.26-0.58-0.51-0.39-.05.22,0.22,0,0.27Z"/><path class="cls-8" d="M131.82,477.33c-0.17-.11-0.34-0.23-0.49-0.31A1.53,1.53,0,0,0,131.82,477.33Z"/><path class="cls-8" d="M131.88,477.47a1,1,0,0,1-.44-0.24l0.61,0.48Z"/><path class="cls-8" d="M131.63,477.8l0,0.08C131.78,477.93,131.7,477.86,131.63,477.8Z"/><path class="cls-8" d="M131.6,478c0.25,0.11.14,0,.07-0.14l0,0c-0.22-.07-0.66-0.41-0.49-0.4-0.06-.14.4,0.14,0.13-0.11l-0.44-.14A3.85,3.85,0,0,0,131.6,478Z"/><path class="cls-8" d="M131.63,477.8a0.08,0.08,0,0,1,0-.06C131.54,477.71,131.58,477.75,131.63,477.8Z"/><polygon class="cls-8" points="131.79 477.66 131.72 477.55 131.51 477.44 131.79 477.66"/><path class="cls-8" d="M131.45,478.33c-0.61-.43.2-0.16-0.27-0.5a1.12,1.12,0,0,1-.88-0.34l0.12,0.24A4,4,0,0,0,131.45,478.33Z"/><path class="cls-8" d="M129.74,477.48l0.09,0.1A0.34,0.34,0,0,0,129.74,477.48Z"/><path class="cls-8" d="M130.36,478.8l-0.4-.71a1.47,1.47,0,0,1,.39.41,1.32,1.32,0,0,0-.08-0.41c0.58,0.38-.08.2,0.46,0.51,0-.08.09-0.21-0.36-0.6l0.46,0.16-0.65-.4c-0.21-.08.43,0.43,0,0.15a0.76,0.76,0,0,1-.34-0.33c0.08,0.16-.61-0.17-0.62,0A11.13,11.13,0,0,0,130.36,478.8Z"/><polygon class="cls-8" points="129.69 478.29 129.44 478.13 129.77 478.36 129.69 478.29"/><path class="cls-8" d="M130.24,479.19l-0.26-.43a3.24,3.24,0,0,1,.31.2c-0.14-.1-0.34-0.33-0.46-0.41-0.58-.37,0,0.29.07,0.44a2.21,2.21,0,0,1-.82-0.61,0.52,0.52,0,0,0,.26,0,0.78,0.78,0,0,0-.33-0.13s0,0,0,.05a3.71,3.71,0,0,1,.27.35,0.35,0.35,0,0,0,.18.13l0.12,0.21C130,479.39,130.16,479.42,130.24,479.19Z"/><path class="cls-8" d="M130.43,478.95c0,0.08-.06.07-0.13,0C130.46,479.06,130.58,479.13,130.43,478.95Z"/><path class="cls-8" d="M129.29,478.72s0,0,0,0S129.26,478.67,129.29,478.72Z"/><path class="cls-8" d="M129.88,479.29h-0.11l0.24,0.22A0.43,0.43,0,0,0,129.88,479.29Z"/><path class="cls-8" d="M128.18,479.31a1.46,1.46,0,0,0-.31.74,10.77,10.77,0,0,1-.6,1.14c-0.16.45-.46,1-0.77,1.65,0.07,0.07.59-1,.61-0.86s-0.26.61-.31,0.74c0.14-.19.38-0.6,0.52-0.79s0.23-.27.21,0,0.27-.23.46-0.62a1.26,1.26,0,0,0,.63-0.46,1,1,0,0,1,.67-0.4l-0.07-.45-0.08-.44a2.5,2.5,0,0,1,.22.46c-0.05-.08,0,0-0.07.06,0.31,0.62.21-.29,0.4-0.14a6.63,6.63,0,0,1-.43-0.83c0.4,0.76.06-.08,0.6,0.7,0.24,0.08-.41-0.61-0.25-0.59-0.29-.39-0.21-0.12-0.42-0.42a0.85,0.85,0,0,0-.17-0.32c-0.09-.08,0,0.1.06,0.41a2.47,2.47,0,0,1,0,1l-0.08-.57c0,0.46-.25.7-0.25-0.33,0,0.62,0-.28-0.18,1.19a1,1,0,0,0,0-.36l-0.07.5c-0.06,0,.07-0.74,0-0.65a11.83,11.83,0,0,1-.29,1.48,11.63,11.63,0,0,1,.29-2c-0.06.24-.13,0.51-0.2,0.81a3.64,3.64,0,0,0-.23.73,12.09,12.09,0,0,1,.37-1.4,9,9,0,0,1-.43,1l-0.25.8c-0.19.28,0.08-.59-0.12-0.26,0.45-1.16.48-1.06,0.69-1.57,0.08-.24.09-0.29,0.25-0.68-0.24.6-.63,1.46-0.94,2.07A6.71,6.71,0,0,0,128.18,479.31Z"/><path class="cls-8" d="M128.53,478.64l0.19-.46,0,0.09Z"/><path class="cls-8" d="M128.18,479.31l0.06-.14Z"/><path class="cls-8" d="M127.53,482V481.9a0.05,0.05,0,0,1,0,0V482Z"/><path class="cls-8" d="M128.68,478.33c-0.08.27-.15,0.54-0.21,0.82Z"/><path class="cls-8" d="M128.68,479l0-.52A4.09,4.09,0,0,0,128.68,479Z"/><polygon class="cls-8" points="128.61 478.43 128.47 478.71 128.36 478.95 128.61 478.43"/><path class="cls-8" d="M125.91,482l-0.36.55c-0.47.76,0,.26-0.16,0.57a5.13,5.13,0,0,0,.46-0.6l0.51-.77a7,7,0,0,1,.58-0.83L125.6,483a0.46,0.46,0,0,0,0,.2,3.55,3.55,0,0,0,.75-1.09c-0.17.29-.41,0.73-0.56,1s1.94-3.31,1.56-2.53-0.67,1.12-.83,1.45l-0.28.55c-0.11.21-.27,0.52-0.41,0.75l-0.1.14a5.53,5.53,0,0,0,.42-0.48,1.78,1.78,0,0,1,.33-0.4c0.29-.58.7-1.46,0.8-1.57s0.37-.77.66-1.35c-0.37.68-.19,0.29-0.65,1.09l0.55-1-0.44.76c0.08-.18.47-0.82,0.52-1a6.34,6.34,0,0,1-.55.89l0.16-.27c-0.17.29,0.07-.16-0.7,1.17l0.77-1.33-0.52.88a12,12,0,0,0,.85-1.5l-0.5.79c-0.35.59,0.35-.53,0.41-0.62-0.5.84-1.06,1.68-1.38,2.25,0.62-1,0-.11,1.2-2,0.09-.17-0.47.66-0.18,0.17l0.17-.25a3.58,3.58,0,0,1-.4.49l-0.18.29a1.33,1.33,0,0,1-.35.45l0.26-.38-0.19.26a5.83,5.83,0,0,1-.56.63c-0.09.14,0,0,.09-0.05l0.26-.29,0.1-.11-0.69.93C125.91,482.06,125.85,482.13,125.91,482Z"/><path class="cls-8" d="M127.89,479.58l-0.31.53Z"/><path class="cls-8" d="M127.11,480c0.12-.2.43-0.47,0.66-0.77-0.34.31-.72,0.88-1.23,1.38,0.31-.4-0.19.07-0.25,0.08,0.24-.23.42-0.41,0.65-0.66l0.48-.52c-0.18.16,0.15-.22,0.17-0.27-0.42.5-.23,0.13-0.69,0.66-0.36.35-.7,0.49-0.34,0.11s0.21-.14.22-0.11c0.52-.44.29-0.34,0.76-0.76-0.73.55-.59-0.07-1.85,0.84-0.26.24,0,.12,0.08,0.17a2.21,2.21,0,0,1,.9-0.6c-0.2.21,0.19,0-.26,0.36l-0.47.22a3.67,3.67,0,0,0-.41,2l0.11-.34a6.86,6.86,0,0,1,.74-0.72l0.83-1.06a0.89,0.89,0,0,1-.24.35c0.33-.37.55-0.66,0.83-1,0.14-.13-0.19.3,0.34-0.37,0.68-.9-0.54.63,0.05-0.15Z"/><polygon class="cls-8" points="127.5 479.72 127.09 480.23 127.28 480.02 127.5 479.72"/><path class="cls-8" d="M125.28,482.53l0.72-.89C126.22,481.26,125.82,481.77,125.28,482.53Z"/><path class="cls-8" d="M127.58,479l-0.13,0-0.15.17A2,2,0,0,1,127.58,479Z"/><path class="cls-8" d="M125.63,479.18c0.06,0.28.43,0.17,0,.72a15.23,15.23,0,0,0,1.44-.83c0.12-.14-0.72.32-0.9,0.27,0.44-.25-0.09-0.15,0-0.33A2.21,2.21,0,0,1,125.63,479.18Z"/><path class="cls-8" d="M127.25,478.14c0-.1-0.34-0.17-0.14-0.25s0.37,0,.3.1c0.6-.08-0.1-0.1.29-0.23a0.71,0.71,0,0,1-.3,0c0.11-.25-0.4-0.12-0.26-0.37l0.17-.3-1.24-.14H126a1.17,1.17,0,0,0,.29.49,6.25,6.25,0,0,0-.83-0.56c0.15,0.18.54,0.56,0.85,1-0.68-.37-0.18.27-0.66,0,0,0-.06-0.15,0-0.13-0.46-.54,0,0.2-0.22.16l-0.37-.48c0,0.14.1,0.55-.28,0.28l-0.17-.25a1.51,1.51,0,0,1-.3.84L124,478c0.05,0.54.36,0,.75,0.82-0.71-.85.11,0.38-0.3,0.14s0-.28-0.39-0.63c0.32,0.47,0,.18.06,0.37a3.3,3.3,0,0,1-.52-0.45l0.37,1c-0.23-.21-0.27-0.11-0.27,0,0.14-.1.46,0.66,0.76,0.73a0.84,0.84,0,0,1,.76-0.8c-0.43-.6.18-0.13-0.15-0.64l0.45,0.5a0.91,0.91,0,0,0-.42-0.53c0-.14.35,0.16,0.51,0.38,0.15-.07-0.11-0.17-0.29-0.53l0.59,0.57a2.63,2.63,0,0,1,.74-1.23l-0.41-.17a0.72,0.72,0,0,1-.13.39l0.5-.08c-0.13.14,0.16,0.23,0.34,0.32s0.27,0.12-.27.32l0.43,0c-0.25,0-.76.22-1.1,0.21a2.3,2.3,0,0,1,.13.23l0.24-.21c0.43,0,.17.13-0.21,0.31a4.51,4.51,0,0,0,1.3-.55c-0.47,0-.24-0.09.05-0.17s0.66-.11.46-0.19A1.14,1.14,0,0,0,127.25,478.14Z"/><path class="cls-8" d="M125.88,478.64l0.14,0Z"/><path class="cls-8" d="M123.71,479.24a0.11,0.11,0,0,0,0,.07C123.73,479.43,123.71,479.33,123.71,479.24Z"/><polygon class="cls-8" points="126.17 479 126.18 479 126.17 479 126.17 479"/><polygon class="cls-8" points="127.41 478.64 127.43 478.59 127.2 478.69 127.41 478.64"/><path class="cls-8" d="M122.72,479.22l0.16,0.21A1.54,1.54,0,0,0,122.72,479.22Z"/><path class="cls-8" d="M121,480.37l0,0S121,480.34,121,480.37Z"/><path class="cls-8" d="M122.18,480a1.51,1.51,0,0,0-.48-0.71l0.23,0.13a1.33,1.33,0,0,0-.85-0.61l0.19,0.14c0.28,0.33-.45-0.09-0.66,0,0,0.2.89,0.74,0.61,0.76a0.58,0.58,0,0,1-.41-0.17,2.33,2.33,0,0,0,.57.62c-1.81-.88.29,0.64-0.95,0.25a0.78,0.78,0,0,0,.12.6c-0.41-.31-0.11.12-0.6-0.17,1,0.57-.69.2,0.61,0.9-0.47,0,.08.05-0.35,0.13a0.21,0.21,0,0,1-.15-0.14c-0.32,0,.49.43-0.15,0.2-0.2.14,0.34,0.21,0.63,0.51a0.65,0.65,0,0,1-.55,0l0.39,0.32c0.09,0.09.2,0.19,0.35,0.32a1,1,0,0,1-.25-0.73,0.39,0.39,0,0,1-.33-0.29c0.27-.07-0.13-0.49-0.05-0.79,0.58,0.53-.18.17,0.37,0.52a2.15,2.15,0,0,0,.28.92,0.72,0.72,0,0,0,.28-0.74,2.68,2.68,0,0,1,.3.32c0.39,0.13-.22-0.83.13-0.67l0.22,0.34c-0.25-.48.38-0.15,0.36-0.51a1.44,1.44,0,0,1-.31-0.36c0.62,0.79-.1-0.59.5-0.16a1.29,1.29,0,0,1-.42-1,2.79,2.79,0,0,1,.4.45c-0.39-.17.28,0.67,0.33,1-0.1-.34.29-0.21,0.09-0.65l0.27,0.42c0.19-.06-0.58-1-0.12-0.73l0.21,0.3c0.28-.28,1-0.05.78-0.9a12.13,12.13,0,0,0-.89-0.89,10.27,10.27,0,0,0,.31,1.1l-0.36-.45a2.55,2.55,0,0,0,.5.8c0.09,0.3-.38-0.34-0.28,0-0.37-.48-0.34-0.58-0.65-1l0.09,0.31c-0.12-.21-0.18-0.12-0.3-0.32,0.28,0.71-.41,0-0.38.36H122a0.43,0.43,0,0,1,.15.39,1,1,0,0,0-.55-0.35,2.24,2.24,0,0,1,.31.85,3.58,3.58,0,0,0-.74-0.54c0.37,0.51-.06.34,0.15,0.64,0,0.15-.1.15-0.3-0.11a0.75,0.75,0,0,1,0-.12l-0.07,0a0.83,0.83,0,0,1-.08-0.12c-0.06,0,.23.39,0,0.2a0.28,0.28,0,0,1-.08-0.23c-0.2,0,.36.94-0.1,0.57a2.38,2.38,0,0,0,.48.9c-0.19-.15-0.5-0.58-0.56-0.42,0.29,0.5-.26-0.07-0.11.29-0.26-.56-0.1-0.13-0.36-0.65-0.22-.13.14,0.56-0.06,0.59l-0.3-.32c0.07,0.2.31,0.61,0,.27l0.26,0.31a0.41,0.41,0,0,0-.24,0l1.31,1.07a0.54,0.54,0,0,1,.42,0l-0.62-.48c0.81,0.2.28-.37-0.27-0.82a0.41,0.41,0,0,1,.39,0l0.21,0.2c0.07-.08.52,0,0-0.34-0.12-.18.43,0.13,0.56,0.11-0.7-.6.88-0.27-0.31-1a0.82,0.82,0,0,0-.39.28,1.83,1.83,0,0,1-.38-0.28c0-.18.51,0,0.39-0.28l0.77,0.41C122.69,480.79,121,479.61,122.18,480Z"/><path class="cls-8" d="M121.18,481.9l0.45,0.09-0.34-.16C121.33,481.9,121.31,481.93,121.18,481.9Z"/><path class="cls-8" d="M121.29,481.83a0.77,0.77,0,0,0-.13-0.14s0,0.05,0,.1Z"/><path class="cls-8" d="M122.27,479.47s0.13,0,.07-0.12S122.17,479.39,122.27,479.47Z"/><polygon class="cls-8" points="122.11 479.22 121.96 479.22 122.04 479.27 122.11 479.22"/><path class="cls-8" d="M123.06,475.67l-0.38-.42c0.26,0.09.07-.26,0.45,0-0.51-.39.15-0.34-0.7-0.67,0,0.66-.82,1.13-0.41,2.1l-0.28-.26c0.49,0.64-.92.07,0.23,1l-0.64-.37c-0.26,0,.81.75,0,0.55l0.28,0.12s-0.15,0-.17,0l0.13,0c0.21,0.24.15,0.29-.09,0.3s-0.06-.09-0.1-0.15c-0.24-.06.17,0.25,0.12,0.32a0.77,0.77,0,0,1-.39-0.21c0.17,0.39-.58.14,0.32,0.81a0.86,0.86,0,0,1,.41.24c0.39,0,.06-0.33-0.13-0.61l0,0c-0.89-.6.26,0-0.06-0.37a4.37,4.37,0,0,1,.51.46c0.84,0.16-.4-0.59.6-0.25l0,0c0.11,0,0-.13-0.1-0.22a1.23,1.23,0,0,0-.32,0,4.08,4.08,0,0,0-.64-0.44c0.45,0.16-.17-0.18.09-0.16a1.25,1.25,0,0,1,.51.39l-0.21-.24a1.52,1.52,0,0,1,.71.18c-0.25-.23-0.23-0.06-0.62-0.34,0.53,0.14.62-.36,0.35-0.76a1,1,0,0,1,.3.29c0.11,0,0-.2-0.34-0.35s0.09-.36.43-0.36l-0.32-.11c-0.45-.37.52-0.1,0.33-0.44h0c0-.1-0.73-0.52-0.52-0.56A4.59,4.59,0,0,0,123.06,475.67Z"/><path class="cls-8" d="M122.73,474.62l0.38,0.28a1.14,1.14,0,0,0-.64-0.51c0.06,0.09-.15.06,0.08,0.19C122.62,474.6,122.77,474.68,122.73,474.62Z"/><path class="cls-8" d="M123.34,473.25A3.14,3.14,0,0,0,123,473c-0.09.31-.1,0.74-0.49,0.69a2.43,2.43,0,0,0,.53.56l-0.45-.16c0.23,0.2-.32.17,0.4,0.45,0.06,0-.3-0.22-0.15-0.22l0.23,0.13,0-.17,0.28,0.19c0.51,0-.83-0.58-0.45-0.65l0.6,0.31c0.11-.13-0.06-0.3.37-0.24,0,0-.3-0.15-0.19-0.07a1.4,1.4,0,0,1-.47-0.19c-0.36-.45.34,0.22,0.66,0.19-0.32-.39-0.48-0.92.05-0.78a0.72,0.72,0,0,1-.64-0.51,1.65,1.65,0,0,1,.51.32c0.09,0,.26,0,0.19-0.07a2,2,0,0,1-.94-0.59C122.54,472.28,123.54,473,123.34,473.25Z"/><path class="cls-8" d="M122.87,472.92a0.24,0.24,0,0,0,.11.11l0-.1h-0.15Z"/><path class="cls-7" d="M122.63,432.51a62.43,62.43,0,0,1-11.54-17.17c3.94-2.08,7.33-5.7,8-10.11s-2.3-9.37-6.71-10c-3.31-.43-6.56,1.59-8.5,4.3s-2.83,6-3.63,9.26a4.4,4.4,0,0,1-1.15,2.4,4,4,0,0,1-2.49.72c-3.44.14-6.92-.49-10.29,0.19s-6.76,3.26-6.76,6.7,3.29,5.92,6.59,6.23,6.51-1.11,9.39-2.76c3.09-1.77,6.79-3.89,9.95-2.26a9.19,9.19,0,0,1,2.63,2.34,73.13,73.13,0,0,1,7.59,10.69"/><path class="cls-6" d="M124.4,430.74a65.16,65.16,0,0,1-11.15-16.67l-0.9,3.42c4.53-2.64,8.66-6.78,9.2-12.27,0.45-4.59-1.84-9.5-6.09-11.54s-9.29-.37-12.49,3a19.67,19.67,0,0,0-4.06,7.44c-0.57,1.72-.57,4.32-2.34,5.32-1.08.61-4-.09-5.17-0.11-4.91-.06-10.33.75-13.12,5.31a8,8,0,0,0,2,10.59c4.46,3.64,10.24,2.41,15,0,4-2,6.92-4.38,11-1.11,2.92,2.33,5.31,7,7.2,10.18,1.65,2.76,6,.25,4.32-2.52-2.9-4.85-7.45-13.88-13.77-14.75-3.64-.5-6.74,1.5-9.83,3.08-2.54,1.3-5.67,3.17-8.7,2.28-4.74-1.38-3.94-5.94.14-7.54s8.73,0.52,12.87-.7c3.14-.92,3.66-3.54,4.46-6.33,1.25-4.33,7-15.57,12.4-7.8,3.6,5.21-1.26,10.57-5.6,13.1a2.57,2.57,0,0,0-.9,3.42,69.46,69.46,0,0,0,11.94,17.68c2.19,2.37,5.71-1.17,3.54-3.54h0Z"/><path class="cls-7" d="M155.68,482.79L169,499.4c2.71,3.38,6.28,7.13,10.56,6.45,2.57-.4,4.86-2.41,7.44-2.1,3.13,0.38,4.86,4.44,3.57,7.32s-4.71,4.36-7.86,4.21-6.08-1.66-8.73-3.38a64.27,64.27,0,0,1-14.77,14.76c-2.83-2.24-3.3-6.41-2.62-10s2.29-6.88,2.79-10.45c1.1-7.75-3-15.18-7-21.92"/><path class="cls-6" d="M153.91,484.55l10.27,12.84c2.76,3.44,5.45,7.5,9.43,9.66,3.56,1.94,5.91,1,9.57.21,1.4-.3,4.25-0.66,5.21,1,0.78,1.34-2.44,4.06-3.67,4.35-3.38.81-6.76-1.16-9.52-2.86a2.56,2.56,0,0,0-3.42.9,65,65,0,0,1-13.87,13.86l3,0.39c-5.62-5.47,1.48-15.95,1-22.75s-4-13.19-7.46-19.06c-1.63-2.77-6-.26-4.32,2.52,5.14,8.77,8.27,15.94,5.16,26.09-1.79,5.84-2.72,12.07,2.07,16.73a2.53,2.53,0,0,0,3,.39,72.72,72.72,0,0,0,15.67-15.66l-3.42.9c4.87,3,11.08,5.44,16.47,2.09,4.19-2.6,5.77-8.09,2.63-12.18-4.93-6.43-11.64,1.85-17.16-2.29-3.24-2.43-5.61-6.2-8.11-9.33L157.45,481c-2-2.51-5.53,1-3.54,3.54h0Z"/><path class="cls-7" d="M164.83,437.23l20.78-17.08a4.82,4.82,0,0,0,1.51-1.71c0.82-1.92-1-3.83-2.36-5.4-3-3.37-4.16-9.2-.65-12a5.51,5.51,0,0,1,8.63,6.15c3.85,1.38,7.78,3.08,10.4,6.22s3.46,8.12.86,11.27-6.91,3.31-10.81,3.62a88.79,88.79,0,0,0-40.44,13.58"/><path class="cls-6" d="M166.6,439l11.88-9.76c3.15-2.59,7.45-5.13,10-8.35a5.65,5.65,0,0,0,.48-6.54c-0.92-1.7-2.54-2.89-3.42-4.62a8.71,8.71,0,0,1-1-3.51q-0.31-4.92,5.85.31a2.58,2.58,0,0,0,1.75,3.08c2.89,1.07,6,2.27,8.26,4.47,3.1,3,4.14,8.19-.38,10.48s-11.07,1.58-16,2.47a92.45,92.45,0,0,0-32.49,12.72c-2.72,1.7-.22,6,2.52,4.32a89,89,0,0,1,24.57-10.73,91,91,0,0,1,14.6-2.51c2.83-.27,5.77-0.39,8.43-1.5,5.26-2.2,7.54-7.48,5.9-12.94-1.93-6.42-8.31-9.43-14.11-11.59l1.75,3.08c2.26-11.07-13.74-14.49-15.55-3.49a11.89,11.89,0,0,0,.78,6.14,32.57,32.57,0,0,0,1.65,3.07l1,1.23q2.49,3.34-.64,4.79c-2,2.82-6.19,5.08-8.91,7.32l-10.39,8.54c-2.49,2,1.07,5.56,3.54,3.54h0Z"/><path class="cls-7" d="M110.93,478.77a68.71,68.71,0,0,1-24.21,15l-5-12.45A5,5,0,0,0,80,478.89c-1.68-1.08-3.91.2-5.15,1.75a11.91,11.91,0,0,0-.54,13.7c1.5,2.23,3.79,3.94,4.84,6.42,1,2.26.77,4.84,1.28,7.25s2.22,5,4.68,4.94c2.26,0,4-2.33,4.13-4.58s-0.76-4.42-1.68-6.49q13.73-6.79,27.18-14.13l-1.18,1.09"/><path class="cls-6" d="M109.16,477a68.86,68.86,0,0,1-23.11,14.4l3.08,1.75c-1.87-4.63-3.25-10.57-6.13-14.68a5.43,5.43,0,0,0-7.22-1.71c-6.94,3.38-7.13,13.81-3.2,19.39,1.16,1.64,2.81,3,3.82,4.7,1.27,2.17,1,4.72,1.53,7.1,0.61,3,2.21,6.26,5.38,7.23a6.47,6.47,0,0,0,7.24-3c2.36-3.7.76-7.95-.8-11.59L88.85,504q13.73-6.81,27.18-14.13L113,486l-1.18,1.09c-2.37,2.18,1.17,5.71,3.54,3.54l1.18-1.09c2.14-2-.59-5.25-3-3.93q-13.46,7.32-27.18,14.13a2.56,2.56,0,0,0-.9,3.42q2.71,3.61-1.92,6a9.62,9.62,0,0,1-.94-4,27.88,27.88,0,0,0-.52-3.58c-0.65-2.5-2.17-4.36-3.8-6.3-2-2.43-5.72-9-2-12.08s7.42,9.7,8.1,11.37c0.47,1.16,1.69,2.26,3.08,1.75a75.3,75.3,0,0,0,25.31-15.69c2.35-2.21-1.19-5.74-3.54-3.54h0Z"/><path class="cls-7" d="M273.43,102.25c-1.8-17.78,14.08-32,29.3-41.41,9.41-5.79,19.4-11.07,30.29-12.93s22.9,0.15,31.14,7.51c15.37,13.74,11.77,38,11.14,58.59-0.16,5.32,1.85,12.54,7.16,12.12,2.52-.2,4.45-2.23,6.11-4.12l35.29-40c9.41,18.6-1.75,40.94-14.87,57.14-6.11,7.55-13,15.29-14.37,24.91-1,7.3,1.27,14.61,3.55,21.61L419.46,251c-13.72-1.82-25.36-16-38.74-12.44-11.48,3-17.65,18.16-29.51,18.75-9.65.49-17-9.13-26.52-10.74-4.47-.76-9,0.33-13.45,1.29a250,250,0,0,1-60.39,5.54,411.49,411.49,0,0,0,28.74-89.17c0.75-3.77,1.44-7.78.1-11.38-1.74-4.68-6.38-7.49-10.57-10.21a125.11,125.11,0,0,1-39.2-40.77c-3.44-5.78-6.47-12.06-6.8-18.77s2.6-14,8.57-17.06c6.33,9.09,12.85,18.38,22,24.7S275.09,99.87,285,95"/><path class="cls-6" d="M291.09,103.21c3.6,2.73,1,8.81-3.49,7.85-5.27-1.13-4.2-8.52.92-8.72,3.21-.13,3.22-5.13,0-5a10,10,0,0,0-9.48,8.75,9.18,9.18,0,0,0,7.23,9.79c10.33,2.49,15.24-11,7.34-17-2.56-1.95-5.06,2.39-2.52,4.32h0Z"/><circle class="cls-7" cx="326" cy="109.93" r="12.58"/><path class="cls-6" d="M315.92,109.93c0.7-12.91,20.16-13,20.16,0s-19.47,12.92-20.16,0c-0.17-3.2-5.17-3.22-5,0C311.36,118.11,317.47,125,326,125a15.07,15.07,0,0,0,.69-30.12c-8.8-.39-15.31,6.58-15.77,15C310.75,113.15,315.75,113.14,315.92,109.93Z"/><path class="cls-6" d="M267.15,102.25C265.82,84.38,281.44,71.52,295.21,63c15.31-9.47,35.09-18.6,52.76-9.63,15.52,7.88,17.14,26.36,16.82,41.79-0.15,7.34-1.53,15.15-.57,22.44,0.62,4.72,2.91,10.49,8.37,11,3.76,0.36,6.61-2.26,9-4.83,3.79-4.12,7.41-8.4,11.11-12.6l24.18-27.42-3.93-.51c6.75,14.19,1.34,29.91-6.33,42.54-6.89,11.34-18.34,20.72-22.27,33.68-4.33,14.27,3.78,30.27,8.14,43.63l15.81,48.5,3.08-3.08c-13-2.12-23.61-14.59-37.41-12.92-6,.73-10.79,4.36-15.13,8.35-4.82,4.43-9.91,10.77-17.05,10.8-7.4,0-13.49-6.22-20-9-7-3-13.72-1.68-20.91-.16a251.68,251.68,0,0,1-58.8,5.25l2.16,3.76a422.57,422.57,0,0,0,20.48-55.13q4.22-14.42,7.37-29.12c1.56-7.25,4-15.46-.82-22-4.52-6.13-12.52-9.55-18.41-14.19A124.5,124.5,0,0,1,234.19,116c-8.81-10.58-28.51-37-10-47.85l-3.42-.9c6.25,9,12.65,18,21.5,24.63,4.57,3.41,9.26,6.89,14.09,9.92,2.69,1.69,5.69,3.54,9,2.83s1.81-5.49-1.33-4.82c-2.53.54-7.07-3.6-8.93-4.91-4.15-2.91-8.49-5.75-12.37-9-7.06-6-12.39-13.64-17.63-21.16a2.56,2.56,0,0,0-3.42-.9c-10.14,5.94-11.53,18.59-7.77,28.83,4.5,12.28,13.27,23.56,22.2,33a127.49,127.49,0,0,0,14.77,13.28c5.19,4,13.53,7.45,16.92,13.18,3.82,6.46-.57,17.49-2.16,24.27q-2.78,11.88-6.26,23.59a413.36,413.36,0,0,1-19.44,52.13,2.54,2.54,0,0,0,2.16,3.76,257.24,257.24,0,0,0,55.47-4.49c4.4-.85,8.84-2.19,13.32-2.52,4.74-.35,8.71,1.14,12.76,3.44,5.33,3,10.47,6.92,16.79,7.41,13.18,1,19-12.72,29.4-17.74,7.38-3.54,14.78,0,21.38,3.58,6,3.23,12,6.69,18.83,7.81,1.75,0.28,3.72-1.09,3.08-3.08l-15.81-48.5c-2.58-7.92-5.51-15.83-7.64-23.89-2.41-9.12-1.71-17.09,3.34-25.13,3.76-6,8.68-11.17,12.86-16.87a92,92,0,0,0,10.53-18.15c5.13-12,6.6-25,.87-37a2.51,2.51,0,0,0-3.93-.51l-22.22,25.2-9.8,11.12c-1.57,1.79-3.23,4.28-5.21,5.64-3.53,2.43-5.44.6-6.45-2.84-2.14-7.33,0-16.63.15-24.18,0.16-7.32,0-14.77-1.7-21.93-3.48-15-14.49-25.84-29.92-28-17.55-2.47-34.42,6.1-48.65,15.49s-28.72,23.18-27.36,41.55c0.24,3.19,5.24,3.22,5,0h0Z"/><path class="cls-10" d="M242.3,231a205.63,205.63,0,0,1,30.32,30.64l-10.93,18.46c-3.26,5.5-6.63,11.84-4.83,18,2.81,9.57,15.19,11.37,25,13.24,22.73,4.34,43.18,18.82,55.5,38.41s16.54,44,12.3,66.7c-0.48,2.58-1.2,5.36-3.3,6.93-1.72,1.28-4,1.47-6.14,1.52-40,1-76.33-27.22-95.64-62.27-2.64-4.79-5.07-9.87-5.55-15.32s1-10.7,1.17-16.08-1.26-11.41-5.83-14.25c-9.79-6.09-21.72,7.29-33.05,5.2-4.45-.82-8.08-4-11.4-7a297.51,297.51,0,0,1-23.51-24.46,186,186,0,0,1,57-21.05,89.25,89.25,0,0,1,16.37-45"/><path class="cls-6" d="M240.33,232.94a214,214,0,0,1,30.32,30.64l-0.44-3.39c-4.8,8.11-10.41,16.14-14.28,24.74-2.66,5.92-3.49,12.61.33,18.21,7,10.3,22.93,9.68,33.61,13,31.27,9.79,53.37,38.1,57.74,70.23a93.08,93.08,0,0,1-.09,25.9c-0.72,4.89-1.35,9.48-7.31,9.74a73.48,73.48,0,0,1-11.88-.55c-14.74-1.76-28.76-7.65-41.05-15.84a124.8,124.8,0,0,1-32.72-32.34c-4.39-6.27-8.95-13.17-11.45-20.45-3-8.66.71-17-.31-25.8-0.7-6-3.83-12-9.91-13.9-6.54-2.08-13.07,1.31-19,3.72-3.64,1.48-7.83,3.21-11.85,2.53-4.65-.79-8.26-4.51-11.55-7.6a304.2,304.2,0,0,1-22.13-23.18L167.8,293a188.49,188.49,0,0,1,56.3-20.77,2.85,2.85,0,0,0,2.05-2.69,88.65,88.65,0,0,1,16-43.61c2.07-2.95-2.77-5.74-4.83-2.82a94.14,94.14,0,0,0-16.75,46.43l2.05-2.69A193.29,193.29,0,0,0,165,288.21a2.83,2.83,0,0,0-.57,4.39c6.36,7.38,13,14.48,20.08,21.23,5.08,4.87,10.61,10.71,18.07,11.26,6.57,0.49,12.52-2.85,18.46-5.12,3-1.17,6.55-2.46,9.82-1.55,4.68,1.3,6.32,6.36,6.54,10.72,0.44,8.68-2.53,16.64.34,25.23,2.38,7.1,6.56,13.74,10.72,19.91A134.61,134.61,0,0,0,279.54,407a104.28,104.28,0,0,0,40,18.63c7.15,1.53,14.92,2.55,22.24,1.89,7.64-.69,9.87-6.1,10.95-12.93,5.09-32.18-6-66.2-31.29-87.27-13-10.82-27.57-16.44-43.94-19.75-7.71-1.56-19.1-4.14-18.27-14.25,0.46-5.57,4-10.56,6.82-15.25L275,263a2.89,2.89,0,0,0-.44-3.39A214,214,0,0,0,244.28,229c-2.75-2.27-6.73,1.66-4,4h0Z"/><path class="cls-11" d="M343.27,365.81c-15.79,16.2-38.1,25.84-50.85,44.53-0.75,1.1-.44,3.45.7,2.77"/><path class="cls-6" d="M341.29,363.84c-9.51,9.58-20.91,16.8-31.5,25.07a104.47,104.47,0,0,0-14.66,13.42c-2.88,3.3-7.48,7.54-5.13,12.21a2.76,2.76,0,0,0,2.41,1.38h0.7c3.59-.06,3.6-5.65,0-5.59h-0.7l2.41,1.38c-0.41-.82,5-6.3,5.79-7.13,1.91-2,3.92-4,6-5.85,4.24-3.78,8.78-7.2,13.36-10.55,8.74-6.41,17.6-12.67,25.26-20.39,2.54-2.56-1.41-6.51-4-4h0Z"/><circle class="cls-12" cx="460.64" cy="219.1" r="89.78"/><path class="cls-6" d="M392.9,180.93a66.39,66.39,0,0,1,11-19l-4.27-1.77c-0.61,7.82-1.57,15.7-1.84,23.54-0.12,3.54,1.27,7.74,5.57,6.71,3.13-.75,1.8-5.57-1.33-4.82,1.54-.37,1.44-10.55,1.57-12.25l1-13.18c0.16-2.08-2.91-3.41-4.27-1.77a73.76,73.76,0,0,0-12.31,21.18c-1.14,3,3.69,4.32,4.82,1.33h0Z"/><path class="cls-6" d="M393.9,182.8a74.89,74.89,0,0,0-24.8-21.28c-2.35-1.25-4.4,1.19-3.42,3.42L376,188.27c1.3,2.94,5.61.4,4.32-2.52L370,162.41l-3.42,3.42a69.31,69.31,0,0,1,23,19.49c1.92,2.54,6.26,0,4.32-2.52h0Z"/><path class="cls-6" d="M396.91,185.23c-5.83-4.4-14.67-7.67-20.09-.79-4.84,6.14-.06,12.59,6.58,14.12,5.71,1.32,14.33.25,16.22-6.44,1.57-5.53-2.72-11.47-8.55-10.47-3.16.54-1.82,5.36,1.33,4.82,1.32-.23,2.18,1.36,2.41,2.42a3.65,3.65,0,0,1-1.66,3.89c-2.56,1.83-6.65,1.59-9.48.67-4.3-1.38-5.1-6-.51-7.7,4-1.5,8.21,1.51,11.22,3.79,2.57,1.94,5.06-2.4,2.52-4.32h0Z"/><path class="cls-6" d="M510.76,213a28.49,28.49,0,0,0-23.82-3.6c-3.37,1-7.2,2.7-9.49,5.48-2.45,3-2.26,7-2,10.67a66.44,66.44,0,0,0,8.44,27.16c2.47,4.49,5.89,8.75,7.31,13.73,1.47,5.17-1.44,16.1-8.85,10.87-2.64-1.86-5.14,2.48-2.52,4.32,5.77,4.06,13.44.81,16-5.43,3.22-7.94-1.44-15.71-5.44-22.34-5.62-9.3-10-19.92-10-31,0-6.62,6.28-8.88,12.09-9.53a23.52,23.52,0,0,1,15.81,3.93c2.7,1.77,5.21-2.56,2.52-4.32h0Z"/><path class="cls-6" d="M392.29,234c-3.94-.51-6.9,1.13-9.19,4.25-0.87,1.19-.08,2.67.9,3.42,5.77,4.45,13.41,3.49,19.43,7.2,6.63,4.09,9.88,13.22,13.69,19.66,8.06,13.65,17.15,27.72,28.73,38.68,10.35,9.79,23.51,16.23,38,14.89a47.83,47.83,0,0,0,33.57-18.39C527.18,291,529.88,274,526,258.61c-0.78-3.12-5.61-1.8-4.82,1.33,7,27.66-11.68,57.72-41.77,57.38-14.81-.17-26.81-9.31-36.15-20-9.91-11.39-18.16-24.45-25.48-37.62-3.1-5.58-6.19-11.62-11.83-15.07-6-3.69-13.76-2.82-19.43-7.2l0.9,3.42a4.46,4.46,0,0,1,4.87-1.78c3.18,0.41,3.15-4.59,0-5h0Z"/><path class="cls-6" d="M517.36,200.21c-12.94-24.61-36.8-43.54-65.4-44.36-13.08-.37-28.07,2.84-36.34,13.81-9,12-8.41,27.5-5.54,41.48,0.65,3.15,5.47,1.82,4.82-1.33-2.67-13-3.41-28.27,6.11-38.86,8.56-9.52,23.93-11.07,35.95-9.76,24.84,2.71,44.77,20,56.08,41.54,1.5,2.85,5.82.32,4.32-2.52h0Z"/><path class="cls-6" d="M454.83,241.1a63.44,63.44,0,0,1,12.39,5.48,16.78,16.78,0,0,1,3.18,2c0.81,0.78,2.65,2.47,1.89,3.87-0.85,1.56-5.09,1.79-6.42,1.82-8.06.15-17.11-8.85-9.85-16.21,2.26-2.29-1.27-5.83-3.54-3.54a14,14,0,0,0-2.12,16.55c3.36,6.25,11,8.84,17.72,8,5.24-.63,12.33-4.59,8.93-10.87-1.59-2.93-5.15-4.77-7.93-6.34a70.12,70.12,0,0,0-12.94-5.61c-3.07-1-4.38,3.83-1.33,4.82h0Z"/><path class="cls-6" d="M505.14,239.85c-0.19,5.29-6,10.56-10.81,6-4-3.79.88-10.51,5.09-7.17,2.5,2,6.06-1.54,3.54-3.54-8-6.35-19.56,3.36-13.78,12.27a10.91,10.91,0,0,0,12.95,4.43,13.12,13.12,0,0,0,8-12c0.12-3.22-4.88-3.21-5,0h0Z"/><path class="cls-6" d="M524.79,195.19c-3.09,11.8-17.17,18.24-27.56,22.29A95.42,95.42,0,0,1,460.35,224c-24.57-.58-48-11.36-65.1-28.92a2.53,2.53,0,0,0-3.93.51C382,209.26,393,224,403.48,232.86c13.71,11.59,28,23.41,44.21,31.3,14.88,7.24,32,11.17,48.46,7.55C503.55,270.08,511,266.82,516,261c5.17-6,7.83-14.27,10.43-21.6,3.92-11,15.64-41.79-5.47-43.35-3.21-.24-3.19,4.76,0,5,17.34,1.28-1.26,44-5.38,51.63-9.12,17-32.59,17.41-49,13.21-17.9-4.58-33.29-15.35-47.53-26.73-10.87-8.69-34.76-24.39-23.39-41l-3.93.51c18.78,19.33,45,30.74,72,30.4a100.48,100.48,0,0,0,39.34-8.59c10.77-4.76,23.3-11.66,26.52-23.9,0.82-3.12-4-4.44-4.82-1.33h0Z"/><path class="cls-6" d="M193,142.13l27.41,48.74c1.58,2.8,5.9.29,4.32-2.52L197.27,139.6c-1.58-2.8-5.9-.29-4.32,2.52h0Z"/><path class="cls-6" d="M182.12,182.35l10.3,11.59c2.14,2.41,5.67-1.14,3.54-3.54l-10.3-11.59c-2.14-2.41-5.67,1.14-3.54,3.54h0Z"/><path class="cls-6" d="M150.5,192.95a246,246,0,0,1,41.86,41c2,2.51,5.54-1.05,3.54-3.54A250.94,250.94,0,0,0,153,188.63c-2.55-2-5,2.38-2.52,4.32h0Z"/><path class="cls-6" d="M87.32,243.28a303.76,303.76,0,0,1,48.44,31.81c2.48,2,6-1.52,3.54-3.54A310.34,310.34,0,0,0,89.84,239c-2.84-1.5-5.37,2.81-2.52,4.32h0Z"/><path class="cls-7" d="M389.84,492.32c-26.4,2.11-66.65,10.64-62.95,22.08s17.86,13.22,27.2,14.48c33.78,4.54,53.68,5.3,87.77,5.81,26.1,0.39,52.91-.55,77-10.58,4.65-1.94,10-5.7,8.92-10.63-0.64-3-3.47-4.95-6.13-6.46a108.34,108.34,0,0,0-48.91-14.08"/><path class="cls-7" d="M478.53,439.07a2.28,2.28,0,0,0,0-1.38c-0.33-1-4.58-6.44-8.8-7s-31.18-.65-49.22.61c-8,.56-16.07,1.14-23.61,3.8s-14.41,7.43-21,12.1c1.25,0.37,2.51.72,3.77,1.07l-3.77.35c1.4,13.51,5.57,26.06,11.45,38.3,3.91,8.15,8.31,16.61,15.89,21.52,9.21,6,21,5.41,32,4.65,6.69-.47,13.59-1,19.58-4,10.48-5.32,15.88-17.09,19.22-28.36,4.33-14.6,4.67-26.41,4.65-41.63h-0.11Z"/><path class="cls-6" d="M465.68,433.73c-13.3-1.61-27.49-.45-40.82.14-9.11.41-18.46,0.74-27.37,2.82-10.08,2.36-18.59,8-26.94,13.89a2.54,2.54,0,0,0,.6,4.57c24.81,7.22,52.06,10.46,77.76,6.68,9.63-1.42,19.76-4.69,25.85-12.77,2-2.71,3.1-5.37,1.08-8.33a16.73,16.73,0,0,0-9.49-6.91c-3.13-.75-4.46,4.07-1.33,4.82,2.48,0.59,7.36,3.61,6.6,6.22-1.08,3.71-6.84,6.85-10.08,8.36-8.2,3.81-17.64,4.43-26.54,4.81a194.15,194.15,0,0,1-62.52-7.69l0.6,4.57c8.28-5.82,16.61-11.39,26.65-13.58,9.14-2,18.76-2.22,28.09-2.57,12.39-.47,25.52-1.51,37.87,0C468.87,439.12,468.84,434.11,465.68,433.73Z"/><path class="cls-6" d="M369.31,454.17c1.63,14.39,6.12,27.94,12.45,40.92,5.55,11.39,12.68,21.82,25.64,25.09,6.38,1.61,13.08,1.57,19.61,1.22,6.82-.37,14-0.61,20.53-2.8,11.73-3.92,18.52-14.25,22.7-25.35,5.91-15.67,6.86-32.07,6.86-48.64,0-3.22-5-3.22-5,0,0,15.89-.87,31.55-6.41,46.61-2.52,6.84-6.11,13.81-11.89,18.45-6.66,5.34-15.28,6-23.46,6.52-7.66.52-15.71,1-23.16-1.27-7.83-2.41-13.13-8.06-17.19-15a117.72,117.72,0,0,1-15.67-45.81c-0.36-3.16-5.36-3.2-5,0h0Z"/><path class="cls-6" d="M384,497.34a242.47,242.47,0,0,0-33.67,5.1c-8.89,2-18.9,4.36-26.49,9.69-5.8,4.07-6.93,9.46-2.76,15.39,5.46,7.77,15.65,9.78,24.44,11a678.24,678.24,0,0,0,82,6c28.94,0.53,60.52,1.29,87.46-11.07,4.68-2.15,10-6.1,9.58-11.85-0.41-6-6.66-9-11.33-11.39A113,113,0,0,0,466.93,498c-3.22-.16-3.21,4.84,0,5a107.31,107.31,0,0,1,38.17,8.94c4,1.77,10.44,4,13.26,7.55,5.57,7-10.17,11.52-14.48,12.92-24.31,7.91-50.19,7.67-75.46,7.22-21.88-.39-43.68-1.35-65.43-3.84-9.68-1.11-20.61-1.44-29.76-5.17-5.59-2.28-13.77-8.95-6.84-14.12s16.94-7.29,25.3-9.19A232.69,232.69,0,0,1,384,502.34c3.18-.26,3.21-5.27,0-5h0Z"/><path class="cls-13" d="M405.66,441.46c-2.18-3.1-5-5.3-7.61-8-4.62-4.88-3.67-8.34-.48-13.66,3.33-5.54,7.52-13,5.14-19.72-1.39-3.92-5.7-6.31-9.06-8.28-2.24-1.31-11.51-5.11-11-8.27s-4.34-4.51-4.82-1.33c-1.61,10.58,15.11,11.72,19.61,18.51,2.62,4-.41,10-2.41,13.61s-4.89,7-5.45,11.1c-1.16,8.54,7.63,12.64,11.8,18.58,1.83,2.61,6.17.12,4.32-2.52h0Z"/><path class="cls-13" d="M427.2,441.47c-0.48-3.22-3.49-5-4.06-8-0.7-3.6,3.49-7.86,4.6-11.11,2.08-6.14.85-13.55-1.09-19.58-3.48-10.78-16.76-15-20.1-25.5-1-3.06-5.8-1.75-4.82,1.33,3.44,10.82,16.58,15,20.1,25.5A35.59,35.59,0,0,1,423.76,416c-0.14,4.51-2.35,7.49-4.25,11.31a10.52,10.52,0,0,0-1.19,7.47c0.82,3,3.61,4.92,4.06,8s5.29,1.82,4.82-1.33h0Z"/><path class="cls-13" d="M441.94,439.77c-0.72-6.32-1.61-13.18.65-19.3,2.11-5.72,7.36-9.44,10.13-14.78,2.09-4.05,2.77-8.5,1-12.8-1.87-4.59-5.91-7.89-6.8-12.9-0.56-3.16-5.38-1.82-4.82,1.33,0.77,4.37,3.56,7.45,5.78,11.15,4.22,7.05-.36,12.49-4.84,18-7.22,8.82-7.37,18.41-6.12,29.34,0.36,3.16,5.36,3.2,5,0h0Z"/><path class="cls-13" d="M460.59,433.74l8.87-31.09c0.88-3.1-3.94-4.42-4.82-1.33l-8.87,31.09c-0.88,3.1,3.94,4.42,4.82,1.33h0Z"/><path class="cls-6" d="M392.94,454.74c-0.15,1.16-.44.73,0.19,0.45a38.76,38.76,0,0,1,3.82-1.79c9.39-3,20.09-2.77,29.82-2.67,10.22,0.11,21.35,0,31.27,2.85,1,0.29,3.33,1.65,3.74,1.65a1.86,1.86,0,0,1-.1-1.17c-1,3.07,3.83,4.38,4.82,1.33,3.37-10.38-35-9.59-37.82-9.64-11.14-.19-24.19-0.76-34.8,3.43-2.55,1-5.55,2.54-5.94,5.54-0.42,3.18,4.59,3.15,5,0h0Z"/><path class="cls-7" d="M478,452.94c5.73-4.58,11.33-5.85,18.49-7.43s15.82,1,18.78,7.73c1.94,4.39,1.06,9.6-1.11,13.88-6.09,12-20.56,17.11-33.93,18.77-4.66.58-10.27,0.46-12.92-3.41l23.76-6.16c4.16-1.08,8.39-2.19,12-4.51s6.57-6.09,6.78-10.38c0.13-2.61-.95-5.44-3.25-6.68a9.79,9.79,0,0,0-4.36-.87,62.71,62.71,0,0,0-17,1.79c-4.3,1.06-9.32,3.73-9.08,8.15,0.09,1.71,1,3.29,1.1,5s-1.41,3.72-3,3.1a3.24,3.24,0,0,1-1.52-1.69,15.16,15.16,0,0,1-1.66-10.17c0.79-3.41,3.46-6.5,6.91-7.13"/><path class="cls-6" d="M476.8,458.05c6.27-4.75,16.39-8.69,24.39-7.29,10.47,1.83,12.36,12.24,7,20.44-4.24,6.46-11.38,10.32-18.58,12.59-6.14,1.93-18.12,5.79-23-.13l-1.1,4.18,20.1-5.21c5.5-1.42,11.41-2.59,16.26-5.71,6.19-4,12-14.42,4.84-20.43-3.75-3.16-10.06-2.34-14.54-1.93-5.1.46-10.84,1.1-15.35,3.72-3.13,1.81-5.72,4.7-5.63,8.51a13.82,13.82,0,0,0,.64,3.16c0.81,3,.12,1.33-0.46-0.68-1.3-4.47-.09-9.6,4.83-11,3.1-.85,1.78-5.68-1.33-4.82-9,2.47-10.79,12.55-7.12,20.17,1.36,2.82,3.85,4.89,6.94,3.06,5.16-3.05,0-8,2-11.89,2.52-4.75,13.09-5.14,17.37-5.4,3.36-.2,9.22-1.09,10.64,3,1.09,3.14-1.41,6.86-3.58,8.81-4.7,4.23-11.85,5.27-17.76,6.8l-19.19,5a2.53,2.53,0,0,0-1.1,4.18c6.28,7.66,19.86,3.93,27.83,1.42,9.81-3.09,19.37-9,23.62-18.73,4.14-9.52.67-19.91-9.49-23.28-9.83-3.27-22.86,1.15-30.77,7.14-2.53,1.92,0,6.26,2.52,4.32h0Z"/></g></g></g></svg>