<svg id="Layer_2" data-name="Layer 2" xmlns="http://www.w3.org/2000/svg" xmlns:xlink="http://www.w3.org/1999/xlink" viewBox="0 0 580 580"><defs><style>.cls-1{fill:none;}.cls-2{clip-path:url(#clip-path);}.cls-3{fill:#ffec8d;}.cls-4{fill:#014e7f;}.cls-5{fill:#fff;}.cls-6{fill:#f0dbb5;}.cls-7{fill:#da1f47;}</style><clipPath id="clip-path"><rect class="cls-1" x="1.92" width="580" height="580"/></clipPath></defs><title>iiLAB -U1-concepts-01-STARTING</title><g class="cls-2"><rect class="cls-3" x="-36.34" y="-33.86" width="656.21" height="656.21"/><path class="cls-4" d="M413.08,351.34c3.22,0,3.22-5,0-5s-3.22,5,0,5h0Z"/><polygon class="cls-5" points="203.04 170.76 382.89 258.98 416.72 454.04 130.72 517.64 83.68 312.64 203.04 170.76"/><polygon class="cls-5" points="393.65 449.82 127.7 491.91 92.44 319.13 367.71 262.94 393.65 449.82"/><path class="cls-4" d="M393,447.41l-90.21,14.28-142.7,22.58-33,5.23,3.08,1.75-11.94-58.48L99.25,340l-4.4-21.54-1.75,3.08,93.34-19.05,147.72-30.15,34.21-7-3.08-1.75,8.79,63.33L388,427.32l3.22,23.17c0.44,3.17,5.26,1.82,4.82-1.33l-8.79-63.33L373.34,285.45l-3.22-23.17c-0.19-1.4-1.9-2-3.08-1.75L273.7,279.59,126,309.74l-34.21,7A2.55,2.55,0,0,0,90,319.8L102,378.28,120.9,471l4.4,21.54a2.56,2.56,0,0,0,3.08,1.75L218.58,480l142.7-22.58,33-5.23C397.49,451.73,396.14,446.92,393,447.41Z"/><polyline class="cls-5" points="367.71 262.94 211.88 175.04 92.44 319.13"/><path class="cls-4" d="M369,260.79l-52.69-29.72-83.94-47.35-19.2-10.83a2.53,2.53,0,0,0-3,.39l-40.28,48.59-64.29,77.55L90.67,317.37c-2,2.46,1.48,6,3.54,3.54l40.28-48.59,64.29-77.55,14.88-17.95-3,.39,52.69,29.72,83.94,47.35,19.2,10.83c2.81,1.58,5.33-2.73,2.52-4.32h0Z"/><path class="cls-3" d="M317,301.4a475.38,475.38,0,0,0-70.34,71.75c-1.49,1.89-3.19,3.92-5.56,4.32s-4.6-.94-6.62-2.21a353.3,353.3,0,0,0-115.71-46.4l2.72-3.69a863.62,863.62,0,0,0-43.86-194c56.51,0.68,112.15-12.57,167.1-25.75l96.86-23.22a216,216,0,0,0-12.67,60.35"/><path class="cls-4" d="M315.21,299.64a479.82,479.82,0,0,0-65.26,65.45c-2,2.5-4,5.94-6.5,8-4.37,3.55-8.42-.42-12.31-2.77q-10-6-20.3-11.37A359.2,359.2,0,0,0,170.14,341a358.11,358.11,0,0,0-50.73-14.52l1.49,3.67c0.9-1.22,2.33-2.56,2.84-4,1.14-3.16-.67-9-1.07-12.28q-1.52-12.58-3.4-25.12-4-26.75-9.69-53.22A870.52,870.52,0,0,0,80,130.52l-2.41,3.16C147.15,134.33,215.1,115.1,282.18,99l60.05-14.4-3.08-3.08a224.43,224.43,0,0,0-12.76,61c-0.22,3.21,4.78,3.2,5,0A219.54,219.54,0,0,1,344,82.88c0.68-1.88-1.35-3.49-3.08-3.08Q289.19,92.2,237.48,104.6c-33.54,8-67.2,15.87-101.43,20.36a419.32,419.32,0,0,1-58.45,3.73,2.52,2.52,0,0,0-2.41,3.16,870.78,870.78,0,0,1,28.57,100.36q5.51,25,9.54,50.35,2.18,13.73,3.91,27.53c0.51,4.08,2,9.16,1.55,13.2-0.14,1.13.22,0.74-.52,2.08a23,23,0,0,1-1.65,2.24,2.51,2.51,0,0,0,1.49,3.67,353.86,353.86,0,0,1,92.62,33.2c7.13,3.76,14.11,7.78,21,12,5,3.06,10,5.36,14.82.67,5.55-5.39,10-12.28,15.1-18.14q7.94-9.18,16.34-17.94a482.8,482.8,0,0,1,40.82-37.88c2.48-2.05-1.07-5.57-3.54-3.54h0Z"/><path class="cls-4" d="M213.09,362.81c-9.14,16.25-20.17,31.57-30.69,46.94Q162,439.54,141.09,469c-5.15,7.25-10.3,14.5-15.55,21.69-1.9,2.6,2.44,5.1,4.32,2.52q37.83-51.76,73.33-105.29c4.9-7.4,9.87-14.8,14.22-22.54,1.58-2.81-2.74-5.33-4.32-2.52h0Z"/><path class="cls-4" d="M269.09,350.61c13.45,13.23,29.43,24.26,44.33,35.75,19.87,15.33,39.93,30.49,59.08,46.72,6.73,5.7,13.94,11.5,19.37,18.51,2,2.54,5.48-1,3.54-3.54-4.58-5.92-10.52-10.88-16.15-15.75-8.73-7.55-17.75-14.76-26.81-21.91-19.6-15.47-39.56-30.48-59.15-46-7-5.56-14.28-11.06-20.68-17.36-2.3-2.26-5.83,1.27-3.54,3.54h0Z"/><path class="cls-4" d="M114.31,172.7c22.53-1.91,44.94-6.09,67.15-10.19q41.17-7.61,82-16.84c12.54-2.83,25.07-5.77,37.51-9,3.11-.81,1.79-5.64-1.33-4.82-49.77,13-100.61,23.26-151.39,31.4-11.27,1.81-22.59,3.51-34,4.48-3.18.27-3.21,5.27,0,5h0Z"/><path class="cls-4" d="M137.66,197.62c17.67-.1,34.85-3.82,52.18-6.82a194,194,0,0,1,28-3.13c2.4-.06,4.62-0.12,7-0.4q25.52-3.05,51-6.92c3.81-.58,7.64-1.15,11.42-1.91,1.55-.31,4.15-0.52,5-2.12,1.49-2.85-2.82-5.38-4.32-2.52,0.71-1.36,1.25-.7-0.35-0.52-1.06.12-2.13,0.44-3.18,0.64-3.28.6-6.59,1.12-9.89,1.62-9.15,1.4-18.33,2.67-27.51,3.9-7.21,1-14.42,1.92-21.64,2.79-9.9,1.19-19.85,1.12-29.76,2.62-19.29,2.93-38.23,7.68-57.86,7.79-3.22,0-3.22,5,0,5h0Z"/><path class="cls-4" d="M134.36,231.69l127.26-13.17c3.17-.33,3.2-5.33,0-5L134.36,226.69c-3.17.33-3.2,5.33,0,5h0Z"/><path class="cls-4" d="M141.41,262.55C188,256.63,234,245.89,280.6,240c3.15-.4,3.19-5.41,0-5C234,240.89,188,251.63,141.41,257.55c-3.15.4-3.19,5.41,0,5h0Z"/><path class="cls-4" d="M158.86,293.65c32.76-5.85,65.24-13.5,98.31-17.5,6.15-.74,13.14-2,19.34-1,3.15,0.52,4.5-4.3,1.33-4.82-5.35-.88-11-0.21-16.3.35-8.84.92-17.64,2.26-26.4,3.69-19.27,3.14-38.44,6.84-57.6,10.6-6.66,1.31-13.32,2.68-20,3.88-3.16.56-1.82,5.38,1.33,4.82h0Z"/><path class="cls-4" d="M158.21,322.72c44.93-.61,89-12.27,133.71-16.06,3.18-.27,3.21-5.27,0-5-44.66,3.8-88.78,15.45-133.71,16.06-3.21,0-3.22,5,0,5h0Z"/><path class="cls-4" d="M492.16,240.37c-0.29-41.35-26.29-78.95-65.23-93.24C387.63,132.7,342,145.39,315.79,178c-25.88,32.12-29.27,78.23-7.88,113.63,21.53,35.64,64,54.23,104.84,46C458.66,328.39,491.82,286.9,492.16,240.37Z"/><path class="cls-4" d="M537.54,420.38c-15.6-21-25.79-45.14-37.82-68.21-2.94-5.64-6-11.23-9.29-16.68-2.54-4.2-5.15-9.89-9.16-12.9S472.67,321.06,469,324c-5.64,4.42-10.74,9.7-16,14.53a2.4,2.4,0,0,0-.54.71l-1.18.36a2.52,2.52,0,0,0-1.75,3.08A362.32,362.32,0,0,0,493.14,425c9.31,13.09,19.46,25.55,29.71,37.9,3,3.67,7.13,11,12.93,8.57,4.7-2,9.71-7,12.45-11.27C557.19,446.48,545.72,431.27,537.54,420.38Z"/><circle class="cls-3" cx="377.33" cy="237.46" r="96.73"/><path class="cls-4" d="M476.56,237.46c-0.29-41.35-26.29-79-65.23-93.25C372,129.79,326.44,142.47,300.2,175c-25.88,32.12-29.27,78.23-7.88,113.63,21.53,35.64,64,54.23,104.84,46,45.91-9.23,79.07-50.72,79.4-97.25,0-3.22-5-3.22-5,0-0.28,39.25-25,75.3-62.18,88.65a95.21,95.21,0,0,1-104.82-28.76c-25.18-30.41-28.31-74.83-7.92-108.58s60.61-51.46,99.2-43.74c43.76,8.76,75.42,48,75.73,92.42C471.59,240.67,476.59,240.68,476.56,237.46Z"/><circle class="cls-6" cx="377.33" cy="237.46" r="66.7"/><path class="cls-4" d="M446.53,237.46a70,70,0,0,0-45.33-65c-27.37-10.16-59.23-1.34-77.57,21.33-18.11,22.39-20.53,54.58-5.61,79.3a69.92,69.92,0,0,0,72.26,32.31c32.5-6.08,55.92-35.22,56.25-68,0-3.22-5-3.22-5,0-0.27,26.7-17,51.26-42.28,60.37a64.22,64.22,0,1,1-9-123.27c29.72,6.16,50.95,32.73,51.26,62.9C441.57,240.67,446.57,240.68,446.53,237.46Z"/><path class="cls-3" d="M433.23,320.09a23.65,23.65,0,0,1,15.48,14.1"/><path class="cls-4" d="M432.56,322.5a21.42,21.42,0,0,1,13.73,12.35c1.2,2.94,6,1.66,4.82-1.33a26.75,26.75,0,0,0-17.23-15.84c-3.09-.93-4.41,3.89-1.33,4.82h0Z"/><path class="cls-3" d="M453.36,333.9l-17.06,5.16a356.62,356.62,0,0,0,42.88,81.06c10.76,15.22,22.7,29.56,34.63,43.89,1.12,1.34,2.51,2.81,4.25,2.68a5.56,5.56,0,0,0,2.81-1.39c4.33-3.3,8.84-6.82,11.06-11.79,5.26-11.81-4.36-24.43-12.12-34.77-21.54-28.68-32.64-63.93-52.71-93.66-1.29-1.91-2.81-3.94-5-4.53-3.18-.84-6.23,1.55-8.66,3.77l-14.26,13"/><path class="cls-4" d="M452.7,331.49l-17.06,5.16a2.52,2.52,0,0,0-1.75,3.08,363.59,363.59,0,0,0,35,69.71c7.13,11,14.91,21.53,23,31.81,4,5.12,8.17,10.17,12.33,15.2,3,3.67,6.95,11,11.85,12.47,3.89,1.18,7.3-2.36,10-4.63,4.17-3.49,7.86-7.68,9.18-13.09,2.66-10.91-4.31-21.39-10.42-29.75-15-20.47-25.84-42.64-37.22-65.22-3.26-6.46-6.61-12.88-10.22-19.16-3.08-5.34-6.09-11.47-10.31-16-3.51-3.78-8.21-3.85-12.42-1-6.31,4.2-11.8,10.47-17.38,15.57-2.38,2.18,1.16,5.7,3.54,3.54,4.28-3.91,8.52-7.86,12.83-11.73,3-2.69,5.85-5.84,9.9-2.8,2,1.52,3.73,5.41,5.08,7.56,5.68,9.08,10.66,18.58,15.46,28.15,9.32,18.59,18,37.64,29.93,54.77,5.88,8.46,14,16.79,16.34,27.12a16.29,16.29,0,0,1-4,15,41.46,41.46,0,0,1-5,4.51c-4.05,3.23-5.63.85-8.27-2.33-14.45-17.38-28.71-34.92-40.92-54a357.65,357.65,0,0,1-33.56-67L437,341.47,454,336.31c3.07-.93,1.76-5.76-1.33-4.82h0Z"/><path class="cls-7" d="M359,210.9a46.12,46.12,0,0,1,23.42-11.38c3.58-.59,8.67-2.11,9.69,2.1s-1.45,9.4-3.44,12.91c-8.09,14.28-23.6,24.08-23.6,42.08,0,6.43,10,6.45,10,0,0-11.3,9-19.46,15.62-27.64s12.69-18,11.22-28.95c-0.61-4.51-2.46-9.07-7.21-10.5-4.39-1.32-9.71-.47-14.14.23A56,56,0,0,0,352,203.83c-4.78,4.32,2.31,11.38,7.07,7.07h0Z"/><path class="cls-7" d="M369,279.2a6.56,6.56,0,0,0,5-.72,7,7,0,0,0,3-4c0.86-2.8-.13-6.54-3-7.82a5.44,5.44,0,0,0-3.85-.5,5.1,5.1,0,0,0-3,2.3,5,5,0,0,0-.5,3.85,4.85,4.85,0,0,0,2.3,3,1.88,1.88,0,0,1,.33.18l-1-.78a1.75,1.75,0,0,1,.24.25l-0.78-1a1.94,1.94,0,0,1,.16.3l-0.5-1.19a2.36,2.36,0,0,1,.09.34l-0.18-1.33a2.55,2.55,0,0,1,0,.61l0.18-1.33a3,3,0,0,1-.17.61l0.5-1.19a2.81,2.81,0,0,1-.31.54l0.78-1a2.34,2.34,0,0,1-.34.33l1-.78a2.06,2.06,0,0,1-.3.17l1.19-.5a1.78,1.78,0,0,1-.33.09l1.33-.18a1.79,1.79,0,0,1-.36,0l1.33,0.18-0.13,0a5.27,5.27,0,0,0-3.85.5,5.1,5.1,0,0,0-2.3,3c-0.58,2.54.76,5.53,3.49,6.15h0Z"/><rect class="cls-1" x="1.92" width="580" height="580"/></g></svg>