<svg id="Layer_1" data-name="Layer 1" xmlns="http://www.w3.org/2000/svg" xmlns:xlink="http://www.w3.org/1999/xlink" viewBox="0 0 580 580"><defs><style>.cls-1{fill:none;}.cls-2{fill:#ffec8d;}.cls-3{fill:#fff;}.cls-4{fill:#014e7f;}.cls-5{fill:#0071bc;}.cls-6{fill:#29abe2;}.cls-7{fill:#666;}.cls-8{fill:#4d4d4d;}.cls-9{fill:#da1f47;}.cls-10{fill:#e6e6e6;}.cls-11{clip-path:url(#clip-path);}</style><clipPath id="clip-path"><rect class="cls-1" x="1.76" y="895.69" width="580" height="580"/></clipPath></defs><title>iiLAB -U1-concepts-01-STARTING</title><rect class="cls-2" x="-0.16" y="-1.33" width="580" height="580"/><polygon class="cls-3" points="325.77 238.9 492.18 350.44 499.54 548.27 207.59 572.95 188.47 363.5 325.77 238.9"/><path class="cls-4" d="M468.57,363.1L467.44,427l-1.79,101.33-0.41,23.39,2.5-2.5-91.34.12-144.48.2-33.44,0,2.5,2.5-2.73-59.62-4.33-94.57-1-22c-0.15-3.2-5.15-3.22-5,0l2.73,59.62L195,530.15l1,22a2.54,2.54,0,0,0,2.5,2.5l91.34-.12,144.48-.2,33.44,0a2.54,2.54,0,0,0,2.5-2.5l1.13-63.93,1.79-101.33,0.41-23.39c0.06-3.22-4.94-3.22-5,0h0Z"/><path class="cls-4" d="M472.84,361.34l-47.45-37.53L349.8,264l-17.29-13.68a2.59,2.59,0,0,0-3.54,0l-47.32,41.76-75.53,66.66-17.48,15.43c-2.42,2.13,1.13,5.66,3.54,3.54L239.5,336,315,269.31l17.48-15.43H329l47.45,37.53L452,351.2l17.29,13.68c2.5,2,6.06-1.54,3.54-3.54h0Z"/><path class="cls-4" d="M302.63,439.51c-11.48,14.54-24.81,27.77-37.6,41.13q-24.71,25.81-49.88,51.16-9.19,9.3-18.44,18.54c-2.28,2.27,1.25,5.81,3.54,3.54,30-29.93,59.86-60.13,88.65-91.25,5.9-6.38,11.88-12.76,17.26-19.58,2-2.5-1.54-6.06-3.54-3.54h0Z"/><rect class="cls-4" x="53.87" y="89.87" width="135.44" height="135.44" rx="10" ry="10" transform="translate(-33.5 32.83) rotate(-13.54)"/><rect class="cls-5" x="213.93" y="27.07" width="143.84" height="143.84" rx="10" ry="10" transform="translate(-12.96 51.86) rotate(-10.14)"/><rect class="cls-3" x="382.07" y="76.54" width="143.84" height="143.84" rx="10" ry="10" transform="translate(217.31 563.35) rotate(-78.41)"/><path class="cls-4" d="M370.26,442.54c10.36,14,22.88,26.53,34.64,39.31,15.3,16.64,30.78,33.17,45.32,50.49,5.47,6.52,11.24,13.18,15.37,20.67,1.55,2.82,5.87.3,4.32-2.52-8.24-15-21.32-28-32.63-40.58-15.11-16.87-30.65-33.35-45.82-50.17-5.78-6.4-11.73-12.78-16.87-19.71-1.89-2.56-6.24-.07-4.32,2.52h0Z"/><path class="cls-4" d="M502.58,457.49c3.22,0,3.22-5,0-5s-3.22,5,0,5h0Z"/><path class="cls-3" d="M141.35,119.13c-9.7-8.43-28.56-9.32-38.73-1.21-10,7.95-10.75,22.17-10.68,33.9a349.8,349.8,0,0,0,4.39,52.74c0.78,4.94,1.95,17.77,10.34,13.14,5.47-3,2.74-11.61-3.45-11-6.35.63-6.41,10.63,0,10l0.76-.07-3.54-1.46-0.55-1,1.29-4.86-0.56.51,3.54-1.46-0.79,0,3.54,1.46s-0.46-5.15-.6-6q-0.74-4.48-1.35-9-1.13-8.35-1.82-16.76A277.63,277.63,0,0,1,102,146.26c0.22-6.73,1-15.24,6.29-20.06,5.82-5.27,20.07-5.16,26,0,4.84,4.2,11.94-2.84,7.07-7.07h0Z"/><path class="cls-3" d="M77.49,181.34l31.2-5.11c6.67-1.09,19.34-1.2,19-10.78-0.21-6.42-10.21-6.45-10,0,0-1.52-2-.47-3.17-0.26-1.89.33-3.78,0.62-5.67,0.93L97.52,168,74.83,171.7c-6.34,1-3.65,10.68,2.66,9.64h0Z"/><path class="cls-6" d="M188.76,204c0.18,5.64-9.49,5.33-13.36,5.9l-26,3.85L88.8,222.72c-4.44.66-9.53,2.18-14,2.07-4.89-.12-4.67-7.63-5.19-11.14l-8.42-57-4.29-29c-0.79-5.33-2.22-11-2.42-16.35-0.18-5,5.38-4.88,9-5.42L87,102.4l61.47-9.08c6.12-.9,12.3-2.17,18.47-2.73,5-.45,5.52,3.39,6.11,7.35l15.33,103.78,0.44,3c0.47,3.17,5.29,1.82,4.82-1.33L178.38,99.91c-0.78-5.27-.66-11.89-6.69-14.06-4-1.43-10.16.52-14.16,1.11L94.85,96.23l-28.39,4.19c-4.09.6-10.31,0.47-13.76,3.13-4.9,3.78-2.9,10.17-2.14,15.33l4,26.8L64,209.89c0.63,4.27.95,8.75,1.91,13,1.79,7.82,8.83,7,14.83,6.09l58.45-8.63c15.67-2.32,31.8-3.74,47.32-7a8.74,8.74,0,0,0,7.24-9.27C193.66,200.82,188.66,200.81,188.76,204Z"/><path class="cls-7" d="M493,214.44c-2,5-11.2.61-14.08-.17l-24.09-6.51-55.22-14.93-8.4-2.27c-1.12-.3-3-0.44-4-1.09a13.57,13.57,0,0,1-2.64-4.44,7.83,7.83,0,0,1,.35-1.29,45.79,45.79,0,0,1,1.66-6.14l14.17-52.4,7.15-26.43,2.59-9.59c0.41-1.53.6-3.72,1.38-5.11a6.09,6.09,0,0,1,5-3c1.56,0,3.47.94,5,1.34l21.69,5.87,56.2,15.2C505.24,105,511.14,106,516.5,108c4.44,1.63,3.95,4.9,3,8.51l-25.74,95.19L493,214.44c-0.84,3.11,4,4.44,4.82,1.33l25.75-95.22c1.34-5,3.87-10.85-.73-15-3.06-2.77-8.89-3.38-12.69-4.41L452.43,85.52l-25.88-7c-4.1-1.11-10-3.77-14.21-2.11-5.14,2-5.78,8-7,12.69l-6.66,24.61-15.89,58.77c-1.06,3.93-2.57,8-3.16,12-1.11,7.56,5.23,9.52,10.93,11.06l54.13,14.64c14.12,3.82,28.27,8.49,42.59,11.52,5,1,8.76-1.36,10.58-5.93C499,212.78,494.18,211.48,493,214.44Z"/><path class="cls-4" d="M351.21,147.92c0,5.72-9.74,4.89-13.59,5.31l-26.47,2.93-60.53,6.69c-4.31.48-9.16,1.69-13.51,1.49-5.54-.26-4.76-6.9-5.21-11L225.56,96l-3.25-29.39c-0.56-5.1-1.86-10.64-1.74-15.77,0.13-5.63,4.63-5.06,8.83-5.52l23.38-2.58,62.1-6.86c6.05-.67,12.2-1.74,18.29-2,2.37-.11,4.82-0.32,5.74,2.73a24.6,24.6,0,0,1,.47,4.21l11.51,104.18,0.33,3c0.35,3.16,5.35,3.2,5,0L344.73,44.07c-0.59-5.29-.22-12.29-6-14.77-3.92-1.68-9.8,0-13.82.43l-62.93,7-28.79,3.18c-4,.44-10.14.12-13.69,2.33-5.59,3.48-3.74,10.17-3.15,15.51l3,26.84,7.11,64.32c0.47,4.22.76,8.5,1.4,12.69,1.27,8.29,8.25,7.9,14.53,7.21l59.21-6.54c15.51-1.71,31.2-2.87,46.63-5.15,4.93-.73,8-4.12,8-9.15C356.23,144.7,351.23,144.69,351.21,147.92Z"/><path class="cls-3" d="M316.22,46.52a20.59,20.59,0,0,0-6.08,9.72,31.09,31.09,0,0,1,13.58-8.09,80.88,80.88,0,0,1-4.87,15.5,26.77,26.77,0,0,1,13.9-3.72,22.94,22.94,0,0,1-13.62,15.16c-4,1.57-9.23,2.58-10.58,6.71-0.84,2.57.26,5.33,1.31,7.82,3.63,8.62,6.9,17.62,7,27s-3.33,19.21-10.92,24.66c-6.76,4.86-15.52,5.57-23.72,7a114.26,114.26,0,0,0-47.87,20.61,68.71,68.71,0,0,1,21.11-35.3,132.3,132.3,0,0,1-38.07-3.11c-2.69-.62-5.48-1.38-7.55-3.21-2.23-2-3.33-4.87-4.24-7.69a122.8,122.8,0,0,1-5.91-42.21c21.58,21.25,59.33,23.2,83,4.27l-8.15-10.13c-1.18-1.46-2.43-3.27-1.85-5.06C273.16,65,276,56,277.43,55.38c6.54-2.9,25.58,1.54,32.71.86"/><path class="cls-4" d="M314.45,44.75a25.28,25.28,0,0,0-6.73,10.82c-0.79,2.45,2.45,4.11,4.18,2.43a30.73,30.73,0,0,1,12.47-7.44l-3.08-3.08A90.48,90.48,0,0,1,316.43,63c-0.89,2.14,1.95,3.78,3.67,2.82a26.08,26.08,0,0,1,12.64-3.38l-2.41-3.16c-2.47,8.07-8.18,11.94-15.69,14.77-4.34,1.64-8.65,4.13-8.89,9.32-0.17,3.59,1.73,6.94,3,10.17a96,96,0,0,1,4,11.65c2,7.62,2.49,15.66-.28,23.15-6.11,16.53-24,15.55-38.33,19.12a117.94,117.94,0,0,0-41,19.28l3.67,2.82a68.08,68.08,0,0,1,20.46-34.2,2.52,2.52,0,0,0-1.77-4.27,136.83,136.83,0,0,1-23-.54c-7-.79-19.29-1.14-23.11-8.06-3.43-6.2-4.64-14.75-5.76-21.66a124.38,124.38,0,0,1-1.44-23.46l-4.27,1.77c23.17,22.24,61.27,24,86.52,4.27,1.14-.89.76-2.59,0-3.54-2.33-2.89-4.68-5.77-7-8.68s-2.35-4.28-1.24-7.45c0.59-1.69,1.08-4.58,2.38-5.84,0.76-.73,2.43-0.88,4.05-1,9.2-.49,18.31,2.45,27.48,1.82,3.19-.22,3.22-5.22,0-5-5.93.41-12-.83-17.86-1.39-4.54-.43-12.29-1.84-16.36,1.07-3,2.14-4.57,8.31-5.42,11.69-1.72,6.84,6.57,13.5,10.43,18.28V79.85c-23.07,18-58.42,15.91-79.45-4.27a2.53,2.53,0,0,0-4.27,1.77A130.28,130.28,0,0,0,199.14,104c1.32,7.38,2.72,17.39,7.54,23.48S221.12,134,228,135a139,139,0,0,0,27.43,1.1l-1.77-4.27A72.81,72.81,0,0,0,232,168.2c-0.48,1.93,1.81,4.18,3.67,2.82A114.15,114.15,0,0,1,281.24,151c13.68-2.65,27.86-3.94,34.64-18,6.65-13.81,2.51-29-3-42.41-0.91-2.24-2.06-4.19-1.78-6.68,0.36-3.16,1.95-3.92,4.82-5s5.62-1.91,8.18-3.52a26.15,26.15,0,0,0,11-14.75,2.52,2.52,0,0,0-2.41-3.16,31.9,31.9,0,0,0-15.16,4.07l3.67,2.82a90.48,90.48,0,0,0,4.87-15.5A2.53,2.53,0,0,0,323,45.74a36.4,36.4,0,0,0-14.68,8.73l4.18,2.43A20.09,20.09,0,0,1,318,48.29c2.33-2.23-1.21-5.76-3.54-3.54h0Z"/><path class="cls-8" d="M496.92,113.82c-15.81-7-34-14.5-51.2-7.77C430.54,112,418.57,126.1,412,140.71c-6,13.38-11,32.5.06,44.7,11.65,12.87,30.64,9.53,44.87,3.72,14.66-6,30.2-16.79,30.5-34.23a5.09,5.09,0,0,0-5-5,229.2,229.2,0,0,1-38.18-5c-6.27-1.37-9,8.27-2.66,9.64a245.59,245.59,0,0,0,40.84,5.37l-5-5C477.23,170,459.38,178.26,447,182.16c-7.74,2.45-16.63,3.77-24-.61-7.63-4.56-8.23-13.21-6.83-21.2C419,144.67,428,129.23,441,119.91c16.17-11.57,34.44-4.73,50.84,2.55,5.83,2.59,10.92-6,5-8.63h0Z"/><path class="cls-4" d="M206,324.49c3.22,0,3.22-5,0-5s-3.22,5,0,5h0Z"/><path class="cls-4" d="M216.31,343.27l3.17,7.93a2.58,2.58,0,0,0,3.08,1.75,2.52,2.52,0,0,0,1.75-3.08l-3.17-7.93a2.58,2.58,0,0,0-3.08-1.75,2.52,2.52,0,0,0-1.75,3.08h0Z"/><path class="cls-4" d="M206,319.73c3.22,0,3.22-5,0-5s-3.22,5,0,5h0Z"/><path class="cls-4" d="M193.35,319.73c3.22,0,3.22-5,0-5s-3.22,5,0,5h0Z"/><path class="cls-9" d="M381.74,319.39c13.3-10.12,12.36-31.65,12.49-46.57,0.09-10.48-.15-21,0.47-31.45,0.56-9.44,1.64-19.45,6.32-27.86,1.57-2.81-2.75-5.34-4.32-2.52-8.88,16-7.43,36.64-7.44,54.27,0,9.57.1,19.23-1.12,28.74-0.94,7.33-2.67,16.31-8.92,21.07-2.53,1.92,0,6.27,2.52,4.32h0Z"/><path class="cls-9" d="M297.1,317.9c8.43-22.29-4.92-44.58-16.61-62.87-6.33-9.9-13.15-19.63-18.16-30.29-4.31-9.18-6.92-19.29-2.82-29,1.25-3-3.59-4.25-4.82-1.33-8.39,19.88,7.35,41.27,17.61,57.15,12.06,18.65,28.77,41.76,20,65-1.14,3,3.69,4.32,4.82,1.33h0Z"/><path class="cls-9" d="M278.59,346.57c0.25-20.91-20.21-32.06-36.67-39.88-23.89-11.35-49.67-20-70.54-36.78-12.27-9.86-21.91-22.35-26.9-37.39-1-3-5.84-1.74-4.82,1.33,8.73,26.3,30.14,43.64,53.95,56.1,21.29,11.14,45.59,18,65.26,32,8.33,5.95,14.86,13.95,14.73,24.62,0,3.22,5,3.22,5,0h0Z"/><path class="cls-9" d="M130.74,256a71.18,71.18,0,0,1,7.82-22.52c1.31-2.35,1.92-4.61,5.27-4.48,1.55,0.06,3.72,1.44,5.13,2l12,4.64c3,1.16,4.3-3.67,1.33-4.82-5.41-2.1-10.79-4.3-16.24-6.3-3.57-1.31-6.36-1.38-8.86,1.75-6.18,7.74-9.55,18.83-11.23,28.41-0.55,3.15,4.26,4.5,4.82,1.33h0Z"/><path class="cls-9" d="M236.86,199.63c3-4.73,6.11-9.35,9.45-13.83,3-4.08,8.71-13.84,14.94-10.36,3.66,2,5.3,7.47,8.23,10.41a11,11,0,0,0,10.06,3.51c3.17-.5,1.82-5.32-1.33-4.82-6.09,1-9.11-8.93-12.92-12.24a10.05,10.05,0,0,0-10.49-2.07c-4.92,1.92-8.13,6.9-11.21,10.93-3.92,5.15-7.59,10.47-11,15.95-1.72,2.73,2.6,5.24,4.32,2.52h0Z"/><path class="cls-9" d="M384.25,213.12a93.93,93.93,0,0,1,24.17-19.34l-3.67-1.49a54.46,54.46,0,0,0,8.33,21.23c1.76,2.68,6.09.18,4.32-2.52a51.14,51.14,0,0,1-7.83-20c-0.27-1.65-2.39-2.21-3.67-1.49a98.08,98.08,0,0,0-25.18,20.12c-2.15,2.39,1.38,5.94,3.54,3.54h0Z"/><path class="cls-2" d="M352.11,461c-2.35.39-4.6-.94-6.62-2.21a353.3,353.3,0,0,0-115.71-46.4l2.72-3.69"/><path class="cls-4" d="M352.11,458.54c-4.78.15-10.54-5.08-14.55-7.42q-7.34-4.29-14.89-8.22-14.18-7.39-29-13.47A357.34,357.34,0,0,0,230.44,410l1.49,3.67,2.72-3.69c1.91-2.59-2.43-5.09-4.32-2.52l-2.72,3.69a2.51,2.51,0,0,0,1.49,3.67A356.39,356.39,0,0,1,294,434.94q15.8,6.62,30.89,14.8,7.48,4,14.76,8.44c3.91,2.36,7.68,5.51,12.46,5.36,3.21-.1,3.22-5.1,0-5h0Z"/><path class="cls-2" d="M471.07,363.1c-25.89,21.34-92.58,67.31-113.4,93.62-1.49,1.89-3.19,3.92-5.56,4.32"/><path class="cls-4" d="M469.3,361.34C449.74,377.4,429,392,409,407.57c-10.92,8.5-21.76,17.14-32.14,26.29-4.41,3.89-8.75,7.88-12.88,12.07-1.83,1.85-3.62,3.74-5.33,5.7-2.1,2.39-4.07,6-7.24,7s-1.75,5.79,1.33,4.82c4.47-1.4,6.79-5.28,9.76-8.64,2.8-3.17,5.79-6.18,8.84-9.11,7.47-7.17,15.37-13.87,23.38-20.42,17.88-14.62,36.43-28.4,54.84-42.34,7.82-5.92,15.66-11.84,23.24-18.07,2.49-2-1.07-5.56-3.54-3.54h0Z"/><line class="cls-2" x1="248.78" y1="376.48" x2="440.31" y2="367.46"/><path class="cls-10" d="M248.78,379l64.84-3.05,102.86-4.84L440.31,370c3.2-.15,3.22-5.15,0-5L375.46,368,272.6,372.85,248.78,374c-3.2.15-3.22,5.15,0,5h0Z"/><path class="cls-9" d="M213.49,298.12c-2.34-5.2-7.41-6-11.27-1.81L99,408.92c-3.85,4.21-2.39,8.31,3.26,9.11l166.23,23.65c5.65,0.8,8.35-2.79,6-8Z"/><path class="cls-4" d="M208.28,312.37c-4.14-6.88-10.68-5.28-15.22-.11L182,324.89l-37.36,42.64c-8.82,10.07-17.86,20-26.49,30.23-4.39,5.21-4.1,11.66,3.39,13.48,3.19,0.77,6.51,1.17,9.74,1.75l104.36,18.79,16.65,3c4.09,0.74,9.6,2.08,11.83-2.61,1.79-3.77-1-7.95-2.64-11.32l-8.35-17-43.86-89.43-1-2c-1.7-3.47-6.88-.43-5.18,3l35.23,71.83,18.15,37c0.84,1.72,3.27,4.88.48,5.31s-6.89-1.24-9.52-1.71L150,410.29l-18.68-3.36c-2.31-.42-6.1-0.35-8.2-1.48-3.65-1.95.85-5.22,2.48-7.09l12.31-14,35.26-40.24c8.17-9.33,16-19.16,24.61-28.09,1.6-1.66,3.22-4.09,5.33-.58C205.09,318.7,210.28,315.69,208.28,312.37Z"/><path class="cls-4" d="M192.4,342.5l-5.15,35.67c-0.55,3.78,5.24,5.41,5.79,1.6l5.15-35.67c0.55-3.78-5.24-5.41-5.79-1.6h0Z"/><path class="cls-4" d="M193.8,400.2a6.64,6.64,0,1,0-.11.8,3.08,3.08,0,0,0-2.1-3.69,3,3,0,0,0-3.69,2.1c-0.11.57-.28,1.09-0.89,1a0.69,0.69,0,0,1-.56-0.82,0.68,0.68,0,0,1,.81-0.56c0.62,0.13.58,0.62,0.53,1.21a3,3,0,0,0,3,3A3.06,3.06,0,0,0,193.8,400.2Z"/></svg>